<svg id="SvgjsSvg1006" width="475.7708435058594" height="395.5833435058594" xmlns="http://www.w3.org/2000/svg" version="1.1" xmlns:xlink="http://www.w3.org/1999/xlink" xmlns:svgjs="http://svgjs.com/svgjs"><defs id="SvgjsDefs1007"><marker id="SvgjsMarker1010" markerWidth="16" markerHeight="12" refX="16" refY="6" viewBox="0 0 16 12" orient="auto" markerUnits="userSpaceOnUse" stroke-dasharray="0,0"><path id="SvgjsPath1011" d="M0,2 L14,6 L0,11 L0,2" fill="#323232" stroke="#323232" stroke-width="2"></path></marker><marker id="SvgjsMarker1014" markerWidth="16" markerHeight="12" refX="16" refY="6" viewBox="0 0 16 12" orient="auto" markerUnits="userSpaceOnUse" stroke-dasharray="0,0"><path id="SvgjsPath1015" d="M0,2 L14,6 L0,11 L0,2" fill="#323232" stroke="#323232" stroke-width="2"></path></marker><marker id="SvgjsMarker1110" markerWidth="16" markerHeight="12" refX="10" refY="6" viewBox="0 0 16 12" orient="auto" markerUnits="userSpaceOnUse" stroke-dasharray="0,0"><path id="SvgjsPath1111" d="M0,3 L10,6 L0,9 L0,3" fill="#323232" stroke="#323232" stroke-width="1"></path></marker></defs><g id="SvgjsG1008"><path id="SvgjsPath1009" d="M73.55786785377751 196.91787366419382L234.1666564941404 196.91787366419382L234.1666564941404 196.91787366419382L394.7754451345038 196.91787366419382" stroke="#323232" stroke-width="2" fill="none" marker-end="url(#SvgjsMarker1010)"></path></g><g id="SvgjsG1012"><path id="SvgjsPath1013" d="M101.55786785377728 298.91787366419385L101.55786785377728 60.917873664193905" stroke="#323232" stroke-width="2" fill="none" marker-end="url(#SvgjsMarker1014)"></path></g><g id="SvgjsG1016"><path id="SvgjsPath1017" d="M103.5543074153124 109.21905674879127L282.77544513450357 248.91787366419385" stroke="#323232" stroke-width="2" fill="none"></path></g><g id="SvgjsG1018"><path id="SvgjsPath1019" d="M280.5342910442082 248.68098090454225L345.7754451345038 248.68098090454225" stroke="#323232" stroke-width="2" fill="none"></path></g><g id="SvgjsG1020"><path id="SvgjsPath1021" d="M102.53429104420826 153.68098090454228L160.20787139248665 153.68098090454228" stroke-dasharray="3,3" stroke="#323232" stroke-width="2" fill="none"></path></g><g id="SvgjsG1022"><path id="SvgjsPath1023" d="M159.53429104420826 157.68098090454228L159.53429104420826 195.58453015833445" stroke-dasharray="3,3" stroke="#323232" stroke-width="2" fill="none"></path></g><g id="SvgjsG1024"><path id="SvgjsPath1025" d="M102.53429104420826 247.68098090454225L281.77544513450357 247.68098090454225" stroke-dasharray="3,3" stroke="#323232" stroke-width="2" fill="none"></path></g><g id="SvgjsG1026"><path id="SvgjsPath1027" d="M280.5342910442082 200.68098090454222L280.5342910442082 244.58453015833447" stroke-dasharray="3,3" stroke="#323232" stroke-width="2" fill="none"></path></g><g id="SvgjsG1028" transform="translate(95.83670537335405,189.5845301583345)"><path id="SvgjsPath1029" d="M 0 0L 120 0L 120 40L 0 40Z" stroke="none" fill="none"></path><g id="SvgjsG1030"><text id="SvgjsText1031" font-family="微软雅黑" text-anchor="middle" font-size="13px" width="120px" fill="#323232" font-weight="400" align="middle" lineHeight="125%" anchor="middle" family="微软雅黑" size="13px" weight="400" font-style="" opacity="1" y="10.375" transform="rotate(0)"><tspan id="SvgjsTspan1032" dy="16" x="60"><tspan id="SvgjsTspan1033" style="text-decoration:;">T1</tspan></tspan></text></g></g><g id="SvgjsG1034" transform="translate(155.78286548915509,190.58453015833445)"><path id="SvgjsPath1035" d="M 0 0L 120 0L 120 40L 0 40Z" stroke="none" fill="none"></path><g id="SvgjsG1036"><text id="SvgjsText1037" font-family="微软雅黑" text-anchor="middle" font-size="13px" width="120px" fill="#323232" font-weight="400" align="middle" lineHeight="125%" anchor="middle" family="微软雅黑" size="13px" weight="400" font-style="" opacity="1" y="10.375" transform="rotate(0)"><tspan id="SvgjsTspan1038" dy="16" x="60"><tspan id="SvgjsTspan1039" style="text-decoration:;">T2</tspan></tspan></text></g></g><g id="SvgjsG1040" transform="translate(218.77544513450357,169.58453015833456)"><path id="SvgjsPath1041" d="M 0 0L 120 0L 120 40L 0 40Z" stroke="none" fill="none"></path><g id="SvgjsG1042"><text id="SvgjsText1043" font-family="微软雅黑" text-anchor="middle" font-size="13px" width="120px" fill="#323232" font-weight="400" align="middle" lineHeight="125%" anchor="middle" family="微软雅黑" size="13px" weight="400" font-style="" opacity="1" y="10.375" transform="rotate(0)"><tspan id="SvgjsTspan1044" dy="16" x="60"><tspan id="SvgjsTspan1045" style="text-decoration:;">T3</tspan></tspan></text></g></g><g id="SvgjsG1046" transform="matrix(0.6427876096865393,-0.7660444431189781,0.7660444431189781,0.6427876096865393,109.7747078524845,100.99574532305758)"><path id="SvgjsPath1047" d="M 0 133.1525109009782Q 3.5782800907207846 133.1525109009782 3.5782800907207846 124.1525109009782L 3.5782800907207846 75.5762554504891Q 3.5782800907207846 66.5762554504891 22 66.5762554504891Q 3.5782800907207846 66.5762554504891 3.5782800907207846 57.5762554504891L 3.5782800907207846 9Q 3.5782800907207846 0 0 0" stroke="rgba(158,158,158,1)" stroke-width="1" fill="none"></path><path id="SvgjsPath1048" d="M 0 0L 35.78280090720784 0L 35.78280090720784 133.1525109009782L 0 133.1525109009782Z" stroke="none" fill="none"></path><g id="SvgjsG1049"><text id="SvgjsText1050" font-family="微软雅黑" text-anchor="start" font-size="13px" width="9px" fill="#323232" font-weight="400" align="middle" lineHeight="125%" anchor="start" family="微软雅黑" size="13px" weight="400" font-style="" opacity="1" y="56.9512554504891" transform="rotate(0)"></text></g></g><g id="SvgjsG1051" transform="translate(141.45206783374493,86.91787366419396)"><path id="SvgjsPath1052" d="M 0 0L 120 0L 120 40L 0 40Z" stroke="none" fill="none"></path><g id="SvgjsG1053"><text id="SvgjsText1054" font-family="微软雅黑" text-anchor="middle" font-size="13px" width="120px" fill="#323232" font-weight="400" align="middle" lineHeight="125%" anchor="middle" family="微软雅黑" size="13px" weight="400" font-style="" opacity="1" y="2.375" transform="rotate(0)"><tspan id="SvgjsTspan1055" dy="16" x="60"><tspan id="SvgjsTspan1056" style="text-decoration:;">电压正向</tspan></tspan><tspan id="SvgjsTspan1057" dy="16" x="60"><tspan id="SvgjsTspan1058" style="text-decoration:;">电流正向</tspan></tspan></text></g></g><g id="SvgjsG1059" transform="matrix(0.6427876096865393,-0.7660444431189781,0.7660444431189781,0.6427876096865393,144.1381662061329,299.58564538488804)"><path id="SvgjsPath1060" d="M 120.44349222084941 0Q 111.44349222084941 0 111.44349222084941 5.641669882324027L 111.44349222084941 22.566679529296106Q 111.44349222084941 28.208349411620134 98.44349222084941 28.208349411620134Q 111.44349222084941 28.208349411620134 111.44349222084941 33.85001929394416L 111.44349222084941 50.77502894091624Q 111.44349222084941 56.41669882324027 120.44349222084941 56.41669882324027" stroke="rgba(158,158,158,1)" stroke-width="1" fill="none"></path><path id="SvgjsPath1061" d="M 0 0L 120.44349222084941 0L 120.44349222084941 56.41669882324027L 0 56.41669882324027Z" stroke="none" fill="none"></path><g id="SvgjsG1062"><text id="SvgjsText1063" font-family="微软雅黑" text-anchor="end" font-size="13px" width="94px" fill="#323232" font-weight="400" align="middle" lineHeight="125%" anchor="end" family="微软雅黑" size="13px" weight="400" font-style="" opacity="1" y="18.583349411620134" transform="rotate(0)"></text></g></g><g id="SvgjsG1064" transform="translate(149.27967044101246,247.91787366419385)"><path id="SvgjsPath1065" d="M 0 0L 120 0L 120 40L 0 40Z" stroke="none" fill="none"></path><g id="SvgjsG1066"><text id="SvgjsText1067" font-family="微软雅黑" text-anchor="middle" font-size="13px" width="120px" fill="#f57f17" font-weight="400" align="middle" lineHeight="125%" anchor="middle" family="微软雅黑" size="13px" weight="400" font-style="" opacity="1" y="2.375" transform="rotate(0)"><tspan id="SvgjsTspan1068" dy="16" x="60"><tspan id="SvgjsTspan1069" style="text-decoration:;">电压正向</tspan></tspan><tspan id="SvgjsTspan1070" dy="16" x="60"><tspan id="SvgjsTspan1071" style="text-decoration:;">电流反向</tspan></tspan></text></g></g><g id="SvgjsG1072" transform="translate(117.77544513450363,317.58453015833436)"><path id="SvgjsPath1073" d="M 0 0L 197 0L 213 16L 213 52.20590916575293L 0 52.20590916575293L 0 0Z" stroke="none" fill-opacity="1" fill="#ffffaa"></path><path id="SvgjsPath1074" d="M 197 0L 197 16L 213 16Z" stroke="none" fill-opacity="1" fill="#cdcdcd"></path><path id="SvgjsPath1075" d="M 0 0L 197 0L 213 16L 213 52.20590916575293L 0 52.20590916575293L 0 0Z" stroke="none" fill="none"></path><g id="SvgjsG1076"><text id="SvgjsText1077" font-family="微软雅黑" text-anchor="start" font-size="13px" width="193px" fill="#323232" font-weight="400" align="middle" lineHeight="125%" anchor="start" family="微软雅黑" size="13px" weight="400" font-style="" opacity="1" y="0.477954582876464" transform="rotate(0)"><tspan id="SvgjsTspan1078" dy="16" x="10"><tspan id="SvgjsTspan1079" style="text-decoration:;">正反向用角度来调接地方向自适</tspan></tspan><tspan id="SvgjsTspan1080" dy="16" x="10"><tspan id="SvgjsTspan1081" style="text-decoration:;">应（234）要投1</tspan></tspan><tspan id="SvgjsTspan1082" dy="16" x="10"><tspan id="SvgjsTspan1083" style="text-decoration:;">功率要大于自适应功率值（235）</tspan></tspan></text></g></g><g id="SvgjsG1084" transform="translate(25.001257666435606,130.70356495184194)"><path id="SvgjsPath1085" d="M 0 0L 120 0L 120 40L 0 40Z" stroke="none" fill="none"></path><g id="SvgjsG1086"><text id="SvgjsText1087" font-family="微软雅黑" text-anchor="middle" font-size="13px" width="120px" fill="#323232" font-weight="400" align="middle" lineHeight="125%" anchor="middle" family="微软雅黑" size="13px" weight="400" font-style="" opacity="1" y="10.375" transform="rotate(0)"><tspan id="SvgjsTspan1088" dy="16" x="60"><tspan id="SvgjsTspan1089" style="text-decoration:;">P2</tspan></tspan></text></g></g><g id="SvgjsG1090" transform="translate(25.001257666435606,82.70356495184208)"><path id="SvgjsPath1091" d="M 0 0L 120 0L 120 40L 0 40Z" stroke="none" fill="none"></path><g id="SvgjsG1092"><text id="SvgjsText1093" font-family="微软雅黑" text-anchor="middle" font-size="13px" width="120px" fill="#323232" font-weight="400" align="middle" lineHeight="125%" anchor="middle" family="微软雅黑" size="13px" weight="400" font-style="" opacity="1" y="10.375" transform="rotate(0)"><tspan id="SvgjsTspan1094" dy="16" x="60"><tspan id="SvgjsTspan1095" style="text-decoration:;">P1</tspan></tspan></text></g></g><g id="SvgjsG1096" transform="translate(39.332055321845644,25.00474803643931)"><path id="SvgjsPath1097" d="M 0 0L 120 0L 120 40L 0 40Z" stroke="none" fill="none"></path><g id="SvgjsG1098"><text id="SvgjsText1099" font-family="微软雅黑" text-anchor="middle" font-size="13px" width="120px" fill="#323232" font-weight="400" align="middle" lineHeight="125%" anchor="middle" family="微软雅黑" size="13px" weight="400" font-style="" opacity="1" y="10.375" transform="rotate(0)"><tspan id="SvgjsTspan1100" dy="16" x="60"><tspan id="SvgjsTspan1101" style="text-decoration:;">P</tspan></tspan></text></g></g><g id="SvgjsG1102" transform="translate(25.001257666435606,222.37022144598257)"><path id="SvgjsPath1103" d="M 0 0L 112.79597299292789 0L 112.79597299292789 39.333343505859375L 0 39.333343505859375Z" stroke="none" fill="none"></path><g id="SvgjsG1104"><text id="SvgjsText1105" font-family="微软雅黑" text-anchor="middle" font-size="13px" width="113px" fill="#323232" font-weight="400" align="middle" lineHeight="125%" anchor="middle" family="微软雅黑" size="13px" weight="400" font-style="" opacity="1" y="10.041671752929688" transform="rotate(0)"><tspan id="SvgjsTspan1106" dy="16" x="56.5"><tspan id="SvgjsTspan1107" style="text-decoration:;">P3</tspan></tspan></text></g></g><g id="SvgjsG1108"><path id="SvgjsPath1109" d="M281.02643876596585 177.03689319891228L307.02643876596585 138.03689319891217" stroke="#323232" stroke-width="1" fill="none" marker-end="url(#SvgjsMarker1110)"></path></g><g id="SvgjsG1112" transform="translate(319.02643876596585,59.671419789369025)"><path id="SvgjsPath1113" d="M 0 0L 120.28043545634944 0L 120.28043545634944 90L 0 90Z" stroke="none" fill="none"></path><g id="SvgjsG1114"><text id="SvgjsText1115" font-family="微软雅黑" text-anchor="start" font-size="13px" width="121px" fill="#323232" font-weight="400" align="middle" lineHeight="125%" anchor="start" family="微软雅黑" size="13px" weight="400" font-style="" opacity="1" y="3.375" transform="rotate(0)"><tspan id="SvgjsTspan1116" dy="16" x="0"><tspan id="SvgjsTspan1117" style="text-decoration:;">加入零压和零流</tspan></tspan><tspan id="SvgjsTspan1118" dy="16" x="0"><tspan id="SvgjsTspan1119" style="text-decoration:;">1、零压和零流正向</tspan></tspan><tspan id="SvgjsTspan1120" dy="16" x="0"><tspan id="SvgjsTspan1121" style="text-decoration:;">时报接地</tspan></tspan><tspan id="SvgjsTspan1122" dy="16" x="0"><tspan id="SvgjsTspan1123" style="text-decoration:;">2、零压和零流反向</tspan></tspan><tspan id="SvgjsTspan1124" dy="16" x="0"><tspan id="SvgjsTspan1125" style="text-decoration:;">时不报接地</tspan></tspan></text></g></g><g id="SvgjsG1126" transform="translate(330.77544513450357,195.35415649414062)"><path id="SvgjsPath1127" d="M 0 0L 120 0L 120 40L 0 40Z" stroke="none" fill="none"></path><g id="SvgjsG1128"><text id="SvgjsText1129" font-family="微软雅黑" text-anchor="middle" font-size="13px" width="120px" fill="#323232" font-weight="400" align="middle" lineHeight="125%" anchor="middle" family="微软雅黑" size="13px" weight="400" font-style="" opacity="1" y="10.375" transform="rotate(0)"><tspan id="SvgjsTspan1130" dy="16" x="60"><tspan id="SvgjsTspan1131" style="text-decoration:;">T/s</tspan></tspan></text></g></g></svg>