<?xml version="1.0" standalone="no"?>
<!DOCTYPE svg PUBLIC "-//W3C//DTD SVG 20010904//EN"
 "http://www.w3.org/TR/2001/REC-SVG-20010904/DTD/svg10.dtd">
<svg version="1.0" xmlns="http://www.w3.org/2000/svg"
 width="1308.000000pt" height="261.000000pt" viewBox="0 0 1308.000000 261.000000"
 preserveAspectRatio="xMidYMid meet">

<g transform="translate(0.000000,261.000000) scale(0.100000,-0.100000)"
fill="#000000" stroke="none">
<path d="M87 2493 c-4 -3 -7 -528 -7 -1165 l0 -1158 6438 0 6437 0 -2 1162 -2
1163 -6429 3 c-3536 1 -6432 -1 -6435 -5z m4663 -40 c0 -5 -9 -23 -20 -40 -15
-26 -17 -33 -5 -33 7 0 17 5 20 10 10 15 35 12 35 -5 0 -10 -10 -15 -34 -15
-19 0 -38 -4 -41 -10 -4 -6 8 -10 29 -10 46 0 46 -15 1 -41 -19 -12 -32 -25
-29 -30 9 -14 18 -11 53 22 l34 31 21 -21 20 -21 -37 0 -37 0 0 -75 c0 -43 4
-75 10 -75 6 0 10 7 10 15 0 12 14 15 70 15 40 0 70 -4 70 -10 0 -5 5 -10 10
-10 6 0 10 30 10 70 l0 70 -42 1 c-35 0 -47 5 -66 30 l-24 29 32 0 c18 0 29 4
25 10 -3 6 -20 10 -36 10 -38 0 -34 24 4 28 47 6 29 22 -24 22 -42 0 -49 2
-40 13 6 8 8 17 4 20 -3 4 69 7 161 7 l167 0 -22 -40 c-13 -22 -26 -40 -31
-40 -4 0 -8 -7 -8 -15 0 -12 15 -14 75 -12 41 1 75 5 75 8 0 3 -11 20 -24 38
-15 20 -27 28 -31 21 -4 -6 -2 -17 5 -25 9 -11 5 -15 -25 -21 -20 -3 -38 -5
-40 -2 -2 2 11 22 28 45 26 34 38 42 65 43 l32 0 0 -64 c0 -63 0 -64 30 -70
48 -9 101 18 85 45 -5 7 -14 3 -26 -10 -21 -22 -28 -24 -53 -15 -31 12 -18 41
28 60 27 12 42 23 39 31 -4 10 -14 8 -40 -8 -38 -24 -48 -21 -38 10 6 20 14
21 111 21 58 0 103 -4 100 -9 -7 -11 28 -43 37 -34 4 3 0 15 -10 25 -15 17
-14 18 39 18 62 0 68 -6 68 -66 0 -30 -3 -34 -25 -34 -31 0 -33 -17 -3 -22 20
-3 23 -8 20 -43 -5 -47 -15 -70 -49 -106 -15 -16 -21 -29 -14 -33 22 -14 79
72 83 126 1 13 4 -8 7 -47 6 -69 6 -70 37 -73 33 -3 61 19 48 39 -5 8 -9 7
-16 -5 -5 -9 -18 -16 -28 -16 -18 0 -20 7 -20 70 0 40 -4 70 -10 70 -5 0 -10
5 -10 10 0 6 18 10 40 10 22 0 40 5 40 10 0 6 -18 10 -40 10 l-40 0 0 50 0 50
83 0 83 0 3 -45 c2 -42 0 -45 -24 -45 -14 0 -25 -4 -25 -10 0 -5 11 -10 25
-10 24 0 25 -3 25 -55 0 -50 -2 -56 -25 -65 -14 -5 -25 -15 -25 -21 0 -7 7 -8
18 -4 9 4 36 14 60 22 45 16 59 39 17 29 -24 -6 -25 -5 -25 44 0 43 3 50 20
50 11 0 20 5 20 10 0 6 -9 10 -20 10 -17 0 -20 7 -20 45 l0 45 60 0 60 0 0
-50 c0 -27 -2 -50 -4 -50 -2 0 -12 -3 -21 -7 -15 -5 -17 0 -14 40 3 33 0 47
-8 47 -9 0 -13 -17 -13 -50 0 -43 -3 -50 -20 -50 -11 0 -20 -4 -20 -10 0 -5 9
-10 20 -10 18 0 20 -7 20 -68 0 -40 5 -73 12 -80 19 -19 128 -15 150 5 10 9
18 20 18 25 0 14 -28 9 -34 -8 -4 -12 -19 -14 -63 -12 l-58 3 -3 69 c-3 66 4
85 31 86 4 0 7 -27 7 -59 0 -33 5 -63 10 -66 6 -4 10 20 10 63 0 66 1 70 25
74 24 5 25 3 25 -38 0 -31 -5 -46 -17 -53 -13 -7 -15 -13 -7 -21 23 -23 44 17
44 81 l0 60 -36 -7 -35 -6 3 43 3 44 683 3 682 2 0 -40 0 -40 -49 0 c-28 0
-53 -4 -56 -10 -4 -6 15 -10 50 -10 l56 0 -3 -87 c-3 -82 -5 -88 -25 -91 -13
-2 -20 -8 -17 -17 4 -9 14 -11 32 -6 27 7 27 9 30 104 3 96 3 97 27 97 14 0
25 5 25 10 0 6 -11 10 -25 10 -22 0 -25 4 -25 40 l0 40 480 0 480 0 0 -50 c0
-49 -1 -50 -30 -50 l-30 0 0 -75 c0 -43 4 -75 10 -75 6 0 10 28 10 65 l0 65
50 0 50 0 0 -60 c0 -33 4 -60 10 -60 6 0 10 30 10 70 l0 70 -30 0 c-29 0 -30
1 -30 50 l0 50 2315 0 2315 0 0 -175 0 -175 -6400 0 -6400 0 0 175 0 175 2315
0 c1273 0 2315 -3 2315 -7z m170 -203 c0 -18 -7 -20 -70 -20 -63 0 -70 2 -70
20 0 18 7 20 70 20 63 0 70 -2 70 -20z m0 -45 c0 -12 -14 -15 -70 -15 -56 0
-70 3 -70 15 0 12 14 15 70 15 56 0 70 -3 70 -15z m-3320 -300 l0 -175 -740 0
-740 0 0 175 0 175 740 0 740 0 0 -175z m2380 0 l0 -175 -1175 0 -1175 0 0
175 0 175 1175 0 1175 0 0 -175z m2160 0 l0 -175 -1065 0 -1065 0 0 175 0 175
1065 0 1065 0 0 -175z m2690 0 l0 -175 -1325 0 -1325 0 0 175 0 175 1325 0
1325 0 0 -175z m4090 0 l0 -175 -2025 0 -2025 0 0 175 0 175 2025 0 2025 0 0
-175z m-11320 -380 l0 -175 -740 0 -740 0 0 175 0 175 740 0 740 0 0 -175z
m2380 0 l0 -175 -1175 0 -1175 0 0 175 0 175 1175 0 1175 0 0 -175z m2160 0
l0 -175 -1065 0 -1065 0 0 175 0 175 1065 0 1065 0 0 -175z m2690 0 l0 -175
-1325 0 -1325 0 0 175 0 175 1325 0 1325 0 0 -175z m4090 0 l0 -175 -2025 0
-2025 0 0 175 0 175 2025 0 2025 0 0 -175z m-11320 -380 l0 -175 -740 0 -740
0 0 175 0 175 740 0 740 0 0 -175z m2380 0 l0 -175 -1175 0 -1175 0 0 175 0
175 1175 0 1175 0 0 -175z m2160 0 l0 -175 -1065 0 -1065 0 0 175 0 175 1065
0 1065 0 0 -175z m2690 0 l0 -175 -1325 0 -1325 0 0 175 0 175 1325 0 1325 0
0 -175z m4090 0 l0 -175 -2025 0 -2025 0 0 175 0 175 2025 0 2025 0 0 -175z
m-11320 -385 l0 -170 -740 0 -740 0 0 170 0 170 740 0 740 0 0 -170z m2380 0
l0 -170 -1175 0 -1175 0 0 170 0 170 1175 0 1175 0 0 -170z m2160 0 l0 -170
-1065 0 -1065 0 0 170 0 170 1065 0 1065 0 0 -170z m1547 164 c-4 -4 5 -21 20
-38 l26 -31 -51 -3 c-29 -2 -52 -7 -52 -13 0 -12 197 -12 205 1 4 6 -13 10
-45 10 -34 0 -49 4 -44 11 3 6 -6 24 -22 40 l-28 29 567 0 567 0 0 -170 0
-170 -1325 0 -1325 0 0 170 0 170 757 0 c416 0 753 -3 750 -6z m5233 -164 l0
-170 -2025 0 -2025 0 0 170 0 170 2025 0 2025 0 0 -170z m-11320 -385 l0 -175
-740 0 -740 0 0 175 0 175 740 0 740 0 0 -175z m2380 0 l0 -175 -1175 0 -1175
0 0 175 0 175 1175 0 1175 0 0 -175z m850 135 c0 -36 -2 -40 -25 -40 -14 0
-25 -4 -25 -10 0 -5 11 -10 25 -10 22 0 25 -4 25 -33 0 -26 -6 -36 -25 -45
-14 -6 -25 -16 -25 -22 0 -13 6 -13 31 0 18 10 19 7 19 -39 0 -37 -4 -53 -17
-60 -10 -5 -14 -13 -10 -17 4 -5 16 -3 25 2 12 8 18 28 20 75 2 43 8 66 18 72
19 11 18 28 -1 21 -11 -5 -15 1 -15 20 0 16 6 26 15 26 8 0 15 5 15 10 0 6 -7
10 -15 10 -11 0 -15 11 -15 40 l0 40 645 0 645 0 0 -175 0 -175 -1065 0 -1065
0 0 175 0 175 410 0 410 0 0 -40z m2857 34 c-4 -4 5 -21 20 -38 l26 -31 -51
-3 c-29 -2 -52 -7 -52 -13 0 -12 197 -12 205 1 4 6 -13 10 -45 10 -34 0 -49 4
-44 11 3 6 -6 24 -22 40 l-28 29 567 0 567 0 0 -175 0 -175 -1325 0 -1325 0 0
175 0 175 757 0 c416 0 753 -3 750 -6z m3023 -24 c0 -29 -1 -30 -50 -30 l-50
0 0 -85 0 -85 49 0 50 0 3 -37 3 -38 70 -3 c62 -3 72 0 87 19 10 11 15 25 12
30 -9 15 -21 10 -27 -11 -4 -17 -14 -20 -66 -20 l-61 0 0 30 c0 30 1 30 55 30
l55 0 0 85 0 85 -56 0 c-54 0 -56 1 -52 25 3 13 0 26 -6 29 -6 2 53 5 132 5
78 1 142 -3 142 -7 0 -5 -16 -27 -36 -51 -44 -51 -37 -67 10 -22 33 32 33 32
130 30 53 -1 100 1 103 5 3 3 -40 6 -97 6 -87 0 -101 2 -91 14 9 11 9 15 -1
19 -7 3 418 6 945 6 l957 1 0 -175 0 -175 -2025 0 -2025 0 0 175 0 175 920 0
920 0 0 -30z m0 -75 c0 -22 -4 -25 -40 -25 -36 0 -40 3 -40 25 0 23 4 25 40
25 36 0 40 -2 40 -25z m110 0 c0 -23 -4 -25 -45 -25 -41 0 -45 2 -45 25 0 23
4 25 45 25 41 0 45 -2 45 -25z m-110 -75 c0 -28 -2 -30 -40 -30 -38 0 -40 2
-40 30 0 28 2 30 40 30 38 0 40 -2 40 -30z m110 0 c0 -29 -2 -30 -45 -30 -43
0 -45 1 -45 30 0 29 2 30 45 30 43 0 45 -1 45 -30z"/>
<path d="M6318 2375 c3 -71 2 -76 -20 -84 -20 -8 -21 -10 -5 -16 34 -14 47 12
47 96 0 57 -4 79 -12 79 -10 0 -12 -20 -10 -75z"/>
<path d="M7780 2442 c0 -4 7 -18 16 -30 21 -30 38 -17 18 14 -16 23 -34 32
-34 16z"/>
<path d="M8099 2406 c-22 -35 -24 -46 -14 -59 7 -10 20 -17 29 -17 10 0 16 -8
16 -25 0 -20 -5 -25 -25 -25 -14 0 -25 -4 -25 -10 0 -5 12 -10 26 -10 26 0 27
-1 21 -45 -7 -51 3 -57 41 -26 27 24 28 35 2 28 -16 -4 -20 0 -20 19 0 19 5
24 25 24 14 0 25 5 25 10 0 6 -11 10 -25 10 -20 0 -25 5 -25 25 0 18 5 25 20
25 11 0 20 5 20 10 0 6 -23 10 -51 10 -45 0 -50 2 -39 15 8 9 30 15 56 15 24
0 44 5 44 10 0 6 -16 10 -35 10 -38 0 -40 2 -25 31 8 14 7 19 -2 19 -7 0 -25
-20 -39 -44z"/>
<path d="M6070 2430 c0 -5 9 -10 20 -10 15 0 20 -7 20 -25 0 -20 -5 -25 -25
-25 -14 0 -25 -4 -25 -10 0 -5 9 -10 20 -10 26 0 25 -20 -2 -55 -20 -25 -20
-27 -2 -23 10 1 27 19 36 38 23 46 52 47 56 3 2 -18 7 -33 13 -33 5 0 9 -9 9
-20 0 -17 -7 -20 -50 -20 -27 0 -50 -4 -50 -10 0 -5 23 -10 50 -10 43 0 50 -3
50 -20 0 -18 -7 -20 -70 -20 -40 0 -70 -4 -70 -10 0 -6 57 -10 150 -10 93 0
150 4 150 10 0 6 -30 10 -70 10 -63 0 -70 2 -70 20 0 17 7 20 50 20 28 0 50 5
50 10 0 6 -23 10 -51 10 -46 0 -51 2 -46 20 3 13 0 20 -9 20 -9 0 -14 12 -14
35 0 28 4 35 20 35 11 0 20 5 20 10 0 6 -9 10 -20 10 -15 0 -20 7 -20 25 0 16
6 25 15 25 8 0 15 5 15 10 0 6 -32 10 -75 10 -43 0 -75 -4 -75 -10z m98 -38
c3 -17 -2 -22 -17 -22 -16 0 -21 6 -21 26 0 33 33 30 38 -4z"/>
<path d="M7410 2295 c0 -90 4 -145 10 -145 6 0 10 52 10 135 l0 135 25 0 25 0
-19 -38 c-19 -37 -19 -38 0 -61 26 -32 25 -71 -1 -71 -21 0 -27 -15 -10 -25
14 -9 48 12 55 35 4 13 -1 34 -14 56 l-21 35 20 39 c11 22 20 42 20 45 0 3
-22 5 -50 5 l-50 0 0 -145z"/>
<path d="M7520 2295 c0 -80 2 -145 5 -145 3 0 21 10 40 23 35 22 48 44 20 33
-8 -3 -22 -9 -30 -12 -12 -5 -15 4 -15 50 0 47 3 56 18 56 12 0 23 -13 31 -36
17 -47 81 -118 94 -105 6 6 -3 21 -24 40 l-34 31 30 25 c37 31 26 44 -13 16
-26 -18 -31 -19 -36 -5 -11 28 -7 34 24 34 l30 0 0 70 0 70 -70 0 -70 0 0
-145z m120 105 c0 -17 -7 -20 -50 -20 -43 0 -50 3 -50 20 0 17 7 20 50 20 43
0 50 -3 50 -20z m0 -60 c0 -17 -7 -20 -50 -20 -43 0 -50 3 -50 20 0 17 7 20
50 20 43 0 50 -3 50 -20z"/>
<path d="M8197 2433 c-3 -4 5 -20 18 -35 15 -18 26 -24 31 -17 3 6 -5 22 -19
36 -13 14 -27 21 -30 16z"/>
<path d="M8326 2413 c-13 -18 -15 -28 -7 -36 7 -7 11 -7 11 -1 0 6 9 20 20 31
13 15 15 23 7 26 -7 2 -20 -7 -31 -20z"/>
<path d="M5610 2422 c0 -16 27 -45 39 -41 8 3 7 11 -4 27 -16 22 -35 30 -35
14z"/>
<path d="M6250 2370 c0 -78 17 -78 22 0 2 43 -1 60 -9 60 -9 0 -13 -19 -13
-60z"/>
<path d="M7070 2305 c0 -104 2 -125 15 -125 8 0 14 6 13 12 -5 21 42 21 57 1
8 -10 15 -16 15 -13 1 3 2 60 3 128 l2 122 -52 0 -53 0 0 -125z m80 65 c0 -38
-2 -40 -30 -40 -28 0 -30 2 -30 40 0 38 2 40 30 40 28 0 30 -2 30 -40z m0
-100 c0 -38 -2 -40 -30 -40 -28 0 -30 2 -30 40 0 38 2 40 30 40 28 0 30 -2 30
-40z"/>
<path d="M7850 2420 c0 -6 30 -10 70 -10 l70 0 0 -120 c0 -100 -2 -120 -15
-120 -8 0 -15 -5 -15 -11 0 -6 10 -9 23 -7 21 3 22 6 25 141 l3 137 -81 0
c-47 0 -80 -4 -80 -10z"/>
<path d="M4880 2365 l0 -55 50 0 50 0 0 55 0 55 -50 0 -50 0 0 -55z m78 3 c3
-36 2 -38 -27 -38 -30 0 -31 2 -31 41 0 38 1 40 28 37 23 -3 27 -8 30 -40z"/>
<path d="M6400 2305 c0 -66 4 -115 9 -115 6 0 11 24 13 53 l3 52 48 3 c59 4
52 22 -9 22 l-44 0 0 40 0 40 50 0 c28 0 50 5 50 10 0 6 -27 10 -60 10 l-60 0
0 -115z"/>
<path d="M6582 2312 c-46 -118 -47 -122 -32 -122 5 0 16 16 25 36 14 35 15 35
67 32 50 -3 53 -5 62 -35 5 -18 15 -33 22 -33 8 0 14 1 14 3 0 1 -19 51 -43
112 -25 64 -49 111 -58 113 -11 2 -27 -29 -57 -106z m72 45 c32 -77 31 -77
-13 -77 -23 0 -41 3 -41 8 0 10 33 102 37 102 1 0 9 -15 17 -33z"/>
<path d="M5370 2390 c0 -6 33 -10 80 -10 47 0 80 4 80 10 0 6 -33 10 -80 10
-47 0 -80 -4 -80 -10z"/>
<path d="M7750 2271 c0 -90 3 -121 13 -121 16 0 14 233 -2 238 -7 2 -11 -36
-11 -117z"/>
<path d="M7898 2365 c4 -24 2 -25 -47 -25 -28 0 -51 -4 -51 -10 0 -5 16 -10
35 -10 19 0 35 -4 35 -9 0 -12 -41 -63 -63 -80 -12 -9 -15 -17 -9 -23 14 -14
26 -4 63 52 18 28 34 50 36 50 2 0 3 -25 3 -55 0 -48 -2 -55 -20 -55 -11 0
-20 -4 -20 -9 0 -17 19 -22 40 -11 17 9 20 21 20 75 0 63 1 65 25 65 14 0 25
5 25 10 0 6 -11 10 -25 10 -20 0 -25 5 -25 25 0 14 -6 25 -14 25 -9 0 -12 -8
-8 -25z"/>
<path d="M5395 2320 c0 -35 3 -40 23 -40 20 0 22 -5 22 -50 0 -39 -3 -50 -16
-50 -9 0 -14 -6 -11 -12 4 -12 35 -13 46 -2 2 2 6 29 9 59 4 46 8 55 23 55 15
0 19 8 19 40 l0 40 -57 0 -58 0 0 -40z m95 0 c0 -16 -7 -20 -35 -20 -28 0 -35
4 -35 20 0 16 7 20 35 20 28 0 35 -4 35 -20z"/>
<path d="M6900 2355 c0 -6 11 -27 25 -47 l24 -36 -29 -41 c-21 -29 -26 -41
-16 -41 8 0 23 14 33 30 9 17 21 30 25 30 4 0 15 -13 25 -30 9 -16 24 -30 31
-30 12 0 11 4 -2 23 -38 52 -40 64 -16 96 12 17 20 37 17 44 -2 6 -15 -5 -28
-25 l-24 -38 -32 38 c-18 20 -32 32 -33 27z"/>
<path d="M5060 2248 c0 -52 4 -88 10 -88 6 0 10 16 10 35 0 33 2 35 35 35 31
0 35 -3 35 -25 0 -16 -6 -25 -15 -25 -8 0 -15 -5 -15 -11 0 -6 10 -9 23 -7 21
3 22 8 25 88 l3 85 -56 0 -55 0 0 -87z m90 57 c0 -10 -11 -15 -35 -15 -33 0
-43 8 -28 23 13 14 63 7 63 -8z m0 -45 c0 -5 -16 -10 -35 -10 -19 0 -35 5 -35
10 0 6 16 10 35 10 19 0 35 -4 35 -10z"/>
<path d="M7207 2324 c-8 -9 27 -64 41 -64 10 0 9 7 -3 29 -16 32 -29 44 -38
35z"/>
<path d="M5200 2253 c0 -79 9 -93 60 -93 47 0 76 21 65 46 -7 17 -8 18 -12 2
-10 -40 -93 -34 -93 7 0 18 9 27 45 41 25 9 45 21 45 25 0 13 -21 10 -50 -6
-36 -20 -42 -18 -38 12 2 15 -2 28 -9 30 -10 4 -13 -14 -13 -64z"/>
<path d="M8260 2271 c0 -42 -27 -86 -61 -96 -14 -5 -18 -10 -11 -17 12 -12 39
1 66 31 24 27 39 121 19 121 -8 0 -13 -13 -13 -39z"/>
<path d="M5388 2225 c-13 -25 -14 -35 -5 -35 14 0 48 56 39 64 -10 11 -17 5
-34 -29z"/>
<path d="M5487 2254 c-7 -13 19 -47 33 -42 8 2 5 12 -8 27 -10 14 -21 20 -25
15z"/>
<path d="M8296 2211 c-7 -11 48 -63 57 -54 12 11 8 19 -22 41 -17 12 -32 18
-35 13z"/>
<path d="M6740 2150 c0 -6 32 -10 75 -10 43 0 75 4 75 10 0 6 -32 10 -75 10
-43 0 -75 -4 -75 -10z"/>
<path d="M690 2064 c0 -4 8 -13 18 -20 15 -12 8 -13 -49 -14 l-66 0 -5 -97
c-3 -64 -11 -109 -22 -130 -13 -26 -14 -33 -3 -33 24 0 40 52 45 148 l4 92
124 0 c76 0 124 4 124 10 0 6 -26 10 -58 10 -46 0 -60 4 -70 20 -11 18 -42 28
-42 14z"/>
<path d="M959 2058 c0 -2 -1 -24 -2 -50 l-3 -48 93 0 93 0 0 50 0 50 -90 0
c-49 0 -90 -1 -91 -2z m161 -48 l0 -30 -70 0 -70 0 0 30 0 30 70 0 70 0 0 -30z"/>
<path d="M640 1980 c0 -6 31 -10 72 -10 71 0 71 0 53 -20 -10 -12 -25 -18 -32
-15 -7 3 -20 8 -28 11 -24 10 -17 -12 8 -24 19 -9 13 -11 -35 -11 -32 -1 -58
-5 -58 -11 0 -5 25 -10 55 -10 l55 0 0 -55 c0 -42 -3 -55 -15 -55 -8 0 -15 -5
-15 -11 0 -6 10 -9 23 -7 20 3 22 9 25 66 l3 62 40 0 c36 0 39 -2 29 -19 -13
-24 -13 -31 0 -31 8 0 40 51 40 65 0 3 -20 5 -45 5 -25 0 -45 3 -45 7 0 4 14
22 32 40 l32 33 -97 0 c-58 0 -97 -4 -97 -10z"/>
<path d="M895 1930 c-4 -6 12 -10 41 -10 46 0 46 0 41 -30 l-6 -30 79 0 c86 0
94 -6 64 -48 -11 -16 -25 -22 -55 -22 -21 0 -39 -4 -39 -10 0 -11 52 -13 87
-4 21 6 43 48 43 85 0 17 -9 19 -76 19 -65 0 -75 2 -70 16 3 9 6 18 6 20 0 2
41 4 90 4 53 0 90 4 90 10 0 6 -55 10 -144 10 -86 0 -147 -4 -151 -10z"/>
<path d="M2047 2064 c-3 -5 3 -20 12 -33 11 -14 21 -19 25 -13 3 5 -2 20 -12
33 -11 12 -21 18 -25 13z"/>
<path d="M2161 2040 c-6 -17 -20 -43 -31 -58 l-21 -26 20 -8 c25 -9 27 -26 6
-34 -19 -8 -20 -24 0 -24 10 0 15 -15 17 -57 l3 -58 64 0 c49 0 66 4 75 17 5
9 7 21 2 25 -4 4 -12 0 -17 -10 -7 -12 -23 -17 -59 -17 l-50 0 0 54 c0 39 4
55 15 60 12 4 15 -4 15 -44 0 -66 18 -64 22 2 2 41 7 54 21 56 23 5 24 -53 1
-66 -13 -7 -14 -11 -4 -17 20 -12 40 23 40 68 0 39 -1 39 -30 34 -27 -6 -30
-4 -30 18 0 34 -18 32 -22 -2 -4 -33 -24 -41 -31 -12 -3 11 -10 18 -16 14 -15
-9 -13 6 3 28 10 13 28 17 80 17 37 0 66 4 66 10 0 6 -27 10 -60 10 -64 0 -66
1 -50 31 8 15 7 19 -4 19 -8 0 -19 -14 -25 -30z"/>
<path d="M2400 2035 c0 -32 -2 -35 -30 -35 -16 0 -30 -4 -30 -10 0 -5 14 -10
30 -10 l31 0 -7 -52 c-7 -59 -27 -114 -50 -139 -13 -14 -13 -17 0 -22 27 -11
59 62 72 161 5 42 10 52 25 52 17 0 19 -9 19 -81 0 -72 -2 -81 -20 -86 -23 -6
-27 -33 -6 -33 35 0 46 29 46 126 l0 94 -31 0 c-30 0 -31 2 -27 35 3 24 0 35
-9 35 -8 0 -13 -13 -13 -35z"/>
<path d="M2720 2030 c0 -33 -3 -40 -20 -40 -26 0 -26 -18 0 -22 21 -3 21 -4
-4 -53 -27 -53 -20 -89 8 -39 15 28 15 28 16 -43 0 -52 4 -73 13 -73 9 0 11
20 9 80 -3 51 0 80 6 80 6 0 14 -5 17 -10 4 -6 11 -8 17 -4 5 4 -2 18 -18 35
-27 28 -27 29 -6 29 28 0 29 16 1 23 -19 5 -21 11 -16 41 4 27 2 36 -9 36 -10
0 -14 -12 -14 -40z"/>
<path d="M2895 2050 c5 -17 2 -20 -20 -20 -20 0 -26 4 -21 15 3 9 0 15 -9 15
-8 0 -15 -7 -15 -15 0 -9 -10 -15 -26 -15 -14 0 -23 -4 -19 -10 3 -5 15 -10
26 -10 10 0 19 -4 19 -10 0 -5 7 -10 16 -10 8 0 12 5 9 10 -9 14 29 12 44 -2
11 -10 14 -10 18 0 3 6 15 12 28 12 13 0 27 5 30 10 4 6 -7 10 -24 10 -24 0
-31 4 -31 20 0 11 -7 20 -16 20 -11 0 -14 -6 -9 -20z"/>
<path d="M3050 2035 c0 -28 -4 -35 -20 -35 -11 0 -20 -4 -20 -10 0 -5 9 -10
20 -10 16 0 20 -7 20 -36 0 -27 -5 -37 -20 -41 -11 -3 -20 -12 -20 -20 0 -10
6 -12 20 -8 18 6 20 2 20 -39 0 -35 -4 -46 -16 -46 -9 0 -14 -5 -12 -11 2 -6
7 -10 11 -10 4 1 14 1 22 1 12 0 15 14 15 65 0 54 3 66 20 75 11 6 20 15 20
19 0 5 -9 7 -20 4 -16 -4 -20 0 -20 17 0 13 8 24 20 27 26 7 26 23 -1 23 -19
0 -20 4 -15 35 6 28 4 35 -9 35 -11 0 -15 -10 -15 -35z"/>
<path d="M3160 2065 c0 -18 42 -85 50 -80 12 7 -26 85 -40 85 -6 0 -10 -2 -10
-5z"/>
<path d="M3250 1978 c0 -99 -14 -141 -56 -176 -24 -20 -32 -32 -24 -37 7 -4
27 8 49 29 l38 37 17 -26 c9 -14 21 -23 27 -19 6 3 0 19 -14 38 -26 33 -25 33
-13 184 3 31 0 42 -10 42 -11 0 -14 -18 -14 -72z"/>
<path d="M3390 2010 l0 -40 105 0 105 0 0 40 0 40 -105 0 -105 0 0 -40z m190
20 c0 -6 -35 -10 -86 -10 -54 0 -83 4 -79 10 3 6 42 10 86 10 46 0 79 -4 79
-10z m-37 -37 c-23 -2 -64 -2 -90 0 -26 2 -7 3 42 3 50 0 71 -1 48 -3z"/>
<path d="M2520 1900 c0 -73 4 -120 10 -120 6 0 10 9 10 20 0 16 7 20 30 20 23
0 30 -4 30 -20 0 -11 5 -20 10 -20 6 0 10 47 10 120 l0 120 -50 0 -50 0 0
-120z m80 20 l0 -80 -30 0 -30 0 0 80 0 80 30 0 30 0 0 -80z"/>
<path d="M3130 1917 c0 -57 3 -106 6 -110 8 -7 64 57 64 74 0 7 -11 3 -26 -12
l-26 -24 4 88 c2 65 0 87 -9 87 -10 0 -13 -27 -13 -103z"/>
<path d="M2000 1992 c0 -7 8 -12 18 -10 15 3 17 -5 14 -62 -3 -54 -14 -92 -40
-142 -2 -5 3 -8 11 -8 18 0 37 43 44 102 5 38 10 48 24 48 17 0 19 -8 19 -61
0 -53 -3 -62 -20 -66 -12 -3 -19 -10 -17 -16 6 -18 24 -19 41 -2 12 12 16 36
16 91 l0 74 -29 0 c-25 0 -28 3 -23 25 4 21 9 25 31 23 14 -2 27 1 29 6 1 4
-25 9 -58 10 -43 1 -60 -3 -60 -12z"/>
<path d="M2804 1981 c-2 -2 -4 -26 -4 -53 0 -47 1 -48 30 -48 17 0 30 -4 30
-10 0 -5 -20 -10 -45 -10 -25 0 -45 -4 -45 -10 0 -5 18 -10 41 -10 50 0 49
-17 -5 -44 -26 -13 -34 -22 -27 -29 12 -12 56 13 83 47 15 19 17 19 23 4 9
-23 72 -61 86 -52 7 4 -4 15 -27 28 -53 30 -55 46 -5 46 23 0 41 5 41 10 0 6
-23 10 -51 10 -31 0 -48 4 -44 10 3 6 19 10 36 10 28 0 29 1 29 53 l0 52 -71
0 c-39 0 -72 -2 -75 -4z m126 -26 c0 -11 -12 -15 -49 -15 -47 0 -68 9 -54 24
3 3 28 6 55 6 36 0 48 -4 48 -15z m0 -40 c0 -12 -13 -15 -55 -15 -51 0 -65 7
-48 23 3 4 28 7 55 7 36 0 48 -4 48 -15z"/>
<path d="M3345 1950 c-4 -7 48 -10 149 -10 97 0 156 4 156 10 0 6 -56 10 -149
10 -89 0 -152 -4 -156 -10z"/>
<path d="M3390 1885 l0 -45 50 0 c28 0 50 -4 50 -10 0 -5 -25 -10 -55 -10 -30
0 -55 -4 -55 -9 0 -4 22 -6 49 -3 30 2 51 0 55 -7 5 -8 -14 -11 -63 -11 -41 0
-71 -4 -71 -10 0 -6 55 -10 145 -10 90 0 145 4 145 10 0 6 -29 10 -66 10 -46
0 -63 3 -58 11 4 7 24 9 55 6 29 -4 49 -2 49 3 0 6 -25 10 -55 10 -30 0 -55 5
-55 10 0 6 23 10 50 10 l50 0 0 45 0 45 -110 0 -110 0 0 -45z m100 15 c0 -5
-18 -10 -40 -10 -22 0 -40 5 -40 10 0 6 18 10 40 10 22 0 40 -4 40 -10z m100
0 c0 -5 -18 -10 -40 -10 -22 0 -40 5 -40 10 0 6 18 10 40 10 22 0 40 -4 40
-10z m-100 -30 c0 -5 -18 -10 -41 -10 -24 0 -38 4 -34 10 3 6 22 10 41 10 19
0 34 -4 34 -10z m95 0 c4 -6 -10 -10 -35 -10 -25 0 -39 4 -35 10 3 6 19 10 35
10 16 0 32 -4 35 -10z"/>
<path d="M4465 2016 c-14 -29 -25 -56 -25 -59 0 -4 14 -7 31 -7 l31 0 -26 -34
c-36 -48 -34 -58 12 -51 51 9 62 13 62 23 0 5 -13 7 -30 4 -16 -2 -30 -2 -30
2 0 3 14 29 31 57 23 36 29 53 21 61 -8 8 -14 4 -23 -15 -7 -15 -20 -27 -31
-27 -24 0 -23 10 6 53 19 28 21 37 10 41 -9 4 -22 -12 -39 -48z"/>
<path d="M4630 2040 c0 -28 -3 -30 -35 -30 -19 0 -35 -4 -35 -10 0 -5 16 -10
35 -10 31 0 35 -3 35 -25 0 -21 -5 -25 -30 -25 -16 0 -30 -4 -30 -10 0 -6 32
-10 75 -10 43 0 75 4 75 10 0 6 -16 10 -35 10 -31 0 -35 3 -35 25 0 23 4 25
45 25 25 0 45 5 45 10 0 6 -20 10 -45 10 -46 0 -53 7 -35 41 9 16 7 19 -10 19
-16 0 -20 -6 -20 -30z"/>
<path d="M4913 2050 c5 -19 0 -20 -64 -20 -88 0 -90 -18 -2 -22 42 -2 68 -8
71 -15 2 -9 -11 -13 -47 -13 l-51 0 0 -45 0 -45 37 0 37 0 -30 -31 c-16 -17
-42 -37 -57 -45 -15 -8 -25 -19 -22 -24 10 -17 21 -11 73 35 27 25 53 45 57
45 4 0 5 -25 2 -55 -4 -44 -3 -55 9 -55 11 0 14 15 14 61 l0 62 20 -26 c26
-33 87 -70 100 -62 6 4 -8 19 -32 34 -24 15 -49 35 -57 44 -12 15 -10 17 23
17 l36 0 0 45 0 45 -45 0 c-33 0 -45 4 -45 15 0 12 14 15 65 15 37 0 65 4 65
10 0 6 -28 10 -65 10 -58 0 -65 2 -65 20 0 12 -7 20 -16 20 -11 0 -15 -6 -11
-20z m5 -117 c3 -21 -1 -23 -37 -23 -37 0 -41 2 -41 26 0 23 3 25 38 22 30 -2
38 -7 40 -25z m92 2 c0 -22 -4 -25 -35 -25 -31 0 -35 3 -35 25 0 22 4 25 35
25 31 0 35 -3 35 -25z"/>
<path d="M5199 2048 c-6 -13 -25 -38 -42 -55 -25 -27 -27 -33 -13 -33 9 0 29
14 43 30 21 26 32 30 74 30 53 0 59 -7 31 -33 -24 -22 -35 -21 -57 3 -10 11
-22 17 -27 14 -5 -3 1 -17 13 -30 12 -13 21 -25 18 -27 -7 -6 -63 -25 -91 -31
-31 -7 -38 -26 -10 -26 9 0 42 11 72 23 53 22 56 22 95 6 52 -23 97 -28 102
-11 3 7 -5 12 -21 12 -15 0 -43 7 -62 15 l-36 15 31 35 c17 20 31 40 31 45 0
6 -30 10 -67 11 -38 0 -62 3 -55 6 6 2 10 9 6 14 -9 15 -23 10 -35 -13z"/>
<path d="M5520 2055 c0 -21 -28 -75 -52 -102 -12 -12 -17 -27 -13 -34 6 -8 13
-5 26 12 18 24 19 23 19 -73 0 -59 4 -98 10 -98 6 0 10 45 10 115 0 85 4 124
15 146 16 29 13 49 -6 49 -5 0 -9 -7 -9 -15z"/>
<path d="M5640 2030 c0 -34 -3 -40 -21 -40 -16 0 -19 4 -14 20 4 13 2 20 -7
20 -8 0 -19 -19 -26 -42 -7 -24 -15 -49 -18 -55 -11 -25 17 -13 28 12 7 16 19
25 35 25 20 0 23 -5 23 -35 0 -35 0 -35 -45 -35 -25 0 -45 -4 -45 -10 0 -5 20
-10 45 -10 l45 0 0 -60 c0 -33 4 -60 10 -60 6 0 10 27 10 60 l0 60 50 0 c28 0
50 5 50 10 0 6 -22 10 -50 10 l-50 0 0 35 c0 33 2 35 35 35 19 0 35 5 35 10 0
6 -16 10 -36 10 l-37 0 6 40 c4 30 2 40 -9 40 -10 0 -14 -12 -14 -40z"/>
<path d="M5250 1900 c0 -17 -7 -20 -45 -20 -25 0 -45 -4 -45 -10 0 -5 20 -10
45 -10 l45 0 0 -40 c0 -34 -3 -40 -21 -40 -11 0 -17 -4 -14 -10 3 -5 17 -10
31 -10 22 0 24 4 24 50 l0 50 50 0 c28 0 50 5 50 10 0 6 -23 10 -51 10 -46 0
-51 2 -46 20 3 13 0 20 -9 20 -8 0 -14 -9 -14 -20z"/>
<path d="M4580 1825 c0 -37 4 -65 10 -65 6 0 10 7 10 15 0 22 86 21 94 -1 12
-31 21 -4 18 55 l-4 61 -64 0 -64 0 0 -65z m110 10 c0 -35 0 -35 -45 -35 -45
0 -45 0 -45 35 0 35 0 35 45 35 45 0 45 0 45 -35z"/>
<path d="M5163 1820 c-35 -32 -40 -40 -22 -40 16 0 79 57 72 64 -10 10 -16 7
-50 -24z"/>
<path d="M5300 1841 c0 -13 70 -64 78 -56 4 4 -9 20 -28 36 -35 30 -50 36 -50
20z"/>
<path d="M4486 1816 c-36 -11 -62 -36 -39 -36 21 0 103 33 103 41 0 11 -15 10
-64 -5z"/>
<path d="M7388 2029 l-28 -39 -70 0 c-40 0 -70 -4 -70 -10 0 -6 27 -10 61 -10
59 0 61 -1 55 -22 -3 -13 -6 -26 -6 -30 0 -5 -27 -8 -60 -8 -33 0 -60 -4 -60
-10 0 -6 27 -10 60 -10 33 0 60 -4 60 -9 0 -20 -53 -71 -85 -83 -19 -6 -35
-15 -35 -18 0 -42 115 30 133 83 2 6 18 -5 37 -26 39 -45 85 -71 108 -62 13 5
8 11 -23 26 -40 20 -95 66 -95 81 0 4 27 8 60 8 33 0 60 4 60 10 0 6 -30 10
-71 10 -61 0 -70 2 -65 16 3 9 6 22 6 30 0 11 15 14 62 14 67 0 71 16 5 22
l-39 3 22 28 c13 16 19 32 14 37 -5 4 -21 -9 -36 -31z"/>
<path d="M7610 1983 c0 -47 -3 -83 -6 -80 -4 3 -20 -12 -36 -34 -37 -51 -27
-66 13 -19 l28 35 1 -62 c0 -62 1 -63 26 -61 30 3 64 42 90 104 l17 39 14 -35
c23 -54 63 -104 76 -91 7 7 1 20 -17 42 -28 32 -56 91 -56 115 0 10 13 14 40
14 22 0 40 5 40 10 0 6 -21 10 -46 10 l-46 0 4 50 c2 35 -1 50 -9 50 -9 0 -13
-17 -13 -50 l0 -50 -40 0 c-22 0 -40 -4 -40 -10 0 -5 16 -10 35 -10 29 0 35
-4 35 -20 0 -45 -56 -140 -82 -140 -6 0 -8 61 -6 140 2 107 0 140 -9 140 -10
0 -13 -24 -13 -87z"/>
<path d="M8008 2048 c-3 -21 -9 -23 -65 -26 -78 -4 -84 -22 -8 -22 30 0 55 -4
55 -9 0 -15 -79 -81 -97 -81 -12 0 -14 -3 -6 -11 18 -18 49 -1 98 53 l46 51
35 -42 c45 -52 93 -79 105 -59 6 9 0 15 -20 20 -30 8 -81 50 -81 68 0 5 22 10
50 10 28 0 50 5 50 10 0 6 -30 10 -71 10 -71 0 -71 0 -65 25 5 18 2 25 -8 25
-8 0 -16 -10 -18 -22z"/>
<path d="M7250 2054 c0 -7 25 -29 53 -45 12 -7 17 -6 17 3 0 8 -13 21 -29 31
-31 18 -41 21 -41 11z"/>
<path d="M6890 2040 c0 -5 14 -10 30 -10 29 0 30 -2 30 -45 l0 -45 -40 0 c-28
0 -40 -4 -40 -14 0 -11 10 -13 40 -9 33 5 40 3 40 -11 0 -27 -26 -79 -49 -100
-25 -22 -27 -36 -6 -36 21 0 64 68 71 113 6 36 7 37 50 37 l44 0 0 -75 c0 -96
18 -98 22 -2 l3 72 38 -1 c25 -1 37 3 37 12 0 10 -13 14 -40 14 l-40 0 0 45
c0 43 1 45 30 45 17 0 30 5 30 10 0 6 -48 10 -125 10 -77 0 -125 -4 -125 -10z
m170 -55 l0 -45 -45 0 -45 0 0 45 0 45 45 0 45 0 0 -45z"/>
<path d="M7786 2015 c15 -23 34 -34 34 -19 0 16 -23 44 -36 44 -12 0 -12 -4 2
-25z"/>
<path d="M7550 2001 c0 -15 38 -56 45 -49 9 9 -21 58 -35 58 -6 0 -10 -4 -10
-9z"/>
<path d="M8006 1942 c-7 -11 31 -48 41 -38 4 3 -2 16 -14 27 -11 12 -23 17
-27 11z"/>
<path d="M8006 1882 c-3 -5 5 -19 18 -31 16 -16 26 -19 31 -11 4 6 5 12 4 13
-2 1 -14 10 -26 20 -11 10 -24 14 -27 9z"/>
<path d="M7899 1825 c-22 -46 -7 -54 20 -11 24 39 26 46 9 46 -7 -1 -20 -16
-29 -35z"/>
<path d="M7970 1815 c0 -42 1 -44 34 -50 48 -9 106 11 106 36 0 14 -20 10 -37
-7 -9 -9 -28 -14 -47 -12 -28 3 -31 7 -34 41 -4 52 -22 46 -22 -8z"/>
<path d="M8110 1852 c0 -14 49 -56 57 -49 3 4 -4 18 -17 32 -24 25 -40 32 -40
17z"/>
<path d="M10330 1984 c0 -47 -4 -83 -9 -80 -13 8 -75 -74 -64 -85 6 -6 20 6
39 32 l29 42 3 -67 c3 -64 4 -67 25 -61 31 9 76 63 89 109 l12 39 18 -43 c26
-62 56 -100 73 -93 12 4 10 12 -12 37 -27 32 -62 101 -63 124 0 8 16 12 45 12
25 0 45 5 45 10 0 6 -23 10 -51 10 l-52 0 5 50 c4 38 2 50 -8 50 -10 0 -14
-15 -14 -50 l0 -50 -35 0 c-19 0 -35 -4 -35 -10 0 -5 16 -10 35 -10 33 0 35
-1 29 -27 -11 -48 -31 -87 -55 -113 l-24 -25 -3 143 c-1 83 -7 142 -12 142 -6
0 -10 -37 -10 -86z"/>
<path d="M10720 2045 c0 -24 -3 -25 -60 -25 -33 0 -60 -4 -60 -10 0 -5 25 -10
56 -10 l55 0 -22 -31 c-12 -17 -39 -39 -60 -48 -28 -13 -36 -20 -27 -29 15
-15 90 37 115 78 22 38 33 37 58 -3 22 -34 82 -80 99 -74 20 7 16 25 -8 31
-27 7 -86 53 -86 67 0 5 23 9 50 9 28 0 50 5 50 10 0 6 -30 10 -70 10 -70 0
-70 0 -64 25 5 19 2 25 -10 25 -10 0 -16 -9 -16 -25z"/>
<path d="M11026 2037 c-14 -18 -37 -39 -51 -47 -14 -7 -25 -17 -25 -22 0 -15
23 -8 56 17 26 20 44 25 90 25 l58 0 -33 -34 -34 -35 -28 21 c-16 12 -32 18
-36 14 -4 -4 3 -16 17 -26 25 -19 25 -19 5 -34 -11 -9 -42 -23 -68 -32 -35
-11 -46 -19 -38 -27 7 -7 18 -7 36 1 14 7 28 12 30 12 3 0 5 -25 5 -55 0 -30
5 -55 10 -55 6 0 10 5 10 10 0 6 32 10 75 10 43 0 75 -4 75 -10 0 -5 5 -10 10
-10 6 0 10 30 10 70 l0 70 -66 0 -65 0 60 56 c34 31 61 60 61 65 0 5 -33 9
-72 9 -63 1 -71 3 -56 14 17 12 15 26 -3 26 -4 0 -19 -15 -33 -33z m154 -197
l0 -40 -75 0 -75 0 0 40 0 40 75 0 75 0 0 -40z"/>
<path d="M11444 2053 c-16 -46 -48 -106 -52 -95 -2 7 -12 12 -23 12 -29 0 -27
56 3 64 16 4 20 8 12 16 -8 8 -19 8 -38 0 -15 -5 -39 -10 -52 -10 -14 0 -22
-4 -19 -10 3 -5 15 -10 26 -10 14 0 19 -7 19 -25 0 -20 -5 -25 -25 -25 -14 0
-25 -4 -25 -10 0 -5 11 -10 25 -10 14 0 25 -2 25 -5 0 -11 -32 -70 -47 -87
-10 -11 -11 -18 -3 -23 13 -8 13 -9 33 30 l16 30 1 -67 c0 -54 3 -68 15 -68
12 0 15 15 15 73 1 63 2 70 14 54 10 -12 16 -15 21 -7 4 6 -2 22 -14 34 -29
31 -26 39 12 32 29 -5 35 -3 47 19 11 21 20 25 62 25 46 0 48 -1 38 -20 -8
-16 -8 -20 4 -20 8 0 19 14 25 30 l10 30 -59 0 c-59 0 -59 0 -50 25 6 15 6 26
0 30 -6 4 -13 -2 -16 -12z"/>
<path d="M10490 2033 c0 -4 7 -17 15 -27 17 -23 34 -13 19 11 -12 19 -34 29
-34 16z"/>
<path d="M10260 2005 c0 -12 33 -55 41 -55 15 0 10 26 -9 43 -19 17 -32 22
-32 12z"/>
<path d="M11470 1869 c0 -86 -1 -91 -20 -86 -23 6 -27 -11 -5 -19 32 -13 44
15 47 107 2 66 0 89 -9 89 -10 0 -13 -25 -13 -91z"/>
<path d="M10716 1941 c-3 -5 5 -16 19 -25 19 -12 25 -13 25 -4 0 17 -37 41
-44 29z"/>
<path d="M11510 1901 c0 -20 43 -81 56 -81 11 0 6 13 -16 45 -31 45 -40 53
-40 36z"/>
<path d="M11420 1891 c0 -4 -11 -25 -25 -45 -22 -32 -23 -37 -8 -34 10 2 28
22 41 46 20 35 21 42 8 42 -9 0 -16 -4 -16 -9z"/>
<path d="M10720 1873 c0 -5 12 -16 25 -26 19 -13 25 -15 25 -4 0 7 -5 18 -12
25 -13 13 -38 16 -38 5z"/>
<path d="M10623 1843 c-3 -10 -12 -25 -20 -35 -9 -10 -11 -18 -4 -22 10 -7 51
44 51 63 0 18 -20 13 -27 -6z"/>
<path d="M10680 1817 c0 -42 2 -46 30 -52 37 -8 85 2 101 21 18 22 4 28 -24 9
-14 -9 -38 -15 -54 -13 -24 3 -28 7 -29 37 0 19 -5 36 -12 39 -8 2 -12 -11
-12 -41z"/>
<path d="M10830 1852 c0 -14 46 -53 53 -45 4 3 -3 17 -15 30 -22 23 -38 30
-38 15z"/>
<path d="M845 1615 c-31 -25 -28 -33 6 -15 18 10 19 7 19 -80 l0 -90 -30 0
c-16 0 -30 -4 -30 -10 0 -6 28 -10 65 -10 37 0 65 4 65 10 0 6 -11 10 -25 10
l-25 0 0 105 c0 58 -3 105 -7 105 -5 0 -21 -11 -38 -25z"/>
<path d="M2480 1490 c0 -6 120 -10 340 -10 220 0 340 4 340 10 0 6 -120 10
-340 10 -220 0 -340 -4 -340 -10z"/>
<path d="M5001 1619 c-13 -11 -21 -22 -17 -26 3 -4 12 -1 18 5 23 23 28 11 28
-78 l0 -90 -30 0 c-16 0 -30 -4 -30 -10 0 -6 28 -10 65 -10 37 0 65 4 65 10 0
6 -11 10 -25 10 l-25 0 0 105 c0 113 -5 121 -49 84z"/>
<path d="M5136 1567 c-33 -24 -17 -59 34 -77 33 -11 45 -21 45 -35 0 -15 -8
-21 -33 -23 -18 -2 -40 2 -48 9 -21 17 -28 5 -9 -15 34 -33 115 -14 115 28 0
28 -13 39 -63 56 -27 8 -37 17 -35 28 4 21 54 28 74 11 8 -6 18 -9 22 -5 11
12 -29 36 -58 36 -14 0 -34 -6 -44 -13z"/>
<path d="M7687 1684 c-4 -4 5 -21 20 -38 l26 -31 -51 -3 c-29 -2 -52 -7 -52
-13 0 -12 197 -12 205 1 4 6 -13 10 -44 10 -37 0 -49 3 -45 13 5 15 -49 71
-59 61z"/>
<path d="M7370 1667 c0 -19 52 -98 84 -126 18 -17 29 -22 37 -14 7 7 -1 18
-24 36 -18 14 -44 46 -58 71 -24 45 -39 58 -39 33z"/>
<path d="M7591 1635 c-11 -25 -29 -59 -41 -74 -16 -24 -17 -30 -6 -34 8 -3 21
4 30 16 14 20 15 14 15 -81 1 -66 5 -101 11 -97 6 4 10 59 10 133 0 96 4 133
15 148 14 20 11 34 -6 34 -5 0 -17 -20 -28 -45z"/>
<path d="M7286 1644 c-4 -14 -25 -45 -48 -70 -44 -48 -45 -73 -2 -33 27 25 84
107 84 121 0 20 -29 5 -34 -18z"/>
<path d="M7761 1508 c-20 -96 -23 -100 -87 -96 -30 1 -54 0 -54 -4 0 -5 53 -7
118 -6 64 1 96 3 70 5 -27 2 -48 5 -48 6 0 1 9 34 20 72 24 83 24 85 7 85 -8
0 -18 -24 -26 -62z"/>
<path d="M7260 1550 c0 -5 11 -10 25 -10 18 0 25 -5 25 -20 0 -38 -29 -90 -60
-108 -31 -18 -36 -27 -21 -36 14 -9 72 44 87 81 8 18 14 44 14 58 0 23 4 25
40 25 l40 0 0 -42 c0 -68 -9 -88 -37 -88 -15 0 -23 -5 -21 -12 7 -19 31 -21
53 -4 16 11 20 29 23 90 l4 76 -86 0 c-51 0 -86 -4 -86 -10z"/>
<path d="M7662 1549 c2 -8 10 -35 17 -61 8 -29 19 -48 28 -48 15 0 14 4 -12
79 -11 33 -42 60 -33 30z"/>
<path d="M10540 1673 c0 -3 7 -15 17 -25 15 -17 13 -18 -50 -18 l-67 0 0 -30
c0 -16 5 -30 10 -30 6 0 10 9 10 20 0 19 7 20 110 20 103 0 110 -1 110 -20 0
-11 5 -20 10 -20 6 0 10 14 10 30 0 30 0 30 -56 30 -30 0 -53 4 -50 9 3 5 -5
16 -19 25 -26 17 -35 20 -35 9z"/>
<path d="M10830 1593 c0 -47 -3 -83 -6 -80 -4 3 -20 -12 -36 -34 -37 -51 -27
-66 13 -19 l28 35 1 -62 c0 -62 1 -63 26 -61 30 3 64 42 90 104 l17 39 14 -35
c23 -54 63 -104 76 -91 7 7 1 20 -17 42 -28 32 -56 91 -56 115 0 10 13 14 40
14 22 0 40 5 40 10 0 6 -21 10 -46 10 l-46 0 4 50 c2 35 -1 50 -9 50 -9 0 -13
-17 -13 -50 l0 -50 -40 0 c-22 0 -40 -4 -40 -10 0 -5 16 -10 35 -10 29 0 35
-4 35 -20 0 -45 -56 -140 -82 -140 -6 0 -8 61 -6 140 2 107 0 140 -9 140 -10
0 -13 -24 -13 -87z"/>
<path d="M11228 1658 c-3 -21 -9 -23 -65 -26 -78 -4 -84 -22 -8 -22 30 0 55
-4 55 -9 0 -15 -79 -81 -97 -81 -12 0 -14 -3 -6 -11 18 -18 49 -1 98 53 l46
51 35 -42 c45 -52 93 -79 105 -59 6 9 0 15 -20 20 -30 8 -81 50 -81 68 0 5 22
10 50 10 28 0 50 5 50 10 0 6 -30 10 -71 10 -71 0 -71 0 -65 25 5 18 2 25 -8
25 -8 0 -16 -10 -18 -22z"/>
<path d="M11006 1625 c15 -23 34 -34 34 -19 0 16 -23 44 -36 44 -12 0 -12 -4
2 -25z"/>
<path d="M10770 1611 c0 -15 38 -56 45 -49 9 9 -21 58 -35 58 -6 0 -10 -4 -10
-9z"/>
<path d="M10499 1557 c-14 -12 -34 -27 -44 -33 -12 -6 -15 -13 -8 -17 10 -6
103 52 103 66 0 14 -25 6 -51 -16z"/>
<path d="M10600 1571 c0 -10 75 -61 90 -61 21 0 8 16 -34 43 -46 29 -56 32
-56 18z"/>
<path d="M11226 1552 c-7 -11 31 -48 41 -38 4 3 -2 16 -14 27 -11 12 -23 17
-27 11z"/>
<path d="M10470 1490 c0 -5 20 -10 45 -10 l45 0 0 -40 0 -40 -70 0 c-40 0 -70
-4 -70 -10 0 -6 55 -10 145 -10 90 0 145 4 145 10 0 6 -28 10 -65 10 l-65 0 0
40 0 40 45 0 c25 0 45 5 45 10 0 6 -40 10 -100 10 -60 0 -100 -4 -100 -10z"/>
<path d="M11226 1492 c-3 -5 5 -19 18 -31 16 -16 26 -19 31 -11 4 6 5 12 4 13
-2 1 -14 10 -26 20 -11 10 -24 14 -27 9z"/>
<path d="M11119 1435 c-22 -46 -7 -54 20 -11 24 39 26 46 9 46 -7 -1 -20 -16
-29 -35z"/>
<path d="M11190 1425 c0 -42 1 -44 34 -50 48 -9 106 11 106 36 0 14 -20 10
-37 -7 -9 -9 -28 -14 -47 -12 -28 3 -31 7 -34 41 -4 52 -22 46 -22 -8z"/>
<path d="M11330 1462 c0 -14 49 -56 57 -49 3 4 -4 18 -17 32 -24 25 -40 32
-40 17z"/>
<path d="M827 1242 c-18 -19 -23 -42 -9 -42 4 0 13 9 20 20 22 36 82 23 82
-18 0 -17 -19 -45 -60 -88 -33 -34 -60 -67 -60 -73 0 -7 26 -11 70 -11 84 0
94 18 13 22 l-58 3 58 56 c62 62 74 101 39 132 -25 22 -75 21 -95 -1z"/>
<path d="M2652 1164 c3 -86 5 -98 27 -115 31 -25 82 -24 115 2 25 19 26 25 26
115 0 56 -4 94 -10 94 -6 0 -10 -36 -10 -89 0 -99 -11 -121 -59 -121 -54 0
-66 19 -69 119 -2 52 -8 91 -14 91 -6 0 -9 -37 -6 -96z"/>
<path d="M2880 1185 c-16 -19 -5 -34 12 -17 18 18 56 14 68 -7 15 -29 13 -31
-23 -31 -41 0 -77 -25 -77 -54 0 -42 45 -60 91 -36 13 7 19 7 19 0 0 -5 5 -10
10 -10 17 0 12 123 -6 148 -18 26 -75 30 -94 7z m90 -88 c0 -22 -37 -49 -62
-45 -26 3 -37 36 -16 49 21 14 78 11 78 -4z"/>
<path d="M4854 1239 c-15 -17 -19 -36 -19 -94 0 -83 18 -115 65 -115 47 0 65
32 65 115 0 83 -18 115 -65 115 -15 0 -35 -9 -46 -21z m80 -21 c21 -30 21
-117 0 -146 -38 -54 -87 -2 -81 85 6 79 47 110 81 61z"/>
<path d="M5126 1239 c-14 -11 -26 -25 -26 -31 0 -6 8 -4 18 5 10 10 22 17 25
17 4 0 7 -40 7 -90 l0 -90 -30 0 c-16 0 -30 -4 -30 -10 0 -6 28 -10 65 -10 37
0 65 4 65 10 0 6 -11 10 -25 10 l-25 0 0 105 c0 58 -4 105 -9 105 -4 0 -20 -9
-35 -21z"/>
<path d="M5260 1186 c-23 -28 -8 -59 37 -76 53 -19 59 -26 43 -45 -15 -18 -61
-20 -78 -3 -6 6 -15 8 -19 4 -13 -12 28 -36 62 -36 39 0 70 30 61 58 -6 18
-23 28 -79 46 -23 8 -18 40 7 44 10 2 29 -2 42 -9 30 -15 40 -7 19 15 -20 20
-78 21 -95 2z"/>
<path d="M5020 1045 c0 -8 5 -15 10 -15 6 0 10 7 10 15 0 8 -4 15 -10 15 -5 0
-10 -7 -10 -15z"/>
<path d="M7687 1304 c-4 -4 5 -21 20 -38 l26 -31 -51 -3 c-29 -2 -52 -7 -52
-13 0 -12 197 -12 205 1 4 6 -13 10 -44 10 -37 0 -49 3 -45 13 5 15 -49 71
-59 61z"/>
<path d="M7370 1287 c0 -19 52 -98 84 -126 18 -17 29 -22 37 -14 7 7 -1 18
-24 36 -18 14 -44 46 -58 71 -24 45 -39 58 -39 33z"/>
<path d="M7591 1255 c-11 -25 -29 -59 -41 -74 -16 -24 -17 -30 -6 -34 8 -3 21
4 30 16 14 20 15 14 15 -81 1 -66 5 -101 11 -97 6 4 10 59 10 133 0 96 4 133
15 148 14 20 11 34 -6 34 -5 0 -17 -20 -28 -45z"/>
<path d="M7286 1264 c-4 -14 -25 -45 -48 -70 -44 -48 -45 -73 -2 -33 27 25 84
107 84 121 0 20 -29 5 -34 -18z"/>
<path d="M7761 1128 c-20 -96 -23 -100 -87 -96 -30 1 -54 0 -54 -4 0 -5 53 -7
118 -6 64 1 96 3 70 5 -27 2 -48 5 -48 6 0 1 9 34 20 72 24 83 24 85 7 85 -8
0 -18 -24 -26 -62z"/>
<path d="M7260 1170 c0 -5 11 -10 25 -10 18 0 25 -5 25 -20 0 -38 -29 -90 -60
-108 -31 -18 -36 -27 -21 -36 14 -9 72 44 87 81 8 18 14 44 14 58 0 23 4 25
40 25 l40 0 0 -42 c0 -68 -9 -88 -37 -88 -15 0 -23 -5 -21 -12 7 -19 31 -21
53 -4 16 11 20 29 23 90 l4 76 -86 0 c-51 0 -86 -4 -86 -10z"/>
<path d="M7662 1169 c2 -8 10 -35 17 -61 8 -29 19 -48 28 -48 15 0 14 4 -12
79 -11 33 -42 60 -33 30z"/>
<path d="M11390 1281 c0 -30 -1 -31 -50 -31 l-50 0 0 -85 0 -85 49 0 50 0 3
-37 3 -38 71 -3 c76 -3 103 11 89 45 -6 16 -8 16 -16 -4 -7 -20 -15 -23 -69
-23 l-60 0 0 30 c0 30 1 30 53 30 l52 0 0 85 0 85 -52 0 c-49 0 -53 2 -53 24
0 14 -4 28 -10 31 -6 4 -10 -7 -10 -24z m0 -76 c0 -22 -4 -25 -40 -25 -36 0
-40 3 -40 25 0 23 4 25 40 25 36 0 40 -2 40 -25z m100 0 c0 -22 -4 -25 -40
-25 -36 0 -40 3 -40 25 0 23 4 25 40 25 36 0 40 -2 40 -25z m-100 -75 c0 -28
-2 -30 -40 -30 -38 0 -40 2 -40 30 0 28 2 30 40 30 38 0 40 -2 40 -30z m100 0
c0 -28 -2 -30 -40 -30 -38 0 -40 2 -40 30 0 28 2 30 40 30 38 0 40 -2 40 -30z"/>
<path d="M10283 1250 c-26 -62 -27 -64 -15 -68 4 -1 14 9 20 23 16 36 32 31
32 -10 0 -32 -2 -35 -30 -35 -16 0 -30 -4 -30 -10 0 -5 11 -10 25 -10 19 0 25
-5 25 -20 0 -25 -23 -72 -44 -89 -15 -13 -13 -31 3 -31 4 0 20 20 36 45 l28
46 22 -27 c12 -15 25 -23 28 -17 3 5 -7 26 -23 45 -31 38 -30 48 7 48 13 0 23
5 23 10 0 6 -11 10 -25 10 -22 0 -25 4 -25 35 0 28 4 35 20 35 11 0 20 5 20
10 0 6 -16 10 -35 10 -38 0 -40 2 -25 31 8 14 7 19 -3 19 -7 0 -23 -23 -34
-50z"/>
<path d="M10820 1260 l0 -40 -50 0 c-27 0 -50 -4 -50 -10 0 -5 23 -10 50 -10
l50 0 0 -89 c0 -90 0 -90 -27 -93 -21 -2 -24 -5 -12 -14 9 -8 22 -9 37 -3 21
8 22 14 22 104 0 95 0 95 25 95 14 0 25 5 25 10 0 6 -12 10 -26 10 -24 0 -26
3 -22 40 2 28 0 40 -9 40 -8 0 -13 -14 -13 -40z"/>
<path d="M11065 1280 c6 -18 2 -20 -54 -20 -77 0 -80 -18 -3 -22 l57 -3 0 -40
0 -40 -67 -3 c-81 -3 -92 -22 -13 -22 50 0 54 -2 44 -17 -10 -17 -55 -53 -89
-73 -11 -7 -12 -12 -4 -20 8 -8 26 3 66 39 31 28 59 51 63 51 4 0 5 -27 3 -60
-3 -45 -1 -60 9 -60 9 0 13 18 13 63 0 60 1 61 18 41 32 -39 91 -77 109 -70
14 6 8 12 -27 32 -50 29 -80 53 -80 66 0 4 23 8 50 8 28 0 50 5 50 10 0 6 -27
10 -60 10 l-60 0 0 45 0 45 55 0 c30 0 55 5 55 10 0 6 -25 10 -55 10 -48 0
-55 2 -55 20 0 11 -7 20 -16 20 -11 0 -14 -6 -9 -20z"/>
<path d="M10390 1270 c0 -6 35 -10 85 -10 50 0 85 4 85 10 0 6 -35 10 -85 10
-50 0 -85 -4 -85 -10z"/>
<path d="M10610 1145 c0 -77 4 -125 10 -125 6 0 10 7 10 15 0 10 10 15 30 15
20 0 30 -5 30 -15 0 -8 5 -15 10 -15 6 0 10 48 10 125 l0 125 -50 0 -50 0 0
-125z m80 65 c0 -38 -2 -40 -30 -40 -28 0 -30 2 -30 40 0 38 2 40 30 40 28 0
30 -2 30 -40z m0 -100 c0 -38 -2 -40 -30 -40 -28 0 -30 2 -30 40 0 38 2 40 30
40 28 0 30 -2 30 -40z"/>
<path d="M10985 1220 c-4 -7 3 -22 18 -37 32 -33 42 -17 12 21 -16 20 -25 25
-30 16z"/>
<path d="M11128 1205 c-18 -23 -23 -45 -13 -45 11 0 53 55 48 62 -7 13 -17 8
-35 -17z"/>
<path d="M10400 1170 l0 -50 70 0 70 0 0 50 0 50 -70 0 -70 0 0 -50z m120 0
c0 -29 -1 -30 -50 -30 -49 0 -50 1 -50 30 0 29 1 30 50 30 49 0 50 -1 50 -30z"/>
<path d="M10740 1160 c0 -21 24 -60 37 -60 8 0 13 3 11 8 -24 48 -32 62 -40
62 -4 0 -8 -4 -8 -10z"/>
<path d="M10407 1102 c-3 -4 3 -22 12 -41 11 -20 21 -29 25 -23 4 6 0 25 -9
42 -16 31 -21 35 -28 22z"/>
<path d="M10486 1065 l-18 -45 -54 0 c-34 0 -53 -4 -49 -10 3 -6 48 -10 101
-10 56 0 94 4 94 10 0 6 -16 10 -35 10 -40 0 -42 4 -16 47 18 29 18 43 1 43
-4 0 -15 -20 -24 -45z"/>
<path d="M810 853 c-14 -18 -17 -29 -10 -31 6 -2 18 5 26 17 24 34 84 25 84
-13 0 -28 -18 -46 -47 -46 -13 0 -23 -4 -23 -10 0 -5 13 -10 28 -10 15 0 33
-5 40 -12 15 -15 15 -51 0 -66 -19 -19 -66 -14 -80 8 -15 23 -28 26 -28 7 0
-41 75 -61 118 -31 29 20 30 77 2 97 -18 12 -18 15 -5 20 23 9 20 74 -4 87
-36 19 -78 12 -101 -17z"/>
<path d="M2480 730 c0 -6 120 -10 340 -10 220 0 340 4 340 10 0 6 -120 10
-340 10 -220 0 -340 -4 -340 -10z"/>
<path d="M4911 859 c-13 -11 -21 -22 -17 -26 3 -4 12 -1 18 5 23 23 28 11 28
-78 l0 -90 -30 0 c-16 0 -30 -4 -30 -10 0 -6 28 -10 65 -10 37 0 65 4 65 10 0
6 -11 10 -25 10 l-25 0 0 105 c0 113 -5 121 -49 84z"/>
<path d="M5071 861 c-25 -25 -36 -97 -22 -149 18 -65 73 -83 110 -36 35 44 26
170 -13 196 -20 14 -56 8 -75 -11z m79 -20 c5 -11 10 -45 10 -76 0 -31 -5 -65
-10 -76 -15 -26 -56 -25 -71 3 -16 30 -16 133 1 152 17 22 57 20 70 -3z"/>
<path d="M5226 807 c-33 -24 -17 -59 34 -77 33 -11 45 -21 45 -35 0 -15 -8
-21 -33 -23 -18 -2 -40 2 -48 9 -21 17 -28 5 -9 -15 34 -33 115 -14 115 28 0
28 -13 39 -63 56 -27 8 -37 17 -35 28 4 21 54 28 74 11 8 -6 18 -9 22 -5 11
12 -29 36 -58 36 -14 0 -34 -6 -44 -13z"/>
<path d="M7370 907 c0 -19 52 -98 84 -126 18 -17 29 -22 37 -14 7 7 -1 18 -24
36 -18 14 -44 46 -58 71 -24 45 -39 58 -39 33z"/>
<path d="M7591 875 c-11 -25 -29 -59 -41 -74 -16 -24 -17 -30 -6 -34 8 -3 21
4 30 16 14 20 15 14 15 -81 1 -66 5 -101 11 -97 6 4 10 59 10 133 0 96 4 133
15 148 14 20 11 34 -6 34 -5 0 -17 -20 -28 -45z"/>
<path d="M7286 884 c-4 -14 -25 -45 -48 -70 -44 -48 -45 -73 -2 -33 27 25 84
107 84 121 0 20 -29 5 -34 -18z"/>
<path d="M7761 748 c-20 -96 -23 -100 -87 -96 -30 1 -54 0 -54 -4 0 -5 53 -7
118 -6 64 1 96 3 70 5 -27 2 -48 5 -48 6 0 1 9 34 20 72 24 83 24 85 7 85 -8
0 -18 -24 -26 -62z"/>
<path d="M7260 790 c0 -5 11 -10 25 -10 18 0 25 -5 25 -20 0 -38 -29 -90 -60
-108 -31 -18 -36 -27 -21 -36 14 -9 72 44 87 81 8 18 14 44 14 58 0 23 4 25
40 25 l40 0 0 -42 c0 -68 -9 -88 -37 -88 -15 0 -23 -5 -21 -12 7 -19 31 -21
53 -4 16 11 20 29 23 90 l4 76 -86 0 c-51 0 -86 -4 -86 -10z"/>
<path d="M7662 789 c2 -8 10 -35 17 -61 8 -29 19 -48 28 -48 15 0 14 4 -12 79
-11 33 -42 60 -33 30z"/>
<path d="M10560 880 l0 -40 -49 0 c-28 0 -53 -4 -56 -10 -4 -6 15 -10 50 -10
l56 0 -3 -87 c-3 -82 -5 -88 -25 -91 -13 -2 -20 -8 -17 -17 4 -9 14 -11 32 -6
27 7 27 9 30 104 3 96 3 97 27 97 14 0 25 5 25 10 0 6 -11 10 -25 10 -22 0
-25 4 -25 40 0 22 -4 40 -10 40 -5 0 -10 -18 -10 -40z"/>
<path d="M11540 870 c0 -49 -1 -50 -30 -50 l-30 0 0 -75 c0 -43 4 -75 10 -75
6 0 10 28 10 65 l0 65 50 0 50 0 0 -60 c0 -33 4 -60 10 -60 6 0 10 30 10 70
l0 70 -30 0 c-29 0 -30 1 -30 50 0 28 -4 50 -10 50 -5 0 -10 -22 -10 -50z"/>
<path d="M11057 880 c18 -31 33 -39 33 -17 -1 17 -25 47 -39 47 -8 0 -6 -10 6
-30z"/>
<path d="M11369 866 c-22 -35 -24 -46 -14 -59 7 -10 20 -17 29 -17 10 0 16 -8
16 -25 0 -20 -5 -25 -25 -25 -14 0 -25 -4 -25 -10 0 -5 12 -10 26 -10 26 0 27
-1 21 -45 -7 -51 3 -57 41 -26 27 24 28 35 2 28 -16 -4 -20 0 -20 19 0 19 5
24 25 24 14 0 25 5 25 10 0 6 -11 10 -25 10 -20 0 -25 5 -25 25 0 18 5 25 20
25 11 0 20 5 20 10 0 6 -23 10 -51 10 -45 0 -50 2 -39 15 8 9 30 15 56 15 24
0 44 5 44 10 0 6 -16 10 -35 10 -38 0 -40 2 -25 31 8 14 7 19 -2 19 -7 0 -25
-20 -39 -44z"/>
<path d="M10670 755 c0 -109 3 -145 13 -145 9 0 11 32 9 135 l-4 135 26 0 c30
0 32 -9 11 -51 -15 -27 -14 -31 5 -51 27 -29 27 -68 0 -68 -11 0 -20 -7 -20
-15 0 -18 14 -19 41 -5 26 14 26 71 -1 95 -19 17 -19 18 6 66 l24 49 -55 0
-55 0 0 -145z"/>
<path d="M10790 765 c0 -74 0 -138 -1 -142 -1 -16 17 -11 46 12 16 13 26 27
22 31 -4 4 -13 2 -19 -4 -22 -22 -28 -12 -28 43 0 72 19 73 54 2 31 -64 59
-92 82 -83 15 6 14 9 -7 23 -46 33 -50 46 -18 68 16 11 29 23 29 28 0 14 -27
7 -45 -13 -14 -16 -20 -17 -27 -8 -15 25 -8 38 22 38 l30 0 0 70 0 70 -70 0
-70 0 0 -135z m120 95 c0 -17 -7 -20 -50 -20 -43 0 -50 3 -50 20 0 17 7 20 50
20 43 0 50 -3 50 -20z m0 -60 c0 -17 -7 -20 -50 -20 -43 0 -50 3 -50 20 0 17
7 20 50 20 43 0 50 -3 50 -20z"/>
<path d="M11467 893 c-3 -4 5 -20 18 -35 15 -18 26 -24 31 -17 3 6 -5 22 -19
36 -13 14 -27 21 -30 16z"/>
<path d="M11596 873 c-13 -18 -15 -28 -7 -36 7 -7 11 -7 11 -1 0 6 9 20 20 31
13 15 15 23 7 26 -7 2 -20 -7 -31 -20z"/>
<path d="M10340 765 c0 -104 2 -125 15 -125 8 0 14 6 13 12 -5 21 42 21 57 1
8 -10 15 -16 15 -13 1 3 2 60 3 128 l2 122 -52 0 -53 0 0 -125z m80 65 c0 -38
-2 -40 -30 -40 -28 0 -30 2 -30 40 0 38 2 40 30 40 28 0 30 -2 30 -40z m0
-100 c0 -38 -2 -40 -30 -40 -28 0 -30 2 -30 40 0 38 2 40 30 40 28 0 30 -2 30
-40z"/>
<path d="M11120 880 c0 -6 30 -10 70 -10 l70 0 0 -119 c0 -116 -1 -120 -22
-124 -20 -3 -21 -4 -5 -11 42 -19 47 -4 47 139 l0 135 -80 0 c-47 0 -80 -4
-80 -10z"/>
<path d="M11020 730 c0 -73 4 -120 10 -120 6 0 10 47 10 120 0 73 -4 120 -10
120 -6 0 -10 -47 -10 -120z"/>
<path d="M11160 825 c0 -23 -4 -25 -45 -25 -25 0 -45 -4 -45 -10 0 -5 16 -10
35 -10 l36 0 -15 -27 c-8 -16 -26 -39 -40 -52 -14 -13 -23 -28 -20 -33 8 -12
31 8 66 56 l28 39 0 -51 c0 -40 -4 -52 -15 -52 -17 0 -20 -16 -6 -24 5 -4 16
-3 25 0 13 5 16 21 16 75 l0 69 30 0 c17 0 30 5 30 10 0 6 -14 10 -31 10 -28
0 -31 2 -25 25 5 18 2 25 -9 25 -9 0 -15 -9 -15 -25z"/>
<path d="M10172 798 c44 -68 44 -65 22 -95 -33 -46 -36 -53 -22 -53 8 0 22 14
31 30 10 17 21 30 25 30 4 0 16 -13 25 -30 10 -16 25 -30 33 -30 10 0 5 12
-15 41 l-30 41 26 39 c33 51 24 62 -12 14 l-28 -36 -24 36 c-26 38 -55 50 -31
13z"/>
<path d="M10477 784 c-8 -9 27 -64 41 -64 10 0 9 7 -3 29 -16 32 -29 44 -38
35z"/>
<path d="M11530 731 c0 -42 -27 -86 -61 -96 -14 -5 -18 -10 -11 -17 12 -12 39
1 66 31 24 27 39 121 19 121 -8 0 -13 -13 -13 -39z"/>
<path d="M11566 671 c-7 -11 48 -63 57 -54 12 11 8 19 -22 41 -17 12 -32 18
-35 13z"/>
<path d="M850 425 c-72 -107 -72 -105 -6 -105 53 0 56 -1 56 -25 0 -14 5 -25
10 -25 6 0 10 11 10 25 0 16 6 25 15 25 8 0 15 5 15 10 0 6 -7 10 -15 10 -12
0 -15 16 -15 80 0 45 -4 80 -10 80 -5 0 -32 -34 -60 -75z m50 -25 l0 -60 -40
0 c-22 0 -40 3 -40 6 0 5 73 113 78 114 1 0 2 -27 2 -60z"/>
<path d="M2652 404 c3 -86 5 -98 27 -115 31 -25 82 -24 115 2 25 19 26 25 26
115 0 56 -4 94 -10 94 -6 0 -10 -36 -10 -89 0 -99 -11 -121 -59 -121 -54 0
-66 19 -69 119 -2 52 -8 91 -14 91 -6 0 -9 -37 -6 -96z"/>
<path d="M2880 425 c-16 -19 -5 -34 12 -17 18 18 56 14 68 -7 15 -29 13 -31
-23 -31 -41 0 -77 -25 -77 -54 0 -42 45 -60 91 -36 13 7 19 7 19 0 0 -5 5 -10
10 -10 17 0 12 123 -6 148 -18 26 -75 30 -94 7z m90 -88 c0 -22 -37 -49 -62
-45 -26 3 -37 36 -16 49 21 14 78 11 78 -4z"/>
<path d="M4965 520 c18 -20 17 -20 -28 -20 -46 0 -47 -1 -47 -30 0 -19 5 -30
14 -30 9 0 12 7 9 20 -5 19 0 20 66 20 64 0 71 -2 71 -20 0 -11 5 -20 10 -20
6 0 10 14 10 30 0 29 -2 30 -42 30 -23 0 -38 3 -35 7 10 9 -13 33 -31 33 -13
0 -12 -3 3 -20z"/>
<path d="M5225 497 c-17 -23 -49 -52 -72 -63 -34 -17 -40 -24 -29 -33 15 -13
78 28 115 75 l22 28 42 -42 42 -42 -77 0 c-42 0 -80 -4 -83 -10 -4 -6 25 -10
79 -10 53 0 86 4 86 10 0 7 7 7 21 0 11 -7 28 -9 37 -5 13 5 7 11 -23 24 -46
20 -105 75 -105 97 0 26 -25 13 -55 -29z"/>
<path d="M4916 413 c-39 -46 -24 -55 20 -11 25 24 32 37 22 40 -7 3 -26 -10
-42 -29z"/>
<path d="M5000 432 c0 -14 49 -56 57 -49 3 4 -4 18 -17 32 -24 25 -40 32 -40
17z"/>
<path d="M4910 350 c0 -5 14 -10 30 -10 28 0 30 -3 30 -35 0 -35 0 -35 -45
-35 -25 0 -45 -4 -45 -10 0 -6 40 -10 100 -10 60 0 100 4 100 10 0 6 -20 10
-45 10 -45 0 -45 0 -45 35 0 32 2 35 29 35 17 0 33 5 36 10 4 6 -22 10 -69 10
-44 0 -76 -4 -76 -10z"/>
<path d="M5170 295 c0 -37 4 -65 10 -65 6 0 10 5 10 10 0 6 32 10 75 10 43 0
75 -4 75 -10 0 -5 5 -10 10 -10 6 0 10 28 10 65 l0 65 -95 0 -95 0 0 -65z
m170 10 l0 -35 -75 0 -75 0 0 35 0 35 75 0 75 0 0 -35z"/>
<path d="M7312 495 c-18 -26 -48 -53 -69 -62 -21 -10 -40 -18 -42 -20 -1 -1 0
-7 4 -13 9 -15 81 27 116 70 l29 35 15 -23 c25 -35 104 -85 123 -77 13 5 7 12
-29 30 -44 23 -99 76 -99 96 0 20 -18 7 -48 -36z"/>
<path d="M7591 495 c-11 -25 -29 -59 -41 -74 -16 -24 -17 -30 -6 -34 8 -3 21
4 30 16 14 20 15 14 15 -81 1 -66 5 -101 11 -97 6 4 10 59 10 133 0 96 4 133
15 148 14 20 11 34 -6 34 -5 0 -17 -20 -28 -45z"/>
<path d="M7761 368 c-20 -96 -23 -100 -87 -96 -30 1 -54 0 -54 -4 0 -5 53 -7
118 -6 64 1 96 3 70 5 -27 2 -48 5 -48 6 0 1 9 34 20 72 24 83 24 85 7 85 -8
0 -18 -24 -26 -62z"/>
<path d="M7270 410 c0 -6 33 -10 80 -10 47 0 80 4 80 10 0 6 -33 10 -80 10
-47 0 -80 -4 -80 -10z"/>
<path d="M7662 409 c2 -8 10 -35 17 -61 8 -29 19 -48 28 -48 15 0 14 4 -12 79
-11 33 -42 60 -33 30z"/>
<path d="M7260 295 c0 -37 4 -65 10 -65 6 0 10 5 10 10 0 6 32 10 75 10 43 0
75 -4 75 -10 0 -5 5 -10 10 -10 6 0 10 28 10 65 l0 65 -95 0 -95 0 0 -65z
m170 10 l0 -35 -75 0 -75 0 0 35 0 35 75 0 75 0 0 -35z"/>
<path d="M9996 505 c-11 -26 -21 -35 -38 -35 -23 0 -23 -1 -21 -117 1 -73 6
-119 12 -121 7 -2 11 33 11 107 l0 111 100 0 100 0 0 -95 c0 -90 -1 -95 -21
-95 -12 0 -19 -5 -16 -12 5 -16 48 -12 59 5 4 6 8 58 8 115 l0 102 -90 0 c-49
0 -90 3 -90 8 0 4 7 17 15 29 13 19 13 22 0 27 -10 4 -20 -6 -29 -29z"/>
<path d="M10390 520 c0 -18 -7 -20 -55 -20 -30 0 -55 -4 -55 -10 0 -5 25 -10
55 -10 l55 0 0 -45 0 -45 -65 0 c-37 0 -65 -4 -65 -10 0 -5 26 -10 58 -10 l57
-1 -40 -37 c-22 -21 -49 -43 -60 -50 -14 -7 -17 -14 -9 -21 7 -8 27 4 67 40
l57 51 0 -61 c0 -34 4 -61 10 -61 6 0 10 27 10 61 l0 61 39 -35 c50 -46 78
-60 99 -52 13 5 7 12 -28 30 -25 13 -56 35 -69 49 l-24 26 56 0 c31 0 57 5 57
10 0 6 -28 10 -65 10 l-65 0 0 45 0 45 60 0 c33 0 60 4 60 10 0 6 -27 10 -61
10 -56 0 -61 2 -56 20 3 13 0 20 -9 20 -8 0 -14 -9 -14 -20z"/>
<path d="M11360 445 c0 -108 -16 -159 -57 -178 -28 -13 -30 -27 -4 -27 19 0
62 47 74 82 12 33 10 212 -2 216 -8 3 -11 -25 -11 -93z"/>
<path d="M12140 490 c0 -49 -1 -50 -30 -50 l-31 0 3 -72 c2 -40 7 -73 12 -73
5 0 9 28 7 63 l-2 62 50 0 51 0 0 -60 c0 -33 4 -60 10 -60 6 0 10 30 10 70 l0
70 -31 0 c-31 0 -31 0 -27 50 2 35 -1 50 -9 50 -9 0 -13 -17 -13 -50z"/>
<path d="M11650 522 c0 -4 7 -18 16 -30 21 -30 38 -17 18 14 -16 23 -34 32
-34 16z"/>
<path d="M11990 518 c0 -6 -11 -26 -26 -45 -19 -24 -21 -33 -10 -33 8 0 18 5
21 10 3 6 26 10 51 10 24 0 44 5 44 10 0 6 -16 10 -35 10 -34 0 -46 12 -25 25
15 9 12 25 -5 25 -8 0 -15 -5 -15 -12z"/>
<path d="M9600 510 c0 -6 27 -10 60 -10 l60 0 0 -115 0 -115 -30 0 -30 0 0 85
c0 50 -4 85 -10 85 -6 0 -10 -35 -10 -85 l0 -85 -35 0 c-19 0 -35 -4 -35 -10
0 -6 58 -10 155 -10 97 0 155 4 155 10 0 6 -28 10 -65 10 l-65 0 0 60 0 60 45
0 c25 0 45 5 45 10 0 6 -20 10 -45 10 l-45 0 0 45 0 45 55 0 c30 0 55 5 55 10
0 6 -50 10 -130 10 -80 0 -130 -4 -130 -10z"/>
<path d="M12070 509 c0 -19 37 -55 47 -45 4 3 -5 19 -20 34 -20 19 -27 22 -27
11z"/>
<path d="M12198 490 c-9 -16 -13 -32 -9 -34 10 -6 52 50 44 58 -11 11 -18 6
-35 -24z"/>
<path d="M11400 500 c0 -6 28 -10 65 -10 l65 0 0 -40 0 -40 -60 0 c-33 0 -60
-4 -60 -10 0 -6 27 -10 60 -10 l60 0 0 -45 0 -45 -70 0 c-40 0 -70 -4 -70 -10
0 -6 30 -10 70 -10 47 0 69 -4 68 -11 -2 -6 3 -14 10 -16 9 -4 12 26 12 126
l0 131 -75 0 c-43 0 -75 -4 -75 -10z"/>
<path d="M11720 500 c0 -6 30 -10 70 -10 l70 0 0 -120 c0 -100 -2 -120 -15
-120 -8 0 -15 -5 -15 -11 0 -6 10 -9 23 -7 21 3 22 6 25 141 l3 137 -81 0
c-47 0 -80 -4 -80 -10z"/>
<path d="M11300 404 c0 -61 4 -93 10 -89 6 3 10 46 10 96 0 53 -4 89 -10 89
-6 0 -10 -39 -10 -96z"/>
<path d="M10990 426 c0 -34 5 -56 13 -60 8 -3 0 -16 -23 -35 -27 -25 -30 -31
-15 -31 10 0 27 7 37 16 16 16 19 15 37 -7 10 -13 17 -27 15 -31 -3 -4 -31
-13 -64 -20 -32 -6 -57 -15 -54 -20 8 -12 44 -9 99 10 47 16 53 16 104 -1 53
-18 81 -17 81 3 0 5 -13 10 -29 10 -16 0 -42 5 -57 10 l-27 11 26 27 c15 16
27 31 27 35 0 4 -28 7 -62 7 -79 0 -66 18 17 22 l60 3 3 53 3 52 -95 0 -96 0
0 -54z m165 24 c4 -6 -22 -10 -69 -10 -44 0 -76 4 -76 10 0 6 30 10 69 10 39
0 73 -4 76 -10z m0 -45 c0 -5 -33 -11 -72 -13 -61 -2 -73 0 -73 13 0 13 12 15
73 13 39 -2 72 -7 72 -13z m-45 -90 c-7 -8 -18 -15 -25 -15 -7 0 -18 7 -25 15
-11 13 -7 15 25 15 32 0 36 -2 25 -15z"/>
<path d="M10306 462 c-3 -5 8 -21 23 -36 16 -15 31 -23 35 -18 3 5 -8 21 -23
36 -16 15 -31 23 -35 18z"/>
<path d="M10452 441 c-12 -17 -18 -32 -13 -35 11 -7 63 48 54 57 -11 12 -19 8
-41 -22z"/>
<path d="M11620 351 c0 -90 3 -121 13 -121 16 0 14 233 -2 238 -7 2 -11 -36
-11 -117z"/>
<path d="M11768 445 c4 -24 2 -25 -47 -25 -28 0 -51 -4 -51 -10 0 -5 16 -10
35 -10 19 0 35 -4 35 -9 0 -12 -41 -63 -63 -80 -12 -9 -15 -17 -9 -23 14 -14
26 -4 63 52 18 28 34 50 36 50 2 0 3 -25 3 -55 0 -48 -2 -55 -20 -55 -11 0
-20 -4 -20 -9 0 -17 19 -22 40 -11 17 9 20 21 20 75 0 63 1 65 25 65 14 0 25
5 25 10 0 6 -11 10 -25 10 -20 0 -25 5 -25 25 0 14 -6 25 -14 25 -9 0 -12 -8
-8 -25z"/>
<path d="M11965 420 c-3 -5 3 -10 14 -10 16 0 21 -6 21 -25 0 -20 -5 -25 -25
-25 -14 0 -25 -4 -25 -10 0 -5 12 -10 26 -10 26 0 26 -2 22 -45 -3 -25 -1 -45
4 -45 18 0 58 33 58 48 0 13 -3 12 -20 -3 -20 -18 -20 -17 -20 13 0 27 4 32
25 32 14 0 25 5 25 10 0 6 -11 10 -25 10 -20 0 -25 5 -25 25 0 18 5 25 20 25
11 0 20 5 20 10 0 6 -20 10 -44 10 -25 0 -48 -4 -51 -10z"/>
<path d="M10000 353 l0 -53 61 0 60 0 -3 52 -3 51 -58 1 -57 1 0 -52z m95 2
c0 -28 -3 -30 -35 -30 -26 0 -36 5 -38 18 -7 34 6 48 40 45 29 -3 33 -6 33
-33z"/>
<path d="M12130 346 c0 -37 -5 -48 -31 -70 -17 -14 -36 -26 -42 -26 -8 0 -8
-3 0 -11 8 -8 19 -7 40 6 39 23 52 46 60 100 5 38 3 45 -11 45 -12 0 -16 -10
-16 -44z"/>
<path d="M12166 292 c-2 -4 10 -20 29 -35 38 -30 57 -21 22 10 -31 28 -45 35
-51 25z"/>
</g>
</svg>
