<?xml version="1.0" standalone="no"?>
<!DOCTYPE svg PUBLIC "-//W3C//DTD SVG 20010904//EN"
 "http://www.w3.org/TR/2001/REC-SVG-20010904/DTD/svg10.dtd">
<svg version="1.0" xmlns="http://www.w3.org/2000/svg"
 width="1305.000000pt" height="445.000000pt" viewBox="0 0 1305.000000 445.000000"
 preserveAspectRatio="xMidYMid meet">

<g transform="translate(0.000000,445.000000) scale(0.100000,-0.100000)"
fill="#000000" stroke="none">
<path d="M80 2220 l0 -2120 6438 0 6437 0 0 2120 0 2120 -6437 0 -6438 0 0
-2120z m4403 2073 c-3 -10 -13 -26 -21 -36 -17 -20 -8 -37 10 -19 17 17 48 15
48 -3 0 -11 -11 -15 -40 -15 -51 0 -53 -18 -2 -22 36 -3 37 -3 17 -20 -11 -10
-29 -24 -39 -31 -12 -9 -15 -16 -8 -21 6 -3 27 8 47 25 l36 32 22 -21 21 -22
-37 0 -37 0 0 -75 c0 -43 4 -75 10 -75 6 0 10 7 10 15 0 12 14 15 70 15 40 0
70 -4 70 -10 0 -5 5 -10 10 -10 6 0 10 30 10 70 l0 70 -39 0 c-29 0 -47 7 -71
30 l-32 30 31 0 c17 0 31 5 31 10 0 6 -13 10 -30 10 -20 0 -30 5 -30 15 0 10
10 15 30 15 17 0 30 5 30 10 0 6 -22 10 -49 10 -44 0 -49 2 -44 20 5 19 14 20
164 20 88 0 159 -4 159 -8 0 -5 -14 -28 -30 -50 -17 -23 -27 -43 -23 -44 25
-6 143 -2 143 5 0 15 -43 66 -52 61 -5 -3 -3 -12 3 -21 15 -18 -3 -33 -39 -33
-27 0 -26 1 8 52 20 31 31 38 58 38 l32 0 0 -60 c0 -55 2 -61 25 -70 35 -13
83 -2 91 22 9 29 -2 32 -25 9 -25 -25 -44 -27 -61 -6 -16 20 0 40 46 57 19 6
34 15 34 18 0 17 -15 17 -46 -2 -39 -23 -46 -21 -37 10 5 21 11 22 107 22 99
0 103 -1 116 -25 7 -14 17 -25 22 -25 12 0 10 24 -4 38 -9 9 1 12 45 12 l57 0
0 -50 c0 -43 -3 -50 -20 -50 -11 0 -20 -4 -20 -10 0 -5 9 -10 20 -10 16 0 20
-7 20 -32 0 -41 -32 -113 -55 -126 -10 -5 -15 -14 -10 -21 19 -33 84 76 85
142 l0 37 46 0 c27 0 43 4 39 10 -3 6 -24 10 -46 10 l-40 0 3 48 3 47 83 3 82
3 0 -46 c0 -41 -2 -45 -25 -45 -14 0 -25 -4 -25 -10 0 -5 11 -10 25 -10 24 0
25 -3 25 -55 0 -50 -2 -56 -26 -65 -14 -6 -23 -14 -19 -20 3 -6 26 -2 56 10
27 11 52 20 54 20 3 0 5 5 5 10 0 6 -11 8 -25 4 -24 -6 -25 -5 -25 45 0 44 3
51 20 51 11 0 20 5 20 10 0 6 -9 10 -20 10 -17 0 -20 7 -20 45 l0 46 63 -3 62
-3 3 -46 c3 -40 0 -47 -18 -52 -18 -5 -20 -1 -20 38 0 24 -4 47 -10 50 -6 4
-10 -14 -10 -45 0 -43 -3 -53 -20 -57 -26 -7 -26 -23 0 -23 17 0 19 -8 22 -77
l3 -78 66 -3 c51 -2 71 1 83 13 9 9 16 21 16 26 0 15 -20 10 -26 -6 -5 -11
-22 -15 -65 -15 l-60 0 3 77 c3 66 6 78 21 81 17 3 18 -3 16 -60 -2 -35 1 -62
7 -61 5 2 10 32 12 67 2 54 6 65 22 69 18 5 20 0 20 -44 0 -37 -4 -49 -15 -49
-8 0 -15 -4 -15 -8 0 -17 13 -21 31 -11 16 8 19 21 19 74 l0 65 -30 -6 c-30
-6 -30 -6 -30 40 l0 46 690 0 c471 0 690 -3 690 -10 0 -15 -39 -91 -57 -111
-12 -14 -12 -17 1 -22 9 -4 20 1 25 11 8 12 10 -11 11 -80 0 -59 4 -98 10 -98
6 0 10 47 10 120 0 91 4 128 17 155 l17 35 88 0 88 0 0 -140 c0 -133 -1 -140
-20 -140 -11 0 -20 -7 -20 -15 0 -16 27 -20 47 -7 9 5 13 52 15 152 l3 145 83
3 c76 3 83 1 80 -15 -3 -14 -15 -19 -61 -21 -70 -4 -76 -22 -7 -22 28 0 50 -4
50 -9 0 -13 -60 -75 -85 -89 -15 -8 -17 -14 -9 -22 8 -8 19 -4 43 15 l31 27 0
-86 c0 -51 4 -86 10 -86 6 0 10 18 10 40 l0 40 60 0 c57 0 60 -1 60 -25 0 -18
-5 -25 -20 -25 -11 0 -20 -4 -20 -9 0 -16 19 -23 40 -16 18 6 20 15 20 106 l0
99 -65 0 c-63 0 -65 1 -55 20 9 17 21 20 90 20 47 0 80 4 80 10 0 6 -32 10
-76 10 -66 0 -75 2 -72 18 3 16 38 17 536 20 l532 2 0 -50 c0 -49 -1 -50 -30
-50 l-31 0 3 -72 c2 -40 7 -71 12 -68 5 3 8 31 7 63 l-2 57 50 0 51 0 0 -60
c0 -33 4 -60 10 -60 6 0 10 30 10 70 l0 70 -31 0 c-30 0 -30 1 -27 48 l3 47
2183 3 2182 2 0 -175 0 -175 -6400 0 -6400 0 0 175 0 175 2185 0 c2076 0 2184
-1 2178 -17z m3057 -118 c0 -12 -13 -15 -60 -15 -47 0 -60 3 -60 15 0 12 13
15 60 15 47 0 60 -3 60 -15z m0 -55 c0 -18 -7 -20 -60 -20 -53 0 -60 2 -60 20
0 18 7 20 60 20 53 0 60 -2 60 -20z m-2882 -17 c-3 -15 -16 -19 -71 -21 -62
-3 -67 -1 -67 18 0 18 6 20 71 20 62 0 70 -2 67 -17z m0 -50 c3 -10 -15 -13
-67 -13 -57 0 -71 3 -71 15 0 13 12 15 67 13 42 -2 68 -8 71 -15z m-3058 -298
l0 -175 -740 0 -740 0 0 175 0 175 740 0 740 0 0 -175z m2380 0 l0 -175 -1175
0 -1175 0 0 175 0 175 1175 0 1175 0 0 -175z m2160 0 l0 -175 -1065 0 -1065 0
0 175 0 175 1065 0 1065 0 0 -175z m2690 0 l0 -175 -1325 0 -1325 0 0 175 0
175 1325 0 1325 0 0 -175z m4090 0 l0 -175 -2025 0 -2025 0 0 175 0 175 2025
0 2025 0 0 -175z m-11320 -765 l0 -560 -740 0 -740 0 0 560 0 560 740 0 740 0
0 -560z m2380 0 l0 -560 -1175 0 -1175 0 0 560 0 560 1175 0 1175 0 0 -560z
m2160 0 l0 -560 -1065 0 -1065 0 0 560 0 560 1065 0 1065 0 0 -560z m2690 0
l0 -560 -1325 0 -1325 0 0 560 0 560 1325 0 1325 0 0 -560z m4090 0 l0 -560
-2025 0 -2025 0 0 560 0 560 2025 0 2025 0 0 -560z m-11320 -1150 l0 -560
-740 0 -740 0 0 560 0 560 740 0 740 0 0 -560z m2380 0 l0 -560 -1175 0 -1175
0 0 560 0 560 1175 0 1175 0 0 -560z m2160 0 l0 -560 -1065 0 -1065 0 0 560 0
560 1065 0 1065 0 0 -560z m2690 0 l0 -560 -1325 0 -1325 0 0 560 0 560 1325
0 1325 0 0 -560z m4090 0 l0 -560 -2025 0 -2025 0 0 560 0 560 2025 0 2025 0
0 -560z m-11320 -1145 l0 -555 -740 0 -740 0 0 555 0 555 740 0 740 0 0 -555z
m2380 0 l0 -555 -1175 0 -1175 0 0 555 0 555 1175 0 1175 0 0 -555z m840 515
c0 -36 -2 -40 -25 -40 -14 0 -25 -4 -25 -10 0 -5 11 -10 25 -10 22 0 25 -4 25
-33 0 -26 -6 -36 -25 -45 -14 -6 -25 -16 -25 -22 0 -13 6 -13 31 1 19 10 20 7
17 -43 -2 -38 -7 -52 -16 -50 -8 1 -12 -3 -10 -10 3 -7 13 -13 24 -13 17 0 19
9 22 68 2 48 7 70 17 74 8 3 15 11 15 19 0 8 -6 11 -15 8 -11 -5 -15 1 -15 20
0 19 5 26 20 26 11 0 20 5 20 10 0 6 -9 10 -20 10 -18 0 -20 6 -18 40 l2 40
648 0 648 0 0 -555 0 -555 -1065 0 -1065 0 0 555 0 555 405 0 405 0 0 -40z
m4010 -515 l0 -555 -1325 0 -1325 0 0 555 0 555 1325 0 1325 0 0 -555z m4090
0 l0 -555 -2025 0 -2025 0 0 555 0 555 2025 0 2025 0 0 -555z"/>
<path d="M6050 4225 c0 -60 -3 -76 -17 -84 -10 -5 -14 -13 -10 -17 4 -5 16 -3
25 2 13 9 18 29 20 93 2 51 -1 81 -8 81 -6 0 -10 -30 -10 -75z"/>
<path d="M8040 4292 c0 -4 7 -18 16 -30 21 -30 38 -17 18 14 -16 23 -34 32
-34 16z"/>
<path d="M8380 4288 c0 -6 -11 -26 -26 -45 -19 -24 -21 -33 -10 -33 8 0 18 5
21 10 3 6 26 10 51 10 24 0 44 5 44 10 0 6 -16 10 -35 10 -34 0 -46 12 -25 25
15 9 12 25 -5 25 -8 0 -15 -5 -15 -12z"/>
<path d="M5805 4280 c-3 -5 3 -10 14 -10 16 0 21 -6 21 -25 0 -20 -5 -25 -25
-25 -14 0 -25 -4 -25 -10 0 -5 11 -10 25 -10 32 0 32 -11 -2 -50 -23 -28 -24
-32 -7 -28 10 2 28 20 39 41 25 47 55 50 55 6 0 -18 7 -37 17 -44 26 -19 5
-35 -48 -35 -27 0 -49 -4 -49 -10 0 -5 25 -10 55 -10 48 0 55 -2 55 -20 0 -18
-7 -20 -75 -20 -43 0 -75 -4 -75 -10 0 -6 57 -10 150 -10 93 0 150 4 150 10 0
6 -28 10 -65 10 -58 0 -65 2 -65 20 0 17 7 20 44 20 25 0 48 5 51 10 4 6 -13
10 -44 10 -44 0 -51 3 -51 20 0 11 -7 20 -15 20 -10 0 -15 11 -15 35 0 31 3
35 25 35 14 0 25 5 25 10 0 6 -11 10 -25 10 -20 0 -25 5 -25 25 0 19 5 25 21
25 11 0 17 5 14 10 -3 6 -37 10 -75 10 -38 0 -72 -4 -75 -10z m95 -35 c0 -18
-5 -25 -20 -25 -15 0 -20 7 -20 25 0 18 5 25 20 25 15 0 20 -7 20 -25z"/>
<path d="M6650 4280 c0 -5 23 -10 51 -10 47 0 50 -2 47 -22 -2 -19 -10 -24
-40 -26 l-38 -3 0 -105 c0 -63 4 -104 10 -104 6 0 10 18 10 41 0 33 3 40 15
35 11 -4 21 5 32 29 15 32 18 34 34 19 9 -8 20 -11 23 -6 3 5 -3 17 -14 27
-30 27 -25 45 11 45 29 0 30 -1 24 -32 -4 -18 -14 -45 -21 -60 -17 -32 -17
-38 -4 -38 5 0 17 15 26 32 l17 33 15 -23 c8 -12 18 -22 23 -22 16 0 9 27 -11
45 -11 10 -20 29 -20 42 0 18 5 23 25 23 26 0 26 0 23 -82 -3 -77 -5 -83 -25
-86 -36 -5 -27 -24 10 -20 l32 3 3 103 3 102 -36 0 c-31 0 -35 3 -35 25 0 23
3 25 50 25 28 0 50 5 50 10 0 6 -55 10 -145 10 -90 0 -145 -4 -145 -10z m170
-35 c0 -20 -5 -25 -25 -25 -20 0 -25 5 -25 25 0 20 5 25 25 25 20 0 25 -5 25
-25z m-80 -61 c0 -22 -30 -84 -41 -84 -5 0 -9 23 -9 50 0 47 2 50 25 50 16 0
25 -6 25 -16z"/>
<path d="M7072 4195 c2 -52 7 -95 12 -95 4 0 9 37 10 83 l1 82 33 3 32 3 0
-85 c0 -51 4 -86 10 -86 6 0 10 38 10 95 l0 95 -55 0 -56 0 3 -95z"/>
<path d="M8460 4279 c0 -19 37 -55 47 -45 4 3 -5 19 -20 34 -20 19 -27 22 -27
11z"/>
<path d="M8588 4260 c-9 -16 -13 -32 -9 -34 10 -6 52 50 44 58 -11 11 -18 6
-35 -24z"/>
<path d="M5350 4261 c11 -22 29 -35 36 -28 9 8 -20 47 -34 47 -9 0 -10 -5 -2
-19z"/>
<path d="M5985 4220 c0 -41 4 -60 13 -60 8 0 12 19 12 60 0 41 -4 60 -12 60
-9 0 -13 -19 -13 -60z"/>
<path d="M7689 4172 c-3 -80 -9 -115 -21 -134 -16 -24 -15 -38 3 -38 17 0 39
98 39 177 l0 83 120 0 c73 0 120 4 120 10 0 6 -50 10 -129 10 l-129 0 -3 -108z"/>
<path d="M8110 4270 c0 -6 30 -10 70 -10 l70 0 0 -120 c0 -100 -2 -120 -15
-120 -8 0 -15 -5 -15 -11 0 -6 10 -9 23 -7 21 3 22 6 25 141 l3 137 -81 0
c-47 0 -80 -4 -80 -10z"/>
<path d="M4610 4215 l0 -55 50 0 50 0 0 55 0 55 -50 0 -50 0 0 -55z m80 5 c0
-38 -2 -40 -30 -40 -27 0 -30 3 -30 33 0 40 6 47 37 47 20 0 23 -5 23 -40z"/>
<path d="M6130 4155 c0 -96 3 -115 15 -115 12 0 15 13 15 55 l0 55 45 0 c25 0
45 5 45 10 0 6 -20 10 -45 10 l-45 0 0 40 0 40 50 0 c28 0 50 5 50 10 0 6 -28
10 -65 10 l-65 0 0 -115z"/>
<path d="M6356 4261 c-3 -5 -21 -49 -40 -97 -19 -49 -37 -97 -41 -106 -5 -12
-2 -18 7 -18 9 0 19 15 24 33 9 30 12 32 62 35 52 3 53 3 67 -32 9 -20 20 -36
25 -36 15 0 14 4 -32 122 -38 98 -57 124 -72 99z m53 -118 c1 -9 -14 -13 -40
-13 -45 0 -45 0 -12 79 l15 36 19 -45 c10 -25 18 -51 18 -57z"/>
<path d="M7200 4174 c0 -127 20 -124 23 4 1 68 -1 92 -10 92 -10 0 -13 -26
-13 -96z"/>
<path d="M5105 4240 c3 -5 40 -10 81 -10 43 0 74 4 74 10 0 6 -34 10 -81 10
-51 0 -78 -4 -74 -10z"/>
<path d="M7118 4155 c-4 -76 -7 -88 -32 -114 -15 -16 -23 -31 -18 -35 14 -8
51 36 62 75 12 42 13 146 1 153 -5 3 -11 -33 -13 -79z"/>
<path d="M7820 4205 c0 -34 -1 -35 -40 -35 -22 0 -40 -4 -40 -10 0 -5 18 -10
40 -10 l41 0 -3 -57 -3 -58 -58 -3 c-33 -2 -55 -7 -52 -13 8 -12 255 -12 255
1 0 6 -27 10 -60 10 l-60 0 0 60 0 60 40 0 c22 0 40 5 40 10 0 6 -18 10 -40
10 -39 0 -40 1 -40 35 0 19 -4 35 -10 35 -5 0 -10 -16 -10 -35z"/>
<path d="M8010 4121 c0 -90 3 -121 13 -121 16 0 14 233 -2 238 -7 2 -11 -36
-11 -117z"/>
<path d="M8158 4215 c4 -24 2 -25 -47 -25 -28 0 -51 -4 -51 -10 0 -5 16 -10
35 -10 19 0 35 -4 35 -9 0 -12 -41 -63 -63 -80 -12 -9 -15 -17 -9 -23 14 -14
26 -4 63 52 18 28 34 50 36 50 2 0 3 -25 3 -55 0 -48 -2 -55 -20 -55 -11 0
-20 -4 -20 -9 0 -17 19 -22 40 -11 17 9 20 21 20 75 0 63 1 65 25 65 14 0 25
5 25 10 0 6 -11 10 -25 10 -20 0 -25 5 -25 25 0 14 -6 25 -14 25 -9 0 -12 -8
-8 -25z"/>
<path d="M5130 4170 c0 -36 3 -40 25 -40 23 0 25 -3 25 -50 0 -38 -4 -50 -15
-50 -8 0 -15 -4 -15 -8 0 -17 13 -21 31 -11 15 8 19 21 19 64 0 52 1 55 25 55
23 0 25 4 25 40 l0 40 -60 0 -60 0 0 -40z m100 0 c0 -17 -7 -20 -40 -20 -33 0
-40 3 -40 20 0 17 7 20 40 20 33 0 40 -3 40 -20z"/>
<path d="M8355 4190 c-3 -5 3 -10 14 -10 16 0 21 -6 21 -25 0 -20 -5 -25 -25
-25 -14 0 -25 -4 -25 -10 0 -5 12 -10 26 -10 26 0 26 -2 22 -45 -3 -25 -1 -45
4 -45 18 0 58 33 58 48 0 13 -3 12 -20 -3 -20 -18 -20 -17 -20 13 0 27 4 32
25 32 14 0 25 5 25 10 0 6 -11 10 -25 10 -20 0 -25 5 -25 25 0 18 5 25 20 25
11 0 20 5 20 10 0 6 -20 10 -44 10 -25 0 -48 -4 -51 -10z"/>
<path d="M4842 4183 l-53 -4 3 -87 c2 -54 7 -85 13 -82 6 3 10 19 10 35 0 27
4 30 33 33 29 3 32 1 32 -22 0 -17 -6 -26 -16 -26 -8 0 -12 -4 -9 -10 3 -5 15
-10 26 -10 17 0 19 8 19 90 0 50 -1 89 -2 88 -2 -1 -27 -3 -56 -5z m38 -28 c0
-10 -11 -15 -35 -15 -33 0 -43 8 -28 23 13 14 63 7 63 -8z m0 -45 c0 -5 -16
-10 -35 -10 -19 0 -35 5 -35 10 0 6 16 10 35 10 19 0 35 -4 35 -10z"/>
<path d="M4939 4166 c-2 -3 -2 -37 1 -78 l5 -73 47 -3 c38 -3 49 1 62 19 15
22 13 39 -5 39 -5 0 -9 -7 -9 -15 0 -17 -42 -30 -66 -21 -10 4 -14 15 -12 32
2 21 13 30 48 44 33 14 41 20 28 25 -9 3 -30 -1 -47 -10 -31 -15 -31 -15 -31
9 0 23 -12 41 -21 32z"/>
<path d="M5330 4090 l0 -80 35 0 c33 0 64 28 48 44 -11 11 -23 6 -23 -9 0 -8
-9 -15 -20 -15 -18 0 -20 7 -20 70 0 40 -4 70 -10 70 -6 0 -10 -33 -10 -80z"/>
<path d="M8520 4116 c0 -37 -5 -48 -31 -70 -17 -14 -36 -26 -42 -26 -8 0 -8
-3 0 -11 8 -8 19 -7 40 6 39 23 52 46 60 100 5 38 3 45 -11 45 -12 0 -16 -10
-16 -44z"/>
<path d="M7882 4090 c33 -45 54 -38 22 8 -8 12 -22 22 -30 22 -11 0 -9 -7 8
-30z"/>
<path d="M5129 4083 c-7 -16 -15 -31 -17 -35 -2 -5 1 -8 7 -8 9 0 41 50 41 65
0 15 -18 2 -31 -22z"/>
<path d="M5228 4104 c-9 -8 9 -44 22 -44 14 0 12 13 -3 34 -7 9 -16 14 -19 10z"/>
<path d="M7147 4083 c-7 -11 19 -53 34 -53 14 0 11 12 -10 39 -10 13 -21 19
-24 14z"/>
<path d="M8556 4062 c-2 -4 10 -20 29 -35 38 -30 57 -21 22 10 -31 28 -45 35
-51 25z"/>
<path d="M6480 4000 c0 -6 30 -10 70 -10 40 0 70 4 70 10 0 6 -30 10 -70 10
-40 0 -70 -4 -70 -10z"/>
<path d="M690 3904 c0 -4 8 -13 18 -20 15 -12 8 -13 -49 -14 l-66 0 -5 -97
c-3 -64 -11 -109 -22 -130 -13 -26 -14 -33 -3 -33 24 0 40 52 45 148 l4 92
124 0 c76 0 124 4 124 10 0 6 -26 10 -58 10 -46 0 -60 4 -70 20 -11 18 -42 28
-42 14z"/>
<path d="M959 3898 c0 -2 -1 -24 -2 -50 l-3 -48 93 0 93 0 0 50 0 50 -90 0
c-49 0 -90 -1 -91 -2z m161 -48 l0 -30 -70 0 -70 0 0 30 0 30 70 0 70 0 0 -30z"/>
<path d="M640 3820 c0 -6 31 -10 72 -10 71 0 71 0 53 -20 -10 -12 -25 -18 -32
-15 -7 3 -20 8 -28 11 -24 10 -17 -12 8 -24 19 -9 13 -11 -35 -11 -32 -1 -58
-5 -58 -11 0 -5 25 -10 55 -10 l55 0 0 -55 c0 -42 -3 -55 -15 -55 -8 0 -15 -5
-15 -11 0 -6 10 -9 23 -7 20 3 22 9 25 66 l3 62 40 0 c36 0 39 -2 29 -19 -13
-24 -13 -31 0 -31 8 0 40 51 40 65 0 3 -20 5 -45 5 -25 0 -45 3 -45 7 0 4 14
22 32 40 l32 33 -97 0 c-58 0 -97 -4 -97 -10z"/>
<path d="M895 3770 c-4 -6 12 -10 41 -10 46 0 46 0 41 -30 l-6 -30 79 0 c86 0
94 -6 64 -48 -11 -16 -25 -22 -55 -22 -21 0 -39 -4 -39 -10 0 -11 52 -13 87
-4 21 6 43 48 43 85 0 17 -9 19 -76 19 -65 0 -75 2 -70 16 3 9 6 18 6 20 0 2
41 4 90 4 53 0 90 4 90 10 0 6 -55 10 -144 10 -86 0 -147 -4 -151 -10z"/>
<path d="M2047 3904 c-3 -5 3 -20 12 -33 11 -14 21 -19 25 -13 3 5 -2 20 -12
33 -11 12 -21 18 -25 13z"/>
<path d="M2161 3880 c-6 -17 -20 -43 -31 -58 l-21 -26 20 -8 c25 -9 27 -26 6
-34 -19 -8 -20 -24 0 -24 10 0 15 -15 17 -57 l3 -58 64 0 c49 0 66 4 75 17 5
9 7 21 2 25 -4 4 -12 0 -17 -10 -7 -12 -23 -17 -59 -17 l-50 0 0 54 c0 39 4
55 15 60 12 4 15 -4 15 -44 0 -66 18 -64 22 2 2 41 7 54 21 56 23 5 24 -53 1
-66 -13 -7 -14 -11 -4 -17 20 -12 40 23 40 68 0 39 -1 39 -30 34 -27 -6 -30
-4 -30 18 0 34 -18 32 -22 -2 -4 -33 -24 -41 -31 -12 -3 11 -10 18 -16 14 -15
-9 -13 6 3 28 10 13 28 17 80 17 37 0 66 4 66 10 0 6 -27 10 -60 10 -64 0 -66
1 -50 31 8 15 7 19 -4 19 -8 0 -19 -14 -25 -30z"/>
<path d="M2400 3875 c0 -32 -2 -35 -30 -35 -16 0 -30 -4 -30 -10 0 -5 14 -10
30 -10 l31 0 -7 -52 c-7 -59 -27 -114 -50 -139 -13 -14 -13 -17 0 -22 27 -11
59 62 72 161 5 42 10 52 25 52 17 0 19 -9 19 -81 0 -72 -2 -81 -20 -86 -23 -6
-27 -33 -6 -33 35 0 46 29 46 126 l0 94 -31 0 c-30 0 -31 2 -27 35 3 24 0 35
-9 35 -8 0 -13 -13 -13 -35z"/>
<path d="M2720 3870 c0 -33 -3 -40 -20 -40 -26 0 -26 -18 0 -22 21 -3 21 -4
-4 -53 -27 -53 -20 -89 8 -39 15 28 15 28 16 -43 0 -52 4 -73 13 -73 9 0 11
20 9 80 -3 51 0 80 6 80 6 0 14 -5 17 -10 4 -6 11 -8 17 -4 5 4 -2 18 -18 35
-27 28 -27 29 -6 29 28 0 29 16 1 23 -19 5 -21 11 -16 41 4 27 2 36 -9 36 -10
0 -14 -12 -14 -40z"/>
<path d="M2895 3890 c5 -17 2 -20 -20 -20 -20 0 -26 4 -21 15 3 9 0 15 -9 15
-8 0 -15 -7 -15 -15 0 -9 -10 -15 -26 -15 -14 0 -23 -4 -19 -10 3 -5 15 -10
26 -10 10 0 19 -4 19 -10 0 -5 7 -10 16 -10 8 0 12 5 9 10 -9 14 29 12 44 -2
11 -10 14 -10 18 0 3 6 15 12 28 12 13 0 27 5 30 10 4 6 -7 10 -24 10 -24 0
-31 4 -31 20 0 11 -7 20 -16 20 -11 0 -14 -6 -9 -20z"/>
<path d="M3050 3875 c0 -28 -4 -35 -20 -35 -11 0 -20 -4 -20 -10 0 -5 9 -10
20 -10 16 0 20 -7 20 -36 0 -27 -5 -37 -20 -41 -11 -3 -20 -12 -20 -20 0 -10
6 -12 20 -8 18 6 20 2 20 -39 0 -35 -4 -46 -16 -46 -9 0 -14 -5 -12 -11 2 -6
7 -10 11 -10 4 1 14 1 22 1 12 0 15 14 15 65 0 54 3 66 20 75 11 6 20 15 20
19 0 5 -9 7 -20 4 -16 -4 -20 0 -20 17 0 13 8 24 20 27 26 7 26 23 -1 23 -19
0 -20 4 -15 35 6 28 4 35 -9 35 -11 0 -15 -10 -15 -35z"/>
<path d="M3160 3905 c0 -18 42 -85 50 -80 12 7 -26 85 -40 85 -6 0 -10 -2 -10
-5z"/>
<path d="M3250 3818 c0 -99 -14 -141 -56 -176 -24 -20 -32 -32 -24 -37 7 -4
27 8 49 29 l38 37 17 -26 c9 -14 21 -23 27 -19 6 3 0 19 -14 38 -26 33 -25 33
-13 184 3 31 0 42 -10 42 -11 0 -14 -18 -14 -72z"/>
<path d="M3390 3850 l0 -40 105 0 105 0 0 40 0 40 -105 0 -105 0 0 -40z m190
20 c0 -6 -35 -10 -86 -10 -54 0 -83 4 -79 10 3 6 42 10 86 10 46 0 79 -4 79
-10z m-37 -37 c-23 -2 -64 -2 -90 0 -26 2 -7 3 42 3 50 0 71 -1 48 -3z"/>
<path d="M2520 3740 c0 -73 4 -120 10 -120 6 0 10 9 10 20 0 16 7 20 30 20 23
0 30 -4 30 -20 0 -11 5 -20 10 -20 6 0 10 47 10 120 l0 120 -50 0 -50 0 0
-120z m80 20 l0 -80 -30 0 -30 0 0 80 0 80 30 0 30 0 0 -80z"/>
<path d="M3130 3757 c0 -57 3 -106 6 -110 8 -7 64 57 64 74 0 7 -11 3 -26 -12
l-26 -24 4 88 c2 65 0 87 -9 87 -10 0 -13 -27 -13 -103z"/>
<path d="M2000 3832 c0 -7 8 -12 18 -10 15 3 17 -5 14 -62 -3 -54 -14 -92 -40
-142 -2 -5 3 -8 11 -8 18 0 37 43 44 102 5 38 10 48 24 48 17 0 19 -8 19 -61
0 -53 -3 -62 -20 -66 -12 -3 -19 -10 -17 -16 6 -18 24 -19 41 -2 12 12 16 36
16 91 l0 74 -29 0 c-25 0 -28 3 -23 25 4 21 9 25 31 23 14 -2 27 1 29 6 1 4
-25 9 -58 10 -43 1 -60 -3 -60 -12z"/>
<path d="M2804 3821 c-2 -2 -4 -26 -4 -53 0 -47 1 -48 30 -48 17 0 30 -4 30
-10 0 -5 -20 -10 -45 -10 -25 0 -45 -4 -45 -10 0 -5 18 -10 41 -10 50 0 49
-17 -5 -44 -26 -13 -34 -22 -27 -29 12 -12 56 13 83 47 15 19 17 19 23 4 9
-23 72 -61 86 -52 7 4 -4 15 -27 28 -53 30 -55 46 -5 46 23 0 41 5 41 10 0 6
-23 10 -51 10 -31 0 -48 4 -44 10 3 6 19 10 36 10 28 0 29 1 29 53 l0 52 -71
0 c-39 0 -72 -2 -75 -4z m126 -26 c0 -11 -12 -15 -49 -15 -47 0 -68 9 -54 24
3 3 28 6 55 6 36 0 48 -4 48 -15z m0 -40 c0 -12 -13 -15 -55 -15 -51 0 -65 7
-48 23 3 4 28 7 55 7 36 0 48 -4 48 -15z"/>
<path d="M3345 3790 c-4 -7 48 -10 149 -10 97 0 156 4 156 10 0 6 -56 10 -149
10 -89 0 -152 -4 -156 -10z"/>
<path d="M3390 3725 l0 -45 50 0 c28 0 50 -4 50 -10 0 -5 -25 -10 -55 -10 -30
0 -55 -4 -55 -9 0 -4 22 -6 49 -3 30 2 51 0 55 -7 5 -8 -14 -11 -63 -11 -41 0
-71 -4 -71 -10 0 -6 55 -10 145 -10 90 0 145 4 145 10 0 6 -29 10 -66 10 -46
0 -63 3 -58 11 4 7 24 9 55 6 29 -4 49 -2 49 3 0 6 -25 10 -55 10 -30 0 -55 5
-55 10 0 6 23 10 50 10 l50 0 0 45 0 45 -110 0 -110 0 0 -45z m100 15 c0 -5
-18 -10 -40 -10 -22 0 -40 5 -40 10 0 6 18 10 40 10 22 0 40 -4 40 -10z m100
0 c0 -5 -18 -10 -40 -10 -22 0 -40 5 -40 10 0 6 18 10 40 10 22 0 40 -4 40
-10z m-100 -30 c0 -5 -18 -10 -41 -10 -24 0 -38 4 -34 10 3 6 22 10 41 10 19
0 34 -4 34 -10z m95 0 c4 -6 -10 -10 -35 -10 -25 0 -39 4 -35 10 3 6 19 10 35
10 16 0 32 -4 35 -10z"/>
<path d="M4465 3856 c-14 -29 -25 -56 -25 -59 0 -4 14 -7 31 -7 l31 0 -26 -34
c-36 -48 -34 -58 12 -51 51 9 62 13 62 23 0 5 -13 7 -30 4 -16 -2 -30 -2 -30
2 0 3 14 29 31 57 23 36 29 53 21 61 -8 8 -14 4 -23 -15 -7 -15 -20 -27 -31
-27 -24 0 -23 10 6 53 19 28 21 37 10 41 -9 4 -22 -12 -39 -48z"/>
<path d="M4630 3880 c0 -28 -3 -30 -35 -30 -19 0 -35 -4 -35 -10 0 -5 16 -10
35 -10 31 0 35 -3 35 -25 0 -21 -5 -25 -30 -25 -16 0 -30 -4 -30 -10 0 -6 32
-10 75 -10 43 0 75 4 75 10 0 6 -16 10 -35 10 -31 0 -35 3 -35 25 0 23 4 25
45 25 25 0 45 5 45 10 0 6 -20 10 -45 10 -46 0 -53 7 -35 41 9 16 7 19 -10 19
-16 0 -20 -6 -20 -30z"/>
<path d="M4913 3890 c5 -19 0 -20 -64 -20 -88 0 -90 -18 -2 -22 42 -2 68 -8
71 -15 2 -9 -11 -13 -47 -13 l-51 0 0 -45 0 -45 37 0 37 0 -30 -31 c-16 -17
-42 -37 -57 -45 -15 -8 -25 -19 -22 -24 10 -17 21 -11 73 35 27 25 53 45 57
45 4 0 5 -25 2 -55 -4 -44 -3 -55 9 -55 11 0 14 15 14 61 l0 62 20 -26 c26
-33 87 -70 100 -62 6 4 -8 19 -32 34 -24 15 -49 35 -57 44 -12 15 -10 17 23
17 l36 0 0 45 0 45 -45 0 c-33 0 -45 4 -45 15 0 12 14 15 65 15 37 0 65 4 65
10 0 6 -28 10 -65 10 -58 0 -65 2 -65 20 0 12 -7 20 -16 20 -11 0 -15 -6 -11
-20z m5 -117 c3 -21 -1 -23 -37 -23 -37 0 -41 2 -41 26 0 23 3 25 38 22 30 -2
38 -7 40 -25z m92 2 c0 -22 -4 -25 -35 -25 -31 0 -35 3 -35 25 0 22 4 25 35
25 31 0 35 -3 35 -25z"/>
<path d="M5199 3888 c-6 -13 -25 -38 -42 -55 -25 -27 -27 -33 -13 -33 9 0 29
14 43 30 21 26 32 30 74 30 53 0 59 -7 31 -33 -24 -22 -35 -21 -57 3 -10 11
-22 17 -27 14 -5 -3 1 -17 13 -30 12 -13 21 -25 18 -27 -7 -6 -63 -25 -91 -31
-31 -7 -38 -26 -10 -26 9 0 42 11 72 23 53 22 56 22 95 6 52 -23 97 -28 102
-11 3 7 -5 12 -21 12 -15 0 -43 7 -62 15 l-36 15 31 35 c17 20 31 40 31 45 0
6 -30 10 -67 11 -38 0 -62 3 -55 6 6 2 10 9 6 14 -9 15 -23 10 -35 -13z"/>
<path d="M5520 3895 c0 -21 -28 -75 -52 -102 -12 -12 -17 -27 -13 -34 6 -8 13
-5 26 12 18 24 19 23 19 -73 0 -59 4 -98 10 -98 6 0 10 45 10 115 0 85 4 124
15 146 16 29 13 49 -6 49 -5 0 -9 -7 -9 -15z"/>
<path d="M5640 3870 c0 -34 -3 -40 -21 -40 -16 0 -19 4 -14 20 4 13 2 20 -7
20 -8 0 -19 -19 -26 -42 -7 -24 -15 -49 -18 -55 -11 -25 17 -13 28 12 7 16 19
25 35 25 20 0 23 -5 23 -35 0 -35 0 -35 -45 -35 -25 0 -45 -4 -45 -10 0 -5 20
-10 45 -10 l45 0 0 -60 c0 -33 4 -60 10 -60 6 0 10 27 10 60 l0 60 50 0 c28 0
50 5 50 10 0 6 -22 10 -50 10 l-50 0 0 35 c0 33 2 35 35 35 19 0 35 5 35 10 0
6 -16 10 -36 10 l-37 0 6 40 c4 30 2 40 -9 40 -10 0 -14 -12 -14 -40z"/>
<path d="M5250 3740 c0 -17 -7 -20 -45 -20 -25 0 -45 -4 -45 -10 0 -5 20 -10
45 -10 l45 0 0 -40 c0 -34 -3 -40 -21 -40 -11 0 -17 -4 -14 -10 3 -5 17 -10
31 -10 22 0 24 4 24 50 l0 50 50 0 c28 0 50 5 50 10 0 6 -23 10 -51 10 -46 0
-51 2 -46 20 3 13 0 20 -9 20 -8 0 -14 -9 -14 -20z"/>
<path d="M4580 3665 c0 -37 4 -65 10 -65 6 0 10 7 10 15 0 22 86 21 94 -1 12
-31 21 -4 18 55 l-4 61 -64 0 -64 0 0 -65z m110 10 c0 -35 0 -35 -45 -35 -45
0 -45 0 -45 35 0 35 0 35 45 35 45 0 45 0 45 -35z"/>
<path d="M5163 3660 c-35 -32 -40 -40 -22 -40 16 0 79 57 72 64 -10 10 -16 7
-50 -24z"/>
<path d="M5300 3681 c0 -13 70 -64 78 -56 4 4 -9 20 -28 36 -35 30 -50 36 -50
20z"/>
<path d="M4486 3656 c-36 -11 -62 -36 -39 -36 21 0 103 33 103 41 0 11 -15 10
-64 -5z"/>
<path d="M7388 3869 l-28 -39 -70 0 c-40 0 -70 -4 -70 -10 0 -6 27 -10 61 -10
59 0 61 -1 55 -22 -3 -13 -6 -26 -6 -30 0 -5 -27 -8 -60 -8 -33 0 -60 -4 -60
-10 0 -6 27 -10 60 -10 33 0 60 -4 60 -9 0 -20 -53 -71 -85 -83 -19 -6 -35
-15 -35 -18 0 -42 115 30 133 83 2 6 18 -5 37 -26 39 -45 85 -71 108 -62 13 5
8 11 -23 26 -40 20 -95 66 -95 81 0 4 27 8 60 8 33 0 60 4 60 10 0 6 -30 10
-71 10 -61 0 -70 2 -65 16 3 9 6 22 6 30 0 11 15 14 62 14 67 0 71 16 5 22
l-39 3 22 28 c13 16 19 32 14 37 -5 4 -21 -9 -36 -31z"/>
<path d="M7610 3823 c0 -47 -3 -83 -6 -80 -4 3 -20 -12 -36 -34 -37 -51 -27
-66 13 -19 l28 35 1 -62 c0 -62 1 -63 26 -61 30 3 64 42 90 104 l17 39 14 -35
c23 -54 63 -104 76 -91 7 7 1 20 -17 42 -28 32 -56 91 -56 115 0 10 13 14 40
14 22 0 40 5 40 10 0 6 -21 10 -46 10 l-46 0 4 50 c2 35 -1 50 -9 50 -9 0 -13
-17 -13 -50 l0 -50 -40 0 c-22 0 -40 -4 -40 -10 0 -5 16 -10 35 -10 29 0 35
-4 35 -20 0 -45 -56 -140 -82 -140 -6 0 -8 61 -6 140 2 107 0 140 -9 140 -10
0 -13 -24 -13 -87z"/>
<path d="M8008 3888 c-3 -21 -9 -23 -65 -26 -78 -4 -84 -22 -8 -22 30 0 55 -4
55 -9 0 -15 -79 -81 -97 -81 -12 0 -14 -3 -6 -11 18 -18 49 -1 98 53 l46 51
35 -42 c45 -52 93 -79 105 -59 6 9 0 15 -20 20 -30 8 -81 50 -81 68 0 5 22 10
50 10 28 0 50 5 50 10 0 6 -30 10 -71 10 -71 0 -71 0 -65 25 5 18 2 25 -8 25
-8 0 -16 -10 -18 -22z"/>
<path d="M7250 3894 c0 -7 25 -29 53 -45 12 -7 17 -6 17 3 0 8 -13 21 -29 31
-31 18 -41 21 -41 11z"/>
<path d="M6890 3880 c0 -5 14 -10 30 -10 29 0 30 -2 30 -45 l0 -45 -40 0 c-28
0 -40 -4 -40 -14 0 -11 10 -13 40 -9 33 5 40 3 40 -11 0 -27 -26 -79 -49 -100
-25 -22 -27 -36 -6 -36 21 0 64 68 71 113 6 36 7 37 50 37 l44 0 0 -75 c0 -96
18 -98 22 -2 l3 72 38 -1 c25 -1 37 3 37 12 0 10 -13 14 -40 14 l-40 0 0 45
c0 43 1 45 30 45 17 0 30 5 30 10 0 6 -48 10 -125 10 -77 0 -125 -4 -125 -10z
m170 -55 l0 -45 -45 0 -45 0 0 45 0 45 45 0 45 0 0 -45z"/>
<path d="M7786 3855 c15 -23 34 -34 34 -19 0 16 -23 44 -36 44 -12 0 -12 -4 2
-25z"/>
<path d="M7550 3841 c0 -15 38 -56 45 -49 9 9 -21 58 -35 58 -6 0 -10 -4 -10
-9z"/>
<path d="M8006 3782 c-7 -11 31 -48 41 -38 4 3 -2 16 -14 27 -11 12 -23 17
-27 11z"/>
<path d="M8006 3722 c-3 -5 5 -19 18 -31 16 -16 26 -19 31 -11 4 6 5 12 4 13
-2 1 -14 10 -26 20 -11 10 -24 14 -27 9z"/>
<path d="M7899 3665 c-22 -46 -7 -54 20 -11 24 39 26 46 9 46 -7 -1 -20 -16
-29 -35z"/>
<path d="M7970 3655 c0 -42 1 -44 34 -50 48 -9 106 11 106 36 0 14 -20 10 -37
-7 -9 -9 -28 -14 -47 -12 -28 3 -31 7 -34 41 -4 52 -22 46 -22 -8z"/>
<path d="M8110 3692 c0 -14 49 -56 57 -49 3 4 -4 18 -17 32 -24 25 -40 32 -40
17z"/>
<path d="M10330 3824 c0 -47 -4 -83 -9 -80 -13 8 -75 -74 -64 -85 6 -6 20 6
39 32 l29 42 3 -67 c3 -64 4 -67 25 -61 31 9 76 63 89 109 l12 39 18 -43 c26
-62 56 -100 73 -93 12 4 10 12 -12 37 -27 32 -62 101 -63 124 0 8 16 12 45 12
25 0 45 5 45 10 0 6 -23 10 -51 10 l-52 0 5 50 c4 38 2 50 -8 50 -10 0 -14
-15 -14 -50 l0 -50 -35 0 c-19 0 -35 -4 -35 -10 0 -5 16 -10 35 -10 33 0 35
-1 29 -27 -11 -48 -31 -87 -55 -113 l-24 -25 -3 143 c-1 83 -7 142 -12 142 -6
0 -10 -37 -10 -86z"/>
<path d="M10720 3885 c0 -24 -3 -25 -60 -25 -33 0 -60 -4 -60 -10 0 -5 25 -10
56 -10 l55 0 -22 -31 c-12 -17 -39 -39 -60 -48 -28 -13 -36 -20 -27 -29 15
-15 90 37 115 78 22 38 33 37 58 -3 22 -34 82 -80 99 -74 20 7 16 25 -8 31
-27 7 -86 53 -86 67 0 5 23 9 50 9 28 0 50 5 50 10 0 6 -30 10 -70 10 -70 0
-70 0 -64 25 5 19 2 25 -10 25 -10 0 -16 -9 -16 -25z"/>
<path d="M11026 3877 c-14 -18 -37 -39 -51 -47 -14 -7 -25 -17 -25 -22 0 -15
23 -8 56 17 26 20 44 25 90 25 l58 0 -33 -34 -34 -35 -28 21 c-16 12 -32 18
-36 14 -4 -4 3 -16 17 -26 25 -19 25 -19 5 -34 -11 -9 -42 -23 -68 -32 -35
-11 -46 -19 -38 -27 7 -7 18 -7 36 1 14 7 28 12 30 12 3 0 5 -25 5 -55 0 -30
5 -55 10 -55 6 0 10 5 10 10 0 6 32 10 75 10 43 0 75 -4 75 -10 0 -5 5 -10 10
-10 6 0 10 30 10 70 l0 70 -66 0 -65 0 60 56 c34 31 61 60 61 65 0 5 -33 9
-72 9 -63 1 -71 3 -56 14 17 12 15 26 -3 26 -4 0 -19 -15 -33 -33z m154 -197
l0 -40 -75 0 -75 0 0 40 0 40 75 0 75 0 0 -40z"/>
<path d="M11444 3893 c-16 -46 -48 -106 -52 -95 -2 7 -12 12 -23 12 -29 0 -27
56 3 64 16 4 20 8 12 16 -8 8 -19 8 -38 0 -15 -5 -39 -10 -52 -10 -14 0 -22
-4 -19 -10 3 -5 15 -10 26 -10 14 0 19 -7 19 -25 0 -20 -5 -25 -25 -25 -14 0
-25 -4 -25 -10 0 -5 11 -10 25 -10 14 0 25 -2 25 -5 0 -11 -32 -70 -47 -87
-10 -11 -11 -18 -3 -23 13 -8 13 -9 33 30 l16 30 1 -67 c0 -54 3 -68 15 -68
12 0 15 15 15 73 1 63 2 70 14 54 10 -12 16 -15 21 -7 4 6 -2 22 -14 34 -29
31 -26 39 12 32 29 -5 35 -3 47 19 11 21 20 25 62 25 46 0 48 -1 38 -20 -8
-16 -8 -20 4 -20 8 0 19 14 25 30 l10 30 -59 0 c-59 0 -59 0 -50 25 6 15 6 26
0 30 -6 4 -13 -2 -16 -12z"/>
<path d="M10490 3873 c0 -4 7 -17 15 -27 17 -23 34 -13 19 11 -12 19 -34 29
-34 16z"/>
<path d="M10260 3845 c0 -12 33 -55 41 -55 15 0 10 26 -9 43 -19 17 -32 22
-32 12z"/>
<path d="M11470 3709 c0 -86 -1 -91 -20 -86 -23 6 -27 -11 -5 -19 32 -13 44
15 47 107 2 66 0 89 -9 89 -10 0 -13 -25 -13 -91z"/>
<path d="M10716 3781 c-3 -5 5 -16 19 -25 19 -12 25 -13 25 -4 0 17 -37 41
-44 29z"/>
<path d="M11510 3741 c0 -20 43 -81 56 -81 11 0 6 13 -16 45 -31 45 -40 53
-40 36z"/>
<path d="M11420 3731 c0 -4 -11 -25 -25 -45 -22 -32 -23 -37 -8 -34 10 2 28
22 41 46 20 35 21 42 8 42 -9 0 -16 -4 -16 -9z"/>
<path d="M10720 3713 c0 -5 12 -16 25 -26 19 -13 25 -15 25 -4 0 7 -5 18 -12
25 -13 13 -38 16 -38 5z"/>
<path d="M10623 3683 c-3 -10 -12 -25 -20 -35 -9 -10 -11 -18 -4 -22 10 -7 51
44 51 63 0 18 -20 13 -27 -6z"/>
<path d="M10680 3657 c0 -42 2 -46 30 -52 37 -8 85 2 101 21 18 22 4 28 -24 9
-14 -9 -38 -15 -54 -13 -24 3 -28 7 -29 37 0 19 -5 36 -12 39 -8 2 -12 -11
-12 -41z"/>
<path d="M10830 3692 c0 -14 46 -53 53 -45 4 3 -3 17 -15 30 -22 23 -38 30
-38 15z"/>
<path d="M845 3085 c-31 -25 -28 -33 6 -15 18 10 19 7 19 -80 l0 -90 -30 0
c-16 0 -30 -4 -30 -10 0 -6 28 -10 65 -10 37 0 65 4 65 10 0 6 -11 10 -25 10
l-25 0 0 105 c0 58 -3 105 -7 105 -5 0 -21 -11 -38 -25z"/>
<path d="M2430 3016 c0 -90 1 -96 26 -115 46 -36 105 -27 129 20 17 31 21 189
6 189 -5 0 -11 -41 -13 -91 -3 -100 -15 -119 -69 -119 -48 0 -59 22 -59 121 0
53 -4 89 -10 89 -6 0 -10 -38 -10 -94z"/>
<path d="M2900 3016 c0 -90 1 -96 26 -115 46 -36 105 -27 129 20 17 31 21 189
6 189 -5 0 -11 -41 -13 -91 -3 -100 -15 -119 -69 -119 -48 0 -59 22 -59 121 0
53 -4 89 -10 89 -6 0 -10 -38 -10 -94z"/>
<path d="M2663 3043 c-14 -5 -18 -33 -5 -33 4 0 13 5 19 11 18 18 58 7 61 -18
3 -20 -1 -23 -32 -23 -37 0 -76 -28 -76 -53 0 -37 71 -62 98 -35 9 9 12 9 12
0 0 -7 5 -12 10 -12 6 0 10 32 10 75 0 63 -3 76 -19 85 -20 10 -57 12 -78 3z
m77 -101 c0 -24 -19 -42 -45 -42 -31 0 -46 19 -34 42 14 25 79 26 79 0z"/>
<path d="M2820 3035 c0 -8 5 -15 10 -15 6 0 10 7 10 15 0 8 -4 15 -10 15 -5 0
-10 -7 -10 -15z"/>
<path d="M3130 3023 c-18 -22 -21 -37 -17 -72 3 -27 12 -50 23 -58 26 -19 68
-16 89 7 23 25 12 39 -13 17 -40 -36 -82 -11 -82 48 0 57 49 88 80 50 14 -17
30 -20 30 -6 0 19 -32 41 -60 41 -19 0 -36 -9 -50 -27z"/>
<path d="M2823 2875 c3 -46 17 -46 17 0 0 19 -4 35 -9 35 -5 0 -9 -16 -8 -35z"/>
<path d="M4820 3501 c0 -37 -2 -41 -25 -41 -14 0 -25 -4 -25 -10 0 -5 11 -10
25 -10 22 0 25 -4 25 -33 0 -26 -6 -36 -25 -45 -14 -6 -25 -16 -25 -22 0 -13
6 -13 31 1 19 10 20 7 17 -43 -2 -38 -7 -52 -16 -50 -8 1 -12 -3 -10 -10 3 -7
13 -13 24 -13 17 0 19 9 22 68 2 48 7 70 17 74 8 3 15 11 15 19 0 8 -6 11 -15
8 -11 -5 -15 1 -15 20 0 19 5 26 20 26 11 0 20 5 20 10 0 6 -9 10 -21 10 -18
0 -20 5 -17 37 2 22 -2 38 -10 41 -8 2 -12 -9 -12 -37z"/>
<path d="M4950 3522 c0 -4 5 -13 12 -20 9 -9 3 -12 -30 -12 -40 0 -42 -1 -42
-30 0 -16 5 -30 10 -30 6 0 10 9 10 20 0 18 7 20 65 20 58 0 65 -2 65 -20 0
-11 5 -20 10 -20 6 0 10 14 10 30 0 27 -3 30 -33 30 -21 0 -36 7 -45 20 -12
20 -32 27 -32 12z"/>
<path d="M5225 3494 c-21 -40 -58 -69 -98 -79 -22 -6 -25 -10 -16 -21 15 -18
51 1 103 55 l39 40 42 -38 c53 -49 82 -64 103 -56 13 5 8 11 -23 26 -45 22
-105 77 -105 96 0 25 -26 12 -45 -23z"/>
<path d="M4913 3404 c-17 -19 -27 -37 -22 -40 12 -7 25 2 49 36 30 41 10 45
-27 4z"/>
<path d="M4990 3422 c0 -14 49 -56 57 -49 3 4 -4 18 -17 32 -24 25 -40 32 -40
17z"/>
<path d="M5180 3400 c0 -6 33 -10 80 -10 47 0 80 4 80 10 0 6 -33 10 -80 10
-47 0 -80 -4 -80 -10z"/>
<path d="M4900 3340 c0 -5 14 -10 30 -10 28 0 30 -3 30 -35 0 -35 0 -35 -45
-35 -25 0 -45 -4 -45 -10 0 -6 40 -10 100 -10 60 0 100 4 100 10 0 6 -20 10
-45 10 -45 0 -45 0 -45 35 0 33 2 35 35 35 19 0 35 5 35 10 0 6 -32 10 -75 10
-43 0 -75 -4 -75 -10z"/>
<path d="M5170 3285 c0 -37 4 -65 10 -65 6 0 10 5 10 10 0 6 30 10 70 10 40 0
70 -4 70 -10 0 -5 6 -10 13 -10 8 0 12 20 12 65 l0 65 -92 0 -93 0 0 -65z
m160 10 l0 -35 -70 0 -70 0 0 35 0 35 70 0 70 0 0 -35z"/>
<path d="M4341 3119 c-46 -76 -46 -196 0 -260 30 -42 35 -29 8 23 -30 58 -30
145 -1 212 26 58 22 72 -7 25z"/>
<path d="M4900 3100 l0 -50 -60 0 c-33 0 -60 -4 -60 -10 0 -5 25 -10 55 -10
43 0 55 -3 55 -15 0 -34 -30 -83 -74 -122 -30 -26 -43 -44 -35 -48 14 -9 104
78 120 117 l11 28 28 -43 c30 -47 84 -97 106 -97 25 0 15 15 -28 46 -25 18
-55 52 -71 82 l-28 52 65 0 c37 0 66 4 66 10 0 6 -28 10 -65 10 l-65 0 0 50
c0 28 -4 50 -10 50 -5 0 -10 -22 -10 -50z"/>
<path d="M5148 3128 c-2 -15 -11 -24 -25 -26 -28 -4 -30 -22 -3 -22 20 0 20
-1 4 -37 -9 -21 -18 -44 -21 -50 -3 -9 5 -13 27 -13 28 0 31 -3 28 -27 -2 -22
-9 -29 -30 -31 -38 -4 -36 -22 2 -22 27 0 30 -3 30 -30 0 -16 5 -30 10 -30 6
0 10 15 10 34 0 21 6 36 15 40 8 3 15 10 15 17 0 6 -7 9 -15 5 -11 -4 -15 1
-15 19 0 16 6 25 15 25 8 0 15 5 15 10 0 6 -7 10 -15 10 -9 0 -15 9 -15 25 0
14 -4 25 -10 25 -5 0 -10 -11 -10 -25 0 -16 -6 -25 -15 -25 -18 0 -18 -1 0 44
13 30 20 36 45 36 17 0 30 5 30 10 0 6 -12 10 -26 10 -20 0 -25 4 -22 22 2 11
-2 23 -9 25 -6 2 -13 -6 -15 -19z"/>
<path d="M5260 3115 c-12 -19 -33 -44 -47 -55 -28 -22 -23 -41 5 -23 10 6 41
10 70 9 64 -2 69 12 6 16 l-46 3 19 24 20 25 43 -37 c43 -36 70 -47 70 -27 0
6 -4 10 -10 10 -16 0 -90 71 -84 81 3 5 -1 9 -10 9 -8 0 -24 -16 -36 -35z"/>
<path d="M5578 3088 l-3 -63 -39 -3 -38 -3 4 45 c2 30 -1 47 -9 51 -10 3 -13
-12 -13 -55 l0 -60 50 0 50 0 0 -55 0 -55 -45 0 -45 0 0 45 c0 25 -4 45 -10
45 -6 0 -10 -26 -10 -57 l0 -58 110 3 c73 2 110 0 110 -7 0 -6 4 -11 9 -11 5
0 11 29 13 65 2 47 0 65 -9 65 -9 0 -13 -16 -13 -45 l0 -45 -45 0 -45 0 0 55
0 55 44 0 44 0 4 60 c2 43 -1 60 -9 60 -9 0 -13 -17 -13 -50 l0 -50 -35 0 -35
0 0 65 c0 83 -18 85 -22 3z"/>
<path d="M6010 3110 l0 -40 -50 0 c-27 0 -50 -4 -50 -10 0 -5 23 -10 50 -10
l50 0 0 -89 c0 -90 0 -90 -27 -93 -21 -2 -24 -5 -12 -14 9 -8 22 -9 37 -3 21
8 22 14 22 104 0 95 0 95 25 95 14 0 25 5 25 10 0 6 -12 10 -26 10 -24 0 -26
3 -22 40 2 28 0 40 -9 40 -8 0 -13 -14 -13 -40z"/>
<path d="M4480 3095 l0 -45 100 0 100 0 0 45 0 45 -100 0 -100 0 0 -45z m143
18 c-24 -2 -62 -2 -85 0 -24 2 -5 4 42 4 47 0 66 -2 43 -4z m37 -33 c0 -6 -34
-10 -81 -10 -51 0 -78 4 -74 10 3 6 40 10 81 10 43 0 74 -4 74 -10z"/>
<path d="M5800 2995 c0 -77 4 -125 10 -125 6 0 10 7 10 15 0 10 10 15 30 15
20 0 30 -5 30 -15 0 -8 5 -15 10 -15 6 0 10 48 10 125 l0 125 -50 0 -50 0 0
-125z m80 65 c0 -38 -2 -40 -30 -40 -28 0 -30 2 -30 40 0 38 2 40 30 40 28 0
30 -2 30 -40z m0 -100 c0 -38 -2 -40 -30 -40 -28 0 -30 2 -30 40 0 38 2 40 30
40 28 0 30 -2 30 -40z"/>
<path d="M4430 3028 c0 -5 9 -8 20 -8 18 0 20 -7 20 -59 0 -43 -4 -60 -15 -65
-8 -3 -15 -10 -15 -16 0 -11 15 -10 88 7 18 4 22 1 22 -21 0 -16 6 -26 15 -26
8 0 15 5 15 11 0 5 4 8 9 5 5 -3 20 3 33 13 24 19 25 19 53 1 27 -18 45 -18
45 -2 0 4 -14 13 -30 21 l-30 13 20 33 c31 50 27 55 -40 55 -47 0 -60 3 -60
15 0 12 15 15 75 15 41 0 75 3 75 8 0 4 -67 7 -150 7 -82 0 -150 -3 -150 -7z
m120 -23 c0 -10 -10 -15 -30 -15 -20 0 -30 5 -30 15 0 10 10 15 30 15 20 0 30
-5 30 -15z m0 -45 c0 -5 -13 -10 -30 -10 -16 0 -30 5 -30 10 0 6 14 10 30 10
17 0 30 -4 30 -10z m63 -22 c18 -32 18 -33 -4 -51 -26 -21 -40 -7 -19 18 9 11
9 15 1 15 -6 0 -11 11 -11 25 0 34 11 31 33 -7z m57 25 c0 -5 -4 -14 -9 -22
-8 -12 -12 -12 -25 -2 -23 19 -20 31 9 31 14 0 25 -3 25 -7z m-120 -43 c0 -5
-3 -10 -7 -10 -5 0 -18 -3 -30 -6 -17 -5 -23 -2 -23 10 0 11 9 16 30 16 17 0
30 -4 30 -10z"/>
<path d="M5360 2945 c0 -69 -3 -85 -15 -85 -8 0 -15 -4 -15 -10 0 -11 11 -13
34 -4 13 5 16 23 16 95 0 53 -4 89 -10 89 -6 0 -10 -35 -10 -85z"/>
<path d="M5220 2930 c0 -53 4 -90 10 -90 6 0 10 14 10 30 0 23 4 30 20 30 13
0 20 -7 20 -20 0 -11 -4 -20 -10 -20 -5 0 -10 -4 -10 -10 0 -16 27 -11 34 6 3
9 6 49 6 90 l0 74 -40 0 -40 0 0 -90z m60 55 c0 -8 -9 -15 -20 -15 -11 0 -20
7 -20 15 0 8 9 15 20 15 11 0 20 -7 20 -15z m0 -50 c0 -8 -9 -15 -20 -15 -11
0 -20 7 -20 15 0 8 9 15 20 15 11 0 20 -7 20 -15z"/>
<path d="M5930 3010 c0 -21 24 -60 37 -60 8 0 13 3 11 8 -24 48 -32 62 -40 62
-4 0 -8 -4 -8 -10z"/>
<path d="M5320 2950 c0 -33 4 -60 10 -60 6 0 10 27 10 60 0 33 -4 60 -10 60
-6 0 -10 -27 -10 -60z"/>
<path d="M5387 2721 c18 -37 25 -66 25 -111 0 -45 -7 -74 -25 -111 -28 -58
-12 -61 20 -3 32 55 32 162 1 224 -13 24 -28 46 -34 47 -6 2 0 -19 13 -46z"/>
<path d="M4530 2605 c0 -109 3 -145 13 -145 9 0 11 32 9 135 l-4 135 26 0 c30
0 32 -9 11 -51 -15 -27 -14 -31 5 -51 27 -29 27 -68 0 -68 -11 0 -20 -7 -20
-15 0 -18 14 -19 41 -5 26 14 26 71 -1 95 -19 17 -19 18 6 66 l24 49 -55 0
-55 0 0 -145z"/>
<path d="M4650 2615 c0 -74 0 -138 -1 -142 -1 -16 17 -11 46 12 16 13 26 27
22 31 -4 4 -13 2 -19 -4 -22 -22 -28 -12 -28 43 0 72 19 73 54 2 31 -64 59
-92 82 -83 15 6 14 9 -7 23 -46 33 -50 46 -18 68 16 11 29 23 29 28 0 14 -27
7 -45 -13 -14 -16 -20 -17 -27 -8 -15 25 -8 38 22 38 l30 0 0 70 0 70 -70 0
-70 0 0 -135z m120 95 c0 -17 -7 -20 -50 -20 -43 0 -50 3 -50 20 0 17 7 20 50
20 43 0 50 -3 50 -20z m0 -60 c0 -17 -7 -20 -50 -20 -43 0 -50 3 -50 20 0 17
7 20 50 20 43 0 50 -3 50 -20z"/>
<path d="M4895 2705 c-22 -18 -26 -24 -13 -25 9 0 20 5 23 10 17 27 25 2 25
-80 l0 -90 -30 0 c-16 0 -30 -4 -30 -10 0 -6 28 -10 65 -10 37 0 65 4 65 10 0
6 -11 10 -25 10 l-25 0 0 105 c0 116 -4 122 -55 80z"/>
<path d="M5065 2716 c-16 -12 -20 -29 -23 -95 -4 -75 -2 -81 22 -105 32 -33
60 -33 91 -1 34 33 39 146 9 193 -17 26 -69 30 -99 8z m85 -25 c16 -30 12
-133 -6 -159 -36 -52 -84 -10 -84 75 0 76 13 103 49 103 20 0 34 -7 41 -19z"/>
<path d="M5226 2654 c-33 -32 -18 -63 39 -81 22 -7 30 -16 30 -34 0 -30 -38
-38 -66 -13 -18 16 -19 16 -19 0 0 -42 93 -45 109 -3 12 30 -7 57 -49 71 -25
8 -35 17 -35 31 0 24 38 33 61 14 8 -6 18 -9 22 -5 10 11 -28 36 -54 36 -13 0
-30 -7 -38 -16z"/>
<path d="M7687 3154 c-4 -4 5 -21 20 -38 l26 -31 -51 -3 c-29 -2 -52 -7 -52
-13 0 -12 197 -12 205 1 4 6 -13 10 -44 10 -37 0 -49 3 -45 13 5 15 -49 71
-59 61z"/>
<path d="M7370 3137 c0 -19 52 -98 84 -126 18 -17 29 -22 37 -14 7 7 -1 18
-24 36 -18 14 -44 46 -58 71 -24 45 -39 58 -39 33z"/>
<path d="M7591 3105 c-11 -25 -29 -59 -41 -74 -16 -24 -17 -30 -6 -34 8 -3 21
4 30 16 14 20 15 14 15 -81 1 -66 5 -101 11 -97 6 4 10 59 10 133 0 96 4 133
15 148 14 20 11 34 -6 34 -5 0 -17 -20 -28 -45z"/>
<path d="M7286 3114 c-4 -14 -25 -45 -48 -70 -44 -48 -45 -73 -2 -33 27 25 84
107 84 121 0 20 -29 5 -34 -18z"/>
<path d="M7761 2978 c-20 -96 -23 -100 -87 -96 -30 1 -54 0 -54 -4 0 -5 53 -7
118 -6 64 1 96 3 70 5 -27 2 -48 5 -48 6 0 1 9 34 20 72 24 83 24 85 7 85 -8
0 -18 -24 -26 -62z"/>
<path d="M7260 3020 c0 -5 11 -10 25 -10 18 0 25 -5 25 -20 0 -38 -29 -90 -60
-108 -31 -18 -36 -27 -21 -36 14 -9 72 44 87 81 8 18 14 44 14 58 0 23 4 25
40 25 l40 0 0 -42 c0 -68 -9 -88 -37 -88 -15 0 -23 -5 -21 -12 7 -19 31 -21
53 -4 16 11 20 29 23 90 l4 76 -86 0 c-51 0 -86 -4 -86 -10z"/>
<path d="M7662 3019 c2 -8 10 -35 17 -61 8 -29 19 -48 28 -48 15 0 14 4 -12
79 -11 33 -42 60 -33 30z"/>
<path d="M10716 3153 c-3 -3 -6 -15 -6 -25 0 -15 -8 -18 -60 -18 -33 0 -60 -4
-60 -10 0 -5 25 -10 56 -10 l57 0 -25 -32 c-14 -18 -39 -42 -56 -54 -23 -16
-28 -24 -19 -33 8 -8 18 -4 39 16 l28 27 0 -88 c0 -65 3 -87 12 -84 8 3 12 19
10 41 l-4 37 61 0 c58 0 61 -1 61 -25 0 -16 -6 -25 -15 -25 -8 0 -15 -7 -15
-16 0 -10 7 -14 23 -12 21 3 22 9 27 106 l5 102 -68 0 c-65 0 -67 1 -55 20 11
17 24 20 95 20 49 0 83 4 83 10 0 6 -34 10 -81 10 -75 0 -80 1 -74 19 6 19 -7
36 -19 24z m94 -138 c0 -12 -13 -15 -60 -15 -47 0 -60 3 -60 15 0 12 13 15 60
15 47 0 60 -3 60 -15z m0 -55 c0 -18 -7 -20 -60 -20 -43 0 -60 4 -60 13 0 23
11 27 67 27 46 0 53 -2 53 -20z"/>
<path d="M10288 3080 c-33 -65 -33 -91 1 -57 10 10 12 -7 9 -86 -2 -69 0 -97
9 -97 8 0 13 41 15 138 2 75 7 145 12 155 5 9 4 17 -1 17 -5 0 -25 -31 -45
-70z"/>
<path d="M10520 3010 c0 -133 -1 -140 -20 -140 -11 0 -20 -7 -20 -15 0 -16 27
-20 47 -7 17 11 23 302 6 302 -10 0 -13 -35 -13 -140z"/>
<path d="M11800 3100 c0 -49 -1 -50 -30 -50 l-31 0 3 -72 c2 -40 7 -73 12 -73
5 0 9 28 7 63 l-2 62 50 0 51 0 0 -60 c0 -33 4 -60 10 -60 6 0 10 30 10 70 l0
70 -31 0 c-31 0 -31 0 -27 50 2 35 -1 50 -9 50 -9 0 -13 -17 -13 -50z"/>
<path d="M11310 3133 c1 -15 39 -58 46 -51 8 9 -22 58 -36 58 -6 0 -10 -3 -10
-7z"/>
<path d="M11650 3128 c0 -6 -11 -26 -26 -45 -19 -24 -21 -33 -10 -33 8 0 18 5
21 10 3 6 26 10 51 10 24 0 44 5 44 10 0 6 -16 10 -35 10 -34 0 -46 12 -25 25
15 9 12 25 -5 25 -8 0 -15 -5 -15 -12z"/>
<path d="M9920 3120 c0 -5 23 -10 50 -10 47 0 50 -2 50 -25 0 -22 -4 -25 -35
-25 l-35 0 0 -105 c0 -63 4 -105 10 -105 6 0 10 18 10 41 0 23 4 38 10 34 5
-3 17 7 27 22 9 15 18 30 20 32 1 2 9 -1 16 -7 21 -17 28 -2 12 22 -22 30 -18
46 10 46 32 0 33 -29 5 -85 -24 -47 -24 -45 -6 -45 7 0 19 14 27 31 l13 32 18
-22 c9 -13 22 -20 28 -16 6 4 10 -8 10 -29 0 -32 -3 -36 -26 -36 -16 0 -24 -5
-21 -12 4 -15 45 -12 65 4 8 7 12 41 12 104 l0 94 -35 0 c-31 0 -35 3 -35 25
0 23 4 25 45 25 25 0 45 5 45 10 0 6 -55 10 -145 10 -90 0 -145 -4 -145 -10z
m172 -16 c14 -13 -6 -44 -28 -44 -19 0 -24 5 -24 25 0 20 5 25 23 25 13 0 26
-3 29 -6z m-82 -93 c-9 -32 -28 -71 -35 -71 -3 0 -5 23 -5 50 0 46 2 50 24 50
22 0 24 -3 16 -29z m150 -18 l0 -46 -25 23 c-14 13 -25 34 -25 47 0 18 5 23
25 23 23 0 25 -4 25 -47z"/>
<path d="M10350 3030 c0 -60 4 -100 10 -100 6 0 10 37 10 90 l0 90 30 0 30 0
0 -85 c0 -50 4 -85 10 -85 6 0 10 38 10 95 l0 95 -50 0 -50 0 0 -100z"/>
<path d="M11730 3119 c0 -19 37 -55 47 -45 4 3 -5 19 -20 34 -20 19 -27 22
-27 11z"/>
<path d="M11858 3100 c-9 -16 -13 -32 -9 -34 10 -6 52 50 44 58 -11 11 -18 6
-35 -24z"/>
<path d="M10959 3012 c-3 -80 -9 -115 -21 -134 -16 -24 -15 -38 3 -38 17 0 39
98 39 177 l0 83 120 0 c73 0 120 4 120 10 0 6 -50 10 -129 10 l-129 0 -3 -108z"/>
<path d="M11390 3110 c0 -6 30 -10 70 -10 l70 0 0 -120 c0 -113 -1 -120 -20
-120 -11 0 -20 -4 -20 -10 0 -14 33 -13 48 2 8 8 12 54 12 140 l0 128 -80 0
c-47 0 -80 -4 -80 -10z"/>
<path d="M10480 3015 c0 -57 4 -95 10 -95 6 0 10 38 10 95 0 57 -4 95 -10 95
-6 0 -10 -38 -10 -95z"/>
<path d="M10390 3005 c0 -80 -16 -127 -46 -139 -13 -5 -14 -10 -6 -18 15 -15
35 2 56 46 18 38 22 171 6 181 -6 4 -10 -22 -10 -70z"/>
<path d="M11090 3045 c0 -34 -1 -35 -40 -35 -22 0 -40 -4 -40 -10 0 -5 18 -10
40 -10 l41 0 -3 -57 -3 -58 -58 -3 c-33 -2 -55 -7 -52 -13 8 -12 255 -12 255
1 0 6 -27 10 -60 10 l-60 0 0 60 0 60 40 0 c22 0 40 5 40 10 0 6 -18 10 -40
10 -39 0 -40 1 -40 35 0 19 -4 35 -10 35 -5 0 -10 -16 -10 -35z"/>
<path d="M11290 2960 c0 -73 4 -120 10 -120 6 0 10 47 10 120 0 73 -4 120 -10
120 -6 0 -10 -47 -10 -120z"/>
<path d="M11430 3055 c0 -23 -3 -25 -50 -25 -27 0 -50 -4 -50 -10 0 -5 16 -10
35 -10 19 0 35 -3 35 -7 0 -17 -40 -73 -61 -83 -15 -8 -18 -15 -10 -23 14 -14
36 6 73 62 l28 45 0 -57 c0 -44 -3 -57 -15 -57 -8 0 -15 -7 -15 -15 0 -8 6
-15 13 -15 26 0 37 25 37 87 l0 63 30 0 c17 0 30 5 30 10 0 6 -13 10 -30 10
-25 0 -30 4 -30 25 0 14 -4 25 -10 25 -5 0 -10 -11 -10 -25z"/>
<path d="M11625 3030 c-3 -5 3 -10 14 -10 16 0 21 -6 21 -25 0 -20 -5 -25 -25
-25 -14 0 -25 -4 -25 -10 0 -5 12 -10 26 -10 26 0 26 -2 22 -45 -3 -25 -1 -45
4 -45 18 0 58 33 58 48 0 13 -3 12 -20 -3 -20 -18 -20 -17 -20 13 0 27 4 32
25 32 14 0 25 5 25 10 0 6 -11 10 -25 10 -20 0 -25 5 -25 25 0 18 5 25 20 25
11 0 20 5 20 10 0 6 -20 10 -44 10 -25 0 -48 -4 -51 -10z"/>
<path d="M11790 2956 c0 -37 -5 -48 -31 -70 -17 -14 -36 -26 -42 -26 -8 0 -8
-3 0 -11 8 -8 19 -7 40 6 39 23 52 46 60 100 5 38 3 45 -11 45 -12 0 -16 -10
-16 -44z"/>
<path d="M11152 2930 c33 -45 54 -38 22 8 -8 12 -22 22 -30 22 -11 0 -9 -7 8
-30z"/>
<path d="M10417 2923 c-6 -10 27 -53 42 -53 18 0 13 15 -13 39 -13 12 -26 19
-29 14z"/>
<path d="M11826 2902 c-2 -4 10 -20 29 -35 38 -30 57 -21 22 10 -31 28 -45 35
-51 25z"/>
<path d="M827 1942 c-18 -19 -23 -42 -9 -42 4 0 13 9 20 20 22 36 82 23 82
-18 0 -17 -19 -45 -60 -88 -33 -34 -60 -67 -60 -73 0 -7 26 -11 70 -11 84 0
94 18 13 22 l-58 3 58 56 c62 62 74 101 39 132 -25 22 -75 21 -95 -1z"/>
<path d="M2652 1864 c3 -86 5 -98 27 -115 31 -25 82 -24 115 2 25 19 26 25 26
115 0 56 -4 94 -10 94 -6 0 -10 -36 -10 -89 0 -99 -11 -121 -59 -121 -54 0
-66 19 -69 119 -2 52 -8 91 -14 91 -6 0 -9 -37 -6 -96z"/>
<path d="M2880 1885 c-16 -19 -5 -34 12 -17 18 18 56 14 68 -7 15 -29 13 -31
-23 -31 -41 0 -77 -25 -77 -54 0 -42 45 -60 91 -36 13 7 19 7 19 0 0 -5 5 -10
10 -10 17 0 12 123 -6 148 -18 26 -75 30 -94 7z m90 -88 c0 -22 -37 -49 -62
-45 -26 3 -37 36 -16 49 21 14 78 11 78 -4z"/>
<path d="M4820 2351 c0 -37 -2 -41 -25 -41 -14 0 -25 -4 -25 -10 0 -5 11 -10
25 -10 22 0 25 -4 25 -33 0 -26 -6 -36 -25 -45 -14 -6 -25 -16 -25 -22 0 -13
6 -13 31 1 19 10 20 7 17 -43 -2 -38 -7 -52 -16 -50 -8 1 -12 -3 -10 -10 3 -7
13 -13 24 -13 17 0 19 9 22 68 2 48 7 70 17 74 8 3 15 11 15 19 0 8 -6 11 -15
8 -11 -5 -15 1 -15 20 0 19 5 26 20 26 11 0 20 5 20 10 0 6 -9 10 -21 10 -18
0 -20 5 -17 37 2 22 -2 38 -10 41 -8 2 -12 -9 -12 -37z"/>
<path d="M4950 2372 c0 -4 5 -13 12 -20 9 -9 3 -12 -30 -12 -40 0 -42 -1 -42
-30 0 -16 5 -30 10 -30 6 0 10 9 10 20 0 18 7 20 65 20 58 0 65 -2 65 -20 0
-11 5 -20 10 -20 6 0 10 14 10 30 0 27 -3 30 -33 30 -21 0 -36 7 -45 20 -12
20 -32 27 -32 12z"/>
<path d="M5225 2344 c-21 -40 -58 -69 -98 -79 -22 -6 -25 -10 -16 -21 15 -18
51 1 103 55 l39 40 42 -38 c53 -49 82 -64 103 -56 13 5 8 11 -23 26 -45 22
-105 77 -105 96 0 25 -26 12 -45 -23z"/>
<path d="M4913 2254 c-17 -19 -27 -37 -22 -40 12 -7 25 2 49 36 30 41 10 45
-27 4z"/>
<path d="M4990 2272 c0 -14 49 -56 57 -49 3 4 -4 18 -17 32 -24 25 -40 32 -40
17z"/>
<path d="M5180 2250 c0 -6 33 -10 80 -10 47 0 80 4 80 10 0 6 -33 10 -80 10
-47 0 -80 -4 -80 -10z"/>
<path d="M4900 2190 c0 -5 14 -10 30 -10 28 0 30 -3 30 -35 0 -35 0 -35 -45
-35 -25 0 -45 -4 -45 -10 0 -6 40 -10 100 -10 60 0 100 4 100 10 0 6 -20 10
-45 10 -45 0 -45 0 -45 35 0 33 2 35 35 35 19 0 35 5 35 10 0 6 -32 10 -75 10
-43 0 -75 -4 -75 -10z"/>
<path d="M5170 2135 c0 -37 4 -65 10 -65 6 0 10 5 10 10 0 6 30 10 70 10 40 0
70 -4 70 -10 0 -5 6 -10 13 -10 8 0 12 20 12 65 l0 65 -92 0 -93 0 0 -65z
m160 10 l0 -35 -70 0 -70 0 0 35 0 35 70 0 70 0 0 -35z"/>
<path d="M4341 1969 c-46 -76 -46 -196 0 -260 30 -42 35 -29 8 23 -30 58 -30
145 -1 212 26 58 22 72 -7 25z"/>
<path d="M4900 1950 l0 -50 -60 0 c-33 0 -60 -4 -60 -10 0 -5 25 -10 55 -10
43 0 55 -3 55 -15 0 -34 -30 -83 -74 -122 -30 -26 -43 -44 -35 -48 14 -9 104
78 120 117 l11 28 28 -43 c30 -47 84 -97 106 -97 25 0 15 15 -28 46 -25 18
-55 52 -71 82 l-28 52 65 0 c37 0 66 4 66 10 0 6 -28 10 -65 10 l-65 0 0 50
c0 28 -4 50 -10 50 -5 0 -10 -22 -10 -50z"/>
<path d="M5148 1978 c-2 -15 -11 -24 -25 -26 -28 -4 -30 -22 -3 -22 20 0 20
-1 4 -37 -9 -21 -18 -44 -21 -50 -3 -9 5 -13 27 -13 28 0 31 -3 28 -27 -2 -22
-9 -29 -30 -31 -38 -4 -36 -22 2 -22 27 0 30 -3 30 -30 0 -16 5 -30 10 -30 6
0 10 15 10 34 0 21 6 36 15 40 8 3 15 10 15 17 0 6 -7 9 -15 5 -11 -4 -15 1
-15 19 0 16 6 25 15 25 8 0 15 5 15 10 0 6 -7 10 -15 10 -9 0 -15 9 -15 25 0
14 -4 25 -10 25 -5 0 -10 -11 -10 -25 0 -16 -6 -25 -15 -25 -18 0 -18 -1 0 44
13 30 20 36 45 36 17 0 30 5 30 10 0 6 -12 10 -26 10 -20 0 -25 4 -22 22 2 11
-2 23 -9 25 -6 2 -13 -6 -15 -19z"/>
<path d="M5260 1965 c-12 -19 -33 -44 -47 -55 -28 -22 -23 -41 5 -23 10 6 41
10 70 9 64 -2 69 12 6 16 l-46 3 19 24 20 25 43 -37 c43 -36 70 -47 70 -27 0
6 -4 10 -10 10 -16 0 -90 71 -84 81 3 5 -1 9 -10 9 -8 0 -24 -16 -36 -35z"/>
<path d="M5578 1938 l-3 -63 -39 -3 -38 -3 4 45 c2 30 -1 47 -9 51 -10 3 -13
-12 -13 -55 l0 -60 50 0 50 0 0 -55 0 -55 -45 0 -45 0 0 45 c0 25 -4 45 -10
45 -6 0 -10 -26 -10 -57 l0 -58 110 3 c73 2 110 0 110 -7 0 -6 4 -11 9 -11 5
0 11 29 13 65 2 47 0 65 -9 65 -9 0 -13 -16 -13 -45 l0 -45 -45 0 -45 0 0 55
0 55 44 0 44 0 4 60 c2 43 -1 60 -9 60 -9 0 -13 -17 -13 -50 l0 -50 -35 0 -35
0 0 65 c0 83 -18 85 -22 3z"/>
<path d="M6010 1960 l0 -40 -50 0 c-27 0 -50 -4 -50 -10 0 -5 23 -10 50 -10
l50 0 0 -89 c0 -90 0 -90 -27 -93 -21 -2 -24 -5 -12 -14 9 -8 22 -9 37 -3 21
8 22 14 22 104 0 95 0 95 25 95 14 0 25 5 25 10 0 6 -12 10 -26 10 -24 0 -26
3 -22 40 2 28 0 40 -9 40 -8 0 -13 -14 -13 -40z"/>
<path d="M4480 1945 l0 -45 100 0 100 0 0 45 0 45 -100 0 -100 0 0 -45z m143
18 c-24 -2 -62 -2 -85 0 -24 2 -5 4 42 4 47 0 66 -2 43 -4z m37 -33 c0 -6 -34
-10 -81 -10 -51 0 -78 4 -74 10 3 6 40 10 81 10 43 0 74 -4 74 -10z"/>
<path d="M5800 1845 c0 -77 4 -125 10 -125 6 0 10 7 10 15 0 10 10 15 30 15
20 0 30 -5 30 -15 0 -8 5 -15 10 -15 6 0 10 48 10 125 l0 125 -50 0 -50 0 0
-125z m80 65 c0 -38 -2 -40 -30 -40 -28 0 -30 2 -30 40 0 38 2 40 30 40 28 0
30 -2 30 -40z m0 -100 c0 -38 -2 -40 -30 -40 -28 0 -30 2 -30 40 0 38 2 40 30
40 28 0 30 -2 30 -40z"/>
<path d="M4430 1878 c0 -5 9 -8 20 -8 18 0 20 -7 20 -59 0 -43 -4 -60 -15 -65
-8 -3 -15 -10 -15 -16 0 -11 15 -10 88 7 18 4 22 1 22 -21 0 -16 6 -26 15 -26
8 0 15 5 15 11 0 5 4 8 9 5 5 -3 20 3 33 13 24 19 25 19 53 1 27 -18 45 -18
45 -2 0 4 -14 13 -30 21 l-30 13 20 33 c31 50 27 55 -40 55 -47 0 -60 3 -60
15 0 12 15 15 75 15 41 0 75 3 75 8 0 4 -67 7 -150 7 -82 0 -150 -3 -150 -7z
m120 -23 c0 -10 -10 -15 -30 -15 -20 0 -30 5 -30 15 0 10 10 15 30 15 20 0 30
-5 30 -15z m0 -45 c0 -5 -13 -10 -30 -10 -16 0 -30 5 -30 10 0 6 14 10 30 10
17 0 30 -4 30 -10z m63 -22 c18 -32 18 -33 -4 -51 -26 -21 -40 -7 -19 18 9 11
9 15 1 15 -6 0 -11 11 -11 25 0 34 11 31 33 -7z m57 25 c0 -5 -4 -14 -9 -22
-8 -12 -12 -12 -25 -2 -23 19 -20 31 9 31 14 0 25 -3 25 -7z m-120 -43 c0 -5
-3 -10 -7 -10 -5 0 -18 -3 -30 -6 -17 -5 -23 -2 -23 10 0 11 9 16 30 16 17 0
30 -4 30 -10z"/>
<path d="M5360 1795 c0 -69 -3 -85 -15 -85 -8 0 -15 -4 -15 -10 0 -11 11 -13
34 -4 13 5 16 23 16 95 0 53 -4 89 -10 89 -6 0 -10 -35 -10 -85z"/>
<path d="M5220 1780 c0 -53 4 -90 10 -90 6 0 10 14 10 30 0 23 4 30 20 30 13
0 20 -7 20 -20 0 -11 -4 -20 -10 -20 -5 0 -10 -4 -10 -10 0 -16 27 -11 34 6 3
9 6 49 6 90 l0 74 -40 0 -40 0 0 -90z m60 55 c0 -8 -9 -15 -20 -15 -11 0 -20
7 -20 15 0 8 9 15 20 15 11 0 20 -7 20 -15z m0 -50 c0 -8 -9 -15 -20 -15 -11
0 -20 7 -20 15 0 8 9 15 20 15 11 0 20 -7 20 -15z"/>
<path d="M5930 1860 c0 -21 24 -60 37 -60 8 0 13 3 11 8 -24 48 -32 62 -40 62
-4 0 -8 -4 -8 -10z"/>
<path d="M5320 1800 c0 -33 4 -60 10 -60 6 0 10 27 10 60 0 33 -4 60 -10 60
-6 0 -10 -27 -10 -60z"/>
<path d="M5387 1571 c18 -37 25 -66 25 -111 0 -45 -7 -74 -25 -111 -28 -58
-12 -61 20 -3 32 55 32 162 1 224 -13 24 -28 46 -34 47 -6 2 0 -19 13 -46z"/>
<path d="M4530 1455 c0 -109 3 -145 13 -145 9 0 11 32 9 135 l-4 135 26 0 c30
0 32 -9 11 -51 -15 -27 -14 -31 5 -51 27 -29 27 -68 0 -68 -11 0 -20 -7 -20
-15 0 -18 14 -19 41 -5 26 14 26 71 -1 95 -19 17 -19 18 6 66 l24 49 -55 0
-55 0 0 -145z"/>
<path d="M4650 1465 c0 -74 0 -138 -1 -142 -1 -16 17 -11 46 12 16 13 26 27
22 31 -4 4 -13 2 -19 -4 -22 -22 -28 -12 -28 43 0 72 19 73 54 2 31 -64 59
-92 82 -83 15 6 14 9 -7 23 -46 33 -50 46 -18 68 16 11 29 23 29 28 0 14 -27
7 -45 -13 -14 -16 -20 -17 -27 -8 -15 25 -8 38 22 38 l30 0 0 70 0 70 -70 0
-70 0 0 -135z m120 95 c0 -17 -7 -20 -50 -20 -43 0 -50 3 -50 20 0 17 7 20 50
20 43 0 50 -3 50 -20z m0 -60 c0 -17 -7 -20 -50 -20 -43 0 -50 3 -50 20 0 17
7 20 50 20 43 0 50 -3 50 -20z"/>
<path d="M4895 1555 c-22 -18 -26 -24 -13 -25 9 0 20 5 23 10 17 27 25 2 25
-80 l0 -90 -30 0 c-16 0 -30 -4 -30 -10 0 -6 28 -10 65 -10 37 0 65 4 65 10 0
6 -11 10 -25 10 l-25 0 0 105 c0 116 -4 122 -55 80z"/>
<path d="M5065 1566 c-16 -12 -20 -29 -23 -95 -4 -75 -2 -81 22 -105 32 -33
60 -33 91 -1 34 33 39 146 9 193 -17 26 -69 30 -99 8z m85 -25 c16 -30 12
-133 -6 -159 -36 -52 -84 -10 -84 75 0 76 13 103 49 103 20 0 34 -7 41 -19z"/>
<path d="M5226 1504 c-33 -32 -18 -63 39 -81 22 -7 30 -16 30 -34 0 -30 -38
-38 -66 -13 -18 16 -19 16 -19 0 0 -42 93 -45 109 -3 12 30 -7 57 -49 71 -25
8 -35 17 -35 31 0 24 38 33 61 14 8 -6 18 -9 22 -5 10 11 -28 36 -54 36 -13 0
-30 -7 -38 -16z"/>
<path d="M7687 2004 c-4 -4 5 -21 20 -38 l26 -31 -51 -3 c-29 -2 -52 -7 -52
-13 0 -12 197 -12 205 1 4 6 -13 10 -44 10 -37 0 -49 3 -45 13 5 15 -49 71
-59 61z"/>
<path d="M7370 1987 c0 -19 52 -98 84 -126 18 -17 29 -22 37 -14 7 7 -1 18
-24 36 -18 14 -44 46 -58 71 -24 45 -39 58 -39 33z"/>
<path d="M7591 1955 c-11 -25 -29 -59 -41 -74 -16 -24 -17 -30 -6 -34 8 -3 21
4 30 16 14 20 15 14 15 -81 1 -66 5 -101 11 -97 6 4 10 59 10 133 0 96 4 133
15 148 14 20 11 34 -6 34 -5 0 -17 -20 -28 -45z"/>
<path d="M7286 1964 c-4 -14 -25 -45 -48 -70 -44 -48 -45 -73 -2 -33 27 25 84
107 84 121 0 20 -29 5 -34 -18z"/>
<path d="M7761 1828 c-20 -96 -23 -100 -87 -96 -30 1 -54 0 -54 -4 0 -5 53 -7
118 -6 64 1 96 3 70 5 -27 2 -48 5 -48 6 0 1 9 34 20 72 24 83 24 85 7 85 -8
0 -18 -24 -26 -62z"/>
<path d="M7260 1870 c0 -5 11 -10 25 -10 18 0 25 -5 25 -20 0 -38 -29 -90 -60
-108 -31 -18 -36 -27 -21 -36 14 -9 72 44 87 81 8 18 14 44 14 58 0 23 4 25
40 25 l40 0 0 -42 c0 -68 -9 -88 -37 -88 -15 0 -23 -5 -21 -12 7 -19 31 -21
53 -4 16 11 20 29 23 90 l4 76 -86 0 c-51 0 -86 -4 -86 -10z"/>
<path d="M7662 1869 c2 -8 10 -35 17 -61 8 -29 19 -48 28 -48 15 0 14 4 -12
79 -11 33 -42 60 -33 30z"/>
<path d="M10710 1980 c0 -29 -1 -30 -50 -30 l-50 0 0 -85 0 -85 49 0 50 0 3
-37 3 -38 70 -3 c62 -3 72 0 87 19 10 11 15 25 12 30 -9 15 -21 10 -27 -11 -4
-17 -14 -20 -66 -20 l-61 0 0 30 c0 30 1 30 55 30 l55 0 0 85 0 85 -56 0 c-54
0 -56 1 -52 24 3 15 0 27 -8 30 -10 4 -14 -3 -14 -24z m0 -75 c0 -22 -4 -25
-40 -25 -36 0 -40 3 -40 25 0 23 4 25 40 25 36 0 40 -2 40 -25z m110 0 c0 -23
-4 -25 -45 -25 -41 0 -45 2 -45 25 0 23 4 25 45 25 41 0 45 -2 45 -25z m-110
-75 c0 -28 -2 -30 -40 -30 -38 0 -40 2 -40 30 0 28 2 30 40 30 38 0 40 -2 40
-30z m110 0 c0 -29 -2 -30 -45 -30 -43 0 -45 1 -45 30 0 29 2 30 45 30 43 0
45 -1 45 -30z"/>
<path d="M9948 1930 c-33 -65 -33 -91 1 -57 10 10 12 -7 9 -86 -2 -69 0 -97 9
-97 8 0 13 41 15 138 2 75 7 145 12 155 5 9 4 17 -1 17 -5 0 -25 -31 -45 -70z"/>
<path d="M10180 1860 c0 -133 -1 -140 -20 -140 -11 0 -20 -7 -20 -15 0 -16 27
-20 47 -7 17 11 23 302 6 302 -10 0 -13 -35 -13 -140z"/>
<path d="M10390 1980 c0 -18 -7 -20 -55 -20 -30 0 -55 -4 -55 -10 0 -5 25 -10
55 -10 l55 0 0 -45 0 -45 -65 0 c-37 0 -65 -4 -65 -10 0 -5 26 -10 58 -10 l57
-1 -40 -37 c-22 -21 -49 -43 -60 -50 -14 -7 -17 -14 -9 -21 7 -8 27 4 67 40
l57 51 0 -61 c0 -34 4 -61 10 -61 6 0 10 27 10 61 l0 61 39 -35 c50 -46 78
-60 99 -52 13 5 7 12 -28 30 -25 13 -56 35 -69 49 l-24 26 56 0 c31 0 57 5 57
10 0 6 -28 10 -65 10 l-65 0 0 45 0 45 60 0 c33 0 60 4 60 10 0 6 -27 10 -61
10 -56 0 -61 2 -56 20 3 13 0 20 -9 20 -8 0 -14 -9 -14 -20z"/>
<path d="M10980 1960 c0 -36 -2 -40 -25 -40 -32 0 -33 -18 0 -22 l25 -3 -25
-53 c-28 -61 -29 -62 -15 -62 5 0 16 12 24 28 15 26 15 24 16 -45 0 -42 4 -73
10 -73 6 0 10 32 10 76 0 67 2 75 15 64 25 -21 30 -2 7 23 -27 29 -28 47 -2
47 11 0 20 5 20 10 0 6 -9 10 -21 10 -19 0 -21 5 -17 40 2 28 0 40 -9 40 -8 0
-13 -14 -13 -40z"/>
<path d="M11106 1975 c-4 -14 -22 -43 -41 -64 -31 -34 -36 -51 -14 -51 4 0 22
20 39 44 l32 44 45 -46 c35 -37 46 -44 53 -32 6 10 1 19 -19 31 -30 18 -61 60
-61 84 0 25 -27 17 -34 -10z"/>
<path d="M11408 1978 c-3 -21 -8 -23 -66 -23 -35 0 -62 -4 -62 -10 0 -6 21 -9
50 -7 31 3 50 0 50 -7 0 -11 -46 -39 -94 -56 -23 -9 -26 -13 -14 -22 11 -10
27 -4 76 27 l62 39 0 -24 c0 -14 5 -25 10 -25 6 0 10 11 10 24 l0 25 51 -35
c51 -34 70 -40 82 -27 4 4 -16 18 -45 32 -70 35 -75 54 -14 50 25 -2 47 1 48
6 2 5 -25 8 -59 6 -62 -2 -63 -2 -63 23 0 32 -17 34 -22 4z"/>
<path d="M12140 1950 c0 -49 -1 -50 -30 -50 l-31 0 3 -72 c2 -40 7 -73 12 -73
5 0 9 28 7 63 l-2 62 50 0 51 0 0 -60 c0 -33 4 -60 10 -60 6 0 10 30 10 70 l0
70 -31 0 c-31 0 -31 0 -27 50 2 35 -1 50 -9 50 -9 0 -13 -17 -13 -50z"/>
<path d="M9600 1980 c0 -14 49 -44 58 -36 4 4 -4 16 -18 26 -28 22 -40 25 -40
10z"/>
<path d="M11650 1982 c0 -4 7 -18 16 -30 21 -30 38 -17 18 14 -16 23 -34 32
-34 16z"/>
<path d="M11990 1978 c0 -6 -11 -26 -26 -45 -19 -24 -21 -33 -10 -33 8 0 18 5
21 10 3 6 26 10 51 10 24 0 44 5 44 10 0 6 -16 10 -35 10 -34 0 -46 12 -25 25
15 9 12 25 -5 25 -8 0 -15 -5 -15 -12z"/>
<path d="M9677 1880 c-4 -78 -10 -108 -27 -137 -25 -42 -12 -68 14 -28 21 32
36 110 36 186 l0 59 36 0 c29 0 35 -3 30 -16 -3 -9 -6 -18 -6 -20 0 -2 -9 -4
-20 -4 -18 0 -20 -7 -20 -60 l0 -60 30 0 c28 0 30 -2 30 -40 0 -33 -4 -42 -22
-49 -20 -8 -21 -10 -5 -16 34 -14 47 2 47 55 0 49 1 50 30 50 l30 0 0 60 0 60
-35 0 c-19 0 -35 4 -35 8 0 18 26 32 57 32 18 0 33 5 33 10 0 6 -40 10 -99 10
l-98 0 -6 -100z m161 8 c-3 -7 -25 -14 -51 -16 -37 -2 -47 0 -47 12 0 12 12
16 51 16 36 0 49 -4 47 -12z m0 -50 c-3 -7 -25 -14 -51 -16 -37 -2 -47 0 -47
12 0 12 12 16 51 16 36 0 49 -4 47 -12z"/>
<path d="M10010 1880 c0 -60 4 -100 10 -100 6 0 10 37 10 90 l0 90 30 0 30 0
0 -85 c0 -50 4 -85 10 -85 6 0 10 38 10 95 l0 95 -50 0 -50 0 0 -100z"/>
<path d="M12070 1969 c0 -19 37 -55 47 -45 4 3 -5 19 -20 34 -20 19 -27 22
-27 11z"/>
<path d="M12198 1950 c-9 -16 -13 -32 -9 -34 10 -6 52 50 44 58 -11 11 -18 6
-35 -24z"/>
<path d="M11720 1960 c0 -6 30 -10 70 -10 l70 0 0 -120 c0 -100 -2 -120 -15
-120 -8 0 -15 -5 -15 -11 0 -6 10 -9 23 -7 21 3 22 6 25 141 l3 137 -81 0
c-47 0 -80 -4 -80 -10z"/>
<path d="M10140 1865 c0 -57 4 -95 10 -95 6 0 10 38 10 95 0 57 -4 95 -10 95
-6 0 -10 -38 -10 -95z"/>
<path d="M10050 1855 c0 -80 -16 -127 -46 -139 -13 -5 -14 -10 -6 -18 15 -15
35 2 56 46 18 38 22 171 6 181 -6 4 -10 -22 -10 -70z"/>
<path d="M10306 1922 c-3 -5 8 -21 23 -36 16 -15 31 -23 35 -18 3 5 -8 21 -23
36 -16 15 -31 23 -35 18z"/>
<path d="M10452 1901 c-12 -17 -18 -32 -13 -35 11 -7 63 48 54 57 -11 12 -19
8 -41 -22z"/>
<path d="M11620 1811 c0 -90 3 -121 13 -121 16 0 14 233 -2 238 -7 2 -11 -36
-11 -117z"/>
<path d="M11768 1905 c4 -24 2 -25 -47 -25 -28 0 -51 -4 -51 -10 0 -5 16 -10
35 -10 19 0 35 -4 35 -9 0 -12 -41 -63 -63 -80 -12 -9 -15 -17 -9 -23 14 -14
26 -4 63 52 18 28 34 50 36 50 2 0 3 -25 3 -55 0 -48 -2 -55 -20 -55 -11 0
-20 -4 -20 -9 0 -17 19 -22 40 -11 17 9 20 21 20 75 0 63 1 65 25 65 14 0 25
5 25 10 0 6 -11 10 -25 10 -20 0 -25 5 -25 25 0 14 -6 25 -14 25 -9 0 -12 -8
-8 -25z"/>
<path d="M9580 1898 c1 -15 49 -53 57 -44 7 7 -15 34 -39 47 -13 7 -18 6 -18
-3z"/>
<path d="M11965 1880 c-3 -5 3 -10 14 -10 16 0 21 -6 21 -25 0 -20 -5 -25 -25
-25 -14 0 -25 -4 -25 -10 0 -5 12 -10 26 -10 26 0 26 -2 22 -45 -3 -25 -1 -45
4 -45 18 0 58 33 58 48 0 13 -3 12 -20 -3 -20 -18 -20 -17 -20 13 0 27 4 32
25 32 14 0 25 5 25 10 0 6 -11 10 -25 10 -20 0 -25 5 -25 25 0 18 5 25 20 25
11 0 20 5 20 10 0 6 -20 10 -44 10 -25 0 -48 -4 -51 -10z"/>
<path d="M11070 1860 c0 -6 27 -10 60 -10 33 0 60 4 60 10 0 6 -27 10 -60 10
-33 0 -60 -4 -60 -10z"/>
<path d="M11320 1798 l0 -58 95 0 95 0 0 58 0 57 -95 0 -95 0 0 -57z m170 27
c0 -12 -15 -15 -75 -15 -69 0 -86 6 -68 23 3 4 37 7 75 7 54 0 68 -3 68 -15z
m0 -50 c0 -12 -15 -15 -75 -15 -60 0 -75 3 -75 15 0 12 15 15 75 15 60 0 75
-3 75 -15z"/>
<path d="M12130 1806 c0 -37 -5 -48 -31 -70 -17 -14 -36 -26 -42 -26 -8 0 -8
-3 0 -11 8 -8 19 -7 40 6 39 23 52 46 60 100 5 38 3 45 -11 45 -12 0 -16 -10
-16 -44z"/>
<path d="M11107 1833 c-7 -11 14 -73 25 -73 16 0 15 17 -1 49 -10 19 -21 29
-24 24z"/>
<path d="M9601 1768 c-25 -61 -25 -62 -13 -66 8 -2 52 89 52 109 0 25 -20 3
-39 -43z"/>
<path d="M11050 1815 c0 -14 32 -65 40 -65 13 0 13 6 -5 40 -13 26 -35 41 -35
25z"/>
<path d="M11173 1803 c-29 -84 -28 -83 -87 -83 -31 0 -56 -4 -56 -10 0 -6 40
-10 100 -10 60 0 100 4 100 10 0 6 -13 10 -30 10 -35 0 -37 7 -11 60 16 33 17
40 5 40 -8 0 -17 -8 -21 -17z"/>
<path d="M9712 1754 c-24 -37 -26 -44 -13 -44 5 0 20 15 35 34 18 24 22 35 13
39 -7 3 -23 -10 -35 -29z"/>
<path d="M9820 1773 c0 -17 47 -66 53 -56 4 6 -3 22 -14 37 -20 25 -39 34 -39
19z"/>
<path d="M10077 1773 c-6 -10 27 -53 42 -53 18 0 13 15 -13 39 -13 12 -26 19
-29 14z"/>
<path d="M12166 1752 c-2 -4 10 -20 29 -35 38 -30 57 -21 22 10 -31 28 -45 35
-51 25z"/>
<path d="M11270 1710 c0 -6 55 -10 145 -10 90 0 145 4 145 10 0 6 -55 10 -145
10 -90 0 -145 -4 -145 -10z"/>
<path d="M810 783 c-14 -18 -17 -29 -10 -31 6 -2 18 5 26 17 24 34 84 25 84
-13 0 -28 -18 -46 -47 -46 -13 0 -23 -4 -23 -10 0 -5 13 -10 28 -10 15 0 33
-5 40 -12 15 -15 15 -51 0 -66 -19 -19 -66 -14 -80 8 -15 23 -28 26 -28 7 0
-41 75 -61 118 -31 29 20 30 77 2 97 -18 12 -18 15 -5 20 23 9 20 74 -4 87
-36 19 -78 12 -101 -17z"/>
<path d="M2660 720 c0 -83 2 -93 25 -115 33 -34 87 -34 120 0 23 22 25 32 25
115 0 53 -4 90 -10 90 -6 0 -10 -34 -10 -83 0 -100 -14 -127 -65 -127 -51 0
-65 27 -65 127 0 49 -4 83 -10 83 -6 0 -10 -37 -10 -90z"/>
<path d="M2894 729 c-43 -47 -13 -149 43 -149 32 0 63 17 63 35 0 19 -16 19
-24 0 -7 -20 -50 -19 -67 1 -7 9 -13 31 -13 49 0 18 6 40 13 49 17 20 60 21
67 1 8 -19 24 -19 24 0 0 36 -76 47 -106 14z"/>
<path d="M4950 1232 c0 -4 5 -13 12 -20 9 -9 3 -12 -30 -12 -40 0 -42 -1 -42
-30 0 -16 5 -30 10 -30 6 0 10 9 10 20 0 18 7 20 65 20 58 0 65 -2 65 -20 0
-11 5 -20 10 -20 6 0 10 14 10 30 0 27 -3 30 -33 30 -21 0 -36 7 -45 20 -12
20 -32 27 -32 12z"/>
<path d="M5225 1204 c-21 -40 -58 -69 -98 -79 -22 -6 -25 -10 -16 -21 15 -18
51 1 103 55 l39 40 42 -38 c53 -49 82 -64 103 -56 13 5 8 11 -23 26 -45 22
-105 77 -105 96 0 25 -26 12 -45 -23z"/>
<path d="M4913 1114 c-17 -19 -27 -37 -22 -40 12 -7 25 2 49 36 30 41 10 45
-27 4z"/>
<path d="M4990 1132 c0 -14 49 -56 57 -49 3 4 -4 18 -17 32 -24 25 -40 32 -40
17z"/>
<path d="M5180 1110 c0 -6 33 -10 80 -10 47 0 80 4 80 10 0 6 -33 10 -80 10
-47 0 -80 -4 -80 -10z"/>
<path d="M4900 1050 c0 -5 14 -10 30 -10 28 0 30 -3 30 -35 0 -35 0 -35 -45
-35 -25 0 -45 -4 -45 -10 0 -6 40 -10 100 -10 60 0 100 4 100 10 0 6 -20 10
-45 10 -45 0 -45 0 -45 35 0 33 2 35 35 35 19 0 35 5 35 10 0 6 -32 10 -75 10
-43 0 -75 -4 -75 -10z"/>
<path d="M5170 995 c0 -37 4 -65 10 -65 6 0 10 5 10 10 0 6 30 10 70 10 40 0
70 -4 70 -10 0 -5 6 -10 13 -10 8 0 12 20 12 65 l0 65 -92 0 -93 0 0 -65z
m160 10 l0 -35 -70 0 -70 0 0 35 0 35 70 0 70 0 0 -35z"/>
<path d="M4341 819 c-46 -76 -46 -196 0 -260 30 -42 35 -29 8 23 -30 58 -30
145 -1 212 26 58 22 72 -7 25z"/>
<path d="M4900 800 l0 -50 -60 0 c-33 0 -60 -4 -60 -10 0 -5 25 -10 55 -10 43
0 55 -3 55 -15 0 -34 -30 -83 -74 -122 -30 -26 -43 -44 -35 -48 14 -9 104 78
120 117 l11 28 28 -43 c30 -47 84 -97 106 -97 25 0 15 15 -28 46 -25 18 -55
52 -71 82 l-28 52 65 0 c37 0 66 4 66 10 0 6 -28 10 -65 10 l-65 0 0 50 c0 28
-4 50 -10 50 -5 0 -10 -22 -10 -50z"/>
<path d="M5148 828 c-2 -15 -11 -24 -25 -26 -28 -4 -30 -22 -3 -22 20 0 20 -1
4 -37 -9 -21 -18 -44 -21 -50 -3 -9 5 -13 27 -13 28 0 31 -3 28 -27 -2 -22 -9
-29 -30 -31 -38 -4 -36 -22 2 -22 27 0 30 -3 30 -30 0 -16 5 -30 10 -30 6 0
10 15 10 34 0 21 6 36 15 40 8 3 15 10 15 17 0 6 -7 9 -15 5 -11 -4 -15 1 -15
19 0 16 6 25 15 25 8 0 15 5 15 10 0 6 -7 10 -15 10 -9 0 -15 9 -15 25 0 14
-4 25 -10 25 -5 0 -10 -11 -10 -25 0 -16 -6 -25 -15 -25 -18 0 -18 -1 0 44 13
30 20 36 45 36 17 0 30 5 30 10 0 6 -12 10 -26 10 -20 0 -25 4 -22 22 2 11 -2
23 -9 25 -6 2 -13 -6 -15 -19z"/>
<path d="M5260 815 c-12 -19 -33 -44 -47 -55 -28 -22 -23 -41 5 -23 10 6 41
10 70 9 64 -2 69 12 6 16 l-46 3 19 24 20 25 43 -37 c43 -36 70 -47 70 -27 0
6 -4 10 -10 10 -16 0 -90 71 -84 81 3 5 -1 9 -10 9 -8 0 -24 -16 -36 -35z"/>
<path d="M5578 788 l-3 -63 -39 -3 -38 -3 4 45 c2 30 -1 47 -9 51 -10 3 -13
-12 -13 -55 l0 -60 50 0 50 0 0 -55 0 -55 -45 0 -45 0 0 45 c0 25 -4 45 -10
45 -6 0 -10 -26 -10 -57 l0 -58 110 3 c73 2 110 0 110 -7 0 -6 4 -11 9 -11 5
0 11 29 13 65 2 47 0 65 -9 65 -9 0 -13 -16 -13 -45 l0 -45 -45 0 -45 0 0 55
0 55 44 0 44 0 4 60 c2 43 -1 60 -9 60 -9 0 -13 -17 -13 -50 l0 -50 -35 0 -35
0 0 65 c0 83 -18 85 -22 3z"/>
<path d="M6010 810 l0 -40 -50 0 c-27 0 -50 -4 -50 -10 0 -5 23 -10 50 -10
l50 0 0 -89 c0 -90 0 -90 -27 -93 -21 -2 -24 -5 -12 -14 9 -8 22 -9 37 -3 21
8 22 14 22 104 0 95 0 95 25 95 14 0 25 5 25 10 0 6 -12 10 -26 10 -24 0 -26
3 -22 40 2 28 0 40 -9 40 -8 0 -13 -14 -13 -40z"/>
<path d="M4480 795 l0 -45 100 0 100 0 0 45 0 45 -100 0 -100 0 0 -45z m143
18 c-24 -2 -62 -2 -85 0 -24 2 -5 4 42 4 47 0 66 -2 43 -4z m37 -33 c0 -6 -34
-10 -81 -10 -51 0 -78 4 -74 10 3 6 40 10 81 10 43 0 74 -4 74 -10z"/>
<path d="M5800 695 c0 -77 4 -125 10 -125 6 0 10 7 10 15 0 10 10 15 30 15 20
0 30 -5 30 -15 0 -8 5 -15 10 -15 6 0 10 48 10 125 l0 125 -50 0 -50 0 0 -125z
m80 65 c0 -38 -2 -40 -30 -40 -28 0 -30 2 -30 40 0 38 2 40 30 40 28 0 30 -2
30 -40z m0 -100 c0 -38 -2 -40 -30 -40 -28 0 -30 2 -30 40 0 38 2 40 30 40 28
0 30 -2 30 -40z"/>
<path d="M4430 728 c0 -5 9 -8 20 -8 18 0 20 -7 20 -59 0 -43 -4 -60 -15 -65
-8 -3 -15 -10 -15 -16 0 -11 15 -10 88 7 18 4 22 1 22 -21 0 -16 6 -26 15 -26
8 0 15 5 15 11 0 5 4 8 9 5 5 -3 20 3 33 13 24 19 25 19 53 1 27 -18 45 -18
45 -2 0 4 -14 13 -30 21 l-30 13 20 33 c31 50 27 55 -40 55 -47 0 -60 3 -60
15 0 12 15 15 75 15 41 0 75 3 75 8 0 4 -67 7 -150 7 -82 0 -150 -3 -150 -7z
m120 -23 c0 -10 -10 -15 -30 -15 -20 0 -30 5 -30 15 0 10 10 15 30 15 20 0 30
-5 30 -15z m0 -45 c0 -5 -13 -10 -30 -10 -16 0 -30 5 -30 10 0 6 14 10 30 10
17 0 30 -4 30 -10z m63 -22 c18 -32 18 -33 -4 -51 -26 -21 -40 -7 -19 18 9 11
9 15 1 15 -6 0 -11 11 -11 25 0 34 11 31 33 -7z m57 25 c0 -5 -4 -14 -9 -22
-8 -12 -12 -12 -25 -2 -23 19 -20 31 9 31 14 0 25 -3 25 -7z m-120 -43 c0 -5
-3 -10 -7 -10 -5 0 -18 -3 -30 -6 -17 -5 -23 -2 -23 10 0 11 9 16 30 16 17 0
30 -4 30 -10z"/>
<path d="M5360 645 c0 -69 -3 -85 -15 -85 -8 0 -15 -4 -15 -10 0 -11 11 -13
34 -4 13 5 16 23 16 95 0 53 -4 89 -10 89 -6 0 -10 -35 -10 -85z"/>
<path d="M5220 630 c0 -53 4 -90 10 -90 6 0 10 14 10 30 0 23 4 30 20 30 13 0
20 -7 20 -20 0 -11 -4 -20 -10 -20 -5 0 -10 -4 -10 -10 0 -16 27 -11 34 6 3 9
6 49 6 90 l0 74 -40 0 -40 0 0 -90z m60 55 c0 -8 -9 -15 -20 -15 -11 0 -20 7
-20 15 0 8 9 15 20 15 11 0 20 -7 20 -15z m0 -50 c0 -8 -9 -15 -20 -15 -11 0
-20 7 -20 15 0 8 9 15 20 15 11 0 20 -7 20 -15z"/>
<path d="M5930 710 c0 -21 24 -60 37 -60 8 0 13 3 11 8 -24 48 -32 62 -40 62
-4 0 -8 -4 -8 -10z"/>
<path d="M5320 650 c0 -33 4 -60 10 -60 6 0 10 27 10 60 0 33 -4 60 -10 60 -6
0 -10 -27 -10 -60z"/>
<path d="M5387 421 c18 -37 25 -66 25 -111 0 -45 -7 -74 -25 -111 -28 -58 -12
-61 20 -3 32 55 32 162 1 224 -13 24 -28 46 -34 47 -6 2 0 -19 13 -46z"/>
<path d="M4530 305 c0 -109 3 -145 13 -145 9 0 11 32 9 135 l-4 135 26 0 c30
0 32 -9 11 -51 -15 -27 -14 -31 5 -51 27 -29 27 -68 0 -68 -11 0 -20 -7 -20
-15 0 -18 14 -19 41 -5 26 14 26 71 -1 95 -19 17 -19 18 6 66 l24 49 -55 0
-55 0 0 -145z"/>
<path d="M4650 315 c0 -74 0 -138 -1 -142 -1 -16 17 -11 46 12 16 13 26 27 22
31 -4 4 -13 2 -19 -4 -22 -22 -28 -12 -28 43 0 72 19 73 54 2 31 -64 59 -92
82 -83 15 6 14 9 -7 23 -46 33 -50 46 -18 68 16 11 29 23 29 28 0 14 -27 7
-45 -13 -14 -16 -20 -17 -27 -8 -15 25 -8 38 22 38 l30 0 0 70 0 70 -70 0 -70
0 0 -135z m120 95 c0 -17 -7 -20 -50 -20 -43 0 -50 3 -50 20 0 17 7 20 50 20
43 0 50 -3 50 -20z m0 -60 c0 -17 -7 -20 -50 -20 -43 0 -50 3 -50 20 0 17 7
20 50 20 43 0 50 -3 50 -20z"/>
<path d="M4895 405 c-22 -18 -26 -24 -13 -25 9 0 20 5 23 10 17 27 25 2 25
-80 l0 -90 -30 0 c-16 0 -30 -4 -30 -10 0 -6 28 -10 65 -10 37 0 65 4 65 10 0
6 -11 10 -25 10 l-25 0 0 105 c0 116 -4 122 -55 80z"/>
<path d="M5065 416 c-16 -12 -20 -29 -23 -95 -4 -75 -2 -81 22 -105 32 -33 60
-33 91 -1 34 33 39 146 9 193 -17 26 -69 30 -99 8z m85 -25 c16 -30 12 -133
-6 -159 -36 -52 -84 -10 -84 75 0 76 13 103 49 103 20 0 34 -7 41 -19z"/>
<path d="M5226 354 c-33 -32 -18 -63 39 -81 22 -7 30 -16 30 -34 0 -30 -38
-38 -66 -13 -18 16 -19 16 -19 0 0 -42 93 -45 109 -3 12 30 -7 57 -49 71 -25
8 -35 17 -35 31 0 24 38 33 61 14 8 -6 18 -9 22 -5 10 11 -28 36 -54 36 -13 0
-30 -7 -38 -16z"/>
<path d="M7687 854 c-4 -4 5 -21 20 -38 l26 -31 -51 -3 c-29 -2 -52 -7 -52
-13 0 -12 197 -12 205 1 4 6 -13 10 -44 10 -37 0 -49 3 -45 13 5 15 -49 71
-59 61z"/>
<path d="M7370 837 c0 -19 52 -98 84 -126 18 -17 29 -22 37 -14 7 7 -1 18 -24
36 -18 14 -44 46 -58 71 -24 45 -39 58 -39 33z"/>
<path d="M7591 805 c-11 -25 -29 -59 -41 -74 -16 -24 -17 -30 -6 -34 8 -3 21
4 30 16 14 20 15 14 15 -81 1 -66 5 -101 11 -97 6 4 10 59 10 133 0 96 4 133
15 148 14 20 11 34 -6 34 -5 0 -17 -20 -28 -45z"/>
<path d="M7286 814 c-4 -14 -25 -45 -48 -70 -44 -48 -45 -73 -2 -33 27 25 84
107 84 121 0 20 -29 5 -34 -18z"/>
<path d="M7761 678 c-20 -96 -23 -100 -87 -96 -30 1 -54 0 -54 -4 0 -5 53 -7
118 -6 64 1 96 3 70 5 -27 2 -48 5 -48 6 0 1 9 34 20 72 24 83 24 85 7 85 -8
0 -18 -24 -26 -62z"/>
<path d="M7260 720 c0 -5 11 -10 25 -10 18 0 25 -5 25 -20 0 -38 -29 -90 -60
-108 -31 -18 -36 -27 -21 -36 14 -9 72 44 87 81 8 18 14 44 14 58 0 23 4 25
40 25 l40 0 0 -42 c0 -68 -9 -88 -37 -88 -15 0 -23 -5 -21 -12 7 -19 31 -21
53 -4 16 11 20 29 23 90 l4 76 -86 0 c-51 0 -86 -4 -86 -10z"/>
<path d="M7662 719 c2 -8 10 -35 17 -61 8 -29 19 -48 28 -48 15 0 14 4 -12 79
-11 33 -42 60 -33 30z"/>
<path d="M10880 830 c0 -29 -1 -30 -50 -30 l-50 0 0 -85 0 -85 49 0 50 0 3
-37 3 -38 70 -3 c62 -3 72 0 87 19 10 11 15 25 12 30 -9 15 -21 10 -27 -11 -4
-17 -14 -20 -66 -20 l-61 0 0 30 c0 30 1 30 55 30 l55 0 0 85 0 85 -56 0 c-54
0 -56 1 -52 24 3 15 0 27 -8 30 -10 4 -14 -3 -14 -24z m0 -75 c0 -22 -4 -25
-40 -25 -36 0 -40 3 -40 25 0 23 4 25 40 25 36 0 40 -2 40 -25z m110 0 c0 -23
-4 -25 -45 -25 -41 0 -45 2 -45 25 0 23 4 25 45 25 41 0 45 -2 45 -25z m-110
-75 c0 -28 -2 -30 -40 -30 -38 0 -40 2 -40 30 0 28 2 30 40 30 38 0 40 -2 40
-30z m110 0 c0 -29 -2 -30 -45 -30 -43 0 -45 1 -45 30 0 29 2 30 45 30 43 0
45 -1 45 -30z"/>
<path d="M9462 802 c-24 -25 -39 -49 -34 -54 4 -4 21 5 37 22 23 24 37 30 72
30 41 0 42 -1 31 -20 -10 -15 -24 -20 -60 -20 l-48 0 0 -81 c0 -57 3 -80 12
-77 7 3 11 27 9 71 l-2 67 80 0 81 0 0 -65 c0 -37 4 -65 10 -65 6 0 10 32 10
75 l0 75 -41 0 -40 0 21 28 22 27 -51 3 c-39 2 -49 6 -44 18 10 28 -22 11 -65
-34z"/>
<path d="M9840 830 c0 -17 -7 -20 -45 -20 -25 0 -45 -4 -45 -10 0 -5 20 -10
45 -10 33 0 45 -4 45 -15 0 -8 5 -15 10 -15 6 0 10 7 10 15 0 10 11 15 35 15
24 0 35 -5 35 -15 0 -8 7 -15 15 -15 8 0 15 7 15 15 0 11 12 15 45 15 25 0 45
5 45 10 0 6 -20 10 -45 10 -38 0 -45 3 -45 20 0 11 -7 20 -15 20 -8 0 -15 -9
-15 -20 0 -16 -7 -20 -36 -20 -31 0 -36 3 -31 20 3 13 0 20 -9 20 -8 0 -14 -9
-14 -20z"/>
<path d="M10118 780 c-33 -65 -33 -91 1 -57 10 10 12 -7 9 -86 -2 -69 0 -97 9
-97 8 0 13 41 15 138 2 75 7 145 12 155 5 9 4 17 -1 17 -5 0 -25 -31 -45 -70z"/>
<path d="M10350 710 c0 -133 -1 -140 -20 -140 -11 0 -20 -7 -20 -15 0 -16 27
-20 47 -7 17 11 23 302 6 302 -10 0 -13 -35 -13 -140z"/>
<path d="M10560 830 c0 -18 -7 -20 -60 -20 -33 0 -60 -4 -60 -10 0 -6 27 -10
60 -10 l60 0 0 -45 0 -45 -71 0 c-44 0 -68 -4 -64 -10 3 -5 32 -10 62 -10 l57
0 -28 -29 c-15 -16 -43 -37 -62 -47 -35 -19 -41 -28 -25 -38 9 -6 47 20 99 68
l32 30 0 -62 c0 -35 4 -62 10 -62 6 0 10 27 10 62 l0 62 38 -36 c48 -46 81
-63 94 -50 7 7 0 15 -23 25 -19 8 -47 29 -63 46 l-30 31 57 0 c31 0 57 5 57
10 0 6 -28 10 -65 10 l-65 0 0 45 0 45 55 0 c30 0 55 5 55 10 0 6 -25 10 -55
10 -48 0 -55 2 -55 20 0 11 -4 20 -10 20 -5 0 -10 -9 -10 -20z"/>
<path d="M11150 810 c0 -36 -2 -40 -25 -40 -32 0 -33 -18 0 -22 l25 -3 -25
-53 c-28 -61 -29 -62 -15 -62 5 0 16 12 24 28 15 26 15 24 16 -45 0 -42 4 -73
10 -73 6 0 10 32 10 76 0 67 2 75 15 64 25 -21 30 -2 7 23 -27 29 -28 47 -2
47 11 0 20 5 20 10 0 6 -9 10 -21 10 -19 0 -21 5 -17 40 2 28 0 40 -9 40 -8 0
-13 -14 -13 -40z"/>
<path d="M11276 825 c-4 -14 -22 -43 -41 -64 -31 -34 -36 -51 -14 -51 4 0 22
20 39 44 l32 44 45 -46 c35 -37 46 -44 53 -32 6 10 1 19 -19 31 -30 18 -61 60
-61 84 0 25 -27 17 -34 -10z"/>
<path d="M11578 828 c-3 -21 -8 -23 -66 -23 -35 0 -62 -4 -62 -10 0 -6 21 -9
50 -7 31 3 50 0 50 -7 0 -11 -46 -39 -94 -56 -23 -9 -26 -13 -14 -22 11 -10
27 -4 76 27 l62 39 0 -24 c0 -14 5 -25 10 -25 6 0 10 11 10 24 l0 25 51 -35
c51 -34 70 -40 82 -27 4 4 -16 18 -45 32 -70 35 -75 54 -14 50 25 -2 47 1 48
6 2 5 -25 8 -59 6 -62 -2 -63 -2 -63 23 0 32 -17 34 -22 4z"/>
<path d="M12310 800 c0 -49 -1 -50 -30 -50 l-31 0 3 -72 c2 -40 7 -73 12 -73
5 0 9 28 7 63 l-2 62 50 0 51 0 0 -60 c0 -33 4 -60 10 -60 6 0 10 30 10 70 l0
70 -31 0 c-31 0 -31 0 -27 50 2 35 -1 50 -9 50 -9 0 -13 -17 -13 -50z"/>
<path d="M11820 832 c0 -4 7 -18 16 -30 21 -30 38 -17 18 14 -16 23 -34 32
-34 16z"/>
<path d="M12160 828 c0 -6 -11 -26 -26 -45 -19 -24 -21 -33 -10 -33 8 0 18 5
21 10 3 6 26 10 51 10 24 0 44 5 44 10 0 6 -16 10 -35 10 -34 0 -46 12 -25 25
15 9 12 25 -5 25 -8 0 -15 -5 -15 -12z"/>
<path d="M10180 730 c0 -60 4 -100 10 -100 6 0 10 37 10 90 l0 90 30 0 30 0 0
-85 c0 -50 4 -85 10 -85 6 0 10 38 10 95 l0 95 -50 0 -50 0 0 -100z"/>
<path d="M12240 819 c0 -19 37 -55 47 -45 4 3 -5 19 -20 34 -20 19 -27 22 -27
11z"/>
<path d="M12368 800 c-9 -16 -13 -32 -9 -34 10 -6 52 50 44 58 -11 11 -18 6
-35 -24z"/>
<path d="M11890 810 c0 -6 30 -10 70 -10 l70 0 0 -120 c0 -100 -2 -120 -15
-120 -8 0 -15 -5 -15 -11 0 -6 10 -9 23 -7 21 3 22 6 25 141 l3 137 -81 0
c-47 0 -80 -4 -80 -10z"/>
<path d="M10310 715 c0 -57 4 -95 10 -95 6 0 10 38 10 95 0 57 -4 95 -10 95
-6 0 -10 -38 -10 -95z"/>
<path d="M10220 705 c0 -80 -16 -127 -46 -139 -13 -5 -14 -10 -6 -18 15 -15
35 2 56 46 18 38 22 171 6 181 -6 4 -10 -22 -10 -70z"/>
<path d="M10477 773 c-5 -8 36 -63 48 -63 3 0 5 6 5 13 0 17 -46 61 -53 50z"/>
<path d="M10621 751 c-12 -16 -17 -32 -12 -35 5 -4 19 7 30 23 12 16 17 32 12
35 -5 4 -19 -7 -30 -23z"/>
<path d="M11790 661 c0 -90 3 -121 13 -121 16 0 14 233 -2 238 -7 2 -11 -36
-11 -117z"/>
<path d="M11938 755 c4 -24 2 -25 -47 -25 -28 0 -51 -4 -51 -10 0 -5 16 -10
35 -10 19 0 35 -4 35 -9 0 -12 -41 -63 -63 -80 -12 -9 -15 -17 -9 -23 14 -14
26 -4 63 52 18 28 34 50 36 50 2 0 3 -25 3 -55 0 -48 -2 -55 -20 -55 -11 0
-20 -4 -20 -9 0 -17 19 -22 40 -11 17 9 20 21 20 75 0 63 1 65 25 65 14 0 25
5 25 10 0 6 -11 10 -25 10 -20 0 -25 5 -25 25 0 14 -6 25 -14 25 -9 0 -12 -8
-8 -25z"/>
<path d="M9796 746 c-3 -13 -17 -38 -31 -54 -17 -20 -22 -33 -15 -37 6 -4 18
1 25 11 13 17 14 11 15 -53 0 -108 18 -88 22 25 2 53 6 103 8 111 3 7 0 15 -6
18 -7 2 -14 -7 -18 -21z"/>
<path d="M9830 730 c0 -6 32 -10 75 -10 l76 0 -3 -77 c-3 -73 -4 -78 -28 -84
-21 -5 -22 -7 -8 -13 9 -4 26 -3 37 4 19 9 21 20 21 90 0 73 2 80 19 80 11 0
23 5 26 10 4 6 -33 10 -104 10 -67 0 -111 -4 -111 -10z"/>
<path d="M12135 730 c-3 -5 3 -10 14 -10 16 0 21 -6 21 -25 0 -20 -5 -25 -25
-25 -14 0 -25 -4 -25 -10 0 -5 12 -10 26 -10 26 0 26 -2 22 -45 -3 -25 -1 -45
4 -45 18 0 58 33 58 48 0 13 -3 12 -20 -3 -20 -18 -20 -17 -20 13 0 27 4 32
25 32 14 0 25 5 25 10 0 6 -11 10 -25 10 -20 0 -25 5 -25 25 0 18 5 25 20 25
11 0 20 5 20 10 0 6 -20 10 -44 10 -25 0 -48 -4 -51 -10z"/>
<path d="M9550 691 c0 -59 -19 -89 -73 -115 -40 -19 -48 -26 -35 -31 28 -11
104 39 117 76 14 40 14 99 1 99 -5 0 -10 -13 -10 -29z"/>
<path d="M11240 710 c0 -6 27 -10 60 -10 33 0 60 4 60 10 0 6 -27 10 -60 10
-33 0 -60 -4 -60 -10z"/>
<path d="M11490 648 l0 -58 95 0 95 0 0 58 0 57 -95 0 -95 0 0 -57z m170 27
c0 -12 -15 -15 -75 -15 -69 0 -86 6 -68 23 3 4 37 7 75 7 54 0 68 -3 68 -15z
m0 -50 c0 -12 -15 -15 -75 -15 -60 0 -75 3 -75 15 0 12 15 15 75 15 60 0 75
-3 75 -15z"/>
<path d="M12300 656 c0 -37 -5 -48 -31 -70 -17 -14 -36 -26 -42 -26 -8 0 -8
-3 0 -11 8 -8 19 -7 40 6 39 23 52 46 60 100 5 38 3 45 -11 45 -12 0 -16 -10
-16 -44z"/>
<path d="M9850 650 l0 -40 45 0 45 0 0 40 0 40 -45 0 -45 0 0 -40z m70 0 c0
-15 -7 -20 -25 -20 -18 0 -25 5 -25 20 0 15 7 20 25 20 18 0 25 -5 25 -20z"/>
<path d="M11277 683 c-7 -11 14 -73 25 -73 16 0 15 17 -1 49 -10 19 -21 29
-24 24z"/>
<path d="M11220 665 c0 -14 32 -65 40 -65 13 0 13 6 -5 40 -13 26 -35 41 -35
25z"/>
<path d="M11343 653 c-29 -84 -28 -83 -87 -83 -31 0 -56 -4 -56 -10 0 -6 40
-10 100 -10 60 0 100 4 100 10 0 6 -13 10 -30 10 -35 0 -37 7 -11 60 16 33 17
40 5 40 -8 0 -17 -8 -21 -17z"/>
<path d="M10247 623 c-6 -10 27 -53 42 -53 18 0 13 15 -13 39 -13 12 -26 19
-29 14z"/>
<path d="M9570 602 c0 -7 102 -62 115 -62 3 0 5 4 5 10 0 10 -91 60 -110 60
-5 0 -10 -4 -10 -8z"/>
<path d="M12336 602 c-2 -4 10 -20 29 -35 38 -30 57 -21 22 10 -31 28 -45 35
-51 25z"/>
<path d="M11440 560 c0 -6 55 -10 145 -10 90 0 145 4 145 10 0 6 -55 10 -145
10 -90 0 -145 -4 -145 -10z"/>
</g>
</svg>
