<?xml version="1.0" standalone="no"?>
<!DOCTYPE svg PUBLIC "-//W3C//DTD SVG 20010904//EN"
 "http://www.w3.org/TR/2001/REC-SVG-20010904/DTD/svg10.dtd">
<svg version="1.0" xmlns="http://www.w3.org/2000/svg"
 width="1300.000000pt" height="290.000000pt" viewBox="0 0 1300.000000 290.000000"
 preserveAspectRatio="xMidYMid meet">

<g transform="translate(0.000000,290.000000) scale(0.100000,-0.100000)"
fill="#000000" stroke="none">
<path d="M82 2803 l-22 -4 2 -1350 3 -1349 6433 0 6433 0 0 1352 0 1353 -6413
1 c-3527 1 -6423 -1 -6436 -3z m3878 -40 c0 -5 -9 -23 -20 -40 -15 -26 -17
-33 -5 -33 7 0 17 5 20 10 10 15 35 12 35 -5 0 -10 -10 -15 -34 -15 -19 0 -38
-4 -41 -10 -4 -6 8 -10 29 -10 46 0 46 -15 1 -41 -19 -12 -32 -25 -29 -30 9
-14 18 -11 53 22 l34 31 21 -21 20 -21 -37 0 -37 0 0 -75 c0 -43 4 -75 10 -75
6 0 10 7 10 15 0 12 14 15 70 15 40 0 70 -4 70 -10 0 -5 5 -10 10 -10 6 0 10
30 10 70 l0 70 -42 1 c-35 0 -47 5 -66 30 l-24 29 32 0 c18 0 29 4 25 10 -3 6
-20 10 -36 10 -38 0 -34 24 4 28 47 6 29 22 -24 22 -42 0 -49 2 -40 13 6 8 8
17 4 20 -3 4 69 7 161 7 131 0 166 -3 160 -12 -4 -7 -18 -27 -30 -45 -13 -17
-24 -36 -24 -41 0 -6 32 -9 75 -9 41 1 75 3 75 5 0 13 -54 71 -62 66 -5 -3 -2
-14 7 -24 15 -16 14 -18 -7 -24 -44 -11 -60 -8 -49 12 5 9 18 27 30 38 11 12
17 25 14 28 -4 3 12 6 35 6 l42 0 0 -64 c0 -60 2 -64 25 -70 14 -4 36 -4 50 0
26 6 49 36 38 48 -11 11 -23 7 -23 -8 0 -7 -9 -16 -21 -19 -59 -15 -69 36 -11
60 45 18 46 19 38 32 -4 6 -20 2 -41 -10 l-35 -21 0 26 0 26 103 0 c100 0 104
-1 117 -25 7 -14 17 -25 22 -25 12 0 10 24 -4 38 -9 9 1 12 45 12 l57 0 0 -50
c0 -43 -3 -50 -20 -50 -11 0 -20 -4 -20 -10 0 -5 9 -10 20 -10 16 0 20 -7 20
-32 0 -41 -32 -113 -55 -126 -10 -5 -15 -14 -10 -21 19 -33 84 76 85 142 l0
37 46 0 c27 0 43 4 39 10 -3 6 -24 10 -46 10 l-40 0 3 48 3 47 83 3 82 3 0
-46 c0 -38 -3 -45 -20 -45 -11 0 -20 -4 -20 -10 0 -5 9 -10 20 -10 18 0 20 -7
20 -55 0 -51 -2 -56 -27 -66 -17 -6 -23 -13 -17 -19 7 -7 29 -2 62 12 54 23
71 43 27 32 -24 -6 -25 -5 -25 45 0 44 3 51 20 51 11 0 20 5 20 10 0 6 -9 10
-20 10 -15 0 -20 7 -20 29 0 55 7 61 71 61 l59 0 0 -49 c0 -41 -3 -50 -21 -54
-19 -5 -21 -2 -17 39 2 29 -1 45 -9 49 -10 3 -13 -10 -13 -46 0 -42 -3 -52
-20 -56 -11 -3 -20 -10 -20 -15 0 -6 9 -8 20 -5 18 5 19 -1 22 -77 l3 -81 71
-3 c76 -3 103 11 89 45 -6 16 -8 15 -16 -5 -8 -21 -14 -23 -66 -20 l-58 3 0
75 c0 63 3 75 18 78 15 3 17 -5 17 -62 0 -37 4 -66 10 -66 6 0 10 30 10 70 0
63 2 70 20 70 17 0 20 -7 20 -44 0 -25 -5 -46 -12 -48 -6 -2 -9 -10 -7 -16 3
-10 8 -10 21 0 10 8 19 36 23 76 l7 63 -37 -7 -36 -6 3 43 3 44 563 3 562 2 0
-140 c0 -133 -1 -140 -20 -140 -11 0 -20 -7 -20 -15 0 -18 31 -20 48 -3 8 8
12 57 12 155 l0 143 145 0 145 0 0 -25 c0 -23 -3 -25 -47 -25 l-48 0 0 -85 0
-85 48 0 c45 0 47 -1 47 -28 0 -42 17 -52 92 -52 58 0 69 3 79 21 8 16 8 24 0
32 -9 9 -13 6 -17 -11 -6 -19 -13 -22 -63 -22 -32 0 -60 2 -63 5 -3 3 -3 17 0
30 4 23 9 25 53 25 l49 0 0 85 0 85 -50 0 c-47 0 -50 2 -50 25 l0 25 173 0
c171 -1 172 -1 190 -25 l18 -25 -46 0 c-25 0 -45 -4 -45 -10 0 -5 11 -10 25
-10 14 0 25 -4 25 -8 0 -5 -11 -19 -25 -32 -40 -37 -32 -43 49 -37 47 3 78 1
85 -6 6 -6 14 -7 18 -4 4 4 -7 22 -25 39 -31 31 -57 34 -32 3 11 -13 6 -15
-34 -15 l-47 0 21 30 c19 27 27 30 76 30 30 0 54 5 54 10 0 6 -17 10 -37 10
-29 1 -42 7 -56 25 l-18 25 131 0 c72 0 129 -4 126 -9 -5 -7 66 -41 87 -41 18
0 4 18 -25 33 -32 15 -28 16 125 16 86 1 157 -1 157 -3 0 -16 -28 -79 -51
-113 -18 -27 -24 -45 -17 -49 5 -4 13 -2 17 3 3 5 16 26 29 46 20 31 29 37 58
37 40 0 41 -6 10 -68 -26 -51 -72 -98 -124 -130 -27 -16 -30 -21 -16 -26 21
-8 58 15 111 71 l42 45 54 -58 c44 -47 56 -55 71 -47 16 9 14 12 -17 31 -20
11 -50 39 -66 62 -29 41 -30 43 -16 77 23 54 20 59 -30 55 -48 -4 -51 0 -35
42 10 26 10 26 135 26 l125 0 0 -35 c0 -28 -4 -35 -20 -35 -11 0 -20 -4 -20
-10 0 -5 9 -10 20 -10 17 0 20 -7 20 -44 0 -36 -4 -46 -20 -51 -26 -8 -26 -29
0 -22 18 5 20 0 20 -39 0 -32 -4 -44 -15 -44 -8 0 -15 -5 -15 -11 0 -6 10 -9
23 -7 19 3 23 10 27 62 3 35 10 61 18 64 6 2 12 -1 12 -7 0 -6 12 -11 26 -11
22 0 24 -2 14 -15 -13 -16 -6 -35 15 -35 33 0 22 -20 -16 -30 -31 -9 -39 -14
-30 -23 8 -8 24 -6 60 10 48 20 50 20 79 3 28 -17 42 -17 42 0 0 4 -14 13 -30
20 -17 7 -28 18 -25 24 3 6 8 19 11 29 4 11 17 17 35 17 16 0 29 5 29 10 0 6
-27 10 -61 10 -34 0 -58 4 -54 9 3 5 0 13 -6 17 -6 4 -16 -1 -21 -10 -12 -21
-68 -22 -68 -1 0 9 -6 12 -15 9 -11 -5 -15 2 -15 26 0 23 5 33 20 37 26 7 26
23 0 23 -20 0 -26 22 -14 54 9 24 86 21 109 -4 18 -20 17 -20 -23 -20 -23 0
-42 -4 -42 -10 0 -6 35 -10 85 -10 50 0 85 4 85 10 0 6 -16 10 -35 10 -24 0
-35 5 -35 14 0 8 -6 17 -12 19 -7 3 30 6 83 6 l95 1 3 -45 c2 -42 0 -45 -24
-45 -14 0 -25 -4 -25 -10 0 -5 11 -10 25 -10 24 0 25 -3 25 -55 0 -50 -2 -56
-25 -65 -14 -5 -25 -15 -25 -21 0 -7 7 -8 18 -4 9 4 36 14 60 22 45 16 59 39
17 29 -24 -6 -25 -5 -25 44 0 43 3 50 20 50 11 0 20 5 20 10 0 6 -9 10 -20 10
-17 0 -20 7 -20 45 l0 45 60 0 60 0 0 -50 c0 -27 -2 -50 -4 -50 -2 0 -12 -3
-21 -7 -15 -5 -17 0 -14 40 3 33 0 47 -8 47 -9 0 -13 -17 -13 -50 0 -43 -3
-50 -20 -50 -11 0 -20 -4 -20 -10 0 -5 9 -10 20 -10 18 0 20 -7 20 -68 0 -40
5 -73 12 -80 19 -19 128 -15 150 5 10 9 18 20 18 25 0 14 -28 9 -34 -8 -4 -12
-19 -14 -63 -12 l-58 3 -3 69 c-3 66 4 85 31 86 4 0 7 -27 7 -59 0 -33 5 -63
10 -66 6 -4 10 20 10 63 0 66 1 70 25 74 24 5 25 3 25 -38 0 -31 -5 -46 -17
-53 -13 -7 -15 -13 -7 -21 23 -23 44 17 44 81 l0 60 -36 -7 -35 -6 3 43 3 44
98 3 c53 1 97 0 97 -3 0 -17 -33 -81 -56 -108 -26 -31 -18 -51 11 -27 13 11
15 0 15 -79 0 -67 3 -91 13 -91 9 0 11 26 9 108 -4 95 -1 113 18 155 l22 47
144 0 144 0 0 -35 c0 -31 -3 -35 -25 -35 -14 0 -25 -4 -25 -10 0 -5 11 -10 25
-10 22 0 25 -4 25 -40 0 -34 -4 -41 -25 -46 -14 -3 -22 -11 -19 -16 4 -5 15
-8 25 -5 17 4 19 -1 19 -39 0 -33 -4 -44 -16 -44 -9 0 -14 -6 -11 -12 2 -7 12
-13 23 -13 16 0 19 9 22 62 2 50 7 65 22 73 27 14 26 33 -1 25 -18 -6 -20 -3
-17 22 2 20 9 29 26 31 26 4 20 22 -9 22 -20 0 -23 10 -13 48 5 19 13 22 51
22 36 0 48 -5 68 -27 13 -16 27 -25 31 -21 4 5 -1 17 -11 28 l-18 20 1941 0
1942 0 0 -175 0 -175 -6400 0 -6400 0 0 175 0 175 1930 0 c1062 0 1930 -3
1930 -7z m2610 -88 c0 -22 -4 -25 -35 -25 -31 0 -35 3 -35 25 0 22 4 25 35 25
31 0 35 -3 35 -25z m110 0 c0 -22 -4 -25 -40 -25 -36 0 -40 3 -40 25 0 23 4
25 40 25 36 0 40 -2 40 -25z m-110 -75 c0 -28 -3 -30 -35 -30 -32 0 -35 2 -35
30 0 28 3 30 35 30 32 0 35 -2 35 -30z m110 0 c0 -28 -2 -30 -40 -30 -38 0
-40 2 -40 30 0 28 2 30 40 30 38 0 40 -2 40 -30z m-2550 -40 c0 -18 -7 -20
-70 -20 -63 0 -70 2 -70 20 0 18 7 20 70 20 63 0 70 -2 70 -20z m3900 4 c0
-21 -22 -42 -40 -37 -44 12 -36 43 11 43 16 0 29 -3 29 -6z m-3900 -49 c0 -12
-14 -15 -70 -15 -56 0 -70 3 -70 15 0 12 14 15 70 15 56 0 70 -3 70 -15z
m-2550 -300 l0 -175 -740 0 -740 0 0 175 0 175 740 0 740 0 0 -175z m2380 0
l0 -175 -1175 0 -1175 0 0 175 0 175 1175 0 1175 0 0 -175z m2160 0 l0 -175
-1065 0 -1065 0 0 175 0 175 1065 0 1065 0 0 -175z m2690 0 l0 -175 -1325 0
-1325 0 0 175 0 175 1325 0 1325 0 0 -175z m4090 0 l0 -175 -2025 0 -2025 0 0
175 0 175 2025 0 2025 0 0 -175z m-11320 -380 l0 -175 -740 0 -740 0 0 175 0
175 740 0 740 0 0 -175z m2380 0 l0 -175 -1175 0 -1175 0 0 175 0 175 1175 0
1175 0 0 -175z m2160 0 l0 -175 -1065 0 -1065 0 0 175 0 175 1065 0 1065 0 0
-175z m2690 0 l0 -175 -1325 0 -1325 0 0 175 0 175 1325 0 1325 0 0 -175z
m4090 0 l0 -175 -2025 0 -2025 0 0 175 0 175 2025 0 2025 0 0 -175z m-11320
-380 l0 -175 -740 0 -740 0 0 175 0 175 740 0 740 0 0 -175z m2380 0 l0 -175
-1175 0 -1175 0 0 175 0 175 1175 0 1175 0 0 -175z m2160 0 l0 -175 -1065 0
-1065 0 0 175 0 175 1065 0 1065 0 0 -175z m2690 0 l0 -175 -1325 0 -1325 0 0
175 0 175 1325 0 1325 0 0 -175z m4090 0 l0 -175 -2025 0 -2025 0 0 175 0 175
2025 0 2025 0 0 -175z m-11320 -390 l0 -175 -740 0 -740 0 0 175 0 175 740 0
740 0 0 -175z m2380 0 l0 -175 -1175 0 -1175 0 0 175 0 175 1175 0 1175 0 0
-175z m2160 0 l0 -175 -1065 0 -1065 0 0 175 0 175 1065 0 1065 0 0 -175z
m1547 169 c-4 -4 5 -21 20 -38 l26 -31 -51 -3 c-29 -2 -52 -7 -52 -13 0 -12
197 -12 205 1 4 6 -13 10 -45 10 -34 0 -49 4 -44 11 3 6 -6 24 -22 40 l-28 29
567 0 567 0 0 -175 0 -175 -1325 0 -1325 0 0 175 0 175 757 0 c416 0 753 -3
750 -6z m3041 -26 c-2 -22 -9 -34 -20 -36 -12 -2 -16 1 -13 10 5 14 -33 44
-43 34 -3 -3 3 -15 14 -27 l19 -21 -40 4 c-37 3 -40 1 -43 -24 -4 -32 13 -38
21 -8 5 18 14 20 116 20 104 0 111 -1 111 -20 0 -11 6 -20 13 -20 9 0 12 9 9
28 -3 25 -7 27 -38 24 -37 -5 -42 3 -18 29 9 10 11 19 5 23 -5 3 -19 -7 -31
-24 -27 -38 -44 -39 -38 0 2 16 0 32 -6 34 -6 2 481 5 1082 5 l1092 1 0 -175
0 -175 -2025 0 -2025 0 0 175 0 175 931 0 930 0 -3 -32z m-9128 -523 l0 -175
-740 0 -740 0 0 175 0 175 740 0 740 0 0 -175z m2380 0 l0 -175 -1175 0 -1175
0 0 175 0 175 1175 0 1175 0 0 -175z m2160 0 l0 -175 -1065 0 -1065 0 0 175 0
175 1065 0 1065 0 0 -175z m2690 0 l0 -175 -1325 0 -1325 0 0 175 0 175 1325
0 1325 0 0 -175z m4090 0 l0 -175 -2025 0 -2025 0 0 175 0 175 2025 0 2025 0
0 -175z m-11320 -380 l0 -175 -740 0 -740 0 0 175 0 175 740 0 740 0 0 -175z
m2380 0 l0 -175 -1175 0 -1175 0 0 175 0 175 1175 0 1175 0 0 -175z m2160 0
l0 -175 -1065 0 -1065 0 0 175 0 175 1065 0 1065 0 0 -175z m2690 0 l0 -175
-1325 0 -1325 0 0 175 0 175 1325 0 1325 0 0 -175z m4090 0 l0 -175 -2025 0
-2025 0 0 175 0 175 2025 0 2025 0 0 -175z"/>
<path d="M5520 2685 c0 -58 -4 -77 -15 -81 -23 -9 -18 -26 8 -22 20 3 22 9 27
91 4 66 2 87 -7 87 -9 0 -13 -22 -13 -75z"/>
<path d="M5280 2740 c0 -5 7 -10 15 -10 9 0 15 -9 15 -25 0 -20 -5 -25 -25
-25 -14 0 -25 -4 -25 -10 0 -5 11 -10 25 -10 31 0 33 -22 5 -50 -24 -24 -25
-30 -4 -30 9 0 23 17 32 40 22 52 52 55 52 5 0 -19 5 -35 10 -35 6 0 10 16 10
35 0 31 3 35 25 35 14 0 25 5 25 10 0 6 -11 10 -25 10 -20 0 -25 5 -25 25 0
18 5 25 20 25 11 0 20 5 20 10 0 6 -32 10 -75 10 -43 0 -75 -4 -75 -10z m90
-35 c0 -18 -5 -25 -20 -25 -20 0 -28 28 -13 43 15 16 33 6 33 -18z"/>
<path d="M6820 2742 c0 -14 39 -46 47 -39 3 4 -2 16 -12 27 -19 21 -35 26 -35
12z"/>
<path d="M8600 2700 c0 -49 1 -50 30 -50 20 0 30 -5 30 -15 0 -11 -12 -15 -45
-15 -25 0 -45 -4 -45 -10 0 -5 16 -10 35 -10 45 0 44 -14 -5 -61 -26 -25 -36
-40 -28 -45 6 -4 27 10 50 34 l38 41 0 -54 c0 -30 5 -55 10 -55 6 0 10 25 10
56 l0 57 38 -43 c29 -33 43 -42 57 -36 17 6 16 9 -10 26 -29 19 -64 58 -65 73
0 4 18 7 41 7 24 0 38 4 34 10 -3 6 -26 10 -51 10 -32 0 -44 4 -44 15 0 10 11
15 35 15 l35 0 0 50 0 50 -75 0 -75 0 0 -50z m130 0 c0 -30 -1 -30 -55 -30
-54 0 -55 0 -55 30 0 30 1 30 55 30 54 0 55 0 55 -30z"/>
<path d="M4820 2721 c11 -22 29 -35 36 -28 9 8 -20 47 -34 47 -9 0 -10 -5 -2
-19z"/>
<path d="M5460 2680 c0 -33 4 -60 10 -60 6 0 10 27 10 60 0 33 -4 60 -10 60
-6 0 -10 -27 -10 -60z"/>
<path d="M4090 2675 l0 -55 50 0 50 0 0 55 0 55 -50 0 -50 0 0 -55z m78 3 c3
-36 2 -38 -27 -38 -30 0 -31 2 -31 41 0 38 1 40 28 37 23 -3 27 -8 30 -40z"/>
<path d="M5610 2615 c0 -70 4 -115 10 -115 6 0 10 25 10 55 l0 55 45 0 c25 0
45 5 45 10 0 6 -20 10 -45 10 l-45 0 0 40 0 40 50 0 c28 0 50 5 50 10 0 6 -27
10 -60 10 l-60 0 0 -115z"/>
<path d="M5790 2623 c-23 -60 -44 -111 -47 -115 -2 -5 2 -8 11 -8 8 0 20 16
26 35 11 34 13 35 65 35 52 0 54 -1 65 -35 6 -19 18 -35 26 -35 9 0 13 3 11 8
-3 4 -24 55 -47 115 -24 62 -47 107 -55 107 -8 0 -31 -45 -55 -107z m79 20
l21 -53 -45 0 -45 0 20 50 c11 28 20 54 20 57 0 13 9 -4 29 -54z"/>
<path d="M4575 2700 c3 -5 40 -10 81 -10 43 0 74 4 74 10 0 6 -34 10 -81 10
-51 0 -78 -4 -74 -10z"/>
<path d="M8960 2626 c0 -73 -3 -88 -25 -121 -28 -40 -27 -57 1 -34 22 18 44
71 44 104 0 23 3 25 50 25 28 0 50 -4 50 -10 0 -5 6 -10 13 -10 8 0 12 20 12
65 l0 65 -72 0 -73 0 0 -84z m120 23 l0 -40 -47 3 c-48 3 -48 3 -51 41 l-3 37
50 0 51 0 0 -41z"/>
<path d="M7940 2692 c0 -14 36 -43 43 -35 4 3 0 15 -10 25 -17 19 -33 24 -33
10z"/>
<path d="M8020 2671 c-10 -26 -18 -30 -59 -34 -28 -2 -15 -4 37 -5 45 -1 82 2
82 7 0 4 -12 6 -27 3 l-27 -5 17 26 c21 32 21 37 3 37 -7 0 -19 -13 -26 -29z"/>
<path d="M7175 2680 c3 -5 26 -10 51 -10 l44 0 0 -95 c0 -88 -1 -95 -20 -95
-12 0 -17 -5 -14 -14 3 -8 15 -11 30 -8 23 4 24 8 24 73 0 38 2 69 3 69 2 0
29 -26 61 -57 46 -46 59 -54 69 -44 9 11 9 15 -2 19 -19 6 -91 72 -91 83 0 5
18 19 40 31 42 24 47 32 29 44 -6 3 -26 -9 -45 -27 -29 -28 -36 -31 -44 -19
-5 8 -10 25 -10 38 0 21 -4 22 -66 22 -41 0 -63 -4 -59 -10z"/>
<path d="M6167 2673 c-4 -3 -7 -16 -7 -28 0 -12 -11 -43 -24 -68 -21 -43 -23
-57 -6 -57 8 0 33 55 54 118 10 32 11 42 1 42 -6 0 -15 -3 -18 -7z"/>
<path d="M6338 2674 c-4 -3 4 -29 17 -57 12 -29 25 -60 28 -69 7 -19 27 -25
27 -8 0 13 -57 140 -63 140 -2 0 -6 -3 -9 -6z"/>
<path d="M4600 2630 c0 -36 3 -40 25 -40 23 0 25 -3 25 -50 0 -38 -4 -50 -15
-50 -8 0 -15 -4 -15 -8 0 -17 13 -21 31 -11 15 8 19 21 19 64 0 52 1 55 25 55
23 0 25 4 25 40 l0 40 -60 0 -60 0 0 -40z m100 0 c0 -17 -7 -20 -40 -20 -33 0
-40 3 -40 20 0 17 7 20 40 20 33 0 40 -3 40 -20z"/>
<path d="M6790 2661 c0 -13 50 -44 58 -36 4 4 -4 15 -17 26 -25 20 -41 24 -41
10z"/>
<path d="M4270 2552 c0 -60 4 -91 10 -87 6 3 10 22 10 41 0 32 2 34 35 34 29
0 35 -4 35 -20 0 -11 -7 -23 -15 -26 -23 -9 -18 -26 8 -22 21 3 22 8 22 87 l0
83 -53 2 -52 1 0 -93z m88 61 c2 -9 -8 -13 -32 -13 -26 0 -36 4 -36 16 0 19
61 16 68 -3z m2 -43 c0 -5 -16 -10 -35 -10 -19 0 -35 5 -35 10 0 6 16 10 35
10 19 0 35 -4 35 -10z"/>
<path d="M4410 2557 c0 -82 4 -87 64 -87 36 0 73 31 61 50 -5 8 -12 5 -22 -9
-24 -35 -83 -25 -83 14 0 17 11 27 48 43 36 16 43 22 29 27 -9 4 -23 3 -30 -2
-6 -6 -20 -13 -30 -16 -15 -6 -18 -2 -15 20 2 15 -2 28 -9 30 -10 4 -13 -15
-13 -70z"/>
<path d="M4800 2550 l0 -80 35 0 c33 0 64 28 48 44 -11 11 -23 6 -23 -9 0 -8
-9 -15 -20 -15 -18 0 -20 7 -20 70 0 40 -4 70 -10 70 -6 0 -10 -33 -10 -80z"/>
<path d="M7135 2620 c3 -5 22 -10 41 -10 19 0 34 -5 34 -11 0 -20 -33 -67 -57
-80 -24 -13 -29 -24 -15 -33 20 -12 102 96 102 135 0 5 -25 9 -56 9 -34 0 -53
-4 -49 -10z"/>
<path d="M6907 2559 c-3 -23 -15 -51 -27 -64 -21 -23 -13 -44 11 -29 17 10 39
69 39 104 0 44 -16 37 -23 -11z"/>
<path d="M6960 2535 c0 -84 17 -84 22 0 2 47 0 65 -9 65 -9 0 -13 -20 -13 -65z"/>
<path d="M7012 2538 l3 -63 33 -3 c32 -3 55 19 37 36 -4 4 -10 1 -12 -5 -3 -7
-14 -13 -25 -13 -19 0 -20 5 -16 55 4 42 1 55 -9 55 -11 0 -13 -15 -11 -62z"/>
<path d="M5400 2570 c0 -17 -7 -20 -50 -20 -27 0 -50 -4 -50 -10 0 -5 23 -10
50 -10 43 0 50 -3 50 -20 0 -18 -7 -20 -70 -20 -40 0 -70 -4 -70 -10 0 -6 55
-10 145 -10 90 0 145 4 145 10 0 6 -28 10 -65 10 -58 0 -65 2 -65 20 0 17 7
20 50 20 28 0 50 5 50 10 0 6 -23 10 -51 10 -46 0 -51 2 -46 20 3 13 0 20 -9
20 -8 0 -14 -9 -14 -20z"/>
<path d="M6827 2537 c-29 -57 -32 -67 -17 -67 14 0 63 101 53 111 -4 4 -21
-15 -36 -44z"/>
<path d="M4599 2543 c-7 -16 -15 -31 -17 -35 -2 -5 1 -8 7 -8 9 0 41 50 41 65
0 15 -18 2 -31 -22z"/>
<path d="M4698 2564 c-9 -8 9 -44 22 -44 14 0 12 13 -3 34 -7 9 -16 14 -19 10z"/>
<path d="M5950 2460 c0 -6 32 -10 75 -10 43 0 75 4 75 10 0 6 -32 10 -75 10
-43 0 -75 -4 -75 -10z"/>
<path d="M670 2374 c0 -4 8 -13 18 -20 15 -12 8 -13 -49 -14 l-66 0 -5 -97
c-3 -64 -11 -109 -22 -130 -13 -26 -14 -33 -3 -33 24 0 40 52 45 148 l4 92
124 0 c76 0 124 4 124 10 0 6 -26 10 -58 10 -46 0 -60 4 -70 20 -11 18 -42 28
-42 14z"/>
<path d="M939 2368 c0 -2 -1 -24 -2 -50 l-3 -48 93 0 93 0 0 50 0 50 -90 0
c-49 0 -90 -1 -91 -2z m161 -48 l0 -30 -70 0 -70 0 0 30 0 30 70 0 70 0 0 -30z"/>
<path d="M620 2290 c0 -6 31 -10 72 -10 71 0 71 0 53 -20 -10 -12 -25 -18 -32
-15 -7 3 -20 8 -28 11 -24 10 -17 -12 8 -24 19 -9 13 -11 -35 -11 -32 -1 -58
-5 -58 -11 0 -5 25 -10 55 -10 l55 0 0 -55 c0 -42 -3 -55 -15 -55 -8 0 -15 -5
-15 -11 0 -6 10 -9 23 -7 20 3 22 9 25 66 l3 62 40 0 c36 0 39 -2 29 -19 -13
-24 -13 -31 0 -31 8 0 40 51 40 65 0 3 -20 5 -45 5 -25 0 -45 3 -45 7 0 4 14
22 32 40 l32 33 -97 0 c-58 0 -97 -4 -97 -10z"/>
<path d="M875 2240 c-4 -6 12 -10 41 -10 46 0 46 0 41 -30 l-6 -30 79 0 c86 0
94 -6 64 -48 -11 -16 -25 -22 -55 -22 -21 0 -39 -4 -39 -10 0 -11 52 -13 87
-4 21 6 43 48 43 85 0 17 -9 19 -76 19 -65 0 -75 2 -70 16 3 9 6 18 6 20 0 2
41 4 90 4 53 0 90 4 90 10 0 6 -55 10 -144 10 -86 0 -147 -4 -151 -10z"/>
<path d="M2027 2374 c-3 -5 3 -20 12 -33 11 -14 21 -19 25 -13 3 5 -2 20 -12
33 -11 12 -21 18 -25 13z"/>
<path d="M2141 2350 c-6 -17 -20 -43 -31 -58 l-21 -26 20 -8 c25 -9 27 -26 6
-34 -19 -8 -20 -24 0 -24 10 0 15 -15 17 -57 l3 -58 64 0 c49 0 66 4 75 17 5
9 7 21 2 25 -4 4 -12 0 -17 -10 -7 -12 -23 -17 -59 -17 l-50 0 0 54 c0 39 4
55 15 60 12 4 15 -4 15 -44 0 -66 18 -64 22 2 2 41 7 54 21 56 23 5 24 -53 1
-66 -13 -7 -14 -11 -4 -17 20 -12 40 23 40 68 0 39 -1 39 -30 34 -27 -6 -30
-4 -30 18 0 34 -18 32 -22 -2 -4 -33 -24 -41 -31 -12 -3 11 -10 18 -16 14 -15
-9 -13 6 3 28 10 13 28 17 80 17 37 0 66 4 66 10 0 6 -27 10 -60 10 -64 0 -66
1 -50 31 8 15 7 19 -4 19 -8 0 -19 -14 -25 -30z"/>
<path d="M2380 2345 c0 -32 -2 -35 -30 -35 -16 0 -30 -4 -30 -10 0 -5 14 -10
30 -10 l31 0 -7 -52 c-7 -59 -27 -114 -50 -139 -13 -14 -13 -17 0 -22 27 -11
59 62 72 161 5 42 10 52 25 52 17 0 19 -9 19 -81 0 -72 -2 -81 -20 -86 -23 -6
-27 -33 -6 -33 35 0 46 29 46 126 l0 94 -31 0 c-30 0 -31 2 -27 35 3 24 0 35
-9 35 -8 0 -13 -13 -13 -35z"/>
<path d="M2700 2340 c0 -33 -3 -40 -20 -40 -26 0 -26 -18 0 -22 21 -3 21 -4
-4 -53 -27 -53 -20 -89 8 -39 15 28 15 28 16 -43 0 -52 4 -73 13 -73 9 0 11
20 9 80 -3 51 0 80 6 80 6 0 14 -5 17 -10 4 -6 11 -8 17 -4 5 4 -2 18 -18 35
-27 28 -27 29 -6 29 28 0 29 16 1 23 -19 5 -21 11 -16 41 4 27 2 36 -9 36 -10
0 -14 -12 -14 -40z"/>
<path d="M2875 2360 c5 -17 2 -20 -20 -20 -20 0 -26 4 -21 15 3 9 0 15 -9 15
-8 0 -15 -7 -15 -15 0 -9 -10 -15 -26 -15 -14 0 -23 -4 -19 -10 3 -5 15 -10
26 -10 10 0 19 -4 19 -10 0 -5 7 -10 16 -10 8 0 12 5 9 10 -9 14 29 12 44 -2
11 -10 14 -10 18 0 3 6 15 12 28 12 13 0 27 5 30 10 4 6 -7 10 -24 10 -24 0
-31 4 -31 20 0 11 -7 20 -16 20 -11 0 -14 -6 -9 -20z"/>
<path d="M3030 2345 c0 -28 -4 -35 -20 -35 -11 0 -20 -4 -20 -10 0 -5 9 -10
20 -10 16 0 20 -7 20 -36 0 -27 -5 -37 -20 -41 -11 -3 -20 -12 -20 -20 0 -10
6 -12 20 -8 18 6 20 2 20 -39 0 -35 -4 -46 -16 -46 -9 0 -14 -5 -12 -11 2 -6
7 -10 11 -10 4 1 14 1 22 1 12 0 15 14 15 65 0 54 3 66 20 75 11 6 20 15 20
19 0 5 -9 7 -20 4 -16 -4 -20 0 -20 17 0 13 8 24 20 27 26 7 26 23 -1 23 -19
0 -20 4 -15 35 6 28 4 35 -9 35 -11 0 -15 -10 -15 -35z"/>
<path d="M3140 2375 c0 -18 42 -85 50 -80 12 7 -26 85 -40 85 -6 0 -10 -2 -10
-5z"/>
<path d="M3230 2288 c0 -99 -14 -141 -56 -176 -24 -20 -32 -32 -24 -37 7 -4
27 8 49 29 l38 37 17 -26 c9 -14 21 -23 27 -19 6 3 0 19 -14 38 -26 33 -25 33
-13 184 3 31 0 42 -10 42 -11 0 -14 -18 -14 -72z"/>
<path d="M3370 2320 l0 -40 105 0 105 0 0 40 0 40 -105 0 -105 0 0 -40z m190
20 c0 -6 -35 -10 -86 -10 -54 0 -83 4 -79 10 3 6 42 10 86 10 46 0 79 -4 79
-10z m-37 -37 c-23 -2 -64 -2 -90 0 -26 2 -7 3 42 3 50 0 71 -1 48 -3z"/>
<path d="M2500 2210 c0 -73 4 -120 10 -120 6 0 10 9 10 20 0 16 7 20 30 20 23
0 30 -4 30 -20 0 -11 5 -20 10 -20 6 0 10 47 10 120 l0 120 -50 0 -50 0 0
-120z m80 20 l0 -80 -30 0 -30 0 0 80 0 80 30 0 30 0 0 -80z"/>
<path d="M3110 2227 c0 -57 3 -106 6 -110 8 -7 64 57 64 74 0 7 -11 3 -26 -12
l-26 -24 4 88 c2 65 0 87 -9 87 -10 0 -13 -27 -13 -103z"/>
<path d="M1980 2302 c0 -7 8 -12 18 -10 15 3 17 -5 14 -62 -3 -54 -14 -92 -40
-142 -2 -5 3 -8 11 -8 18 0 37 43 44 102 5 38 10 48 24 48 17 0 19 -8 19 -61
0 -53 -3 -62 -20 -66 -12 -3 -19 -10 -17 -16 6 -18 24 -19 41 -2 12 12 16 36
16 91 l0 74 -29 0 c-25 0 -28 3 -23 25 4 21 9 25 31 23 14 -2 27 1 29 6 1 4
-25 9 -58 10 -43 1 -60 -3 -60 -12z"/>
<path d="M2784 2291 c-2 -2 -4 -26 -4 -53 0 -47 1 -48 30 -48 17 0 30 -4 30
-10 0 -5 -20 -10 -45 -10 -25 0 -45 -4 -45 -10 0 -5 18 -10 41 -10 50 0 49
-17 -5 -44 -26 -13 -34 -22 -27 -29 12 -12 56 13 83 47 15 19 17 19 23 4 9
-23 72 -61 86 -52 7 4 -4 15 -27 28 -53 30 -55 46 -5 46 23 0 41 5 41 10 0 6
-23 10 -51 10 -31 0 -48 4 -44 10 3 6 19 10 36 10 28 0 29 1 29 53 l0 52 -71
0 c-39 0 -72 -2 -75 -4z m126 -26 c0 -11 -12 -15 -49 -15 -47 0 -68 9 -54 24
3 3 28 6 55 6 36 0 48 -4 48 -15z m0 -40 c0 -12 -13 -15 -55 -15 -51 0 -65 7
-48 23 3 4 28 7 55 7 36 0 48 -4 48 -15z"/>
<path d="M3325 2260 c-4 -7 48 -10 149 -10 97 0 156 4 156 10 0 6 -56 10 -149
10 -89 0 -152 -4 -156 -10z"/>
<path d="M3370 2195 l0 -45 50 0 c28 0 50 -4 50 -10 0 -5 -25 -10 -55 -10 -30
0 -55 -4 -55 -9 0 -4 22 -6 49 -3 30 2 51 0 55 -7 5 -8 -14 -11 -63 -11 -41 0
-71 -4 -71 -10 0 -6 55 -10 145 -10 90 0 145 4 145 10 0 6 -29 10 -66 10 -46
0 -63 3 -58 11 4 7 24 9 55 6 29 -4 49 -2 49 3 0 6 -25 10 -55 10 -30 0 -55 5
-55 10 0 6 23 10 50 10 l50 0 0 45 0 45 -110 0 -110 0 0 -45z m100 15 c0 -5
-18 -10 -40 -10 -22 0 -40 5 -40 10 0 6 18 10 40 10 22 0 40 -4 40 -10z m100
0 c0 -5 -18 -10 -40 -10 -22 0 -40 5 -40 10 0 6 18 10 40 10 22 0 40 -4 40
-10z m-100 -30 c0 -5 -18 -10 -41 -10 -24 0 -38 4 -34 10 3 6 22 10 41 10 19
0 34 -4 34 -10z m95 0 c4 -6 -10 -10 -35 -10 -25 0 -39 4 -35 10 3 6 19 10 35
10 16 0 32 -4 35 -10z"/>
<path d="M4445 2326 c-14 -29 -25 -56 -25 -59 0 -4 14 -7 31 -7 l31 0 -26 -34
c-36 -48 -34 -58 12 -51 51 9 62 13 62 23 0 5 -13 7 -30 4 -16 -2 -30 -2 -30
2 0 3 14 29 31 57 23 36 29 53 21 61 -8 8 -14 4 -23 -15 -7 -15 -20 -27 -31
-27 -24 0 -23 10 6 53 19 28 21 37 10 41 -9 4 -22 -12 -39 -48z"/>
<path d="M4610 2350 c0 -28 -3 -30 -35 -30 -19 0 -35 -4 -35 -10 0 -5 16 -10
35 -10 31 0 35 -3 35 -25 0 -21 -5 -25 -30 -25 -16 0 -30 -4 -30 -10 0 -6 32
-10 75 -10 43 0 75 4 75 10 0 6 -16 10 -35 10 -31 0 -35 3 -35 25 0 23 4 25
45 25 25 0 45 5 45 10 0 6 -20 10 -45 10 -46 0 -53 7 -35 41 9 16 7 19 -10 19
-16 0 -20 -6 -20 -30z"/>
<path d="M4893 2360 c5 -19 0 -20 -64 -20 -88 0 -90 -18 -2 -22 42 -2 68 -8
71 -15 2 -9 -11 -13 -47 -13 l-51 0 0 -45 0 -45 37 0 37 0 -30 -31 c-16 -17
-42 -37 -57 -45 -15 -8 -25 -19 -22 -24 10 -17 21 -11 73 35 27 25 53 45 57
45 4 0 5 -25 2 -55 -4 -44 -3 -55 9 -55 11 0 14 15 14 61 l0 62 20 -26 c26
-33 87 -70 100 -62 6 4 -8 19 -32 34 -24 15 -49 35 -57 44 -12 15 -10 17 23
17 l36 0 0 45 0 45 -45 0 c-33 0 -45 4 -45 15 0 12 14 15 65 15 37 0 65 4 65
10 0 6 -28 10 -65 10 -58 0 -65 2 -65 20 0 12 -7 20 -16 20 -11 0 -15 -6 -11
-20z m5 -117 c3 -21 -1 -23 -37 -23 -37 0 -41 2 -41 26 0 23 3 25 38 22 30 -2
38 -7 40 -25z m92 2 c0 -22 -4 -25 -35 -25 -31 0 -35 3 -35 25 0 22 4 25 35
25 31 0 35 -3 35 -25z"/>
<path d="M5179 2358 c-6 -13 -25 -38 -42 -55 -25 -27 -27 -33 -13 -33 9 0 29
14 43 30 21 26 32 30 74 30 53 0 59 -7 31 -33 -24 -22 -35 -21 -57 3 -10 11
-22 17 -27 14 -5 -3 1 -17 13 -30 12 -13 21 -25 18 -27 -7 -6 -63 -25 -91 -31
-31 -7 -38 -26 -10 -26 9 0 42 11 72 23 53 22 56 22 95 6 52 -23 97 -28 102
-11 3 7 -5 12 -21 12 -15 0 -43 7 -62 15 l-36 15 31 35 c17 20 31 40 31 45 0
6 -30 10 -67 11 -38 0 -62 3 -55 6 6 2 10 9 6 14 -9 15 -23 10 -35 -13z"/>
<path d="M5500 2365 c0 -21 -28 -75 -52 -102 -12 -12 -17 -27 -13 -34 6 -8 13
-5 26 12 18 24 19 23 19 -73 0 -59 4 -98 10 -98 6 0 10 45 10 115 0 85 4 124
15 146 16 29 13 49 -6 49 -5 0 -9 -7 -9 -15z"/>
<path d="M5620 2340 c0 -34 -3 -40 -21 -40 -16 0 -19 4 -14 20 4 13 2 20 -7
20 -8 0 -19 -19 -26 -42 -7 -24 -15 -49 -18 -55 -11 -25 17 -13 28 12 7 16 19
25 35 25 20 0 23 -5 23 -35 0 -35 0 -35 -45 -35 -25 0 -45 -4 -45 -10 0 -5 20
-10 45 -10 l45 0 0 -60 c0 -33 4 -60 10 -60 6 0 10 27 10 60 l0 60 50 0 c28 0
50 5 50 10 0 6 -22 10 -50 10 l-50 0 0 35 c0 33 2 35 35 35 19 0 35 5 35 10 0
6 -16 10 -36 10 l-37 0 6 40 c4 30 2 40 -9 40 -10 0 -14 -12 -14 -40z"/>
<path d="M5230 2210 c0 -17 -7 -20 -45 -20 -25 0 -45 -4 -45 -10 0 -5 20 -10
45 -10 l45 0 0 -40 c0 -34 -3 -40 -21 -40 -11 0 -17 -4 -14 -10 3 -5 17 -10
31 -10 22 0 24 4 24 50 l0 50 50 0 c28 0 50 5 50 10 0 6 -23 10 -51 10 -46 0
-51 2 -46 20 3 13 0 20 -9 20 -8 0 -14 -9 -14 -20z"/>
<path d="M4560 2135 c0 -37 4 -65 10 -65 6 0 10 7 10 15 0 22 86 21 94 -1 12
-31 21 -4 18 55 l-4 61 -64 0 -64 0 0 -65z m110 10 c0 -35 0 -35 -45 -35 -45
0 -45 0 -45 35 0 35 0 35 45 35 45 0 45 0 45 -35z"/>
<path d="M5143 2130 c-35 -32 -40 -40 -22 -40 16 0 79 57 72 64 -10 10 -16 7
-50 -24z"/>
<path d="M5280 2151 c0 -13 70 -64 78 -56 4 4 -9 20 -28 36 -35 30 -50 36 -50
20z"/>
<path d="M4466 2126 c-36 -11 -62 -36 -39 -36 21 0 103 33 103 41 0 11 -15 10
-64 -5z"/>
<path d="M7368 2339 l-28 -39 -70 0 c-40 0 -70 -4 -70 -10 0 -6 27 -10 61 -10
59 0 61 -1 55 -22 -3 -13 -6 -26 -6 -30 0 -5 -27 -8 -60 -8 -33 0 -60 -4 -60
-10 0 -6 27 -10 60 -10 33 0 60 -4 60 -9 0 -20 -53 -71 -85 -83 -19 -6 -35
-15 -35 -18 0 -42 115 30 133 83 2 6 18 -5 37 -26 39 -45 85 -71 108 -62 13 5
8 11 -23 26 -40 20 -95 66 -95 81 0 4 27 8 60 8 33 0 60 4 60 10 0 6 -30 10
-71 10 -61 0 -70 2 -65 16 3 9 6 22 6 30 0 11 15 14 62 14 67 0 71 16 5 22
l-39 3 22 28 c13 16 19 32 14 37 -5 4 -21 -9 -36 -31z"/>
<path d="M7590 2293 c0 -47 -3 -83 -6 -80 -4 3 -20 -12 -36 -34 -37 -51 -27
-66 13 -19 l28 35 1 -62 c0 -62 1 -63 26 -61 30 3 64 42 90 104 l17 39 14 -35
c23 -54 63 -104 76 -91 7 7 1 20 -17 42 -28 32 -56 91 -56 115 0 10 13 14 40
14 22 0 40 5 40 10 0 6 -21 10 -46 10 l-46 0 4 50 c2 35 -1 50 -9 50 -9 0 -13
-17 -13 -50 l0 -50 -40 0 c-22 0 -40 -4 -40 -10 0 -5 16 -10 35 -10 29 0 35
-4 35 -20 0 -45 -56 -140 -82 -140 -6 0 -8 61 -6 140 2 107 0 140 -9 140 -10
0 -13 -24 -13 -87z"/>
<path d="M7988 2358 c-3 -21 -9 -23 -65 -26 -78 -4 -84 -22 -8 -22 30 0 55 -4
55 -9 0 -15 -79 -81 -97 -81 -12 0 -14 -3 -6 -11 18 -18 49 -1 98 53 l46 51
35 -42 c45 -52 93 -79 105 -59 6 9 0 15 -20 20 -30 8 -81 50 -81 68 0 5 22 10
50 10 28 0 50 5 50 10 0 6 -30 10 -71 10 -71 0 -71 0 -65 25 5 18 2 25 -8 25
-8 0 -16 -10 -18 -22z"/>
<path d="M7230 2364 c0 -7 25 -29 53 -45 12 -7 17 -6 17 3 0 8 -13 21 -29 31
-31 18 -41 21 -41 11z"/>
<path d="M6870 2350 c0 -5 14 -10 30 -10 29 0 30 -2 30 -45 l0 -45 -40 0 c-28
0 -40 -4 -40 -14 0 -11 10 -13 40 -9 33 5 40 3 40 -11 0 -27 -26 -79 -49 -100
-25 -22 -27 -36 -6 -36 21 0 64 68 71 113 6 36 7 37 50 37 l44 0 0 -75 c0 -96
18 -98 22 -2 l3 72 38 -1 c25 -1 37 3 37 12 0 10 -13 14 -40 14 l-40 0 0 45
c0 43 1 45 30 45 17 0 30 5 30 10 0 6 -48 10 -125 10 -77 0 -125 -4 -125 -10z
m170 -55 l0 -45 -45 0 -45 0 0 45 0 45 45 0 45 0 0 -45z"/>
<path d="M7766 2325 c15 -23 34 -34 34 -19 0 16 -23 44 -36 44 -12 0 -12 -4 2
-25z"/>
<path d="M7530 2311 c0 -15 38 -56 45 -49 9 9 -21 58 -35 58 -6 0 -10 -4 -10
-9z"/>
<path d="M7986 2252 c-7 -11 31 -48 41 -38 4 3 -2 16 -14 27 -11 12 -23 17
-27 11z"/>
<path d="M7986 2192 c-3 -5 5 -19 18 -31 16 -16 26 -19 31 -11 4 6 5 12 4 13
-2 1 -14 10 -26 20 -11 10 -24 14 -27 9z"/>
<path d="M7879 2135 c-22 -46 -7 -54 20 -11 24 39 26 46 9 46 -7 -1 -20 -16
-29 -35z"/>
<path d="M7950 2125 c0 -42 1 -44 34 -50 48 -9 106 11 106 36 0 14 -20 10 -37
-7 -9 -9 -28 -14 -47 -12 -28 3 -31 7 -34 41 -4 52 -22 46 -22 -8z"/>
<path d="M8090 2162 c0 -14 49 -56 57 -49 3 4 -4 18 -17 32 -24 25 -40 32 -40
17z"/>
<path d="M10310 2294 c0 -47 -4 -83 -9 -80 -13 8 -75 -74 -64 -85 6 -6 20 6
39 32 l29 42 3 -67 c3 -64 4 -67 25 -61 31 9 76 63 89 109 l12 39 18 -43 c26
-62 56 -100 73 -93 12 4 10 12 -12 37 -27 32 -62 101 -63 124 0 8 16 12 45 12
25 0 45 5 45 10 0 6 -23 10 -51 10 l-52 0 5 50 c4 38 2 50 -8 50 -10 0 -14
-15 -14 -50 l0 -50 -35 0 c-19 0 -35 -4 -35 -10 0 -5 16 -10 35 -10 33 0 35
-1 29 -27 -11 -48 -31 -87 -55 -113 l-24 -25 -3 143 c-1 83 -7 142 -12 142 -6
0 -10 -37 -10 -86z"/>
<path d="M10700 2355 c0 -24 -3 -25 -60 -25 -33 0 -60 -4 -60 -10 0 -5 25 -10
56 -10 l55 0 -22 -31 c-12 -17 -39 -39 -60 -48 -28 -13 -36 -20 -27 -29 15
-15 90 37 115 78 22 38 33 37 58 -3 22 -34 82 -80 99 -74 20 7 16 25 -8 31
-27 7 -86 53 -86 67 0 5 23 9 50 9 28 0 50 5 50 10 0 6 -30 10 -70 10 -70 0
-70 0 -64 25 5 19 2 25 -10 25 -10 0 -16 -9 -16 -25z"/>
<path d="M11006 2347 c-14 -18 -37 -39 -51 -47 -14 -7 -25 -17 -25 -22 0 -15
23 -8 56 17 26 20 44 25 90 25 l58 0 -33 -34 -34 -35 -28 21 c-16 12 -32 18
-36 14 -4 -4 3 -16 17 -26 25 -19 25 -19 5 -34 -11 -9 -42 -23 -68 -32 -35
-11 -46 -19 -38 -27 7 -7 18 -7 36 1 14 7 28 12 30 12 3 0 5 -25 5 -55 0 -30
5 -55 10 -55 6 0 10 5 10 10 0 6 32 10 75 10 43 0 75 -4 75 -10 0 -5 5 -10 10
-10 6 0 10 30 10 70 l0 70 -66 0 -65 0 60 56 c34 31 61 60 61 65 0 5 -33 9
-72 9 -63 1 -71 3 -56 14 17 12 15 26 -3 26 -4 0 -19 -15 -33 -33z m154 -197
l0 -40 -75 0 -75 0 0 40 0 40 75 0 75 0 0 -40z"/>
<path d="M11424 2363 c-16 -46 -48 -106 -52 -95 -2 7 -12 12 -23 12 -29 0 -27
56 3 64 16 4 20 8 12 16 -8 8 -19 8 -38 0 -15 -5 -39 -10 -52 -10 -14 0 -22
-4 -19 -10 3 -5 15 -10 26 -10 14 0 19 -7 19 -25 0 -20 -5 -25 -25 -25 -14 0
-25 -4 -25 -10 0 -5 11 -10 25 -10 14 0 25 -2 25 -5 0 -11 -32 -70 -47 -87
-10 -11 -11 -18 -3 -23 13 -8 13 -9 33 30 l16 30 1 -67 c0 -54 3 -68 15 -68
12 0 15 15 15 73 1 63 2 70 14 54 10 -12 16 -15 21 -7 4 6 -2 22 -14 34 -29
31 -26 39 12 32 29 -5 35 -3 47 19 11 21 20 25 62 25 46 0 48 -1 38 -20 -8
-16 -8 -20 4 -20 8 0 19 14 25 30 l10 30 -59 0 c-59 0 -59 0 -50 25 6 15 6 26
0 30 -6 4 -13 -2 -16 -12z"/>
<path d="M10470 2343 c0 -4 7 -17 15 -27 17 -23 34 -13 19 11 -12 19 -34 29
-34 16z"/>
<path d="M10240 2315 c0 -12 33 -55 41 -55 15 0 10 26 -9 43 -19 17 -32 22
-32 12z"/>
<path d="M11450 2179 c0 -86 -1 -91 -20 -86 -23 6 -27 -11 -5 -19 32 -13 44
15 47 107 2 66 0 89 -9 89 -10 0 -13 -25 -13 -91z"/>
<path d="M10696 2251 c-3 -5 5 -16 19 -25 19 -12 25 -13 25 -4 0 17 -37 41
-44 29z"/>
<path d="M11490 2211 c0 -20 43 -81 56 -81 11 0 6 13 -16 45 -31 45 -40 53
-40 36z"/>
<path d="M11400 2201 c0 -4 -11 -25 -25 -45 -22 -32 -23 -37 -8 -34 10 2 28
22 41 46 20 35 21 42 8 42 -9 0 -16 -4 -16 -9z"/>
<path d="M10700 2183 c0 -5 12 -16 25 -26 19 -13 25 -15 25 -4 0 7 -5 18 -12
25 -13 13 -38 16 -38 5z"/>
<path d="M10603 2153 c-3 -10 -12 -25 -20 -35 -9 -10 -11 -18 -4 -22 10 -7 51
44 51 63 0 18 -20 13 -27 -6z"/>
<path d="M10660 2127 c0 -42 2 -46 30 -52 37 -8 85 2 101 21 18 22 4 28 -24 9
-14 -9 -38 -15 -54 -13 -24 3 -28 7 -29 37 0 19 -5 36 -12 39 -8 2 -12 -11
-12 -41z"/>
<path d="M10810 2162 c0 -14 46 -53 53 -45 4 3 -3 17 -15 30 -22 23 -38 30
-38 15z"/>
<path d="M825 1925 c-31 -25 -28 -33 6 -15 18 10 19 7 19 -80 l0 -90 -30 0
c-16 0 -30 -4 -30 -10 0 -6 28 -10 65 -10 37 0 65 4 65 10 0 6 -11 10 -25 10
l-25 0 0 105 c0 58 -3 105 -7 105 -5 0 -21 -11 -38 -25z"/>
<path d="M2460 1800 c0 -6 120 -10 340 -10 220 0 340 4 340 10 0 6 -120 10
-340 10 -220 0 -340 -4 -340 -10z"/>
<path d="M4834 1929 c-15 -17 -19 -36 -19 -94 0 -83 18 -115 65 -115 47 0 65
32 65 115 0 83 -18 115 -65 115 -15 0 -35 -9 -46 -21z m80 -21 c21 -30 21
-117 0 -146 -38 -54 -87 -2 -81 85 6 79 47 110 81 61z"/>
<path d="M5106 1929 c-14 -11 -26 -25 -26 -31 0 -6 8 -4 18 5 10 10 22 17 25
17 4 0 7 -40 7 -90 l0 -90 -30 0 c-16 0 -30 -4 -30 -10 0 -6 28 -10 65 -10 37
0 65 4 65 10 0 6 -11 10 -25 10 l-25 0 0 105 c0 58 -4 105 -9 105 -4 0 -20 -9
-35 -21z"/>
<path d="M5240 1876 c-23 -28 -8 -59 37 -76 53 -19 59 -26 43 -45 -15 -18 -61
-20 -78 -3 -6 6 -15 8 -19 4 -13 -12 28 -36 62 -36 39 0 70 30 61 58 -6 18
-23 28 -79 46 -23 8 -18 40 7 44 10 2 29 -2 42 -9 30 -15 40 -7 19 15 -20 20
-78 21 -95 2z"/>
<path d="M5000 1735 c0 -8 5 -15 10 -15 6 0 10 7 10 15 0 8 -4 15 -10 15 -5 0
-10 -7 -10 -15z"/>
<path d="M7667 1994 c-4 -4 5 -21 20 -38 l26 -31 -51 -3 c-29 -2 -52 -7 -52
-13 0 -12 197 -12 205 1 4 6 -13 10 -44 10 -37 0 -49 3 -45 13 5 15 -49 71
-59 61z"/>
<path d="M7350 1977 c0 -19 52 -98 84 -126 18 -17 29 -22 37 -14 7 7 -1 18
-24 36 -18 14 -44 46 -58 71 -24 45 -39 58 -39 33z"/>
<path d="M7571 1945 c-11 -25 -29 -59 -41 -74 -16 -24 -17 -30 -6 -34 8 -3 21
4 30 16 14 20 15 14 15 -81 1 -66 5 -101 11 -97 6 4 10 59 10 133 0 96 4 133
15 148 14 20 11 34 -6 34 -5 0 -17 -20 -28 -45z"/>
<path d="M7266 1954 c-4 -14 -25 -45 -48 -70 -44 -48 -45 -73 -2 -33 27 25 84
107 84 121 0 20 -29 5 -34 -18z"/>
<path d="M7741 1818 c-20 -96 -23 -100 -87 -96 -30 1 -54 0 -54 -4 0 -5 53 -7
118 -6 64 1 96 3 70 5 -27 2 -48 5 -48 6 0 1 9 34 20 72 24 83 24 85 7 85 -8
0 -18 -24 -26 -62z"/>
<path d="M7240 1860 c0 -5 11 -10 25 -10 18 0 25 -5 25 -20 0 -38 -29 -90 -60
-108 -31 -18 -36 -27 -21 -36 14 -9 72 44 87 81 8 18 14 44 14 58 0 23 4 25
40 25 l40 0 0 -42 c0 -68 -9 -88 -37 -88 -15 0 -23 -5 -21 -12 7 -19 31 -21
53 -4 16 11 20 29 23 90 l4 76 -86 0 c-51 0 -86 -4 -86 -10z"/>
<path d="M7642 1859 c2 -8 10 -35 17 -61 8 -29 19 -48 28 -48 15 0 14 4 -12
79 -11 33 -42 60 -33 30z"/>
<path d="M10520 1983 c0 -3 7 -15 17 -25 15 -17 13 -18 -50 -18 l-67 0 0 -30
c0 -16 5 -30 10 -30 6 0 10 9 10 20 0 19 7 20 110 20 103 0 110 -1 110 -20 0
-11 5 -20 10 -20 6 0 10 14 10 30 0 30 0 30 -56 30 -30 0 -53 4 -50 9 3 5 -5
16 -19 25 -26 17 -35 20 -35 9z"/>
<path d="M10810 1903 c0 -47 -3 -83 -6 -80 -4 3 -20 -12 -36 -34 -37 -51 -27
-66 13 -19 l28 35 1 -62 c0 -62 1 -63 26 -61 30 3 64 42 90 104 l17 39 14 -35
c23 -54 63 -104 76 -91 7 7 1 20 -17 42 -28 32 -56 91 -56 115 0 10 13 14 40
14 22 0 40 5 40 10 0 6 -21 10 -46 10 l-46 0 4 50 c2 35 -1 50 -9 50 -9 0 -13
-17 -13 -50 l0 -50 -40 0 c-22 0 -40 -4 -40 -10 0 -5 16 -10 35 -10 29 0 35
-4 35 -20 0 -45 -56 -140 -82 -140 -6 0 -8 61 -6 140 2 107 0 140 -9 140 -10
0 -13 -24 -13 -87z"/>
<path d="M11208 1968 c-3 -21 -9 -23 -65 -26 -78 -4 -84 -22 -8 -22 30 0 55
-4 55 -9 0 -15 -79 -81 -97 -81 -12 0 -14 -3 -6 -11 18 -18 49 -1 98 53 l46
51 35 -42 c45 -52 93 -79 105 -59 6 9 0 15 -20 20 -30 8 -81 50 -81 68 0 5 22
10 50 10 28 0 50 5 50 10 0 6 -30 10 -71 10 -71 0 -71 0 -65 25 5 18 2 25 -8
25 -8 0 -16 -10 -18 -22z"/>
<path d="M10986 1935 c15 -23 34 -34 34 -19 0 16 -23 44 -36 44 -12 0 -12 -4
2 -25z"/>
<path d="M10750 1921 c0 -15 38 -56 45 -49 9 9 -21 58 -35 58 -6 0 -10 -4 -10
-9z"/>
<path d="M10479 1867 c-14 -12 -34 -27 -44 -33 -12 -6 -15 -13 -8 -17 10 -6
103 52 103 66 0 14 -25 6 -51 -16z"/>
<path d="M10580 1881 c0 -10 75 -61 90 -61 21 0 8 16 -34 43 -46 29 -56 32
-56 18z"/>
<path d="M11206 1862 c-7 -11 31 -48 41 -38 4 3 -2 16 -14 27 -11 12 -23 17
-27 11z"/>
<path d="M10450 1800 c0 -5 20 -10 45 -10 l45 0 0 -40 0 -40 -70 0 c-40 0 -70
-4 -70 -10 0 -6 55 -10 145 -10 90 0 145 4 145 10 0 6 -28 10 -65 10 l-65 0 0
40 0 40 45 0 c25 0 45 5 45 10 0 6 -40 10 -100 10 -60 0 -100 -4 -100 -10z"/>
<path d="M11206 1802 c-3 -5 5 -19 18 -31 16 -16 26 -19 31 -11 4 6 5 12 4 13
-2 1 -14 10 -26 20 -11 10 -24 14 -27 9z"/>
<path d="M11099 1745 c-22 -46 -7 -54 20 -11 24 39 26 46 9 46 -7 -1 -20 -16
-29 -35z"/>
<path d="M11170 1735 c0 -42 1 -44 34 -50 48 -9 106 11 106 36 0 14 -20 10
-37 -7 -9 -9 -28 -14 -47 -12 -28 3 -31 7 -34 41 -4 52 -22 46 -22 -8z"/>
<path d="M11310 1772 c0 -14 49 -56 57 -49 3 4 -4 18 -17 32 -24 25 -40 32
-40 17z"/>
<path d="M807 1552 c-18 -19 -23 -42 -9 -42 4 0 13 9 20 20 22 36 82 23 82
-18 0 -17 -19 -45 -60 -88 -33 -34 -60 -67 -60 -73 0 -7 26 -11 70 -11 84 0
94 18 13 22 l-58 3 58 56 c62 62 74 101 39 132 -25 22 -75 21 -95 -1z"/>
<path d="M2632 1474 c3 -86 5 -98 27 -115 31 -25 82 -24 115 2 25 19 26 25 26
115 0 56 -4 94 -10 94 -6 0 -10 -36 -10 -89 0 -99 -11 -121 -59 -121 -54 0
-66 19 -69 119 -2 52 -8 91 -14 91 -6 0 -9 -37 -6 -96z"/>
<path d="M2860 1495 c-16 -19 -5 -34 12 -17 18 18 56 14 68 -7 15 -29 13 -31
-23 -31 -41 0 -77 -25 -77 -54 0 -42 45 -60 91 -36 13 7 19 7 19 0 0 -5 5 -10
10 -10 17 0 12 123 -6 148 -18 26 -75 30 -94 7z m90 -88 c0 -22 -37 -49 -62
-45 -26 3 -37 36 -16 49 21 14 78 11 78 -4z"/>
<path d="M4810 1580 c0 -36 -2 -40 -25 -40 -14 0 -25 -4 -25 -10 0 -5 11 -10
25 -10 22 0 25 -4 25 -33 0 -26 -6 -36 -25 -45 -14 -6 -25 -16 -25 -22 0 -13
6 -13 31 0 18 10 19 7 19 -39 0 -37 -4 -53 -17 -60 -10 -5 -14 -13 -10 -17 4
-5 16 -3 25 2 12 8 18 28 20 75 2 43 8 66 18 72 19 11 18 28 -1 21 -11 -5 -15
1 -15 20 0 16 6 26 15 26 8 0 15 5 15 10 0 6 -7 10 -15 10 -11 0 -15 11 -15
40 0 22 -4 40 -10 40 -5 0 -10 -18 -10 -40z"/>
<path d="M4945 1590 c18 -20 17 -20 -28 -20 -46 0 -47 -1 -47 -30 0 -19 5 -30
14 -30 9 0 12 7 9 20 -5 19 0 20 66 20 64 0 71 -2 71 -20 0 -11 5 -20 10 -20
6 0 10 14 10 30 0 29 -2 30 -42 30 -23 0 -38 3 -35 7 10 9 -13 33 -31 33 -13
0 -12 -3 3 -20z"/>
<path d="M5205 1567 c-17 -23 -49 -52 -72 -63 -34 -17 -40 -24 -29 -33 15 -13
78 28 115 75 l22 28 42 -42 42 -42 -77 0 c-42 0 -80 -4 -83 -10 -4 -6 25 -10
79 -10 53 0 86 4 86 10 0 7 7 7 21 0 11 -7 28 -9 37 -5 13 5 7 11 -23 24 -46
20 -105 75 -105 97 0 26 -25 13 -55 -29z"/>
<path d="M4896 1483 c-39 -46 -24 -55 20 -11 25 24 32 37 22 40 -7 3 -26 -10
-42 -29z"/>
<path d="M4980 1502 c0 -14 49 -56 57 -49 3 4 -4 18 -17 32 -24 25 -40 32 -40
17z"/>
<path d="M4890 1420 c0 -5 14 -10 30 -10 28 0 30 -3 30 -35 0 -35 0 -35 -45
-35 -25 0 -45 -4 -45 -10 0 -6 40 -10 100 -10 60 0 100 4 100 10 0 6 -20 10
-45 10 -45 0 -45 0 -45 35 0 32 2 35 29 35 17 0 33 5 36 10 4 6 -22 10 -69 10
-44 0 -76 -4 -76 -10z"/>
<path d="M5150 1365 c0 -37 4 -65 10 -65 6 0 10 5 10 10 0 6 32 10 75 10 43 0
75 -4 75 -10 0 -5 5 -10 10 -10 6 0 10 28 10 65 l0 65 -95 0 -95 0 0 -65z
m170 10 l0 -35 -75 0 -75 0 0 35 0 35 75 0 75 0 0 -35z"/>
<path d="M7667 1614 c-4 -4 5 -21 20 -38 l26 -31 -51 -3 c-29 -2 -52 -7 -52
-13 0 -12 197 -12 205 1 4 6 -13 10 -44 10 -37 0 -49 3 -45 13 5 15 -49 71
-59 61z"/>
<path d="M7350 1597 c0 -19 52 -98 84 -126 18 -17 29 -22 37 -14 7 7 -1 18
-24 36 -18 14 -44 46 -58 71 -24 45 -39 58 -39 33z"/>
<path d="M7571 1565 c-11 -25 -29 -59 -41 -74 -16 -24 -17 -30 -6 -34 8 -3 21
4 30 16 14 20 15 14 15 -81 1 -66 5 -101 11 -97 6 4 10 59 10 133 0 96 4 133
15 148 14 20 11 34 -6 34 -5 0 -17 -20 -28 -45z"/>
<path d="M7266 1574 c-4 -14 -25 -45 -48 -70 -44 -48 -45 -73 -2 -33 27 25 84
107 84 121 0 20 -29 5 -34 -18z"/>
<path d="M7741 1438 c-20 -96 -23 -100 -87 -96 -30 1 -54 0 -54 -4 0 -5 53 -7
118 -6 64 1 96 3 70 5 -27 2 -48 5 -48 6 0 1 9 34 20 72 24 83 24 85 7 85 -8
0 -18 -24 -26 -62z"/>
<path d="M7240 1480 c0 -5 11 -10 25 -10 18 0 25 -5 25 -20 0 -38 -29 -90 -60
-108 -31 -18 -36 -27 -21 -36 14 -9 72 44 87 81 8 18 14 44 14 58 0 23 4 25
40 25 l40 0 0 -42 c0 -68 -9 -88 -37 -88 -15 0 -23 -5 -21 -12 7 -19 31 -21
53 -4 16 11 20 29 23 90 l4 76 -86 0 c-51 0 -86 -4 -86 -10z"/>
<path d="M7642 1479 c2 -8 10 -35 17 -61 8 -29 19 -48 28 -48 15 0 14 4 -12
79 -11 33 -42 60 -33 30z"/>
<path d="M10690 1590 c0 -29 -1 -30 -50 -30 l-50 0 0 -85 0 -85 49 0 50 0 3
-37 3 -38 70 -3 c62 -3 72 0 87 19 10 11 15 25 12 30 -9 15 -21 10 -27 -11 -4
-17 -14 -20 -66 -20 l-61 0 0 30 c0 30 1 30 55 30 l55 0 0 85 0 85 -56 0 c-54
0 -56 1 -52 24 3 15 0 27 -8 30 -10 4 -14 -3 -14 -24z m0 -75 c0 -22 -4 -25
-40 -25 -36 0 -40 3 -40 25 0 23 4 25 40 25 36 0 40 -2 40 -25z m110 0 c0 -23
-4 -25 -45 -25 -41 0 -45 2 -45 25 0 23 4 25 45 25 41 0 45 -2 45 -25z m-110
-75 c0 -28 -2 -30 -40 -30 -38 0 -40 2 -40 30 0 28 2 30 40 30 38 0 40 -2 40
-30z m110 0 c0 -29 -2 -30 -45 -30 -43 0 -45 1 -45 30 0 29 2 30 45 30 43 0
45 -1 45 -30z"/>
<path d="M10370 1590 c0 -18 -7 -20 -55 -20 -30 0 -55 -4 -55 -10 0 -5 25 -10
55 -10 l55 0 0 -45 0 -45 -65 0 c-37 0 -65 -4 -65 -10 0 -5 26 -10 58 -10 l57
-1 -40 -37 c-22 -21 -49 -43 -60 -50 -14 -7 -17 -14 -9 -21 7 -8 27 4 67 40
l57 51 0 -61 c0 -34 4 -61 10 -61 6 0 10 27 10 61 l0 61 39 -35 c50 -46 78
-60 99 -52 13 5 7 12 -28 30 -25 13 -56 35 -69 49 l-24 26 56 0 c31 0 57 5 57
10 0 6 -28 10 -65 10 l-65 0 0 45 0 45 60 0 c33 0 60 4 60 10 0 6 -27 10 -61
10 -56 0 -61 2 -56 20 3 13 0 20 -9 20 -8 0 -14 -9 -14 -20z"/>
<path d="M11025 1574 c-21 -40 -58 -69 -98 -79 -22 -6 -25 -10 -16 -21 15 -18
51 1 103 55 l39 40 42 -38 c53 -49 82 -64 103 -56 13 5 8 11 -23 26 -45 22
-105 77 -105 96 0 25 -26 12 -45 -23z"/>
<path d="M11298 1604 c-8 -8 20 -54 33 -54 14 0 10 12 -9 38 -10 13 -21 20
-24 16z"/>
<path d="M11370 1578 c0 -10 18 -12 65 -10 l65 4 0 -121 c0 -114 -1 -121 -20
-121 -11 0 -20 -5 -20 -11 0 -6 12 -9 28 -7 l27 3 3 138 3 137 -76 0 c-53 0
-75 -4 -75 -12z"/>
<path d="M11270 1431 c0 -162 18 -167 22 -6 2 95 0 125 -9 125 -10 0 -13 -31
-13 -119z"/>
<path d="M10286 1532 c-3 -5 8 -21 23 -36 16 -15 31 -23 35 -18 3 5 -8 21 -23
36 -16 15 -31 23 -35 18z"/>
<path d="M10432 1511 c-12 -17 -18 -32 -13 -35 11 -7 63 48 54 57 -11 12 -19
8 -41 -22z"/>
<path d="M11320 1460 l0 -60 35 0 c34 0 35 -1 35 -40 0 -22 5 -40 10 -40 6 0
10 18 10 40 0 38 2 40 30 40 l30 0 0 60 0 60 -75 0 -75 0 0 -60z m70 25 c0 -9
-9 -15 -25 -15 -16 0 -25 6 -25 15 0 9 9 15 25 15 16 0 25 -6 25 -15z m60 0
c0 -8 -9 -15 -20 -15 -11 0 -20 7 -20 15 0 8 9 15 20 15 11 0 20 -7 20 -15z
m-60 -50 c0 -9 -9 -15 -25 -15 -16 0 -25 6 -25 15 0 9 9 15 25 15 16 0 25 -6
25 -15z m60 0 c0 -8 -9 -15 -20 -15 -11 0 -20 7 -20 15 0 8 9 15 20 15 11 0
20 -7 20 -15z"/>
<path d="M10980 1480 c0 -6 33 -10 80 -10 47 0 80 4 80 10 0 6 -33 10 -80 10
-47 0 -80 -4 -80 -10z"/>
<path d="M10970 1365 c0 -37 4 -65 10 -65 6 0 10 5 10 10 0 6 30 10 70 10 40
0 70 -4 70 -10 0 -5 6 -10 13 -10 8 0 12 20 12 65 l0 65 -92 0 -93 0 0 -65z
m160 10 l0 -35 -70 0 -70 0 0 35 0 35 70 0 70 0 0 -35z"/>
<path d="M790 1163 c-14 -18 -17 -29 -10 -31 6 -2 18 5 26 17 24 34 84 25 84
-13 0 -28 -18 -46 -47 -46 -13 0 -23 -4 -23 -10 0 -5 13 -10 28 -10 15 0 33
-5 40 -12 15 -15 15 -51 0 -66 -19 -19 -66 -14 -80 8 -15 23 -28 26 -28 7 0
-41 75 -61 118 -31 29 20 30 77 2 97 -18 12 -18 15 -5 20 23 9 20 74 -4 87
-36 19 -78 12 -101 -17z"/>
<path d="M2410 1096 c0 -90 1 -96 26 -115 46 -36 105 -27 129 20 17 31 21 189
6 189 -5 0 -11 -41 -13 -91 -3 -100 -15 -119 -69 -119 -48 0 -59 22 -59 121 0
53 -4 89 -10 89 -6 0 -10 -38 -10 -94z"/>
<path d="M2880 1096 c0 -90 1 -96 26 -115 46 -36 105 -27 129 20 17 31 21 189
6 189 -5 0 -11 -41 -13 -91 -3 -100 -15 -119 -69 -119 -48 0 -59 22 -59 121 0
53 -4 89 -10 89 -6 0 -10 -38 -10 -94z"/>
<path d="M2643 1123 c-14 -5 -18 -33 -5 -33 4 0 13 5 19 11 18 18 58 7 61 -18
3 -20 -1 -23 -32 -23 -37 0 -76 -28 -76 -53 0 -37 71 -62 98 -35 9 9 12 9 12
0 0 -7 5 -12 10 -12 6 0 10 32 10 75 0 63 -3 76 -19 85 -20 10 -57 12 -78 3z
m77 -101 c0 -24 -19 -42 -45 -42 -31 0 -46 19 -34 42 14 25 79 26 79 0z"/>
<path d="M2800 1115 c0 -8 5 -15 10 -15 6 0 10 7 10 15 0 8 -4 15 -10 15 -5 0
-10 -7 -10 -15z"/>
<path d="M3110 1103 c-18 -22 -21 -37 -17 -72 3 -27 12 -50 23 -58 26 -19 68
-16 89 7 23 25 12 39 -13 17 -40 -36 -82 -11 -82 48 0 57 49 88 80 50 14 -17
30 -20 30 -6 0 19 -32 41 -60 41 -19 0 -36 -9 -50 -27z"/>
<path d="M2803 955 c3 -46 17 -46 17 0 0 19 -4 35 -9 35 -5 0 -9 -16 -8 -35z"/>
<path d="M4862 1174 c-12 -8 -22 -22 -22 -30 0 -20 13 -17 28 6 16 27 68 27
82 1 14 -28 2 -51 -31 -58 -35 -7 -38 -23 -5 -23 27 0 56 -24 56 -45 0 -42
-79 -62 -102 -25 -15 23 -28 26 -28 6 0 -36 77 -59 120 -36 28 15 34 59 12 90
-17 23 -18 28 -6 45 19 26 18 41 -6 65 -24 24 -67 26 -98 4z"/>
<path d="M5037 1133 c-2 -32 -3 -60 0 -63 2 -2 13 1 23 8 44 27 80 8 80 -43 0
-17 -5 -36 -12 -43 -17 -17 -67 -15 -74 3 -8 19 -24 19 -24 0 0 -18 31 -35 64
-35 38 0 66 33 66 78 0 49 -27 76 -70 70 -28 -4 -30 -3 -30 29 0 32 1 33 45
33 25 0 45 5 45 10 0 6 -24 10 -54 10 l-54 0 -5 -57z"/>
<path d="M5206 1117 c-33 -24 -17 -59 34 -77 33 -11 45 -21 45 -35 0 -15 -8
-21 -33 -23 -18 -2 -40 2 -48 9 -21 17 -28 5 -9 -15 34 -33 115 -14 115 28 0
28 -13 39 -63 56 -27 8 -37 17 -35 28 4 21 54 28 74 11 8 -6 18 -9 22 -5 11
12 -29 36 -58 36 -14 0 -34 -6 -44 -13z"/>
<path d="M7292 1185 c-18 -26 -48 -53 -69 -62 -21 -10 -40 -18 -42 -20 -1 -1
0 -7 4 -13 9 -15 81 27 116 70 l29 35 15 -23 c25 -35 104 -85 123 -77 13 5 7
12 -29 30 -44 23 -99 76 -99 96 0 20 -18 7 -48 -36z"/>
<path d="M7571 1185 c-11 -25 -29 -59 -41 -74 -16 -24 -17 -30 -6 -34 8 -3 21
4 30 16 14 20 15 14 15 -81 1 -66 5 -101 11 -97 6 4 10 59 10 133 0 96 4 133
15 148 14 20 11 34 -6 34 -5 0 -17 -20 -28 -45z"/>
<path d="M7741 1058 c-20 -96 -23 -100 -87 -96 -30 1 -54 0 -54 -4 0 -5 53 -7
118 -6 64 1 96 3 70 5 -27 2 -48 5 -48 6 0 1 9 34 20 72 24 83 24 85 7 85 -8
0 -18 -24 -26 -62z"/>
<path d="M7250 1100 c0 -6 33 -10 80 -10 47 0 80 4 80 10 0 6 -33 10 -80 10
-47 0 -80 -4 -80 -10z"/>
<path d="M7642 1099 c2 -8 10 -35 17 -61 8 -29 19 -48 28 -48 15 0 14 4 -12
79 -11 33 -42 60 -33 30z"/>
<path d="M7240 985 c0 -37 4 -65 10 -65 6 0 10 5 10 10 0 6 32 10 75 10 43 0
75 -4 75 -10 0 -5 5 -10 10 -10 6 0 10 28 10 65 l0 65 -95 0 -95 0 0 -65z
m170 10 l0 -35 -75 0 -75 0 0 35 0 35 75 0 75 0 0 -35z"/>
<path d="M11288 1188 c-42 -46 -43 -48 -25 -48 17 0 89 74 81 83 -12 11 -17 8
-56 -35z"/>
<path d="M10250 1200 c0 -6 28 -10 65 -10 l65 0 0 -115 0 -115 -30 0 -30 0 0
85 c0 64 -3 85 -13 85 -10 0 -12 -19 -9 -85 l5 -85 -37 0 c-20 0 -36 -4 -36
-10 0 -6 58 -10 155 -10 97 0 155 4 155 10 0 6 -30 10 -70 10 l-70 0 0 60 0
60 45 0 c25 0 45 5 45 10 0 6 -20 10 -45 10 l-45 0 0 45 0 45 60 0 c33 0 60 4
60 10 0 6 -52 10 -135 10 -83 0 -135 -4 -135 -10z"/>
<path d="M10930 1202 c0 -14 49 -56 57 -49 3 4 -4 18 -17 32 -24 25 -40 32
-40 17z"/>
<path d="M11370 1200 c0 -6 33 -10 80 -10 47 0 80 4 80 10 0 6 -33 10 -80 10
-47 0 -80 -4 -80 -10z"/>
<path d="M11010 1190 c0 -6 35 -10 85 -10 50 0 85 4 85 10 0 6 -35 10 -85 10
-50 0 -85 -4 -85 -10z"/>
<path d="M11330 1141 c0 -4 -18 -28 -40 -53 -38 -44 -45 -74 -8 -41 17 15 18
13 18 -55 0 -51 4 -72 13 -72 9 0 11 21 9 81 -3 70 -1 86 17 110 25 34 26 39
6 39 -8 0 -15 -4 -15 -9z"/>
<path d="M10640 1098 c0 -37 1 -38 35 -38 19 0 35 -4 35 -10 0 -5 -22 -10 -50
-10 l-50 0 0 -50 c0 -34 4 -50 13 -50 9 0 11 12 9 40 l-4 40 41 0 41 0 0 -50
c0 -27 5 -50 10 -50 6 0 10 23 10 50 l0 50 40 0 c36 0 40 -2 40 -26 0 -17 -6
-28 -20 -31 -30 -8 -24 -25 8 -21 25 3 27 7 30 51 l3 47 -51 0 c-32 0 -49 4
-45 10 3 6 19 10 36 10 27 0 29 3 29 38 l0 37 -80 0 -80 0 0 -37z m138 0 c3
-16 -5 -18 -57 -18 -55 0 -61 2 -61 20 0 19 5 21 57 18 46 -2 59 -7 61 -20z"/>
<path d="M10990 1110 c0 -5 16 -10 35 -10 19 0 35 -3 35 -6 0 -13 -44 -84 -52
-84 -4 0 -8 -7 -8 -16 0 -12 7 -14 28 -10 84 16 113 17 128 6 25 -22 27 -3 3
39 -15 27 -26 38 -32 32 -7 -7 -6 -15 2 -25 11 -13 9 -16 -12 -21 -13 -4 -36
-5 -51 -3 l-26 3 26 43 c25 41 26 42 80 42 30 0 54 5 54 10 0 6 -42 10 -105
10 -63 0 -105 -4 -105 -10z"/>
<path d="M11350 1100 c0 -6 28 -10 65 -10 l65 0 0 -74 0 -73 -26 5 c-20 4 -25
1 -22 -9 6 -19 36 -23 53 -9 11 9 15 34 15 86 0 72 1 74 25 74 14 0 25 5 25
10 0 6 -40 10 -100 10 -60 0 -100 -4 -100 -10z"/>
<path d="M10905 1090 c3 -5 15 -10 26 -10 16 0 19 -7 19 -49 0 -39 -4 -51 -22
-64 -28 -18 -18 -33 10 -16 16 10 27 9 61 -4 54 -22 196 -24 204 -3 5 12 -8
13 -71 9 -50 -3 -91 0 -117 9 l-40 13 -3 63 -3 62 -35 0 c-21 0 -33 -4 -29
-10z"/>
<path d="M830 725 c-72 -107 -72 -105 -6 -105 53 0 56 -1 56 -25 0 -14 5 -25
10 -25 6 0 10 11 10 25 0 16 6 25 15 25 8 0 15 5 15 10 0 6 -7 10 -15 10 -12
0 -15 16 -15 80 0 45 -4 80 -10 80 -5 0 -32 -34 -60 -75z m50 -25 l0 -60 -40
0 c-22 0 -40 3 -40 6 0 5 73 113 78 114 1 0 2 -27 2 -60z"/>
<path d="M2030 706 c0 -90 1 -96 26 -115 46 -36 105 -27 129 20 17 31 21 189
6 189 -5 0 -11 -41 -13 -91 -3 -100 -15 -119 -69 -119 -48 0 -59 22 -59 121 0
53 -4 89 -10 89 -6 0 -10 -38 -10 -94z"/>
<path d="M2492 704 c3 -86 5 -98 27 -115 31 -25 82 -24 115 2 25 19 26 25 26
115 0 56 -4 94 -10 94 -6 0 -10 -36 -10 -89 0 -99 -11 -121 -59 -121 -54 0
-66 19 -69 119 -2 52 -8 91 -14 91 -6 0 -9 -37 -6 -96z"/>
<path d="M2942 704 c3 -86 5 -98 27 -115 31 -25 82 -24 115 2 25 19 26 25 26
115 0 56 -4 94 -10 94 -6 0 -10 -36 -10 -89 0 -99 -11 -121 -59 -121 -54 0
-66 19 -69 119 -2 52 -8 91 -14 91 -6 0 -9 -37 -6 -96z"/>
<path d="M3400 685 c0 -70 4 -115 10 -115 6 0 10 45 10 115 0 70 -4 115 -10
115 -6 0 -10 -45 -10 -115z"/>
<path d="M2254 726 c-10 -8 -16 -18 -11 -22 4 -4 13 -2 19 4 17 17 65 15 72
-4 11 -28 6 -34 -27 -34 -43 0 -77 -25 -77 -56 0 -34 40 -52 81 -37 16 6 29 7
29 2 0 -5 5 -9 10 -9 17 0 12 136 -6 154 -19 20 -64 21 -90 2z m86 -87 c0 -27
-22 -49 -51 -49 -33 0 -48 22 -29 45 14 17 80 21 80 4z"/>
<path d="M2420 725 c0 -8 5 -15 10 -15 6 0 10 7 10 15 0 8 -4 15 -10 15 -5 0
-10 -7 -10 -15z"/>
<path d="M2730 720 c-14 -14 -20 -33 -20 -65 0 -54 25 -85 69 -85 32 0 73 41
50 49 -7 2 -16 -4 -21 -13 -11 -19 -49 -21 -66 -4 -16 16 -16 90 0 106 17 17
55 15 66 -4 5 -9 14 -15 21 -13 8 3 7 11 -4 27 -20 28 -68 29 -95 2z"/>
<path d="M2870 725 c0 -8 5 -15 10 -15 6 0 10 7 10 15 0 8 -4 15 -10 15 -5 0
-10 -7 -10 -15z"/>
<path d="M3160 730 c0 -5 20 -10 45 -10 25 0 45 -3 45 -6 0 -3 -22 -33 -50
-66 -27 -33 -50 -64 -50 -69 0 -5 35 -9 77 -9 86 0 91 17 6 22 l-52 3 54 65
c30 36 54 68 54 73 1 4 -28 7 -64 7 -37 0 -65 -4 -65 -10z"/>
<path d="M3320 725 c0 -8 5 -15 10 -15 6 0 10 7 10 15 0 8 -4 15 -10 15 -5 0
-10 -7 -10 -15z"/>
<path d="M3460 734 c0 -3 11 -21 24 -41 l25 -36 -30 -44 c-23 -33 -26 -43 -14
-43 8 0 15 3 15 8 1 4 11 20 24 35 l23 28 24 -35 c13 -20 30 -36 37 -36 8 0 2
17 -17 43 l-30 44 25 37 c33 48 21 61 -15 17 l-28 -34 -22 32 c-20 27 -41 41
-41 25z"/>
<path d="M2423 566 c0 -19 5 -33 9 -30 11 7 10 64 -1 64 -5 0 -9 -15 -8 -34z"/>
<path d="M2873 566 c0 -19 5 -33 9 -30 11 7 10 64 -1 64 -5 0 -9 -15 -8 -34z"/>
<path d="M3323 565 c3 -46 17 -46 17 0 0 19 -4 35 -9 35 -5 0 -9 -16 -8 -35z"/>
<path d="M4810 810 c0 -36 -2 -40 -25 -40 -14 0 -25 -4 -25 -10 0 -5 11 -10
25 -10 22 0 25 -4 25 -33 0 -26 -6 -36 -25 -45 -14 -6 -25 -16 -25 -22 0 -13
6 -13 31 0 18 10 19 7 19 -39 0 -37 -4 -53 -17 -60 -10 -5 -14 -13 -10 -17 4
-5 16 -3 25 2 12 8 18 28 20 75 2 43 8 66 18 72 19 11 18 28 -1 21 -11 -5 -15
1 -15 20 0 16 6 26 15 26 8 0 15 5 15 10 0 6 -7 10 -15 10 -11 0 -15 11 -15
40 0 22 -4 40 -10 40 -5 0 -10 -18 -10 -40z"/>
<path d="M4945 820 c18 -20 17 -20 -28 -20 -46 0 -47 -1 -47 -30 0 -19 5 -30
14 -30 9 0 12 7 9 20 -5 19 0 20 66 20 64 0 71 -2 71 -20 0 -11 5 -20 10 -20
6 0 10 14 10 30 0 29 -2 30 -42 30 -23 0 -38 3 -35 7 10 9 -13 33 -31 33 -13
0 -12 -3 3 -20z"/>
<path d="M5260 835 c0 -3 9 -23 20 -45 27 -53 89 -115 102 -102 7 7 -3 22 -30
46 -22 20 -47 52 -56 71 -14 30 -36 48 -36 30z"/>
<path d="M5165 780 c-14 -27 -36 -57 -50 -66 -14 -9 -25 -20 -25 -25 0 -14 26
-11 39 4 6 8 23 12 41 9 24 -3 30 -9 30 -29 0 -33 -24 -77 -56 -102 -32 -25
-23 -48 10 -26 25 17 62 82 71 128 5 23 10 27 41 27 l35 0 -3 -62 c-3 -61 -4
-63 -31 -66 -16 -2 -27 -8 -24 -15 6 -19 32 -19 55 0 17 15 21 32 24 88 l3 70
-82 3 c-46 2 -83 4 -83 6 0 2 11 24 25 47 27 48 30 59 15 59 -5 0 -21 -22 -35
-50z"/>
<path d="M4896 713 c-39 -46 -24 -55 20 -11 25 24 32 37 22 40 -7 3 -26 -10
-42 -29z"/>
<path d="M4980 732 c0 -14 49 -56 57 -49 3 4 -4 18 -17 32 -24 25 -40 32 -40
17z"/>
<path d="M4890 650 c0 -5 14 -10 30 -10 28 0 30 -3 30 -35 0 -35 0 -35 -45
-35 -25 0 -45 -4 -45 -10 0 -6 40 -10 100 -10 60 0 100 4 100 10 0 6 -20 10
-45 10 -45 0 -45 0 -45 35 0 32 2 35 29 35 17 0 33 5 36 10 4 6 -22 10 -69 10
-44 0 -76 -4 -76 -10z"/>
<path d="M7667 844 c-4 -4 5 -21 20 -38 l26 -31 -51 -3 c-29 -2 -52 -7 -52
-13 0 -12 197 -12 205 1 4 6 -13 10 -44 10 -37 0 -49 3 -45 13 5 15 -49 71
-59 61z"/>
<path d="M7292 795 c-18 -26 -48 -53 -69 -62 -21 -10 -40 -18 -42 -20 -1 -1 0
-7 4 -13 9 -15 81 27 116 70 l29 35 15 -23 c25 -35 104 -85 123 -77 13 5 7 12
-29 30 -44 23 -99 76 -99 96 0 20 -18 7 -48 -36z"/>
<path d="M7571 795 c-11 -25 -29 -59 -41 -74 -16 -24 -17 -30 -6 -34 8 -3 21
4 30 16 14 20 15 14 15 -81 1 -66 5 -101 11 -97 6 4 10 59 10 133 0 96 4 133
15 148 14 20 11 34 -6 34 -5 0 -17 -20 -28 -45z"/>
<path d="M7741 668 c-20 -96 -23 -100 -87 -96 -30 1 -54 0 -54 -4 0 -5 53 -7
118 -6 64 1 96 3 70 5 -27 2 -48 5 -48 6 0 1 9 34 20 72 24 83 24 85 7 85 -8
0 -18 -24 -26 -62z"/>
<path d="M7250 710 c0 -6 33 -10 80 -10 47 0 80 4 80 10 0 6 -33 10 -80 10
-47 0 -80 -4 -80 -10z"/>
<path d="M7642 709 c2 -8 10 -35 17 -61 8 -29 19 -48 28 -48 15 0 14 4 -12 79
-11 33 -42 60 -33 30z"/>
<path d="M7240 595 c0 -37 4 -65 10 -65 6 0 10 5 10 10 0 6 32 10 75 10 43 0
75 -4 75 -10 0 -5 5 -10 10 -10 6 0 10 28 10 65 l0 65 -95 0 -95 0 0 -65z
m170 10 l0 -35 -75 0 -75 0 0 35 0 35 75 0 75 0 0 -35z"/>
<path d="M10407 844 c-4 -4 0 -16 10 -26 15 -17 14 -18 -25 -18 -22 0 -44 -4
-47 -10 -4 -6 27 -10 84 -10 54 0 91 4 91 10 0 6 -14 10 -30 10 -21 0 -38 9
-53 26 -12 14 -26 22 -30 18z"/>
<path d="M10760 796 c0 -46 -3 -54 -21 -59 -19 -5 -21 -2 -17 39 2 29 -1 45
-9 49 -10 3 -13 -10 -13 -46 0 -42 -3 -52 -20 -56 -11 -3 -20 -10 -20 -15 0
-6 9 -8 20 -5 18 5 19 -1 22 -77 l3 -81 71 -3 c76 -3 103 11 89 45 -6 16 -8
15 -16 -5 -8 -21 -14 -23 -66 -20 l-58 3 0 75 c0 63 3 75 18 78 15 3 17 -5 17
-62 0 -37 4 -66 10 -66 6 0 10 30 10 70 0 63 2 70 20 70 17 0 20 -7 20 -44 0
-25 -5 -46 -11 -48 -7 -2 -10 -10 -8 -16 3 -10 8 -10 21 0 10 8 19 36 23 76
l7 63 -37 -7 -37 -7 3 47 c3 30 0 47 -8 51 -10 3 -13 -10 -13 -49z"/>
<path d="M11085 822 c-3 -15 -14 -48 -25 -74 -18 -47 -18 -48 1 -48 10 0 19
-6 19 -12 0 -7 7 -26 15 -42 18 -33 12 -44 -42 -77 -24 -15 -31 -25 -24 -32 7
-7 24 1 54 26 l44 36 31 -32 c26 -26 34 -29 44 -18 11 11 10 14 0 18 -7 3 -25
15 -38 27 -25 21 -25 22 -9 65 8 24 15 54 15 67 0 17 6 24 20 24 11 0 20 5 20
10 0 6 -25 10 -55 10 -58 0 -67 9 -45 50 7 13 6 19 -5 24 -10 4 -17 -3 -20
-22z m65 -89 c0 -10 -5 -36 -11 -58 -10 -37 -12 -38 -25 -20 -8 10 -14 27 -14
37 0 10 -7 18 -15 18 -13 0 -14 4 -5 20 14 26 70 28 70 3z"/>
<path d="M10280 805 c0 -28 -4 -35 -20 -35 -11 0 -20 -4 -20 -10 0 -5 9 -10
20 -10 17 0 20 -7 20 -44 0 -36 -4 -46 -20 -51 -11 -3 -20 -11 -20 -17 0 -6 9
-8 20 -5 18 5 20 0 20 -39 0 -32 -4 -44 -15 -44 -8 0 -15 -5 -15 -11 0 -6 10
-9 23 -7 20 3 22 9 25 63 2 39 8 63 18 68 19 11 18 28 -1 21 -12 -5 -15 2 -15
29 0 29 4 36 23 40 l22 4 -23 8 c-20 7 -23 13 -20 41 3 23 0 34 -9 34 -8 0
-13 -13 -13 -35z"/>
<path d="M10610 795 c0 -38 -3 -45 -20 -45 -11 0 -20 -4 -20 -10 0 -5 9 -10
20 -10 18 0 20 -7 20 -55 0 -51 -2 -56 -27 -66 -17 -6 -23 -13 -17 -19 7 -7
29 -2 62 12 54 23 71 43 27 32 -24 -6 -25 -5 -25 45 0 44 3 51 20 51 11 0 20
5 20 10 0 6 -10 10 -21 10 -20 0 -21 4 -17 45 4 34 2 45 -8 45 -10 0 -14 -13
-14 -45z"/>
<path d="M10970 805 c0 -33 -2 -35 -35 -35 -19 0 -35 -4 -35 -10 0 -5 16 -10
35 -10 32 0 35 -2 35 -30 0 -25 -4 -30 -25 -30 -24 0 -25 -2 -25 -70 0 -40 4
-70 10 -70 6 0 10 7 10 15 0 17 65 22 75 5 14 -23 25 4 25 61 0 56 -1 59 -25
59 -21 0 -25 5 -25 30 0 28 3 30 35 30 19 0 35 5 35 10 0 6 -16 10 -36 10 -35
0 -36 1 -32 35 3 24 0 35 -9 35 -8 0 -13 -13 -13 -35z m40 -170 c0 -33 -2 -35
-35 -35 -33 0 -35 2 -35 35 0 33 2 35 35 35 33 0 35 -2 35 -35z"/>
<path d="M11410 834 c0 -4 8 -13 18 -20 15 -12 11 -13 -30 -14 -27 0 -48 -5
-48 -11 0 -6 8 -8 18 -5 13 4 18 0 19 -14 1 -16 -4 -20 -28 -20 -29 0 -30 1
-23 35 l6 35 -41 0 -41 0 0 -150 c0 -93 4 -150 10 -150 6 0 10 53 10 140 0
136 1 140 21 140 15 0 19 -4 15 -16 -14 -36 -18 -92 -7 -98 17 -11 14 -56 -4
-56 -9 0 -12 -6 -9 -15 5 -11 10 -12 26 -4 20 11 21 30 3 99 l-6 25 116 -3
c81 -2 115 0 110 7 -3 6 -22 11 -41 11 -32 0 -33 1 -22 20 7 11 18 18 25 16 7
-3 15 -1 18 4 4 6 -8 10 -27 10 -22 0 -37 7 -46 20 -11 18 -42 28 -42 14z m50
-59 c0 -21 -27 -30 -45 -15 -23 19 -18 30 15 30 20 0 30 -5 30 -15z"/>
<path d="M10370 763 c0 -4 7 -17 15 -27 17 -23 34 -13 19 11 -12 19 -34 29
-34 16z"/>
<path d="M10447 739 c-15 -28 -21 -31 -57 -27 -22 2 -40 0 -40 -4 0 -5 36 -8
80 -8 44 0 80 4 80 9 0 4 -12 6 -27 3 -21 -4 -25 -2 -20 12 4 9 10 23 13 31
11 28 -11 15 -29 -16z"/>
<path d="M11360 660 l0 -50 35 0 c19 0 35 -4 35 -10 0 -5 -22 -10 -50 -10 -27
0 -50 -4 -50 -10 0 -5 23 -10 50 -10 47 0 50 -2 50 -25 0 -14 5 -25 10 -25 6
0 10 11 10 25 0 23 3 25 50 25 28 0 50 5 50 10 0 6 -22 10 -50 10 -27 0 -50 5
-50 10 0 6 15 10 33 10 32 0 32 0 32 50 l0 50 -77 0 -78 0 0 -50z m130 20 c0
-5 -25 -10 -55 -10 -30 0 -55 5 -55 10 0 6 25 10 55 10 30 0 55 -4 55 -10z m0
-40 c0 -5 -25 -10 -55 -10 -30 0 -55 5 -55 10 0 6 25 10 55 10 30 0 55 -4 55
-10z"/>
<path d="M10396 675 c-3 -9 -19 -15 -41 -15 -19 0 -35 -4 -35 -10 0 -5 11 -10
25 -10 25 0 33 -14 15 -25 -15 -9 -2 -25 20 -25 37 0 30 -19 -11 -30 -31 -9
-39 -14 -30 -23 8 -8 23 -5 57 11 l46 23 34 -20 c18 -11 36 -16 39 -11 5 7 -9
19 -53 46 -1 1 3 13 9 28 9 19 20 26 41 26 15 0 28 5 28 10 0 6 -28 10 -65 10
-53 0 -63 3 -59 15 4 8 2 15 -4 15 -5 0 -12 -7 -16 -15z m54 -55 c-11 -21 -27
-25 -54 -14 -25 10 0 34 36 34 26 0 28 -2 18 -20z"/>
<path d="M797 363 c-2 -32 -3 -60 0 -63 2 -2 13 1 23 8 44 27 80 8 80 -43 0
-17 -5 -36 -12 -43 -17 -17 -67 -15 -74 3 -8 19 -24 19 -24 0 0 -18 31 -35 64
-35 38 0 66 33 66 78 0 49 -27 76 -70 70 -28 -4 -30 -3 -30 29 0 32 1 33 45
33 25 0 45 5 45 10 0 6 -24 10 -54 10 l-54 0 -5 -57z"/>
<path d="M2632 324 c3 -86 5 -98 27 -115 31 -25 82 -24 115 2 25 19 26 25 26
115 0 56 -4 94 -10 94 -6 0 -10 -36 -10 -89 0 -99 -11 -121 -59 -121 -54 0
-66 19 -69 119 -2 52 -8 91 -14 91 -6 0 -9 -37 -6 -96z"/>
<path d="M2860 345 c-16 -19 -5 -34 12 -17 18 18 56 14 68 -7 15 -29 13 -31
-23 -31 -41 0 -77 -25 -77 -54 0 -42 45 -60 91 -36 13 7 19 7 19 0 0 -5 5 -10
10 -10 17 0 12 123 -6 148 -18 26 -75 30 -94 7z m90 -88 c0 -22 -37 -49 -62
-45 -26 3 -37 36 -16 49 21 14 78 11 78 -4z"/>
<path d="M4981 399 c-13 -11 -21 -22 -17 -26 3 -4 12 -1 18 5 23 23 28 11 28
-78 l0 -90 -30 0 c-16 0 -30 -4 -30 -10 0 -6 28 -10 65 -10 37 0 65 4 65 10 0
6 -11 10 -25 10 l-25 0 0 105 c0 113 -5 121 -49 84z"/>
<path d="M5116 347 c-33 -24 -17 -59 34 -77 33 -11 45 -21 45 -35 0 -15 -8
-21 -33 -23 -18 -2 -40 2 -48 9 -21 17 -28 5 -9 -15 34 -33 115 -14 115 28 0
28 -13 39 -63 56 -27 8 -37 17 -35 28 4 21 54 28 74 11 8 -6 18 -9 22 -5 11
12 -29 36 -58 36 -14 0 -34 -6 -44 -13z"/>
<path d="M7667 464 c-4 -4 5 -21 20 -38 l26 -31 -51 -3 c-29 -2 -52 -7 -52
-13 0 -12 197 -12 205 1 4 6 -13 10 -44 10 -37 0 -49 3 -45 13 5 15 -49 71
-59 61z"/>
<path d="M7350 447 c0 -19 52 -98 84 -126 18 -17 29 -22 37 -14 7 7 -1 18 -24
36 -18 14 -44 46 -58 71 -24 45 -39 58 -39 33z"/>
<path d="M7571 415 c-11 -25 -29 -59 -41 -74 -16 -24 -17 -30 -6 -34 8 -3 21
4 30 16 14 20 15 14 15 -81 1 -66 5 -101 11 -97 6 4 10 59 10 133 0 96 4 133
15 148 14 20 11 34 -6 34 -5 0 -17 -20 -28 -45z"/>
<path d="M7266 424 c-4 -14 -25 -45 -48 -70 -44 -48 -45 -73 -2 -33 27 25 84
107 84 121 0 20 -29 5 -34 -18z"/>
<path d="M7741 288 c-20 -96 -23 -100 -87 -96 -30 1 -54 0 -54 -4 0 -5 53 -7
118 -6 64 1 96 3 70 5 -27 2 -48 5 -48 6 0 1 9 34 20 72 24 83 24 85 7 85 -8
0 -18 -24 -26 -62z"/>
<path d="M7240 330 c0 -5 11 -10 25 -10 18 0 25 -5 25 -20 0 -38 -29 -90 -60
-108 -31 -18 -36 -27 -21 -36 14 -9 72 44 87 81 8 18 14 44 14 58 0 23 4 25
40 25 l40 0 0 -42 c0 -68 -9 -88 -37 -88 -15 0 -23 -5 -21 -12 7 -19 31 -21
53 -4 16 11 20 29 23 90 l4 76 -86 0 c-51 0 -86 -4 -86 -10z"/>
<path d="M7642 329 c2 -8 10 -35 17 -61 8 -29 19 -48 28 -48 15 0 14 4 -12 79
-11 33 -42 60 -33 30z"/>
<path d="M11225 460 c-10 -17 41 -68 55 -54 7 7 1 19 -19 38 -20 19 -31 24
-36 16z"/>
<path d="M10427 404 c-33 -68 -34 -78 -2 -72 31 6 33 -12 5 -37 -34 -30 -26
-49 18 -41 20 3 43 6 50 6 6 0 12 5 12 11 0 7 -12 10 -30 7 -16 -3 -30 -2 -30
1 0 4 16 30 35 60 40 60 40 61 21 61 -8 0 -18 -9 -21 -20 -4 -13 -15 -20 -32
-20 l-25 0 25 44 c18 32 21 46 13 49 -8 3 -24 -17 -39 -49z"/>
<path d="M10569 428 c-7 -18 -28 -49 -47 -70 -19 -21 -29 -39 -22 -43 5 -3 15
-3 21 1 6 3 49 6 95 6 81 -1 115 10 74 23 -25 8 -80 74 -80 97 0 30 -27 20
-41 -14z m64 -65 l20 -23 -56 0 -56 0 27 40 c23 36 27 38 35 23 5 -10 19 -28
30 -40z"/>
<path d="M10910 447 c0 -19 52 -98 84 -126 18 -17 29 -22 37 -14 7 7 -1 18
-24 36 -18 14 -44 46 -58 71 -24 45 -39 58 -39 33z"/>
<path d="M11131 423 c-8 -21 -24 -54 -37 -73 -18 -25 -20 -36 -11 -42 7 -4 16
1 24 15 10 19 12 7 15 -76 5 -148 22 -125 28 38 3 77 8 146 10 154 3 7 0 15
-5 17 -6 3 -17 -13 -24 -33z"/>
<path d="M10826 424 c-4 -14 -25 -45 -48 -70 -44 -48 -45 -73 -2 -33 27 25 84
107 84 121 0 20 -29 5 -34 -18z"/>
<path d="M11170 380 c0 -6 40 -10 100 -10 60 0 100 4 100 10 0 6 -40 10 -100
10 -60 0 -100 -4 -100 -10z"/>
<path d="M11294 273 l-19 -78 -58 0 c-31 0 -57 -3 -57 -7 0 -5 53 -7 118 -6
64 1 96 3 70 5 -27 2 -48 7 -48 11 0 8 23 95 34 130 5 16 3 22 -7 22 -10 0
-21 -26 -33 -77z"/>
<path d="M10800 330 c0 -5 11 -10 25 -10 18 0 25 -5 25 -20 0 -38 -29 -90 -60
-108 -31 -18 -36 -27 -21 -36 14 -9 72 44 87 81 8 18 14 44 14 58 0 23 4 25
40 25 l40 0 0 -42 c0 -68 -9 -88 -37 -88 -15 0 -23 -5 -21 -12 7 -19 31 -21
53 -4 16 11 20 29 23 90 l4 76 -86 0 c-51 0 -86 -4 -86 -10z"/>
<path d="M11200 329 c0 -28 34 -109 45 -109 11 0 9 14 -7 60 -17 53 -38 79
-38 49z"/>
<path d="M10540 215 c0 -37 4 -65 10 -65 6 0 10 5 10 10 0 6 20 10 45 10 25 0
45 -5 45 -11 0 -5 5 -7 10 -4 6 3 10 33 10 66 l0 59 -65 0 -65 0 0 -65z m110
10 c0 -35 0 -35 -45 -35 -45 0 -45 0 -45 35 0 35 0 35 45 35 45 0 45 0 45 -35z"/>
<path d="M10458 207 c-39 -7 -58 -15 -58 -25 0 -8 6 -12 14 -9 7 3 34 9 60 12
29 5 46 12 46 21 0 8 -1 13 -2 13 -2 -1 -29 -6 -60 -12z"/>
</g>
</svg>
