<?xml version="1.0" standalone="no"?>
<!DOCTYPE svg PUBLIC "-//W3C//DTD SVG 20010904//EN"
 "http://www.w3.org/TR/2001/REC-SVG-20010904/DTD/svg10.dtd">
<svg version="1.0" xmlns="http://www.w3.org/2000/svg"
 width="1314.000000pt" height="220.000000pt" viewBox="0 0 1314.000000 220.000000"
 preserveAspectRatio="xMidYMid meet">

<g transform="translate(0.000000,220.000000) scale(0.100000,-0.100000)"
fill="#000000" stroke="none">
<path d="M127 2073 c-4 -3 -7 -442 -7 -975 l0 -968 6438 0 6437 0 0 975 0 975
-6431 0 c-3537 0 -6434 -3 -6437 -7z m4732 -55 c-6 -13 -18 -31 -27 -40 -14
-16 -13 -18 1 -18 9 0 19 5 22 10 10 16 45 12 45 -5 0 -11 -11 -15 -40 -15
-22 0 -40 -4 -40 -10 0 -5 17 -10 38 -10 l37 -1 -38 -33 c-21 -19 -34 -37 -28
-40 5 -4 25 7 44 23 33 29 34 30 58 13 l24 -17 -40 -5 -40 -5 -3 -64 c-3 -63
11 -102 24 -68 5 13 20 17 70 17 36 0 64 -4 64 -10 0 -5 6 -10 13 -10 8 0 12
19 11 67 l-2 68 -36 3 c-23 2 -48 14 -68 33 l-32 29 32 0 c17 0 32 5 32 10 0
6 -13 10 -30 10 -20 0 -30 5 -30 15 0 9 9 15 25 15 14 0 25 5 25 10 0 6 -20
10 -45 10 -48 0 -48 0 -39 24 5 14 29 16 165 16 87 0 159 -4 159 -8 0 -5 -14
-28 -30 -50 -17 -23 -27 -43 -23 -44 25 -6 143 -2 143 5 0 15 -43 66 -52 61
-5 -3 -3 -12 3 -21 15 -18 -3 -33 -39 -33 -27 0 -26 1 8 52 20 31 31 38 58 38
l32 0 0 -60 c0 -55 2 -61 25 -70 35 -13 83 -2 91 22 9 29 -2 32 -25 9 -25 -25
-44 -27 -61 -6 -16 20 0 40 46 57 19 6 34 15 34 18 0 17 -15 17 -46 -2 -39
-23 -46 -21 -37 10 5 21 11 22 109 22 82 0 104 -3 104 -14 0 -17 28 -41 37
-32 4 3 1 12 -5 18 -22 22 -12 28 43 28 l55 0 0 -50 c0 -43 -3 -50 -20 -50
-11 0 -20 -4 -20 -10 0 -5 9 -10 20 -10 38 0 18 -93 -32 -146 -20 -21 -26 -34
-18 -39 6 -4 18 -1 26 6 19 15 53 82 56 106 1 10 4 -9 7 -42 l6 -60 38 -3 c40
-3 61 18 38 41 -8 8 -11 7 -11 -6 0 -12 -8 -17 -26 -17 -26 0 -26 0 -22 70 3
52 0 70 -9 70 -7 0 -13 5 -13 10 0 6 18 10 40 10 22 0 40 5 40 10 0 6 -18 10
-41 10 l-40 0 3 48 3 47 83 3 82 3 0 -46 c0 -41 -2 -45 -25 -45 -14 0 -25 -4
-25 -10 0 -5 11 -10 25 -10 24 0 25 -3 25 -55 0 -50 -2 -56 -26 -65 -14 -6
-23 -14 -19 -20 3 -6 26 -2 56 10 27 11 52 20 54 20 3 0 5 5 5 10 0 6 -11 8
-25 4 -24 -6 -25 -5 -25 45 0 44 3 51 20 51 11 0 20 5 20 10 0 6 -9 10 -20 10
-17 0 -20 7 -20 45 l0 46 63 -3 62 -3 3 -46 c3 -40 0 -47 -18 -52 -18 -5 -20
-1 -20 38 0 24 -4 47 -10 50 -6 4 -10 -14 -10 -45 0 -43 -3 -53 -20 -57 -26
-7 -26 -23 0 -23 17 0 19 -8 22 -77 l3 -78 66 -3 c51 -2 71 1 83 13 9 9 16 21
16 26 0 15 -20 10 -26 -6 -5 -11 -22 -15 -65 -15 l-60 0 3 77 c3 66 6 78 21
81 17 3 18 -3 16 -60 -2 -35 1 -62 7 -61 5 2 10 32 12 67 2 54 6 65 22 69 18
5 20 0 20 -44 0 -37 -4 -49 -15 -49 -8 0 -15 -4 -15 -8 0 -17 13 -21 31 -11
16 8 19 21 19 74 l0 64 -30 -6 c-30 -5 -30 -5 -30 41 l0 46 575 0 c568 0 575
0 575 -20 0 -17 -7 -20 -40 -20 -22 0 -40 -4 -40 -10 0 -5 18 -10 40 -10 29 0
40 -4 40 -15 0 -10 -11 -15 -35 -15 -34 0 -35 -1 -35 -40 0 -38 1 -40 32 -40
l31 0 -23 -25 c-13 -13 -32 -27 -43 -31 -13 -4 -16 -9 -9 -16 13 -13 59 14 70
40 5 11 9 2 12 -28 6 -53 23 -56 30 -4 l5 36 24 -26 c27 -29 41 -33 41 -13 0
8 -17 26 -37 40 l-38 27 37 0 c35 0 36 1 40 40 l4 40 -38 0 c-27 0 -38 4 -38
15 0 11 12 15 45 15 25 0 45 5 45 10 0 6 -20 10 -45 10 -38 0 -45 3 -45 20 0
19 7 20 115 20 l115 0 -1 -42 c-1 -42 -1 -42 -12 -15 -10 25 -27 37 -27 20 1
-25 14 -53 26 -53 8 0 14 -4 14 -10 0 -5 -11 -10 -25 -10 -14 0 -25 -4 -25
-10 0 -5 9 -10 20 -10 26 0 25 -9 -5 -45 l-26 -30 3 93 c2 68 0 92 -9 92 -10
0 -13 -32 -13 -125 l0 -125 66 0 c55 0 65 -3 60 -15 -3 -9 0 -15 10 -15 20 0
40 51 49 123 6 47 11 57 26 57 17 0 19 -9 19 -90 0 -65 3 -90 13 -90 9 0 12
24 12 87 0 78 2 88 18 87 9 -1 17 3 17 10 0 7 -17 10 -50 8 l-50 -4 0 35 c0
35 12 47 50 47 10 0 26 7 34 16 11 11 31 14 71 12 l55 -3 -24 -50 c-12 -27
-30 -56 -39 -64 -10 -7 -17 -17 -17 -22 0 -16 29 -9 39 9 8 12 10 -9 11 -80 0
-59 4 -98 10 -98 6 0 10 44 10 112 0 85 4 123 18 155 l17 43 148 0 147 0 0
-35 c0 -31 -3 -35 -25 -35 -14 0 -25 -4 -25 -10 0 -5 11 -10 25 -10 22 0 25
-4 25 -39 0 -33 -4 -40 -25 -45 -33 -8 -33 -30 0 -23 25 4 26 3 23 -42 -2 -30
-7 -45 -15 -43 -7 1 -13 -5 -13 -13 0 -16 9 -19 34 -9 12 5 16 21 16 69 0 55
3 65 20 70 11 3 20 11 20 16 0 6 -9 7 -20 4 -17 -5 -20 -2 -20 24 0 24 4 31
20 31 11 0 20 5 20 10 0 6 -9 10 -21 10 -17 0 -20 5 -17 33 3 31 5 32 51 35
42 3 51 0 68 -23 12 -14 25 -22 30 -19 6 4 3 14 -7 25 -17 19 25 19 2344 19
l2362 0 0 -170 0 -170 -6400 0 -6400 0 0 170 0 170 2355 0 2356 0 -12 -22z
m2746 12 c-11 -5 -29 -9 -41 -9 -20 -1 -21 -8 -27 -103 -8 -140 -6 -136 -80
-134 -57 1 -62 3 -65 25 -2 13 0 21 6 17 6 -3 20 6 31 21 l20 28 1 -37 c0 -21
5 -38 10 -38 6 0 10 19 10 42 0 39 1 40 18 25 27 -25 36 -7 10 20 l-21 23 21
0 c12 0 22 5 22 10 0 6 -11 10 -25 10 -23 0 -25 3 -25 48 0 27 3 52 7 55 3 4
38 7 77 6 49 0 65 -3 51 -9z m-415 -120 c0 -15 -7 -20 -25 -20 -18 0 -25 5
-25 20 0 15 7 20 25 20 18 0 25 -5 25 -20z m80 0 c0 -15 -7 -20 -25 -20 -18 0
-25 5 -25 20 0 15 7 20 25 20 18 0 25 -5 25 -20z m-2240 -80 c0 -18 -7 -20
-65 -20 -58 0 -65 2 -65 20 0 18 7 20 65 20 58 0 65 -2 65 -20z m0 -45 c0 -12
-14 -15 -65 -15 -51 0 -65 3 -65 15 0 12 14 15 65 15 51 0 65 -3 65 -15z
m-3390 -300 l0 -175 -740 0 -740 0 0 175 0 175 740 0 740 0 0 -175z m2380 0
l0 -175 -1175 0 -1175 0 0 175 0 175 1175 0 1175 0 0 -175z m2160 0 l0 -175
-1065 0 -1065 0 0 175 0 175 1065 0 1065 0 0 -175z m2690 0 l0 -175 -1325 0
-1325 0 0 175 0 175 1325 0 1325 0 0 -175z m4090 0 l0 -175 -2025 0 -2025 0 0
175 0 175 2025 0 2025 0 0 -175z m-11320 -380 l0 -175 -740 0 -740 0 0 175 0
175 740 0 740 0 0 -175z m2380 0 l0 -175 -1175 0 -1175 0 0 175 0 175 1175 0
1175 0 0 -175z m2160 0 l0 -175 -1065 0 -1065 0 0 175 0 175 1065 0 1065 0 0
-175z m2690 0 l0 -175 -1325 0 -1325 0 0 175 0 175 1325 0 1325 0 0 -175z
m4090 0 l0 -175 -2025 0 -2025 0 0 175 0 175 2025 0 2025 0 0 -175z m-11320
-380 l0 -175 -740 0 -740 0 0 175 0 175 740 0 740 0 0 -175z m2380 0 l0 -175
-1175 0 -1175 0 0 175 0 175 1175 0 1175 0 0 -175z m2160 0 l0 -175 -1065 0
-1065 0 0 175 0 175 1065 0 1065 0 0 -175z m2690 0 l0 -175 -1325 0 -1325 0 0
175 0 175 1325 0 1325 0 0 -175z m4090 0 l0 -175 -2025 0 -2025 0 0 175 0 175
2025 0 2025 0 0 -175z m-11320 -385 l0 -170 -740 0 -740 0 0 170 0 170 740 0
740 0 0 -170z m2380 0 l0 -170 -1175 0 -1175 0 0 170 0 170 1175 0 1175 0 0
-170z m2160 0 l0 -170 -1065 0 -1065 0 0 170 0 170 1065 0 1065 0 0 -170z
m1547 164 c-4 -4 5 -21 20 -38 l26 -31 -51 -3 c-29 -2 -52 -7 -52 -13 0 -12
197 -12 205 1 4 6 -13 10 -45 10 -34 0 -49 4 -44 11 3 6 -6 24 -22 40 l-28 29
567 0 567 0 0 -170 0 -170 -1325 0 -1325 0 0 170 0 170 757 0 c416 0 753 -3
750 -6z m3557 -7 c-6 -17 41 -61 56 -52 8 5 3 16 -16 36 l-28 29 832 0 832 0
0 -170 0 -170 -2025 0 -2025 0 0 170 0 170 1190 0 c971 0 1188 -2 1184 -13z"/>
<path d="M6430 1955 c0 -60 -3 -76 -17 -84 -10 -5 -14 -13 -10 -17 4 -5 16 -3
25 2 13 9 18 29 20 93 2 51 -1 81 -8 81 -6 0 -10 -30 -10 -75z"/>
<path d="M6185 2010 c-3 -5 3 -10 14 -10 16 0 21 -6 21 -25 0 -20 -5 -25 -25
-25 -14 0 -25 -4 -25 -10 0 -5 11 -10 25 -10 32 0 32 -11 -2 -50 -23 -28 -24
-32 -7 -28 10 2 28 20 39 41 25 47 55 50 55 6 0 -18 7 -37 17 -44 26 -19 5
-35 -48 -35 -27 0 -49 -4 -49 -10 0 -5 25 -10 55 -10 48 0 55 -2 55 -20 0 -18
-7 -20 -75 -20 -43 0 -75 -4 -75 -10 0 -6 57 -10 150 -10 93 0 150 4 150 10 0
6 -28 10 -65 10 -58 0 -65 2 -65 20 0 17 7 20 44 20 25 0 48 5 51 10 4 6 -13
10 -44 10 -44 0 -51 3 -51 20 0 11 -7 20 -15 20 -10 0 -15 11 -15 35 0 31 3
35 25 35 14 0 25 5 25 10 0 6 -11 10 -25 10 -20 0 -25 5 -25 25 0 19 5 25 21
25 11 0 17 5 14 10 -3 6 -37 10 -75 10 -38 0 -72 -4 -75 -10z m95 -35 c0 -18
-5 -25 -20 -25 -15 0 -20 7 -20 25 0 18 5 25 20 25 15 0 20 -7 20 -25z"/>
<path d="M7030 2013 c1 -17 40 -54 50 -48 8 5 4 15 -11 31 -22 24 -39 31 -39
17z"/>
<path d="M7820 1970 c0 -49 1 -50 30 -50 20 0 30 -5 30 -15 0 -11 -12 -15 -44
-15 -25 0 -48 -4 -51 -10 -4 -6 10 -10 34 -10 23 0 41 -2 41 -5 0 -15 -38 -60
-64 -76 -27 -16 -28 -19 -11 -25 14 -6 28 3 57 37 l38 44 0 -57 c0 -32 4 -58
10 -58 6 0 10 25 10 55 l0 54 38 -41 c22 -23 44 -38 50 -34 7 4 -7 24 -36 54
l-47 47 43 3 c56 4 54 22 -3 22 -33 0 -45 4 -45 15 0 10 10 15 29 15 28 0 29
2 33 50 l3 50 -72 0 -73 0 0 -50z m120 0 c0 -29 -1 -30 -50 -30 -49 0 -50 1
-50 30 0 29 1 30 50 30 49 0 50 -1 50 -30z"/>
<path d="M5720 2003 c0 -5 9 -19 19 -32 13 -17 20 -20 26 -12 4 7 -1 21 -11
32 -17 19 -34 25 -34 12z"/>
<path d="M6365 1950 c0 -41 4 -60 13 -60 8 0 12 19 12 60 0 41 -4 60 -12 60
-9 0 -13 -19 -13 -60z"/>
<path d="M4990 1945 l0 -55 50 0 50 0 0 55 0 55 -50 0 -50 0 0 -55z m80 5 c0
-38 -2 -40 -30 -40 -28 0 -30 2 -30 40 0 38 2 40 30 40 28 0 30 -2 30 -40z"/>
<path d="M6510 1885 c0 -96 3 -115 15 -115 12 0 15 13 15 55 l0 55 45 0 c25 0
45 5 45 10 0 6 -20 10 -45 10 l-45 0 0 40 0 40 50 0 c28 0 50 5 50 10 0 6 -28
10 -65 10 l-65 0 0 -115z"/>
<path d="M6736 1991 c-3 -5 -21 -49 -40 -97 -19 -49 -37 -97 -41 -106 -5 -12
-2 -18 7 -18 9 0 19 15 24 33 9 30 12 32 62 35 52 3 53 3 67 -32 9 -20 20 -36
25 -36 15 0 14 4 -32 122 -38 98 -57 124 -72 99z m53 -118 c1 -9 -14 -13 -40
-13 -45 0 -45 0 -12 79 l15 36 19 -45 c10 -25 18 -51 18 -57z"/>
<path d="M5480 1970 c0 -6 33 -10 80 -10 47 0 80 4 80 10 0 6 -33 10 -80 10
-47 0 -80 -4 -80 -10z"/>
<path d="M8178 1892 c-3 -72 -8 -94 -27 -121 -23 -32 -23 -50 -1 -36 17 10 50
85 50 113 0 20 5 22 50 22 28 0 50 -4 50 -10 0 -5 5 -10 10 -10 6 0 10 28 10
65 l0 65 -69 0 -69 0 -4 -88z m120 31 c-3 -38 -3 -38 -50 -41 l-48 -3 0 40 0
41 51 0 50 0 -3 -37z"/>
<path d="M5510 1900 c0 -36 3 -40 25 -40 23 0 25 -3 25 -49 0 -42 -3 -50 -20
-53 -12 -2 -17 -7 -12 -14 4 -7 15 -8 30 -3 19 7 22 15 22 64 0 52 1 55 25 55
23 0 25 4 25 40 l0 40 -60 0 -60 0 0 -40z m100 0 c0 -17 -7 -20 -40 -20 -33 0
-40 3 -40 20 0 17 7 20 40 20 33 0 40 -3 40 -20z"/>
<path d="M5222 1913 l-53 -4 3 -87 c2 -54 7 -85 13 -82 6 3 10 19 10 35 0 27
4 30 33 33 29 3 32 1 32 -22 0 -17 -6 -26 -16 -26 -8 0 -12 -4 -9 -10 3 -5 15
-10 26 -10 17 0 19 8 19 90 0 50 -1 89 -2 88 -2 -1 -27 -3 -56 -5z m38 -28 c0
-10 -11 -15 -35 -15 -33 0 -43 8 -28 23 13 14 63 7 63 -8z m0 -45 c0 -5 -16
-10 -35 -10 -19 0 -35 5 -35 10 0 6 16 10 35 10 19 0 35 -4 35 -10z"/>
<path d="M7020 1910 c0 -5 11 -10 25 -10 24 0 25 -3 25 -55 0 -49 -3 -57 -25
-67 -26 -12 -31 -23 -15 -33 6 -3 10 -2 10 3 0 20 31 21 72 2 53 -24 179 -28
197 -6 10 12 -1 14 -78 13 -59 -1 -98 4 -115 13 -24 12 -26 19 -26 82 l0 68
-35 0 c-19 0 -35 -4 -35 -10z"/>
<path d="M5319 1896 c-2 -3 -2 -37 1 -78 l5 -73 47 -3 c38 -3 49 1 62 19 15
22 13 39 -5 39 -5 0 -9 -7 -9 -15 0 -17 -42 -30 -66 -21 -10 4 -14 15 -12 32
2 21 13 30 48 44 33 14 41 20 28 25 -9 3 -30 -1 -47 -10 -31 -15 -31 -15 -31
9 0 23 -12 41 -21 32z"/>
<path d="M5501 1805 c-16 -28 -17 -35 -6 -35 17 0 49 56 36 64 -5 3 -18 -10
-30 -29z"/>
<path d="M5600 1821 c0 -13 29 -35 37 -28 7 8 -15 37 -28 37 -5 0 -9 -4 -9 -9z"/>
<path d="M6860 1730 c0 -6 30 -10 70 -10 40 0 70 4 70 10 0 6 -30 10 -70 10
-40 0 -70 -4 -70 -10z"/>
<path d="M7490 1984 c-12 -31 -12 -34 -2 -34 8 0 32 43 32 55 0 16 -22 1 -30
-21z"/>
<path d="M730 1644 c0 -4 8 -13 18 -20 15 -12 8 -13 -49 -14 l-66 0 -5 -97
c-3 -64 -11 -109 -22 -130 -13 -26 -14 -33 -3 -33 24 0 40 52 45 148 l4 92
124 0 c76 0 124 4 124 10 0 6 -26 10 -58 10 -46 0 -60 4 -70 20 -11 18 -42 28
-42 14z"/>
<path d="M999 1638 c0 -2 -1 -24 -2 -50 l-3 -48 93 0 93 0 0 50 0 50 -90 0
c-49 0 -90 -1 -91 -2z m161 -48 l0 -30 -70 0 -70 0 0 30 0 30 70 0 70 0 0 -30z"/>
<path d="M680 1560 c0 -6 31 -10 72 -10 71 0 71 0 53 -20 -10 -12 -25 -18 -32
-15 -7 3 -20 8 -28 11 -24 10 -17 -12 8 -24 19 -9 13 -11 -35 -11 -32 -1 -58
-5 -58 -11 0 -5 25 -10 55 -10 l55 0 0 -55 c0 -42 -3 -55 -15 -55 -8 0 -15 -5
-15 -11 0 -6 10 -9 23 -7 20 3 22 9 25 66 l3 62 40 0 c36 0 39 -2 29 -19 -13
-24 -13 -31 0 -31 8 0 40 51 40 65 0 3 -20 5 -45 5 -25 0 -45 3 -45 7 0 4 14
22 32 40 l32 33 -97 0 c-58 0 -97 -4 -97 -10z"/>
<path d="M935 1510 c-4 -6 12 -10 41 -10 46 0 46 0 41 -30 l-6 -30 79 0 c86 0
94 -6 64 -48 -11 -16 -25 -22 -55 -22 -21 0 -39 -4 -39 -10 0 -11 52 -13 87
-4 21 6 43 48 43 85 0 17 -9 19 -76 19 -65 0 -75 2 -70 16 3 9 6 18 6 20 0 2
41 4 90 4 53 0 90 4 90 10 0 6 -55 10 -144 10 -86 0 -147 -4 -151 -10z"/>
<path d="M2087 1644 c-3 -5 3 -20 12 -33 11 -14 21 -19 25 -13 3 5 -2 20 -12
33 -11 12 -21 18 -25 13z"/>
<path d="M2201 1620 c-6 -17 -20 -43 -31 -58 l-21 -26 20 -8 c25 -9 27 -26 6
-34 -19 -8 -20 -24 0 -24 10 0 15 -15 17 -57 l3 -58 64 0 c49 0 66 4 75 17 5
9 7 21 2 25 -4 4 -12 0 -17 -10 -7 -12 -23 -17 -59 -17 l-50 0 0 54 c0 39 4
55 15 60 12 4 15 -4 15 -44 0 -66 18 -64 22 2 2 41 7 54 21 56 23 5 24 -53 1
-66 -13 -7 -14 -11 -4 -17 20 -12 40 23 40 68 0 39 -1 39 -30 34 -27 -6 -30
-4 -30 18 0 34 -18 32 -22 -2 -4 -33 -24 -41 -31 -12 -3 11 -10 18 -16 14 -15
-9 -13 6 3 28 10 13 28 17 80 17 37 0 66 4 66 10 0 6 -27 10 -60 10 -64 0 -66
1 -50 31 8 15 7 19 -4 19 -8 0 -19 -14 -25 -30z"/>
<path d="M2440 1615 c0 -32 -2 -35 -30 -35 -16 0 -30 -4 -30 -10 0 -5 14 -10
30 -10 l31 0 -7 -52 c-7 -59 -27 -114 -50 -139 -13 -14 -13 -17 0 -22 27 -11
59 62 72 161 5 42 10 52 25 52 17 0 19 -9 19 -81 0 -72 -2 -81 -20 -86 -23 -6
-27 -33 -6 -33 35 0 46 29 46 126 l0 94 -31 0 c-30 0 -31 2 -27 35 3 24 0 35
-9 35 -8 0 -13 -13 -13 -35z"/>
<path d="M2760 1610 c0 -33 -3 -40 -20 -40 -26 0 -26 -18 0 -22 21 -3 21 -4
-4 -53 -27 -53 -20 -89 8 -39 15 28 15 28 16 -43 0 -52 4 -73 13 -73 9 0 11
20 9 80 -3 51 0 80 6 80 6 0 14 -5 17 -10 4 -6 11 -8 17 -4 5 4 -2 18 -18 35
-27 28 -27 29 -6 29 28 0 29 16 1 23 -19 5 -21 11 -16 41 4 27 2 36 -9 36 -10
0 -14 -12 -14 -40z"/>
<path d="M2935 1630 c5 -17 2 -20 -20 -20 -20 0 -26 4 -21 15 3 9 0 15 -9 15
-8 0 -15 -7 -15 -15 0 -9 -10 -15 -26 -15 -14 0 -23 -4 -19 -10 3 -5 15 -10
26 -10 10 0 19 -4 19 -10 0 -5 7 -10 16 -10 8 0 12 5 9 10 -9 14 29 12 44 -2
11 -10 14 -10 18 0 3 6 15 12 28 12 13 0 27 5 30 10 4 6 -7 10 -24 10 -24 0
-31 4 -31 20 0 11 -7 20 -16 20 -11 0 -14 -6 -9 -20z"/>
<path d="M3090 1615 c0 -28 -4 -35 -20 -35 -11 0 -20 -4 -20 -10 0 -5 9 -10
20 -10 16 0 20 -7 20 -36 0 -27 -5 -37 -20 -41 -11 -3 -20 -12 -20 -20 0 -10
6 -12 20 -8 18 6 20 2 20 -39 0 -35 -4 -46 -16 -46 -9 0 -14 -5 -12 -11 2 -6
7 -10 11 -10 4 1 14 1 22 1 12 0 15 14 15 65 0 54 3 66 20 75 11 6 20 15 20
19 0 5 -9 7 -20 4 -16 -4 -20 0 -20 17 0 13 8 24 20 27 26 7 26 23 -1 23 -19
0 -20 4 -15 35 6 28 4 35 -9 35 -11 0 -15 -10 -15 -35z"/>
<path d="M3200 1645 c0 -18 42 -85 50 -80 12 7 -26 85 -40 85 -6 0 -10 -2 -10
-5z"/>
<path d="M3290 1558 c0 -99 -14 -141 -56 -176 -24 -20 -32 -32 -24 -37 7 -4
27 8 49 29 l38 37 17 -26 c9 -14 21 -23 27 -19 6 3 0 19 -14 38 -26 33 -25 33
-13 184 3 31 0 42 -10 42 -11 0 -14 -18 -14 -72z"/>
<path d="M3430 1590 l0 -40 105 0 105 0 0 40 0 40 -105 0 -105 0 0 -40z m190
20 c0 -6 -35 -10 -86 -10 -54 0 -83 4 -79 10 3 6 42 10 86 10 46 0 79 -4 79
-10z m-37 -37 c-23 -2 -64 -2 -90 0 -26 2 -7 3 42 3 50 0 71 -1 48 -3z"/>
<path d="M2560 1480 c0 -73 4 -120 10 -120 6 0 10 9 10 20 0 16 7 20 30 20 23
0 30 -4 30 -20 0 -11 5 -20 10 -20 6 0 10 47 10 120 l0 120 -50 0 -50 0 0
-120z m80 20 l0 -80 -30 0 -30 0 0 80 0 80 30 0 30 0 0 -80z"/>
<path d="M3170 1497 c0 -57 3 -106 6 -110 8 -7 64 57 64 74 0 7 -11 3 -26 -12
l-26 -24 4 88 c2 65 0 87 -9 87 -10 0 -13 -27 -13 -103z"/>
<path d="M2040 1572 c0 -7 8 -12 18 -10 15 3 17 -5 14 -62 -3 -54 -14 -92 -40
-142 -2 -5 3 -8 11 -8 18 0 37 43 44 102 5 38 10 48 24 48 17 0 19 -8 19 -61
0 -53 -3 -62 -20 -66 -12 -3 -19 -10 -17 -16 6 -18 24 -19 41 -2 12 12 16 36
16 91 l0 74 -29 0 c-25 0 -28 3 -23 25 4 21 9 25 31 23 14 -2 27 1 29 6 1 4
-25 9 -58 10 -43 1 -60 -3 -60 -12z"/>
<path d="M2844 1561 c-2 -2 -4 -26 -4 -53 0 -47 1 -48 30 -48 17 0 30 -4 30
-10 0 -5 -20 -10 -45 -10 -25 0 -45 -4 -45 -10 0 -5 18 -10 41 -10 50 0 49
-17 -5 -44 -26 -13 -34 -22 -27 -29 12 -12 56 13 83 47 15 19 17 19 23 4 9
-23 72 -61 86 -52 7 4 -4 15 -27 28 -53 30 -55 46 -5 46 23 0 41 5 41 10 0 6
-23 10 -51 10 -31 0 -48 4 -44 10 3 6 19 10 36 10 28 0 29 1 29 53 l0 52 -71
0 c-39 0 -72 -2 -75 -4z m126 -26 c0 -11 -12 -15 -49 -15 -47 0 -68 9 -54 24
3 3 28 6 55 6 36 0 48 -4 48 -15z m0 -40 c0 -12 -13 -15 -55 -15 -51 0 -65 7
-48 23 3 4 28 7 55 7 36 0 48 -4 48 -15z"/>
<path d="M3385 1530 c-4 -7 48 -10 149 -10 97 0 156 4 156 10 0 6 -56 10 -149
10 -89 0 -152 -4 -156 -10z"/>
<path d="M3430 1465 l0 -45 50 0 c28 0 50 -4 50 -10 0 -5 -25 -10 -55 -10 -30
0 -55 -4 -55 -9 0 -4 22 -6 49 -3 30 2 51 0 55 -7 5 -8 -14 -11 -63 -11 -41 0
-71 -4 -71 -10 0 -6 55 -10 145 -10 90 0 145 4 145 10 0 6 -29 10 -66 10 -46
0 -63 3 -58 11 4 7 24 9 55 6 29 -4 49 -2 49 3 0 6 -25 10 -55 10 -30 0 -55 5
-55 10 0 6 23 10 50 10 l50 0 0 45 0 45 -110 0 -110 0 0 -45z m100 15 c0 -5
-18 -10 -40 -10 -22 0 -40 5 -40 10 0 6 18 10 40 10 22 0 40 -4 40 -10z m100
0 c0 -5 -18 -10 -40 -10 -22 0 -40 5 -40 10 0 6 18 10 40 10 22 0 40 -4 40
-10z m-100 -30 c0 -5 -18 -10 -41 -10 -24 0 -38 4 -34 10 3 6 22 10 41 10 19
0 34 -4 34 -10z m95 0 c4 -6 -10 -10 -35 -10 -25 0 -39 4 -35 10 3 6 19 10 35
10 16 0 32 -4 35 -10z"/>
<path d="M4505 1596 c-14 -29 -25 -56 -25 -59 0 -4 14 -7 31 -7 l31 0 -26 -34
c-36 -48 -34 -58 12 -51 51 9 62 13 62 23 0 5 -13 7 -30 4 -16 -2 -30 -2 -30
2 0 3 14 29 31 57 23 36 29 53 21 61 -8 8 -14 4 -23 -15 -7 -15 -20 -27 -31
-27 -24 0 -23 10 6 53 19 28 21 37 10 41 -9 4 -22 -12 -39 -48z"/>
<path d="M4670 1620 c0 -28 -3 -30 -35 -30 -19 0 -35 -4 -35 -10 0 -5 16 -10
35 -10 31 0 35 -3 35 -25 0 -21 -5 -25 -30 -25 -16 0 -30 -4 -30 -10 0 -6 32
-10 75 -10 43 0 75 4 75 10 0 6 -16 10 -35 10 -31 0 -35 3 -35 25 0 23 4 25
45 25 25 0 45 5 45 10 0 6 -20 10 -45 10 -46 0 -53 7 -35 41 9 16 7 19 -10 19
-16 0 -20 -6 -20 -30z"/>
<path d="M4953 1630 c5 -19 0 -20 -64 -20 -88 0 -90 -18 -2 -22 42 -2 68 -8
71 -15 2 -9 -11 -13 -47 -13 l-51 0 0 -45 0 -45 37 0 37 0 -30 -31 c-16 -17
-42 -37 -57 -45 -15 -8 -25 -19 -22 -24 10 -17 21 -11 73 35 27 25 53 45 57
45 4 0 5 -25 2 -55 -4 -44 -3 -55 9 -55 11 0 14 15 14 61 l0 62 20 -26 c26
-33 87 -70 100 -62 6 4 -8 19 -32 34 -24 15 -49 35 -57 44 -12 15 -10 17 23
17 l36 0 0 45 0 45 -45 0 c-33 0 -45 4 -45 15 0 12 14 15 65 15 37 0 65 4 65
10 0 6 -28 10 -65 10 -58 0 -65 2 -65 20 0 12 -7 20 -16 20 -11 0 -15 -6 -11
-20z m5 -117 c3 -21 -1 -23 -37 -23 -37 0 -41 2 -41 26 0 23 3 25 38 22 30 -2
38 -7 40 -25z m92 2 c0 -22 -4 -25 -35 -25 -31 0 -35 3 -35 25 0 22 4 25 35
25 31 0 35 -3 35 -25z"/>
<path d="M5239 1628 c-6 -13 -25 -38 -42 -55 -25 -27 -27 -33 -13 -33 9 0 29
14 43 30 21 26 32 30 74 30 53 0 59 -7 31 -33 -24 -22 -35 -21 -57 3 -10 11
-22 17 -27 14 -5 -3 1 -17 13 -30 12 -13 21 -25 18 -27 -7 -6 -63 -25 -91 -31
-31 -7 -38 -26 -10 -26 9 0 42 11 72 23 53 22 56 22 95 6 52 -23 97 -28 102
-11 3 7 -5 12 -21 12 -15 0 -43 7 -62 15 l-36 15 31 35 c17 20 31 40 31 45 0
6 -30 10 -67 11 -38 0 -62 3 -55 6 6 2 10 9 6 14 -9 15 -23 10 -35 -13z"/>
<path d="M5560 1635 c0 -21 -28 -75 -52 -102 -12 -12 -17 -27 -13 -34 6 -8 13
-5 26 12 18 24 19 23 19 -73 0 -59 4 -98 10 -98 6 0 10 45 10 115 0 85 4 124
15 146 16 29 13 49 -6 49 -5 0 -9 -7 -9 -15z"/>
<path d="M5680 1610 c0 -34 -3 -40 -21 -40 -16 0 -19 4 -14 20 4 13 2 20 -7
20 -8 0 -19 -19 -26 -42 -7 -24 -15 -49 -18 -55 -11 -25 17 -13 28 12 7 16 19
25 35 25 20 0 23 -5 23 -35 0 -35 0 -35 -45 -35 -25 0 -45 -4 -45 -10 0 -5 20
-10 45 -10 l45 0 0 -60 c0 -33 4 -60 10 -60 6 0 10 27 10 60 l0 60 50 0 c28 0
50 5 50 10 0 6 -22 10 -50 10 l-50 0 0 35 c0 33 2 35 35 35 19 0 35 5 35 10 0
6 -16 10 -36 10 l-37 0 6 40 c4 30 2 40 -9 40 -10 0 -14 -12 -14 -40z"/>
<path d="M5290 1480 c0 -17 -7 -20 -45 -20 -25 0 -45 -4 -45 -10 0 -5 20 -10
45 -10 l45 0 0 -40 c0 -34 -3 -40 -21 -40 -11 0 -17 -4 -14 -10 3 -5 17 -10
31 -10 22 0 24 4 24 50 l0 50 50 0 c28 0 50 5 50 10 0 6 -23 10 -51 10 -46 0
-51 2 -46 20 3 13 0 20 -9 20 -8 0 -14 -9 -14 -20z"/>
<path d="M4620 1405 c0 -37 4 -65 10 -65 6 0 10 7 10 15 0 22 86 21 94 -1 12
-31 21 -4 18 55 l-4 61 -64 0 -64 0 0 -65z m110 10 c0 -35 0 -35 -45 -35 -45
0 -45 0 -45 35 0 35 0 35 45 35 45 0 45 0 45 -35z"/>
<path d="M5203 1400 c-35 -32 -40 -40 -22 -40 16 0 79 57 72 64 -10 10 -16 7
-50 -24z"/>
<path d="M5340 1421 c0 -13 70 -64 78 -56 4 4 -9 20 -28 36 -35 30 -50 36 -50
20z"/>
<path d="M4526 1396 c-36 -11 -62 -36 -39 -36 21 0 103 33 103 41 0 11 -15 10
-64 -5z"/>
<path d="M7428 1609 l-28 -39 -70 0 c-40 0 -70 -4 -70 -10 0 -6 27 -10 61 -10
59 0 61 -1 55 -22 -3 -13 -6 -26 -6 -30 0 -5 -27 -8 -60 -8 -33 0 -60 -4 -60
-10 0 -6 27 -10 60 -10 33 0 60 -4 60 -9 0 -20 -53 -71 -85 -83 -19 -6 -35
-15 -35 -18 0 -42 115 30 133 83 2 6 18 -5 37 -26 39 -45 85 -71 108 -62 13 5
8 11 -23 26 -40 20 -95 66 -95 81 0 4 27 8 60 8 33 0 60 4 60 10 0 6 -30 10
-71 10 -61 0 -70 2 -65 16 3 9 6 22 6 30 0 11 15 14 62 14 67 0 71 16 5 22
l-39 3 22 28 c13 16 19 32 14 37 -5 4 -21 -9 -36 -31z"/>
<path d="M7650 1563 c0 -47 -3 -83 -6 -80 -4 3 -20 -12 -36 -34 -37 -51 -27
-66 13 -19 l28 35 1 -62 c0 -62 1 -63 26 -61 30 3 64 42 90 104 l17 39 14 -35
c23 -54 63 -104 76 -91 7 7 1 20 -17 42 -28 32 -56 91 -56 115 0 10 13 14 40
14 22 0 40 5 40 10 0 6 -21 10 -46 10 l-46 0 4 50 c2 35 -1 50 -9 50 -9 0 -13
-17 -13 -50 l0 -50 -40 0 c-22 0 -40 -4 -40 -10 0 -5 16 -10 35 -10 29 0 35
-4 35 -20 0 -45 -56 -140 -82 -140 -6 0 -8 61 -6 140 2 107 0 140 -9 140 -10
0 -13 -24 -13 -87z"/>
<path d="M8048 1628 c-3 -21 -9 -23 -65 -26 -78 -4 -84 -22 -8 -22 30 0 55 -4
55 -9 0 -15 -79 -81 -97 -81 -12 0 -14 -3 -6 -11 18 -18 49 -1 98 53 l46 51
35 -42 c45 -52 93 -79 105 -59 6 9 0 15 -20 20 -30 8 -81 50 -81 68 0 5 22 10
50 10 28 0 50 5 50 10 0 6 -30 10 -71 10 -71 0 -71 0 -65 25 5 18 2 25 -8 25
-8 0 -16 -10 -18 -22z"/>
<path d="M7290 1634 c0 -7 25 -29 53 -45 12 -7 17 -6 17 3 0 8 -13 21 -29 31
-31 18 -41 21 -41 11z"/>
<path d="M6930 1620 c0 -5 14 -10 30 -10 29 0 30 -2 30 -45 l0 -45 -40 0 c-28
0 -40 -4 -40 -14 0 -11 10 -13 40 -9 33 5 40 3 40 -11 0 -27 -26 -79 -49 -100
-25 -22 -27 -36 -6 -36 21 0 64 68 71 113 6 36 7 37 50 37 l44 0 0 -75 c0 -96
18 -98 22 -2 l3 72 38 -1 c25 -1 37 3 37 12 0 10 -13 14 -40 14 l-40 0 0 45
c0 43 1 45 30 45 17 0 30 5 30 10 0 6 -48 10 -125 10 -77 0 -125 -4 -125 -10z
m170 -55 l0 -45 -45 0 -45 0 0 45 0 45 45 0 45 0 0 -45z"/>
<path d="M7826 1595 c15 -23 34 -34 34 -19 0 16 -23 44 -36 44 -12 0 -12 -4 2
-25z"/>
<path d="M7590 1581 c0 -15 38 -56 45 -49 9 9 -21 58 -35 58 -6 0 -10 -4 -10
-9z"/>
<path d="M8046 1522 c-7 -11 31 -48 41 -38 4 3 -2 16 -14 27 -11 12 -23 17
-27 11z"/>
<path d="M8046 1462 c-3 -5 5 -19 18 -31 16 -16 26 -19 31 -11 4 6 5 12 4 13
-2 1 -14 10 -26 20 -11 10 -24 14 -27 9z"/>
<path d="M7939 1405 c-22 -46 -7 -54 20 -11 24 39 26 46 9 46 -7 -1 -20 -16
-29 -35z"/>
<path d="M8010 1395 c0 -42 1 -44 34 -50 48 -9 106 11 106 36 0 14 -20 10 -37
-7 -9 -9 -28 -14 -47 -12 -28 3 -31 7 -34 41 -4 52 -22 46 -22 -8z"/>
<path d="M8150 1432 c0 -14 49 -56 57 -49 3 4 -4 18 -17 32 -24 25 -40 32 -40
17z"/>
<path d="M10370 1564 c0 -47 -4 -83 -9 -80 -13 8 -75 -74 -64 -85 6 -6 20 6
39 32 l29 42 3 -67 c3 -64 4 -67 25 -61 31 9 76 63 89 109 l12 39 18 -43 c26
-62 56 -100 73 -93 12 4 10 12 -12 37 -27 32 -62 101 -63 124 0 8 16 12 45 12
25 0 45 5 45 10 0 6 -23 10 -51 10 l-52 0 5 50 c4 38 2 50 -8 50 -10 0 -14
-15 -14 -50 l0 -50 -35 0 c-19 0 -35 -4 -35 -10 0 -5 16 -10 35 -10 33 0 35
-1 29 -27 -11 -48 -31 -87 -55 -113 l-24 -25 -3 143 c-1 83 -7 142 -12 142 -6
0 -10 -37 -10 -86z"/>
<path d="M10760 1625 c0 -24 -3 -25 -60 -25 -33 0 -60 -4 -60 -10 0 -5 25 -10
56 -10 l55 0 -22 -31 c-12 -17 -39 -39 -60 -48 -28 -13 -36 -20 -27 -29 15
-15 90 37 115 78 22 38 33 37 58 -3 22 -34 82 -80 99 -74 20 7 16 25 -8 31
-27 7 -86 53 -86 67 0 5 23 9 50 9 28 0 50 5 50 10 0 6 -30 10 -70 10 -70 0
-70 0 -64 25 5 19 2 25 -10 25 -10 0 -16 -9 -16 -25z"/>
<path d="M11066 1617 c-14 -18 -37 -39 -51 -47 -14 -7 -25 -17 -25 -22 0 -15
23 -8 56 17 26 20 44 25 90 25 l58 0 -33 -34 -34 -35 -28 21 c-16 12 -32 18
-36 14 -4 -4 3 -16 17 -26 25 -19 25 -19 5 -34 -11 -9 -42 -23 -68 -32 -35
-11 -46 -19 -38 -27 7 -7 18 -7 36 1 14 7 28 12 30 12 3 0 5 -25 5 -55 0 -30
5 -55 10 -55 6 0 10 5 10 10 0 6 32 10 75 10 43 0 75 -4 75 -10 0 -5 5 -10 10
-10 6 0 10 30 10 70 l0 70 -66 0 -65 0 60 56 c34 31 61 60 61 65 0 5 -33 9
-72 9 -63 1 -71 3 -56 14 17 12 15 26 -3 26 -4 0 -19 -15 -33 -33z m154 -197
l0 -40 -75 0 -75 0 0 40 0 40 75 0 75 0 0 -40z"/>
<path d="M11484 1633 c-16 -46 -48 -106 -52 -95 -2 7 -12 12 -23 12 -29 0 -27
56 3 64 16 4 20 8 12 16 -8 8 -19 8 -38 0 -15 -5 -39 -10 -52 -10 -14 0 -22
-4 -19 -10 3 -5 15 -10 26 -10 14 0 19 -7 19 -25 0 -20 -5 -25 -25 -25 -14 0
-25 -4 -25 -10 0 -5 11 -10 25 -10 14 0 25 -2 25 -5 0 -11 -32 -70 -47 -87
-10 -11 -11 -18 -3 -23 13 -8 13 -9 33 30 l16 30 1 -67 c0 -54 3 -68 15 -68
12 0 15 15 15 73 1 63 2 70 14 54 10 -12 16 -15 21 -7 4 6 -2 22 -14 34 -29
31 -26 39 12 32 29 -5 35 -3 47 19 11 21 20 25 62 25 46 0 48 -1 38 -20 -8
-16 -8 -20 4 -20 8 0 19 14 25 30 l10 30 -59 0 c-59 0 -59 0 -50 25 6 15 6 26
0 30 -6 4 -13 -2 -16 -12z"/>
<path d="M10530 1613 c0 -4 7 -17 15 -27 17 -23 34 -13 19 11 -12 19 -34 29
-34 16z"/>
<path d="M10300 1585 c0 -12 33 -55 41 -55 15 0 10 26 -9 43 -19 17 -32 22
-32 12z"/>
<path d="M11510 1449 c0 -86 -1 -91 -20 -86 -23 6 -27 -11 -5 -19 32 -13 44
15 47 107 2 66 0 89 -9 89 -10 0 -13 -25 -13 -91z"/>
<path d="M10756 1521 c-3 -5 5 -16 19 -25 19 -12 25 -13 25 -4 0 17 -37 41
-44 29z"/>
<path d="M11550 1481 c0 -20 43 -81 56 -81 11 0 6 13 -16 45 -31 45 -40 53
-40 36z"/>
<path d="M11460 1471 c0 -4 -11 -25 -25 -45 -22 -32 -23 -37 -8 -34 10 2 28
22 41 46 20 35 21 42 8 42 -9 0 -16 -4 -16 -9z"/>
<path d="M10760 1453 c0 -5 12 -16 25 -26 19 -13 25 -15 25 -4 0 7 -5 18 -12
25 -13 13 -38 16 -38 5z"/>
<path d="M10663 1423 c-3 -10 -12 -25 -20 -35 -9 -10 -11 -18 -4 -22 10 -7 51
44 51 63 0 18 -20 13 -27 -6z"/>
<path d="M10720 1397 c0 -42 2 -46 30 -52 37 -8 85 2 101 21 18 22 4 28 -24 9
-14 -9 -38 -15 -54 -13 -24 3 -28 7 -29 37 0 19 -5 36 -12 39 -8 2 -12 -11
-12 -41z"/>
<path d="M10870 1432 c0 -14 46 -53 53 -45 4 3 -3 17 -15 30 -22 23 -38 30
-38 15z"/>
<path d="M885 1195 c-31 -25 -28 -33 6 -15 18 10 19 7 19 -80 l0 -90 -30 0
c-16 0 -30 -4 -30 -10 0 -6 28 -10 65 -10 37 0 65 4 65 10 0 6 -11 10 -25 10
l-25 0 0 105 c0 58 -3 105 -7 105 -5 0 -21 -11 -38 -25z"/>
<path d="M2520 1070 c0 -6 120 -10 340 -10 220 0 340 4 340 10 0 6 -120 10
-340 10 -220 0 -340 -4 -340 -10z"/>
<path d="M5022 1204 c-12 -8 -22 -22 -22 -30 0 -20 13 -17 28 6 16 27 68 27
82 1 15 -29 3 -50 -56 -107 -75 -70 -73 -84 16 -84 40 0 70 4 70 10 0 6 -27
10 -62 10 l-61 0 61 64 c36 37 62 73 62 85 0 51 -71 78 -118 45z"/>
<path d="M5176 1147 c-33 -24 -17 -59 34 -77 33 -11 45 -21 45 -35 0 -15 -8
-21 -33 -23 -18 -2 -40 2 -48 9 -21 17 -28 5 -9 -15 34 -33 115 -14 115 28 0
28 -13 39 -63 56 -27 8 -37 17 -35 28 4 21 54 28 74 11 8 -6 18 -9 22 -5 11
12 -29 36 -58 36 -14 0 -34 -6 -44 -13z"/>
<path d="M7727 1264 c-4 -4 5 -21 20 -38 l26 -31 -51 -3 c-29 -2 -52 -7 -52
-13 0 -12 197 -12 205 1 4 6 -13 10 -44 10 -37 0 -49 3 -45 13 5 15 -49 71
-59 61z"/>
<path d="M7352 1215 c-18 -26 -48 -53 -69 -62 -21 -10 -40 -18 -42 -20 -1 -1
0 -7 4 -13 9 -15 81 27 116 70 l29 35 15 -23 c25 -35 104 -85 123 -77 13 5 7
12 -29 30 -44 23 -99 76 -99 96 0 20 -18 7 -48 -36z"/>
<path d="M7631 1215 c-11 -25 -29 -59 -41 -74 -16 -24 -17 -30 -6 -34 8 -3 21
4 30 16 14 20 15 14 15 -81 1 -66 5 -101 11 -97 6 4 10 59 10 133 0 96 4 133
15 148 14 20 11 34 -6 34 -5 0 -17 -20 -28 -45z"/>
<path d="M7801 1088 c-20 -96 -23 -100 -87 -96 -30 1 -54 0 -54 -4 0 -5 53 -7
118 -6 64 1 96 3 70 5 -27 2 -48 5 -48 6 0 1 9 34 20 72 24 83 24 85 7 85 -8
0 -18 -24 -26 -62z"/>
<path d="M7310 1130 c0 -6 33 -10 80 -10 47 0 80 4 80 10 0 6 -33 10 -80 10
-47 0 -80 -4 -80 -10z"/>
<path d="M7702 1129 c2 -8 10 -35 17 -61 8 -29 19 -48 28 -48 15 0 14 4 -12
79 -11 33 -42 60 -33 30z"/>
<path d="M7300 1015 c0 -37 4 -65 10 -65 6 0 10 5 10 10 0 6 32 10 75 10 43 0
75 -4 75 -10 0 -5 5 -10 10 -10 6 0 10 28 10 65 l0 65 -95 0 -95 0 0 -65z
m170 10 l0 -35 -75 0 -75 0 0 35 0 35 75 0 75 0 0 -35z"/>
<path d="M10580 1253 c0 -3 7 -15 17 -25 15 -17 13 -18 -50 -18 l-67 0 0 -30
c0 -16 5 -30 10 -30 6 0 10 9 10 20 0 19 7 20 110 20 103 0 110 -1 110 -20 0
-11 5 -20 10 -20 6 0 10 14 10 30 0 30 0 30 -56 30 -30 0 -53 4 -50 9 3 5 -5
16 -19 25 -26 17 -35 20 -35 9z"/>
<path d="M10870 1173 c0 -47 -3 -83 -6 -80 -4 3 -20 -12 -36 -34 -37 -51 -27
-66 13 -19 l28 35 1 -62 c0 -62 1 -63 26 -61 30 3 64 42 90 104 l17 39 14 -35
c23 -54 63 -104 76 -91 7 7 1 20 -17 42 -28 32 -56 91 -56 115 0 10 13 14 40
14 22 0 40 5 40 10 0 6 -21 10 -46 10 l-46 0 4 50 c2 35 -1 50 -9 50 -9 0 -13
-17 -13 -50 l0 -50 -40 0 c-22 0 -40 -4 -40 -10 0 -5 16 -10 35 -10 29 0 35
-4 35 -20 0 -45 -56 -140 -82 -140 -6 0 -8 61 -6 140 2 107 0 140 -9 140 -10
0 -13 -24 -13 -87z"/>
<path d="M11268 1238 c-3 -21 -9 -23 -65 -26 -78 -4 -84 -22 -8 -22 30 0 55
-4 55 -9 0 -15 -79 -81 -97 -81 -12 0 -14 -3 -6 -11 18 -18 49 -1 98 53 l46
51 35 -42 c45 -52 93 -79 105 -59 6 9 0 15 -20 20 -30 8 -81 50 -81 68 0 5 22
10 50 10 28 0 50 5 50 10 0 6 -30 10 -71 10 -71 0 -71 0 -65 25 5 18 2 25 -8
25 -8 0 -16 -10 -18 -22z"/>
<path d="M11046 1205 c15 -23 34 -34 34 -19 0 16 -23 44 -36 44 -12 0 -12 -4
2 -25z"/>
<path d="M10810 1191 c0 -15 38 -56 45 -49 9 9 -21 58 -35 58 -6 0 -10 -4 -10
-9z"/>
<path d="M10539 1137 c-14 -12 -34 -27 -44 -33 -12 -6 -15 -13 -8 -17 10 -6
103 52 103 66 0 14 -25 6 -51 -16z"/>
<path d="M10640 1151 c0 -10 75 -61 90 -61 21 0 8 16 -34 43 -46 29 -56 32
-56 18z"/>
<path d="M11266 1132 c-7 -11 31 -48 41 -38 4 3 -2 16 -14 27 -11 12 -23 17
-27 11z"/>
<path d="M10510 1070 c0 -5 20 -10 45 -10 l45 0 0 -40 0 -40 -70 0 c-40 0 -70
-4 -70 -10 0 -6 55 -10 145 -10 90 0 145 4 145 10 0 6 -28 10 -65 10 l-65 0 0
40 0 40 45 0 c25 0 45 5 45 10 0 6 -40 10 -100 10 -60 0 -100 -4 -100 -10z"/>
<path d="M11266 1072 c-3 -5 5 -19 18 -31 16 -16 26 -19 31 -11 4 6 5 12 4 13
-2 1 -14 10 -26 20 -11 10 -24 14 -27 9z"/>
<path d="M11159 1015 c-22 -46 -7 -54 20 -11 24 39 26 46 9 46 -7 -1 -20 -16
-29 -35z"/>
<path d="M11230 1005 c0 -42 1 -44 34 -50 48 -9 106 11 106 36 0 14 -20 10
-37 -7 -9 -9 -28 -14 -47 -12 -28 3 -31 7 -34 41 -4 52 -22 46 -22 -8z"/>
<path d="M11370 1042 c0 -14 49 -56 57 -49 3 4 -4 18 -17 32 -24 25 -40 32
-40 17z"/>
<path d="M867 822 c-18 -19 -23 -42 -9 -42 4 0 13 9 20 20 22 36 82 23 82 -18
0 -17 -19 -45 -60 -88 -33 -34 -60 -67 -60 -73 0 -7 26 -11 70 -11 84 0 94 18
13 22 l-58 3 58 56 c62 62 74 101 39 132 -25 22 -75 21 -95 -1z"/>
<path d="M2760 725 c0 -70 4 -115 10 -115 6 0 10 45 10 115 0 70 -4 115 -10
115 -6 0 -10 -45 -10 -115z"/>
<path d="M2850 765 c-16 -19 -5 -34 12 -17 18 18 56 14 68 -7 15 -29 13 -31
-23 -31 -41 0 -77 -25 -77 -54 0 -42 45 -60 91 -36 13 7 19 7 19 0 0 -5 5 -10
10 -10 17 0 12 123 -6 148 -18 26 -75 30 -94 7z m90 -88 c0 -22 -37 -49 -62
-45 -26 3 -37 36 -16 49 21 14 78 11 78 -4z"/>
<path d="M4870 850 c0 -36 -2 -40 -25 -40 -14 0 -25 -4 -25 -10 0 -5 11 -10
25 -10 22 0 25 -4 25 -33 0 -26 -6 -36 -25 -45 -14 -6 -25 -16 -25 -22 0 -13
6 -13 31 0 18 10 19 7 19 -39 0 -37 -4 -53 -17 -60 -10 -5 -14 -13 -10 -17 4
-5 16 -3 25 2 12 8 18 28 20 75 2 43 8 66 18 72 19 11 18 28 -1 21 -11 -5 -15
1 -15 20 0 16 6 26 15 26 8 0 15 5 15 10 0 6 -7 10 -15 10 -11 0 -15 11 -15
40 0 22 -4 40 -10 40 -5 0 -10 -18 -10 -40z"/>
<path d="M5005 860 c18 -20 17 -20 -28 -20 -46 0 -47 -1 -47 -30 0 -19 5 -30
14 -30 9 0 12 7 9 20 -5 19 0 20 66 20 64 0 71 -2 71 -20 0 -11 5 -20 10 -20
6 0 10 14 10 30 0 29 -2 30 -42 30 -23 0 -38 3 -35 7 10 9 -13 33 -31 33 -13
0 -12 -3 3 -20z"/>
<path d="M5320 875 c0 -3 9 -23 20 -45 27 -53 89 -115 102 -102 7 7 -3 22 -30
46 -22 20 -47 52 -56 71 -14 30 -36 48 -36 30z"/>
<path d="M5225 820 c-14 -27 -36 -57 -50 -66 -14 -9 -25 -20 -25 -25 0 -14 26
-11 39 4 6 8 23 12 41 9 24 -3 30 -9 30 -29 0 -33 -24 -77 -56 -102 -32 -25
-23 -48 10 -26 25 17 62 82 71 128 5 23 10 27 41 27 l35 0 -3 -62 c-3 -61 -4
-63 -31 -66 -16 -2 -27 -8 -24 -15 6 -19 32 -19 55 0 17 15 21 32 24 88 l3 70
-82 3 c-46 2 -83 4 -83 6 0 2 11 24 25 47 27 48 30 59 15 59 -5 0 -21 -22 -35
-50z"/>
<path d="M4956 753 c-39 -46 -24 -55 20 -11 25 24 32 37 22 40 -7 3 -26 -10
-42 -29z"/>
<path d="M5040 772 c0 -14 49 -56 57 -49 3 4 -4 18 -17 32 -24 25 -40 32 -40
17z"/>
<path d="M4950 690 c0 -5 14 -10 30 -10 28 0 30 -3 30 -35 0 -35 0 -35 -45
-35 -25 0 -45 -4 -45 -10 0 -6 40 -10 100 -10 60 0 100 4 100 10 0 6 -20 10
-45 10 -45 0 -45 0 -45 35 0 32 2 35 29 35 17 0 33 5 36 10 4 6 -22 10 -69 10
-44 0 -76 -4 -76 -10z"/>
<path d="M7727 884 c-4 -4 5 -21 20 -38 l26 -31 -51 -3 c-29 -2 -52 -7 -52
-13 0 -12 197 -12 205 1 4 6 -13 10 -44 10 -37 0 -49 3 -45 13 5 15 -49 71
-59 61z"/>
<path d="M7352 835 c-18 -26 -48 -53 -69 -62 -21 -10 -40 -18 -42 -20 -1 -1 0
-7 4 -13 9 -15 81 27 116 70 l29 35 15 -23 c25 -35 104 -85 123 -77 13 5 7 12
-29 30 -44 23 -99 76 -99 96 0 20 -18 7 -48 -36z"/>
<path d="M7631 835 c-11 -25 -29 -59 -41 -74 -16 -24 -17 -30 -6 -34 8 -3 21
4 30 16 14 20 15 14 15 -81 1 -66 5 -101 11 -97 6 4 10 59 10 133 0 96 4 133
15 148 14 20 11 34 -6 34 -5 0 -17 -20 -28 -45z"/>
<path d="M7801 708 c-20 -96 -23 -100 -87 -96 -30 1 -54 0 -54 -4 0 -5 53 -7
118 -6 64 1 96 3 70 5 -27 2 -48 5 -48 6 0 1 9 34 20 72 24 83 24 85 7 85 -8
0 -18 -24 -26 -62z"/>
<path d="M7310 750 c0 -6 33 -10 80 -10 47 0 80 4 80 10 0 6 -33 10 -80 10
-47 0 -80 -4 -80 -10z"/>
<path d="M7702 749 c2 -8 10 -35 17 -61 8 -29 19 -48 28 -48 15 0 14 4 -12 79
-11 33 -42 60 -33 30z"/>
<path d="M7300 635 c0 -37 4 -65 10 -65 6 0 10 5 10 10 0 6 32 10 75 10 43 0
75 -4 75 -10 0 -5 5 -10 10 -10 6 0 10 28 10 65 l0 65 -95 0 -95 0 0 -65z
m170 10 l0 -35 -75 0 -75 0 0 35 0 35 75 0 75 0 0 -35z"/>
<path d="M10628 843 c-3 -33 -7 -38 -30 -41 -34 -4 -37 -20 -4 -24 23 -3 24
-4 11 -33 -8 -16 -22 -40 -31 -52 -15 -21 -15 -23 0 -23 8 0 23 15 33 33 l18
32 3 -82 c4 -107 22 -108 22 -2 0 72 2 80 15 69 25 -21 30 -2 7 23 -27 29 -28
37 -3 37 11 0 23 5 26 10 4 6 -5 10 -19 10 -24 0 -26 4 -26 40 0 51 -18 53
-22 3z"/>
<path d="M11130 845 l0 -35 -65 0 c-37 0 -65 -4 -65 -10 0 -6 28 -10 65 -10
l65 0 0 -70 c0 -63 -2 -70 -20 -70 -11 0 -20 -7 -20 -15 0 -18 31 -20 48 -3 7
7 12 42 12 85 0 71 1 73 25 73 14 0 25 5 25 10 0 6 -11 10 -25 10 -22 0 -25 4
-25 35 0 19 -4 35 -10 35 -5 0 -10 -16 -10 -35z"/>
<path d="M11400 873 c0 -3 7 -15 17 -25 15 -17 14 -18 -30 -18 -26 0 -47 -4
-47 -10 0 -5 11 -10 25 -10 14 0 25 -4 25 -9 0 -4 -11 -20 -25 -35 -14 -15
-25 -30 -25 -33 0 -3 34 -3 75 -1 42 3 78 1 81 -3 8 -14 24 -11 24 4 0 17 -54
69 -63 61 -4 -4 -2 -13 5 -21 16 -19 6 -25 -41 -21 l-41 3 25 28 c21 22 34 27
75 27 28 0 50 5 50 10 0 6 -18 10 -40 10 -28 0 -40 4 -40 15 0 8 -9 19 -19 25
-23 12 -31 13 -31 3z"/>
<path d="M10710 715 c0 -90 4 -145 10 -145 6 0 10 9 10 20 0 17 7 20 50 20 38
0 50 -4 50 -15 0 -8 5 -15 10 -15 6 0 10 53 10 140 l0 140 -70 0 -70 0 0 -145z
m120 95 c0 -29 -1 -30 -50 -30 -49 0 -50 1 -50 30 0 29 1 30 50 30 49 0 50 -1
50 -30z m0 -75 c0 -23 -3 -25 -50 -25 -47 0 -50 2 -50 25 0 23 3 25 50 25 47
0 50 -2 50 -25z m0 -75 c0 -29 -1 -30 -50 -30 -49 0 -50 1 -50 30 0 29 1 30
50 30 49 0 50 -1 50 -30z"/>
<path d="M10930 852 c0 -5 11 -19 24 -31 29 -27 47 -10 20 20 -17 19 -44 26
-44 11z"/>
<path d="M11270 852 c0 -5 9 -17 20 -27 14 -13 24 -15 31 -8 8 8 4 15 -12 27
-26 18 -39 20 -39 8z"/>
<path d="M10382 732 c-46 -118 -47 -122 -32 -122 5 0 16 16 25 36 14 35 15 35
67 32 50 -3 53 -5 62 -35 5 -18 15 -33 22 -33 8 0 14 1 14 3 0 1 -19 51 -43
112 -25 64 -49 111 -58 113 -11 2 -27 -29 -57 -106z m72 45 c32 -77 31 -77
-13 -77 -23 0 -41 3 -41 8 0 10 33 102 37 102 1 0 9 -15 17 -33z"/>
<path d="M11247 774 c-10 -10 41 -46 54 -38 8 5 4 13 -12 25 -26 20 -33 22
-42 13z"/>
<path d="M10900 750 c0 -5 11 -10 25 -10 24 0 25 -3 25 -53 0 -48 -3 -55 -27
-66 -19 -9 -23 -15 -15 -23 9 -9 16 -7 31 6 18 17 21 16 60 -3 50 -26 195 -31
204 -7 4 11 -11 13 -81 12 -54 0 -99 4 -119 13 -32 13 -33 15 -33 77 l0 64
-35 0 c-19 0 -35 -4 -35 -10z"/>
<path d="M11030 743 c1 -10 36 -53 44 -53 13 0 5 28 -12 43 -20 18 -32 22 -32
10z"/>
<path d="M11357 663 c-3 -29 -12 -52 -23 -60 -12 -9 -15 -16 -8 -23 17 -17 44
23 53 79 6 38 5 51 -4 51 -7 0 -15 -20 -18 -47z"/>
<path d="M11410 645 c0 -37 4 -65 10 -65 6 0 10 22 10 49 0 27 3 56 6 65 4 11
1 16 -10 16 -13 0 -16 -12 -16 -65z"/>
<path d="M11470 645 l0 -65 30 0 c30 0 51 23 35 38 -4 4 -10 1 -12 -5 -3 -7
-11 -13 -19 -13 -10 0 -14 14 -14 55 0 30 -4 55 -10 55 -6 0 -10 -28 -10 -65z"/>
<path d="M11277 642 c-25 -50 -29 -80 -8 -56 23 26 54 95 45 103 -5 5 -20 -14
-37 -47z"/>
<path d="M850 433 c-14 -18 -17 -29 -10 -31 6 -2 18 5 26 17 24 34 84 25 84
-13 0 -28 -18 -46 -47 -46 -13 0 -23 -4 -23 -10 0 -5 13 -10 28 -10 15 0 33
-5 40 -12 15 -15 15 -51 0 -66 -19 -19 -66 -14 -80 8 -15 23 -28 26 -28 7 0
-41 75 -61 118 -31 29 20 30 77 2 97 -18 12 -18 15 -5 20 23 9 20 74 -4 87
-36 19 -78 12 -101 -17z"/>
<path d="M2520 310 c0 -6 120 -10 340 -10 220 0 340 4 340 10 0 6 -120 10
-340 10 -220 0 -340 -4 -340 -10z"/>
<path d="M5041 439 c-13 -11 -21 -22 -17 -26 3 -4 12 -1 18 5 23 23 28 11 28
-78 l0 -90 -30 0 c-16 0 -30 -4 -30 -10 0 -6 28 -10 65 -10 37 0 65 4 65 10 0
6 -11 10 -25 10 l-25 0 0 105 c0 113 -5 121 -49 84z"/>
<path d="M5176 387 c-33 -24 -17 -59 34 -77 33 -11 45 -21 45 -35 0 -15 -8
-21 -33 -23 -18 -2 -40 2 -48 9 -21 17 -28 5 -9 -15 34 -33 115 -14 115 28 0
28 -13 39 -63 56 -27 8 -37 17 -35 28 4 21 54 28 74 11 8 -6 18 -9 22 -5 11
12 -29 36 -58 36 -14 0 -34 -6 -44 -13z"/>
<path d="M7410 487 c0 -19 52 -98 84 -126 18 -17 29 -22 37 -14 7 7 -1 18 -24
36 -18 14 -44 46 -58 71 -24 45 -39 58 -39 33z"/>
<path d="M7631 455 c-11 -25 -29 -59 -41 -74 -16 -24 -17 -30 -6 -34 8 -3 21
4 30 16 14 20 15 14 15 -81 1 -66 5 -101 11 -97 6 4 10 59 10 133 0 96 4 133
15 148 14 20 11 34 -6 34 -5 0 -17 -20 -28 -45z"/>
<path d="M7326 464 c-4 -14 -25 -45 -48 -70 -44 -48 -45 -73 -2 -33 27 25 84
107 84 121 0 20 -29 5 -34 -18z"/>
<path d="M7801 328 c-20 -96 -23 -100 -87 -96 -30 1 -54 0 -54 -4 0 -5 53 -7
118 -6 64 1 96 3 70 5 -27 2 -48 5 -48 6 0 1 9 34 20 72 24 83 24 85 7 85 -8
0 -18 -24 -26 -62z"/>
<path d="M7300 370 c0 -5 11 -10 25 -10 18 0 25 -5 25 -20 0 -38 -29 -90 -60
-108 -31 -18 -36 -27 -21 -36 14 -9 72 44 87 81 8 18 14 44 14 58 0 23 4 25
40 25 l40 0 0 -42 c0 -68 -9 -88 -37 -88 -15 0 -23 -5 -21 -12 7 -19 31 -21
53 -4 16 11 20 29 23 90 l4 76 -86 0 c-51 0 -86 -4 -86 -10z"/>
<path d="M7702 369 c2 -8 10 -35 17 -61 8 -29 19 -48 28 -48 15 0 14 4 -12 79
-11 33 -42 60 -33 30z"/>
<path d="M10487 444 c-33 -68 -34 -78 -2 -72 31 6 33 -12 5 -37 -34 -30 -26
-49 18 -41 20 3 43 6 50 6 6 0 12 5 12 11 0 7 -12 10 -30 7 -16 -3 -30 -2 -30
1 0 4 16 30 35 60 40 60 40 61 21 61 -8 0 -18 -9 -21 -20 -4 -13 -15 -20 -32
-20 l-25 0 25 44 c18 32 21 46 13 49 -8 3 -24 -17 -39 -49z"/>
<path d="M10629 468 c-7 -18 -28 -49 -47 -70 -19 -21 -29 -39 -22 -43 5 -3 15
-3 21 1 6 3 49 6 95 6 81 -1 115 10 74 23 -25 8 -80 74 -80 97 0 30 -27 20
-41 -14z m64 -65 l20 -23 -56 0 -56 0 27 40 c23 36 27 38 35 23 5 -10 19 -28
30 -40z"/>
<path d="M10970 487 c0 -19 52 -98 84 -126 18 -17 29 -22 37 -14 7 7 -1 18
-24 36 -18 14 -44 46 -58 71 -24 45 -39 58 -39 33z"/>
<path d="M11191 463 c-8 -21 -24 -54 -37 -73 -18 -25 -20 -36 -11 -42 7 -4 16
1 24 15 10 19 12 7 15 -76 5 -148 22 -125 28 38 3 77 8 146 10 154 3 7 0 15
-5 17 -6 3 -17 -13 -24 -33z"/>
<path d="M10886 464 c-4 -14 -25 -45 -48 -70 -44 -48 -45 -73 -2 -33 27 25 84
107 84 121 0 20 -29 5 -34 -18z"/>
<path d="M11230 420 c0 -6 40 -10 100 -10 60 0 100 4 100 10 0 6 -40 10 -100
10 -60 0 -100 -4 -100 -10z"/>
<path d="M11354 313 l-19 -78 -58 0 c-31 0 -57 -3 -57 -7 0 -5 53 -7 118 -6
64 1 96 3 70 5 -27 2 -48 7 -48 11 0 8 23 95 34 130 5 16 3 22 -7 22 -10 0
-21 -26 -33 -77z"/>
<path d="M10860 370 c0 -5 11 -10 25 -10 18 0 25 -5 25 -20 0 -38 -29 -90 -60
-108 -31 -18 -36 -27 -21 -36 14 -9 72 44 87 81 8 18 14 44 14 58 0 23 4 25
40 25 l40 0 0 -42 c0 -68 -9 -88 -37 -88 -15 0 -23 -5 -21 -12 7 -19 31 -21
53 -4 16 11 20 29 23 90 l4 76 -86 0 c-51 0 -86 -4 -86 -10z"/>
<path d="M11260 369 c0 -28 34 -109 45 -109 11 0 9 14 -7 60 -17 53 -38 79
-38 49z"/>
<path d="M10600 255 c0 -37 4 -65 10 -65 6 0 10 5 10 10 0 6 20 10 45 10 25 0
45 -5 45 -11 0 -5 5 -7 10 -4 6 3 10 33 10 66 l0 59 -65 0 -65 0 0 -65z m110
10 c0 -35 0 -35 -45 -35 -45 0 -45 0 -45 35 0 35 0 35 45 35 45 0 45 0 45 -35z"/>
<path d="M10518 247 c-39 -7 -58 -15 -58 -25 0 -8 6 -12 14 -9 7 3 34 9 60 12
29 5 46 12 46 21 0 8 -1 13 -2 13 -2 -1 -29 -6 -60 -12z"/>
</g>
</svg>
