<?xml version="1.0" standalone="no"?>
<!DOCTYPE svg PUBLIC "-//W3C//DTD SVG 20010904//EN"
 "http://www.w3.org/TR/2001/REC-SVG-20010904/DTD/svg10.dtd">
<svg version="1.0" xmlns="http://www.w3.org/2000/svg"
 width="1308.000000pt" height="413.000000pt" viewBox="0 0 1308.000000 413.000000"
 preserveAspectRatio="xMidYMid meet">

<g transform="translate(0.000000,413.000000) scale(0.100000,-0.100000)"
fill="#000000" stroke="none">
<path d="M97 4003 c-4 -3 -7 -872 -7 -1930 l0 -1923 6438 0 6437 0 0 1930 0
1930 -6431 0 c-3537 0 -6434 -3 -6437 -7z m4566 -50 c-3 -10 -13 -26 -21 -36
-17 -20 -8 -37 10 -19 17 17 48 15 48 -3 0 -11 -11 -15 -40 -15 -51 0 -53 -18
-2 -22 36 -3 37 -3 17 -20 -11 -10 -29 -24 -39 -31 -12 -9 -15 -16 -8 -21 6
-3 27 8 47 25 l36 32 22 -21 21 -22 -37 0 -37 0 0 -75 c0 -43 4 -75 10 -75 6
0 10 7 10 15 0 12 14 15 70 15 40 0 70 -4 70 -10 0 -5 5 -10 10 -10 6 0 10 30
10 70 l0 70 -39 0 c-29 0 -47 7 -71 30 l-32 30 31 0 c17 0 31 5 31 10 0 6 -13
10 -30 10 -20 0 -30 5 -30 15 0 10 10 15 30 15 17 0 30 5 30 10 0 6 -22 10
-49 10 -44 0 -49 2 -44 20 5 19 14 20 164 20 88 0 159 -4 159 -8 0 -5 -14 -28
-30 -50 -17 -23 -27 -43 -23 -44 25 -6 143 -2 143 5 0 15 -43 66 -52 61 -5 -3
-3 -12 3 -21 15 -18 -3 -33 -39 -33 -27 0 -26 1 8 52 20 31 31 38 58 38 l32 0
0 -60 c0 -55 2 -61 25 -70 35 -13 83 -2 91 22 9 29 -2 32 -25 9 -25 -25 -44
-27 -61 -6 -16 20 0 40 46 57 19 6 34 15 34 18 0 17 -15 17 -46 -2 -39 -23
-46 -21 -37 10 5 21 11 22 107 22 99 0 103 -1 116 -25 7 -14 17 -25 22 -25 12
0 10 24 -4 38 -9 9 1 12 45 12 l57 0 0 -50 c0 -43 -3 -50 -20 -50 -11 0 -20
-4 -20 -10 0 -5 9 -10 20 -10 16 0 20 -7 20 -32 0 -41 -32 -113 -55 -126 -10
-5 -15 -14 -10 -21 19 -33 84 76 85 142 l0 37 46 0 c27 0 43 4 39 10 -3 6 -24
10 -46 10 l-40 0 3 48 3 47 83 3 82 3 0 -46 c0 -41 -2 -45 -25 -45 -14 0 -25
-4 -25 -10 0 -5 11 -10 25 -10 24 0 25 -3 25 -55 0 -50 -2 -56 -26 -65 -14 -6
-23 -14 -19 -20 3 -6 26 -2 56 10 27 11 52 20 54 20 3 0 5 5 5 10 0 6 -11 8
-25 4 -24 -6 -25 -5 -25 45 0 44 3 51 20 51 11 0 20 5 20 10 0 6 -9 10 -20 10
-17 0 -20 7 -20 45 l0 46 63 -3 62 -3 3 -46 c3 -40 0 -47 -18 -52 -18 -5 -20
-1 -20 38 0 24 -4 47 -10 50 -6 4 -10 -14 -10 -45 0 -43 -3 -53 -20 -57 -26
-7 -26 -23 0 -23 17 0 19 -8 22 -77 l3 -78 66 -3 c51 -2 71 1 83 13 9 9 16 21
16 26 0 15 -20 10 -26 -6 -5 -11 -22 -15 -65 -15 l-60 0 3 77 c3 66 6 78 21
81 16 3 18 -3 16 -55 -1 -32 2 -59 7 -61 5 -1 10 27 12 62 2 54 6 65 22 69 18
5 20 0 20 -44 0 -37 -4 -49 -15 -49 -8 0 -15 -4 -15 -8 0 -17 13 -21 31 -11
16 8 19 21 19 74 l0 65 -30 -6 c-30 -6 -30 -6 -30 40 l0 46 608 -1 c334 -1
596 -5 582 -9 -14 -4 -60 -8 -102 -9 -66 -1 -76 -3 -71 -17 5 -12 15 -14 54
-9 41 6 49 4 49 -9 0 -13 -13 -16 -70 -16 -38 0 -70 -4 -70 -8 0 -5 27 -6 61
-4 37 3 65 0 72 -7 8 -8 -1 -11 -36 -11 l-47 0 0 -55 0 -55 45 0 c25 0 45 -4
45 -10 0 -5 -22 -10 -50 -10 -27 0 -50 -4 -50 -10 0 -5 23 -10 50 -10 38 0 50
-4 50 -15 0 -12 -14 -15 -70 -15 -40 0 -70 -4 -70 -10 0 -6 57 -10 150 -10 93
0 150 4 150 10 0 6 -30 10 -70 10 -56 0 -70 3 -70 15 0 11 12 15 50 15 28 0
50 5 50 10 0 6 -22 10 -50 10 -27 0 -50 5 -50 10 0 6 20 10 45 10 l45 0 0 55
0 55 -46 0 c-29 0 -43 4 -39 11 4 6 32 9 66 8 32 -1 62 1 66 4 3 4 -26 7 -65
7 -55 0 -72 3 -72 14 0 17 22 26 66 26 26 0 32 3 28 15 -5 13 11 15 111 15
l117 0 -17 -27 c-30 -47 -57 -72 -92 -85 -33 -12 -41 -22 -24 -32 12 -8 94 47
119 80 l21 29 16 -22 c26 -36 104 -86 123 -78 13 5 7 12 -29 30 -44 23 -99 76
-99 96 0 5 52 9 116 9 63 0 113 -4 110 -8 -6 -10 31 -58 39 -50 4 3 -1 18 -10
32 l-17 26 406 0 406 0 0 -50 c0 -49 -1 -50 -30 -50 l-31 0 3 -72 c2 -40 7
-73 12 -73 5 0 9 28 7 63 l-2 62 50 0 51 0 0 -60 c0 -33 4 -60 10 -60 6 0 10
30 10 70 l0 70 -31 0 c-30 0 -30 1 -27 48 l3 47 2268 3 2267 2 0 -170 0 -170
-6400 0 -6400 0 0 170 0 170 2270 0 c2157 0 2269 -1 2263 -17z m2297 -118 c0
-10 -11 -15 -35 -15 -24 0 -35 5 -35 15 0 10 11 15 35 15 24 0 35 -5 35 -15z
m90 0 c0 -10 -11 -15 -35 -15 -24 0 -35 5 -35 15 0 10 11 15 35 15 24 0 35 -5
35 -15z m-90 -45 c0 -5 -16 -10 -35 -10 -19 0 -35 5 -35 10 0 6 16 10 35 10
19 0 35 -4 35 -10z m90 0 c0 -5 -16 -10 -35 -10 -19 0 -35 5 -35 10 0 6 16 10
35 10 19 0 35 -4 35 -10z m-2212 -27 c-3 -15 -16 -19 -71 -21 -62 -3 -67 -1
-67 18 0 18 6 20 71 20 62 0 70 -2 67 -17z m0 -50 c3 -10 -15 -13 -67 -13 -57
0 -71 3 -71 15 0 13 12 15 67 13 42 -2 68 -8 71 -15z m-3228 -298 l0 -175
-740 0 -740 0 0 175 0 175 740 0 740 0 0 -175z m2380 0 l0 -175 -1175 0 -1175
0 0 175 0 175 1175 0 1175 0 0 -175z m2160 0 l0 -175 -1065 0 -1065 0 0 175 0
175 1065 0 1065 0 0 -175z m2690 0 l0 -175 -1325 0 -1325 0 0 175 0 175 1325
0 1325 0 0 -175z m4090 0 l0 -175 -2025 0 -2025 0 0 175 0 175 2025 0 2025 0
0 -175z m-11320 -380 l0 -175 -740 0 -740 0 0 175 0 175 740 0 740 0 0 -175z
m2380 0 l0 -175 -1175 0 -1175 0 0 175 0 175 1175 0 1175 0 0 -175z m2160 0
l0 -175 -1065 0 -1065 0 0 175 0 175 1065 0 1065 0 0 -175z m2690 0 l0 -175
-1325 0 -1325 0 0 175 0 175 1325 0 1325 0 0 -175z m4090 0 l0 -175 -2025 0
-2025 0 0 175 0 175 2025 0 2025 0 0 -175z m-11320 -380 l0 -175 -740 0 -740
0 0 175 0 175 740 0 740 0 0 -175z m2380 0 l0 -175 -1175 0 -1175 0 0 175 0
175 1175 0 1175 0 0 -175z m2160 0 l0 -175 -1065 0 -1065 0 0 175 0 175 1065
0 1065 0 0 -175z m2690 0 l0 -175 -1325 0 -1325 0 0 175 0 175 1325 0 1325 0
0 -175z m4090 0 l0 -175 -2025 0 -2025 0 0 175 0 175 2025 0 2025 0 0 -175z
m-11322 -387 l-3 -173 -737 -3 -738 -2 0 175 0 175 740 0 740 0 -2 -172z
m2382 -3 l0 -175 -1175 0 -1175 0 0 175 0 175 1175 0 1175 0 0 -175z m2160 0
l0 -175 -1065 0 -1065 0 0 175 0 175 1065 0 1065 0 0 -175z m1547 169 c-4 -4
5 -21 20 -38 l26 -31 -51 -3 c-29 -2 -52 -7 -52 -13 0 -12 197 -12 205 1 4 6
-13 10 -45 10 -34 0 -49 4 -44 11 3 6 -6 24 -22 40 l-28 29 567 0 567 0 0
-175 0 -175 -1325 0 -1325 0 0 175 0 175 757 0 c416 0 753 -3 750 -6z m3041
-26 c-2 -22 -9 -34 -20 -36 -12 -2 -16 1 -13 10 5 14 -33 44 -43 34 -3 -3 3
-15 14 -27 l19 -21 -40 4 c-37 3 -40 1 -43 -24 -4 -32 13 -38 21 -8 5 18 14
20 116 20 104 0 111 -1 111 -20 0 -11 6 -20 13 -20 9 0 12 9 9 28 -3 25 -7 27
-38 24 -37 -5 -42 3 -18 29 9 10 11 19 5 23 -5 3 -19 -7 -31 -24 -27 -38 -44
-39 -38 0 2 16 0 32 -6 34 -6 2 481 5 1082 5 l1092 1 0 -175 0 -175 -2025 0
-2025 0 0 175 0 175 931 0 930 0 -3 -32z m-9128 -523 l0 -175 -740 0 -740 0 0
175 0 175 740 0 740 0 0 -175z m2380 0 l0 -175 -1175 0 -1175 0 0 175 0 175
1175 0 1175 0 0 -175z m850 135 c0 -36 -2 -40 -25 -40 -14 0 -25 -4 -25 -10 0
-5 11 -10 25 -10 22 0 25 -4 25 -33 0 -26 -6 -36 -25 -45 -14 -6 -25 -16 -25
-22 0 -13 6 -13 31 0 18 10 19 7 19 -39 0 -37 -4 -53 -17 -60 -10 -5 -14 -13
-10 -17 4 -5 16 -3 25 2 12 8 18 28 20 75 2 43 8 66 18 72 19 11 18 28 -1 21
-11 -5 -15 1 -15 20 0 16 6 26 15 26 8 0 15 5 15 10 0 6 -7 10 -15 10 -11 0
-15 11 -15 40 l0 40 645 0 645 0 0 -175 0 -175 -1065 0 -1065 0 0 175 0 175
410 0 410 0 0 -40z m2857 34 c-4 -4 5 -21 20 -38 l26 -31 -51 -3 c-29 -2 -52
-7 -52 -13 0 -12 197 -12 205 1 4 6 -13 10 -45 10 -34 0 -49 4 -44 11 3 6 -6
24 -22 40 l-28 29 567 0 567 0 0 -175 0 -175 -1325 0 -1325 0 0 175 0 175 757
0 c416 0 753 -3 750 -6z m2740 -1 c-4 -3 0 -15 10 -25 15 -17 14 -18 -25 -18
-22 0 -44 -4 -47 -10 -4 -6 27 -10 84 -10 54 0 91 4 91 10 0 6 -15 10 -32 10
-23 1 -38 8 -51 25 l-18 25 171 0 170 0 0 -54 c0 -46 -3 -54 -21 -59 -19 -5
-21 -2 -17 39 2 29 -1 45 -9 49 -10 3 -13 -10 -13 -46 0 -42 -3 -52 -20 -56
-11 -3 -20 -10 -20 -15 0 -6 9 -8 20 -5 18 5 19 -1 22 -77 l3 -81 71 -3 c76
-3 103 11 89 45 -6 16 -8 15 -16 -5 -8 -21 -14 -23 -66 -20 l-58 3 0 75 c0 63
3 75 18 78 15 3 17 -5 17 -62 0 -37 4 -66 10 -66 6 0 10 30 10 70 0 63 2 70
20 70 17 0 20 -7 20 -44 0 -25 -5 -46 -11 -48 -7 -2 -10 -10 -8 -16 3 -10 8
-10 21 0 10 8 19 36 23 76 l7 63 -37 -7 -37 -7 3 47 c2 25 0 48 -6 50 -5 3 63
5 152 5 l163 1 -6 -32 c-4 -18 -15 -52 -25 -75 -18 -42 -17 -43 2 -43 10 0 19
-6 19 -12 0 -7 7 -26 15 -42 18 -33 12 -44 -42 -77 -24 -15 -31 -25 -24 -32 7
-7 24 1 54 26 l44 36 31 -32 c26 -26 34 -29 44 -18 11 11 10 14 0 18 -7 3 -25
15 -38 27 -25 21 -25 22 -9 65 8 24 15 54 15 67 0 17 6 24 20 24 11 0 20 5 20
10 0 6 -25 10 -55 10 -46 0 -55 3 -55 18 0 9 4 24 10 32 6 9 5 17 -3 22 -7 4
394 8 891 8 l902 0 0 -175 0 -175 -2025 0 -2025 0 0 175 0 175 782 0 c430 0
778 -3 775 -7z m743 -110 c0 -10 -5 -36 -11 -58 -10 -37 -12 -38 -25 -20 -8
10 -14 27 -14 37 0 10 -7 18 -15 18 -13 0 -14 4 -5 20 14 26 70 28 70 3z
m-9570 -438 l0 -175 -740 0 -740 0 0 175 0 175 740 0 740 0 0 -175z m2380 0
l0 -175 -1175 0 -1175 0 0 175 0 175 1175 0 1175 0 0 -175z m2160 0 l0 -175
-1065 0 -1065 0 0 175 0 175 1065 0 1065 0 0 -175z m2690 0 l0 -175 -1325 0
-1325 0 0 175 0 175 1325 0 1325 0 0 -175z m4090 0 l0 -175 -2025 0 -2025 0 0
175 0 175 2025 0 2025 0 0 -175z m-11320 -380 l0 -175 -740 0 -740 0 0 175 0
175 740 0 740 0 0 -175z m2380 0 l0 -175 -1175 0 -1175 0 0 175 0 175 1175 0
1175 0 0 -175z m2160 0 l0 -175 -1065 0 -1065 0 0 175 0 175 1065 0 1065 0 0
-175z m2690 0 l0 -175 -1325 0 -1325 0 0 175 0 175 1325 0 1325 0 0 -175z
m4090 0 l0 -175 -2025 0 -2025 0 0 175 0 175 2025 0 2025 0 0 -175z m-11320
-385 l0 -170 -740 0 -740 0 0 170 0 170 740 0 740 0 0 -170z m2380 0 l0 -170
-1175 0 -1175 0 0 170 0 170 1175 0 1175 0 0 -170z m2160 0 l0 -170 -1065 0
-1065 0 0 170 0 170 1065 0 1065 0 0 -170z m1547 164 c-4 -4 5 -21 20 -38 l26
-31 -51 -3 c-29 -2 -52 -7 -52 -13 0 -12 197 -12 205 1 4 6 -13 10 -45 10 -34
0 -49 4 -44 11 3 6 -6 24 -22 40 l-28 29 567 0 567 0 0 -170 0 -170 -1325 0
-1325 0 0 170 0 170 757 0 c416 0 753 -3 750 -6z m5233 -164 l0 -170 -2025 0
-2025 0 0 170 0 170 2025 0 2025 0 0 -170z m-11320 -385 l0 -175 -740 0 -740
0 0 175 0 175 740 0 740 0 0 -175z m2380 0 l0 -175 -1175 0 -1175 0 0 175 0
175 1175 0 1175 0 0 -175z m850 135 c0 -36 -2 -40 -25 -40 -14 0 -25 -4 -25
-10 0 -5 11 -10 25 -10 22 0 25 -4 25 -33 0 -26 -6 -36 -25 -45 -14 -6 -25
-16 -25 -22 0 -13 6 -13 31 0 18 10 19 7 19 -39 0 -37 -4 -53 -17 -60 -10 -5
-14 -13 -10 -17 4 -5 16 -3 25 2 12 8 18 28 20 75 2 43 8 66 18 72 19 11 18
28 -1 21 -11 -5 -15 1 -15 20 0 16 6 26 15 26 8 0 15 5 15 10 0 6 -7 10 -15
10 -11 0 -15 11 -15 40 l0 40 645 0 645 0 0 -175 0 -175 -1065 0 -1065 0 0
175 0 175 410 0 410 0 0 -40z m2857 34 c-4 -4 5 -21 20 -38 l26 -31 -51 -3
c-29 -2 -52 -7 -52 -13 0 -12 197 -12 205 1 4 6 -13 10 -45 10 -34 0 -49 4
-44 11 3 6 -6 24 -22 40 l-28 29 567 0 567 0 0 -175 0 -175 -1325 0 -1325 0 0
175 0 175 757 0 c416 0 753 -3 750 -6z m5233 -169 l0 -175 -2025 0 -2025 0 0
175 0 175 2025 0 2025 0 0 -175z"/>
<path d="M6230 3885 c0 -60 -3 -76 -17 -84 -10 -5 -14 -13 -10 -17 4 -5 16 -3
25 2 13 9 18 29 20 93 2 51 -1 81 -8 81 -6 0 -10 -30 -10 -75z"/>
<path d="M7880 3953 c1 -15 39 -58 46 -51 8 9 -22 58 -36 58 -6 0 -10 -3 -10
-7z"/>
<path d="M8220 3948 c0 -6 -11 -26 -26 -45 -19 -24 -21 -33 -10 -33 8 0 18 5
21 10 3 6 26 10 51 10 24 0 44 5 44 10 0 6 -16 10 -35 10 -34 0 -46 12 -25 25
15 9 12 25 -5 25 -8 0 -15 -5 -15 -12z"/>
<path d="M5985 3940 c-3 -5 3 -10 14 -10 16 0 21 -6 21 -25 0 -20 -5 -25 -25
-25 -14 0 -25 -4 -25 -10 0 -5 11 -10 25 -10 32 0 32 -11 -2 -50 -23 -28 -24
-32 -7 -28 10 2 28 20 39 41 25 47 55 50 55 6 0 -18 7 -37 17 -44 26 -19 5
-35 -48 -35 -27 0 -49 -4 -49 -10 0 -5 25 -10 55 -10 48 0 55 -2 55 -20 0 -18
-7 -20 -75 -20 -43 0 -75 -4 -75 -10 0 -6 57 -10 150 -10 93 0 150 4 150 10 0
6 -28 10 -65 10 -58 0 -65 2 -65 20 0 17 7 20 44 20 25 0 48 5 51 10 4 6 -13
10 -44 10 -44 0 -51 3 -51 20 0 11 -7 20 -15 20 -10 0 -15 11 -15 35 0 31 3
35 25 35 14 0 25 5 25 10 0 6 -11 10 -25 10 -20 0 -25 5 -25 25 0 19 5 25 21
25 11 0 17 5 14 10 -3 6 -37 10 -75 10 -38 0 -72 -4 -75 -10z m95 -35 c0 -18
-5 -25 -20 -25 -15 0 -20 7 -20 25 0 18 5 25 20 25 15 0 20 -7 20 -25z"/>
<path d="M7620 3938 c0 -10 18 -12 65 -10 l65 4 0 -121 c0 -114 -1 -121 -20
-121 -11 0 -20 -5 -20 -11 0 -6 12 -9 28 -7 l27 3 3 138 3 137 -76 0 c-53 0
-75 -4 -75 -12z"/>
<path d="M8300 3939 c0 -19 37 -55 47 -45 4 3 -5 19 -20 34 -20 19 -27 22 -27
11z"/>
<path d="M8428 3920 c-9 -16 -13 -32 -9 -34 10 -6 52 50 44 58 -11 11 -18 6
-35 -24z"/>
<path d="M5530 3921 c11 -22 29 -35 36 -28 9 8 -20 47 -34 47 -9 0 -10 -5 -2
-19z"/>
<path d="M6165 3880 c0 -41 4 -60 13 -60 8 0 12 19 12 60 0 41 -4 60 -12 60
-9 0 -13 -19 -13 -60z"/>
<path d="M7960 3930 c0 -6 30 -10 70 -10 l70 0 0 -120 c0 -113 -1 -120 -20
-120 -11 0 -20 -4 -20 -10 0 -14 33 -13 48 2 8 8 12 54 12 140 l0 128 -80 0
c-47 0 -80 -4 -80 -10z"/>
<path d="M4790 3875 l0 -55 50 0 50 0 0 55 0 55 -50 0 -50 0 0 -55z m80 5 c0
-38 -2 -40 -30 -40 -27 0 -30 3 -30 33 0 40 6 47 37 47 20 0 23 -5 23 -40z"/>
<path d="M6310 3815 c0 -96 3 -115 15 -115 12 0 15 13 15 55 l0 55 45 0 c25 0
45 5 45 10 0 6 -20 10 -45 10 l-45 0 0 40 0 40 50 0 c28 0 50 5 50 10 0 6 -28
10 -65 10 l-65 0 0 -115z"/>
<path d="M6536 3921 c-3 -5 -21 -49 -40 -97 -19 -49 -37 -97 -41 -106 -5 -12
-2 -18 7 -18 9 0 19 15 24 33 9 30 12 32 62 35 52 3 53 3 67 -32 9 -20 20 -36
25 -36 15 0 14 4 -32 122 -38 98 -57 124 -72 99z m53 -118 c1 -9 -14 -13 -40
-13 -45 0 -45 0 -12 79 l15 36 19 -45 c10 -25 18 -51 18 -57z"/>
<path d="M5285 3900 c3 -5 40 -10 81 -10 43 0 74 4 74 10 0 6 -34 10 -81 10
-51 0 -78 -4 -74 -10z"/>
<path d="M7520 3791 c0 -162 18 -167 22 -6 2 95 0 125 -9 125 -10 0 -13 -31
-13 -119z"/>
<path d="M7860 3780 c0 -73 4 -120 10 -120 6 0 10 47 10 120 0 73 -4 120 -10
120 -6 0 -10 -47 -10 -120z"/>
<path d="M8000 3875 c0 -23 -3 -25 -50 -25 -27 0 -50 -4 -50 -10 0 -5 16 -10
35 -10 19 0 35 -3 35 -7 0 -17 -40 -73 -61 -83 -15 -8 -18 -15 -10 -23 14 -14
36 6 73 62 l28 45 0 -57 c0 -44 -3 -57 -15 -57 -8 0 -15 -7 -15 -15 0 -8 6
-15 13 -15 26 0 37 25 37 87 l0 63 30 0 c17 0 30 5 30 10 0 6 -13 10 -30 10
-25 0 -30 4 -30 25 0 14 -4 25 -10 25 -5 0 -10 -11 -10 -25z"/>
<path d="M7570 3820 l0 -60 35 0 c34 0 35 -1 35 -40 0 -22 5 -40 10 -40 6 0
10 18 10 40 0 38 2 40 30 40 l30 0 0 60 0 60 -75 0 -75 0 0 -60z m70 25 c0 -9
-9 -15 -25 -15 -16 0 -25 6 -25 15 0 9 9 15 25 15 16 0 25 -6 25 -15z m60 0
c0 -8 -9 -15 -20 -15 -11 0 -20 7 -20 15 0 8 9 15 20 15 11 0 20 -7 20 -15z
m-60 -50 c0 -9 -9 -15 -25 -15 -16 0 -25 6 -25 15 0 9 9 15 25 15 16 0 25 -6
25 -15z m60 0 c0 -8 -9 -15 -20 -15 -11 0 -20 7 -20 15 0 8 9 15 20 15 11 0
20 -7 20 -15z"/>
<path d="M5310 3830 c0 -36 3 -40 25 -40 23 0 25 -3 25 -50 0 -38 -4 -50 -15
-50 -8 0 -15 -4 -15 -8 0 -17 13 -21 31 -11 15 8 19 21 19 64 0 52 1 55 25 55
23 0 25 4 25 40 l0 40 -60 0 -60 0 0 -40z m100 0 c0 -17 -7 -20 -40 -20 -33 0
-40 3 -40 20 0 17 7 20 40 20 33 0 40 -3 40 -20z"/>
<path d="M8195 3850 c-3 -5 3 -10 14 -10 16 0 21 -6 21 -25 0 -20 -5 -25 -25
-25 -14 0 -25 -4 -25 -10 0 -5 12 -10 26 -10 26 0 26 -2 22 -45 -3 -25 -1 -45
4 -45 18 0 58 33 58 48 0 13 -3 12 -20 -3 -20 -18 -20 -17 -20 13 0 27 4 32
25 32 14 0 25 5 25 10 0 6 -11 10 -25 10 -20 0 -25 5 -25 25 0 18 5 25 20 25
11 0 20 5 20 10 0 6 -20 10 -44 10 -25 0 -48 -4 -51 -10z"/>
<path d="M5022 3843 l-53 -4 3 -87 c2 -54 7 -85 13 -82 6 3 10 19 10 35 0 27
4 30 33 33 29 3 32 1 32 -22 0 -17 -6 -26 -16 -26 -8 0 -12 -4 -9 -10 3 -5 15
-10 26 -10 17 0 19 8 19 90 0 50 -1 89 -2 88 -2 -1 -27 -3 -56 -5z m38 -28 c0
-10 -11 -15 -35 -15 -33 0 -43 8 -28 23 13 14 63 7 63 -8z m0 -45 c0 -5 -16
-10 -35 -10 -19 0 -35 5 -35 10 0 6 16 10 35 10 19 0 35 -4 35 -10z"/>
<path d="M7230 3840 c0 -6 33 -10 80 -10 47 0 80 4 80 10 0 6 -33 10 -80 10
-47 0 -80 -4 -80 -10z"/>
<path d="M5119 3826 c-2 -3 -2 -37 1 -78 l5 -73 47 -3 c38 -3 49 1 62 19 15
22 13 39 -5 39 -5 0 -9 -7 -9 -15 0 -17 -42 -30 -66 -21 -10 4 -14 15 -12 32
2 21 13 30 48 44 33 14 41 20 28 25 -9 3 -30 -1 -47 -10 -31 -15 -31 -15 -31
9 0 23 -12 41 -21 32z"/>
<path d="M5510 3750 l0 -80 35 0 c33 0 64 28 48 44 -11 11 -23 6 -23 -9 0 -8
-9 -15 -20 -15 -18 0 -20 7 -20 70 0 40 -4 70 -10 70 -6 0 -10 -33 -10 -80z"/>
<path d="M8360 3776 c0 -37 -5 -48 -31 -70 -17 -14 -36 -26 -42 -26 -8 0 -8
-3 0 -11 8 -8 19 -7 40 6 39 23 52 46 60 100 5 38 3 45 -11 45 -12 0 -16 -10
-16 -44z"/>
<path d="M7220 3725 c0 -37 4 -65 10 -65 6 0 10 5 10 10 0 6 32 10 75 10 43 0
75 -4 75 -10 0 -5 5 -10 10 -10 6 0 10 28 10 65 l0 65 -95 0 -95 0 0 -65z
m170 10 l0 -35 -75 0 -75 0 0 35 0 35 75 0 75 0 0 -35z"/>
<path d="M5309 3743 c-7 -16 -15 -31 -17 -35 -2 -5 1 -8 7 -8 9 0 41 50 41 65
0 15 -18 2 -31 -22z"/>
<path d="M5408 3764 c-9 -8 9 -44 22 -44 14 0 12 13 -3 34 -7 9 -16 14 -19 10z"/>
<path d="M8396 3722 c-2 -4 10 -20 29 -35 38 -30 57 -21 22 10 -31 28 -45 35
-51 25z"/>
<path d="M6660 3660 c0 -6 30 -10 70 -10 40 0 70 4 70 10 0 6 -30 10 -70 10
-40 0 -70 -4 -70 -10z"/>
<path d="M700 3574 c0 -4 8 -13 18 -20 15 -12 8 -13 -49 -14 l-66 0 -5 -97
c-3 -64 -11 -109 -22 -130 -13 -26 -14 -33 -3 -33 24 0 40 52 45 148 l4 92
124 0 c76 0 124 4 124 10 0 6 -26 10 -58 10 -46 0 -60 4 -70 20 -11 18 -42 28
-42 14z"/>
<path d="M969 3568 c0 -2 -1 -24 -2 -50 l-3 -48 93 0 93 0 0 50 0 50 -90 0
c-49 0 -90 -1 -91 -2z m161 -48 l0 -30 -70 0 -70 0 0 30 0 30 70 0 70 0 0 -30z"/>
<path d="M650 3490 c0 -6 31 -10 72 -10 71 0 71 0 53 -20 -10 -12 -25 -18 -32
-15 -7 3 -20 8 -28 11 -24 10 -17 -12 8 -24 19 -9 13 -11 -35 -11 -32 -1 -58
-5 -58 -11 0 -5 25 -10 55 -10 l55 0 0 -55 c0 -42 -3 -55 -15 -55 -8 0 -15 -5
-15 -11 0 -6 10 -9 23 -7 20 3 22 9 25 66 l3 62 40 0 c36 0 39 -2 29 -19 -13
-24 -13 -31 0 -31 8 0 40 51 40 65 0 3 -20 5 -45 5 -25 0 -45 3 -45 7 0 4 14
22 32 40 l32 33 -97 0 c-58 0 -97 -4 -97 -10z"/>
<path d="M905 3440 c-4 -6 12 -10 41 -10 46 0 46 0 41 -30 l-6 -30 79 0 c86 0
94 -6 64 -48 -11 -16 -25 -22 -55 -22 -21 0 -39 -4 -39 -10 0 -11 52 -13 87
-4 21 6 43 48 43 85 0 17 -9 19 -76 19 -65 0 -75 2 -70 16 3 9 6 18 6 20 0 2
41 4 90 4 53 0 90 4 90 10 0 6 -55 10 -144 10 -86 0 -147 -4 -151 -10z"/>
<path d="M2057 3574 c-3 -5 3 -20 12 -33 11 -14 21 -19 25 -13 3 5 -2 20 -12
33 -11 12 -21 18 -25 13z"/>
<path d="M2171 3550 c-6 -17 -20 -43 -31 -58 l-21 -26 20 -8 c25 -9 27 -26 6
-34 -19 -8 -20 -24 0 -24 10 0 15 -15 17 -57 l3 -58 64 0 c49 0 66 4 75 17 5
9 7 21 2 25 -4 4 -12 0 -17 -10 -7 -12 -23 -17 -59 -17 l-50 0 0 54 c0 39 4
55 15 60 12 4 15 -4 15 -44 0 -66 18 -64 22 2 2 41 7 54 21 56 23 5 24 -53 1
-66 -13 -7 -14 -11 -4 -17 20 -12 40 23 40 68 0 39 -1 39 -30 34 -27 -6 -30
-4 -30 18 0 34 -18 32 -22 -2 -4 -33 -24 -41 -31 -12 -3 11 -10 18 -16 14 -15
-9 -13 6 3 28 10 13 28 17 80 17 37 0 66 4 66 10 0 6 -27 10 -60 10 -64 0 -66
1 -50 31 8 15 7 19 -4 19 -8 0 -19 -14 -25 -30z"/>
<path d="M2410 3545 c0 -32 -2 -35 -30 -35 -16 0 -30 -4 -30 -10 0 -5 14 -10
30 -10 l31 0 -7 -52 c-7 -59 -27 -114 -50 -139 -13 -14 -13 -17 0 -22 27 -11
59 62 72 161 5 42 10 52 25 52 17 0 19 -9 19 -81 0 -72 -2 -81 -20 -86 -23 -6
-27 -33 -6 -33 35 0 46 29 46 126 l0 94 -31 0 c-30 0 -31 2 -27 35 3 24 0 35
-9 35 -8 0 -13 -13 -13 -35z"/>
<path d="M2730 3540 c0 -33 -3 -40 -20 -40 -26 0 -26 -18 0 -22 21 -3 21 -4
-4 -53 -27 -53 -20 -89 8 -39 15 28 15 28 16 -43 0 -52 4 -73 13 -73 9 0 11
20 9 80 -3 51 0 80 6 80 6 0 14 -5 17 -10 4 -6 11 -8 17 -4 5 4 -2 18 -18 35
-27 28 -27 29 -6 29 28 0 29 16 1 23 -19 5 -21 11 -16 41 4 27 2 36 -9 36 -10
0 -14 -12 -14 -40z"/>
<path d="M2905 3560 c5 -17 2 -20 -20 -20 -20 0 -26 4 -21 15 3 9 0 15 -9 15
-8 0 -15 -7 -15 -15 0 -9 -10 -15 -26 -15 -14 0 -23 -4 -19 -10 3 -5 15 -10
26 -10 10 0 19 -4 19 -10 0 -5 7 -10 16 -10 8 0 12 5 9 10 -9 14 29 12 44 -2
11 -10 14 -10 18 0 3 6 15 12 28 12 13 0 27 5 30 10 4 6 -7 10 -24 10 -24 0
-31 4 -31 20 0 11 -7 20 -16 20 -11 0 -14 -6 -9 -20z"/>
<path d="M3060 3545 c0 -28 -4 -35 -20 -35 -11 0 -20 -4 -20 -10 0 -5 9 -10
20 -10 16 0 20 -7 20 -36 0 -27 -5 -37 -20 -41 -11 -3 -20 -12 -20 -20 0 -10
6 -12 20 -8 18 6 20 2 20 -39 0 -35 -4 -46 -16 -46 -9 0 -14 -5 -12 -11 2 -6
7 -10 11 -10 4 1 14 1 22 1 12 0 15 14 15 65 0 54 3 66 20 75 11 6 20 15 20
19 0 5 -9 7 -20 4 -16 -4 -20 0 -20 17 0 13 8 24 20 27 26 7 26 23 -1 23 -19
0 -20 4 -15 35 6 28 4 35 -9 35 -11 0 -15 -10 -15 -35z"/>
<path d="M3170 3575 c0 -18 42 -85 50 -80 12 7 -26 85 -40 85 -6 0 -10 -2 -10
-5z"/>
<path d="M3260 3488 c0 -99 -14 -141 -56 -176 -24 -20 -32 -32 -24 -37 7 -4
27 8 49 29 l38 37 17 -26 c9 -14 21 -23 27 -19 6 3 0 19 -14 38 -26 33 -25 33
-13 184 3 31 0 42 -10 42 -11 0 -14 -18 -14 -72z"/>
<path d="M3400 3520 l0 -40 105 0 105 0 0 40 0 40 -105 0 -105 0 0 -40z m190
20 c0 -6 -35 -10 -86 -10 -54 0 -83 4 -79 10 3 6 42 10 86 10 46 0 79 -4 79
-10z m-37 -37 c-23 -2 -64 -2 -90 0 -26 2 -7 3 42 3 50 0 71 -1 48 -3z"/>
<path d="M2530 3410 c0 -73 4 -120 10 -120 6 0 10 9 10 20 0 16 7 20 30 20 23
0 30 -4 30 -20 0 -11 5 -20 10 -20 6 0 10 47 10 120 l0 120 -50 0 -50 0 0
-120z m80 20 l0 -80 -30 0 -30 0 0 80 0 80 30 0 30 0 0 -80z"/>
<path d="M3140 3427 c0 -57 3 -106 6 -110 8 -7 64 57 64 74 0 7 -11 3 -26 -12
l-26 -24 4 88 c2 65 0 87 -9 87 -10 0 -13 -27 -13 -103z"/>
<path d="M2010 3502 c0 -7 8 -12 18 -10 15 3 17 -5 14 -62 -3 -54 -14 -92 -40
-142 -2 -5 3 -8 11 -8 18 0 37 43 44 102 5 38 10 48 24 48 17 0 19 -8 19 -61
0 -53 -3 -62 -20 -66 -12 -3 -19 -10 -17 -16 6 -18 24 -19 41 -2 12 12 16 36
16 91 l0 74 -29 0 c-25 0 -28 3 -23 25 4 21 9 25 31 23 14 -2 27 1 29 6 1 4
-25 9 -58 10 -43 1 -60 -3 -60 -12z"/>
<path d="M2814 3491 c-2 -2 -4 -26 -4 -53 0 -47 1 -48 30 -48 17 0 30 -4 30
-10 0 -5 -20 -10 -45 -10 -25 0 -45 -4 -45 -10 0 -5 18 -10 41 -10 50 0 49
-17 -5 -44 -26 -13 -34 -22 -27 -29 12 -12 56 13 83 47 15 19 17 19 23 4 9
-23 72 -61 86 -52 7 4 -4 15 -27 28 -53 30 -55 46 -5 46 23 0 41 5 41 10 0 6
-23 10 -51 10 -31 0 -48 4 -44 10 3 6 19 10 36 10 28 0 29 1 29 53 l0 52 -71
0 c-39 0 -72 -2 -75 -4z m126 -26 c0 -11 -12 -15 -49 -15 -47 0 -68 9 -54 24
3 3 28 6 55 6 36 0 48 -4 48 -15z m0 -40 c0 -12 -13 -15 -55 -15 -51 0 -65 7
-48 23 3 4 28 7 55 7 36 0 48 -4 48 -15z"/>
<path d="M3355 3460 c-4 -7 48 -10 149 -10 97 0 156 4 156 10 0 6 -56 10 -149
10 -89 0 -152 -4 -156 -10z"/>
<path d="M3400 3395 l0 -45 50 0 c28 0 50 -4 50 -10 0 -5 -25 -10 -55 -10 -30
0 -55 -4 -55 -9 0 -4 22 -6 49 -3 30 2 51 0 55 -7 5 -8 -14 -11 -63 -11 -41 0
-71 -4 -71 -10 0 -6 55 -10 145 -10 90 0 145 4 145 10 0 6 -29 10 -66 10 -46
0 -63 3 -58 11 4 7 24 9 55 6 29 -4 49 -2 49 3 0 6 -25 10 -55 10 -30 0 -55 5
-55 10 0 6 23 10 50 10 l50 0 0 45 0 45 -110 0 -110 0 0 -45z m100 15 c0 -5
-18 -10 -40 -10 -22 0 -40 5 -40 10 0 6 18 10 40 10 22 0 40 -4 40 -10z m100
0 c0 -5 -18 -10 -40 -10 -22 0 -40 5 -40 10 0 6 18 10 40 10 22 0 40 -4 40
-10z m-100 -30 c0 -5 -18 -10 -41 -10 -24 0 -38 4 -34 10 3 6 22 10 41 10 19
0 34 -4 34 -10z m95 0 c4 -6 -10 -10 -35 -10 -25 0 -39 4 -35 10 3 6 19 10 35
10 16 0 32 -4 35 -10z"/>
<path d="M4475 3526 c-14 -29 -25 -56 -25 -59 0 -4 14 -7 31 -7 l31 0 -26 -34
c-36 -48 -34 -58 12 -51 51 9 62 13 62 23 0 5 -13 7 -30 4 -16 -2 -30 -2 -30
2 0 3 14 29 31 57 23 36 29 53 21 61 -8 8 -14 4 -23 -15 -7 -15 -20 -27 -31
-27 -24 0 -23 10 6 53 19 28 21 37 10 41 -9 4 -22 -12 -39 -48z"/>
<path d="M4640 3550 c0 -28 -3 -30 -35 -30 -19 0 -35 -4 -35 -10 0 -5 16 -10
35 -10 31 0 35 -3 35 -25 0 -21 -5 -25 -30 -25 -16 0 -30 -4 -30 -10 0 -6 32
-10 75 -10 43 0 75 4 75 10 0 6 -16 10 -35 10 -31 0 -35 3 -35 25 0 23 4 25
45 25 25 0 45 5 45 10 0 6 -20 10 -45 10 -46 0 -53 7 -35 41 9 16 7 19 -10 19
-16 0 -20 -6 -20 -30z"/>
<path d="M4923 3560 c5 -19 0 -20 -64 -20 -88 0 -90 -18 -2 -22 42 -2 68 -8
71 -15 2 -9 -11 -13 -47 -13 l-51 0 0 -45 0 -45 37 0 37 0 -30 -31 c-16 -17
-42 -37 -57 -45 -15 -8 -25 -19 -22 -24 10 -17 21 -11 73 35 27 25 53 45 57
45 4 0 5 -25 2 -55 -4 -44 -3 -55 9 -55 11 0 14 15 14 61 l0 62 20 -26 c26
-33 87 -70 100 -62 6 4 -8 19 -32 34 -24 15 -49 35 -57 44 -12 15 -10 17 23
17 l36 0 0 45 0 45 -45 0 c-33 0 -45 4 -45 15 0 12 14 15 65 15 37 0 65 4 65
10 0 6 -28 10 -65 10 -58 0 -65 2 -65 20 0 12 -7 20 -16 20 -11 0 -15 -6 -11
-20z m5 -117 c3 -21 -1 -23 -37 -23 -37 0 -41 2 -41 26 0 23 3 25 38 22 30 -2
38 -7 40 -25z m92 2 c0 -22 -4 -25 -35 -25 -31 0 -35 3 -35 25 0 22 4 25 35
25 31 0 35 -3 35 -25z"/>
<path d="M5209 3558 c-6 -13 -25 -38 -42 -55 -25 -27 -27 -33 -13 -33 9 0 29
14 43 30 21 26 32 30 74 30 53 0 59 -7 31 -33 -24 -22 -35 -21 -57 3 -10 11
-22 17 -27 14 -5 -3 1 -17 13 -30 12 -13 21 -25 18 -27 -7 -6 -63 -25 -91 -31
-31 -7 -38 -26 -10 -26 9 0 42 11 72 23 53 22 56 22 95 6 52 -23 97 -28 102
-11 3 7 -5 12 -21 12 -15 0 -43 7 -62 15 l-36 15 31 35 c17 20 31 40 31 45 0
6 -30 10 -67 11 -38 0 -62 3 -55 6 6 2 10 9 6 14 -9 15 -23 10 -35 -13z"/>
<path d="M5530 3565 c0 -21 -28 -75 -52 -102 -12 -12 -17 -27 -13 -34 6 -8 13
-5 26 12 18 24 19 23 19 -73 0 -59 4 -98 10 -98 6 0 10 45 10 115 0 85 4 124
15 146 16 29 13 49 -6 49 -5 0 -9 -7 -9 -15z"/>
<path d="M5650 3540 c0 -34 -3 -40 -21 -40 -16 0 -19 4 -14 20 4 13 2 20 -7
20 -8 0 -19 -19 -26 -42 -7 -24 -15 -49 -18 -55 -11 -25 17 -13 28 12 7 16 19
25 35 25 20 0 23 -5 23 -35 0 -35 0 -35 -45 -35 -25 0 -45 -4 -45 -10 0 -5 20
-10 45 -10 l45 0 0 -60 c0 -33 4 -60 10 -60 6 0 10 27 10 60 l0 60 50 0 c28 0
50 5 50 10 0 6 -22 10 -50 10 l-50 0 0 35 c0 33 2 35 35 35 19 0 35 5 35 10 0
6 -16 10 -36 10 l-37 0 6 40 c4 30 2 40 -9 40 -10 0 -14 -12 -14 -40z"/>
<path d="M5260 3410 c0 -17 -7 -20 -45 -20 -25 0 -45 -4 -45 -10 0 -5 20 -10
45 -10 l45 0 0 -40 c0 -34 -3 -40 -21 -40 -11 0 -17 -4 -14 -10 3 -5 17 -10
31 -10 22 0 24 4 24 50 l0 50 50 0 c28 0 50 5 50 10 0 6 -23 10 -51 10 -46 0
-51 2 -46 20 3 13 0 20 -9 20 -8 0 -14 -9 -14 -20z"/>
<path d="M4590 3335 c0 -37 4 -65 10 -65 6 0 10 7 10 15 0 22 86 21 94 -1 12
-31 21 -4 18 55 l-4 61 -64 0 -64 0 0 -65z m110 10 c0 -35 0 -35 -45 -35 -45
0 -45 0 -45 35 0 35 0 35 45 35 45 0 45 0 45 -35z"/>
<path d="M5173 3330 c-35 -32 -40 -40 -22 -40 16 0 79 57 72 64 -10 10 -16 7
-50 -24z"/>
<path d="M5310 3351 c0 -13 70 -64 78 -56 4 4 -9 20 -28 36 -35 30 -50 36 -50
20z"/>
<path d="M4496 3326 c-36 -11 -62 -36 -39 -36 21 0 103 33 103 41 0 11 -15 10
-64 -5z"/>
<path d="M7398 3539 l-28 -39 -70 0 c-40 0 -70 -4 -70 -10 0 -6 27 -10 61 -10
59 0 61 -1 55 -22 -3 -13 -6 -26 -6 -30 0 -5 -27 -8 -60 -8 -33 0 -60 -4 -60
-10 0 -6 27 -10 60 -10 33 0 60 -4 60 -9 0 -20 -53 -71 -85 -83 -19 -6 -35
-15 -35 -18 0 -42 115 30 133 83 2 6 18 -5 37 -26 39 -45 85 -71 108 -62 13 5
8 11 -23 26 -40 20 -95 66 -95 81 0 4 27 8 60 8 33 0 60 4 60 10 0 6 -30 10
-71 10 -61 0 -70 2 -65 16 3 9 6 22 6 30 0 11 15 14 62 14 67 0 71 16 5 22
l-39 3 22 28 c13 16 19 32 14 37 -5 4 -21 -9 -36 -31z"/>
<path d="M7620 3493 c0 -47 -3 -83 -6 -80 -4 3 -20 -12 -36 -34 -37 -51 -27
-66 13 -19 l28 35 1 -62 c0 -62 1 -63 26 -61 30 3 64 42 90 104 l17 39 14 -35
c23 -54 63 -104 76 -91 7 7 1 20 -17 42 -28 32 -56 91 -56 115 0 10 13 14 40
14 22 0 40 5 40 10 0 6 -21 10 -46 10 l-46 0 4 50 c2 35 -1 50 -9 50 -9 0 -13
-17 -13 -50 l0 -50 -40 0 c-22 0 -40 -4 -40 -10 0 -5 16 -10 35 -10 29 0 35
-4 35 -20 0 -45 -56 -140 -82 -140 -6 0 -8 61 -6 140 2 107 0 140 -9 140 -10
0 -13 -24 -13 -87z"/>
<path d="M8018 3558 c-3 -21 -9 -23 -65 -26 -78 -4 -84 -22 -8 -22 30 0 55 -4
55 -9 0 -15 -79 -81 -97 -81 -12 0 -14 -3 -6 -11 18 -18 49 -1 98 53 l46 51
35 -42 c45 -52 93 -79 105 -59 6 9 0 15 -20 20 -30 8 -81 50 -81 68 0 5 22 10
50 10 28 0 50 5 50 10 0 6 -30 10 -71 10 -71 0 -71 0 -65 25 5 18 2 25 -8 25
-8 0 -16 -10 -18 -22z"/>
<path d="M7260 3564 c0 -7 25 -29 53 -45 12 -7 17 -6 17 3 0 8 -13 21 -29 31
-31 18 -41 21 -41 11z"/>
<path d="M6900 3550 c0 -5 14 -10 30 -10 29 0 30 -2 30 -45 l0 -45 -40 0 c-28
0 -40 -4 -40 -14 0 -11 10 -13 40 -9 33 5 40 3 40 -11 0 -27 -26 -79 -49 -100
-25 -22 -27 -36 -6 -36 21 0 64 68 71 113 6 36 7 37 50 37 l44 0 0 -75 c0 -96
18 -98 22 -2 l3 72 38 -1 c25 -1 37 3 37 12 0 10 -13 14 -40 14 l-40 0 0 45
c0 43 1 45 30 45 17 0 30 5 30 10 0 6 -48 10 -125 10 -77 0 -125 -4 -125 -10z
m170 -55 l0 -45 -45 0 -45 0 0 45 0 45 45 0 45 0 0 -45z"/>
<path d="M7796 3525 c15 -23 34 -34 34 -19 0 16 -23 44 -36 44 -12 0 -12 -4 2
-25z"/>
<path d="M7560 3511 c0 -15 38 -56 45 -49 9 9 -21 58 -35 58 -6 0 -10 -4 -10
-9z"/>
<path d="M8016 3452 c-7 -11 31 -48 41 -38 4 3 -2 16 -14 27 -11 12 -23 17
-27 11z"/>
<path d="M8016 3392 c-3 -5 5 -19 18 -31 16 -16 26 -19 31 -11 4 6 5 12 4 13
-2 1 -14 10 -26 20 -11 10 -24 14 -27 9z"/>
<path d="M7909 3335 c-22 -46 -7 -54 20 -11 24 39 26 46 9 46 -7 -1 -20 -16
-29 -35z"/>
<path d="M7980 3325 c0 -42 1 -44 34 -50 48 -9 106 11 106 36 0 14 -20 10 -37
-7 -9 -9 -28 -14 -47 -12 -28 3 -31 7 -34 41 -4 52 -22 46 -22 -8z"/>
<path d="M8120 3362 c0 -14 49 -56 57 -49 3 4 -4 18 -17 32 -24 25 -40 32 -40
17z"/>
<path d="M10340 3494 c0 -47 -4 -83 -9 -80 -13 8 -75 -74 -64 -85 6 -6 20 6
39 32 l29 42 3 -67 c3 -64 4 -67 25 -61 31 9 76 63 89 109 l12 39 18 -43 c26
-62 56 -100 73 -93 12 4 10 12 -12 37 -27 32 -62 101 -63 124 0 8 16 12 45 12
25 0 45 5 45 10 0 6 -23 10 -51 10 l-52 0 5 50 c4 38 2 50 -8 50 -10 0 -14
-15 -14 -50 l0 -50 -35 0 c-19 0 -35 -4 -35 -10 0 -5 16 -10 35 -10 33 0 35
-1 29 -27 -11 -48 -31 -87 -55 -113 l-24 -25 -3 143 c-1 83 -7 142 -12 142 -6
0 -10 -37 -10 -86z"/>
<path d="M10730 3555 c0 -24 -3 -25 -60 -25 -33 0 -60 -4 -60 -10 0 -5 25 -10
56 -10 l55 0 -22 -31 c-12 -17 -39 -39 -60 -48 -28 -13 -36 -20 -27 -29 15
-15 90 37 115 78 22 38 33 37 58 -3 22 -34 82 -80 99 -74 20 7 16 25 -8 31
-27 7 -86 53 -86 67 0 5 23 9 50 9 28 0 50 5 50 10 0 6 -30 10 -70 10 -70 0
-70 0 -64 25 5 19 2 25 -10 25 -10 0 -16 -9 -16 -25z"/>
<path d="M11036 3547 c-14 -18 -37 -39 -51 -47 -14 -7 -25 -17 -25 -22 0 -15
23 -8 56 17 26 20 44 25 90 25 l58 0 -33 -34 -34 -35 -28 21 c-16 12 -32 18
-36 14 -4 -4 3 -16 17 -26 25 -19 25 -19 5 -34 -11 -9 -42 -23 -68 -32 -35
-11 -46 -19 -38 -27 7 -7 18 -7 36 1 14 7 28 12 30 12 3 0 5 -25 5 -55 0 -30
5 -55 10 -55 6 0 10 5 10 10 0 6 32 10 75 10 43 0 75 -4 75 -10 0 -5 5 -10 10
-10 6 0 10 30 10 70 l0 70 -66 0 -65 0 60 56 c34 31 61 60 61 65 0 5 -33 9
-72 9 -63 1 -71 3 -56 14 17 12 15 26 -3 26 -4 0 -19 -15 -33 -33z m154 -197
l0 -40 -75 0 -75 0 0 40 0 40 75 0 75 0 0 -40z"/>
<path d="M11454 3563 c-16 -46 -48 -106 -52 -95 -2 7 -12 12 -23 12 -29 0 -27
56 3 64 16 4 20 8 12 16 -8 8 -19 8 -38 0 -15 -5 -39 -10 -52 -10 -14 0 -22
-4 -19 -10 3 -5 15 -10 26 -10 14 0 19 -7 19 -25 0 -20 -5 -25 -25 -25 -14 0
-25 -4 -25 -10 0 -5 11 -10 25 -10 14 0 25 -2 25 -5 0 -11 -32 -70 -47 -87
-10 -11 -11 -18 -3 -23 13 -8 13 -9 33 30 l16 30 1 -67 c0 -54 3 -68 15 -68
12 0 15 15 15 73 1 63 2 70 14 54 10 -12 16 -15 21 -7 4 6 -2 22 -14 34 -29
31 -26 39 12 32 29 -5 35 -3 47 19 11 21 20 25 62 25 46 0 48 -1 38 -20 -8
-16 -8 -20 4 -20 8 0 19 14 25 30 l10 30 -59 0 c-59 0 -59 0 -50 25 6 15 6 26
0 30 -6 4 -13 -2 -16 -12z"/>
<path d="M10500 3543 c0 -4 7 -17 15 -27 17 -23 34 -13 19 11 -12 19 -34 29
-34 16z"/>
<path d="M10270 3515 c0 -12 33 -55 41 -55 15 0 10 26 -9 43 -19 17 -32 22
-32 12z"/>
<path d="M11480 3379 c0 -86 -1 -91 -20 -86 -23 6 -27 -11 -5 -19 32 -13 44
15 47 107 2 66 0 89 -9 89 -10 0 -13 -25 -13 -91z"/>
<path d="M10726 3451 c-3 -5 5 -16 19 -25 19 -12 25 -13 25 -4 0 17 -37 41
-44 29z"/>
<path d="M11520 3411 c0 -20 43 -81 56 -81 11 0 6 13 -16 45 -31 45 -40 53
-40 36z"/>
<path d="M11430 3401 c0 -4 -11 -25 -25 -45 -22 -32 -23 -37 -8 -34 10 2 28
22 41 46 20 35 21 42 8 42 -9 0 -16 -4 -16 -9z"/>
<path d="M10730 3383 c0 -5 12 -16 25 -26 19 -13 25 -15 25 -4 0 7 -5 18 -12
25 -13 13 -38 16 -38 5z"/>
<path d="M10633 3353 c-3 -10 -12 -25 -20 -35 -9 -10 -11 -18 -4 -22 10 -7 51
44 51 63 0 18 -20 13 -27 -6z"/>
<path d="M10690 3327 c0 -42 2 -46 30 -52 37 -8 85 2 101 21 18 22 4 28 -24 9
-14 -9 -38 -15 -54 -13 -24 3 -28 7 -29 37 0 19 -5 36 -12 39 -8 2 -12 -11
-12 -41z"/>
<path d="M10840 3362 c0 -14 46 -53 53 -45 4 3 -3 17 -15 30 -22 23 -38 30
-38 15z"/>
<path d="M855 3125 c-31 -25 -28 -33 6 -15 18 10 19 7 19 -80 l0 -90 -30 0
c-16 0 -30 -4 -30 -10 0 -6 28 -10 65 -10 37 0 65 4 65 10 0 6 -11 10 -25 10
l-25 0 0 105 c0 58 -3 105 -7 105 -5 0 -21 -11 -38 -25z"/>
<path d="M2490 3000 c0 -6 120 -10 340 -10 220 0 340 4 340 10 0 6 -120 10
-340 10 -220 0 -340 -4 -340 -10z"/>
<path d="M4864 3129 c-15 -17 -19 -36 -19 -94 0 -83 18 -115 65 -115 47 0 65
32 65 115 0 83 -18 115 -65 115 -15 0 -35 -9 -46 -21z m80 -21 c21 -30 21
-117 0 -146 -38 -54 -87 -2 -81 85 6 79 47 110 81 61z"/>
<path d="M5136 3129 c-14 -11 -26 -25 -26 -31 0 -6 8 -4 18 5 10 10 22 17 25
17 4 0 7 -40 7 -90 l0 -90 -30 0 c-16 0 -30 -4 -30 -10 0 -6 28 -10 65 -10 37
0 65 4 65 10 0 6 -11 10 -25 10 l-25 0 0 105 c0 58 -4 105 -9 105 -4 0 -20 -9
-35 -21z"/>
<path d="M5270 3076 c-23 -28 -8 -59 37 -76 53 -19 59 -26 43 -45 -15 -18 -61
-20 -78 -3 -6 6 -15 8 -19 4 -13 -12 28 -36 62 -36 39 0 70 30 61 58 -6 18
-23 28 -79 46 -23 8 -18 40 7 44 10 2 29 -2 42 -9 30 -15 40 -7 19 15 -20 20
-78 21 -95 2z"/>
<path d="M5030 2935 c0 -8 5 -15 10 -15 6 0 10 7 10 15 0 8 -4 15 -10 15 -5 0
-10 -7 -10 -15z"/>
<path d="M7697 3194 c-4 -4 5 -21 20 -38 l26 -31 -51 -3 c-29 -2 -52 -7 -52
-13 0 -12 197 -12 205 1 4 6 -13 10 -44 10 -37 0 -49 3 -45 13 5 15 -49 71
-59 61z"/>
<path d="M7380 3177 c0 -19 52 -98 84 -126 18 -17 29 -22 37 -14 7 7 -1 18
-24 36 -18 14 -44 46 -58 71 -24 45 -39 58 -39 33z"/>
<path d="M7601 3145 c-11 -25 -29 -59 -41 -74 -16 -24 -17 -30 -6 -34 8 -3 21
4 30 16 14 20 15 14 15 -81 1 -66 5 -101 11 -97 6 4 10 59 10 133 0 96 4 133
15 148 14 20 11 34 -6 34 -5 0 -17 -20 -28 -45z"/>
<path d="M7296 3154 c-4 -14 -25 -45 -48 -70 -44 -48 -45 -73 -2 -33 27 25 84
107 84 121 0 20 -29 5 -34 -18z"/>
<path d="M7771 3018 c-20 -96 -23 -100 -87 -96 -30 1 -54 0 -54 -4 0 -5 53 -7
118 -6 64 1 96 3 70 5 -27 2 -48 5 -48 6 0 1 9 34 20 72 24 83 24 85 7 85 -8
0 -18 -24 -26 -62z"/>
<path d="M7270 3060 c0 -5 11 -10 25 -10 18 0 25 -5 25 -20 0 -38 -29 -90 -60
-108 -31 -18 -36 -27 -21 -36 14 -9 72 44 87 81 8 18 14 44 14 58 0 23 4 25
40 25 l40 0 0 -42 c0 -68 -9 -88 -37 -88 -15 0 -23 -5 -21 -12 7 -19 31 -21
53 -4 16 11 20 29 23 90 l4 76 -86 0 c-51 0 -86 -4 -86 -10z"/>
<path d="M7672 3059 c2 -8 10 -35 17 -61 8 -29 19 -48 28 -48 15 0 14 4 -12
79 -11 33 -42 60 -33 30z"/>
<path d="M10550 3183 c0 -3 7 -15 17 -25 15 -17 13 -18 -50 -18 l-67 0 0 -30
c0 -16 5 -30 10 -30 6 0 10 9 10 20 0 19 7 20 110 20 103 0 110 -1 110 -20 0
-11 5 -20 10 -20 6 0 10 14 10 30 0 30 0 30 -56 30 -30 0 -53 4 -50 9 3 5 -5
16 -19 25 -26 17 -35 20 -35 9z"/>
<path d="M10840 3103 c0 -47 -3 -83 -6 -80 -4 3 -20 -12 -36 -34 -37 -51 -27
-66 13 -19 l28 35 1 -62 c0 -62 1 -63 26 -61 30 3 64 42 90 104 l17 39 14 -35
c23 -54 63 -104 76 -91 7 7 1 20 -17 42 -28 32 -56 91 -56 115 0 10 13 14 40
14 22 0 40 5 40 10 0 6 -21 10 -46 10 l-46 0 4 50 c2 35 -1 50 -9 50 -9 0 -13
-17 -13 -50 l0 -50 -40 0 c-22 0 -40 -4 -40 -10 0 -5 16 -10 35 -10 29 0 35
-4 35 -20 0 -45 -56 -140 -82 -140 -6 0 -8 61 -6 140 2 107 0 140 -9 140 -10
0 -13 -24 -13 -87z"/>
<path d="M11238 3168 c-3 -21 -9 -23 -65 -26 -78 -4 -84 -22 -8 -22 30 0 55
-4 55 -9 0 -15 -79 -81 -97 -81 -12 0 -14 -3 -6 -11 18 -18 49 -1 98 53 l46
51 35 -42 c45 -52 93 -79 105 -59 6 9 0 15 -20 20 -30 8 -81 50 -81 68 0 5 22
10 50 10 28 0 50 5 50 10 0 6 -30 10 -71 10 -71 0 -71 0 -65 25 5 18 2 25 -8
25 -8 0 -16 -10 -18 -22z"/>
<path d="M11016 3135 c15 -23 34 -34 34 -19 0 16 -23 44 -36 44 -12 0 -12 -4
2 -25z"/>
<path d="M10780 3121 c0 -15 38 -56 45 -49 9 9 -21 58 -35 58 -6 0 -10 -4 -10
-9z"/>
<path d="M10509 3067 c-14 -12 -34 -27 -44 -33 -12 -6 -15 -13 -8 -17 10 -6
103 52 103 66 0 14 -25 6 -51 -16z"/>
<path d="M10610 3081 c0 -10 75 -61 90 -61 21 0 8 16 -34 43 -46 29 -56 32
-56 18z"/>
<path d="M11236 3062 c-7 -11 31 -48 41 -38 4 3 -2 16 -14 27 -11 12 -23 17
-27 11z"/>
<path d="M10480 3000 c0 -5 20 -10 45 -10 l45 0 0 -40 0 -40 -70 0 c-40 0 -70
-4 -70 -10 0 -6 55 -10 145 -10 90 0 145 4 145 10 0 6 -28 10 -65 10 l-65 0 0
40 0 40 45 0 c25 0 45 5 45 10 0 6 -40 10 -100 10 -60 0 -100 -4 -100 -10z"/>
<path d="M11236 3002 c-3 -5 5 -19 18 -31 16 -16 26 -19 31 -11 4 6 5 12 4 13
-2 1 -14 10 -26 20 -11 10 -24 14 -27 9z"/>
<path d="M11129 2945 c-22 -46 -7 -54 20 -11 24 39 26 46 9 46 -7 -1 -20 -16
-29 -35z"/>
<path d="M11200 2935 c0 -42 1 -44 34 -50 48 -9 106 11 106 36 0 14 -20 10
-37 -7 -9 -9 -28 -14 -47 -12 -28 3 -31 7 -34 41 -4 52 -22 46 -22 -8z"/>
<path d="M11340 2972 c0 -14 49 -56 57 -49 3 4 -4 18 -17 32 -24 25 -40 32
-40 17z"/>
<path d="M837 2752 c-18 -19 -23 -42 -9 -42 4 0 13 9 20 20 22 36 82 23 82
-18 0 -17 -19 -45 -60 -88 -33 -34 -60 -67 -60 -73 0 -7 26 -11 70 -11 84 0
94 18 13 22 l-58 3 58 56 c62 62 74 101 39 132 -25 22 -75 21 -95 -1z"/>
<path d="M2662 2674 c3 -86 5 -98 27 -115 31 -25 82 -24 115 2 25 19 26 25 26
115 0 56 -4 94 -10 94 -6 0 -10 -36 -10 -89 0 -99 -11 -121 -59 -121 -54 0
-66 19 -69 119 -2 52 -8 91 -14 91 -6 0 -9 -37 -6 -96z"/>
<path d="M2890 2695 c-16 -19 -5 -34 12 -17 18 18 56 14 68 -7 15 -29 13 -31
-23 -31 -41 0 -77 -25 -77 -54 0 -42 45 -60 91 -36 13 7 19 7 19 0 0 -5 5 -10
10 -10 17 0 12 123 -6 148 -18 26 -75 30 -94 7z m90 -88 c0 -22 -37 -49 -62
-45 -26 3 -37 36 -16 49 21 14 78 11 78 -4z"/>
<path d="M4840 2780 c0 -36 -2 -40 -25 -40 -14 0 -25 -4 -25 -10 0 -5 11 -10
25 -10 22 0 25 -4 25 -33 0 -26 -6 -36 -25 -45 -14 -6 -25 -16 -25 -22 0 -13
6 -13 31 0 18 10 19 7 19 -39 0 -37 -4 -53 -17 -60 -10 -5 -14 -13 -10 -17 4
-5 16 -3 25 2 12 8 18 28 20 75 2 43 8 66 18 72 19 11 18 28 -1 21 -11 -5 -15
1 -15 20 0 16 6 26 15 26 8 0 15 5 15 10 0 6 -7 10 -15 10 -11 0 -15 11 -15
40 0 22 -4 40 -10 40 -5 0 -10 -18 -10 -40z"/>
<path d="M4975 2790 c18 -20 17 -20 -28 -20 -46 0 -47 -1 -47 -30 0 -19 5 -30
14 -30 9 0 12 7 9 20 -5 19 0 20 66 20 64 0 71 -2 71 -20 0 -11 5 -20 10 -20
6 0 10 14 10 30 0 29 -2 30 -42 30 -23 0 -38 3 -35 7 10 9 -13 33 -31 33 -13
0 -12 -3 3 -20z"/>
<path d="M5235 2767 c-17 -23 -49 -52 -72 -63 -34 -17 -40 -24 -29 -33 15 -13
78 28 115 75 l22 28 42 -42 42 -42 -77 0 c-42 0 -80 -4 -83 -10 -4 -6 25 -10
79 -10 53 0 86 4 86 10 0 7 7 7 21 0 11 -7 28 -9 37 -5 13 5 7 11 -23 24 -46
20 -105 75 -105 97 0 26 -25 13 -55 -29z"/>
<path d="M4926 2683 c-39 -46 -24 -55 20 -11 25 24 32 37 22 40 -7 3 -26 -10
-42 -29z"/>
<path d="M5010 2702 c0 -14 49 -56 57 -49 3 4 -4 18 -17 32 -24 25 -40 32 -40
17z"/>
<path d="M4920 2620 c0 -5 14 -10 30 -10 28 0 30 -3 30 -35 0 -35 0 -35 -45
-35 -25 0 -45 -4 -45 -10 0 -6 40 -10 100 -10 60 0 100 4 100 10 0 6 -20 10
-45 10 -45 0 -45 0 -45 35 0 32 2 35 29 35 17 0 33 5 36 10 4 6 -22 10 -69 10
-44 0 -76 -4 -76 -10z"/>
<path d="M5180 2565 c0 -37 4 -65 10 -65 6 0 10 5 10 10 0 6 32 10 75 10 43 0
75 -4 75 -10 0 -5 5 -10 10 -10 6 0 10 28 10 65 l0 65 -95 0 -95 0 0 -65z
m170 10 l0 -35 -75 0 -75 0 0 35 0 35 75 0 75 0 0 -35z"/>
<path d="M7697 2814 c-4 -4 5 -21 20 -38 l26 -31 -51 -3 c-29 -2 -52 -7 -52
-13 0 -12 197 -12 205 1 4 6 -13 10 -44 10 -37 0 -49 3 -45 13 5 15 -49 71
-59 61z"/>
<path d="M7380 2797 c0 -19 52 -98 84 -126 18 -17 29 -22 37 -14 7 7 -1 18
-24 36 -18 14 -44 46 -58 71 -24 45 -39 58 -39 33z"/>
<path d="M7601 2765 c-11 -25 -29 -59 -41 -74 -16 -24 -17 -30 -6 -34 8 -3 21
4 30 16 14 20 15 14 15 -81 1 -66 5 -101 11 -97 6 4 10 59 10 133 0 96 4 133
15 148 14 20 11 34 -6 34 -5 0 -17 -20 -28 -45z"/>
<path d="M7296 2774 c-4 -14 -25 -45 -48 -70 -44 -48 -45 -73 -2 -33 27 25 84
107 84 121 0 20 -29 5 -34 -18z"/>
<path d="M7771 2638 c-20 -96 -23 -100 -87 -96 -30 1 -54 0 -54 -4 0 -5 53 -7
118 -6 64 1 96 3 70 5 -27 2 -48 5 -48 6 0 1 9 34 20 72 24 83 24 85 7 85 -8
0 -18 -24 -26 -62z"/>
<path d="M7270 2680 c0 -5 11 -10 25 -10 18 0 25 -5 25 -20 0 -38 -29 -90 -60
-108 -31 -18 -36 -27 -21 -36 14 -9 72 44 87 81 8 18 14 44 14 58 0 23 4 25
40 25 l40 0 0 -42 c0 -68 -9 -88 -37 -88 -15 0 -23 -5 -21 -12 7 -19 31 -21
53 -4 16 11 20 29 23 90 l4 76 -86 0 c-51 0 -86 -4 -86 -10z"/>
<path d="M7672 2679 c2 -8 10 -35 17 -61 8 -29 19 -48 28 -48 15 0 14 4 -12
79 -11 33 -42 60 -33 30z"/>
<path d="M10720 2790 c0 -29 -1 -30 -50 -30 l-50 0 0 -85 0 -85 49 0 50 0 3
-37 3 -38 70 -3 c62 -3 72 0 87 19 10 11 15 25 12 30 -9 15 -21 10 -27 -11 -4
-17 -14 -20 -66 -20 l-61 0 0 30 c0 30 1 30 55 30 l55 0 0 85 0 85 -56 0 c-54
0 -56 1 -52 24 3 15 0 27 -8 30 -10 4 -14 -3 -14 -24z m0 -75 c0 -22 -4 -25
-40 -25 -36 0 -40 3 -40 25 0 23 4 25 40 25 36 0 40 -2 40 -25z m110 0 c0 -23
-4 -25 -45 -25 -41 0 -45 2 -45 25 0 23 4 25 45 25 41 0 45 -2 45 -25z m-110
-75 c0 -28 -2 -30 -40 -30 -38 0 -40 2 -40 30 0 28 2 30 40 30 38 0 40 -2 40
-30z m110 0 c0 -29 -2 -30 -45 -30 -43 0 -45 1 -45 30 0 29 2 30 45 30 43 0
45 -1 45 -30z"/>
<path d="M10400 2790 c0 -18 -7 -20 -55 -20 -30 0 -55 -4 -55 -10 0 -5 25 -10
55 -10 l55 0 0 -45 0 -45 -65 0 c-37 0 -65 -4 -65 -10 0 -5 26 -10 58 -10 l57
-1 -40 -37 c-22 -21 -49 -43 -60 -50 -14 -7 -17 -14 -9 -21 7 -8 27 4 67 40
l57 51 0 -61 c0 -34 4 -61 10 -61 6 0 10 27 10 61 l0 61 39 -35 c50 -46 78
-60 99 -52 13 5 7 12 -28 30 -25 13 -56 35 -69 49 l-24 26 56 0 c31 0 57 5 57
10 0 6 -28 10 -65 10 l-65 0 0 45 0 45 60 0 c33 0 60 4 60 10 0 6 -27 10 -61
10 -56 0 -61 2 -56 20 3 13 0 20 -9 20 -8 0 -14 -9 -14 -20z"/>
<path d="M11055 2774 c-21 -40 -58 -69 -98 -79 -22 -6 -25 -10 -16 -21 15 -18
51 1 103 55 l39 40 42 -38 c53 -49 82 -64 103 -56 13 5 8 11 -23 26 -45 22
-105 77 -105 96 0 25 -26 12 -45 -23z"/>
<path d="M11328 2804 c-8 -8 20 -54 33 -54 14 0 10 12 -9 38 -10 13 -21 20
-24 16z"/>
<path d="M11400 2778 c0 -10 18 -12 65 -10 l65 4 0 -121 c0 -114 -1 -121 -20
-121 -11 0 -20 -5 -20 -11 0 -6 12 -9 28 -7 l27 3 3 138 3 137 -76 0 c-53 0
-75 -4 -75 -12z"/>
<path d="M11300 2631 c0 -162 18 -167 22 -6 2 95 0 125 -9 125 -10 0 -13 -31
-13 -119z"/>
<path d="M10316 2732 c-3 -5 8 -21 23 -36 16 -15 31 -23 35 -18 3 5 -8 21 -23
36 -16 15 -31 23 -35 18z"/>
<path d="M10462 2711 c-12 -17 -18 -32 -13 -35 11 -7 63 48 54 57 -11 12 -19
8 -41 -22z"/>
<path d="M11350 2660 l0 -60 35 0 c34 0 35 -1 35 -40 0 -22 5 -40 10 -40 6 0
10 18 10 40 0 38 2 40 30 40 l30 0 0 60 0 60 -75 0 -75 0 0 -60z m70 25 c0 -9
-9 -15 -25 -15 -16 0 -25 6 -25 15 0 9 9 15 25 15 16 0 25 -6 25 -15z m60 0
c0 -8 -9 -15 -20 -15 -11 0 -20 7 -20 15 0 8 9 15 20 15 11 0 20 -7 20 -15z
m-60 -50 c0 -9 -9 -15 -25 -15 -16 0 -25 6 -25 15 0 9 9 15 25 15 16 0 25 -6
25 -15z m60 0 c0 -8 -9 -15 -20 -15 -11 0 -20 7 -20 15 0 8 9 15 20 15 11 0
20 -7 20 -15z"/>
<path d="M11010 2680 c0 -6 33 -10 80 -10 47 0 80 4 80 10 0 6 -33 10 -80 10
-47 0 -80 -4 -80 -10z"/>
<path d="M11000 2565 c0 -37 4 -65 10 -65 6 0 10 5 10 10 0 6 30 10 70 10 40
0 70 -4 70 -10 0 -5 6 -10 13 -10 8 0 12 20 12 65 l0 65 -92 0 -93 0 0 -65z
m160 10 l0 -35 -70 0 -70 0 0 35 0 35 70 0 70 0 0 -35z"/>
<path d="M820 2363 c-14 -18 -17 -29 -10 -31 6 -2 18 5 26 17 24 34 84 25 84
-13 0 -28 -18 -46 -47 -46 -13 0 -23 -4 -23 -10 0 -5 13 -10 28 -10 15 0 33
-5 40 -12 15 -15 15 -51 0 -66 -19 -19 -66 -14 -80 8 -15 23 -28 26 -28 7 0
-41 75 -61 118 -31 29 20 30 77 2 97 -18 12 -18 15 -5 20 23 9 20 74 -4 87
-36 19 -78 12 -101 -17z"/>
<path d="M2440 2296 c0 -90 1 -96 26 -115 46 -36 105 -27 129 20 17 31 21 189
6 189 -5 0 -11 -41 -13 -91 -3 -100 -15 -119 -69 -119 -48 0 -59 22 -59 121 0
53 -4 89 -10 89 -6 0 -10 -38 -10 -94z"/>
<path d="M2910 2296 c0 -90 1 -96 26 -115 46 -36 105 -27 129 20 17 31 21 189
6 189 -5 0 -11 -41 -13 -91 -3 -100 -15 -119 -69 -119 -48 0 -59 22 -59 121 0
53 -4 89 -10 89 -6 0 -10 -38 -10 -94z"/>
<path d="M2673 2323 c-14 -5 -18 -33 -5 -33 4 0 13 5 19 11 18 18 58 7 61 -18
3 -20 -1 -23 -32 -23 -37 0 -76 -28 -76 -53 0 -37 71 -62 98 -35 9 9 12 9 12
0 0 -7 5 -12 10 -12 6 0 10 32 10 75 0 63 -3 76 -19 85 -20 10 -57 12 -78 3z
m77 -101 c0 -24 -19 -42 -45 -42 -31 0 -46 19 -34 42 14 25 79 26 79 0z"/>
<path d="M2830 2315 c0 -8 5 -15 10 -15 6 0 10 7 10 15 0 8 -4 15 -10 15 -5 0
-10 -7 -10 -15z"/>
<path d="M3140 2303 c-18 -22 -21 -37 -17 -72 3 -27 12 -50 23 -58 26 -19 68
-16 89 7 23 25 12 39 -13 17 -40 -36 -82 -11 -82 48 0 57 49 88 80 50 14 -17
30 -20 30 -6 0 19 -32 41 -60 41 -19 0 -36 -9 -50 -27z"/>
<path d="M2833 2155 c3 -46 17 -46 17 0 0 19 -4 35 -9 35 -5 0 -9 -16 -8 -35z"/>
<path d="M4892 2374 c-12 -8 -22 -22 -22 -30 0 -20 13 -17 28 6 16 27 68 27
82 1 14 -28 2 -51 -31 -58 -35 -7 -38 -23 -5 -23 27 0 56 -24 56 -45 0 -42
-79 -62 -102 -25 -15 23 -28 26 -28 6 0 -36 77 -59 120 -36 28 15 34 59 12 90
-17 23 -18 28 -6 45 19 26 18 41 -6 65 -24 24 -67 26 -98 4z"/>
<path d="M5067 2333 c-2 -32 -3 -60 0 -63 2 -2 13 1 23 8 44 27 80 8 80 -43 0
-17 -5 -36 -12 -43 -17 -17 -67 -15 -74 3 -8 19 -24 19 -24 0 0 -18 31 -35 64
-35 38 0 66 33 66 78 0 49 -27 76 -70 70 -28 -4 -30 -3 -30 29 0 32 1 33 45
33 25 0 45 5 45 10 0 6 -24 10 -54 10 l-54 0 -5 -57z"/>
<path d="M5236 2317 c-33 -24 -17 -59 34 -77 33 -11 45 -21 45 -35 0 -15 -8
-21 -33 -23 -18 -2 -40 2 -48 9 -21 17 -28 5 -9 -15 34 -33 115 -14 115 28 0
28 -13 39 -63 56 -27 8 -37 17 -35 28 4 21 54 28 74 11 8 -6 18 -9 22 -5 11
12 -29 36 -58 36 -14 0 -34 -6 -44 -13z"/>
<path d="M7322 2385 c-18 -26 -48 -53 -69 -62 -21 -10 -40 -18 -42 -20 -1 -1
0 -7 4 -13 9 -15 81 27 116 70 l29 35 15 -23 c25 -35 104 -85 123 -77 13 5 7
12 -29 30 -44 23 -99 76 -99 96 0 20 -18 7 -48 -36z"/>
<path d="M7601 2385 c-11 -25 -29 -59 -41 -74 -16 -24 -17 -30 -6 -34 8 -3 21
4 30 16 14 20 15 14 15 -81 1 -66 5 -101 11 -97 6 4 10 59 10 133 0 96 4 133
15 148 14 20 11 34 -6 34 -5 0 -17 -20 -28 -45z"/>
<path d="M7771 2258 c-20 -96 -23 -100 -87 -96 -30 1 -54 0 -54 -4 0 -5 53 -7
118 -6 64 1 96 3 70 5 -27 2 -48 5 -48 6 0 1 9 34 20 72 24 83 24 85 7 85 -8
0 -18 -24 -26 -62z"/>
<path d="M7280 2300 c0 -6 33 -10 80 -10 47 0 80 4 80 10 0 6 -33 10 -80 10
-47 0 -80 -4 -80 -10z"/>
<path d="M7672 2299 c2 -8 10 -35 17 -61 8 -29 19 -48 28 -48 15 0 14 4 -12
79 -11 33 -42 60 -33 30z"/>
<path d="M7270 2185 c0 -37 4 -65 10 -65 6 0 10 5 10 10 0 6 32 10 75 10 43 0
75 -4 75 -10 0 -5 5 -10 10 -10 6 0 10 28 10 65 l0 65 -95 0 -95 0 0 -65z
m170 10 l0 -35 -75 0 -75 0 0 35 0 35 75 0 75 0 0 -35z"/>
<path d="M11318 2388 c-42 -46 -43 -48 -25 -48 17 0 89 74 81 83 -12 11 -17 8
-56 -35z"/>
<path d="M10280 2400 c0 -6 28 -10 65 -10 l65 0 0 -115 0 -115 -30 0 -30 0 0
85 c0 64 -3 85 -13 85 -10 0 -12 -19 -9 -85 l5 -85 -37 0 c-20 0 -36 -4 -36
-10 0 -6 58 -10 155 -10 97 0 155 4 155 10 0 6 -30 10 -70 10 l-70 0 0 60 0
60 45 0 c25 0 45 5 45 10 0 6 -20 10 -45 10 l-45 0 0 45 0 45 60 0 c33 0 60 4
60 10 0 6 -52 10 -135 10 -83 0 -135 -4 -135 -10z"/>
<path d="M10960 2402 c0 -14 49 -56 57 -49 3 4 -4 18 -17 32 -24 25 -40 32
-40 17z"/>
<path d="M11400 2400 c0 -6 33 -10 80 -10 47 0 80 4 80 10 0 6 -33 10 -80 10
-47 0 -80 -4 -80 -10z"/>
<path d="M11040 2390 c0 -6 35 -10 85 -10 50 0 85 4 85 10 0 6 -35 10 -85 10
-50 0 -85 -4 -85 -10z"/>
<path d="M11360 2341 c0 -4 -18 -28 -40 -53 -38 -44 -45 -74 -8 -41 17 15 18
13 18 -55 0 -51 4 -72 13 -72 9 0 11 21 9 81 -3 70 -1 86 17 110 25 34 26 39
6 39 -8 0 -15 -4 -15 -9z"/>
<path d="M10670 2298 c0 -37 1 -38 35 -38 19 0 35 -4 35 -10 0 -5 -22 -10 -50
-10 l-50 0 0 -50 c0 -34 4 -50 13 -50 9 0 11 12 9 40 l-4 40 41 0 41 0 0 -50
c0 -27 5 -50 10 -50 6 0 10 23 10 50 l0 50 40 0 c36 0 40 -2 40 -26 0 -17 -6
-28 -20 -31 -30 -8 -24 -25 8 -21 25 3 27 7 30 51 l3 47 -51 0 c-32 0 -49 4
-45 10 3 6 19 10 36 10 27 0 29 3 29 38 l0 37 -80 0 -80 0 0 -37z m138 0 c3
-16 -5 -18 -57 -18 -55 0 -61 2 -61 20 0 19 5 21 57 18 46 -2 59 -7 61 -20z"/>
<path d="M11020 2310 c0 -5 16 -10 35 -10 19 0 35 -3 35 -6 0 -13 -44 -84 -52
-84 -4 0 -8 -7 -8 -16 0 -12 7 -14 28 -10 84 16 113 17 128 6 25 -22 27 -3 3
39 -15 27 -26 38 -32 32 -7 -7 -6 -15 2 -25 11 -13 9 -16 -12 -21 -13 -4 -36
-5 -51 -3 l-26 3 26 43 c25 41 26 42 80 42 30 0 54 5 54 10 0 6 -42 10 -105
10 -63 0 -105 -4 -105 -10z"/>
<path d="M11380 2300 c0 -6 28 -10 65 -10 l65 0 0 -74 0 -73 -26 5 c-20 4 -25
1 -22 -9 6 -19 36 -23 53 -9 11 9 15 34 15 86 0 72 1 74 25 74 14 0 25 5 25
10 0 6 -40 10 -100 10 -60 0 -100 -4 -100 -10z"/>
<path d="M10935 2290 c3 -5 15 -10 26 -10 16 0 19 -7 19 -49 0 -39 -4 -51 -22
-64 -28 -18 -18 -33 10 -16 16 10 27 9 61 -4 54 -22 196 -24 204 -3 5 12 -8
13 -71 9 -50 -3 -91 0 -117 9 l-40 13 -3 63 -3 62 -35 0 c-21 0 -33 -4 -29
-10z"/>
<path d="M860 1935 c-72 -107 -72 -105 -6 -105 53 0 56 -1 56 -25 0 -14 5 -25
10 -25 6 0 10 11 10 25 0 16 6 25 15 25 8 0 15 5 15 10 0 6 -7 10 -15 10 -12
0 -15 16 -15 80 0 45 -4 80 -10 80 -5 0 -32 -34 -60 -75z m50 -25 l0 -60 -40
0 c-22 0 -40 3 -40 6 0 5 73 113 78 114 1 0 2 -27 2 -60z"/>
<path d="M2060 1916 c0 -90 1 -96 26 -115 46 -36 105 -27 129 20 17 31 21 189
6 189 -5 0 -11 -41 -13 -91 -3 -100 -15 -119 -69 -119 -48 0 -59 22 -59 121 0
53 -4 89 -10 89 -6 0 -10 -38 -10 -94z"/>
<path d="M2522 1914 c3 -86 5 -98 27 -115 31 -25 82 -24 115 2 25 19 26 25 26
115 0 56 -4 94 -10 94 -6 0 -10 -36 -10 -89 0 -99 -11 -121 -59 -121 -54 0
-66 19 -69 119 -2 52 -8 91 -14 91 -6 0 -9 -37 -6 -96z"/>
<path d="M2972 1914 c3 -86 5 -98 27 -115 31 -25 82 -24 115 2 25 19 26 25 26
115 0 56 -4 94 -10 94 -6 0 -10 -36 -10 -89 0 -99 -11 -121 -59 -121 -54 0
-66 19 -69 119 -2 52 -8 91 -14 91 -6 0 -9 -37 -6 -96z"/>
<path d="M3430 1895 c0 -70 4 -115 10 -115 6 0 10 45 10 115 0 70 -4 115 -10
115 -6 0 -10 -45 -10 -115z"/>
<path d="M2284 1936 c-10 -8 -16 -18 -11 -22 4 -4 13 -2 19 4 17 17 65 15 72
-4 11 -28 6 -34 -27 -34 -43 0 -77 -25 -77 -56 0 -34 40 -52 81 -37 16 6 29 7
29 2 0 -5 5 -9 10 -9 17 0 12 136 -6 154 -19 20 -64 21 -90 2z m86 -87 c0 -27
-22 -49 -51 -49 -33 0 -48 22 -29 45 14 17 80 21 80 4z"/>
<path d="M2450 1935 c0 -8 5 -15 10 -15 6 0 10 7 10 15 0 8 -4 15 -10 15 -5 0
-10 -7 -10 -15z"/>
<path d="M2760 1930 c-14 -14 -20 -33 -20 -65 0 -54 25 -85 69 -85 32 0 73 41
50 49 -7 2 -16 -4 -21 -13 -11 -19 -49 -21 -66 -4 -16 16 -16 90 0 106 17 17
55 15 66 -4 5 -9 14 -15 21 -13 8 3 7 11 -4 27 -20 28 -68 29 -95 2z"/>
<path d="M2900 1935 c0 -8 5 -15 10 -15 6 0 10 7 10 15 0 8 -4 15 -10 15 -5 0
-10 -7 -10 -15z"/>
<path d="M3190 1940 c0 -5 20 -10 45 -10 25 0 45 -3 45 -6 0 -3 -22 -33 -50
-66 -27 -33 -50 -64 -50 -69 0 -5 35 -9 77 -9 86 0 91 17 6 22 l-52 3 54 65
c30 36 54 68 54 73 1 4 -28 7 -64 7 -37 0 -65 -4 -65 -10z"/>
<path d="M3350 1935 c0 -8 5 -15 10 -15 6 0 10 7 10 15 0 8 -4 15 -10 15 -5 0
-10 -7 -10 -15z"/>
<path d="M3490 1944 c0 -3 11 -21 24 -41 l25 -36 -30 -44 c-23 -33 -26 -43
-14 -43 8 0 15 3 15 8 1 4 11 20 24 35 l23 28 24 -35 c13 -20 30 -36 37 -36 8
0 2 17 -17 43 l-30 44 25 37 c33 48 21 61 -15 17 l-28 -34 -22 32 c-20 27 -41
41 -41 25z"/>
<path d="M2453 1776 c0 -19 5 -33 9 -30 11 7 10 64 -1 64 -5 0 -9 -15 -8 -34z"/>
<path d="M2903 1776 c0 -19 5 -33 9 -30 11 7 10 64 -1 64 -5 0 -9 -15 -8 -34z"/>
<path d="M3353 1775 c3 -46 17 -46 17 0 0 19 -4 35 -9 35 -5 0 -9 -16 -8 -35z"/>
<path d="M4975 2030 c18 -20 17 -20 -28 -20 -46 0 -47 -1 -47 -30 0 -19 5 -30
14 -30 9 0 12 7 9 20 -5 19 0 20 66 20 64 0 71 -2 71 -20 0 -11 5 -20 10 -20
6 0 10 14 10 30 0 29 -2 30 -42 30 -23 0 -38 3 -35 7 10 9 -13 33 -31 33 -13
0 -12 -3 3 -20z"/>
<path d="M5290 2045 c0 -3 9 -23 20 -45 27 -53 89 -115 102 -102 7 7 -3 22
-30 46 -22 20 -47 52 -56 71 -14 30 -36 48 -36 30z"/>
<path d="M5195 1990 c-14 -27 -36 -57 -50 -66 -14 -9 -25 -20 -25 -25 0 -14
26 -11 39 4 6 8 23 12 41 9 24 -3 30 -9 30 -29 0 -33 -24 -77 -56 -102 -32
-25 -23 -48 10 -26 25 17 62 82 71 128 5 23 10 27 41 27 l35 0 -3 -62 c-3 -61
-4 -63 -31 -66 -16 -2 -27 -8 -24 -15 6 -19 32 -19 55 0 17 15 21 32 24 88 l3
70 -82 3 c-46 2 -83 4 -83 6 0 2 11 24 25 47 27 48 30 59 15 59 -5 0 -21 -22
-35 -50z"/>
<path d="M4926 1923 c-39 -46 -24 -55 20 -11 25 24 32 37 22 40 -7 3 -26 -10
-42 -29z"/>
<path d="M5010 1942 c0 -14 49 -56 57 -49 3 4 -4 18 -17 32 -24 25 -40 32 -40
17z"/>
<path d="M4920 1860 c0 -5 14 -10 30 -10 28 0 30 -3 30 -35 0 -35 0 -35 -45
-35 -25 0 -45 -4 -45 -10 0 -6 40 -10 100 -10 60 0 100 4 100 10 0 6 -20 10
-45 10 -45 0 -45 0 -45 35 0 32 2 35 29 35 17 0 33 5 36 10 4 6 -22 10 -69 10
-44 0 -76 -4 -76 -10z"/>
<path d="M7322 2005 c-18 -26 -48 -53 -69 -62 -21 -10 -40 -18 -42 -20 -1 -1
0 -7 4 -13 9 -15 81 27 116 70 l29 35 15 -23 c25 -35 104 -85 123 -77 13 5 7
12 -29 30 -44 23 -99 76 -99 96 0 20 -18 7 -48 -36z"/>
<path d="M7601 2005 c-11 -25 -29 -59 -41 -74 -16 -24 -17 -30 -6 -34 8 -3 21
4 30 16 14 20 15 14 15 -81 1 -66 5 -101 11 -97 6 4 10 59 10 133 0 96 4 133
15 148 14 20 11 34 -6 34 -5 0 -17 -20 -28 -45z"/>
<path d="M7771 1878 c-20 -96 -23 -100 -87 -96 -30 1 -54 0 -54 -4 0 -5 53 -7
118 -6 64 1 96 3 70 5 -27 2 -48 5 -48 6 0 1 9 34 20 72 24 83 24 85 7 85 -8
0 -18 -24 -26 -62z"/>
<path d="M7280 1920 c0 -6 33 -10 80 -10 47 0 80 4 80 10 0 6 -33 10 -80 10
-47 0 -80 -4 -80 -10z"/>
<path d="M7672 1919 c2 -8 10 -35 17 -61 8 -29 19 -48 28 -48 15 0 14 4 -12
79 -11 33 -42 60 -33 30z"/>
<path d="M7270 1805 c0 -37 4 -65 10 -65 6 0 10 5 10 10 0 6 32 10 75 10 43 0
75 -4 75 -10 0 -5 5 -10 10 -10 6 0 10 28 10 65 l0 65 -95 0 -95 0 0 -65z
m170 10 l0 -35 -75 0 -75 0 0 35 0 35 75 0 75 0 0 -35z"/>
<path d="M10310 2015 c0 -28 -4 -35 -20 -35 -11 0 -20 -4 -20 -10 0 -5 9 -10
20 -10 17 0 20 -7 20 -44 0 -36 -4 -46 -20 -51 -11 -3 -20 -11 -20 -17 0 -6 9
-8 20 -5 18 5 20 0 20 -39 0 -32 -4 -44 -15 -44 -8 0 -15 -5 -15 -11 0 -6 10
-9 23 -7 20 3 22 9 25 63 2 39 8 63 18 68 19 11 18 28 -1 21 -12 -5 -15 2 -15
29 0 29 4 36 23 40 l22 4 -23 8 c-20 7 -23 13 -20 41 3 23 0 34 -9 34 -8 0
-13 -13 -13 -35z"/>
<path d="M10640 2005 c0 -38 -3 -45 -20 -45 -11 0 -20 -4 -20 -10 0 -5 9 -10
20 -10 18 0 20 -7 20 -55 0 -51 -2 -56 -27 -66 -17 -6 -23 -13 -17 -19 7 -7
29 -2 62 12 54 23 71 43 27 32 -24 -6 -25 -5 -25 45 0 44 3 51 20 51 11 0 20
5 20 10 0 6 -10 10 -21 10 -20 0 -21 4 -17 45 4 34 2 45 -8 45 -10 0 -14 -13
-14 -45z"/>
<path d="M11000 2015 c0 -33 -2 -35 -35 -35 -19 0 -35 -4 -35 -10 0 -5 16 -10
35 -10 32 0 35 -2 35 -30 0 -25 -4 -30 -25 -30 -24 0 -25 -2 -25 -70 0 -40 4
-70 10 -70 6 0 10 7 10 15 0 17 65 22 75 5 14 -23 25 4 25 61 0 56 -1 59 -25
59 -21 0 -25 5 -25 30 0 28 3 30 35 30 19 0 35 5 35 10 0 6 -16 10 -36 10 -35
0 -36 1 -32 35 3 24 0 35 -9 35 -8 0 -13 -13 -13 -35z m40 -170 c0 -33 -2 -35
-35 -35 -33 0 -35 2 -35 35 0 33 2 35 35 35 33 0 35 -2 35 -35z"/>
<path d="M11440 2044 c0 -4 8 -13 18 -20 15 -12 11 -13 -30 -14 -27 0 -48 -5
-48 -11 0 -6 8 -8 18 -5 13 4 18 0 19 -14 1 -16 -4 -20 -28 -20 -29 0 -30 1
-23 35 l6 35 -41 0 -41 0 0 -150 c0 -93 4 -150 10 -150 6 0 10 53 10 140 0
136 1 140 21 140 15 0 19 -4 15 -16 -14 -36 -18 -92 -7 -98 17 -11 14 -56 -4
-56 -9 0 -12 -6 -9 -15 5 -11 10 -12 26 -4 20 11 21 30 3 99 l-6 25 116 -3
c81 -2 115 0 110 7 -3 6 -22 11 -41 11 -32 0 -33 1 -22 20 7 11 18 18 25 16 7
-3 15 -1 18 4 4 6 -8 10 -27 10 -22 0 -37 7 -46 20 -11 18 -42 28 -42 14z m50
-59 c0 -21 -27 -30 -45 -15 -23 19 -18 30 15 30 20 0 30 -5 30 -15z"/>
<path d="M10400 1973 c0 -4 7 -17 15 -27 17 -23 34 -13 19 11 -12 19 -34 29
-34 16z"/>
<path d="M10477 1949 c-15 -28 -21 -31 -57 -27 -22 2 -40 0 -40 -4 0 -5 36 -8
80 -8 44 0 80 4 80 9 0 4 -12 6 -27 3 -21 -4 -25 -2 -20 12 4 9 10 23 13 31
11 28 -11 15 -29 -16z"/>
<path d="M11390 1870 l0 -50 35 0 c19 0 35 -4 35 -10 0 -5 -22 -10 -50 -10
-27 0 -50 -4 -50 -10 0 -5 23 -10 50 -10 47 0 50 -2 50 -25 0 -14 5 -25 10
-25 6 0 10 11 10 25 0 23 3 25 50 25 28 0 50 5 50 10 0 6 -22 10 -50 10 -27 0
-50 5 -50 10 0 6 15 10 33 10 32 0 32 0 32 50 l0 50 -77 0 -78 0 0 -50z m130
20 c0 -5 -25 -10 -55 -10 -30 0 -55 5 -55 10 0 6 25 10 55 10 30 0 55 -4 55
-10z m0 -40 c0 -5 -25 -10 -55 -10 -30 0 -55 5 -55 10 0 6 25 10 55 10 30 0
55 -4 55 -10z"/>
<path d="M10426 1885 c-3 -9 -19 -15 -41 -15 -19 0 -35 -4 -35 -10 0 -5 11
-10 25 -10 25 0 33 -14 15 -25 -15 -9 -2 -25 20 -25 37 0 30 -19 -11 -30 -31
-9 -39 -14 -30 -23 8 -8 23 -5 57 11 l46 23 34 -20 c18 -11 36 -16 39 -11 5 7
-9 19 -53 46 -1 1 3 13 9 28 9 19 20 26 41 26 15 0 28 5 28 10 0 6 -28 10 -65
10 -53 0 -63 3 -59 15 4 8 2 15 -4 15 -5 0 -12 -7 -16 -15z m54 -55 c-11 -21
-27 -25 -54 -14 -25 10 0 34 36 34 26 0 28 -2 18 -20z"/>
<path d="M827 1563 c-2 -32 -3 -60 0 -63 2 -2 13 1 23 8 44 27 80 8 80 -43 0
-17 -5 -36 -12 -43 -17 -17 -67 -15 -74 3 -8 19 -24 19 -24 0 0 -18 31 -35 64
-35 38 0 66 33 66 78 0 49 -27 76 -70 70 -28 -4 -30 -3 -30 29 0 32 1 33 45
33 25 0 45 5 45 10 0 6 -24 10 -54 10 l-54 0 -5 -57z"/>
<path d="M2662 1524 c3 -86 5 -98 27 -115 31 -25 82 -24 115 2 25 19 26 25 26
115 0 56 -4 94 -10 94 -6 0 -10 -36 -10 -89 0 -99 -11 -121 -59 -121 -54 0
-66 19 -69 119 -2 52 -8 91 -14 91 -6 0 -9 -37 -6 -96z"/>
<path d="M2890 1545 c-16 -19 -5 -34 12 -17 18 18 56 14 68 -7 15 -29 13 -31
-23 -31 -41 0 -77 -25 -77 -54 0 -42 45 -60 91 -36 13 7 19 7 19 0 0 -5 5 -10
10 -10 17 0 12 123 -6 148 -18 26 -75 30 -94 7z m90 -88 c0 -22 -37 -49 -62
-45 -26 3 -37 36 -16 49 21 14 78 11 78 -4z"/>
<path d="M4830 1631 c0 -37 -2 -41 -25 -41 -14 0 -25 -4 -25 -10 0 -5 11 -10
25 -10 22 0 25 -4 25 -33 0 -26 -6 -36 -25 -45 -14 -6 -25 -16 -25 -22 0 -13
6 -13 31 1 19 10 20 7 17 -43 -2 -38 -7 -52 -16 -50 -8 1 -12 -3 -10 -10 3 -7
13 -13 24 -13 17 0 19 9 22 68 2 48 7 70 17 74 8 3 15 11 15 19 0 8 -6 11 -15
8 -11 -5 -15 1 -15 20 0 19 5 26 20 26 11 0 20 5 20 10 0 6 -9 10 -21 10 -18
0 -20 5 -17 37 2 22 -2 38 -10 41 -8 2 -12 -9 -12 -37z"/>
<path d="M4960 1652 c0 -4 5 -13 12 -20 9 -9 3 -12 -30 -12 -40 0 -42 -1 -42
-30 0 -16 5 -30 10 -30 6 0 10 9 10 20 0 18 7 20 65 20 58 0 65 -2 65 -20 0
-11 5 -20 10 -20 6 0 10 14 10 30 0 27 -3 30 -33 30 -21 0 -36 7 -45 20 -12
20 -32 27 -32 12z"/>
<path d="M5235 1624 c-21 -40 -58 -69 -98 -79 -22 -6 -25 -10 -16 -21 15 -18
51 1 103 55 l39 40 42 -38 c53 -49 82 -64 103 -56 13 5 8 11 -23 26 -45 22
-105 77 -105 96 0 25 -26 12 -45 -23z"/>
<path d="M4923 1534 c-17 -19 -27 -37 -22 -40 12 -7 25 2 49 36 30 41 10 45
-27 4z"/>
<path d="M5000 1552 c0 -14 49 -56 57 -49 3 4 -4 18 -17 32 -24 25 -40 32 -40
17z"/>
<path d="M5190 1530 c0 -6 33 -10 80 -10 47 0 80 4 80 10 0 6 -33 10 -80 10
-47 0 -80 -4 -80 -10z"/>
<path d="M4910 1470 c0 -5 14 -10 30 -10 28 0 30 -3 30 -35 0 -35 0 -35 -45
-35 -25 0 -45 -4 -45 -10 0 -6 40 -10 100 -10 60 0 100 4 100 10 0 6 -20 10
-45 10 -45 0 -45 0 -45 35 0 33 2 35 35 35 19 0 35 5 35 10 0 6 -32 10 -75 10
-43 0 -75 -4 -75 -10z"/>
<path d="M5180 1415 c0 -37 4 -65 10 -65 6 0 10 5 10 10 0 6 30 10 70 10 40 0
70 -4 70 -10 0 -5 6 -10 13 -10 8 0 12 20 12 65 l0 65 -92 0 -93 0 0 -65z
m160 10 l0 -35 -70 0 -70 0 0 35 0 35 70 0 70 0 0 -35z"/>
<path d="M7697 1664 c-4 -4 5 -21 20 -38 l26 -31 -51 -3 c-29 -2 -52 -7 -52
-13 0 -12 197 -12 205 1 4 6 -13 10 -44 10 -37 0 -49 3 -45 13 5 15 -49 71
-59 61z"/>
<path d="M7380 1647 c0 -19 52 -98 84 -126 18 -17 29 -22 37 -14 7 7 -1 18
-24 36 -18 14 -44 46 -58 71 -24 45 -39 58 -39 33z"/>
<path d="M7601 1615 c-11 -25 -29 -59 -41 -74 -16 -24 -17 -30 -6 -34 8 -3 21
4 30 16 14 20 15 14 15 -81 1 -66 5 -101 11 -97 6 4 10 59 10 133 0 96 4 133
15 148 14 20 11 34 -6 34 -5 0 -17 -20 -28 -45z"/>
<path d="M7296 1624 c-4 -14 -25 -45 -48 -70 -44 -48 -45 -73 -2 -33 27 25 84
107 84 121 0 20 -29 5 -34 -18z"/>
<path d="M7771 1488 c-20 -96 -23 -100 -87 -96 -30 1 -54 0 -54 -4 0 -5 53 -7
118 -6 64 1 96 3 70 5 -27 2 -48 5 -48 6 0 1 9 34 20 72 24 83 24 85 7 85 -8
0 -18 -24 -26 -62z"/>
<path d="M7270 1530 c0 -5 11 -10 25 -10 18 0 25 -5 25 -20 0 -38 -29 -90 -60
-108 -31 -18 -36 -27 -21 -36 14 -9 72 44 87 81 8 18 14 44 14 58 0 23 4 25
40 25 l40 0 0 -42 c0 -68 -9 -88 -37 -88 -15 0 -23 -5 -21 -12 7 -19 31 -21
53 -4 16 11 20 29 23 90 l4 76 -86 0 c-51 0 -86 -4 -86 -10z"/>
<path d="M7672 1529 c2 -8 10 -35 17 -61 8 -29 19 -48 28 -48 15 0 14 4 -12
79 -11 33 -42 60 -33 30z"/>
<path d="M10127 1623 c-31 -50 -27 -74 5 -30 23 32 34 34 43 7 3 -11 11 -20
17 -20 6 0 8 9 5 20 -4 16 0 20 19 20 13 0 24 5 24 10 0 6 -16 10 -35 10 -21
0 -34 5 -32 11 6 30 -21 13 -46 -28z"/>
<path d="M10260 1638 c-25 -34 -27 -37 -29 -63 -1 -11 -13 -15 -46 -15 -25 0
-45 -4 -45 -10 0 -5 20 -10 45 -10 33 0 45 -4 45 -15 0 -12 -14 -15 -70 -15
-40 0 -70 -4 -70 -10 0 -6 42 -10 105 -10 89 0 104 -2 99 -15 -5 -12 -25 -15
-95 -15 -53 0 -89 -4 -89 -10 0 -5 11 -10 25 -10 16 0 35 -11 50 -27 13 -16
27 -25 31 -21 4 5 -1 17 -11 28 -18 20 -18 20 33 20 l52 0 0 -34 c0 -28 -4
-35 -22 -39 -20 -3 -21 -4 -5 -11 31 -14 47 1 47 44 0 39 1 40 35 40 19 0 35
5 35 10 0 6 -13 10 -29 10 -16 0 -31 6 -35 15 -4 12 4 15 39 15 25 0 45 5 45
10 0 6 -32 10 -75 10 -60 0 -75 3 -75 15 0 11 12 15 50 15 28 0 50 5 50 10 0
6 -22 10 -49 10 -44 0 -49 2 -46 20 9 46 27 52 55 18 10 -13 22 -20 26 -16 4
4 1 14 -6 23 -11 13 -8 15 24 15 20 0 36 5 36 10 0 6 -22 10 -50 10 -40 0 -48
3 -44 15 11 26 -11 16 -36 -17z"/>
<path d="M10620 1641 c0 -29 -3 -31 -35 -31 -19 0 -35 -4 -35 -10 0 -5 16 -10
35 -10 28 0 35 -4 35 -20 0 -17 -7 -20 -45 -20 -25 0 -45 -4 -45 -10 0 -6 40
-10 100 -10 60 0 100 4 100 10 0 6 -20 10 -45 10 -38 0 -45 3 -45 20 0 16 7
20 35 20 19 0 35 5 35 10 0 6 -16 10 -36 10 -33 0 -35 2 -32 27 2 15 -2 28 -9
30 -9 3 -13 -6 -13 -26z"/>
<path d="M10468 1620 c-21 -22 -33 -42 -28 -45 12 -7 92 64 84 76 -8 14 -17
10 -56 -31z"/>
<path d="M10980 1650 c-14 -4 -60 -8 -102 -9 -66 -1 -76 -3 -71 -17 5 -12 15
-14 54 -9 41 6 49 4 49 -9 0 -13 -13 -16 -70 -16 -38 0 -70 -4 -70 -8 0 -5 27
-6 61 -4 37 3 65 0 72 -7 8 -8 -1 -11 -36 -11 l-47 0 0 -55 0 -55 45 0 c25 0
45 -4 45 -10 0 -5 -22 -10 -50 -10 -27 0 -50 -4 -50 -10 0 -5 23 -10 50 -10
38 0 50 -4 50 -15 0 -12 -14 -15 -70 -15 -40 0 -70 -4 -70 -10 0 -6 57 -10
150 -10 93 0 150 4 150 10 0 6 -30 10 -70 10 -56 0 -70 3 -70 15 0 11 12 15
50 15 28 0 50 5 50 10 0 6 -22 10 -50 10 -27 0 -50 5 -50 10 0 6 20 10 45 10
l45 0 0 55 0 55 -46 0 c-29 0 -43 4 -39 11 4 6 32 9 66 8 32 -1 62 1 66 4 3 4
-26 7 -65 7 -55 0 -72 3 -72 14 0 17 22 26 66 26 26 0 32 3 28 15 -7 16 -8 17
-44 5z m-70 -125 c0 -10 -11 -15 -35 -15 -24 0 -35 5 -35 15 0 10 11 15 35 15
24 0 35 -5 35 -15z m90 0 c0 -10 -11 -15 -35 -15 -24 0 -35 5 -35 15 0 10 11
15 35 15 24 0 35 -5 35 -15z m-90 -45 c0 -5 -16 -10 -35 -10 -19 0 -35 5 -35
10 0 6 16 10 35 10 19 0 35 -4 35 -10z m90 0 c0 -5 -16 -10 -35 -10 -19 0 -35
5 -35 10 0 6 16 10 35 10 19 0 35 -4 35 -10z"/>
<path d="M11225 1624 c-21 -40 -58 -69 -98 -79 -22 -6 -25 -10 -16 -21 15 -18
51 1 103 55 l39 40 42 -38 c53 -49 82 -64 103 -56 13 5 8 11 -23 26 -45 22
-105 77 -105 96 0 25 -26 12 -45 -23z"/>
<path d="M11498 1654 c-8 -8 20 -54 33 -54 14 0 10 12 -9 38 -10 13 -21 20
-24 16z"/>
<path d="M11570 1628 c0 -10 18 -12 65 -10 l65 4 0 -121 c0 -114 -1 -121 -20
-121 -11 0 -20 -5 -20 -11 0 -6 12 -9 28 -7 l27 3 3 138 3 137 -76 0 c-53 0
-75 -4 -75 -12z"/>
<path d="M11470 1481 c0 -162 18 -167 22 -6 2 95 0 125 -9 125 -10 0 -13 -31
-13 -119z"/>
<path d="M10490 1560 c0 -5 -13 -25 -30 -43 -16 -19 -30 -37 -30 -41 0 -13 30
-5 39 12 8 12 10 -3 11 -60 0 -45 4 -78 10 -78 6 0 10 38 10 94 0 53 4 98 10
101 15 9 12 25 -5 25 -8 0 -15 -4 -15 -10z"/>
<path d="M11520 1510 l0 -60 35 0 c34 0 35 -1 35 -40 0 -22 5 -40 10 -40 6 0
10 18 10 40 0 38 2 40 30 40 l30 0 0 60 0 60 -75 0 -75 0 0 -60z m70 25 c0 -9
-9 -15 -25 -15 -16 0 -25 6 -25 15 0 9 9 15 25 15 16 0 25 -6 25 -15z m60 0
c0 -8 -9 -15 -20 -15 -11 0 -20 7 -20 15 0 8 9 15 20 15 11 0 20 -7 20 -15z
m-60 -50 c0 -9 -9 -15 -25 -15 -16 0 -25 6 -25 15 0 9 9 15 25 15 16 0 25 -6
25 -15z m60 0 c0 -8 -9 -15 -20 -15 -11 0 -20 7 -20 15 0 8 9 15 20 15 11 0
20 -7 20 -15z"/>
<path d="M11180 1530 c0 -6 33 -10 80 -10 47 0 80 4 80 10 0 6 -33 10 -80 10
-47 0 -80 -4 -80 -10z"/>
<path d="M10660 1505 c0 -12 -13 -15 -55 -15 -30 0 -55 -4 -55 -10 0 -5 25
-10 55 -10 l55 0 0 -45 c0 -33 -4 -45 -15 -45 -8 0 -15 -7 -15 -16 0 -10 7
-14 23 -12 19 3 22 10 25 61 3 53 5 57 27 57 14 0 25 5 25 10 0 6 -11 10 -25
10 -18 0 -23 4 -19 15 4 9 0 15 -10 15 -9 0 -16 -7 -16 -15z"/>
<path d="M11170 1415 c0 -37 4 -65 10 -65 6 0 10 5 10 10 0 6 30 10 70 10 40
0 70 -4 70 -10 0 -5 6 -10 13 -10 8 0 12 20 12 65 l0 65 -92 0 -93 0 0 -65z
m160 10 l0 -35 -70 0 -70 0 0 35 0 35 70 0 70 0 0 -35z"/>
<path d="M10570 1442 c0 -14 36 -43 43 -35 4 3 0 15 -10 25 -17 19 -33 24 -33
10z"/>
<path d="M842 1218 c-47 -51 -34 -183 21 -202 46 -17 81 9 85 63 2 30 -2 49
-14 62 -19 21 -64 25 -82 7 -9 -9 -12 -7 -12 11 0 52 46 81 78 49 17 -17 28
-2 12 17 -18 22 -63 18 -88 -7z m76 -90 c17 -17 15 -73 -2 -88 -24 -19 -59 -8
-74 23 -12 24 -11 31 2 53 18 26 54 32 74 12z"/>
<path d="M2440 1146 c0 -90 1 -96 26 -115 46 -36 105 -27 129 20 17 31 21 189
6 189 -5 0 -11 -41 -13 -91 -3 -100 -15 -119 -69 -119 -48 0 -59 22 -59 121 0
53 -4 89 -10 89 -6 0 -10 -38 -10 -94z"/>
<path d="M2910 1146 c0 -90 1 -96 26 -115 46 -36 105 -27 129 20 17 31 21 189
6 189 -5 0 -11 -41 -13 -91 -3 -100 -15 -119 -69 -119 -48 0 -59 22 -59 121 0
53 -4 89 -10 89 -6 0 -10 -38 -10 -94z"/>
<path d="M2673 1173 c-14 -5 -18 -33 -5 -33 4 0 13 5 19 11 18 18 58 7 61 -18
3 -20 -1 -23 -32 -23 -37 0 -76 -28 -76 -53 0 -37 71 -62 98 -35 9 9 12 9 12
0 0 -7 5 -12 10 -12 6 0 10 32 10 75 0 63 -3 76 -19 85 -20 10 -57 12 -78 3z
m77 -101 c0 -24 -19 -42 -45 -42 -31 0 -46 19 -34 42 14 25 79 26 79 0z"/>
<path d="M2830 1165 c0 -8 5 -15 10 -15 6 0 10 7 10 15 0 8 -4 15 -10 15 -5 0
-10 -7 -10 -15z"/>
<path d="M3140 1153 c-18 -22 -21 -37 -17 -72 3 -27 12 -50 23 -58 26 -19 68
-16 89 7 23 25 12 39 -13 17 -40 -36 -82 -11 -82 48 0 57 49 88 80 50 14 -17
30 -20 30 -6 0 19 -32 41 -60 41 -19 0 -36 -9 -50 -27z"/>
<path d="M2833 1005 c3 -46 17 -46 17 0 0 19 -4 35 -9 35 -5 0 -9 -16 -8 -35z"/>
<path d="M4840 1250 c0 -36 -2 -40 -25 -40 -14 0 -25 -4 -25 -10 0 -5 11 -10
25 -10 22 0 25 -4 25 -33 0 -26 -6 -36 -25 -45 -14 -6 -25 -16 -25 -22 0 -13
6 -13 31 0 18 10 19 7 19 -39 0 -37 -4 -53 -17 -60 -10 -5 -14 -13 -10 -17 4
-5 16 -3 25 2 12 8 18 28 20 75 2 43 8 66 18 72 19 11 18 28 -1 21 -11 -5 -15
1 -15 20 0 16 6 26 15 26 8 0 15 5 15 10 0 6 -7 10 -15 10 -11 0 -15 11 -15
40 0 22 -4 40 -10 40 -5 0 -10 -18 -10 -40z"/>
<path d="M4975 1260 c18 -20 17 -20 -28 -20 -46 0 -47 -1 -47 -30 0 -19 5 -30
14 -30 9 0 12 7 9 20 -5 19 0 20 66 20 64 0 71 -2 71 -20 0 -11 5 -20 10 -20
6 0 10 14 10 30 0 29 -2 30 -42 30 -23 0 -38 3 -35 7 10 9 -13 33 -31 33 -13
0 -12 -3 3 -20z"/>
<path d="M5290 1275 c0 -3 9 -23 20 -45 27 -53 89 -115 102 -102 7 7 -3 22
-30 46 -22 20 -47 52 -56 71 -14 30 -36 48 -36 30z"/>
<path d="M5195 1220 c-14 -27 -36 -57 -50 -66 -14 -9 -25 -20 -25 -25 0 -14
26 -11 39 4 6 8 23 12 41 9 24 -3 30 -9 30 -29 0 -33 -24 -77 -56 -102 -32
-25 -23 -48 10 -26 25 17 62 82 71 128 5 23 10 27 41 27 l35 0 -3 -62 c-3 -61
-4 -63 -31 -66 -16 -2 -27 -8 -24 -15 6 -19 32 -19 55 0 17 15 21 32 24 88 l3
70 -82 3 c-46 2 -83 4 -83 6 0 2 11 24 25 47 27 48 30 59 15 59 -5 0 -21 -22
-35 -50z"/>
<path d="M4926 1153 c-39 -46 -24 -55 20 -11 25 24 32 37 22 40 -7 3 -26 -10
-42 -29z"/>
<path d="M5010 1172 c0 -14 49 -56 57 -49 3 4 -4 18 -17 32 -24 25 -40 32 -40
17z"/>
<path d="M4920 1090 c0 -5 14 -10 30 -10 28 0 30 -3 30 -35 0 -35 0 -35 -45
-35 -25 0 -45 -4 -45 -10 0 -6 40 -10 100 -10 60 0 100 4 100 10 0 6 -20 10
-45 10 -45 0 -45 0 -45 35 0 32 2 35 29 35 17 0 33 5 36 10 4 6 -22 10 -69 10
-44 0 -76 -4 -76 -10z"/>
<path d="M7697 1284 c-4 -4 5 -21 20 -38 l26 -31 -51 -3 c-29 -2 -52 -7 -52
-13 0 -12 197 -12 205 1 4 6 -13 10 -44 10 -37 0 -49 3 -45 13 5 15 -49 71
-59 61z"/>
<path d="M7322 1235 c-18 -26 -48 -53 -69 -62 -21 -10 -40 -18 -42 -20 -1 -1
0 -7 4 -13 9 -15 81 27 116 70 l29 35 15 -23 c25 -35 104 -85 123 -77 13 5 7
12 -29 30 -44 23 -99 76 -99 96 0 20 -18 7 -48 -36z"/>
<path d="M7601 1235 c-11 -25 -29 -59 -41 -74 -16 -24 -17 -30 -6 -34 8 -3 21
4 30 16 14 20 15 14 15 -81 1 -66 5 -101 11 -97 6 4 10 59 10 133 0 96 4 133
15 148 14 20 11 34 -6 34 -5 0 -17 -20 -28 -45z"/>
<path d="M7771 1108 c-20 -96 -23 -100 -87 -96 -30 1 -54 0 -54 -4 0 -5 53 -7
118 -6 64 1 96 3 70 5 -27 2 -48 5 -48 6 0 1 9 34 20 72 24 83 24 85 7 85 -8
0 -18 -24 -26 -62z"/>
<path d="M7280 1150 c0 -6 33 -10 80 -10 47 0 80 4 80 10 0 6 -33 10 -80 10
-47 0 -80 -4 -80 -10z"/>
<path d="M7672 1149 c2 -8 10 -35 17 -61 8 -29 19 -48 28 -48 15 0 14 4 -12
79 -11 33 -42 60 -33 30z"/>
<path d="M7270 1035 c0 -37 4 -65 10 -65 6 0 10 5 10 10 0 6 32 10 75 10 43 0
75 -4 75 -10 0 -5 5 -10 10 -10 6 0 10 28 10 65 l0 65 -95 0 -95 0 0 -65z
m170 10 l0 -35 -75 0 -75 0 0 35 0 35 75 0 75 0 0 -35z"/>
<path d="M11105 1252 c-4 -20 -15 -54 -25 -74 -21 -44 -3 -55 20 -13 9 18 22
25 42 25 24 0 28 -4 28 -27 -1 -16 -7 -41 -14 -58 l-13 -30 -13 38 c-8 20 -18
37 -22 37 -12 0 -10 -16 8 -58 l15 -37 -33 -30 -33 -29 -3 67 c-3 64 -4 67
-27 67 -21 0 -25 5 -25 30 0 28 3 30 35 30 19 0 35 5 35 10 0 6 -16 10 -36 10
-35 0 -36 1 -32 35 3 24 0 35 -9 35 -8 0 -13 -13 -13 -35 0 -32 -2 -35 -29
-35 -17 0 -33 -4 -36 -10 -4 -6 8 -10 29 -10 33 0 36 -2 36 -30 0 -23 -4 -30
-20 -30 -18 0 -20 -7 -20 -70 0 -40 4 -70 10 -70 6 0 10 7 10 15 0 17 69 22
71 5 1 -5 2 -15 3 -22 2 -23 23 -18 62 16 l39 34 34 -28 c20 -17 40 -26 49
-22 13 4 11 8 -8 21 -61 41 -62 42 -46 86 8 22 17 52 21 68 3 15 12 27 20 27
8 0 15 5 15 10 0 6 -25 10 -55 10 -58 0 -61 3 -46 43 7 19 6 27 -4 30 -9 4
-15 -6 -20 -31z m-65 -177 c0 -33 -2 -35 -35 -35 -33 0 -35 2 -35 35 0 33 2
35 35 35 33 0 35 -2 35 -35z"/>
<path d="M10365 1237 c-17 -23 -49 -52 -72 -63 -34 -17 -40 -24 -29 -33 15
-13 78 28 115 75 l22 28 42 -42 42 -42 -77 0 c-42 0 -80 -4 -83 -10 -4 -6 25
-10 79 -10 53 0 86 4 86 10 0 7 7 7 21 0 11 -7 28 -9 37 -5 13 5 7 11 -23 24
-46 20 -105 75 -105 97 0 26 -25 13 -55 -29z"/>
<path d="M11440 1272 c0 -4 5 -13 12 -20 9 -9 1 -12 -36 -12 -27 0 -45 -4 -41
-10 3 -5 12 -7 19 -4 8 3 16 -4 19 -15 4 -18 0 -21 -24 -21 -16 0 -29 -4 -29
-10 0 -6 42 -10 105 -10 63 0 105 4 105 10 0 6 -16 10 -35 10 -19 0 -35 3 -35
8 1 18 18 32 33 26 10 -3 17 -1 17 5 0 6 -15 11 -33 11 -21 0 -36 7 -45 20
-12 20 -32 27 -32 12z m40 -62 c0 -12 -7 -20 -18 -20 -9 0 -23 9 -30 20 -11
18 -10 20 18 20 23 0 30 -4 30 -20z"/>
<path d="M10620 1250 c0 -6 27 -10 60 -10 l60 0 0 -45 0 -45 -75 0 c-43 0 -75
-4 -75 -10 0 -6 32 -10 75 -10 l75 0 0 -64 c0 -61 -1 -65 -25 -68 -18 -2 -22
-7 -15 -17 7 -12 13 -13 34 -3 24 11 26 16 26 82 l0 70 65 0 c37 0 65 4 65 10
0 6 -28 10 -65 10 l-65 0 0 45 0 45 55 0 c30 0 55 5 55 10 0 6 -48 10 -125 10
-77 0 -125 -4 -125 -10z"/>
<path d="M11280 1110 c0 -93 4 -150 10 -150 6 0 10 53 10 140 0 133 1 140 20
140 23 0 23 -2 10 -51 -8 -28 -7 -45 5 -72 14 -33 13 -37 -3 -46 -12 -7 -14
-13 -6 -21 8 -8 16 -7 28 5 20 20 20 32 1 69 -15 27 -11 62 12 122 4 11 -5 14
-41 14 l-46 0 0 -150z"/>
<path d="M11380 1100 l0 -50 35 0 c19 0 35 -4 35 -10 0 -5 -20 -10 -45 -10
-25 0 -45 -4 -45 -10 0 -5 20 -10 45 -10 41 0 45 -2 45 -25 0 -16 6 -25 15
-25 9 0 15 9 15 25 0 23 4 25 45 25 25 0 45 5 45 10 0 6 -20 10 -45 10 -25 0
-45 5 -45 10 0 6 14 10 30 10 29 0 30 1 30 50 l0 50 -80 0 -80 0 0 -50z m140
20 c0 -6 -27 -10 -60 -10 -33 0 -60 4 -60 10 0 6 27 10 60 10 33 0 60 -4 60
-10z m0 -40 c0 -6 -27 -10 -60 -10 -33 0 -60 4 -60 10 0 6 27 10 60 10 33 0
60 -4 60 -10z"/>
<path d="M10310 1035 c0 -37 4 -65 10 -65 6 0 10 5 10 10 0 6 32 10 75 10 43
0 75 -4 75 -10 0 -5 5 -10 10 -10 6 0 10 28 10 65 l0 65 -95 0 -95 0 0 -65z
m170 10 l0 -35 -75 0 -75 0 0 35 0 35 75 0 75 0 0 -35z"/>
<path d="M810 850 c0 -6 27 -10 60 -10 l61 0 -25 -42 c-21 -38 -56 -136 -56
-160 0 -4 7 -8 15 -8 10 0 15 10 15 33 0 18 16 65 35 106 19 40 35 77 35 82 0
5 -31 9 -70 9 -40 0 -70 -4 -70 -10z"/>
<path d="M2662 764 c3 -86 5 -98 27 -115 31 -25 82 -24 115 2 25 19 26 25 26
115 0 56 -4 94 -10 94 -6 0 -10 -36 -10 -89 0 -99 -11 -121 -59 -121 -54 0
-66 19 -69 119 -2 52 -8 91 -14 91 -6 0 -9 -37 -6 -96z"/>
<path d="M2890 785 c-16 -19 -5 -34 12 -17 18 18 56 14 68 -7 15 -29 13 -31
-23 -31 -41 0 -77 -25 -77 -54 0 -42 45 -60 91 -36 13 7 19 7 19 0 0 -5 5 -10
10 -10 17 0 12 123 -6 148 -18 26 -75 30 -94 7z m90 -88 c0 -22 -37 -49 -62
-45 -26 3 -37 36 -16 49 21 14 78 11 78 -4z"/>
<path d="M5011 839 c-13 -11 -21 -22 -17 -26 3 -4 12 -1 18 5 23 23 28 11 28
-78 l0 -90 -30 0 c-16 0 -30 -4 -30 -10 0 -6 28 -10 65 -10 37 0 65 4 65 10 0
6 -11 10 -25 10 l-25 0 0 105 c0 113 -5 121 -49 84z"/>
<path d="M5146 787 c-33 -24 -17 -59 34 -77 33 -11 45 -21 45 -35 0 -15 -8
-21 -33 -23 -18 -2 -40 2 -48 9 -21 17 -28 5 -9 -15 34 -33 115 -14 115 28 0
28 -13 39 -63 56 -27 8 -37 17 -35 28 4 21 54 28 74 11 8 -6 18 -9 22 -5 11
12 -29 36 -58 36 -14 0 -34 -6 -44 -13z"/>
<path d="M7380 887 c0 -19 52 -98 84 -126 18 -17 29 -22 37 -14 7 7 -1 18 -24
36 -18 14 -44 46 -58 71 -24 45 -39 58 -39 33z"/>
<path d="M7601 855 c-11 -25 -29 -59 -41 -74 -16 -24 -17 -30 -6 -34 8 -3 21
4 30 16 14 20 15 14 15 -81 1 -66 5 -101 11 -97 6 4 10 59 10 133 0 96 4 133
15 148 14 20 11 34 -6 34 -5 0 -17 -20 -28 -45z"/>
<path d="M7296 864 c-4 -14 -25 -45 -48 -70 -44 -48 -45 -73 -2 -33 27 25 84
107 84 121 0 20 -29 5 -34 -18z"/>
<path d="M7771 728 c-20 -96 -23 -100 -87 -96 -30 1 -54 0 -54 -4 0 -5 53 -7
118 -6 64 1 96 3 70 5 -27 2 -48 5 -48 6 0 1 9 34 20 72 24 83 24 85 7 85 -8
0 -18 -24 -26 -62z"/>
<path d="M7270 770 c0 -5 11 -10 25 -10 18 0 25 -5 25 -20 0 -38 -29 -90 -60
-108 -31 -18 -36 -27 -21 -36 14 -9 72 44 87 81 8 18 14 44 14 58 0 23 4 25
40 25 l40 0 0 -42 c0 -68 -9 -88 -37 -88 -15 0 -23 -5 -21 -12 7 -19 31 -21
53 -4 16 11 20 29 23 90 l4 76 -86 0 c-51 0 -86 -4 -86 -10z"/>
<path d="M7672 769 c2 -8 10 -35 17 -61 8 -29 19 -48 28 -48 15 0 14 4 -12 79
-11 33 -42 60 -33 30z"/>
<path d="M10820 860 l0 -40 -50 0 c-27 0 -50 -4 -50 -10 0 -5 23 -10 50 -10
l50 0 0 -90 c0 -85 -1 -90 -21 -90 -12 0 -19 -5 -16 -12 5 -17 39 -11 55 10 7
10 12 48 12 99 0 76 2 83 20 83 11 0 20 5 20 10 0 6 -9 10 -20 10 -17 0 -20 7
-20 40 0 29 -4 40 -15 40 -11 0 -15 -11 -15 -40z"/>
<path d="M10485 879 c-16 -5 -72 -6 -122 -3 -67 5 -93 4 -93 -5 0 -6 16 -11
35 -11 19 0 35 -4 35 -8 0 -4 -13 -23 -30 -42 -16 -19 -29 -38 -30 -42 0 -5
16 -8 36 -8 32 0 35 -2 28 -22 -14 -48 -22 -55 -32 -29 -5 16 -11 20 -16 13
-4 -6 -2 -22 5 -34 10 -19 8 -25 -15 -44 -14 -13 -26 -26 -26 -29 0 -12 25 -4
45 15 l22 20 44 -20 c30 -13 66 -20 112 -20 93 0 84 16 -12 22 -50 3 -89 11
-105 21 -25 17 -25 18 -11 58 20 57 19 67 -9 71 l-24 3 26 44 c14 24 28 39 30
33 2 -7 19 -12 38 -12 l34 0 0 -80 c0 -64 -3 -80 -15 -80 -12 0 -15 13 -15 60
0 41 -4 60 -12 60 -9 0 -13 -20 -12 -67 l1 -68 71 -3 c45 -2 72 1 72 8 0 5
-16 10 -35 10 -34 0 -35 1 -35 40 0 38 2 40 30 40 17 0 30 5 30 10 0 6 -13 10
-30 10 -28 0 -30 3 -30 35 0 33 2 35 35 35 26 0 33 3 29 15 -7 17 -7 17 -49 4z"/>
<path d="M11270 870 c0 -6 28 -10 65 -10 l65 0 0 -130 c0 -80 4 -130 10 -130
6 0 10 50 10 130 l0 130 70 0 c40 0 70 4 70 10 0 6 -55 10 -145 10 -90 0 -145
-4 -145 -10z"/>
<path d="M10610 745 c0 -77 4 -125 10 -125 6 0 10 7 10 15 0 10 10 15 30 15
20 0 30 -5 30 -15 0 -8 5 -15 10 -15 6 0 10 48 10 125 l0 125 -50 0 -50 0 0
-125z m80 65 c0 -38 -2 -40 -30 -40 -28 0 -30 2 -30 40 0 38 2 40 30 40 28 0
30 -2 30 -40z m0 -100 c0 -38 -2 -40 -30 -40 -28 0 -30 2 -30 40 0 38 2 40 30
40 28 0 30 -2 30 -40z"/>
<path d="M11450 792 c0 -17 79 -92 86 -81 3 6 -11 28 -32 50 -37 38 -54 48
-54 31z"/>
<path d="M10747 764 c-8 -9 21 -64 33 -64 13 0 13 6 -5 40 -17 32 -18 33 -28
24z"/>
<path d="M10930 750 c0 -6 57 -10 150 -10 93 0 150 4 150 10 0 6 -57 10 -150
10 -93 0 -150 -4 -150 -10z"/>
<path d="M840 460 c-24 -24 -25 -38 -5 -67 14 -21 14 -24 -6 -44 -24 -24 -20
-65 8 -86 25 -19 77 -16 96 5 23 25 22 78 0 91 -15 8 -16 12 -5 22 19 21 15
77 -7 89 -30 16 -59 12 -81 -10z m78 -34 c5 -45 -47 -65 -68 -26 -16 31 4 62
38 58 21 -2 28 -9 30 -32z m0 -78 c28 -28 7 -78 -32 -78 -33 0 -48 15 -48 45
0 41 51 62 80 33z"/>
<path d="M2662 384 c3 -86 5 -98 27 -115 31 -25 82 -24 115 2 25 19 26 25 26
115 0 56 -4 94 -10 94 -6 0 -10 -36 -10 -89 0 -99 -11 -121 -59 -121 -54 0
-66 19 -69 119 -2 52 -8 91 -14 91 -6 0 -9 -37 -6 -96z"/>
<path d="M2890 405 c-16 -19 -5 -34 12 -17 18 18 56 14 68 -7 15 -29 13 -31
-23 -31 -41 0 -77 -25 -77 -54 0 -42 45 -60 91 -36 13 7 19 7 19 0 0 -5 5 -10
10 -10 17 0 12 123 -6 148 -18 26 -75 30 -94 7z m90 -88 c0 -22 -37 -49 -62
-45 -26 3 -37 36 -16 49 21 14 78 11 78 -4z"/>
<path d="M4975 500 c18 -20 17 -20 -28 -20 -46 0 -47 -1 -47 -30 0 -19 5 -30
14 -30 9 0 12 7 9 20 -5 19 0 20 66 20 64 0 71 -2 71 -20 0 -11 5 -20 10 -20
6 0 10 14 10 30 0 29 -2 30 -42 30 -23 0 -38 3 -35 7 10 9 -13 33 -31 33 -13
0 -12 -3 3 -20z"/>
<path d="M5235 477 c-17 -23 -49 -52 -72 -63 -34 -17 -40 -24 -29 -33 15 -13
78 28 115 75 l22 28 42 -42 42 -42 -77 0 c-42 0 -80 -4 -83 -10 -4 -6 25 -10
79 -10 53 0 86 4 86 10 0 7 7 7 21 0 11 -7 28 -9 37 -5 13 5 7 11 -23 24 -46
20 -105 75 -105 97 0 26 -25 13 -55 -29z"/>
<path d="M4926 393 c-39 -46 -24 -55 20 -11 25 24 32 37 22 40 -7 3 -26 -10
-42 -29z"/>
<path d="M5010 412 c0 -14 49 -56 57 -49 3 4 -4 18 -17 32 -24 25 -40 32 -40
17z"/>
<path d="M4920 330 c0 -5 14 -10 30 -10 28 0 30 -3 30 -35 0 -35 0 -35 -45
-35 -25 0 -45 -4 -45 -10 0 -6 40 -10 100 -10 60 0 100 4 100 10 0 6 -20 10
-45 10 -45 0 -45 0 -45 35 0 32 2 35 29 35 17 0 33 5 36 10 4 6 -22 10 -69 10
-44 0 -76 -4 -76 -10z"/>
<path d="M5180 275 c0 -37 4 -65 10 -65 6 0 10 5 10 10 0 6 32 10 75 10 43 0
75 -4 75 -10 0 -5 5 -10 10 -10 6 0 10 28 10 65 l0 65 -95 0 -95 0 0 -65z
m170 10 l0 -35 -75 0 -75 0 0 35 0 35 75 0 75 0 0 -35z"/>
<path d="M7380 507 c0 -19 52 -98 84 -126 18 -17 29 -22 37 -14 7 7 -1 18 -24
36 -18 14 -44 46 -58 71 -24 45 -39 58 -39 33z"/>
<path d="M7601 475 c-11 -25 -29 -59 -41 -74 -16 -24 -17 -30 -6 -34 8 -3 21
4 30 16 14 20 15 14 15 -81 1 -66 5 -101 11 -97 6 4 10 59 10 133 0 96 4 133
15 148 14 20 11 34 -6 34 -5 0 -17 -20 -28 -45z"/>
<path d="M7296 484 c-4 -14 -25 -45 -48 -70 -44 -48 -45 -73 -2 -33 27 25 84
107 84 121 0 20 -29 5 -34 -18z"/>
<path d="M7771 348 c-20 -96 -23 -100 -87 -96 -30 1 -54 0 -54 -4 0 -5 53 -7
118 -6 64 1 96 3 70 5 -27 2 -48 5 -48 6 0 1 9 34 20 72 24 83 24 85 7 85 -8
0 -18 -24 -26 -62z"/>
<path d="M7270 390 c0 -5 11 -10 25 -10 18 0 25 -5 25 -20 0 -38 -29 -90 -60
-108 -31 -18 -36 -27 -21 -36 14 -9 72 44 87 81 8 18 14 44 14 58 0 23 4 25
40 25 l40 0 0 -42 c0 -68 -9 -88 -37 -88 -15 0 -23 -5 -21 -12 7 -19 31 -21
53 -4 16 11 20 29 23 90 l4 76 -86 0 c-51 0 -86 -4 -86 -10z"/>
<path d="M7672 389 c2 -8 10 -35 17 -61 8 -29 19 -48 28 -48 15 0 14 4 -12 79
-11 33 -42 60 -33 30z"/>
<path d="M10310 480 c0 -36 -2 -40 -25 -40 -14 0 -25 -4 -25 -10 0 -5 9 -10
21 -10 18 0 20 -4 15 -27 -4 -16 -16 -40 -26 -55 -23 -32 -24 -38 -7 -38 7 0
21 15 30 33 l16 32 0 -77 c1 -45 5 -78 11 -78 6 0 10 32 10 76 0 65 2 75 14
65 23 -19 28 4 6 24 -24 21 -26 45 -5 45 8 0 15 5 15 10 0 6 -7 10 -15 10 -11
0 -15 11 -15 40 0 22 -4 40 -10 40 -5 0 -10 -18 -10 -40z"/>
<path d="M10426 481 c-9 -22 -30 -51 -47 -65 -29 -24 -26 -42 5 -30 9 3 16 1
16 -5 0 -7 23 -11 60 -11 36 0 60 4 60 11 0 5 4 8 9 4 5 -3 12 -1 15 3 3 5
-15 30 -39 56 -25 25 -44 51 -42 57 1 6 -3 13 -9 15 -5 3 -18 -14 -28 -35z
m54 -43 c16 -18 30 -36 30 -40 0 -5 -25 -8 -56 -8 -31 0 -54 3 -52 8 8 15 43
72 46 72 1 0 16 -15 32 -32z"/>
<path d="M10733 498 c2 -21 -2 -23 -58 -24 -33 -1 -61 -5 -62 -10 -2 -4 21 -7
49 -5 52 3 52 2 35 -17 -10 -10 -37 -27 -60 -38 -53 -23 -50 -21 -42 -33 7
-12 51 7 102 45 40 30 47 30 39 -1 -5 -18 -2 -25 9 -25 9 0 15 9 15 26 l0 26
29 -24 c32 -28 89 -54 97 -45 10 10 -7 27 -26 27 -11 0 -34 14 -52 30 l-33 31
53 -3 c30 -2 52 1 52 7 0 6 -24 9 -60 7 -59 -4 -60 -3 -60 22 0 16 -6 26 -15
26 -9 0 -14 -8 -12 -22z"/>
<path d="M11470 470 c0 -49 -1 -50 -30 -50 l-30 0 0 -75 c0 -43 4 -75 10 -75
6 0 10 28 10 65 l0 65 50 0 50 0 0 -60 c0 -33 4 -60 10 -60 6 0 10 30 10 70
l0 70 -30 0 c-29 0 -30 1 -30 50 0 28 -4 50 -10 50 -5 0 -10 -22 -10 -50z"/>
<path d="M10987 480 c18 -31 33 -39 33 -17 -1 17 -25 47 -39 47 -8 0 -6 -10 6
-30z"/>
<path d="M11299 466 c-22 -35 -24 -46 -14 -59 7 -10 20 -17 29 -17 10 0 16 -8
16 -25 0 -20 -5 -25 -25 -25 -14 0 -25 -4 -25 -10 0 -5 12 -10 26 -10 26 0 27
-1 21 -45 -7 -51 3 -57 41 -26 27 24 28 35 2 28 -16 -4 -20 0 -20 19 0 19 5
24 25 24 14 0 25 5 25 10 0 6 -11 10 -25 10 -20 0 -25 5 -25 25 0 18 5 25 20
25 11 0 20 5 20 10 0 6 -23 10 -51 10 -45 0 -50 2 -39 15 8 9 30 15 56 15 24
0 44 5 44 10 0 6 -16 10 -35 10 -38 0 -40 2 -25 31 8 14 7 19 -2 19 -7 0 -25
-20 -39 -44z"/>
<path d="M11397 493 c-3 -4 5 -20 18 -35 15 -18 26 -24 31 -17 3 6 -5 22 -19
36 -13 14 -27 21 -30 16z"/>
<path d="M11526 473 c-13 -18 -15 -28 -7 -36 7 -7 11 -7 11 -1 0 6 9 20 20 31
13 15 15 23 7 26 -7 2 -20 -7 -31 -20z"/>
<path d="M11050 480 c0 -6 30 -10 70 -10 l70 0 0 -119 c0 -116 -1 -120 -22
-124 -20 -3 -21 -4 -5 -11 42 -19 47 -4 47 139 l0 135 -80 0 c-47 0 -80 -4
-80 -10z"/>
<path d="M10950 330 c0 -73 4 -120 10 -120 6 0 10 47 10 120 0 73 -4 120 -10
120 -6 0 -10 -47 -10 -120z"/>
<path d="M11090 425 c0 -23 -4 -25 -45 -25 -25 0 -45 -4 -45 -10 0 -5 16 -10
35 -10 l36 0 -15 -27 c-8 -16 -26 -39 -40 -52 -14 -13 -23 -28 -20 -33 8 -12
31 8 66 56 l28 39 0 -51 c0 -40 -4 -52 -15 -52 -17 0 -20 -16 -6 -24 5 -4 16
-3 25 0 13 5 16 21 16 75 l0 69 30 0 c17 0 30 5 30 10 0 6 -14 10 -31 10 -28
0 -31 2 -25 25 5 18 2 25 -9 25 -9 0 -15 -9 -15 -25z"/>
<path d="M10650 318 l0 -58 95 0 96 0 -3 56 -3 57 -93 1 -92 1 0 -57z m168 25
c3 -10 -16 -13 -72 -13 -62 0 -76 3 -76 15 0 13 12 15 72 13 46 -2 73 -7 76
-15z m0 -45 c-3 -9 -30 -14 -76 -16 -60 -2 -72 0 -72 13 0 12 14 15 76 15 56
0 75 -3 72 -12z"/>
<path d="M11460 331 c0 -42 -27 -86 -61 -96 -14 -5 -18 -10 -11 -17 12 -12 39
1 66 31 24 27 39 121 19 121 -8 0 -13 -13 -13 -39z"/>
<path d="M10427 352 c-3 -4 3 -22 12 -41 11 -20 21 -29 25 -23 4 6 0 25 -9 42
-16 31 -21 35 -28 22z"/>
<path d="M10380 332 c0 -15 25 -62 33 -62 12 0 7 34 -7 53 -14 18 -26 22 -26
9z"/>
<path d="M10489 293 l-15 -48 -57 -3 c-94 -5 -65 -22 38 -22 57 0 95 4 95 10
0 6 -13 10 -30 10 l-29 0 19 46 c24 54 24 54 7 54 -8 0 -20 -21 -28 -47z"/>
<path d="M11496 271 c-7 -11 48 -63 57 -54 12 11 8 19 -22 41 -17 12 -32 18
-35 13z"/>
<path d="M10595 230 c-4 -6 47 -10 144 -10 94 0 151 4 151 10 0 6 -55 10 -144
10 -86 0 -147 -4 -151 -10z"/>
</g>
</svg>
