<?xml version="1.0" standalone="no"?>
<!DOCTYPE svg PUBLIC "-//W3C//DTD SVG 20010904//EN"
 "http://www.w3.org/TR/2001/REC-SVG-20010904/DTD/svg10.dtd">
<svg version="1.0" xmlns="http://www.w3.org/2000/svg"
 width="1312.000000pt" height="445.000000pt" viewBox="0 0 1312.000000 445.000000"
 preserveAspectRatio="xMidYMid meet">

<g transform="translate(0.000000,445.000000) scale(0.100000,-0.100000)"
fill="#000000" stroke="none">
<path d="M130 2230 l0 -2120 6438 0 6437 0 0 2120 0 2120 -6437 0 -6438 0 0
-2120z m3649 2068 c-6 -13 -18 -31 -27 -40 -14 -16 -13 -18 1 -18 9 0 19 5 22
10 10 16 45 12 45 -5 0 -11 -11 -15 -40 -15 -22 0 -40 -4 -40 -10 0 -5 17 -10
38 -10 l37 -1 -38 -33 c-21 -19 -34 -37 -28 -40 5 -4 25 7 44 23 33 29 34 30
58 13 l24 -17 -40 -5 -40 -5 -3 -64 c-3 -63 11 -102 24 -68 5 13 20 17 70 17
36 0 64 -4 64 -10 0 -5 6 -10 13 -10 8 0 12 19 11 67 l-2 68 -36 3 c-23 2 -48
14 -68 33 l-32 29 32 0 c17 0 32 5 32 10 0 6 -13 10 -30 10 -20 0 -30 5 -30
15 0 9 9 15 25 15 14 0 25 5 25 10 0 6 -20 10 -45 10 -48 0 -48 0 -39 24 5 14
29 16 166 16 l159 0 -22 -40 c-13 -22 -26 -40 -31 -40 -4 0 -8 -7 -8 -15 0
-12 15 -14 75 -12 41 1 75 5 75 8 0 3 -11 20 -24 38 -15 20 -27 28 -31 21 -4
-6 -2 -17 5 -25 9 -11 5 -15 -25 -21 -20 -3 -38 -5 -40 -2 -2 2 11 22 28 45
26 34 38 42 65 43 l32 0 0 -64 c0 -63 0 -64 30 -70 48 -9 101 18 85 45 -5 7
-14 3 -26 -10 -21 -22 -28 -24 -53 -15 -31 12 -18 41 28 60 27 12 42 23 39 31
-4 10 -14 8 -40 -8 -38 -24 -48 -21 -38 10 6 20 14 21 111 21 82 0 104 -3 104
-14 0 -17 28 -41 37 -32 4 3 1 12 -5 18 -22 22 -12 28 43 28 l55 0 0 -50 c0
-43 -3 -50 -20 -50 -11 0 -20 -4 -20 -10 0 -5 9 -10 20 -10 38 0 18 -93 -32
-146 -20 -21 -26 -34 -18 -39 6 -4 18 -1 26 6 19 15 53 82 56 106 1 10 4 -9 7
-42 l6 -60 38 -3 c40 -3 61 18 38 41 -8 8 -11 7 -11 -6 0 -12 -8 -17 -26 -17
-26 0 -26 0 -22 70 3 52 0 70 -9 70 -7 0 -13 5 -13 10 0 6 18 10 40 10 22 0
40 5 40 10 0 6 -18 10 -41 10 l-40 0 3 48 3 47 81 3 80 3 3 -46 c2 -42 0 -45
-24 -45 -14 0 -25 -4 -25 -10 0 -5 11 -10 25 -10 24 0 25 -3 25 -55 0 -50 -2
-56 -25 -65 -14 -5 -25 -15 -25 -21 0 -7 7 -8 18 -4 9 4 36 14 59 22 46 16 60
39 18 29 -24 -6 -25 -5 -25 44 0 43 3 50 20 50 11 0 20 5 20 10 0 6 -9 10 -20
10 -17 0 -20 7 -20 45 l0 45 60 0 60 0 0 -50 c0 -27 -2 -50 -4 -50 -2 0 -12
-3 -21 -7 -15 -5 -17 0 -14 40 3 33 0 47 -8 47 -9 0 -13 -17 -13 -50 0 -43 -3
-50 -20 -50 -11 0 -20 -4 -20 -10 0 -5 9 -10 20 -10 18 0 20 -7 20 -68 0 -40
5 -73 12 -80 19 -19 128 -15 150 5 10 9 18 20 18 25 0 14 -28 9 -34 -8 -4 -12
-19 -14 -63 -12 l-58 3 -3 69 c-3 66 4 85 31 86 4 0 7 -27 7 -59 0 -33 5 -63
10 -66 6 -4 10 20 10 63 0 66 1 70 25 74 24 5 25 3 25 -38 0 -31 -5 -46 -17
-53 -13 -7 -15 -13 -7 -21 23 -23 44 17 44 81 l0 60 -36 -7 -35 -6 3 43 3 44
605 2 c333 0 594 -3 580 -7 -14 -4 -58 -8 -98 -9 -54 -1 -73 -4 -69 -13 3 -9
21 -12 56 -10 40 2 51 -1 51 -13 0 -12 -14 -15 -70 -15 -38 0 -70 -3 -70 -7 0
-5 27 -6 61 -5 36 2 66 -1 72 -7 8 -8 -2 -11 -35 -11 l-46 0 -4 -55 -3 -55 48
0 c26 0 47 -4 47 -10 0 -5 -22 -10 -50 -10 -27 0 -50 -4 -50 -10 0 -5 23 -10
50 -10 38 0 50 -4 50 -15 0 -12 -14 -15 -70 -15 -40 0 -70 -4 -70 -10 0 -13
287 -13 295 0 4 6 -20 10 -64 10 -56 0 -71 3 -71 15 0 11 12 15 50 15 28 0 50
5 50 10 0 6 -22 10 -50 10 -27 0 -50 5 -50 10 0 6 20 10 45 10 l45 0 0 55 0
55 -46 0 c-30 0 -43 4 -38 11 4 7 29 10 65 7 33 -2 59 -1 59 4 0 4 -29 8 -65
8 -49 0 -65 3 -65 14 0 17 22 26 62 26 23 0 29 4 24 15 -5 13 11 15 109 15 63
0 115 -3 115 -8 0 -4 -11 -24 -24 -43 -23 -34 -78 -69 -106 -69 -10 0 -10 -3
0 -15 16 -19 50 -2 104 54 l39 40 42 -38 c53 -49 82 -64 103 -56 13 5 8 11
-23 26 -45 22 -105 77 -105 96 0 10 27 13 116 13 63 0 113 -4 110 -8 -7 -11
22 -52 36 -52 6 0 3 11 -6 25 -9 13 -16 27 -16 30 0 3 225 5 500 5 l500 0 0
-40 0 -40 -50 0 c-27 0 -50 -4 -50 -10 0 -5 23 -10 50 -10 l50 0 0 -89 c0 -90
0 -90 -27 -93 -21 -2 -24 -5 -12 -14 9 -8 22 -9 37 -3 21 8 22 14 22 104 0 95
0 95 25 95 14 0 25 5 25 10 0 6 -12 10 -26 10 -23 0 -25 3 -22 38 l3 37 292 3
292 2 22 -42 c27 -55 87 -118 106 -111 10 4 2 16 -27 40 -38 33 -70 79 -70
103 0 6 37 10 101 10 55 0 98 -4 95 -8 -7 -11 22 -52 36 -52 6 0 3 11 -6 25
-9 13 -16 27 -16 30 0 3 182 5 405 5 l405 0 0 -50 c0 -49 -1 -50 -30 -50 l-30
0 0 -75 c0 -43 4 -75 10 -75 6 0 10 28 10 65 l0 65 50 0 50 0 0 -60 c0 -33 4
-60 10 -60 6 0 10 30 10 70 l0 70 -30 0 c-29 0 -30 1 -30 50 l0 50 1805 0
1805 0 0 -175 0 -175 -6400 0 -6400 0 0 175 0 175 1810 0 1811 0 -12 -22z
m2301 -113 c0 -10 -11 -15 -35 -15 -24 0 -35 5 -35 15 0 10 11 15 35 15 24 0
35 -5 35 -15z m90 0 c0 -10 -11 -15 -35 -15 -24 0 -35 5 -35 15 0 10 11 15 35
15 24 0 35 -5 35 -15z m-90 -45 c0 -5 -16 -10 -35 -10 -19 0 -35 5 -35 10 0 6
16 10 35 10 19 0 35 -4 35 -10z m90 0 c0 -5 -16 -10 -35 -10 -19 0 -35 5 -35
10 0 6 16 10 35 10 19 0 35 -4 35 -10z m-2220 -30 c0 -18 -7 -20 -65 -20 -58
0 -65 2 -65 20 0 18 7 20 65 20 58 0 65 -2 65 -20z m0 -45 c0 -12 -14 -15 -65
-15 -51 0 -65 3 -65 15 0 12 14 15 65 15 51 0 65 -3 65 -15z m-2302 -307 l-3
-173 -737 -3 -738 -2 0 175 0 175 740 0 740 0 -2 -172z m2382 -3 l0 -175
-1175 0 -1175 0 0 175 0 175 1175 0 1175 0 0 -175z m2160 0 l0 -175 -1065 0
-1065 0 0 175 0 175 1065 0 1065 0 0 -175z m2690 0 l0 -175 -1325 0 -1325 0 0
175 0 175 1325 0 1325 0 0 -175z m4090 0 l0 -175 -2025 0 -2025 0 0 175 0 175
2025 0 2025 0 0 -175z m-11320 -380 l0 -175 -740 0 -740 0 0 175 0 175 740 0
740 0 0 -175z m2380 0 l0 -175 -1175 0 -1175 0 0 175 0 175 1175 0 1175 0 0
-175z m2160 0 l0 -175 -1065 0 -1065 0 0 175 0 175 1065 0 1065 0 0 -175z
m1547 169 c-4 -4 5 -21 20 -38 l26 -31 -51 -3 c-29 -2 -52 -7 -52 -13 0 -12
197 -12 205 1 4 6 -13 10 -45 10 -34 0 -49 4 -44 11 3 6 -6 24 -22 40 l-28 29
567 0 567 0 0 -175 0 -175 -1325 0 -1325 0 0 175 0 175 757 0 c416 0 753 -3
750 -6z m5233 -169 l0 -175 -2025 0 -2025 0 0 175 0 175 2025 0 2025 0 0 -175z
m-11320 -380 l0 -175 -740 0 -740 0 0 175 0 175 740 0 740 0 0 -175z m2380 0
l0 -175 -1175 0 -1175 0 0 175 0 175 1175 0 1175 0 0 -175z m2160 0 l0 -175
-1065 0 -1065 0 0 175 0 175 1065 0 1065 0 0 -175z m2690 0 l0 -175 -1325 0
-1325 0 0 175 0 175 1325 0 1325 0 0 -175z m4090 0 l0 -175 -2025 0 -2025 0 0
175 0 175 2025 0 2025 0 0 -175z m-11320 -380 l0 -175 -740 0 -740 0 0 175 0
175 740 0 740 0 0 -175z m2380 0 l0 -175 -1175 0 -1175 0 0 175 0 175 1175 0
1175 0 0 -175z m2160 0 l0 -175 -1065 0 -1065 0 0 175 0 175 1065 0 1065 0 0
-175z m2690 0 l0 -175 -1325 0 -1325 0 0 175 0 175 1325 0 1325 0 0 -175z
m4090 0 l0 -175 -2025 0 -2025 0 0 175 0 175 2025 0 2025 0 0 -175z m-11322
-387 l-3 -173 -737 -3 -738 -2 0 175 0 175 740 0 740 0 -2 -172z m2382 -3 l0
-175 -1175 0 -1175 0 0 175 0 175 1175 0 1175 0 0 -175z m850 135 c0 -36 -2
-40 -25 -40 -14 0 -25 -4 -25 -10 0 -5 11 -10 25 -10 22 0 25 -4 25 -33 0 -26
-6 -36 -25 -45 -14 -6 -25 -16 -25 -22 0 -13 6 -13 31 0 18 10 19 7 19 -39 0
-37 -4 -53 -17 -60 -10 -5 -14 -13 -10 -17 4 -5 16 -3 25 2 12 8 18 28 20 75
2 43 8 66 18 72 19 11 18 28 -1 21 -11 -5 -15 1 -15 20 0 16 6 26 15 26 8 0
15 5 15 10 0 6 -7 10 -15 10 -11 0 -15 11 -15 40 l0 40 645 0 645 0 0 -175 0
-175 -1065 0 -1065 0 0 175 0 175 410 0 410 0 0 -40z m2857 34 c-4 -4 5 -21
20 -38 l26 -31 -51 -3 c-29 -2 -52 -7 -52 -13 0 -12 197 -12 205 1 4 6 -13 10
-45 10 -34 0 -49 4 -44 11 3 6 -6 24 -22 40 l-28 29 567 0 567 0 0 -175 0
-175 -1325 0 -1325 0 0 175 0 175 757 0 c416 0 753 -3 750 -6z m3417 -26 c-4
-18 -15 -52 -25 -75 -18 -42 -17 -43 2 -43 10 0 19 -6 19 -12 0 -7 7 -26 15
-42 18 -33 12 -44 -42 -77 -24 -15 -31 -25 -24 -32 7 -7 24 1 54 26 l44 36 31
-32 c26 -26 34 -29 44 -18 11 11 10 14 0 18 -7 3 -25 15 -38 27 -25 21 -25 22
-9 65 8 24 15 54 15 67 0 17 6 24 20 24 11 0 20 5 20 10 0 6 -25 10 -55 10
-46 0 -55 3 -55 18 0 9 4 24 10 32 6 9 5 17 -3 22 -7 4 394 8 891 8 l902 0 0
-175 0 -175 -2025 0 -2025 0 0 175 0 175 1120 0 1120 0 -6 -32z m66 -85 c0
-10 -5 -36 -11 -58 -10 -37 -12 -38 -25 -20 -8 10 -14 27 -14 37 0 10 -7 18
-15 18 -13 0 -14 4 -5 20 14 26 70 28 70 3z m-9570 -438 l0 -175 -740 0 -740
0 0 175 0 175 740 0 740 0 0 -175z m2380 0 l0 -175 -1175 0 -1175 0 0 175 0
175 1175 0 1175 0 0 -175z m2160 0 l0 -175 -1065 0 -1065 0 0 175 0 175 1065
0 1065 0 0 -175z m1547 169 c-4 -4 5 -21 20 -38 l26 -31 -51 -3 c-29 -2 -52
-7 -52 -13 0 -12 197 -12 205 1 4 6 -13 10 -45 10 -34 0 -49 4 -44 11 3 6 -6
24 -22 40 l-28 29 567 0 567 0 0 -175 0 -175 -1325 0 -1325 0 0 175 0 175 757
0 c416 0 753 -3 750 -6z m2453 -2 c0 -4 -12 -25 -26 -45 -30 -44 -23 -66 8
-24 23 32 34 34 43 7 3 -11 11 -20 17 -20 6 0 8 9 5 20 -4 16 0 20 19 20 13 0
24 5 24 10 0 6 -15 10 -33 10 -23 0 -34 5 -34 15 0 11 13 15 54 15 58 0 59 -3
19 -48 -12 -13 -20 -25 -18 -28 1 -2 2 -11 2 -19 0 -11 -12 -15 -45 -15 -25 0
-45 -4 -45 -10 0 -5 20 -10 45 -10 33 0 45 -4 45 -15 0 -12 -14 -15 -70 -15
-40 0 -70 -4 -70 -10 0 -6 42 -10 105 -10 89 0 104 -2 99 -15 -5 -12 -25 -15
-95 -15 -53 0 -89 -4 -89 -10 0 -5 11 -10 25 -10 16 0 35 -11 50 -27 13 -16
27 -25 31 -21 4 5 -1 17 -11 28 -18 20 -18 20 33 20 l52 0 0 -34 c0 -28 -4
-35 -22 -39 -20 -3 -21 -4 -5 -11 31 -14 47 1 47 44 0 39 1 40 35 40 19 0 35
5 35 10 0 6 -13 10 -29 10 -16 0 -31 6 -35 15 -4 12 4 15 39 15 25 0 45 5 45
10 0 6 -32 10 -75 10 -60 0 -75 3 -75 15 0 11 12 15 50 15 28 0 50 5 50 10 0
6 -22 10 -49 10 -44 0 -49 2 -46 20 9 46 27 52 55 18 10 -13 22 -20 26 -16 4
4 1 14 -6 23 -11 13 -8 15 24 15 20 0 36 5 36 10 0 6 -22 10 -50 10 -40 0 -48
3 -44 15 5 12 33 15 165 15 l159 0 0 -30 c0 -28 -3 -30 -35 -30 -19 0 -35 -4
-35 -10 0 -5 16 -10 35 -10 28 0 35 -4 35 -20 0 -17 -7 -20 -45 -20 -25 0 -45
-4 -45 -10 0 -6 40 -10 100 -10 60 0 100 4 100 10 0 6 -20 10 -45 10 -38 0
-45 3 -45 20 0 16 7 20 35 20 19 0 35 5 35 10 0 6 -16 10 -35 10 -33 0 -35 2
-33 30 l2 30 1143 0 1143 0 0 -175 0 -175 -2025 0 -2025 0 0 175 0 175 635 0
c349 0 635 -3 635 -8z m-8540 -737 l0 -365 -740 0 -740 0 0 365 0 365 740 0
740 0 0 -365z m2380 0 l0 -365 -1175 0 -1175 0 0 365 0 365 1175 0 1175 0 0
-365z m2160 0 l0 -365 -1065 0 -1065 0 0 365 0 365 1065 0 1065 0 0 -365z
m2690 0 l0 -365 -1325 0 -1325 0 0 365 0 365 1325 0 1325 0 0 -365z m4090 0
l0 -365 -901 0 c-720 0 -899 3 -891 13 18 22 84 196 79 209 -4 11 -15 -9 -59
-112 l-10 -25 -13 35 c-27 76 -45 111 -54 106 -5 -4 5 -42 24 -89 36 -89 34
-110 -11 -127 -16 -6 -451 -10 -1120 -10 l-1094 0 0 365 0 365 2025 0 2025 0
0 -365z m-11320 -770 l0 -365 -740 0 -740 0 0 365 0 365 740 0 740 0 0 -365z
m2380 0 l0 -365 -1175 0 -1175 0 0 365 0 365 1175 0 1175 0 0 -365z m2160 0
l0 -365 -1065 0 -1065 0 0 365 0 365 1065 0 1065 0 0 -365z m2690 0 l0 -365
-1325 0 -1325 0 0 365 0 365 1325 0 1325 0 0 -365z m4090 0 l0 -365 -2025 0
-2025 0 0 365 0 365 2025 0 2025 0 0 -365z"/>
<path d="M5348 4235 c3 -71 2 -76 -20 -84 -20 -8 -21 -10 -5 -16 34 -14 47 12
47 96 0 57 -4 79 -12 79 -10 0 -12 -20 -10 -75z"/>
<path d="M7017 4303 c-32 -3 -47 -8 -44 -16 2 -7 17 -11 35 -9 30 3 32 1 32
-27 0 -29 -2 -31 -40 -31 -50 0 -53 -18 -4 -22 l35 -3 -35 -49 c-19 -27 -32
-54 -29 -60 4 -5 13 1 22 14 9 13 24 33 34 44 17 20 18 19 15 -56 -3 -58 0
-78 9 -78 9 0 13 21 13 77 0 76 0 76 20 58 11 -10 23 -15 28 -11 4 4 -5 18
-20 30 -36 28 -35 36 2 36 17 0 30 5 30 10 0 6 -13 10 -30 10 -28 0 -30 3 -30
35 0 31 3 35 26 35 14 0 23 4 19 10 -3 6 -14 9 -23 8 -9 -1 -39 -3 -65 -5z"/>
<path d="M8205 4270 c-10 -23 -33 -54 -52 -70 -19 -17 -28 -32 -22 -36 14 -8
54 30 89 87 26 43 29 59 10 59 -4 0 -15 -18 -25 -40z"/>
<path d="M8857 4280 c18 -31 33 -39 33 -17 -1 17 -25 47 -39 47 -8 0 -6 -10 6
-30z"/>
<path d="M9169 4266 c-22 -35 -24 -46 -14 -59 7 -10 20 -17 29 -17 10 0 16 -8
16 -25 0 -20 -5 -25 -25 -25 -14 0 -25 -4 -25 -10 0 -5 12 -10 26 -10 26 0 27
-1 21 -45 -7 -51 3 -57 41 -26 27 24 28 35 2 28 -16 -4 -20 0 -20 19 0 19 5
24 25 24 14 0 25 5 25 10 0 6 -11 10 -25 10 -20 0 -25 5 -25 25 0 18 5 25 20
25 11 0 20 5 20 10 0 6 -23 10 -51 10 -45 0 -50 2 -39 15 8 9 30 15 56 15 24
0 44 5 44 10 0 6 -16 10 -35 10 -38 0 -40 2 -25 31 8 14 7 19 -2 19 -7 0 -25
-20 -39 -44z"/>
<path d="M5100 4290 c0 -5 9 -10 20 -10 15 0 20 -7 20 -25 0 -20 -5 -25 -25
-25 -14 0 -25 -4 -25 -10 0 -5 9 -10 20 -10 26 0 25 -20 -2 -55 -20 -25 -20
-27 -2 -23 10 1 27 19 36 38 23 46 52 47 56 3 2 -18 7 -33 13 -33 5 0 9 -9 9
-20 0 -17 -7 -20 -50 -20 -27 0 -50 -4 -50 -10 0 -5 23 -10 50 -10 43 0 50 -3
50 -20 0 -18 -7 -20 -70 -20 -40 0 -70 -4 -70 -10 0 -6 57 -10 150 -10 93 0
150 4 150 10 0 6 -30 10 -70 10 -63 0 -70 2 -70 20 0 17 7 20 50 20 28 0 50 5
50 10 0 6 -23 10 -51 10 -46 0 -51 2 -46 20 3 13 0 20 -9 20 -9 0 -14 12 -14
35 0 28 4 35 20 35 11 0 20 5 20 10 0 6 -9 10 -20 10 -15 0 -20 7 -20 25 0 16
6 25 15 25 8 0 15 5 15 10 0 6 -32 10 -75 10 -43 0 -75 -4 -75 -10z m98 -38
c3 -17 -2 -22 -17 -22 -16 0 -21 6 -21 26 0 33 33 30 38 -4z"/>
<path d="M6735 4290 c-3 -5 -3 -10 2 -11 4 0 35 -1 68 -2 l60 -2 3 -117 c3
-113 2 -118 -18 -118 -11 0 -20 -5 -20 -11 0 -6 12 -9 28 -7 l27 3 3 138 3
137 -75 0 c-41 0 -78 -4 -81 -10z"/>
<path d="M7800 4155 c0 -90 4 -145 10 -145 6 0 10 52 10 135 l0 135 25 0 25 0
-19 -38 c-19 -37 -19 -38 0 -61 26 -32 25 -71 -1 -71 -21 0 -27 -15 -10 -25
14 -9 48 12 55 35 4 13 -1 34 -14 56 l-21 35 20 39 c11 22 20 42 20 45 0 3
-22 5 -50 5 l-50 0 0 -145z"/>
<path d="M7910 4155 c0 -80 2 -145 5 -145 3 0 21 10 40 23 35 22 48 44 20 33
-8 -3 -22 -9 -30 -12 -12 -5 -15 4 -15 50 0 47 3 56 18 56 12 0 23 -13 31 -36
17 -47 81 -118 94 -105 6 6 -3 21 -24 40 l-34 31 30 25 c37 31 26 44 -13 16
-26 -18 -31 -19 -36 -5 -11 28 -7 34 24 34 l30 0 0 70 0 70 -70 0 -70 0 0
-145z m120 105 c0 -17 -7 -20 -50 -20 -43 0 -50 3 -50 20 0 17 7 20 50 20 43
0 50 -3 50 -20z m0 -60 c0 -17 -7 -20 -50 -20 -43 0 -50 3 -50 20 0 17 7 20
50 20 43 0 50 -3 50 -20z"/>
<path d="M8585 4290 c-3 -5 -3 -10 2 -11 4 0 35 -1 68 -2 l60 -2 3 -117 c3
-113 2 -118 -18 -118 -11 0 -20 -5 -20 -11 0 -6 12 -9 28 -7 l27 3 3 138 3
137 -75 0 c-41 0 -78 -4 -81 -10z"/>
<path d="M9267 4293 c-3 -4 5 -20 18 -35 15 -18 26 -24 31 -17 3 6 -5 22 -19
36 -13 14 -27 21 -30 16z"/>
<path d="M9396 4273 c-13 -18 -15 -28 -7 -36 7 -7 11 -7 11 -1 0 6 9 20 20 31
13 15 15 23 7 26 -7 2 -20 -7 -31 -20z"/>
<path d="M4640 4283 c0 -5 9 -19 19 -32 13 -17 20 -20 26 -12 4 7 -1 21 -11
32 -17 19 -34 25 -34 12z"/>
<path d="M5280 4230 c0 -78 17 -78 22 0 2 43 -1 60 -9 60 -9 0 -13 -19 -13
-60z"/>
<path d="M7470 4165 c0 -77 4 -125 10 -125 6 0 10 7 10 15 0 10 10 15 30 15
20 0 30 -5 30 -15 0 -8 5 -15 10 -15 6 0 10 48 10 125 l0 125 -50 0 -50 0 0
-125z m80 65 c0 -38 -2 -40 -30 -40 -28 0 -30 2 -30 40 0 38 2 40 30 40 28 0
30 -2 30 -40z m0 -100 c0 -38 -2 -40 -30 -40 -28 0 -30 2 -30 40 0 38 2 40 30
40 28 0 30 -2 30 -40z"/>
<path d="M8920 4280 c0 -6 30 -10 70 -10 l70 0 0 -119 c0 -116 -1 -120 -22
-124 -20 -3 -21 -4 -5 -11 42 -19 47 -4 47 139 l0 135 -80 0 c-47 0 -80 -4
-80 -10z"/>
<path d="M3910 4225 l0 -55 50 0 50 0 0 55 0 55 -50 0 -50 0 0 -55z m80 5 c0
-38 -2 -40 -30 -40 -28 0 -30 2 -30 40 0 38 2 40 30 40 28 0 30 -2 30 -40z"/>
<path d="M5430 4165 c0 -66 4 -115 9 -115 6 0 11 24 13 53 l3 52 48 3 c59 4
52 22 -9 22 l-44 0 0 40 0 40 50 0 c28 0 50 5 50 10 0 6 -27 10 -60 10 l-60 0
0 -115z"/>
<path d="M5612 4172 c-46 -118 -47 -122 -32 -122 5 0 16 16 25 36 14 35 15 35
67 32 50 -3 53 -5 62 -35 5 -18 15 -33 22 -33 8 0 14 1 14 3 0 1 -19 51 -43
112 -25 64 -49 111 -58 113 -11 2 -27 -29 -57 -106z m72 45 c32 -77 31 -77
-13 -77 -23 0 -41 3 -41 8 0 10 33 102 37 102 1 0 9 -15 17 -33z"/>
<path d="M7130 4158 c1 -105 3 -120 14 -105 14 18 76 24 76 7 0 -5 5 -10 10
-10 6 0 10 45 10 115 l0 115 -55 0 -55 0 0 -122z m90 17 l0 -85 -35 0 -35 0 0
85 0 85 35 0 35 0 0 -85z"/>
<path d="M4400 4250 c0 -6 33 -10 80 -10 47 0 80 4 80 10 0 6 -33 10 -80 10
-47 0 -80 -4 -80 -10z"/>
<path d="M6640 4134 c0 -81 4 -123 10 -119 6 4 10 57 10 126 0 73 -4 119 -10
119 -6 0 -10 -49 -10 -126z"/>
<path d="M8490 4134 c0 -81 4 -123 10 -119 6 4 10 57 10 126 0 73 -4 119 -10
119 -6 0 -10 -49 -10 -126z"/>
<path d="M8820 4130 c0 -73 4 -120 10 -120 6 0 10 47 10 120 0 73 -4 120 -10
120 -6 0 -10 -47 -10 -120z"/>
<path d="M8960 4225 c0 -23 -4 -25 -45 -25 -25 0 -45 -4 -45 -10 0 -5 16 -10
35 -10 l36 0 -15 -27 c-8 -16 -26 -39 -40 -52 -14 -13 -23 -28 -20 -33 8 -12
31 8 66 56 l28 39 0 -51 c0 -40 -4 -52 -15 -52 -17 0 -20 -16 -6 -24 5 -4 16
-3 25 0 13 5 16 21 16 75 l0 69 30 0 c17 0 30 5 30 10 0 6 -14 10 -31 10 -28
0 -31 2 -25 25 5 18 2 25 -9 25 -9 0 -15 -9 -15 -25z"/>
<path d="M6690 4170 l0 -60 30 0 c28 0 30 -2 30 -40 0 -25 5 -40 13 -40 7 0
12 14 12 37 0 35 2 38 33 41 l32 3 0 60 0 59 -75 0 -75 0 0 -60z m60 25 c0 -8
-9 -15 -20 -15 -11 0 -20 7 -20 15 0 8 9 15 20 15 11 0 20 -7 20 -15z m70 0
c0 -9 -9 -15 -25 -15 -16 0 -25 6 -25 15 0 9 9 15 25 15 16 0 25 -6 25 -15z
m-70 -50 c0 -8 -9 -15 -20 -15 -11 0 -20 7 -20 15 0 8 9 15 20 15 11 0 20 -7
20 -15z m70 0 c0 -9 -9 -15 -25 -15 -16 0 -25 6 -25 15 0 9 9 15 25 15 16 0
25 -6 25 -15z"/>
<path d="M8540 4170 l0 -60 30 0 c28 0 30 -2 30 -40 0 -25 5 -40 13 -40 7 0
12 14 12 37 0 35 2 38 33 41 l32 3 0 60 0 59 -75 0 -75 0 0 -60z m60 25 c0 -8
-9 -15 -20 -15 -11 0 -20 7 -20 15 0 8 9 15 20 15 11 0 20 -7 20 -15z m70 0
c0 -9 -9 -15 -25 -15 -16 0 -25 6 -25 15 0 9 9 15 25 15 16 0 25 -6 25 -15z
m-70 -50 c0 -8 -9 -15 -20 -15 -11 0 -20 7 -20 15 0 8 9 15 20 15 11 0 20 -7
20 -15z m70 0 c0 -9 -9 -15 -25 -15 -16 0 -25 6 -25 15 0 9 9 15 25 15 16 0
25 -6 25 -15z"/>
<path d="M4430 4180 c0 -36 3 -40 25 -40 23 0 25 -3 25 -49 0 -42 -3 -50 -20
-53 -12 -2 -17 -7 -12 -14 4 -7 15 -8 30 -3 19 7 22 15 22 64 0 52 1 55 25 55
23 0 25 4 25 40 l0 40 -60 0 -60 0 0 -40z m100 0 c0 -17 -7 -20 -40 -20 -33 0
-40 3 -40 20 0 17 7 20 40 20 33 0 40 -3 40 -20z"/>
<path d="M7278 4215 c-3 -4 9 -43 27 -88 35 -87 34 -114 -6 -124 -10 -3 -19
-9 -19 -14 0 -16 36 -10 53 9 21 24 90 198 84 214 -4 11 -19 -16 -59 -112 -9
-24 -11 -22 -34 40 -26 67 -36 84 -46 75z"/>
<path d="M4090 4108 c0 -52 4 -88 10 -88 6 0 10 16 10 35 0 33 2 35 35 35 31
0 35 -3 35 -25 0 -16 -6 -25 -15 -25 -8 0 -15 -5 -15 -11 0 -6 10 -9 23 -7 21
3 22 8 25 88 l3 85 -56 0 -55 0 0 -87z m90 57 c0 -10 -11 -15 -35 -15 -33 0
-43 8 -28 23 13 14 63 7 63 -8z m0 -45 c0 -5 -16 -10 -35 -10 -19 0 -35 5 -35
10 0 6 16 10 35 10 19 0 35 -4 35 -10z"/>
<path d="M6350 4190 c0 -6 33 -10 80 -10 47 0 80 4 80 10 0 6 -33 10 -80 10
-47 0 -80 -4 -80 -10z"/>
<path d="M8190 4191 c0 -5 10 -11 23 -13 18 -2 21 -8 18 -33 -5 -44 -28 -84
-56 -97 -26 -12 -31 -23 -16 -32 12 -8 59 31 75 63 8 15 17 43 21 64 7 35 9
37 46 37 l40 0 -6 -52 c-9 -72 -11 -78 -35 -78 -11 0 -20 -7 -20 -15 0 -18 30
-20 53 -2 11 8 18 35 23 90 l7 77 -87 0 c-47 0 -86 -4 -86 -9z"/>
<path d="M7600 4180 c0 -21 24 -60 37 -60 8 0 13 3 11 8 -24 48 -32 62 -40 62
-4 0 -8 -4 -8 -10z"/>
<path d="M4230 4113 c0 -79 9 -93 60 -93 47 0 76 21 65 46 -7 17 -8 18 -12 2
-10 -40 -93 -34 -93 7 0 18 9 27 45 41 25 9 45 21 45 25 0 13 -21 10 -50 -6
-36 -20 -42 -18 -38 12 2 15 -2 28 -9 30 -10 4 -13 -14 -13 -64z"/>
<path d="M9330 4131 c0 -42 -27 -86 -61 -96 -14 -5 -18 -10 -11 -17 12 -12 39
1 66 31 24 27 39 121 19 121 -8 0 -13 -13 -13 -39z"/>
<path d="M6340 4075 c0 -37 4 -65 10 -65 6 0 10 5 10 10 0 6 30 10 70 10 40 0
70 -4 70 -10 0 -5 6 -10 13 -10 8 0 12 20 12 65 l0 65 -92 0 -93 0 0 -65z
m160 10 l0 -35 -70 0 -70 0 0 35 0 35 70 0 70 0 0 -35z"/>
<path d="M4421 4085 c-16 -28 -17 -35 -6 -35 17 0 49 56 36 64 -5 3 -18 -10
-30 -29z"/>
<path d="M4520 4101 c0 -13 29 -35 37 -28 7 8 -15 37 -28 37 -5 0 -9 -4 -9 -9z"/>
<path d="M9366 4071 c-7 -11 48 -63 57 -54 12 11 8 19 -22 41 -17 12 -32 18
-35 13z"/>
<path d="M5770 4010 c0 -6 32 -10 75 -10 43 0 75 4 75 10 0 6 -32 10 -75 10
-43 0 -75 -4 -75 -10z"/>
<path d="M740 3914 c0 -4 8 -13 18 -20 15 -12 8 -13 -49 -14 l-66 0 -5 -97
c-3 -64 -11 -109 -22 -130 -13 -26 -14 -33 -3 -33 24 0 40 52 45 148 l4 92
124 0 c76 0 124 4 124 10 0 6 -26 10 -58 10 -46 0 -60 4 -70 20 -11 18 -42 28
-42 14z"/>
<path d="M1009 3908 c0 -2 -1 -24 -2 -50 l-3 -48 93 0 93 0 0 50 0 50 -90 0
c-49 0 -90 -1 -91 -2z m161 -48 l0 -30 -70 0 -70 0 0 30 0 30 70 0 70 0 0 -30z"/>
<path d="M690 3830 c0 -6 31 -10 72 -10 71 0 71 0 53 -20 -10 -12 -25 -18 -32
-15 -7 3 -20 8 -28 11 -24 10 -17 -12 8 -24 19 -9 13 -11 -35 -11 -32 -1 -58
-5 -58 -11 0 -5 25 -10 55 -10 l55 0 0 -55 c0 -42 -3 -55 -15 -55 -8 0 -15 -5
-15 -11 0 -6 10 -9 23 -7 20 3 22 9 25 66 l3 62 40 0 c36 0 39 -2 29 -19 -13
-24 -13 -31 0 -31 8 0 40 51 40 65 0 3 -20 5 -45 5 -25 0 -45 3 -45 7 0 4 14
22 32 40 l32 33 -97 0 c-58 0 -97 -4 -97 -10z"/>
<path d="M945 3780 c-4 -6 12 -10 41 -10 46 0 46 0 41 -30 l-6 -30 79 0 c86 0
94 -6 64 -48 -11 -16 -25 -22 -55 -22 -21 0 -39 -4 -39 -10 0 -11 52 -13 87
-4 21 6 43 48 43 85 0 17 -9 19 -76 19 -65 0 -75 2 -70 16 3 9 6 18 6 20 0 2
41 4 90 4 53 0 90 4 90 10 0 6 -55 10 -144 10 -86 0 -147 -4 -151 -10z"/>
<path d="M2097 3914 c-3 -5 3 -20 12 -33 11 -14 21 -19 25 -13 3 5 -2 20 -12
33 -11 12 -21 18 -25 13z"/>
<path d="M2211 3890 c-6 -17 -20 -43 -31 -58 l-21 -26 20 -8 c25 -9 27 -26 6
-34 -19 -8 -20 -24 0 -24 10 0 15 -15 17 -57 l3 -58 64 0 c49 0 66 4 75 17 5
9 7 21 2 25 -4 4 -12 0 -17 -10 -7 -12 -23 -17 -59 -17 l-50 0 0 54 c0 39 4
55 15 60 12 4 15 -4 15 -44 0 -66 18 -64 22 2 2 41 7 54 21 56 23 5 24 -53 1
-66 -13 -7 -14 -11 -4 -17 20 -12 40 23 40 68 0 39 -1 39 -30 34 -27 -6 -30
-4 -30 18 0 34 -18 32 -22 -2 -4 -33 -24 -41 -31 -12 -3 11 -10 18 -16 14 -15
-9 -13 6 3 28 10 13 28 17 80 17 37 0 66 4 66 10 0 6 -27 10 -60 10 -64 0 -66
1 -50 31 8 15 7 19 -4 19 -8 0 -19 -14 -25 -30z"/>
<path d="M2450 3885 c0 -32 -2 -35 -30 -35 -16 0 -30 -4 -30 -10 0 -5 14 -10
30 -10 l31 0 -7 -52 c-7 -59 -27 -114 -50 -139 -13 -14 -13 -17 0 -22 27 -11
59 62 72 161 5 42 10 52 25 52 17 0 19 -9 19 -81 0 -72 -2 -81 -20 -86 -23 -6
-27 -33 -6 -33 35 0 46 29 46 126 l0 94 -31 0 c-30 0 -31 2 -27 35 3 24 0 35
-9 35 -8 0 -13 -13 -13 -35z"/>
<path d="M2770 3880 c0 -33 -3 -40 -20 -40 -26 0 -26 -18 0 -22 21 -3 21 -4
-4 -53 -27 -53 -20 -89 8 -39 15 28 15 28 16 -43 0 -52 4 -73 13 -73 9 0 11
20 9 80 -3 51 0 80 6 80 6 0 14 -5 17 -10 4 -6 11 -8 17 -4 5 4 -2 18 -18 35
-27 28 -27 29 -6 29 28 0 29 16 1 23 -19 5 -21 11 -16 41 4 27 2 36 -9 36 -10
0 -14 -12 -14 -40z"/>
<path d="M2945 3900 c5 -17 2 -20 -20 -20 -20 0 -26 4 -21 15 3 9 0 15 -9 15
-8 0 -15 -7 -15 -15 0 -9 -10 -15 -26 -15 -14 0 -23 -4 -19 -10 3 -5 15 -10
26 -10 10 0 19 -4 19 -10 0 -5 7 -10 16 -10 8 0 12 5 9 10 -9 14 29 12 44 -2
11 -10 14 -10 18 0 3 6 15 12 28 12 13 0 27 5 30 10 4 6 -7 10 -24 10 -24 0
-31 4 -31 20 0 11 -7 20 -16 20 -11 0 -14 -6 -9 -20z"/>
<path d="M3100 3885 c0 -28 -4 -35 -20 -35 -11 0 -20 -4 -20 -10 0 -5 9 -10
20 -10 16 0 20 -7 20 -36 0 -27 -5 -37 -20 -41 -11 -3 -20 -12 -20 -20 0 -10
6 -12 20 -8 18 6 20 2 20 -39 0 -35 -4 -46 -16 -46 -9 0 -14 -5 -12 -11 2 -6
7 -10 11 -10 4 1 14 1 22 1 12 0 15 14 15 65 0 54 3 66 20 75 11 6 20 15 20
19 0 5 -9 7 -20 4 -16 -4 -20 0 -20 17 0 13 8 24 20 27 26 7 26 23 -1 23 -19
0 -20 4 -15 35 6 28 4 35 -9 35 -11 0 -15 -10 -15 -35z"/>
<path d="M3210 3915 c0 -18 42 -85 50 -80 12 7 -26 85 -40 85 -6 0 -10 -2 -10
-5z"/>
<path d="M3300 3828 c0 -99 -14 -141 -56 -176 -24 -20 -32 -32 -24 -37 7 -4
27 8 49 29 l38 37 17 -26 c9 -14 21 -23 27 -19 6 3 0 19 -14 38 -26 33 -25 33
-13 184 3 31 0 42 -10 42 -11 0 -14 -18 -14 -72z"/>
<path d="M3440 3860 l0 -40 105 0 105 0 0 40 0 40 -105 0 -105 0 0 -40z m190
20 c0 -6 -35 -10 -86 -10 -54 0 -83 4 -79 10 3 6 42 10 86 10 46 0 79 -4 79
-10z m-37 -37 c-23 -2 -64 -2 -90 0 -26 2 -7 3 42 3 50 0 71 -1 48 -3z"/>
<path d="M2570 3750 c0 -73 4 -120 10 -120 6 0 10 9 10 20 0 16 7 20 30 20 23
0 30 -4 30 -20 0 -11 5 -20 10 -20 6 0 10 47 10 120 l0 120 -50 0 -50 0 0
-120z m80 20 l0 -80 -30 0 -30 0 0 80 0 80 30 0 30 0 0 -80z"/>
<path d="M3180 3767 c0 -57 3 -106 6 -110 8 -7 64 57 64 74 0 7 -11 3 -26 -12
l-26 -24 4 88 c2 65 0 87 -9 87 -10 0 -13 -27 -13 -103z"/>
<path d="M2050 3842 c0 -7 8 -12 18 -10 15 3 17 -5 14 -62 -3 -54 -14 -92 -40
-142 -2 -5 3 -8 11 -8 18 0 37 43 44 102 5 38 10 48 24 48 17 0 19 -8 19 -61
0 -53 -3 -62 -20 -66 -12 -3 -19 -10 -17 -16 6 -18 24 -19 41 -2 12 12 16 36
16 91 l0 74 -29 0 c-25 0 -28 3 -23 25 4 21 9 25 31 23 14 -2 27 1 29 6 1 4
-25 9 -58 10 -43 1 -60 -3 -60 -12z"/>
<path d="M2854 3831 c-2 -2 -4 -26 -4 -53 0 -47 1 -48 30 -48 17 0 30 -4 30
-10 0 -5 -20 -10 -45 -10 -25 0 -45 -4 -45 -10 0 -5 18 -10 41 -10 50 0 49
-17 -5 -44 -26 -13 -34 -22 -27 -29 12 -12 56 13 83 47 15 19 17 19 23 4 9
-23 72 -61 86 -52 7 4 -4 15 -27 28 -53 30 -55 46 -5 46 23 0 41 5 41 10 0 6
-23 10 -51 10 -31 0 -48 4 -44 10 3 6 19 10 36 10 28 0 29 1 29 53 l0 52 -71
0 c-39 0 -72 -2 -75 -4z m126 -26 c0 -11 -12 -15 -49 -15 -47 0 -68 9 -54 24
3 3 28 6 55 6 36 0 48 -4 48 -15z m0 -40 c0 -12 -13 -15 -55 -15 -51 0 -65 7
-48 23 3 4 28 7 55 7 36 0 48 -4 48 -15z"/>
<path d="M3395 3800 c-4 -7 48 -10 149 -10 97 0 156 4 156 10 0 6 -56 10 -149
10 -89 0 -152 -4 -156 -10z"/>
<path d="M3440 3735 l0 -45 50 0 c28 0 50 -4 50 -10 0 -5 -25 -10 -55 -10 -30
0 -55 -4 -55 -9 0 -4 22 -6 49 -3 30 2 51 0 55 -7 5 -8 -14 -11 -63 -11 -41 0
-71 -4 -71 -10 0 -6 55 -10 145 -10 90 0 145 4 145 10 0 6 -29 10 -66 10 -46
0 -63 3 -58 11 4 7 24 9 55 6 29 -4 49 -2 49 3 0 6 -25 10 -55 10 -30 0 -55 5
-55 10 0 6 23 10 50 10 l50 0 0 45 0 45 -110 0 -110 0 0 -45z m100 15 c0 -5
-18 -10 -40 -10 -22 0 -40 5 -40 10 0 6 18 10 40 10 22 0 40 -4 40 -10z m100
0 c0 -5 -18 -10 -40 -10 -22 0 -40 5 -40 10 0 6 18 10 40 10 22 0 40 -4 40
-10z m-100 -30 c0 -5 -18 -10 -41 -10 -24 0 -38 4 -34 10 3 6 22 10 41 10 19
0 34 -4 34 -10z m95 0 c4 -6 -10 -10 -35 -10 -25 0 -39 4 -35 10 3 6 19 10 35
10 16 0 32 -4 35 -10z"/>
<path d="M4515 3866 c-14 -29 -25 -56 -25 -59 0 -4 14 -7 31 -7 l31 0 -26 -34
c-36 -48 -34 -58 12 -51 51 9 62 13 62 23 0 5 -13 7 -30 4 -16 -2 -30 -2 -30
2 0 3 14 29 31 57 23 36 29 53 21 61 -8 8 -14 4 -23 -15 -7 -15 -20 -27 -31
-27 -24 0 -23 10 6 53 19 28 21 37 10 41 -9 4 -22 -12 -39 -48z"/>
<path d="M4680 3890 c0 -28 -3 -30 -35 -30 -19 0 -35 -4 -35 -10 0 -5 16 -10
35 -10 31 0 35 -3 35 -25 0 -21 -5 -25 -30 -25 -16 0 -30 -4 -30 -10 0 -6 32
-10 75 -10 43 0 75 4 75 10 0 6 -16 10 -35 10 -31 0 -35 3 -35 25 0 23 4 25
45 25 25 0 45 5 45 10 0 6 -20 10 -45 10 -46 0 -53 7 -35 41 9 16 7 19 -10 19
-16 0 -20 -6 -20 -30z"/>
<path d="M4963 3900 c5 -19 0 -20 -64 -20 -88 0 -90 -18 -2 -22 42 -2 68 -8
71 -15 2 -9 -11 -13 -47 -13 l-51 0 0 -45 0 -45 37 0 37 0 -30 -31 c-16 -17
-42 -37 -57 -45 -15 -8 -25 -19 -22 -24 10 -17 21 -11 73 35 27 25 53 45 57
45 4 0 5 -25 2 -55 -4 -44 -3 -55 9 -55 11 0 14 15 14 61 l0 62 20 -26 c26
-33 87 -70 100 -62 6 4 -8 19 -32 34 -24 15 -49 35 -57 44 -12 15 -10 17 23
17 l36 0 0 45 0 45 -45 0 c-33 0 -45 4 -45 15 0 12 14 15 65 15 37 0 65 4 65
10 0 6 -28 10 -65 10 -58 0 -65 2 -65 20 0 12 -7 20 -16 20 -11 0 -15 -6 -11
-20z m5 -117 c3 -21 -1 -23 -37 -23 -37 0 -41 2 -41 26 0 23 3 25 38 22 30 -2
38 -7 40 -25z m92 2 c0 -22 -4 -25 -35 -25 -31 0 -35 3 -35 25 0 22 4 25 35
25 31 0 35 -3 35 -25z"/>
<path d="M5249 3898 c-6 -13 -25 -38 -42 -55 -25 -27 -27 -33 -13 -33 9 0 29
14 43 30 21 26 32 30 74 30 53 0 59 -7 31 -33 -24 -22 -35 -21 -57 3 -10 11
-22 17 -27 14 -5 -3 1 -17 13 -30 12 -13 21 -25 18 -27 -7 -6 -63 -25 -91 -31
-31 -7 -38 -26 -10 -26 9 0 42 11 72 23 53 22 56 22 95 6 52 -23 97 -28 102
-11 3 7 -5 12 -21 12 -15 0 -43 7 -62 15 l-36 15 31 35 c17 20 31 40 31 45 0
6 -30 10 -67 11 -38 0 -62 3 -55 6 6 2 10 9 6 14 -9 15 -23 10 -35 -13z"/>
<path d="M5570 3905 c0 -21 -28 -75 -52 -102 -12 -12 -17 -27 -13 -34 6 -8 13
-5 26 12 18 24 19 23 19 -73 0 -59 4 -98 10 -98 6 0 10 45 10 115 0 85 4 124
15 146 16 29 13 49 -6 49 -5 0 -9 -7 -9 -15z"/>
<path d="M5690 3880 c0 -34 -3 -40 -21 -40 -16 0 -19 4 -14 20 4 13 2 20 -7
20 -8 0 -19 -19 -26 -42 -7 -24 -15 -49 -18 -55 -11 -25 17 -13 28 12 7 16 19
25 35 25 20 0 23 -5 23 -35 0 -35 0 -35 -45 -35 -25 0 -45 -4 -45 -10 0 -5 20
-10 45 -10 l45 0 0 -60 c0 -33 4 -60 10 -60 6 0 10 27 10 60 l0 60 50 0 c28 0
50 5 50 10 0 6 -22 10 -50 10 l-50 0 0 35 c0 33 2 35 35 35 19 0 35 5 35 10 0
6 -16 10 -36 10 l-37 0 6 40 c4 30 2 40 -9 40 -10 0 -14 -12 -14 -40z"/>
<path d="M5300 3750 c0 -17 -7 -20 -45 -20 -25 0 -45 -4 -45 -10 0 -5 20 -10
45 -10 l45 0 0 -40 c0 -34 -3 -40 -21 -40 -11 0 -17 -4 -14 -10 3 -5 17 -10
31 -10 22 0 24 4 24 50 l0 50 50 0 c28 0 50 5 50 10 0 6 -23 10 -51 10 -46 0
-51 2 -46 20 3 13 0 20 -9 20 -8 0 -14 -9 -14 -20z"/>
<path d="M4630 3675 c0 -37 4 -65 10 -65 6 0 10 7 10 15 0 22 86 21 94 -1 12
-31 21 -4 18 55 l-4 61 -64 0 -64 0 0 -65z m110 10 c0 -35 0 -35 -45 -35 -45
0 -45 0 -45 35 0 35 0 35 45 35 45 0 45 0 45 -35z"/>
<path d="M5213 3670 c-35 -32 -40 -40 -22 -40 16 0 79 57 72 64 -10 10 -16 7
-50 -24z"/>
<path d="M5350 3691 c0 -13 70 -64 78 -56 4 4 -9 20 -28 36 -35 30 -50 36 -50
20z"/>
<path d="M4536 3666 c-36 -11 -62 -36 -39 -36 21 0 103 33 103 41 0 11 -15 10
-64 -5z"/>
<path d="M7438 3879 l-28 -39 -70 0 c-40 0 -70 -4 -70 -10 0 -6 27 -10 61 -10
59 0 61 -1 55 -22 -3 -13 -6 -26 -6 -30 0 -5 -27 -8 -60 -8 -33 0 -60 -4 -60
-10 0 -6 27 -10 60 -10 33 0 60 -4 60 -9 0 -20 -53 -71 -85 -83 -19 -6 -35
-15 -35 -18 0 -42 115 30 133 83 2 6 18 -5 37 -26 39 -45 85 -71 108 -62 13 5
8 11 -23 26 -40 20 -95 66 -95 81 0 4 27 8 60 8 33 0 60 4 60 10 0 6 -30 10
-71 10 -61 0 -70 2 -65 16 3 9 6 22 6 30 0 11 15 14 62 14 67 0 71 16 5 22
l-39 3 22 28 c13 16 19 32 14 37 -5 4 -21 -9 -36 -31z"/>
<path d="M7660 3833 c0 -47 -3 -83 -6 -80 -4 3 -20 -12 -36 -34 -37 -51 -27
-66 13 -19 l28 35 1 -62 c0 -62 1 -63 26 -61 30 3 64 42 90 104 l17 39 14 -35
c23 -54 63 -104 76 -91 7 7 1 20 -17 42 -28 32 -56 91 -56 115 0 10 13 14 40
14 22 0 40 5 40 10 0 6 -21 10 -46 10 l-46 0 4 50 c2 35 -1 50 -9 50 -9 0 -13
-17 -13 -50 l0 -50 -40 0 c-22 0 -40 -4 -40 -10 0 -5 16 -10 35 -10 29 0 35
-4 35 -20 0 -45 -56 -140 -82 -140 -6 0 -8 61 -6 140 2 107 0 140 -9 140 -10
0 -13 -24 -13 -87z"/>
<path d="M8058 3898 c-3 -21 -9 -23 -65 -26 -78 -4 -84 -22 -8 -22 30 0 55 -4
55 -9 0 -15 -79 -81 -97 -81 -12 0 -14 -3 -6 -11 18 -18 49 -1 98 53 l46 51
35 -42 c45 -52 93 -79 105 -59 6 9 0 15 -20 20 -30 8 -81 50 -81 68 0 5 22 10
50 10 28 0 50 5 50 10 0 6 -30 10 -71 10 -71 0 -71 0 -65 25 5 18 2 25 -8 25
-8 0 -16 -10 -18 -22z"/>
<path d="M7300 3904 c0 -7 25 -29 53 -45 12 -7 17 -6 17 3 0 8 -13 21 -29 31
-31 18 -41 21 -41 11z"/>
<path d="M6940 3890 c0 -5 14 -10 30 -10 29 0 30 -2 30 -45 l0 -45 -40 0 c-28
0 -40 -4 -40 -14 0 -11 10 -13 40 -9 33 5 40 3 40 -11 0 -27 -26 -79 -49 -100
-25 -22 -27 -36 -6 -36 21 0 64 68 71 113 6 36 7 37 50 37 l44 0 0 -75 c0 -96
18 -98 22 -2 l3 72 38 -1 c25 -1 37 3 37 12 0 10 -13 14 -40 14 l-40 0 0 45
c0 43 1 45 30 45 17 0 30 5 30 10 0 6 -48 10 -125 10 -77 0 -125 -4 -125 -10z
m170 -55 l0 -45 -45 0 -45 0 0 45 0 45 45 0 45 0 0 -45z"/>
<path d="M7836 3865 c15 -23 34 -34 34 -19 0 16 -23 44 -36 44 -12 0 -12 -4 2
-25z"/>
<path d="M7600 3851 c0 -15 38 -56 45 -49 9 9 -21 58 -35 58 -6 0 -10 -4 -10
-9z"/>
<path d="M8056 3792 c-7 -11 31 -48 41 -38 4 3 -2 16 -14 27 -11 12 -23 17
-27 11z"/>
<path d="M8056 3732 c-3 -5 5 -19 18 -31 16 -16 26 -19 31 -11 4 6 5 12 4 13
-2 1 -14 10 -26 20 -11 10 -24 14 -27 9z"/>
<path d="M7949 3675 c-22 -46 -7 -54 20 -11 24 39 26 46 9 46 -7 -1 -20 -16
-29 -35z"/>
<path d="M8020 3665 c0 -42 1 -44 34 -50 48 -9 106 11 106 36 0 14 -20 10 -37
-7 -9 -9 -28 -14 -47 -12 -28 3 -31 7 -34 41 -4 52 -22 46 -22 -8z"/>
<path d="M8160 3702 c0 -14 49 -56 57 -49 3 4 -4 18 -17 32 -24 25 -40 32 -40
17z"/>
<path d="M10380 3834 c0 -47 -4 -83 -9 -80 -13 8 -75 -74 -64 -85 6 -6 20 6
39 32 l29 42 3 -67 c3 -64 4 -67 25 -61 31 9 76 63 89 109 l12 39 18 -43 c26
-62 56 -100 73 -93 12 4 10 12 -12 37 -27 32 -62 101 -63 124 0 8 16 12 45 12
25 0 45 5 45 10 0 6 -23 10 -51 10 l-52 0 5 50 c4 38 2 50 -8 50 -10 0 -14
-15 -14 -50 l0 -50 -35 0 c-19 0 -35 -4 -35 -10 0 -5 16 -10 35 -10 33 0 35
-1 29 -27 -11 -48 -31 -87 -55 -113 l-24 -25 -3 143 c-1 83 -7 142 -12 142 -6
0 -10 -37 -10 -86z"/>
<path d="M10770 3895 c0 -24 -3 -25 -60 -25 -33 0 -60 -4 -60 -10 0 -5 25 -10
56 -10 l55 0 -22 -31 c-12 -17 -39 -39 -60 -48 -28 -13 -36 -20 -27 -29 15
-15 90 37 115 78 22 38 33 37 58 -3 22 -34 82 -80 99 -74 20 7 16 25 -8 31
-27 7 -86 53 -86 67 0 5 23 9 50 9 28 0 50 5 50 10 0 6 -30 10 -70 10 -70 0
-70 0 -64 25 5 19 2 25 -10 25 -10 0 -16 -9 -16 -25z"/>
<path d="M11076 3887 c-14 -18 -37 -39 -51 -47 -14 -7 -25 -17 -25 -22 0 -15
23 -8 56 17 26 20 44 25 90 25 l58 0 -33 -34 -34 -35 -28 21 c-16 12 -32 18
-36 14 -4 -4 3 -16 17 -26 25 -19 25 -19 5 -34 -11 -9 -42 -23 -68 -32 -35
-11 -46 -19 -38 -27 7 -7 18 -7 36 1 14 7 28 12 30 12 3 0 5 -25 5 -55 0 -30
5 -55 10 -55 6 0 10 5 10 10 0 6 32 10 75 10 43 0 75 -4 75 -10 0 -5 5 -10 10
-10 6 0 10 30 10 70 l0 70 -66 0 -65 0 60 56 c34 31 61 60 61 65 0 5 -33 9
-72 9 -63 1 -71 3 -56 14 17 12 15 26 -3 26 -4 0 -19 -15 -33 -33z m154 -197
l0 -40 -75 0 -75 0 0 40 0 40 75 0 75 0 0 -40z"/>
<path d="M11494 3903 c-16 -46 -48 -106 -52 -95 -2 7 -12 12 -23 12 -29 0 -27
56 3 64 16 4 20 8 12 16 -8 8 -19 8 -38 0 -15 -5 -39 -10 -52 -10 -14 0 -22
-4 -19 -10 3 -5 15 -10 26 -10 14 0 19 -7 19 -25 0 -20 -5 -25 -25 -25 -14 0
-25 -4 -25 -10 0 -5 11 -10 25 -10 14 0 25 -2 25 -5 0 -11 -32 -70 -47 -87
-10 -11 -11 -18 -3 -23 13 -8 13 -9 33 30 l16 30 1 -67 c0 -54 3 -68 15 -68
12 0 15 15 15 73 1 63 2 70 14 54 10 -12 16 -15 21 -7 4 6 -2 22 -14 34 -29
31 -26 39 12 32 29 -5 35 -3 47 19 11 21 20 25 62 25 46 0 48 -1 38 -20 -8
-16 -8 -20 4 -20 8 0 19 14 25 30 l10 30 -59 0 c-59 0 -59 0 -50 25 6 15 6 26
0 30 -6 4 -13 -2 -16 -12z"/>
<path d="M10540 3883 c0 -4 7 -17 15 -27 17 -23 34 -13 19 11 -12 19 -34 29
-34 16z"/>
<path d="M10310 3855 c0 -12 33 -55 41 -55 15 0 10 26 -9 43 -19 17 -32 22
-32 12z"/>
<path d="M11520 3719 c0 -86 -1 -91 -20 -86 -23 6 -27 -11 -5 -19 32 -13 44
15 47 107 2 66 0 89 -9 89 -10 0 -13 -25 -13 -91z"/>
<path d="M10766 3791 c-3 -5 5 -16 19 -25 19 -12 25 -13 25 -4 0 17 -37 41
-44 29z"/>
<path d="M11560 3751 c0 -20 43 -81 56 -81 11 0 6 13 -16 45 -31 45 -40 53
-40 36z"/>
<path d="M11470 3741 c0 -4 -11 -25 -25 -45 -22 -32 -23 -37 -8 -34 10 2 28
22 41 46 20 35 21 42 8 42 -9 0 -16 -4 -16 -9z"/>
<path d="M10770 3723 c0 -5 12 -16 25 -26 19 -13 25 -15 25 -4 0 7 -5 18 -12
25 -13 13 -38 16 -38 5z"/>
<path d="M10673 3693 c-3 -10 -12 -25 -20 -35 -9 -10 -11 -18 -4 -22 10 -7 51
44 51 63 0 18 -20 13 -27 -6z"/>
<path d="M10730 3667 c0 -42 2 -46 30 -52 37 -8 85 2 101 21 18 22 4 28 -24 9
-14 -9 -38 -15 -54 -13 -24 3 -28 7 -29 37 0 19 -5 36 -12 39 -8 2 -12 -11
-12 -41z"/>
<path d="M10880 3702 c0 -14 46 -53 53 -45 4 3 -3 17 -15 30 -22 23 -38 30
-38 15z"/>
<path d="M895 3475 c-31 -25 -28 -33 6 -15 18 10 19 7 19 -80 l0 -90 -30 0
c-16 0 -30 -4 -30 -10 0 -6 28 -10 65 -10 37 0 65 4 65 10 0 6 -11 10 -25 10
l-25 0 0 105 c0 58 -3 105 -7 105 -5 0 -21 -11 -38 -25z"/>
<path d="M2530 3350 c0 -6 120 -10 340 -10 220 0 340 4 340 10 0 6 -120 10
-340 10 -220 0 -340 -4 -340 -10z"/>
<path d="M4904 3479 c-15 -17 -19 -36 -19 -94 0 -83 18 -115 65 -115 47 0 65
32 65 115 0 83 -18 115 -65 115 -15 0 -35 -9 -46 -21z m80 -21 c21 -30 21
-117 0 -146 -38 -54 -87 -2 -81 85 6 79 47 110 81 61z"/>
<path d="M5176 3479 c-14 -11 -26 -25 -26 -31 0 -6 8 -4 18 5 10 10 22 17 25
17 4 0 7 -40 7 -90 l0 -90 -30 0 c-16 0 -30 -4 -30 -10 0 -6 28 -10 65 -10 37
0 65 4 65 10 0 6 -11 10 -25 10 l-25 0 0 105 c0 58 -4 105 -9 105 -4 0 -20 -9
-35 -21z"/>
<path d="M5310 3426 c-23 -28 -8 -59 37 -76 53 -19 59 -26 43 -45 -15 -18 -61
-20 -78 -3 -6 6 -15 8 -19 4 -13 -12 28 -36 62 -36 39 0 70 30 61 58 -6 18
-23 28 -79 46 -23 8 -18 40 7 44 10 2 29 -2 42 -9 30 -15 40 -7 19 15 -20 20
-78 21 -95 2z"/>
<path d="M5070 3285 c0 -8 5 -15 10 -15 6 0 10 7 10 15 0 8 -4 15 -10 15 -5 0
-10 -7 -10 -15z"/>
<path d="M7420 3527 c0 -19 52 -98 84 -126 18 -17 29 -22 37 -14 7 7 -1 18
-24 36 -18 14 -44 46 -58 71 -24 45 -39 58 -39 33z"/>
<path d="M7641 3495 c-11 -25 -29 -59 -41 -74 -16 -24 -17 -30 -6 -34 8 -3 21
4 30 16 14 20 15 14 15 -81 1 -66 5 -101 11 -97 6 4 10 59 10 133 0 96 4 133
15 148 14 20 11 34 -6 34 -5 0 -17 -20 -28 -45z"/>
<path d="M7336 3504 c-4 -14 -25 -45 -48 -70 -44 -48 -45 -73 -2 -33 27 25 84
107 84 121 0 20 -29 5 -34 -18z"/>
<path d="M7811 3368 c-20 -96 -23 -100 -87 -96 -30 1 -54 0 -54 -4 0 -5 53 -7
118 -6 64 1 96 3 70 5 -27 2 -48 5 -48 6 0 1 9 34 20 72 24 83 24 85 7 85 -8
0 -18 -24 -26 -62z"/>
<path d="M7310 3410 c0 -5 11 -10 25 -10 18 0 25 -5 25 -20 0 -38 -29 -90 -60
-108 -31 -18 -36 -27 -21 -36 14 -9 72 44 87 81 8 18 14 44 14 58 0 23 4 25
40 25 l40 0 0 -42 c0 -68 -9 -88 -37 -88 -15 0 -23 -5 -21 -12 7 -19 31 -21
53 -4 16 11 20 29 23 90 l4 76 -86 0 c-51 0 -86 -4 -86 -10z"/>
<path d="M7712 3409 c2 -8 10 -35 17 -61 8 -29 19 -48 28 -48 15 0 14 4 -12
79 -11 33 -42 60 -33 30z"/>
<path d="M10590 3533 c0 -3 7 -15 17 -25 15 -17 13 -18 -50 -18 l-67 0 0 -30
c0 -16 5 -30 10 -30 6 0 10 9 10 20 0 19 7 20 110 20 103 0 110 -1 110 -20 0
-11 5 -20 10 -20 6 0 10 14 10 30 0 30 0 30 -56 30 -30 0 -53 4 -50 9 3 5 -5
16 -19 25 -26 17 -35 20 -35 9z"/>
<path d="M10880 3453 c0 -47 -3 -83 -6 -80 -4 3 -20 -12 -36 -34 -37 -51 -27
-66 13 -19 l28 35 1 -62 c0 -62 1 -63 26 -61 30 3 64 42 90 104 l17 39 14 -35
c23 -54 63 -104 76 -91 7 7 1 20 -17 42 -28 32 -56 91 -56 115 0 10 13 14 40
14 22 0 40 5 40 10 0 6 -21 10 -46 10 l-46 0 4 50 c2 35 -1 50 -9 50 -9 0 -13
-17 -13 -50 l0 -50 -40 0 c-22 0 -40 -4 -40 -10 0 -5 16 -10 35 -10 29 0 35
-4 35 -20 0 -45 -56 -140 -82 -140 -6 0 -8 61 -6 140 2 107 0 140 -9 140 -10
0 -13 -24 -13 -87z"/>
<path d="M11278 3518 c-3 -21 -9 -23 -65 -26 -78 -4 -84 -22 -8 -22 30 0 55
-4 55 -9 0 -15 -79 -81 -97 -81 -12 0 -14 -3 -6 -11 18 -18 49 -1 98 53 l46
51 35 -42 c45 -52 93 -79 105 -59 6 9 0 15 -20 20 -30 8 -81 50 -81 68 0 5 22
10 50 10 28 0 50 5 50 10 0 6 -30 10 -71 10 -71 0 -71 0 -65 25 5 18 2 25 -8
25 -8 0 -16 -10 -18 -22z"/>
<path d="M11056 3485 c15 -23 34 -34 34 -19 0 16 -23 44 -36 44 -12 0 -12 -4
2 -25z"/>
<path d="M10820 3471 c0 -15 38 -56 45 -49 9 9 -21 58 -35 58 -6 0 -10 -4 -10
-9z"/>
<path d="M10549 3417 c-14 -12 -34 -27 -44 -33 -12 -6 -15 -13 -8 -17 10 -6
103 52 103 66 0 14 -25 6 -51 -16z"/>
<path d="M10650 3431 c0 -10 75 -61 90 -61 21 0 8 16 -34 43 -46 29 -56 32
-56 18z"/>
<path d="M11276 3412 c-7 -11 31 -48 41 -38 4 3 -2 16 -14 27 -11 12 -23 17
-27 11z"/>
<path d="M10520 3350 c0 -5 20 -10 45 -10 l45 0 0 -40 0 -40 -70 0 c-40 0 -70
-4 -70 -10 0 -6 55 -10 145 -10 90 0 145 4 145 10 0 6 -28 10 -65 10 l-65 0 0
40 0 40 45 0 c25 0 45 5 45 10 0 6 -40 10 -100 10 -60 0 -100 -4 -100 -10z"/>
<path d="M11276 3352 c-3 -5 5 -19 18 -31 16 -16 26 -19 31 -11 4 6 5 12 4 13
-2 1 -14 10 -26 20 -11 10 -24 14 -27 9z"/>
<path d="M11169 3295 c-22 -46 -7 -54 20 -11 24 39 26 46 9 46 -7 -1 -20 -16
-29 -35z"/>
<path d="M11240 3285 c0 -42 1 -44 34 -50 48 -9 106 11 106 36 0 14 -20 10
-37 -7 -9 -9 -28 -14 -47 -12 -28 3 -31 7 -34 41 -4 52 -22 46 -22 -8z"/>
<path d="M11380 3322 c0 -14 49 -56 57 -49 3 4 -4 18 -17 32 -24 25 -40 32
-40 17z"/>
<path d="M877 3092 c-18 -19 -23 -42 -9 -42 4 0 13 9 20 20 22 36 82 23 82
-18 0 -17 -19 -45 -60 -88 -33 -34 -60 -67 -60 -73 0 -7 26 -11 70 -11 84 0
94 18 13 22 l-58 3 58 56 c62 62 74 101 39 132 -25 22 -75 21 -95 -1z"/>
<path d="M2702 3014 c3 -86 5 -98 27 -115 31 -25 82 -24 115 2 25 19 26 25 26
115 0 56 -4 94 -10 94 -6 0 -10 -36 -10 -89 0 -99 -11 -121 -59 -121 -54 0
-66 19 -69 119 -2 52 -8 91 -14 91 -6 0 -9 -37 -6 -96z"/>
<path d="M2930 3035 c-16 -19 -5 -34 12 -17 18 18 56 14 68 -7 15 -29 13 -31
-23 -31 -41 0 -77 -25 -77 -54 0 -42 45 -60 91 -36 13 7 19 7 19 0 0 -5 5 -10
10 -10 17 0 12 123 -6 148 -18 26 -75 30 -94 7z m90 -88 c0 -22 -37 -49 -62
-45 -26 3 -37 36 -16 49 21 14 78 11 78 -4z"/>
<path d="M4880 3120 c0 -36 -2 -40 -25 -40 -14 0 -25 -4 -25 -10 0 -5 11 -10
25 -10 22 0 25 -4 25 -33 0 -26 -6 -36 -25 -45 -14 -6 -25 -16 -25 -22 0 -13
6 -13 31 0 18 10 19 7 19 -39 0 -37 -4 -53 -17 -60 -10 -5 -14 -13 -10 -17 4
-5 16 -3 25 2 12 8 18 28 20 75 2 43 8 66 18 72 19 11 18 28 -1 21 -11 -5 -15
1 -15 20 0 16 6 26 15 26 8 0 15 5 15 10 0 6 -7 10 -15 10 -11 0 -15 11 -15
40 0 22 -4 40 -10 40 -5 0 -10 -18 -10 -40z"/>
<path d="M5015 3130 c18 -20 17 -20 -28 -20 -46 0 -47 -1 -47 -30 0 -19 5 -30
14 -30 9 0 12 7 9 20 -5 19 0 20 66 20 64 0 71 -2 71 -20 0 -11 5 -20 10 -20
6 0 10 14 10 30 0 29 -2 30 -42 30 -23 0 -38 3 -35 7 10 9 -13 33 -31 33 -13
0 -12 -3 3 -20z"/>
<path d="M5275 3107 c-17 -23 -49 -52 -72 -63 -34 -17 -40 -24 -29 -33 15 -13
78 28 115 75 l22 28 42 -42 42 -42 -77 0 c-42 0 -80 -4 -83 -10 -4 -6 25 -10
79 -10 53 0 86 4 86 10 0 7 7 7 21 0 11 -7 28 -9 37 -5 13 5 7 11 -23 24 -46
20 -105 75 -105 97 0 26 -25 13 -55 -29z"/>
<path d="M4966 3023 c-39 -46 -24 -55 20 -11 25 24 32 37 22 40 -7 3 -26 -10
-42 -29z"/>
<path d="M5050 3042 c0 -14 49 -56 57 -49 3 4 -4 18 -17 32 -24 25 -40 32 -40
17z"/>
<path d="M4960 2960 c0 -5 14 -10 30 -10 28 0 30 -3 30 -35 0 -35 0 -35 -45
-35 -25 0 -45 -4 -45 -10 0 -6 40 -10 100 -10 60 0 100 4 100 10 0 6 -20 10
-45 10 -45 0 -45 0 -45 35 0 32 2 35 29 35 17 0 33 5 36 10 4 6 -22 10 -69 10
-44 0 -76 -4 -76 -10z"/>
<path d="M5220 2905 c0 -37 4 -65 10 -65 6 0 10 5 10 10 0 6 32 10 75 10 43 0
75 -4 75 -10 0 -5 5 -10 10 -10 6 0 10 28 10 65 l0 65 -95 0 -95 0 0 -65z
m170 10 l0 -35 -75 0 -75 0 0 35 0 35 75 0 75 0 0 -35z"/>
<path d="M7737 3154 c-4 -4 5 -21 20 -38 l26 -31 -51 -3 c-29 -2 -52 -7 -52
-13 0 -12 197 -12 205 1 4 6 -13 10 -44 10 -37 0 -49 3 -45 13 5 15 -49 71
-59 61z"/>
<path d="M7420 3137 c0 -19 52 -98 84 -126 18 -17 29 -22 37 -14 7 7 -1 18
-24 36 -18 14 -44 46 -58 71 -24 45 -39 58 -39 33z"/>
<path d="M7641 3105 c-11 -25 -29 -59 -41 -74 -16 -24 -17 -30 -6 -34 8 -3 21
4 30 16 14 20 15 14 15 -81 1 -66 5 -101 11 -97 6 4 10 59 10 133 0 96 4 133
15 148 14 20 11 34 -6 34 -5 0 -17 -20 -28 -45z"/>
<path d="M7336 3114 c-4 -14 -25 -45 -48 -70 -44 -48 -45 -73 -2 -33 27 25 84
107 84 121 0 20 -29 5 -34 -18z"/>
<path d="M7811 2978 c-20 -96 -23 -100 -87 -96 -30 1 -54 0 -54 -4 0 -5 53 -7
118 -6 64 1 96 3 70 5 -27 2 -48 5 -48 6 0 1 9 34 20 72 24 83 24 85 7 85 -8
0 -18 -24 -26 -62z"/>
<path d="M7310 3020 c0 -5 11 -10 25 -10 18 0 25 -5 25 -20 0 -38 -29 -90 -60
-108 -31 -18 -36 -27 -21 -36 14 -9 72 44 87 81 8 18 14 44 14 58 0 23 4 25
40 25 l40 0 0 -42 c0 -68 -9 -88 -37 -88 -15 0 -23 -5 -21 -12 7 -19 31 -21
53 -4 16 11 20 29 23 90 l4 76 -86 0 c-51 0 -86 -4 -86 -10z"/>
<path d="M7712 3019 c2 -8 10 -35 17 -61 8 -29 19 -48 28 -48 15 0 14 4 -12
79 -11 33 -42 60 -33 30z"/>
<path d="M10760 3130 c0 -29 -1 -30 -50 -30 l-50 0 0 -85 0 -85 49 0 50 0 3
-37 3 -38 70 -3 c62 -3 72 0 87 19 10 11 15 25 12 30 -9 15 -21 10 -27 -11 -4
-17 -14 -20 -66 -20 l-61 0 0 30 c0 30 1 30 55 30 l55 0 0 85 0 85 -56 0 c-54
0 -56 1 -52 24 3 15 0 27 -8 30 -10 4 -14 -3 -14 -24z m0 -75 c0 -22 -4 -25
-40 -25 -36 0 -40 3 -40 25 0 23 4 25 40 25 36 0 40 -2 40 -25z m110 0 c0 -23
-4 -25 -45 -25 -41 0 -45 2 -45 25 0 23 4 25 45 25 41 0 45 -2 45 -25z m-110
-75 c0 -28 -2 -30 -40 -30 -38 0 -40 2 -40 30 0 28 2 30 40 30 38 0 40 -2 40
-30z m110 0 c0 -29 -2 -30 -45 -30 -43 0 -45 1 -45 30 0 29 2 30 45 30 43 0
45 -1 45 -30z"/>
<path d="M10440 3130 c0 -18 -7 -20 -55 -20 -30 0 -55 -4 -55 -10 0 -5 25 -10
55 -10 l55 0 0 -45 0 -45 -65 0 c-37 0 -65 -4 -65 -10 0 -5 26 -10 58 -10 l57
-1 -40 -37 c-22 -21 -49 -43 -60 -50 -14 -7 -17 -14 -9 -21 7 -8 27 4 67 40
l57 51 0 -61 c0 -34 4 -61 10 -61 6 0 10 27 10 61 l0 61 39 -35 c50 -46 78
-60 99 -52 13 5 7 12 -28 30 -25 13 -56 35 -69 49 l-24 26 56 0 c31 0 57 5 57
10 0 6 -28 10 -65 10 l-65 0 0 45 0 45 60 0 c33 0 60 4 60 10 0 6 -27 10 -61
10 -56 0 -61 2 -56 20 3 13 0 20 -9 20 -8 0 -14 -9 -14 -20z"/>
<path d="M11095 3114 c-21 -40 -58 -69 -98 -79 -22 -6 -25 -10 -16 -21 15 -18
51 1 103 55 l39 40 42 -38 c53 -49 82 -64 103 -56 13 5 8 11 -23 26 -45 22
-105 77 -105 96 0 25 -26 12 -45 -23z"/>
<path d="M11368 3144 c-8 -8 20 -54 33 -54 14 0 10 12 -9 38 -10 13 -21 20
-24 16z"/>
<path d="M11440 3118 c0 -10 18 -12 65 -10 l65 4 0 -121 c0 -114 -1 -121 -20
-121 -11 0 -20 -5 -20 -11 0 -6 12 -9 28 -7 l27 3 3 138 3 137 -76 0 c-53 0
-75 -4 -75 -12z"/>
<path d="M11340 2971 c0 -162 18 -167 22 -6 2 95 0 125 -9 125 -10 0 -13 -31
-13 -119z"/>
<path d="M10356 3072 c-3 -5 8 -21 23 -36 16 -15 31 -23 35 -18 3 5 -8 21 -23
36 -16 15 -31 23 -35 18z"/>
<path d="M10502 3051 c-12 -17 -18 -32 -13 -35 11 -7 63 48 54 57 -11 12 -19
8 -41 -22z"/>
<path d="M11390 3000 l0 -60 35 0 c34 0 35 -1 35 -40 0 -22 5 -40 10 -40 6 0
10 18 10 40 0 38 2 40 30 40 l30 0 0 60 0 60 -75 0 -75 0 0 -60z m70 25 c0 -9
-9 -15 -25 -15 -16 0 -25 6 -25 15 0 9 9 15 25 15 16 0 25 -6 25 -15z m60 0
c0 -8 -9 -15 -20 -15 -11 0 -20 7 -20 15 0 8 9 15 20 15 11 0 20 -7 20 -15z
m-60 -50 c0 -9 -9 -15 -25 -15 -16 0 -25 6 -25 15 0 9 9 15 25 15 16 0 25 -6
25 -15z m60 0 c0 -8 -9 -15 -20 -15 -11 0 -20 7 -20 15 0 8 9 15 20 15 11 0
20 -7 20 -15z"/>
<path d="M11050 3020 c0 -6 33 -10 80 -10 47 0 80 4 80 10 0 6 -33 10 -80 10
-47 0 -80 -4 -80 -10z"/>
<path d="M11040 2905 c0 -37 4 -65 10 -65 6 0 10 5 10 10 0 6 30 10 70 10 40
0 70 -4 70 -10 0 -5 6 -10 13 -10 8 0 12 20 12 65 l0 65 -92 0 -93 0 0 -65z
m160 10 l0 -35 -70 0 -70 0 0 35 0 35 70 0 70 0 0 -35z"/>
<path d="M860 2703 c-14 -18 -17 -29 -10 -31 6 -2 18 5 26 17 24 34 84 25 84
-13 0 -28 -18 -46 -47 -46 -13 0 -23 -4 -23 -10 0 -5 13 -10 28 -10 15 0 33
-5 40 -12 15 -15 15 -51 0 -66 -19 -19 -66 -14 -80 8 -15 23 -28 26 -28 7 0
-41 75 -61 118 -31 29 20 30 77 2 97 -18 12 -18 15 -5 20 23 9 20 74 -4 87
-36 19 -78 12 -101 -17z"/>
<path d="M2480 2636 c0 -90 1 -96 26 -115 46 -36 105 -27 129 20 17 31 21 189
6 189 -5 0 -11 -41 -13 -91 -3 -100 -15 -119 -69 -119 -48 0 -59 22 -59 121 0
53 -4 89 -10 89 -6 0 -10 -38 -10 -94z"/>
<path d="M2950 2636 c0 -90 1 -96 26 -115 46 -36 105 -27 129 20 17 31 21 189
6 189 -5 0 -11 -41 -13 -91 -3 -100 -15 -119 -69 -119 -48 0 -59 22 -59 121 0
53 -4 89 -10 89 -6 0 -10 -38 -10 -94z"/>
<path d="M2713 2663 c-14 -5 -18 -33 -5 -33 4 0 13 5 19 11 18 18 58 7 61 -18
3 -20 -1 -23 -32 -23 -37 0 -76 -28 -76 -53 0 -37 71 -62 98 -35 9 9 12 9 12
0 0 -7 5 -12 10 -12 6 0 10 32 10 75 0 63 -3 76 -19 85 -20 10 -57 12 -78 3z
m77 -101 c0 -24 -19 -42 -45 -42 -31 0 -46 19 -34 42 14 25 79 26 79 0z"/>
<path d="M2870 2655 c0 -8 5 -15 10 -15 6 0 10 7 10 15 0 8 -4 15 -10 15 -5 0
-10 -7 -10 -15z"/>
<path d="M3180 2643 c-18 -22 -21 -37 -17 -72 3 -27 12 -50 23 -58 26 -19 68
-16 89 7 23 25 12 39 -13 17 -40 -36 -82 -11 -82 48 0 57 49 88 80 50 14 -17
30 -20 30 -6 0 19 -32 41 -60 41 -19 0 -36 -9 -50 -27z"/>
<path d="M2873 2495 c3 -46 17 -46 17 0 0 19 -4 35 -9 35 -5 0 -9 -16 -8 -35z"/>
<path d="M4932 2714 c-12 -8 -22 -22 -22 -30 0 -20 13 -17 28 6 16 27 68 27
82 1 14 -28 2 -51 -31 -58 -35 -7 -38 -23 -5 -23 27 0 56 -24 56 -45 0 -42
-79 -62 -102 -25 -15 23 -28 26 -28 6 0 -36 77 -59 120 -36 28 15 34 59 12 90
-17 23 -18 28 -6 45 19 26 18 41 -6 65 -24 24 -67 26 -98 4z"/>
<path d="M5107 2673 c-2 -32 -3 -60 0 -63 2 -2 13 1 23 8 44 27 80 8 80 -43 0
-17 -5 -36 -12 -43 -17 -17 -67 -15 -74 3 -8 19 -24 19 -24 0 0 -18 31 -35 64
-35 38 0 66 33 66 78 0 49 -27 76 -70 70 -28 -4 -30 -3 -30 29 0 32 1 33 45
33 25 0 45 5 45 10 0 6 -24 10 -54 10 l-54 0 -5 -57z"/>
<path d="M5276 2657 c-33 -24 -17 -59 34 -77 33 -11 45 -21 45 -35 0 -15 -8
-21 -33 -23 -18 -2 -40 2 -48 9 -21 17 -28 5 -9 -15 34 -33 115 -14 115 28 0
28 -13 39 -63 56 -27 8 -37 17 -35 28 4 21 54 28 74 11 8 -6 18 -9 22 -5 11
12 -29 36 -58 36 -14 0 -34 -6 -44 -13z"/>
<path d="M7737 2774 c-4 -4 5 -21 20 -38 l26 -31 -51 -3 c-29 -2 -52 -7 -52
-13 0 -12 197 -12 205 1 4 6 -13 10 -44 10 -37 0 -49 3 -45 13 5 15 -49 71
-59 61z"/>
<path d="M7362 2725 c-18 -26 -48 -53 -69 -62 -21 -10 -40 -18 -42 -20 -1 -1
0 -7 4 -13 9 -15 81 27 116 70 l29 35 15 -23 c25 -35 104 -85 123 -77 13 5 7
12 -29 30 -44 23 -99 76 -99 96 0 20 -18 7 -48 -36z"/>
<path d="M7641 2725 c-11 -25 -29 -59 -41 -74 -16 -24 -17 -30 -6 -34 8 -3 21
4 30 16 14 20 15 14 15 -81 1 -66 5 -101 11 -97 6 4 10 59 10 133 0 96 4 133
15 148 14 20 11 34 -6 34 -5 0 -17 -20 -28 -45z"/>
<path d="M7811 2598 c-20 -96 -23 -100 -87 -96 -30 1 -54 0 -54 -4 0 -5 53 -7
118 -6 64 1 96 3 70 5 -27 2 -48 5 -48 6 0 1 9 34 20 72 24 83 24 85 7 85 -8
0 -18 -24 -26 -62z"/>
<path d="M7320 2640 c0 -6 33 -10 80 -10 47 0 80 4 80 10 0 6 -33 10 -80 10
-47 0 -80 -4 -80 -10z"/>
<path d="M7712 2639 c2 -8 10 -35 17 -61 8 -29 19 -48 28 -48 15 0 14 4 -12
79 -11 33 -42 60 -33 30z"/>
<path d="M7310 2525 c0 -37 4 -65 10 -65 6 0 10 5 10 10 0 6 32 10 75 10 43 0
75 -4 75 -10 0 -5 5 -10 10 -10 6 0 10 28 10 65 l0 65 -95 0 -95 0 0 -65z
m170 10 l0 -35 -75 0 -75 0 0 35 0 35 75 0 75 0 0 -35z"/>
<path d="M10778 2747 c-2 -21 -9 -33 -20 -35 -12 -2 -16 1 -13 10 5 14 -33 44
-43 34 -3 -3 3 -15 14 -27 l19 -21 -40 4 c-37 3 -40 1 -43 -24 -4 -32 13 -38
21 -8 5 18 14 20 116 20 104 0 111 -1 111 -20 0 -11 6 -20 13 -20 9 0 12 9 9
28 -3 25 -7 27 -38 24 -37 -5 -42 3 -18 29 9 10 11 19 5 23 -5 3 -19 -7 -31
-24 -27 -38 -44 -39 -38 0 3 18 0 31 -8 34 -8 3 -14 -6 -16 -27z"/>
<path d="M11358 2728 c-42 -46 -43 -48 -25 -48 17 0 89 74 81 83 -12 11 -17 8
-56 -35z"/>
<path d="M10320 2740 c0 -6 28 -10 65 -10 l65 0 0 -115 0 -115 -30 0 -30 0 0
85 c0 64 -3 85 -13 85 -10 0 -12 -19 -9 -85 l5 -85 -37 0 c-20 0 -36 -4 -36
-10 0 -6 58 -10 155 -10 97 0 155 4 155 10 0 6 -30 10 -70 10 l-70 0 0 60 0
60 45 0 c25 0 45 5 45 10 0 6 -20 10 -45 10 l-45 0 0 45 0 45 60 0 c33 0 60 4
60 10 0 6 -52 10 -135 10 -83 0 -135 -4 -135 -10z"/>
<path d="M11000 2742 c0 -14 49 -56 57 -49 3 4 -4 18 -17 32 -24 25 -40 32
-40 17z"/>
<path d="M11440 2740 c0 -6 33 -10 80 -10 47 0 80 4 80 10 0 6 -33 10 -80 10
-47 0 -80 -4 -80 -10z"/>
<path d="M11080 2730 c0 -6 35 -10 85 -10 50 0 85 4 85 10 0 6 -35 10 -85 10
-50 0 -85 -4 -85 -10z"/>
<path d="M11400 2681 c0 -4 -18 -28 -40 -53 -38 -44 -45 -74 -8 -41 17 15 18
13 18 -55 0 -51 4 -72 13 -72 9 0 11 21 9 81 -3 70 -1 86 17 110 25 34 26 39
6 39 -8 0 -15 -4 -15 -9z"/>
<path d="M10710 2638 c0 -37 1 -38 35 -38 19 0 35 -4 35 -10 0 -5 -22 -10 -50
-10 l-50 0 0 -50 c0 -34 4 -50 13 -50 9 0 11 12 9 40 l-4 40 41 0 41 0 0 -50
c0 -27 5 -50 10 -50 6 0 10 23 10 50 l0 50 40 0 c36 0 40 -2 40 -26 0 -17 -6
-28 -20 -31 -30 -8 -24 -25 8 -21 25 3 27 7 30 51 l3 47 -51 0 c-32 0 -49 4
-45 10 3 6 19 10 36 10 27 0 29 3 29 38 l0 37 -80 0 -80 0 0 -37z m138 0 c3
-16 -5 -18 -57 -18 -55 0 -61 2 -61 20 0 19 5 21 57 18 46 -2 59 -7 61 -20z"/>
<path d="M11060 2650 c0 -5 16 -10 35 -10 19 0 35 -3 35 -6 0 -13 -44 -84 -52
-84 -4 0 -8 -7 -8 -16 0 -12 7 -14 28 -10 84 16 113 17 128 6 25 -22 27 -3 3
39 -15 27 -26 38 -32 32 -7 -7 -6 -15 2 -25 11 -13 9 -16 -12 -21 -13 -4 -36
-5 -51 -3 l-26 3 26 43 c25 41 26 42 80 42 30 0 54 5 54 10 0 6 -42 10 -105
10 -63 0 -105 -4 -105 -10z"/>
<path d="M11420 2640 c0 -6 28 -10 65 -10 l65 0 0 -74 0 -73 -26 5 c-20 4 -25
1 -22 -9 6 -19 36 -23 53 -9 11 9 15 34 15 86 0 72 1 74 25 74 14 0 25 5 25
10 0 6 -40 10 -100 10 -60 0 -100 -4 -100 -10z"/>
<path d="M10975 2630 c3 -5 15 -10 26 -10 16 0 19 -7 19 -49 0 -39 -4 -51 -22
-64 -28 -18 -18 -33 10 -16 16 10 27 9 61 -4 54 -22 196 -24 204 -3 5 12 -8
13 -71 9 -50 -3 -91 0 -117 9 l-40 13 -3 63 -3 62 -35 0 c-21 0 -33 -4 -29
-10z"/>
<path d="M900 2275 c-72 -107 -72 -105 -6 -105 53 0 56 -1 56 -25 0 -14 5 -25
10 -25 6 0 10 11 10 25 0 16 6 25 15 25 8 0 15 5 15 10 0 6 -7 10 -15 10 -12
0 -15 16 -15 80 0 45 -4 80 -10 80 -5 0 -32 -34 -60 -75z m50 -25 l0 -60 -40
0 c-22 0 -40 3 -40 6 0 5 73 113 78 114 1 0 2 -27 2 -60z"/>
<path d="M2312 2254 c3 -86 5 -98 27 -115 31 -25 82 -24 115 2 25 19 26 25 26
115 0 56 -4 94 -10 94 -6 0 -10 -36 -10 -89 0 -99 -11 -121 -59 -121 -54 0
-66 19 -69 119 -2 52 -8 91 -14 91 -6 0 -9 -37 -6 -96z"/>
<path d="M2780 2260 c0 -83 2 -93 25 -115 16 -17 35 -25 60 -25 25 0 44 8 60
25 23 22 25 32 25 115 0 53 -4 90 -10 90 -6 0 -10 -34 -10 -83 0 -100 -14
-127 -65 -127 -51 0 -65 27 -65 127 0 49 -4 83 -10 83 -6 0 -10 -37 -10 -90z"/>
<path d="M3230 2235 c0 -70 4 -115 10 -115 6 0 10 45 10 115 0 70 -4 115 -10
115 -6 0 -10 -45 -10 -115z"/>
<path d="M2540 2275 c-16 -19 -5 -34 12 -17 18 18 56 14 68 -7 15 -29 13 -31
-23 -31 -41 0 -77 -25 -77 -54 0 -42 45 -60 91 -36 13 7 19 7 19 0 0 -5 5 -10
10 -10 17 0 12 123 -6 148 -18 26 -75 30 -94 7z m90 -88 c0 -22 -37 -49 -62
-45 -26 3 -37 36 -16 49 21 14 78 11 78 -4z"/>
<path d="M2710 2275 c0 -8 5 -15 10 -15 6 0 10 7 10 15 0 8 -4 15 -10 15 -5 0
-10 -7 -10 -15z"/>
<path d="M3014 2269 c-43 -47 -13 -149 43 -149 32 0 63 17 63 35 0 19 -16 19
-24 0 -7 -20 -50 -19 -67 1 -7 9 -13 31 -13 49 0 18 6 40 13 49 17 20 60 21
67 1 8 -19 24 -19 24 0 0 36 -76 47 -106 14z"/>
<path d="M3160 2275 c0 -8 5 -15 10 -15 6 0 10 7 10 15 0 8 -4 15 -10 15 -5 0
-10 -7 -10 -15z"/>
<path d="M3320 2275 c-16 -19 -5 -34 12 -17 18 18 56 14 68 -7 15 -29 13 -31
-23 -31 -41 0 -77 -25 -77 -54 0 -42 45 -60 91 -36 13 7 19 7 19 0 0 -5 5 -10
10 -10 17 0 12 123 -6 148 -18 26 -75 30 -94 7z m90 -88 c0 -22 -37 -49 -62
-45 -26 3 -37 36 -16 49 21 14 78 11 78 -4z"/>
<path d="M2712 2114 c0 -25 3 -33 9 -23 11 18 12 59 0 59 -5 0 -9 -16 -9 -36z"/>
<path d="M3162 2114 c0 -25 3 -33 9 -23 11 18 12 59 0 59 -5 0 -9 -16 -9 -36z"/>
<path d="M5015 2370 c18 -20 17 -20 -28 -20 -46 0 -47 -1 -47 -30 0 -19 5 -30
14 -30 9 0 12 7 9 20 -5 19 0 20 66 20 64 0 71 -2 71 -20 0 -11 5 -20 10 -20
6 0 10 14 10 30 0 29 -2 30 -42 30 -23 0 -38 3 -35 7 10 9 -13 33 -31 33 -13
0 -12 -3 3 -20z"/>
<path d="M5330 2385 c0 -3 9 -23 20 -45 27 -53 89 -115 102 -102 7 7 -3 22
-30 46 -22 20 -47 52 -56 71 -14 30 -36 48 -36 30z"/>
<path d="M5235 2330 c-14 -27 -36 -57 -50 -66 -14 -9 -25 -20 -25 -25 0 -14
26 -11 39 4 6 8 23 12 41 9 24 -3 30 -9 30 -29 0 -33 -24 -77 -56 -102 -32
-25 -23 -48 10 -26 25 17 62 82 71 128 5 23 10 27 41 27 l35 0 -3 -62 c-3 -61
-4 -63 -31 -66 -16 -2 -27 -8 -24 -15 6 -19 32 -19 55 0 17 15 21 32 24 88 l3
70 -82 3 c-46 2 -83 4 -83 6 0 2 11 24 25 47 27 48 30 59 15 59 -5 0 -21 -22
-35 -50z"/>
<path d="M4966 2263 c-39 -46 -24 -55 20 -11 25 24 32 37 22 40 -7 3 -26 -10
-42 -29z"/>
<path d="M5050 2282 c0 -14 49 -56 57 -49 3 4 -4 18 -17 32 -24 25 -40 32 -40
17z"/>
<path d="M4960 2200 c0 -5 14 -10 30 -10 28 0 30 -3 30 -35 0 -35 0 -35 -45
-35 -25 0 -45 -4 -45 -10 0 -6 40 -10 100 -10 60 0 100 4 100 10 0 6 -20 10
-45 10 -45 0 -45 0 -45 35 0 32 2 35 29 35 17 0 33 5 36 10 4 6 -22 10 -69 10
-44 0 -76 -4 -76 -10z"/>
<path d="M7362 2345 c-18 -26 -48 -53 -69 -62 -21 -10 -40 -18 -42 -20 -1 -1
0 -7 4 -13 9 -15 81 27 116 70 l29 35 15 -23 c25 -35 104 -85 123 -77 13 5 7
12 -29 30 -44 23 -99 76 -99 96 0 20 -18 7 -48 -36z"/>
<path d="M7641 2345 c-11 -25 -29 -59 -41 -74 -16 -24 -17 -30 -6 -34 8 -3 21
4 30 16 14 20 15 14 15 -81 1 -66 5 -101 11 -97 6 4 10 59 10 133 0 96 4 133
15 148 14 20 11 34 -6 34 -5 0 -17 -20 -28 -45z"/>
<path d="M7811 2218 c-20 -96 -23 -100 -87 -96 -30 1 -54 0 -54 -4 0 -5 53 -7
118 -6 64 1 96 3 70 5 -27 2 -48 5 -48 6 0 1 9 34 20 72 24 83 24 85 7 85 -8
0 -18 -24 -26 -62z"/>
<path d="M7320 2260 c0 -6 33 -10 80 -10 47 0 80 4 80 10 0 6 -33 10 -80 10
-47 0 -80 -4 -80 -10z"/>
<path d="M7712 2259 c2 -8 10 -35 17 -61 8 -29 19 -48 28 -48 15 0 14 4 -12
79 -11 33 -42 60 -33 30z"/>
<path d="M7310 2145 c0 -37 4 -65 10 -65 6 0 10 5 10 10 0 6 32 10 75 10 43 0
75 -4 75 -10 0 -5 5 -10 10 -10 6 0 10 28 10 65 l0 65 -95 0 -95 0 0 -65z
m170 10 l0 -35 -75 0 -75 0 0 35 0 35 75 0 75 0 0 -35z"/>
<path d="M10520 2355 l0 -35 -60 0 c-33 0 -60 -4 -60 -10 0 -6 27 -10 60 -10
l60 0 0 -70 c0 -63 -2 -70 -20 -70 -11 0 -20 -4 -20 -9 0 -16 19 -23 40 -16
18 6 20 15 20 86 l0 79 30 0 c17 0 30 5 30 10 0 6 -14 10 -31 10 -30 0 -31 2
-27 35 3 24 0 35 -9 35 -8 0 -13 -13 -13 -35z"/>
<path d="M10800 2383 c0 -3 7 -15 17 -25 15 -17 14 -18 -30 -18 -26 0 -47 -4
-47 -10 0 -5 11 -10 25 -10 14 0 25 -4 25 -8 0 -5 -11 -19 -25 -32 -40 -37
-32 -43 49 -37 47 3 78 1 85 -6 6 -6 14 -7 18 -4 4 4 -7 22 -25 39 -31 31 -57
34 -32 3 11 -13 6 -15 -34 -15 l-47 0 21 30 c19 27 27 30 76 30 30 0 54 5 54
10 0 6 -16 10 -36 10 -27 0 -41 7 -56 25 -18 24 -38 33 -38 18z"/>
<path d="M11040 2355 c0 -33 -2 -35 -35 -35 -19 0 -35 -4 -35 -10 0 -5 16 -10
35 -10 32 0 35 -2 35 -30 0 -25 -4 -30 -25 -30 -24 0 -25 -2 -25 -70 0 -40 4
-70 10 -70 6 0 10 7 10 15 0 17 65 22 75 5 14 -23 25 4 25 61 0 56 -1 59 -25
59 -21 0 -25 5 -25 30 0 28 3 30 35 30 19 0 35 5 35 10 0 6 -16 10 -36 10 -35
0 -36 1 -32 35 3 24 0 35 -9 35 -8 0 -13 -13 -13 -35z m40 -170 c0 -33 -2 -35
-35 -35 -33 0 -35 2 -35 35 0 33 2 35 35 35 33 0 35 -2 35 -35z"/>
<path d="M11480 2384 c0 -4 8 -13 18 -20 15 -12 11 -13 -30 -14 -27 0 -48 -5
-48 -11 0 -6 8 -8 18 -5 13 4 18 0 19 -14 1 -16 -4 -20 -28 -20 -29 0 -30 1
-23 35 l6 35 -41 0 -41 0 0 -150 c0 -93 4 -150 10 -150 6 0 10 53 10 140 0
136 1 140 21 140 15 0 19 -4 15 -16 -14 -36 -18 -92 -7 -98 17 -11 14 -56 -4
-56 -9 0 -12 -6 -9 -15 5 -11 10 -12 26 -4 20 11 21 30 3 99 l-6 25 116 -3
c81 -2 115 0 110 7 -3 6 -22 11 -41 11 -32 0 -33 1 -22 20 7 11 18 18 25 16 7
-3 15 -1 18 4 4 6 -8 10 -27 10 -22 0 -37 7 -46 20 -11 18 -42 28 -42 14z m50
-59 c0 -21 -27 -30 -45 -15 -23 19 -18 30 15 30 20 0 30 -5 30 -15z"/>
<path d="M10330 2362 c0 -14 46 -53 53 -45 4 3 -3 17 -15 30 -22 23 -38 30
-38 15z"/>
<path d="M10670 2362 c0 -14 39 -46 47 -39 3 4 -2 16 -12 27 -19 21 -35 26
-35 12z"/>
<path d="M10640 2281 c0 -13 50 -44 58 -36 4 4 -4 15 -17 26 -25 20 -41 24
-41 10z"/>
<path d="M10300 2260 c0 -5 11 -10 25 -10 24 0 25 -3 25 -53 0 -48 -3 -55 -26
-65 -14 -7 -22 -17 -19 -22 4 -6 15 -4 29 5 20 13 26 13 61 -5 51 -26 205 -30
205 -5 0 13 -11 14 -70 9 -54 -5 -80 -3 -115 10 l-45 18 0 64 0 64 -35 0 c-19
0 -35 -4 -35 -10z"/>
<path d="M10430 2253 c0 -5 9 -19 19 -32 22 -29 36 -13 15 17 -15 21 -34 30
-34 15z"/>
<path d="M11430 2210 l0 -50 35 0 c19 0 35 -4 35 -10 0 -5 -22 -10 -50 -10
-27 0 -50 -4 -50 -10 0 -5 23 -10 50 -10 47 0 50 -2 50 -25 0 -14 5 -25 10
-25 6 0 10 11 10 25 0 23 3 25 50 25 28 0 50 5 50 10 0 6 -22 10 -50 10 -27 0
-50 5 -50 10 0 6 15 10 33 10 32 0 32 0 32 50 l0 50 -77 0 -78 0 0 -50z m130
20 c0 -5 -25 -10 -55 -10 -30 0 -55 5 -55 10 0 6 25 10 55 10 30 0 55 -4 55
-10z m0 -40 c0 -5 -25 -10 -55 -10 -30 0 -55 5 -55 10 0 6 25 10 55 10 30 0
55 -4 55 -10z"/>
<path d="M10757 2179 c-3 -23 -15 -51 -27 -64 -21 -23 -13 -44 11 -29 17 10
39 69 39 104 0 44 -16 37 -23 -11z"/>
<path d="M10810 2155 c0 -84 17 -84 22 0 2 47 0 65 -9 65 -9 0 -13 -20 -13
-65z"/>
<path d="M10862 2158 l3 -63 33 -3 c32 -3 55 19 37 36 -4 4 -10 1 -12 -5 -3
-7 -14 -13 -25 -13 -19 0 -20 5 -16 55 4 42 1 55 -9 55 -11 0 -13 -15 -11 -62z"/>
<path d="M10677 2157 c-29 -57 -32 -67 -17 -67 14 0 63 101 53 111 -4 4 -21
-15 -36 -44z"/>
<path d="M867 1913 c-2 -32 -3 -60 0 -63 2 -2 13 1 23 8 44 27 80 8 80 -43 0
-17 -5 -36 -12 -43 -17 -17 -67 -15 -74 3 -8 19 -24 19 -24 0 0 -18 31 -35 64
-35 38 0 66 33 66 78 0 49 -27 76 -70 70 -28 -4 -30 -3 -30 29 0 32 1 33 45
33 25 0 45 5 45 10 0 6 -24 10 -54 10 l-54 0 -5 -57z"/>
<path d="M2702 1874 c3 -86 5 -98 27 -115 31 -25 82 -24 115 2 25 19 26 25 26
115 0 56 -4 94 -10 94 -6 0 -10 -36 -10 -89 0 -99 -11 -121 -59 -121 -54 0
-66 19 -69 119 -2 52 -8 91 -14 91 -6 0 -9 -37 -6 -96z"/>
<path d="M2930 1895 c-16 -19 -5 -34 12 -17 18 18 56 14 68 -7 15 -29 13 -31
-23 -31 -41 0 -77 -25 -77 -54 0 -42 45 -60 91 -36 13 7 19 7 19 0 0 -5 5 -10
10 -10 17 0 12 123 -6 148 -18 26 -75 30 -94 7z m90 -88 c0 -22 -37 -49 -62
-45 -26 3 -37 36 -16 49 21 14 78 11 78 -4z"/>
<path d="M5041 1949 c-13 -11 -21 -22 -17 -26 3 -4 12 -1 18 5 23 23 28 11 28
-78 l0 -90 -30 0 c-16 0 -30 -4 -30 -10 0 -6 28 -10 65 -10 37 0 65 4 65 10 0
6 -11 10 -25 10 l-25 0 0 105 c0 113 -5 121 -49 84z"/>
<path d="M5177 1892 c-10 -10 -17 -23 -17 -29 0 -15 28 -36 64 -48 41 -13 43
-49 3 -53 -16 -2 -35 2 -43 9 -19 16 -30 4 -14 -16 14 -17 62 -20 91 -5 21 12
26 52 7 68 -7 5 -24 13 -38 17 -35 10 -50 24 -43 41 6 17 54 19 71 2 17 -17
28 -2 12 17 -17 21 -73 19 -93 -3z"/>
<path d="M7420 1997 c0 -19 52 -98 84 -126 18 -17 29 -22 37 -14 7 7 -1 18
-24 36 -18 14 -44 46 -58 71 -24 45 -39 58 -39 33z"/>
<path d="M7641 1965 c-11 -25 -29 -59 -41 -74 -16 -24 -17 -30 -6 -34 8 -3 21
4 30 16 14 20 15 14 15 -81 1 -66 5 -101 11 -97 6 4 10 59 10 133 0 96 4 133
15 148 14 20 11 34 -6 34 -5 0 -17 -20 -28 -45z"/>
<path d="M7336 1974 c-4 -14 -25 -45 -48 -70 -44 -48 -45 -73 -2 -33 27 25 84
107 84 121 0 20 -29 5 -34 -18z"/>
<path d="M7811 1838 c-20 -96 -23 -100 -87 -96 -30 1 -54 0 -54 -4 0 -5 53 -7
118 -6 64 1 96 3 70 5 -27 2 -48 5 -48 6 0 1 9 34 20 72 24 83 24 85 7 85 -8
0 -18 -24 -26 -62z"/>
<path d="M7310 1880 c0 -5 11 -10 25 -10 18 0 25 -5 25 -20 0 -38 -29 -90 -60
-108 -31 -18 -36 -27 -21 -36 14 -9 72 44 87 81 8 18 14 44 14 58 0 23 4 25
40 25 l40 0 0 -42 c0 -68 -9 -88 -37 -88 -15 0 -23 -5 -21 -12 7 -19 31 -21
53 -4 16 11 20 29 23 90 l4 76 -86 0 c-51 0 -86 -4 -86 -10z"/>
<path d="M7712 1879 c2 -8 10 -35 17 -61 8 -29 19 -48 28 -48 15 0 14 4 -12
79 -11 33 -42 60 -33 30z"/>
<path d="M10508 1970 c-21 -22 -33 -42 -28 -45 12 -7 92 64 84 76 -8 14 -17
10 -56 -31z"/>
<path d="M11020 2000 c-14 -4 -60 -8 -102 -9 -66 -1 -76 -3 -71 -17 5 -12 15
-14 54 -9 41 6 49 4 49 -9 0 -13 -13 -16 -70 -16 -38 0 -70 -4 -70 -8 0 -5 27
-6 61 -4 37 3 65 0 72 -7 8 -8 -1 -11 -36 -11 l-47 0 0 -55 0 -55 45 0 c25 0
45 -4 45 -10 0 -5 -22 -10 -50 -10 -27 0 -50 -4 -50 -10 0 -5 23 -10 50 -10
38 0 50 -4 50 -15 0 -12 -14 -15 -70 -15 -40 0 -70 -4 -70 -10 0 -6 57 -10
150 -10 93 0 150 4 150 10 0 6 -30 10 -70 10 -56 0 -70 3 -70 15 0 11 12 15
50 15 28 0 50 5 50 10 0 6 -22 10 -50 10 -27 0 -50 5 -50 10 0 6 20 10 45 10
l45 0 0 55 0 55 -46 0 c-29 0 -43 4 -39 11 4 6 32 9 66 8 32 -1 62 1 66 4 3 4
-26 7 -65 7 -55 0 -72 3 -72 14 0 17 22 26 66 26 26 0 32 3 28 15 -7 16 -8 17
-44 5z m-70 -125 c0 -10 -11 -15 -35 -15 -24 0 -35 5 -35 15 0 10 11 15 35 15
24 0 35 -5 35 -15z m90 0 c0 -10 -11 -15 -35 -15 -24 0 -35 5 -35 15 0 10 11
15 35 15 24 0 35 -5 35 -15z m-90 -45 c0 -5 -16 -10 -35 -10 -19 0 -35 5 -35
10 0 6 16 10 35 10 19 0 35 -4 35 -10z m90 0 c0 -5 -16 -10 -35 -10 -19 0 -35
5 -35 10 0 6 16 10 35 10 19 0 35 -4 35 -10z"/>
<path d="M11265 1974 c-21 -40 -58 -69 -98 -79 -22 -6 -25 -10 -16 -21 15 -18
51 1 103 55 l39 40 42 -38 c53 -49 82 -64 103 -56 13 5 8 11 -23 26 -45 22
-105 77 -105 96 0 25 -26 12 -45 -23z"/>
<path d="M11538 2004 c-8 -8 20 -54 33 -54 14 0 10 12 -9 38 -10 13 -21 20
-24 16z"/>
<path d="M11610 1978 c0 -10 18 -12 65 -10 l65 4 0 -121 c0 -114 -1 -121 -20
-121 -11 0 -20 -5 -20 -11 0 -6 12 -9 28 -7 l27 3 3 138 3 137 -76 0 c-53 0
-75 -4 -75 -12z"/>
<path d="M11510 1831 c0 -162 18 -167 22 -6 2 95 0 125 -9 125 -10 0 -13 -31
-13 -119z"/>
<path d="M10530 1910 c0 -5 -13 -25 -30 -43 -16 -19 -30 -37 -30 -41 0 -13 30
-5 39 12 8 12 10 -3 11 -60 0 -45 4 -78 10 -78 6 0 10 38 10 94 0 53 4 98 10
101 15 9 12 25 -5 25 -8 0 -15 -4 -15 -10z"/>
<path d="M11560 1860 l0 -60 35 0 c34 0 35 -1 35 -40 0 -22 5 -40 10 -40 6 0
10 18 10 40 0 38 2 40 30 40 l30 0 0 60 0 60 -75 0 -75 0 0 -60z m70 25 c0 -9
-9 -15 -25 -15 -16 0 -25 6 -25 15 0 9 9 15 25 15 16 0 25 -6 25 -15z m60 0
c0 -8 -9 -15 -20 -15 -11 0 -20 7 -20 15 0 8 9 15 20 15 11 0 20 -7 20 -15z
m-60 -50 c0 -9 -9 -15 -25 -15 -16 0 -25 6 -25 15 0 9 9 15 25 15 16 0 25 -6
25 -15z m60 0 c0 -8 -9 -15 -20 -15 -11 0 -20 7 -20 15 0 8 9 15 20 15 11 0
20 -7 20 -15z"/>
<path d="M11220 1880 c0 -6 33 -10 80 -10 47 0 80 4 80 10 0 6 -33 10 -80 10
-47 0 -80 -4 -80 -10z"/>
<path d="M10700 1855 c0 -12 -13 -15 -55 -15 -30 0 -55 -4 -55 -10 0 -5 25
-10 55 -10 l55 0 0 -45 c0 -33 -4 -45 -15 -45 -8 0 -15 -7 -15 -16 0 -10 7
-14 23 -12 19 3 22 10 25 61 3 53 5 57 27 57 14 0 25 5 25 10 0 6 -11 10 -25
10 -18 0 -23 4 -19 15 4 9 0 15 -10 15 -9 0 -16 -7 -16 -15z"/>
<path d="M11210 1765 c0 -37 4 -65 10 -65 6 0 10 5 10 10 0 6 30 10 70 10 40
0 70 -4 70 -10 0 -5 6 -10 13 -10 8 0 12 20 12 65 l0 65 -92 0 -93 0 0 -65z
m160 10 l0 -35 -70 0 -70 0 0 35 0 35 70 0 70 0 0 -35z"/>
<path d="M10610 1792 c0 -14 36 -43 43 -35 4 3 0 15 -10 25 -17 19 -33 24 -33
10z"/>
<path d="M882 1368 c-47 -51 -34 -183 21 -202 46 -17 81 9 85 63 2 30 -2 49
-14 62 -19 21 -64 25 -82 7 -9 -9 -12 -7 -12 11 0 52 46 81 78 49 17 -17 28
-2 12 17 -18 22 -63 18 -88 -7z m76 -90 c17 -17 15 -73 -2 -88 -24 -19 -59 -8
-74 23 -12 24 -11 31 2 53 18 26 54 32 74 12z"/>
<path d="M2480 1296 c0 -90 1 -96 26 -115 46 -36 105 -27 129 20 17 31 21 189
6 189 -5 0 -11 -41 -13 -91 -3 -100 -15 -119 -69 -119 -48 0 -59 22 -59 121 0
53 -4 89 -10 89 -6 0 -10 -38 -10 -94z"/>
<path d="M2950 1296 c0 -90 1 -96 26 -115 46 -36 105 -27 129 20 17 31 21 189
6 189 -5 0 -11 -41 -13 -91 -3 -100 -15 -119 -69 -119 -48 0 -59 22 -59 121 0
53 -4 89 -10 89 -6 0 -10 -38 -10 -94z"/>
<path d="M2713 1323 c-14 -5 -18 -33 -5 -33 4 0 13 5 19 11 18 18 58 7 61 -18
3 -20 -1 -23 -32 -23 -37 0 -76 -28 -76 -53 0 -37 71 -62 98 -35 9 9 12 9 12
0 0 -7 5 -12 10 -12 6 0 10 32 10 75 0 63 -3 76 -19 85 -20 10 -57 12 -78 3z
m77 -101 c0 -24 -19 -42 -45 -42 -31 0 -46 19 -34 42 14 25 79 26 79 0z"/>
<path d="M2870 1315 c0 -8 5 -15 10 -15 6 0 10 7 10 15 0 8 -4 15 -10 15 -5 0
-10 -7 -10 -15z"/>
<path d="M3180 1303 c-18 -22 -21 -37 -17 -72 3 -27 12 -50 23 -58 26 -19 68
-16 89 7 23 25 12 39 -13 17 -40 -36 -82 -11 -82 48 0 57 49 88 80 50 14 -17
30 -20 30 -6 0 19 -32 41 -60 41 -19 0 -36 -9 -50 -27z"/>
<path d="M2873 1155 c3 -46 17 -46 17 0 0 19 -4 35 -9 35 -5 0 -9 -16 -8 -35z"/>
<path d="M4880 1400 c0 -36 -2 -40 -25 -40 -14 0 -25 -4 -25 -10 0 -5 11 -10
25 -10 22 0 25 -4 25 -33 0 -26 -6 -36 -25 -45 -14 -6 -25 -16 -25 -22 0 -13
6 -13 31 0 18 10 19 7 19 -39 0 -37 -4 -53 -17 -60 -10 -5 -14 -13 -10 -17 4
-5 16 -3 25 2 12 8 18 28 20 75 2 43 8 66 18 72 19 11 18 28 -1 21 -11 -5 -15
1 -15 20 0 16 6 26 15 26 8 0 15 5 15 10 0 6 -7 10 -15 10 -11 0 -15 11 -15
40 0 22 -4 40 -10 40 -5 0 -10 -18 -10 -40z"/>
<path d="M5015 1410 c18 -20 17 -20 -28 -20 -46 0 -47 -1 -47 -30 0 -19 5 -30
14 -30 9 0 12 7 9 20 -5 19 0 20 66 20 64 0 71 -2 71 -20 0 -11 5 -20 10 -20
6 0 10 14 10 30 0 29 -2 30 -42 30 -23 0 -38 3 -35 7 10 9 -13 33 -31 33 -13
0 -12 -3 3 -20z"/>
<path d="M5330 1425 c0 -3 9 -23 20 -45 27 -53 89 -115 102 -102 7 7 -3 22
-30 46 -22 20 -47 52 -56 71 -14 30 -36 48 -36 30z"/>
<path d="M5235 1370 c-14 -27 -36 -57 -50 -66 -14 -9 -25 -20 -25 -25 0 -14
26 -11 39 4 6 8 23 12 41 9 24 -3 30 -9 30 -29 0 -33 -24 -77 -56 -102 -32
-25 -23 -48 10 -26 25 17 62 82 71 128 5 23 10 27 41 27 l35 0 -3 -62 c-3 -61
-4 -63 -31 -66 -16 -2 -27 -8 -24 -15 6 -19 32 -19 55 0 17 15 21 32 24 88 l3
70 -82 3 c-46 2 -83 4 -83 6 0 2 11 24 25 47 27 48 30 59 15 59 -5 0 -21 -22
-35 -50z"/>
<path d="M4966 1303 c-39 -46 -24 -55 20 -11 25 24 32 37 22 40 -7 3 -26 -10
-42 -29z"/>
<path d="M5050 1322 c0 -14 49 -56 57 -49 3 4 -4 18 -17 32 -24 25 -40 32 -40
17z"/>
<path d="M4960 1240 c0 -5 14 -10 30 -10 28 0 30 -3 30 -35 0 -35 0 -35 -45
-35 -25 0 -45 -4 -45 -10 0 -6 40 -10 100 -10 60 0 100 4 100 10 0 6 -20 10
-45 10 -45 0 -45 0 -45 35 0 32 2 35 29 35 17 0 33 5 36 10 4 6 -22 10 -69 10
-44 0 -76 -4 -76 -10z"/>
<path d="M7737 1434 c-4 -4 5 -21 20 -38 l26 -31 -51 -3 c-29 -2 -52 -7 -52
-13 0 -12 197 -12 205 1 4 6 -13 10 -44 10 -37 0 -49 3 -45 13 5 15 -49 71
-59 61z"/>
<path d="M7362 1385 c-18 -26 -48 -53 -69 -62 -21 -10 -40 -18 -42 -20 -1 -1
0 -7 4 -13 9 -15 81 27 116 70 l29 35 15 -23 c25 -35 104 -85 123 -77 13 5 7
12 -29 30 -44 23 -99 76 -99 96 0 20 -18 7 -48 -36z"/>
<path d="M7641 1385 c-11 -25 -29 -59 -41 -74 -16 -24 -17 -30 -6 -34 8 -3 21
4 30 16 14 20 15 14 15 -81 1 -66 5 -101 11 -97 6 4 10 59 10 133 0 96 4 133
15 148 14 20 11 34 -6 34 -5 0 -17 -20 -28 -45z"/>
<path d="M7811 1258 c-20 -96 -23 -100 -87 -96 -30 1 -54 0 -54 -4 0 -5 53 -7
118 -6 64 1 96 3 70 5 -27 2 -48 5 -48 6 0 1 9 34 20 72 24 83 24 85 7 85 -8
0 -18 -24 -26 -62z"/>
<path d="M7320 1300 c0 -6 33 -10 80 -10 47 0 80 4 80 10 0 6 -33 10 -80 10
-47 0 -80 -4 -80 -10z"/>
<path d="M7712 1299 c2 -8 10 -35 17 -61 8 -29 19 -48 28 -48 15 0 14 4 -12
79 -11 33 -42 60 -33 30z"/>
<path d="M7310 1185 c0 -37 4 -65 10 -65 6 0 10 5 10 10 0 6 32 10 75 10 43 0
75 -4 75 -10 0 -5 5 -10 10 -10 6 0 10 28 10 65 l0 65 -95 0 -95 0 0 -65z
m170 10 l0 -35 -75 0 -75 0 0 35 0 35 75 0 75 0 0 -35z"/>
<path d="M10885 1592 c-4 -20 -15 -54 -25 -74 -21 -44 -3 -55 20 -13 9 18 22
25 42 25 24 0 28 -4 28 -27 -1 -16 -7 -41 -14 -58 l-13 -30 -13 38 c-8 20 -18
37 -22 37 -12 0 -10 -16 8 -58 l15 -37 -33 -30 -33 -29 -3 67 c-3 64 -4 67
-27 67 -21 0 -25 5 -25 30 0 28 3 30 35 30 19 0 35 5 35 10 0 6 -16 10 -36 10
-35 0 -36 1 -32 35 3 24 0 35 -9 35 -8 0 -13 -13 -13 -35 0 -32 -2 -35 -29
-35 -17 0 -33 -4 -36 -10 -4 -6 8 -10 29 -10 33 0 36 -2 36 -30 0 -23 -4 -30
-20 -30 -18 0 -20 -7 -20 -70 0 -40 4 -70 10 -70 6 0 10 7 10 15 0 17 69 22
71 5 1 -5 2 -15 3 -22 2 -23 23 -18 62 16 l39 34 34 -28 c20 -17 40 -26 49
-22 13 4 11 8 -8 21 -61 41 -62 42 -46 86 8 22 17 52 21 68 3 15 12 27 20 27
8 0 15 5 15 10 0 6 -25 10 -55 10 -58 0 -61 3 -46 43 7 19 6 27 -4 30 -9 4
-15 -6 -20 -31z m-65 -177 c0 -33 -2 -35 -35 -35 -33 0 -35 2 -35 35 0 33 2
35 35 35 33 0 35 -2 35 -35z"/>
<path d="M9590 1580 l0 -40 -49 0 c-28 0 -53 -4 -56 -10 -4 -6 15 -10 50 -10
l56 0 -3 -87 c-3 -82 -5 -88 -25 -91 -13 -2 -20 -8 -17 -17 4 -9 14 -11 32 -6
27 7 27 9 30 104 3 96 3 97 27 97 14 0 25 5 25 10 0 6 -11 10 -25 10 -22 0
-25 4 -25 40 0 22 -4 40 -10 40 -5 0 -10 -18 -10 -40z"/>
<path d="M10170 1590 c0 -30 -1 -30 -55 -30 l-55 0 0 -125 c0 -77 4 -125 10
-125 6 0 10 45 10 115 l0 115 45 0 c39 0 45 -3 45 -20 0 -34 -26 -85 -54 -107
-19 -16 -22 -22 -12 -26 18 -7 39 10 64 51 l19 32 27 -41 c19 -28 31 -38 38
-31 11 11 -15 55 -47 82 -8 7 -15 23 -15 37 0 23 3 24 48 21 l47 -3 3 -75 c4
-100 -2 -120 -34 -120 -31 0 -28 -23 3 -28 43 -6 53 21 53 139 l0 109 -61 0
-61 0 6 30 c4 22 2 30 -9 30 -10 0 -15 -10 -15 -30z"/>
<path d="M11210 1614 c0 -4 8 -13 18 -20 15 -12 11 -13 -30 -14 -27 0 -48 -5
-48 -11 0 -6 8 -8 18 -5 13 4 18 0 19 -14 1 -16 -4 -20 -28 -20 -29 0 -30 1
-23 35 l6 35 -41 0 -41 0 0 -150 c0 -93 4 -150 10 -150 6 0 10 53 10 140 0
136 1 140 21 140 15 0 19 -4 15 -16 -14 -36 -18 -92 -7 -98 17 -11 14 -56 -4
-56 -9 0 -12 -6 -9 -15 5 -11 10 -12 26 -4 20 11 21 30 3 99 l-6 25 116 -3
c81 -2 115 0 110 7 -3 6 -22 11 -41 11 -32 0 -33 1 -22 20 7 11 18 18 25 16 7
-3 15 -1 18 4 4 6 -8 10 -27 10 -22 0 -37 7 -46 20 -11 18 -42 28 -42 14z m50
-59 c0 -21 -27 -30 -45 -15 -23 19 -18 30 15 30 20 0 30 -5 30 -15z"/>
<path d="M11920 1570 c0 -49 -1 -50 -30 -50 l-31 0 3 -72 c2 -40 7 -73 12 -73
5 0 9 28 7 63 l-2 62 50 0 51 0 0 -60 c0 -33 4 -60 10 -60 6 0 10 30 10 70 l0
70 -31 0 c-31 0 -31 0 -27 50 2 35 -1 50 -9 50 -9 0 -13 -17 -13 -50z"/>
<path d="M12230 1607 c0 -19 52 -98 84 -126 18 -17 29 -22 37 -14 7 7 -1 18
-24 36 -18 14 -44 46 -58 71 -24 45 -39 58 -39 33z"/>
<path d="M12448 1614 c-6 -9 24 -54 36 -54 11 0 6 18 -12 41 -11 12 -21 18
-24 13z"/>
<path d="M11430 1603 c1 -15 39 -58 46 -51 8 9 -22 58 -36 58 -6 0 -10 -3 -10
-7z"/>
<path d="M11770 1598 c0 -6 -11 -26 -26 -45 -19 -24 -21 -33 -10 -33 8 0 18 5
21 10 3 6 26 10 51 10 24 0 44 5 44 10 0 6 -16 10 -35 10 -34 0 -46 12 -25 25
15 9 12 25 -5 25 -8 0 -15 -5 -15 -12z"/>
<path d="M12146 1584 c-4 -14 -25 -45 -48 -70 -44 -48 -45 -73 -2 -33 27 25
84 107 84 121 0 20 -29 5 -34 -18z"/>
<path d="M9710 1455 c0 -90 4 -145 10 -145 6 0 10 52 10 135 l0 135 25 0 25 0
-19 -38 c-19 -37 -19 -38 0 -61 26 -32 25 -71 -1 -71 -21 0 -27 -15 -10 -25
14 -9 48 12 55 35 4 13 -1 34 -14 56 l-21 35 20 39 c11 22 20 42 20 45 0 3
-22 5 -50 5 l-50 0 0 -145z"/>
<path d="M9820 1455 c0 -80 2 -145 5 -145 3 0 21 10 40 23 35 22 48 44 20 33
-8 -3 -22 -9 -30 -12 -12 -5 -15 4 -15 50 0 47 3 56 18 56 12 0 23 -13 31 -36
17 -47 81 -118 94 -105 6 6 -3 21 -24 40 l-34 31 30 25 c37 31 26 44 -13 16
-26 -18 -31 -19 -36 -5 -11 28 -7 34 24 34 l30 0 0 70 0 70 -70 0 -70 0 0
-145z m120 105 c0 -17 -7 -20 -50 -20 -43 0 -50 3 -50 20 0 17 7 20 50 20 43
0 50 -3 50 -20z m0 -60 c0 -17 -7 -20 -50 -20 -43 0 -50 3 -50 20 0 17 7 20
50 20 43 0 50 -3 50 -20z"/>
<path d="M10410 1590 c0 -5 21 -10 46 -10 l45 0 -3 -37 -3 -38 -57 -3 c-74 -4
-76 -22 -3 -22 30 0 55 -2 55 -5 0 -20 -45 -88 -76 -113 -26 -21 -32 -32 -23
-38 17 -10 105 86 114 126 12 54 25 31 25 -44 l0 -73 30 -6 c56 -12 110 12
110 47 0 13 -28 5 -34 -9 -3 -10 -19 -15 -46 -15 l-40 0 0 65 0 65 60 0 c33 0
60 4 60 10 0 6 -32 10 -75 10 l-75 0 0 40 0 40 60 0 c33 0 60 4 60 10 0 6 -45
10 -115 10 -70 0 -115 -4 -115 -10z"/>
<path d="M11850 1589 c0 -19 37 -55 47 -45 4 3 -5 19 -20 34 -20 19 -27 22
-27 11z"/>
<path d="M11978 1570 c-9 -16 -13 -32 -9 -34 10 -6 52 50 44 58 -11 11 -18 6
-35 -24z"/>
<path d="M12520 1590 c0 -6 27 -10 65 -10 l65 0 0 -119 c0 -116 -1 -120 -22
-124 -21 -3 -22 -4 -4 -12 11 -5 25 -4 35 2 13 9 16 31 16 139 l0 129 -77 3
c-49 2 -78 -1 -78 -8z"/>
<path d="M9370 1465 c0 -104 2 -125 15 -125 8 0 14 6 13 12 -5 21 42 21 57 1
8 -10 15 -16 15 -13 1 3 2 60 3 128 l2 122 -52 0 -53 0 0 -125z m80 65 c0 -38
-2 -40 -30 -40 -28 0 -30 2 -30 40 0 38 2 40 30 40 28 0 30 -2 30 -40z m0
-100 c0 -38 -2 -40 -30 -40 -28 0 -30 2 -30 40 0 38 2 40 30 40 28 0 30 -2 30
-40z"/>
<path d="M11510 1580 c0 -6 30 -10 70 -10 l70 0 0 -120 c0 -113 -1 -120 -20
-120 -11 0 -20 -4 -20 -10 0 -14 33 -13 48 2 8 8 12 54 12 140 l0 128 -80 0
c-47 0 -80 -4 -80 -10z"/>
<path d="M12426 1438 c1 -68 5 -123 10 -123 5 0 10 55 12 123 2 94 0 122 -10
122 -10 0 -13 -29 -12 -122z"/>
<path d="M11410 1430 c0 -73 4 -120 10 -120 6 0 10 47 10 120 0 73 -4 120 -10
120 -6 0 -10 -47 -10 -120z"/>
<path d="M11550 1525 c0 -23 -3 -25 -50 -25 -27 0 -50 -4 -50 -10 0 -5 16 -10
35 -10 19 0 35 -3 35 -7 0 -17 -40 -73 -61 -83 -15 -8 -18 -15 -10 -23 14 -14
36 6 73 62 l28 45 0 -57 c0 -44 -3 -57 -15 -57 -8 0 -15 -7 -15 -15 0 -8 6
-15 13 -15 26 0 37 25 37 87 l0 63 30 0 c17 0 30 5 30 10 0 6 -13 10 -30 10
-25 0 -30 4 -30 25 0 14 -4 25 -10 25 -5 0 -10 -11 -10 -25z"/>
<path d="M12470 1470 l0 -60 35 0 c34 0 35 -1 35 -40 0 -22 5 -40 10 -40 6 0
10 18 10 40 0 39 1 40 35 40 l35 0 0 60 0 60 -80 0 -80 0 0 -60z m70 25 c0 -9
-9 -15 -25 -15 -16 0 -25 6 -25 15 0 9 9 15 25 15 16 0 25 -6 25 -15z m70 0
c0 -9 -9 -15 -25 -15 -16 0 -25 6 -25 15 0 9 9 15 25 15 16 0 25 -6 25 -15z
m-70 -50 c0 -9 -9 -15 -25 -15 -16 0 -25 6 -25 15 0 9 9 15 25 15 16 0 25 -6
25 -15z m70 0 c0 -9 -9 -15 -25 -15 -16 0 -25 6 -25 15 0 9 9 15 25 15 16 0
25 -6 25 -15z"/>
<path d="M9188 1515 c-3 -4 9 -43 27 -88 35 -87 34 -114 -6 -124 -10 -3 -19
-9 -19 -14 0 -16 36 -10 53 9 21 24 90 198 84 214 -4 11 -19 -16 -59 -112 -9
-24 -11 -22 -34 40 -26 67 -36 84 -46 75z"/>
<path d="M11745 1500 c-3 -5 3 -10 14 -10 16 0 21 -6 21 -25 0 -20 -5 -25 -25
-25 -14 0 -25 -4 -25 -10 0 -5 12 -10 26 -10 26 0 26 -2 22 -45 -3 -25 -1 -45
4 -45 18 0 58 33 58 48 0 13 -3 12 -20 -3 -20 -18 -20 -17 -20 13 0 27 4 32
25 32 14 0 25 5 25 10 0 6 -11 10 -25 10 -20 0 -25 5 -25 25 0 18 5 25 20 25
11 0 20 5 20 10 0 6 -20 10 -44 10 -25 0 -48 -4 -51 -10z"/>
<path d="M12120 1490 c0 -5 11 -10 25 -10 18 0 25 -5 25 -20 0 -38 -29 -90
-60 -108 -31 -18 -36 -27 -21 -36 14 -9 72 44 87 81 8 18 14 44 14 58 0 23 4
25 40 25 l40 0 0 -42 c0 -68 -9 -88 -37 -88 -15 0 -23 -5 -21 -12 7 -19 31
-21 53 -4 16 11 20 29 23 90 l4 76 -86 0 c-51 0 -86 -4 -86 -10z"/>
<path d="M9507 1484 c-8 -9 27 -64 41 -64 10 0 9 7 -3 29 -16 32 -29 44 -38
35z"/>
<path d="M11160 1440 l0 -50 35 0 c19 0 35 -4 35 -10 0 -5 -22 -10 -50 -10
-27 0 -50 -4 -50 -10 0 -5 23 -10 50 -10 47 0 50 -2 50 -25 0 -14 5 -25 10
-25 6 0 10 11 10 25 0 23 3 25 50 25 28 0 50 5 50 10 0 6 -22 10 -50 10 -27 0
-50 5 -50 10 0 6 15 10 33 10 32 0 32 0 32 50 l0 50 -77 0 -78 0 0 -50z m130
20 c0 -5 -25 -10 -55 -10 -30 0 -55 5 -55 10 0 6 25 10 55 10 30 0 55 -4 55
-10z m0 -40 c0 -5 -25 -10 -55 -10 -30 0 -55 5 -55 10 0 6 25 10 55 10 30 0
55 -4 55 -10z"/>
<path d="M11910 1426 c0 -37 -5 -48 -31 -70 -17 -14 -36 -26 -42 -26 -8 0 -8
-3 0 -11 8 -8 19 -7 40 6 39 23 52 46 60 100 5 38 3 45 -11 45 -12 0 -16 -10
-16 -44z"/>
<path d="M11946 1372 c-2 -4 10 -20 29 -35 38 -30 57 -21 22 10 -31 28 -45 35
-51 25z"/>
<path d="M9351 1209 c-46 -76 -46 -196 0 -260 30 -42 35 -29 8 23 -30 58 -30
145 -1 212 26 58 22 72 -7 25z"/>
<path d="M9465 1186 c-14 -29 -25 -56 -25 -59 0 -4 14 -7 31 -7 l31 0 -26 -34
c-36 -48 -34 -58 12 -51 51 9 62 13 62 23 0 5 -13 7 -30 4 -16 -2 -30 -2 -30
2 0 3 14 29 31 57 23 36 29 53 21 61 -8 8 -14 4 -23 -15 -7 -15 -20 -27 -31
-27 -24 0 -23 10 6 53 19 28 21 37 10 41 -9 4 -22 -12 -39 -48z"/>
<path d="M9630 1210 c0 -28 -3 -30 -35 -30 -19 0 -35 -4 -35 -10 0 -5 16 -10
35 -10 31 0 35 -3 35 -25 0 -21 -5 -25 -30 -25 -16 0 -30 -4 -30 -10 0 -6 32
-10 75 -10 43 0 75 4 75 10 0 6 -16 10 -35 10 -31 0 -35 3 -35 25 0 23 4 25
45 25 25 0 45 5 45 10 0 6 -20 10 -45 10 -46 0 -53 7 -35 41 9 16 7 19 -10 19
-16 0 -20 -6 -20 -30z"/>
<path d="M9920 1220 c0 -18 -7 -20 -70 -20 -40 0 -70 -4 -70 -10 0 -6 30 -10
70 -10 56 0 70 -3 70 -15 0 -11 -12 -15 -45 -15 l-45 0 0 -45 c0 -43 1 -45 30
-45 27 0 29 -2 19 -18 -7 -11 -31 -32 -55 -48 -25 -17 -39 -33 -34 -38 11 -11
47 12 94 60 l36 37 0 -61 c0 -35 4 -62 10 -62 6 0 10 27 10 61 l0 62 50 -47
c27 -25 55 -46 63 -46 32 0 24 15 -22 41 -60 35 -73 59 -31 59 29 0 30 2 30
45 l0 45 -45 0 c-33 0 -45 4 -45 15 0 12 14 15 65 15 37 0 65 4 65 10 0 6 -28
10 -65 10 -58 0 -65 2 -65 20 0 11 -4 20 -10 20 -5 0 -10 -9 -10 -20z m0 -115
c0 -22 -4 -25 -35 -25 -31 0 -35 3 -35 25 0 22 4 25 35 25 31 0 35 -3 35 -25z
m90 0 c0 -22 -4 -25 -35 -25 -31 0 -35 3 -35 25 0 22 4 25 35 25 31 0 35 -3
35 -25z"/>
<path d="M10340 1200 l0 -40 -50 0 c-27 0 -50 -4 -50 -10 0 -5 23 -10 50 -10
l50 0 0 -90 c0 -85 -1 -90 -21 -90 -12 0 -19 -5 -16 -12 5 -17 39 -11 55 10 7
10 12 48 12 99 0 76 2 83 20 83 11 0 20 5 20 10 0 6 -9 10 -20 10 -17 0 -20 7
-20 40 0 29 -4 40 -15 40 -11 0 -15 -11 -15 -40z"/>
<path d="M10490 1232 c0 -14 46 -53 53 -45 4 3 -3 17 -15 30 -22 23 -38 30
-38 15z"/>
<path d="M11520 1200 l0 -40 -49 0 c-28 0 -53 -4 -56 -10 -4 -6 15 -10 50 -10
l56 0 -3 -87 c-3 -82 -5 -88 -25 -91 -13 -2 -20 -8 -17 -17 4 -9 14 -11 32 -6
27 7 27 9 30 104 3 96 3 97 27 97 14 0 25 5 25 10 0 6 -11 10 -25 10 -22 0
-25 4 -25 40 0 22 -4 40 -10 40 -5 0 -10 -18 -10 -40z"/>
<path d="M12537 1191 c18 -37 25 -66 25 -111 0 -45 -7 -74 -25 -111 -28 -58
-12 -61 20 -3 32 55 32 162 1 224 -13 24 -28 46 -34 47 -6 2 0 -19 13 -46z"/>
<path d="M10580 1210 c0 -6 28 -10 65 -10 l65 0 0 -120 c0 -116 -1 -121 -22
-129 -20 -8 -21 -10 -5 -16 42 -17 47 -3 47 145 l0 140 -75 0 c-43 0 -75 -4
-75 -10z"/>
<path d="M11640 1075 c0 -90 4 -145 10 -145 6 0 10 52 10 135 l0 135 25 0 25
0 -19 -38 c-19 -37 -19 -38 0 -61 26 -32 25 -71 -1 -71 -21 0 -27 -15 -10 -25
14 -9 48 12 55 35 4 13 -1 34 -14 56 l-21 35 20 39 c11 22 20 42 20 45 0 3
-22 5 -50 5 l-50 0 0 -145z"/>
<path d="M11750 1075 c0 -80 2 -145 5 -145 3 0 21 10 40 23 35 22 48 44 20 33
-8 -3 -22 -9 -30 -12 -12 -5 -15 4 -15 50 0 47 3 56 18 56 12 0 23 -13 31 -36
17 -47 81 -118 94 -105 6 6 -3 21 -24 40 l-34 31 30 25 c37 31 26 44 -13 16
-26 -18 -31 -19 -36 -5 -11 28 -7 34 24 34 l30 0 0 70 0 70 -70 0 -70 0 0
-145z m120 105 c0 -17 -7 -20 -50 -20 -43 0 -50 3 -50 20 0 17 7 20 50 20 43
0 50 -3 50 -20z m0 -60 c0 -17 -7 -20 -50 -20 -43 0 -50 3 -50 20 0 17 7 20
50 20 43 0 50 -3 50 -20z"/>
<path d="M10130 1085 c0 -77 4 -125 10 -125 6 0 10 7 10 15 0 10 10 15 30 15
20 0 30 -5 30 -15 0 -8 5 -15 10 -15 6 0 10 48 10 125 l0 125 -50 0 -50 0 0
-125z m80 65 c0 -38 -2 -40 -30 -40 -28 0 -30 2 -30 40 0 38 2 40 30 40 28 0
30 -2 30 -40z m0 -100 c0 -38 -2 -40 -30 -40 -28 0 -30 2 -30 40 0 38 2 40 30
40 28 0 30 -2 30 -40z"/>
<path d="M11300 1085 c0 -104 2 -125 15 -125 8 0 14 6 13 12 -5 21 42 21 57 1
8 -10 15 -16 15 -13 1 3 2 60 3 128 l2 122 -52 0 -53 0 0 -125z m80 65 c0 -38
-2 -40 -30 -40 -28 0 -30 2 -30 40 0 38 2 40 30 40 28 0 30 -2 30 -40z m0
-100 c0 -38 -2 -40 -30 -40 -28 0 -30 2 -30 40 0 38 2 40 30 40 28 0 30 -2 30
-40z"/>
<path d="M12228 1182 c-28 -17 -36 -32 -19 -32 6 0 13 5 16 10 17 27 25 2 25
-80 0 -89 0 -90 -24 -90 -14 0 -28 -4 -31 -10 -4 -6 18 -10 59 -10 37 0 66 4
66 10 0 6 -11 10 -25 10 l-25 0 0 105 c0 58 -3 105 -7 105 -5 0 -20 -8 -35
-18z"/>
<path d="M10470 1055 c0 -104 2 -125 15 -125 13 0 15 21 15 125 0 104 -2 125
-15 125 -13 0 -15 -21 -15 -125z"/>
<path d="M10830 1156 c0 -9 7 -16 16 -16 17 0 14 22 -4 28 -7 2 -12 -3 -12
-12z"/>
<path d="M12050 1125 c0 -33 -2 -35 -35 -35 -19 0 -35 -4 -35 -10 0 -5 16 -10
35 -10 33 0 35 -2 35 -35 0 -19 5 -35 10 -35 6 0 10 16 10 35 0 33 2 35 35 35
19 0 35 5 35 10 0 6 -16 10 -35 10 -33 0 -35 2 -35 35 0 19 -4 35 -10 35 -5 0
-10 -16 -10 -35z"/>
<path d="M10540 1070 l0 -70 60 0 60 0 0 70 0 70 -60 0 -60 0 0 -70z m100 35
c0 -22 -4 -25 -40 -25 -32 0 -40 4 -40 18 0 26 9 32 47 32 29 0 33 -3 33 -25z
m0 -71 c0 -23 -3 -25 -37 -22 -31 2 -39 7 -41 26 -3 20 1 22 37 22 37 0 41 -2
41 -26z"/>
<path d="M12378 1129 c-21 -12 -24 -52 -5 -66 6 -6 26 -15 42 -20 40 -13 47
-50 10 -59 -18 -4 -32 -1 -45 11 -11 10 -23 15 -28 11 -9 -10 35 -46 57 -46
29 0 61 30 61 56 0 20 -9 29 -46 44 -33 14 -45 25 -42 37 4 21 47 30 58 13 4
-7 13 -11 20 -8 9 3 8 9 -4 21 -19 19 -52 22 -78 6z"/>
<path d="M10267 1104 c-8 -9 21 -64 33 -64 13 0 13 6 -5 40 -17 32 -18 33 -28
24z"/>
<path d="M11437 1104 c-8 -9 27 -64 41 -64 10 0 9 7 -3 29 -16 32 -29 44 -38
35z"/>
<path d="M9580 995 c0 -37 4 -65 10 -65 6 0 10 7 10 15 0 22 86 21 94 -1 12
-31 21 -4 18 55 l-4 61 -64 0 -64 0 0 -65z m110 10 c0 -35 0 -35 -45 -35 -45
0 -45 0 -45 35 0 35 0 35 45 35 45 0 45 0 45 -35z"/>
<path d="M10830 995 c0 -9 5 -15 11 -13 6 2 11 8 11 13 0 5 -5 11 -11 13 -6 2
-11 -4 -11 -13z"/>
<path d="M9486 986 c-36 -11 -62 -36 -39 -36 21 0 103 33 103 41 0 11 -15 10
-64 -5z"/>
<path d="M850 620 c0 -6 27 -10 60 -10 l61 0 -25 -42 c-21 -38 -56 -136 -56
-160 0 -4 7 -8 15 -8 10 0 15 10 15 33 0 18 16 65 35 106 19 40 35 77 35 82 0
5 -31 9 -70 9 -40 0 -70 -4 -70 -10z"/>
<path d="M2312 534 c3 -86 5 -98 27 -115 31 -25 82 -24 115 2 25 19 26 25 26
115 0 56 -4 94 -10 94 -6 0 -10 -36 -10 -89 0 -99 -11 -121 -59 -121 -54 0
-66 19 -69 119 -2 52 -8 91 -14 91 -6 0 -9 -37 -6 -96z"/>
<path d="M2780 540 c0 -83 2 -93 25 -115 33 -34 87 -34 120 0 23 22 25 32 25
115 0 53 -4 90 -10 90 -6 0 -10 -34 -10 -83 0 -100 -14 -127 -65 -127 -51 0
-65 27 -65 127 0 49 -4 83 -10 83 -6 0 -10 -37 -10 -90z"/>
<path d="M3230 515 c0 -70 4 -115 10 -115 6 0 10 45 10 115 0 70 -4 115 -10
115 -6 0 -10 -45 -10 -115z"/>
<path d="M2540 555 c-16 -19 -5 -34 12 -17 18 18 56 14 68 -7 15 -29 13 -31
-23 -31 -41 0 -77 -25 -77 -54 0 -42 45 -60 91 -36 13 7 19 7 19 0 0 -5 5 -10
10 -10 17 0 12 123 -6 148 -18 26 -75 30 -94 7z m90 -88 c0 -22 -37 -49 -62
-45 -26 3 -37 36 -16 49 21 14 78 11 78 -4z"/>
<path d="M2710 555 c0 -8 5 -15 10 -15 6 0 10 7 10 15 0 8 -4 15 -10 15 -5 0
-10 -7 -10 -15z"/>
<path d="M3014 549 c-43 -47 -13 -149 43 -149 32 0 63 17 63 35 0 19 -16 19
-24 0 -7 -20 -50 -19 -67 1 -7 9 -13 31 -13 49 0 18 6 40 13 49 17 20 60 21
67 1 8 -19 24 -19 24 0 0 36 -76 47 -106 14z"/>
<path d="M3160 555 c0 -8 5 -15 10 -15 6 0 10 7 10 15 0 8 -4 15 -10 15 -5 0
-10 -7 -10 -15z"/>
<path d="M3320 555 c-16 -19 -5 -34 12 -17 18 18 56 14 68 -7 15 -29 13 -31
-23 -31 -41 0 -77 -25 -77 -54 0 -42 45 -60 91 -36 13 7 19 7 19 0 0 -5 5 -10
10 -10 17 0 12 123 -6 148 -18 26 -75 30 -94 7z m90 -88 c0 -22 -37 -49 -62
-45 -26 3 -37 36 -16 49 21 14 78 11 78 -4z"/>
<path d="M2712 394 c0 -25 3 -33 9 -23 11 18 12 59 0 59 -5 0 -9 -16 -9 -36z"/>
<path d="M3162 394 c0 -25 3 -33 9 -23 11 18 12 59 0 59 -5 0 -9 -16 -9 -36z"/>
<path d="M5051 609 c-13 -11 -21 -22 -17 -26 3 -4 12 -1 18 5 23 23 28 11 28
-78 l0 -90 -30 0 c-16 0 -30 -4 -30 -10 0 -6 28 -10 65 -10 37 0 65 4 65 10 0
6 -11 10 -25 10 l-25 0 0 105 c0 113 -5 121 -49 84z"/>
<path d="M5186 557 c-33 -24 -17 -59 34 -77 33 -11 45 -21 45 -35 0 -15 -8
-21 -33 -23 -18 -2 -40 2 -48 9 -21 17 -28 5 -9 -15 34 -33 115 -14 115 28 0
28 -13 39 -63 56 -27 8 -37 17 -35 28 4 21 54 28 74 11 8 -6 18 -9 22 -5 11
12 -29 36 -58 36 -14 0 -34 -6 -44 -13z"/>
<path d="M7737 674 c-4 -4 5 -21 20 -38 l26 -31 -51 -3 c-29 -2 -52 -7 -52
-13 0 -12 197 -12 205 1 4 6 -13 10 -44 10 -37 0 -49 3 -45 13 5 15 -49 71
-59 61z"/>
<path d="M7362 625 c-18 -26 -48 -53 -69 -62 -21 -10 -40 -18 -42 -20 -1 -1 0
-7 4 -13 9 -15 81 27 116 70 l29 35 15 -23 c25 -35 104 -85 123 -77 13 5 7 12
-29 30 -44 23 -99 76 -99 96 0 20 -18 7 -48 -36z"/>
<path d="M7641 625 c-11 -25 -29 -59 -41 -74 -16 -24 -17 -30 -6 -34 8 -3 21
4 30 16 14 20 15 14 15 -81 1 -66 5 -101 11 -97 6 4 10 59 10 133 0 96 4 133
15 148 14 20 11 34 -6 34 -5 0 -17 -20 -28 -45z"/>
<path d="M7811 498 c-20 -96 -23 -100 -87 -96 -30 1 -54 0 -54 -4 0 -5 53 -7
118 -6 64 1 96 3 70 5 -27 2 -48 5 -48 6 0 1 9 34 20 72 24 83 24 85 7 85 -8
0 -18 -24 -26 -62z"/>
<path d="M7320 540 c0 -6 33 -10 80 -10 47 0 80 4 80 10 0 6 -33 10 -80 10
-47 0 -80 -4 -80 -10z"/>
<path d="M7712 539 c2 -8 10 -35 17 -61 8 -29 19 -48 28 -48 15 0 14 4 -12 79
-11 33 -42 60 -33 30z"/>
<path d="M7310 425 c0 -37 4 -65 10 -65 6 0 10 5 10 10 0 6 32 10 75 10 43 0
75 -4 75 -10 0 -5 5 -10 10 -10 6 0 10 28 10 65 l0 65 -95 0 -95 0 0 -65z
m170 10 l0 -35 -75 0 -75 0 0 35 0 35 75 0 75 0 0 -35z"/>
<path d="M10350 820 c0 -36 -2 -40 -25 -40 -14 0 -25 -4 -25 -10 0 -5 9 -10
21 -10 18 0 20 -4 15 -27 -4 -16 -16 -40 -26 -55 -23 -32 -24 -38 -7 -38 7 0
21 15 30 33 l16 32 0 -77 c1 -45 5 -78 11 -78 6 0 10 32 10 76 0 65 2 75 14
65 23 -19 28 4 6 24 -24 21 -26 45 -5 45 8 0 15 5 15 10 0 6 -7 10 -15 10 -11
0 -15 11 -15 40 0 22 -4 40 -10 40 -5 0 -10 -18 -10 -40z"/>
<path d="M10466 821 c-9 -22 -30 -51 -47 -65 -29 -24 -26 -42 5 -30 9 3 16 1
16 -5 0 -7 23 -11 60 -11 36 0 60 4 60 11 0 5 4 8 9 4 5 -3 12 -1 15 3 3 5
-15 30 -39 56 -25 25 -44 51 -42 57 1 6 -3 13 -9 15 -5 3 -18 -14 -28 -35z
m54 -43 c16 -18 30 -36 30 -40 0 -5 -25 -8 -56 -8 -31 0 -54 3 -52 8 8 15 43
72 46 72 1 0 16 -15 32 -32z"/>
<path d="M10773 838 c2 -21 -2 -23 -58 -24 -33 -1 -61 -5 -62 -10 -2 -4 21 -7
49 -5 52 3 52 2 35 -17 -10 -10 -37 -27 -60 -38 -53 -23 -50 -21 -42 -33 7
-12 51 7 102 45 40 30 47 30 39 -1 -5 -18 -2 -25 9 -25 9 0 15 9 15 26 l0 26
29 -24 c32 -28 89 -54 97 -45 10 10 -7 27 -26 27 -11 0 -34 14 -52 30 l-33 31
53 -3 c30 -2 52 1 52 7 0 6 -24 9 -60 7 -59 -4 -60 -3 -60 22 0 16 -6 26 -15
26 -9 0 -14 -8 -12 -22z"/>
<path d="M11510 810 c0 -49 -1 -50 -30 -50 l-30 0 0 -75 c0 -43 4 -75 10 -75
6 0 10 28 10 65 l0 65 50 0 50 0 0 -60 c0 -33 4 -60 10 -60 6 0 10 30 10 70
l0 70 -30 0 c-29 0 -30 1 -30 50 0 28 -4 50 -10 50 -5 0 -10 -22 -10 -50z"/>
<path d="M11027 820 c18 -31 33 -39 33 -17 -1 17 -25 47 -39 47 -8 0 -6 -10 6
-30z"/>
<path d="M11339 806 c-22 -35 -24 -46 -14 -59 7 -10 20 -17 29 -17 10 0 16 -8
16 -25 0 -20 -5 -25 -25 -25 -14 0 -25 -4 -25 -10 0 -5 12 -10 26 -10 26 0 27
-1 21 -45 -7 -51 3 -57 41 -26 27 24 28 35 2 28 -16 -4 -20 0 -20 19 0 19 5
24 25 24 14 0 25 5 25 10 0 6 -11 10 -25 10 -20 0 -25 5 -25 25 0 18 5 25 20
25 11 0 20 5 20 10 0 6 -23 10 -51 10 -45 0 -50 2 -39 15 8 9 30 15 56 15 24
0 44 5 44 10 0 6 -16 10 -35 10 -38 0 -40 2 -25 31 8 14 7 19 -2 19 -7 0 -25
-20 -39 -44z"/>
<path d="M11437 833 c-3 -4 5 -20 18 -35 15 -18 26 -24 31 -17 3 6 -5 22 -19
36 -13 14 -27 21 -30 16z"/>
<path d="M11566 813 c-13 -18 -15 -28 -7 -36 7 -7 11 -7 11 -1 0 6 9 20 20 31
13 15 15 23 7 26 -7 2 -20 -7 -31 -20z"/>
<path d="M11090 820 c0 -6 30 -10 70 -10 l70 0 0 -119 c0 -116 -1 -120 -22
-124 -20 -3 -21 -4 -5 -11 42 -19 47 -4 47 139 l0 135 -80 0 c-47 0 -80 -4
-80 -10z"/>
<path d="M10990 670 c0 -73 4 -120 10 -120 6 0 10 47 10 120 0 73 -4 120 -10
120 -6 0 -10 -47 -10 -120z"/>
<path d="M11130 765 c0 -23 -4 -25 -45 -25 -25 0 -45 -4 -45 -10 0 -5 16 -10
35 -10 l36 0 -15 -27 c-8 -16 -26 -39 -40 -52 -14 -13 -23 -28 -20 -33 8 -12
31 8 66 56 l28 39 0 -51 c0 -40 -4 -52 -15 -52 -17 0 -20 -16 -6 -24 5 -4 16
-3 25 0 13 5 16 21 16 75 l0 69 30 0 c17 0 30 5 30 10 0 6 -14 10 -31 10 -28
0 -31 2 -25 25 5 18 2 25 -9 25 -9 0 -15 -9 -15 -25z"/>
<path d="M10690 658 l0 -58 95 0 96 0 -3 56 -3 57 -93 1 -92 1 0 -57z m168 25
c3 -10 -16 -13 -72 -13 -62 0 -76 3 -76 15 0 13 12 15 72 13 46 -2 73 -7 76
-15z m0 -45 c-3 -9 -30 -14 -76 -16 -60 -2 -72 0 -72 13 0 12 14 15 76 15 56
0 75 -3 72 -12z"/>
<path d="M11500 671 c0 -42 -27 -86 -61 -96 -14 -5 -18 -10 -11 -17 12 -12 39
1 66 31 24 27 39 121 19 121 -8 0 -13 -13 -13 -39z"/>
<path d="M10467 692 c-3 -4 3 -22 12 -41 11 -20 21 -29 25 -23 4 6 0 25 -9 42
-16 31 -21 35 -28 22z"/>
<path d="M10420 672 c0 -15 25 -62 33 -62 12 0 7 34 -7 53 -14 18 -26 22 -26
9z"/>
<path d="M10529 633 l-15 -48 -57 -3 c-94 -5 -65 -22 38 -22 57 0 95 4 95 10
0 6 -13 10 -30 10 l-29 0 19 46 c24 54 24 54 7 54 -8 0 -20 -21 -28 -47z"/>
<path d="M11536 611 c-7 -11 48 -63 57 -54 12 11 8 19 -22 41 -17 12 -32 18
-35 13z"/>
<path d="M10635 570 c-4 -6 47 -10 144 -10 94 0 151 4 151 10 0 6 -55 10 -144
10 -86 0 -147 -4 -151 -10z"/>
<path d="M9361 449 c-46 -76 -46 -196 0 -260 30 -42 35 -29 8 23 -30 58 -30
145 -1 212 26 58 22 72 -7 25z"/>
<path d="M10010 445 l0 -35 -65 0 c-37 0 -65 -4 -65 -10 0 -6 28 -10 65 -10
l65 0 0 -70 c0 -63 -2 -70 -20 -70 -11 0 -20 -7 -20 -15 0 -18 31 -20 48 -3 7
7 12 42 12 85 0 71 1 73 25 73 14 0 25 5 25 10 0 6 -11 10 -25 10 -22 0 -25 4
-25 35 0 19 -4 35 -10 35 -5 0 -10 -16 -10 -35z"/>
<path d="M10523 468 l-33 -11 0 -104 c0 -83 -3 -105 -15 -109 -8 -4 -15 -10
-15 -15 0 -5 7 -9 15 -9 9 0 15 -9 15 -25 0 -14 5 -25 10 -25 6 0 10 13 10 30
0 26 5 31 40 40 22 6 40 15 40 20 0 12 -7 12 -48 1 -31 -9 -32 -9 -32 20 0 27
3 29 35 29 19 0 35 5 35 10 0 6 -16 10 -35 10 -31 0 -35 3 -35 25 0 22 4 25
36 25 21 0 33 4 29 10 -3 6 -19 10 -36 10 -24 0 -29 4 -29 24 0 20 6 24 40 30
23 4 38 11 35 16 -7 12 -19 11 -62 -2z"/>
<path d="M11030 440 l0 -40 -50 0 c-27 0 -50 -4 -50 -10 0 -5 23 -10 50 -10
l50 0 0 -90 c0 -85 -1 -90 -21 -90 -12 0 -19 -5 -16 -12 5 -17 39 -11 55 10 7
10 12 48 12 99 0 76 2 83 20 83 11 0 20 5 20 10 0 6 -9 10 -20 10 -17 0 -20 7
-20 40 0 29 -4 40 -15 40 -11 0 -15 -11 -15 -40z"/>
<path d="M11176 473 c-3 -3 6 -17 20 -30 27 -25 41 -25 31 1 -7 18 -42 38 -51
29z"/>
<path d="M12350 430 c0 -49 -1 -50 -30 -50 l-31 0 3 -72 c2 -40 7 -73 12 -73
5 0 9 28 7 63 l-2 62 50 0 51 0 0 -60 c0 -33 4 -60 10 -60 6 0 10 30 10 70 l0
70 -31 0 c-31 0 -31 0 -27 50 2 35 -1 50 -9 50 -9 0 -13 -17 -13 -50z"/>
<path d="M12510 477 c0 -4 10 -26 22 -49 39 -73 32 -160 -20 -260 -2 -5 0 -8
5 -8 17 0 54 79 60 128 7 59 -17 150 -47 177 -11 10 -20 15 -20 12z"/>
<path d="M9491 425 c-13 -25 -28 -45 -32 -45 -5 0 -9 -7 -9 -16 0 -13 7 -15
35 -11 19 3 35 4 35 2 0 -2 -14 -20 -31 -39 -17 -20 -28 -39 -25 -44 3 -6 24
-6 48 -1 24 4 46 8 51 9 4 0 7 5 7 11 0 8 -12 9 -37 4 -30 -5 -35 -4 -27 7 6
7 25 32 43 56 22 29 30 47 24 53 -7 7 -16 1 -27 -15 -9 -15 -25 -26 -36 -26
-26 0 -25 8 5 52 28 42 30 48 12 48 -6 0 -23 -20 -36 -45z"/>
<path d="M10620 435 c0 -21 -8 -43 -20 -55 -13 -13 -16 -21 -8 -26 17 -10 48
34 48 67 0 24 4 29 25 29 21 0 25 -5 25 -29 0 -47 10 -61 41 -61 34 0 39 17 7
22 -20 3 -23 9 -23 46 l0 42 -47 0 -48 0 0 -35z"/>
<path d="M11613 463 l-93 -4 0 -78 c0 -80 -12 -134 -37 -162 -12 -14 -12 -17
1 -22 23 -9 47 44 53 115 l6 58 118 0 c73 0 119 4 119 10 0 6 -47 10 -120 10
l-120 0 0 25 c0 25 1 25 88 25 48 0 97 3 109 6 28 8 20 25 -10 22 -12 -1 -64
-4 -114 -5z"/>
<path d="M11860 463 c1 -15 39 -58 46 -51 8 9 -22 58 -36 58 -6 0 -10 -3 -10
-7z"/>
<path d="M12200 458 c0 -6 -11 -26 -26 -45 -19 -24 -21 -33 -10 -33 8 0 18 5
21 10 3 6 26 10 51 10 24 0 44 5 44 10 0 6 -16 10 -35 10 -34 0 -46 12 -25 25
15 9 12 25 -5 25 -8 0 -15 -5 -15 -12z"/>
<path d="M9580 450 c0 -5 26 -10 57 -12 l58 -3 -39 -43 c-21 -23 -49 -45 -62
-48 -24 -6 -31 -19 -15 -28 5 -3 25 5 45 19 20 14 40 25 43 25 3 0 21 -11 38
-25 30 -22 45 -24 45 -4 0 4 -16 16 -36 28 l-35 21 20 29 c33 46 28 51 -49 51
-38 0 -70 -4 -70 -10z"/>
<path d="M9810 452 c0 -5 11 -19 24 -31 29 -27 47 -10 20 20 -17 19 -44 26
-44 11z"/>
<path d="M11270 450 c0 -6 28 -10 65 -10 l65 0 0 -121 c0 -112 -1 -121 -20
-126 -25 -7 -26 -23 -2 -23 37 0 42 20 42 157 l0 133 -75 0 c-43 0 -75 -4 -75
-10z"/>
<path d="M12280 449 c0 -19 37 -55 47 -45 4 3 -5 19 -20 34 -20 19 -27 22 -27
11z"/>
<path d="M12408 430 c-9 -16 -13 -32 -9 -34 10 -6 52 50 44 58 -11 11 -18 6
-35 -24z"/>
<path d="M10820 325 c0 -77 4 -125 10 -125 6 0 10 7 10 15 0 10 10 15 30 15
20 0 30 -5 30 -15 0 -8 5 -15 10 -15 6 0 10 48 10 125 l0 125 -50 0 -50 0 0
-125z m80 65 c0 -38 -2 -40 -30 -40 -28 0 -30 2 -30 40 0 38 2 40 30 40 28 0
30 -2 30 -40z m0 -100 c0 -38 -2 -40 -30 -40 -28 0 -30 2 -30 40 0 38 2 40 30
40 28 0 30 -2 30 -40z"/>
<path d="M11940 440 c0 -6 30 -10 70 -10 l70 0 0 -120 c0 -113 -1 -120 -20
-120 -11 0 -20 -4 -20 -10 0 -14 33 -13 48 2 8 8 12 54 12 140 l0 128 -80 0
c-47 0 -80 -4 -80 -10z"/>
<path d="M11160 295 c0 -77 4 -125 10 -125 6 0 10 43 10 109 0 60 3 116 6 125
4 11 1 16 -10 16 -14 0 -16 -17 -16 -125z"/>
<path d="M11840 290 c0 -73 4 -120 10 -120 6 0 10 47 10 120 0 73 -4 120 -10
120 -6 0 -10 -47 -10 -120z"/>
<path d="M11980 385 c0 -23 -3 -25 -50 -25 -27 0 -50 -4 -50 -10 0 -5 16 -10
35 -10 19 0 35 -3 35 -7 0 -17 -40 -73 -61 -83 -15 -8 -18 -15 -10 -23 14 -14
36 6 73 62 l28 45 0 -57 c0 -44 -3 -57 -15 -57 -8 0 -15 -7 -15 -15 0 -8 6
-15 13 -15 26 0 37 25 37 87 l0 63 30 0 c17 0 30 5 30 10 0 6 -13 10 -30 10
-25 0 -30 4 -30 25 0 14 -4 25 -10 25 -5 0 -10 -11 -10 -25z"/>
<path d="M11230 310 l0 -75 60 3 60 4 0 71 0 72 -60 0 -60 0 0 -75z m100 35
c0 -22 -4 -25 -40 -25 -36 0 -40 3 -40 25 0 23 4 25 40 25 36 0 40 -2 40 -25z
m0 -70 c0 -22 -4 -25 -40 -25 -36 0 -40 3 -40 25 0 23 4 25 40 25 36 0 40 -2
40 -25z"/>
<path d="M12175 360 c-3 -5 3 -10 14 -10 16 0 21 -6 21 -25 0 -20 -5 -25 -25
-25 -14 0 -25 -4 -25 -10 0 -5 12 -10 26 -10 26 0 26 -2 22 -45 -3 -25 -1 -45
4 -45 18 0 58 33 58 48 0 13 -3 12 -20 -3 -20 -18 -20 -17 -20 13 0 27 4 32
25 32 14 0 25 5 25 10 0 6 -11 10 -25 10 -20 0 -25 5 -25 25 0 18 5 25 20 25
11 0 20 5 20 10 0 6 -20 10 -44 10 -25 0 -48 -4 -51 -10z"/>
<path d="M9780 350 c0 -5 11 -10 25 -10 24 0 25 -3 25 -53 0 -48 -3 -55 -27
-66 -19 -9 -23 -15 -15 -23 9 -9 16 -7 31 6 18 17 21 16 60 -3 50 -26 195 -31
204 -7 4 11 -11 13 -81 12 -54 0 -99 4 -119 13 -32 13 -33 15 -33 77 l0 64
-35 0 c-19 0 -35 -4 -35 -10z"/>
<path d="M9910 343 c1 -10 36 -53 44 -53 13 0 5 28 -12 43 -20 18 -32 22 -32
10z"/>
<path d="M10957 344 c-8 -9 21 -64 33 -64 13 0 13 6 -5 40 -17 32 -18 33 -28
24z"/>
<path d="M10130 330 c0 -6 55 -10 145 -10 90 0 145 4 145 10 0 6 -55 10 -145
10 -90 0 -145 -4 -145 -10z"/>
<path d="M10590 320 c0 -5 6 -10 13 -10 7 0 21 -16 31 -35 19 -35 19 -36 0
-50 -10 -8 -29 -18 -41 -21 -13 -3 -23 -10 -23 -14 0 -20 19 -18 53 5 44 30
50 31 87 4 18 -14 35 -19 47 -15 15 7 12 11 -19 27 -49 25 -52 32 -28 71 11
18 20 36 20 41 0 4 -31 7 -70 7 -40 0 -70 -4 -70 -10z m104 -22 c-20 -35 -26
-39 -40 -21 -20 27 -17 33 17 33 21 0 28 -4 23 -12z"/>
<path d="M12340 286 c0 -37 -5 -48 -31 -70 -17 -14 -36 -26 -42 -26 -8 0 -8
-3 0 -11 8 -8 19 -7 40 6 39 23 52 46 60 100 5 38 3 45 -11 45 -12 0 -16 -10
-16 -44z"/>
<path d="M11570 250 c0 -40 4 -70 10 -70 6 0 10 5 10 10 0 6 28 10 65 10 37 0
65 -4 65 -10 0 -5 5 -10 10 -10 6 0 10 30 10 70 l0 70 -85 0 -85 0 0 -70z
m150 10 l0 -40 -65 0 -65 0 0 40 0 40 65 0 65 0 0 -40z"/>
<path d="M9590 290 c0 -5 14 -10 30 -10 28 0 30 -2 30 -41 l0 -41 -40 4 c-23
2 -40 -1 -40 -7 0 -6 35 -10 90 -10 53 0 90 4 90 10 0 6 -17 10 -37 10 -37 0
-38 1 -41 38 -3 35 -2 37 27 37 17 0 31 5 31 10 0 6 -30 10 -70 10 -40 0 -70
-4 -70 -10z"/>
<path d="M9507 225 c-55 -15 -62 -19 -53 -33 6 -10 102 21 121 39 12 12 -9 10
-68 -6z"/>
<path d="M12376 232 c-2 -4 10 -20 29 -35 38 -30 57 -21 22 10 -31 28 -45 35
-51 25z"/>
</g>
</svg>
