<?xml version="1.0" standalone="no"?>
<!DOCTYPE svg PUBLIC "-//W3C//DTD SVG 20010904//EN"
 "http://www.w3.org/TR/2001/REC-SVG-20010904/DTD/svg10.dtd">
<svg version="1.0" xmlns="http://www.w3.org/2000/svg"
 width="1308.000000pt" height="376.000000pt" viewBox="0 0 1308.000000 376.000000"
 preserveAspectRatio="xMidYMid meet">

<g transform="translate(0.000000,376.000000) scale(0.100000,-0.100000)"
fill="#000000" stroke="none">
<path d="M92 1895 l3 -1735 6433 0 6433 0 2 1735 2 1735 -6438 0 -6437 0 2
-1735z m3728 1698 c0 -5 -9 -23 -20 -40 -15 -26 -17 -33 -5 -33 7 0 17 5 20
10 10 15 35 12 35 -5 0 -10 -10 -15 -34 -15 -19 0 -38 -4 -41 -10 -4 -6 8 -10
29 -10 46 0 46 -15 1 -41 -19 -12 -32 -25 -29 -30 9 -14 18 -11 53 22 l34 31
21 -21 20 -21 -37 0 -37 0 0 -75 c0 -43 4 -75 10 -75 6 0 10 7 10 15 0 12 14
15 70 15 40 0 70 -4 70 -10 0 -5 5 -10 10 -10 6 0 10 30 10 70 l0 70 -42 1
c-35 0 -47 5 -66 30 l-24 29 32 0 c18 0 29 4 25 10 -3 6 -20 10 -36 10 -38 0
-34 24 4 28 47 6 29 22 -24 22 -42 0 -49 2 -40 13 6 8 8 17 4 20 -3 4 69 7
161 7 131 0 166 -3 160 -12 -4 -7 -18 -27 -30 -45 -13 -17 -24 -36 -24 -41 0
-6 32 -9 75 -9 41 1 75 3 75 5 0 13 -54 71 -62 66 -5 -3 -2 -14 7 -24 15 -16
14 -18 -7 -24 -44 -11 -60 -8 -49 12 5 9 18 27 30 38 11 12 17 25 14 28 -4 3
12 6 35 6 l42 0 0 -64 c0 -60 2 -64 25 -70 14 -4 36 -4 50 0 26 6 49 36 38 48
-11 11 -23 7 -23 -8 0 -7 -9 -16 -21 -19 -59 -15 -69 36 -11 60 45 18 46 19
38 32 -4 6 -20 2 -41 -10 l-35 -21 0 26 0 26 112 0 c61 0 108 -3 105 -7 -10
-9 24 -44 35 -37 5 3 2 15 -8 25 -17 18 -16 19 38 19 62 0 68 -6 68 -66 0 -30
-3 -34 -25 -34 -31 0 -33 -17 -3 -22 20 -3 23 -8 20 -43 -5 -47 -15 -70 -49
-106 -15 -16 -21 -29 -14 -33 22 -14 79 72 83 126 1 13 4 -8 7 -47 6 -69 6
-70 37 -73 33 -3 61 19 48 39 -5 8 -9 7 -16 -5 -5 -9 -18 -16 -28 -16 -18 0
-20 7 -20 70 0 40 -4 70 -10 70 -5 0 -10 5 -10 10 0 6 18 10 40 10 22 0 40 5
40 10 0 6 -18 10 -40 10 l-40 0 0 50 0 50 80 0 80 0 0 -45 c0 -38 -3 -45 -20
-45 -11 0 -20 -4 -20 -10 0 -5 9 -10 20 -10 18 0 20 -7 20 -55 0 -51 -2 -56
-27 -66 -17 -6 -23 -13 -17 -19 7 -7 29 -2 62 12 54 23 71 43 27 32 -24 -6
-25 -5 -25 45 0 44 3 51 20 51 11 0 20 5 20 10 0 6 -9 10 -20 10 -15 0 -20 7
-20 29 0 55 7 61 71 61 l59 0 0 -49 c0 -41 -3 -50 -21 -54 -19 -5 -21 -2 -17
39 2 29 -1 45 -9 49 -10 3 -13 -10 -13 -46 0 -42 -3 -52 -20 -56 -11 -3 -20
-10 -20 -15 0 -6 9 -8 20 -5 18 5 19 -1 22 -77 l3 -81 71 -3 c76 -3 103 11 89
45 -6 16 -8 15 -16 -5 -8 -21 -14 -23 -66 -20 l-58 3 0 75 c0 63 3 75 18 78
15 3 17 -5 17 -62 0 -37 4 -66 10 -66 6 0 10 30 10 70 0 63 2 70 20 70 17 0
20 -7 20 -44 0 -25 -5 -46 -11 -48 -7 -2 -10 -10 -8 -16 3 -10 8 -10 21 0 10
8 19 36 23 76 l7 63 -37 -7 -36 -6 3 43 3 44 563 3 562 2 0 -140 c0 -133 -1
-140 -20 -140 -11 0 -20 -4 -20 -9 0 -16 19 -23 40 -16 19 6 20 15 20 156 l0
149 145 0 145 0 0 -25 c0 -23 -3 -25 -47 -25 l-48 0 0 -85 0 -85 48 0 c45 0
47 -1 47 -28 0 -42 17 -52 92 -52 58 0 69 3 79 21 8 16 8 24 0 32 -9 9 -13 6
-17 -11 -6 -19 -13 -22 -63 -22 -32 0 -60 2 -63 5 -3 3 -3 17 0 30 4 23 9 25
53 25 l49 0 0 85 0 85 -50 0 c-47 0 -50 2 -50 25 l0 25 173 0 c171 -1 172 -1
190 -25 l18 -25 -46 0 c-25 0 -45 -4 -45 -10 0 -5 11 -10 25 -10 32 0 32 -10
0 -40 -40 -37 -32 -43 49 -37 47 3 78 1 85 -6 6 -6 14 -7 18 -4 4 4 -7 22 -25
39 -31 31 -57 34 -32 3 11 -13 6 -15 -34 -15 l-47 0 21 30 c19 27 27 30 76 30
30 0 54 5 54 10 0 6 -17 10 -37 10 -29 1 -42 7 -56 25 l-18 25 101 0 c55 0 99
-3 98 -7 -3 -8 38 -53 47 -53 14 0 2 31 -17 44 -21 15 -3 16 215 16 237 0 237
0 237 -22 0 -29 -22 -88 -33 -88 -5 0 -7 21 -6 48 l3 47 -62 3 -62 3 0 -55 c0
-34 5 -56 13 -59 8 -3 3 -14 -16 -35 -18 -19 -25 -32 -18 -36 6 -4 11 -23 11
-42 l0 -34 51 0 c31 0 48 4 44 10 -3 5 -22 10 -42 10 -32 0 -35 2 -31 25 3 13
0 26 -6 28 -7 3 -7 9 3 20 9 12 29 17 64 17 l50 0 -7 -52 c-8 -60 -12 -68 -32
-68 -9 0 -14 -5 -12 -12 5 -13 57 -16 77 -4 7 5 21 26 30 47 l18 39 31 -50
c22 -36 35 -48 47 -44 14 6 13 10 -8 33 -33 35 -59 88 -62 125 -4 49 -25 44
-25 -6 0 -40 -31 -128 -45 -128 -3 0 -3 32 1 70 l7 70 -46 0 c-25 0 -49 5 -53
12 -5 8 8 10 50 5 54 -5 58 -4 66 19 8 19 17 24 45 24 33 0 35 -2 29 -25 -9
-36 12 -31 25 5 l10 30 -45 0 c-47 0 -55 11 -34 51 9 16 22 19 95 19 l85 0 0
-155 c0 -205 19 -208 22 -2 l3 152 60 0 60 0 3 -37 c3 -35 1 -38 -22 -38 -29
0 -30 3 -16 31 8 14 7 19 -3 19 -7 0 -20 -21 -28 -47 -9 -27 -19 -56 -23 -65
-5 -12 -4 -18 4 -18 6 0 17 14 23 30 9 24 17 30 40 30 26 0 28 -3 25 -32 -2
-28 -8 -34 -30 -36 -38 -4 -36 -22 2 -22 28 0 30 -2 30 -40 l0 -40 -45 0 c-25
0 -45 -4 -45 -10 0 -6 37 -10 90 -10 53 0 90 4 90 10 0 6 -16 10 -35 10 -34 0
-35 1 -35 40 0 36 3 40 25 40 14 0 25 5 25 10 0 6 -11 10 -25 10 -22 0 -25 4
-25 35 0 32 2 35 30 35 17 0 30 5 30 10 0 6 -13 10 -30 10 -28 0 -30 2 -30 40
l0 40 80 0 80 0 0 -35 c0 -28 -4 -35 -20 -35 -11 0 -20 -4 -20 -10 0 -5 9 -10
20 -10 17 0 20 -7 20 -44 0 -36 -4 -46 -20 -51 -26 -8 -26 -29 0 -22 18 5 20
0 20 -39 0 -32 -4 -44 -15 -44 -8 0 -15 -5 -15 -11 0 -6 10 -9 23 -7 20 3 22
9 25 63 2 39 8 63 18 68 19 11 18 28 -1 21 -12 -5 -15 2 -15 29 0 29 4 36 23
40 l22 4 -23 8 c-19 6 -22 14 -20 39 3 29 6 31 49 34 35 2 49 -2 64 -18 18
-20 18 -20 -23 -20 -22 0 -44 -4 -47 -10 -4 -6 27 -10 84 -10 54 0 91 4 91 10
0 6 -15 10 -33 10 -21 0 -36 7 -45 20 -12 19 -10 20 81 20 l93 0 3 -45 c2 -42
0 -45 -24 -45 -14 0 -25 -4 -25 -10 0 -5 11 -10 25 -10 24 0 25 -3 25 -55 0
-50 -2 -56 -25 -65 -14 -5 -25 -15 -25 -21 0 -7 7 -8 18 -4 9 4 36 14 60 22
45 16 59 39 17 29 -24 -6 -25 -5 -25 44 0 43 3 50 20 50 11 0 20 5 20 10 0 6
-9 10 -20 10 -17 0 -20 7 -20 45 l0 45 60 0 60 0 0 -50 c0 -27 -2 -50 -4 -50
-2 0 -12 -3 -21 -7 -15 -5 -17 0 -14 40 3 33 0 47 -8 47 -9 0 -13 -17 -13 -50
0 -43 -3 -50 -20 -50 -11 0 -20 -4 -20 -10 0 -5 9 -10 20 -10 18 0 20 -7 20
-68 0 -40 5 -73 12 -80 19 -19 128 -15 150 5 10 9 18 20 18 25 0 14 -28 9 -34
-8 -4 -12 -19 -14 -63 -12 l-58 3 -3 69 c-3 66 4 85 31 86 4 0 7 -27 7 -59 0
-33 5 -63 10 -66 6 -4 10 20 10 63 0 66 1 70 25 74 24 5 25 3 25 -38 0 -31 -5
-46 -18 -53 -12 -7 -14 -13 -6 -21 23 -23 44 17 44 81 l0 60 -36 -7 -35 -6 3
43 3 44 98 3 c53 1 97 0 97 -3 0 -17 -33 -81 -56 -108 -26 -31 -18 -51 11 -27
13 11 15 0 15 -79 0 -67 3 -91 13 -91 9 0 11 26 9 108 -4 95 -1 113 18 155
l22 47 144 0 144 0 0 -35 c0 -31 -3 -35 -25 -35 -14 0 -25 -4 -25 -10 0 -5 11
-10 25 -10 22 0 25 -4 25 -40 0 -34 -4 -41 -25 -46 -14 -3 -22 -11 -19 -16 4
-5 15 -8 25 -5 17 4 19 -1 19 -39 0 -33 -4 -44 -16 -44 -9 0 -14 -6 -11 -12 2
-7 12 -13 23 -13 16 0 19 9 22 62 2 50 7 65 22 73 27 14 26 33 -1 25 -18 -6
-20 -3 -17 22 2 20 9 29 26 31 26 4 20 22 -9 22 -20 0 -23 10 -13 48 5 19 13
22 51 22 36 0 48 -5 68 -27 13 -16 27 -25 31 -21 4 5 -1 17 -11 28 l-18 20
1856 0 1857 0 0 -175 0 -175 -6400 0 -6400 0 0 175 0 175 1845 0 c1015 0 1845
-3 1845 -7z m3630 -38 c0 -11 -11 -15 -40 -15 -29 0 -40 4 -40 15 0 11 11 15
40 15 29 0 40 -4 40 -15z m-1020 -50 c0 -22 -4 -25 -35 -25 -31 0 -35 3 -35
25 0 22 4 25 35 25 31 0 35 -3 35 -25z m110 0 c0 -22 -4 -25 -40 -25 -36 0
-40 3 -40 25 0 23 4 25 40 25 36 0 40 -2 40 -25z m910 5 c0 -5 -18 -10 -40
-10 -22 0 -40 5 -40 10 0 6 18 10 40 10 22 0 40 -4 40 -10z m-1020 -80 c0 -28
-3 -30 -35 -30 -32 0 -35 2 -35 30 0 28 3 30 35 30 32 0 35 -2 35 -30z m110 0
c0 -28 -2 -30 -40 -30 -38 0 -40 2 -40 30 0 28 2 30 40 30 38 0 40 -2 40 -30z
m-2550 -40 c0 -18 -7 -20 -70 -20 -63 0 -70 2 -70 20 0 18 7 20 70 20 63 0 70
-2 70 -20z m0 -45 c0 -12 -14 -15 -70 -15 -56 0 -70 3 -70 15 0 12 14 15 70
15 56 0 70 -3 70 -15z m-2380 -300 l0 -175 -740 0 -740 0 0 175 0 175 740 0
740 0 0 -175z m2380 0 l0 -175 -1175 0 -1175 0 0 175 0 175 1175 0 1175 0 0
-175z m2160 0 l0 -175 -1065 0 -1065 0 0 175 0 175 1065 0 1065 0 0 -175z
m2690 0 l0 -175 -1325 0 -1325 0 0 175 0 175 1325 0 1325 0 0 -175z m4090 0
l0 -175 -2025 0 -2025 0 0 175 0 175 2025 0 2025 0 0 -175z m-11320 -380 l0
-175 -740 0 -740 0 0 175 0 175 740 0 740 0 0 -175z m2380 0 l0 -175 -1175 0
-1175 0 0 175 0 175 1175 0 1175 0 0 -175z m2160 0 l0 -175 -1065 0 -1065 0 0
175 0 175 1065 0 1065 0 0 -175z m2690 0 l0 -175 -1325 0 -1325 0 0 175 0 175
1325 0 1325 0 0 -175z m4090 0 l0 -175 -2025 0 -2025 0 0 175 0 175 2025 0
2025 0 0 -175z m-11320 -390 l0 -175 -740 0 -740 0 0 175 0 175 740 0 740 0 0
-175z m2380 0 l0 -175 -1175 0 -1175 0 0 175 0 175 1175 0 1175 0 0 -175z
m2160 0 l0 -175 -1065 0 -1065 0 0 175 0 175 1065 0 1065 0 0 -175z m1547 169
c-4 -4 5 -21 20 -38 l26 -31 -51 -3 c-29 -2 -52 -7 -52 -13 0 -12 197 -12 205
1 4 6 -13 10 -45 10 -34 0 -49 4 -44 11 3 6 -6 24 -22 40 l-28 29 567 0 567 0
0 -175 0 -175 -1325 0 -1325 0 0 175 0 175 757 0 c416 0 753 -3 750 -6z m5233
-169 l0 -175 -2025 0 -2025 0 0 175 0 175 2025 0 2025 0 0 -175z m-11320 -380
l0 -175 -740 0 -740 0 0 175 0 175 740 0 740 0 0 -175z m2380 0 l0 -175 -1175
0 -1175 0 0 175 0 175 1175 0 1175 0 0 -175z m2160 0 l0 -175 -1065 0 -1065 0
0 175 0 175 1065 0 1065 0 0 -175z m1547 169 c-4 -4 5 -21 20 -38 l26 -31 -51
-3 c-29 -2 -52 -7 -52 -13 0 -12 197 -12 205 1 4 6 -13 10 -45 10 -34 0 -49 4
-44 11 3 6 -6 24 -22 40 l-28 29 567 0 567 0 0 -175 0 -175 -1325 0 -1325 0 0
175 0 175 757 0 c416 0 753 -3 750 -6z m3041 -26 c-2 -22 -9 -34 -20 -36 -12
-2 -16 1 -13 10 5 14 -33 44 -43 34 -3 -3 3 -15 14 -27 l19 -21 -40 4 c-37 3
-40 1 -43 -24 -4 -32 13 -38 21 -8 5 18 14 20 116 20 104 0 111 -1 111 -20 0
-11 6 -20 13 -20 9 0 12 9 9 28 -3 25 -7 27 -38 24 -37 -5 -42 3 -18 29 9 10
11 19 5 23 -5 3 -19 -7 -31 -24 -27 -38 -44 -39 -38 0 2 16 0 32 -6 34 -6 2
481 5 1082 5 l1092 1 0 -175 0 -175 -2025 0 -2025 0 0 175 0 175 931 0 930 0
-3 -32z m-9128 -523 l0 -175 -740 0 -740 0 0 175 0 175 740 0 740 0 0 -175z
m2380 0 l0 -175 -1175 0 -1175 0 0 175 0 175 1175 0 1175 0 0 -175z m2160 0
l0 -175 -1065 0 -1065 0 0 175 0 175 1065 0 1065 0 0 -175z m2690 0 l0 -175
-1325 0 -1325 0 0 175 0 175 1325 0 1325 0 0 -175z m4090 0 l0 -175 -2025 0
-2025 0 0 175 0 175 2025 0 2025 0 0 -175z m-11320 -380 l0 -175 -740 0 -740
0 0 175 0 175 740 0 740 0 0 -175z m2380 0 l0 -175 -1175 0 -1175 0 0 175 0
175 1175 0 1175 0 0 -175z m2160 0 l0 -175 -1065 0 -1065 0 0 175 0 175 1065
0 1065 0 0 -175z m2690 0 l0 -175 -1325 0 -1325 0 0 175 0 175 1325 0 1325 0
0 -175z m4090 0 l0 -175 -2025 0 -2025 0 0 175 0 175 2025 0 2025 0 0 -175z
m-11320 -390 l0 -175 -740 0 -740 0 0 175 0 175 740 0 740 0 0 -175z m2380 0
l0 -175 -1175 0 -1175 0 0 175 0 175 1175 0 1175 0 0 -175z m850 135 c0 -36
-2 -40 -25 -40 -14 0 -25 -4 -25 -10 0 -5 11 -10 25 -10 22 0 25 -4 25 -33 0
-26 -6 -36 -25 -45 -14 -6 -25 -16 -25 -22 0 -13 6 -13 31 0 18 10 19 7 19
-39 0 -37 -4 -53 -17 -60 -10 -5 -14 -13 -10 -17 4 -5 16 -3 25 2 12 8 18 28
20 75 2 43 8 66 18 72 19 11 18 28 -1 21 -11 -5 -15 1 -15 20 0 16 6 26 15 26
8 0 15 5 15 10 0 6 -7 10 -15 10 -11 0 -15 11 -15 40 l0 40 645 0 645 0 0
-175 0 -175 -1065 0 -1065 0 0 175 0 175 410 0 410 0 0 -40z m2857 34 c-4 -4
5 -21 20 -38 l26 -31 -51 -3 c-29 -2 -52 -7 -52 -13 0 -12 197 -12 205 1 4 6
-13 10 -45 10 -34 0 -49 4 -44 11 3 6 -6 24 -22 40 l-28 29 567 0 567 0 0
-175 0 -175 -1325 0 -1325 0 0 175 0 175 757 0 c416 0 753 -3 750 -6z m2060
-1 c-4 -3 0 -15 10 -25 15 -17 14 -18 -25 -18 -23 0 -42 -4 -42 -10 0 -6 35
-10 85 -10 50 0 85 4 85 10 0 6 -16 10 -35 10 -20 0 -35 5 -35 11 0 7 -8 18
-17 25 -15 11 246 13 1565 14 l1582 0 0 -175 0 -175 -2025 0 -2025 0 0 175 0
175 442 0 c243 0 438 -3 435 -7z m-8147 -548 l0 -175 -740 0 -740 0 0 175 0
175 740 0 740 0 0 -175z m2380 0 l0 -175 -1175 0 -1175 0 0 175 0 175 1175 0
1175 0 0 -175z m2160 0 l0 -175 -1065 0 -1065 0 0 175 0 175 1065 0 1065 0 0
-175z m2690 0 l0 -175 -1325 0 -1325 0 0 175 0 175 1325 0 1325 0 0 -175z
m4090 0 l0 -175 -2025 0 -2025 0 0 175 0 175 2025 0 2025 0 0 -175z"/>
<path d="M5388 3515 c3 -71 2 -76 -20 -84 -20 -8 -21 -10 -5 -16 34 -14 47 12
47 96 0 57 -4 79 -12 79 -10 0 -12 -20 -10 -75z"/>
<path d="M5140 3570 c0 -5 9 -10 20 -10 15 0 20 -7 20 -25 0 -20 -5 -25 -25
-25 -14 0 -25 -4 -25 -10 0 -5 9 -10 20 -10 26 0 25 -20 -2 -55 -20 -25 -20
-27 -2 -23 10 1 27 19 36 38 23 46 52 47 56 3 2 -18 7 -33 13 -33 5 0 9 -9 9
-20 0 -17 -7 -20 -50 -20 -27 0 -50 -4 -50 -10 0 -5 23 -10 50 -10 43 0 50 -3
50 -20 0 -18 -7 -20 -70 -20 -40 0 -70 -4 -70 -10 0 -6 57 -10 150 -10 93 0
150 4 150 10 0 6 -30 10 -70 10 -63 0 -70 2 -70 20 0 17 7 20 50 20 28 0 50 5
50 10 0 6 -23 10 -51 10 -46 0 -51 2 -46 20 3 13 0 20 -9 20 -9 0 -14 12 -14
35 0 28 4 35 20 35 11 0 20 5 20 10 0 6 -9 10 -20 10 -15 0 -20 7 -20 25 0 16
6 25 15 25 8 0 15 5 15 10 0 6 -32 10 -75 10 -43 0 -75 -4 -75 -10z m98 -38
c3 -17 -2 -22 -17 -22 -16 0 -21 6 -21 26 0 33 33 30 38 -4z"/>
<path d="M6680 3572 c0 -14 39 -46 47 -39 3 4 -2 16 -12 27 -19 21 -35 26 -35
12z"/>
<path d="M7120 3570 c0 -6 28 -10 65 -10 l65 0 0 -121 c0 -112 -1 -121 -20
-126 -25 -7 -26 -23 -2 -23 37 0 42 20 42 157 l0 133 -75 0 c-43 0 -75 -4 -75
-10z"/>
<path d="M8800 3530 c0 -49 1 -50 30 -50 20 0 30 -5 30 -15 0 -11 -12 -15 -45
-15 -25 0 -45 -4 -45 -10 0 -5 16 -10 35 -10 45 0 44 -14 -5 -61 -26 -25 -36
-40 -28 -45 6 -4 27 10 50 34 l38 41 0 -54 c0 -30 5 -55 10 -55 6 0 10 25 10
56 l0 57 38 -43 c29 -33 43 -42 57 -36 17 6 16 9 -10 26 -29 19 -64 58 -65 73
0 4 18 7 41 7 24 0 38 4 34 10 -3 6 -26 10 -51 10 -32 0 -44 4 -44 15 0 10 11
15 35 15 l35 0 0 50 0 50 -75 0 -75 0 0 -50z m130 0 c0 -30 -1 -30 -55 -30
-54 0 -55 0 -55 30 0 30 1 30 55 30 54 0 55 0 55 -30z"/>
<path d="M4680 3562 c0 -16 27 -45 39 -41 8 3 7 11 -4 27 -16 22 -35 30 -35
14z"/>
<path d="M5320 3510 c0 -78 17 -78 22 0 2 43 -1 60 -9 60 -9 0 -13 -19 -13
-60z"/>
<path d="M3950 3505 l0 -55 50 0 50 0 0 55 0 55 -50 0 -50 0 0 -55z m78 3 c3
-36 2 -38 -27 -38 -30 0 -31 2 -31 41 0 38 1 40 28 37 23 -3 27 -8 30 -40z"/>
<path d="M5470 3445 c0 -70 4 -115 10 -115 6 0 10 25 10 55 l0 55 45 0 c25 0
45 5 45 10 0 6 -20 10 -45 10 l-45 0 0 40 0 40 50 0 c28 0 50 5 50 10 0 6 -27
10 -60 10 l-60 0 0 -115z"/>
<path d="M5650 3453 c-23 -60 -44 -111 -47 -115 -2 -5 2 -8 11 -8 8 0 20 16
26 35 11 34 13 35 65 35 52 0 54 -1 65 -35 6 -19 18 -35 26 -35 9 0 13 3 11 8
-3 4 -24 55 -47 115 -24 62 -47 107 -55 107 -8 0 -31 -45 -55 -107z m79 20
l21 -53 -45 0 -45 0 20 50 c11 28 20 54 20 57 0 13 9 -4 29 -54z"/>
<path d="M4440 3530 c0 -6 33 -10 80 -10 47 0 80 4 80 10 0 6 -33 10 -80 10
-47 0 -80 -4 -80 -10z"/>
<path d="M7010 3415 c0 -77 4 -125 10 -125 6 0 10 43 10 109 0 60 3 116 6 125
4 11 1 16 -10 16 -14 0 -16 -17 -16 -125z"/>
<path d="M7755 3513 c8 -31 13 -39 20 -31 9 9 -6 58 -17 58 -6 0 -7 -11 -3
-27z"/>
<path d="M9160 3456 c0 -73 -3 -88 -25 -121 -28 -40 -27 -57 1 -34 22 18 44
71 44 104 0 23 3 25 50 25 28 0 50 -4 50 -10 0 -5 6 -10 13 -10 8 0 12 20 12
65 l0 65 -72 0 -73 0 0 -84z m120 23 l0 -40 -47 3 c-48 3 -48 3 -51 41 l-3 37
50 0 51 0 0 -41z"/>
<path d="M7678 3493 c-3 -21 -3 -40 -1 -42 7 -9 20 15 26 47 5 23 3 32 -7 32
-8 0 -16 -15 -18 -37z"/>
<path d="M8140 3523 c0 -4 7 -17 15 -27 17 -23 34 -13 19 11 -12 19 -34 29
-34 16z"/>
<path d="M8217 3499 c-15 -28 -21 -31 -57 -27 -22 2 -40 0 -40 -4 0 -5 36 -8
80 -8 44 0 80 4 80 9 0 4 -12 6 -27 3 -21 -4 -25 -2 -20 12 4 9 10 23 13 31
11 28 -11 15 -29 -16z"/>
<path d="M6021 3463 c-7 -27 -19 -59 -28 -72 -10 -15 -12 -26 -5 -33 12 -12
33 25 50 82 5 19 13 43 17 53 5 12 2 17 -8 17 -9 0 -19 -17 -26 -47z"/>
<path d="M6198 3504 c-7 -7 54 -144 65 -144 13 0 8 24 -19 88 -26 59 -34 69
-46 56z"/>
<path d="M7080 3430 l0 -75 60 3 60 4 0 71 0 72 -60 0 -60 0 0 -75z m100 35
c0 -22 -4 -25 -40 -25 -36 0 -40 3 -40 25 0 23 4 25 40 25 36 0 40 -2 40 -25z
m0 -70 c0 -22 -4 -25 -40 -25 -36 0 -40 3 -40 25 0 23 4 25 40 25 36 0 40 -2
40 -25z"/>
<path d="M4465 3460 c0 -35 3 -40 23 -40 20 0 22 -5 22 -50 0 -39 -3 -50 -16
-50 -9 0 -14 -6 -11 -12 4 -12 35 -13 46 -2 2 2 6 29 9 59 4 46 8 55 23 55 15
0 19 8 19 40 l0 40 -57 0 -58 0 0 -40z m95 0 c0 -16 -7 -20 -35 -20 -28 0 -35
4 -35 20 0 16 7 20 35 20 28 0 35 -4 35 -20z"/>
<path d="M6650 3491 c0 -13 50 -44 58 -36 4 4 -4 15 -17 26 -25 20 -41 24 -41
10z"/>
<path d="M4130 3382 c0 -60 4 -91 10 -87 6 3 10 22 10 41 0 32 2 34 35 34 29
0 35 -4 35 -20 0 -11 -7 -23 -15 -26 -23 -9 -18 -26 8 -22 21 3 22 8 22 87 l0
83 -53 2 -52 1 0 -93z m88 61 c2 -9 -8 -13 -32 -13 -26 0 -36 4 -36 16 0 19
61 16 68 -3z m2 -43 c0 -5 -16 -10 -35 -10 -19 0 -35 5 -35 10 0 6 16 10 35
10 19 0 35 -4 35 -10z"/>
<path d="M4270 3387 c0 -82 4 -87 64 -87 36 0 73 31 61 50 -5 8 -12 5 -22 -9
-24 -35 -83 -25 -83 14 0 17 11 27 48 43 36 16 43 22 29 27 -9 4 -23 3 -30 -2
-6 -6 -20 -13 -30 -16 -15 -6 -18 -2 -15 20 2 15 -2 28 -9 30 -10 4 -13 -15
-13 -70z"/>
<path d="M8166 3435 c-3 -9 -19 -15 -41 -15 -19 0 -35 -4 -35 -10 0 -5 11 -10
25 -10 25 0 33 -14 15 -25 -15 -9 -2 -25 20 -25 37 0 30 -19 -11 -30 -31 -9
-39 -14 -30 -23 8 -8 23 -5 57 11 l46 23 34 -20 c18 -11 36 -16 39 -11 5 7 -9
19 -53 46 -1 1 3 13 9 28 9 19 20 26 41 26 15 0 28 5 28 10 0 6 -28 10 -65 10
-53 0 -63 3 -59 15 4 8 2 15 -4 15 -5 0 -12 -7 -16 -15z m54 -55 c-11 -21 -27
-25 -54 -14 -25 10 0 34 36 34 26 0 28 -2 18 -20z"/>
<path d="M6767 3389 c-3 -23 -15 -51 -27 -64 -21 -23 -13 -44 11 -29 17 10 39
69 39 104 0 44 -16 37 -23 -11z"/>
<path d="M6820 3365 c0 -84 17 -84 22 0 2 47 0 65 -9 65 -9 0 -13 -20 -13 -65z"/>
<path d="M6872 3368 l3 -63 33 -3 c32 -3 55 19 37 36 -4 4 -10 1 -12 -5 -3 -7
-14 -13 -25 -13 -19 0 -20 5 -16 55 4 42 1 55 -9 55 -11 0 -13 -15 -11 -62z"/>
<path d="M7387 3395 c-14 -29 -14 -35 -3 -35 8 0 16 6 19 13 3 9 7 9 19 -1 10
-8 19 -9 22 -4 3 6 -1 15 -10 22 -8 7 -13 19 -10 27 12 30 -22 10 -37 -22z"/>
<path d="M6687 3367 c-29 -57 -32 -67 -17 -67 14 0 63 101 53 111 -4 4 -21
-15 -36 -44z"/>
<path d="M4458 3365 c-13 -25 -14 -35 -5 -35 14 0 48 56 39 64 -10 11 -17 5
-34 -29z"/>
<path d="M4557 3394 c-7 -13 19 -47 33 -42 8 2 5 12 -8 27 -10 14 -21 20 -25
15z"/>
<path d="M5810 3290 c0 -6 32 -10 75 -10 43 0 75 4 75 10 0 6 -32 10 -75 10
-43 0 -75 -4 -75 -10z"/>
<path d="M700 3194 c0 -4 8 -13 18 -20 15 -12 8 -13 -49 -14 l-66 0 -5 -97
c-3 -64 -11 -109 -22 -130 -13 -26 -14 -33 -3 -33 24 0 40 52 45 148 l4 92
124 0 c76 0 124 4 124 10 0 6 -26 10 -58 10 -46 0 -60 4 -70 20 -11 18 -42 28
-42 14z"/>
<path d="M969 3188 c0 -2 -1 -24 -2 -50 l-3 -48 93 0 93 0 0 50 0 50 -90 0
c-49 0 -90 -1 -91 -2z m161 -48 l0 -30 -70 0 -70 0 0 30 0 30 70 0 70 0 0 -30z"/>
<path d="M650 3110 c0 -6 31 -10 72 -10 71 0 71 0 53 -20 -10 -12 -25 -18 -32
-15 -7 3 -20 8 -28 11 -24 10 -17 -12 8 -24 19 -9 13 -11 -35 -11 -32 -1 -58
-5 -58 -11 0 -5 25 -10 55 -10 l55 0 0 -55 c0 -42 -3 -55 -15 -55 -8 0 -15 -5
-15 -11 0 -6 10 -9 23 -7 20 3 22 9 25 66 l3 62 40 0 c36 0 39 -2 29 -19 -13
-24 -13 -31 0 -31 8 0 40 51 40 65 0 3 -20 5 -45 5 -25 0 -45 3 -45 7 0 4 14
22 32 40 l32 33 -97 0 c-58 0 -97 -4 -97 -10z"/>
<path d="M905 3060 c-4 -6 12 -10 41 -10 46 0 46 0 41 -30 l-6 -30 79 0 c86 0
94 -6 64 -48 -11 -16 -25 -22 -55 -22 -21 0 -39 -4 -39 -10 0 -11 52 -13 87
-4 21 6 43 48 43 85 0 17 -9 19 -76 19 -65 0 -75 2 -70 16 3 9 6 18 6 20 0 2
41 4 90 4 53 0 90 4 90 10 0 6 -55 10 -144 10 -86 0 -147 -4 -151 -10z"/>
<path d="M2057 3194 c-3 -5 3 -20 12 -33 11 -14 21 -19 25 -13 3 5 -2 20 -12
33 -11 12 -21 18 -25 13z"/>
<path d="M2171 3170 c-6 -17 -20 -43 -31 -58 l-21 -26 20 -8 c25 -9 27 -26 6
-34 -19 -8 -20 -24 0 -24 10 0 15 -15 17 -57 l3 -58 64 0 c49 0 66 4 75 17 5
9 7 21 2 25 -4 4 -12 0 -17 -10 -7 -12 -23 -17 -59 -17 l-50 0 0 54 c0 39 4
55 15 60 12 4 15 -4 15 -44 0 -66 18 -64 22 2 2 41 7 54 21 56 23 5 24 -53 1
-66 -13 -7 -14 -11 -4 -17 20 -12 40 23 40 68 0 39 -1 39 -30 34 -27 -6 -30
-4 -30 18 0 34 -18 32 -22 -2 -4 -33 -24 -41 -31 -12 -3 11 -10 18 -16 14 -15
-9 -13 6 3 28 10 13 28 17 80 17 37 0 66 4 66 10 0 6 -27 10 -60 10 -64 0 -66
1 -50 31 8 15 7 19 -4 19 -8 0 -19 -14 -25 -30z"/>
<path d="M2410 3165 c0 -32 -2 -35 -30 -35 -16 0 -30 -4 -30 -10 0 -5 14 -10
30 -10 l31 0 -7 -52 c-7 -59 -27 -114 -50 -139 -13 -14 -13 -17 0 -22 27 -11
59 62 72 161 5 42 10 52 25 52 17 0 19 -9 19 -81 0 -72 -2 -81 -20 -86 -23 -6
-27 -33 -6 -33 35 0 46 29 46 126 l0 94 -31 0 c-30 0 -31 2 -27 35 3 24 0 35
-9 35 -8 0 -13 -13 -13 -35z"/>
<path d="M2730 3160 c0 -33 -3 -40 -20 -40 -26 0 -26 -18 0 -22 21 -3 21 -4
-4 -53 -27 -53 -20 -89 8 -39 15 28 15 28 16 -43 0 -52 4 -73 13 -73 9 0 11
20 9 80 -3 51 0 80 6 80 6 0 14 -5 17 -10 4 -6 11 -8 17 -4 5 4 -2 18 -18 35
-27 28 -27 29 -6 29 28 0 29 16 1 23 -19 5 -21 11 -16 41 4 27 2 36 -9 36 -10
0 -14 -12 -14 -40z"/>
<path d="M2905 3180 c5 -17 2 -20 -20 -20 -20 0 -26 4 -21 15 3 9 0 15 -9 15
-8 0 -15 -7 -15 -15 0 -9 -10 -15 -26 -15 -14 0 -23 -4 -19 -10 3 -5 15 -10
26 -10 10 0 19 -4 19 -10 0 -5 7 -10 16 -10 8 0 12 5 9 10 -9 14 29 12 44 -2
11 -10 14 -10 18 0 3 6 15 12 28 12 13 0 27 5 30 10 4 6 -7 10 -24 10 -24 0
-31 4 -31 20 0 11 -7 20 -16 20 -11 0 -14 -6 -9 -20z"/>
<path d="M3060 3165 c0 -28 -4 -35 -20 -35 -11 0 -20 -4 -20 -10 0 -5 9 -10
20 -10 16 0 20 -7 20 -36 0 -27 -5 -37 -20 -41 -11 -3 -20 -12 -20 -20 0 -10
6 -12 20 -8 18 6 20 2 20 -39 0 -35 -4 -46 -16 -46 -9 0 -14 -5 -12 -11 2 -6
7 -10 11 -10 4 1 14 1 22 1 12 0 15 14 15 65 0 54 3 66 20 75 11 6 20 15 20
19 0 5 -9 7 -20 4 -16 -4 -20 0 -20 17 0 13 8 24 20 27 26 7 26 23 -1 23 -19
0 -20 4 -15 35 6 28 4 35 -9 35 -11 0 -15 -10 -15 -35z"/>
<path d="M3170 3195 c0 -18 42 -85 50 -80 12 7 -26 85 -40 85 -6 0 -10 -2 -10
-5z"/>
<path d="M3260 3108 c0 -99 -14 -141 -56 -176 -24 -20 -32 -32 -24 -37 7 -4
27 8 49 29 l38 37 17 -26 c9 -14 21 -23 27 -19 6 3 0 19 -14 38 -26 33 -25 33
-13 184 3 31 0 42 -10 42 -11 0 -14 -18 -14 -72z"/>
<path d="M3400 3140 l0 -40 105 0 105 0 0 40 0 40 -105 0 -105 0 0 -40z m190
20 c0 -6 -35 -10 -86 -10 -54 0 -83 4 -79 10 3 6 42 10 86 10 46 0 79 -4 79
-10z m-37 -37 c-23 -2 -64 -2 -90 0 -26 2 -7 3 42 3 50 0 71 -1 48 -3z"/>
<path d="M2530 3030 c0 -73 4 -120 10 -120 6 0 10 9 10 20 0 16 7 20 30 20 23
0 30 -4 30 -20 0 -11 5 -20 10 -20 6 0 10 47 10 120 l0 120 -50 0 -50 0 0
-120z m80 20 l0 -80 -30 0 -30 0 0 80 0 80 30 0 30 0 0 -80z"/>
<path d="M3140 3047 c0 -57 3 -106 6 -110 8 -7 64 57 64 74 0 7 -11 3 -26 -12
l-26 -24 4 88 c2 65 0 87 -9 87 -10 0 -13 -27 -13 -103z"/>
<path d="M2010 3122 c0 -7 8 -12 18 -10 15 3 17 -5 14 -62 -3 -54 -14 -92 -40
-142 -2 -5 3 -8 11 -8 18 0 37 43 44 102 5 38 10 48 24 48 17 0 19 -8 19 -61
0 -53 -3 -62 -20 -66 -12 -3 -19 -10 -17 -16 6 -18 24 -19 41 -2 12 12 16 36
16 91 l0 74 -29 0 c-25 0 -28 3 -23 25 4 21 9 25 31 23 14 -2 27 1 29 6 1 4
-25 9 -58 10 -43 1 -60 -3 -60 -12z"/>
<path d="M2814 3111 c-2 -2 -4 -26 -4 -53 0 -47 1 -48 30 -48 17 0 30 -4 30
-10 0 -5 -20 -10 -45 -10 -25 0 -45 -4 -45 -10 0 -5 18 -10 41 -10 50 0 49
-17 -5 -44 -26 -13 -34 -22 -27 -29 12 -12 56 13 83 47 15 19 17 19 23 4 9
-23 72 -61 86 -52 7 4 -4 15 -27 28 -53 30 -55 46 -5 46 23 0 41 5 41 10 0 6
-23 10 -51 10 -31 0 -48 4 -44 10 3 6 19 10 36 10 28 0 29 1 29 53 l0 52 -71
0 c-39 0 -72 -2 -75 -4z m126 -26 c0 -11 -12 -15 -49 -15 -47 0 -68 9 -54 24
3 3 28 6 55 6 36 0 48 -4 48 -15z m0 -40 c0 -12 -13 -15 -55 -15 -51 0 -65 7
-48 23 3 4 28 7 55 7 36 0 48 -4 48 -15z"/>
<path d="M3355 3080 c-4 -7 48 -10 149 -10 97 0 156 4 156 10 0 6 -56 10 -149
10 -89 0 -152 -4 -156 -10z"/>
<path d="M3400 3015 l0 -45 50 0 c28 0 50 -4 50 -10 0 -5 -25 -10 -55 -10 -30
0 -55 -4 -55 -9 0 -4 22 -6 49 -3 30 2 51 0 55 -7 5 -8 -14 -11 -63 -11 -41 0
-71 -4 -71 -10 0 -6 55 -10 145 -10 90 0 145 4 145 10 0 6 -29 10 -66 10 -46
0 -63 3 -58 11 4 7 24 9 55 6 29 -4 49 -2 49 3 0 6 -25 10 -55 10 -30 0 -55 5
-55 10 0 6 23 10 50 10 l50 0 0 45 0 45 -110 0 -110 0 0 -45z m100 15 c0 -5
-18 -10 -40 -10 -22 0 -40 5 -40 10 0 6 18 10 40 10 22 0 40 -4 40 -10z m100
0 c0 -5 -18 -10 -40 -10 -22 0 -40 5 -40 10 0 6 18 10 40 10 22 0 40 -4 40
-10z m-100 -30 c0 -5 -18 -10 -41 -10 -24 0 -38 4 -34 10 3 6 22 10 41 10 19
0 34 -4 34 -10z m95 0 c4 -6 -10 -10 -35 -10 -25 0 -39 4 -35 10 3 6 19 10 35
10 16 0 32 -4 35 -10z"/>
<path d="M4475 3146 c-14 -29 -25 -56 -25 -59 0 -4 14 -7 31 -7 l31 0 -26 -34
c-36 -48 -34 -58 12 -51 51 9 62 13 62 23 0 5 -13 7 -30 4 -16 -2 -30 -2 -30
2 0 3 14 29 31 57 23 36 29 53 21 61 -8 8 -14 4 -23 -15 -7 -15 -20 -27 -31
-27 -24 0 -23 10 6 53 19 28 21 37 10 41 -9 4 -22 -12 -39 -48z"/>
<path d="M4640 3170 c0 -28 -3 -30 -35 -30 -19 0 -35 -4 -35 -10 0 -5 16 -10
35 -10 31 0 35 -3 35 -25 0 -21 -5 -25 -30 -25 -16 0 -30 -4 -30 -10 0 -6 32
-10 75 -10 43 0 75 4 75 10 0 6 -16 10 -35 10 -31 0 -35 3 -35 25 0 23 4 25
45 25 25 0 45 5 45 10 0 6 -20 10 -45 10 -46 0 -53 7 -35 41 9 16 7 19 -10 19
-16 0 -20 -6 -20 -30z"/>
<path d="M4923 3180 c5 -19 0 -20 -64 -20 -88 0 -90 -18 -2 -22 42 -2 68 -8
71 -15 2 -9 -11 -13 -47 -13 l-51 0 0 -45 0 -45 37 0 37 0 -30 -31 c-16 -17
-42 -37 -57 -45 -15 -8 -25 -19 -22 -24 10 -17 21 -11 73 35 27 25 53 45 57
45 4 0 5 -25 2 -55 -4 -44 -3 -55 9 -55 11 0 14 15 14 61 l0 62 20 -26 c26
-33 87 -70 100 -62 6 4 -8 19 -32 34 -24 15 -49 35 -57 44 -12 15 -10 17 23
17 l36 0 0 45 0 45 -45 0 c-33 0 -45 4 -45 15 0 12 14 15 65 15 37 0 65 4 65
10 0 6 -28 10 -65 10 -58 0 -65 2 -65 20 0 12 -7 20 -16 20 -11 0 -15 -6 -11
-20z m5 -117 c3 -21 -1 -23 -37 -23 -37 0 -41 2 -41 26 0 23 3 25 38 22 30 -2
38 -7 40 -25z m92 2 c0 -22 -4 -25 -35 -25 -31 0 -35 3 -35 25 0 22 4 25 35
25 31 0 35 -3 35 -25z"/>
<path d="M5209 3178 c-6 -13 -25 -38 -42 -55 -25 -27 -27 -33 -13 -33 9 0 29
14 43 30 21 26 32 30 74 30 53 0 59 -7 31 -33 -24 -22 -35 -21 -57 3 -10 11
-22 17 -27 14 -5 -3 1 -17 13 -30 12 -13 21 -25 18 -27 -7 -6 -63 -25 -91 -31
-31 -7 -38 -26 -10 -26 9 0 42 11 72 23 53 22 56 22 95 6 52 -23 97 -28 102
-11 3 7 -5 12 -21 12 -15 0 -43 7 -62 15 l-36 15 31 35 c17 20 31 40 31 45 0
6 -30 10 -67 11 -38 0 -62 3 -55 6 6 2 10 9 6 14 -9 15 -23 10 -35 -13z"/>
<path d="M5530 3185 c0 -21 -28 -75 -52 -102 -12 -12 -17 -27 -13 -34 6 -8 13
-5 26 12 18 24 19 23 19 -73 0 -59 4 -98 10 -98 6 0 10 45 10 115 0 85 4 124
15 146 16 29 13 49 -6 49 -5 0 -9 -7 -9 -15z"/>
<path d="M5650 3160 c0 -34 -3 -40 -21 -40 -16 0 -19 4 -14 20 4 13 2 20 -7
20 -8 0 -19 -19 -26 -42 -7 -24 -15 -49 -18 -55 -11 -25 17 -13 28 12 7 16 19
25 35 25 20 0 23 -5 23 -35 0 -35 0 -35 -45 -35 -25 0 -45 -4 -45 -10 0 -5 20
-10 45 -10 l45 0 0 -60 c0 -33 4 -60 10 -60 6 0 10 27 10 60 l0 60 50 0 c28 0
50 5 50 10 0 6 -22 10 -50 10 l-50 0 0 35 c0 33 2 35 35 35 19 0 35 5 35 10 0
6 -16 10 -36 10 l-37 0 6 40 c4 30 2 40 -9 40 -10 0 -14 -12 -14 -40z"/>
<path d="M5260 3030 c0 -17 -7 -20 -45 -20 -25 0 -45 -4 -45 -10 0 -5 20 -10
45 -10 l45 0 0 -40 c0 -34 -3 -40 -21 -40 -11 0 -17 -4 -14 -10 3 -5 17 -10
31 -10 22 0 24 4 24 50 l0 50 50 0 c28 0 50 5 50 10 0 6 -23 10 -51 10 -46 0
-51 2 -46 20 3 13 0 20 -9 20 -8 0 -14 -9 -14 -20z"/>
<path d="M4590 2955 c0 -37 4 -65 10 -65 6 0 10 7 10 15 0 22 86 21 94 -1 12
-31 21 -4 18 55 l-4 61 -64 0 -64 0 0 -65z m110 10 c0 -35 0 -35 -45 -35 -45
0 -45 0 -45 35 0 35 0 35 45 35 45 0 45 0 45 -35z"/>
<path d="M5173 2950 c-35 -32 -40 -40 -22 -40 16 0 79 57 72 64 -10 10 -16 7
-50 -24z"/>
<path d="M5310 2971 c0 -13 70 -64 78 -56 4 4 -9 20 -28 36 -35 30 -50 36 -50
20z"/>
<path d="M4496 2946 c-36 -11 -62 -36 -39 -36 21 0 103 33 103 41 0 11 -15 10
-64 -5z"/>
<path d="M7398 3159 l-28 -39 -70 0 c-40 0 -70 -4 -70 -10 0 -6 27 -10 61 -10
59 0 61 -1 55 -22 -3 -13 -6 -26 -6 -30 0 -5 -27 -8 -60 -8 -33 0 -60 -4 -60
-10 0 -6 27 -10 60 -10 33 0 60 -4 60 -9 0 -20 -53 -71 -85 -83 -19 -6 -35
-15 -35 -18 0 -42 115 30 133 83 2 6 18 -5 37 -26 39 -45 85 -71 108 -62 13 5
8 11 -23 26 -40 20 -95 66 -95 81 0 4 27 8 60 8 33 0 60 4 60 10 0 6 -30 10
-71 10 -61 0 -70 2 -65 16 3 9 6 22 6 30 0 11 15 14 62 14 67 0 71 16 5 22
l-39 3 22 28 c13 16 19 32 14 37 -5 4 -21 -9 -36 -31z"/>
<path d="M7620 3113 c0 -47 -3 -83 -6 -80 -4 3 -20 -12 -36 -34 -37 -51 -27
-66 13 -19 l28 35 1 -62 c0 -62 1 -63 26 -61 30 3 64 42 90 104 l17 39 14 -35
c23 -54 63 -104 76 -91 7 7 1 20 -17 42 -28 32 -56 91 -56 115 0 10 13 14 40
14 22 0 40 5 40 10 0 6 -21 10 -46 10 l-46 0 4 50 c2 35 -1 50 -9 50 -9 0 -13
-17 -13 -50 l0 -50 -40 0 c-22 0 -40 -4 -40 -10 0 -5 16 -10 35 -10 29 0 35
-4 35 -20 0 -45 -56 -140 -82 -140 -6 0 -8 61 -6 140 2 107 0 140 -9 140 -10
0 -13 -24 -13 -87z"/>
<path d="M8018 3178 c-3 -21 -9 -23 -65 -26 -78 -4 -84 -22 -8 -22 30 0 55 -4
55 -9 0 -15 -79 -81 -97 -81 -12 0 -14 -3 -6 -11 18 -18 49 -1 98 53 l46 51
35 -42 c45 -52 93 -79 105 -59 6 9 0 15 -20 20 -30 8 -81 50 -81 68 0 5 22 10
50 10 28 0 50 5 50 10 0 6 -30 10 -71 10 -71 0 -71 0 -65 25 5 18 2 25 -8 25
-8 0 -16 -10 -18 -22z"/>
<path d="M7260 3184 c0 -7 25 -29 53 -45 12 -7 17 -6 17 3 0 8 -13 21 -29 31
-31 18 -41 21 -41 11z"/>
<path d="M6900 3170 c0 -5 14 -10 30 -10 29 0 30 -2 30 -45 l0 -45 -40 0 c-28
0 -40 -4 -40 -14 0 -11 10 -13 40 -9 33 5 40 3 40 -11 0 -27 -26 -79 -49 -100
-25 -22 -27 -36 -6 -36 21 0 64 68 71 113 6 36 7 37 50 37 l44 0 0 -75 c0 -96
18 -98 22 -2 l3 72 38 -1 c25 -1 37 3 37 12 0 10 -13 14 -40 14 l-40 0 0 45
c0 43 1 45 30 45 17 0 30 5 30 10 0 6 -48 10 -125 10 -77 0 -125 -4 -125 -10z
m170 -55 l0 -45 -45 0 -45 0 0 45 0 45 45 0 45 0 0 -45z"/>
<path d="M7796 3145 c15 -23 34 -34 34 -19 0 16 -23 44 -36 44 -12 0 -12 -4 2
-25z"/>
<path d="M7560 3131 c0 -15 38 -56 45 -49 9 9 -21 58 -35 58 -6 0 -10 -4 -10
-9z"/>
<path d="M8016 3072 c-7 -11 31 -48 41 -38 4 3 -2 16 -14 27 -11 12 -23 17
-27 11z"/>
<path d="M8016 3012 c-3 -5 5 -19 18 -31 16 -16 26 -19 31 -11 4 6 5 12 4 13
-2 1 -14 10 -26 20 -11 10 -24 14 -27 9z"/>
<path d="M7909 2955 c-22 -46 -7 -54 20 -11 24 39 26 46 9 46 -7 -1 -20 -16
-29 -35z"/>
<path d="M7980 2945 c0 -42 1 -44 34 -50 48 -9 106 11 106 36 0 14 -20 10 -37
-7 -9 -9 -28 -14 -47 -12 -28 3 -31 7 -34 41 -4 52 -22 46 -22 -8z"/>
<path d="M8120 2982 c0 -14 49 -56 57 -49 3 4 -4 18 -17 32 -24 25 -40 32 -40
17z"/>
<path d="M10340 3114 c0 -47 -4 -83 -9 -80 -13 8 -75 -74 -64 -85 6 -6 20 6
39 32 l29 42 3 -67 c3 -64 4 -67 25 -61 31 9 76 63 89 109 l12 39 18 -43 c26
-62 56 -100 73 -93 12 4 10 12 -12 37 -27 32 -62 101 -63 124 0 8 16 12 45 12
25 0 45 5 45 10 0 6 -23 10 -51 10 l-52 0 5 50 c4 38 2 50 -8 50 -10 0 -14
-15 -14 -50 l0 -50 -35 0 c-19 0 -35 -4 -35 -10 0 -5 16 -10 35 -10 33 0 35
-1 29 -27 -11 -48 -31 -87 -55 -113 l-24 -25 -3 143 c-1 83 -7 142 -12 142 -6
0 -10 -37 -10 -86z"/>
<path d="M10730 3175 c0 -24 -3 -25 -60 -25 -33 0 -60 -4 -60 -10 0 -5 25 -10
56 -10 l55 0 -22 -31 c-12 -17 -39 -39 -60 -48 -28 -13 -36 -20 -27 -29 15
-15 90 37 115 78 22 38 33 37 58 -3 22 -34 82 -80 99 -74 20 7 16 25 -8 31
-27 7 -86 53 -86 67 0 5 23 9 50 9 28 0 50 5 50 10 0 6 -30 10 -70 10 -70 0
-70 0 -64 25 5 19 2 25 -10 25 -10 0 -16 -9 -16 -25z"/>
<path d="M11036 3167 c-14 -18 -37 -39 -51 -47 -14 -7 -25 -17 -25 -22 0 -15
23 -8 56 17 26 20 44 25 90 25 l58 0 -33 -34 -34 -35 -28 21 c-16 12 -32 18
-36 14 -4 -4 3 -16 17 -26 25 -19 25 -19 5 -34 -11 -9 -42 -23 -68 -32 -35
-11 -46 -19 -38 -27 7 -7 18 -7 36 1 14 7 28 12 30 12 3 0 5 -25 5 -55 0 -30
5 -55 10 -55 6 0 10 5 10 10 0 6 32 10 75 10 43 0 75 -4 75 -10 0 -5 5 -10 10
-10 6 0 10 30 10 70 l0 70 -66 0 -65 0 60 56 c34 31 61 60 61 65 0 5 -33 9
-72 9 -63 1 -71 3 -56 14 17 12 15 26 -3 26 -4 0 -19 -15 -33 -33z m154 -197
l0 -40 -75 0 -75 0 0 40 0 40 75 0 75 0 0 -40z"/>
<path d="M11454 3183 c-16 -46 -48 -106 -52 -95 -2 7 -12 12 -23 12 -29 0 -27
56 3 64 16 4 20 8 12 16 -8 8 -19 8 -38 0 -15 -5 -39 -10 -52 -10 -14 0 -22
-4 -19 -10 3 -5 15 -10 26 -10 14 0 19 -7 19 -25 0 -20 -5 -25 -25 -25 -14 0
-25 -4 -25 -10 0 -5 11 -10 25 -10 14 0 25 -2 25 -5 0 -11 -32 -70 -47 -87
-10 -11 -11 -18 -3 -23 13 -8 13 -9 33 30 l16 30 1 -67 c0 -54 3 -68 15 -68
12 0 15 15 15 73 1 63 2 70 14 54 10 -12 16 -15 21 -7 4 6 -2 22 -14 34 -29
31 -26 39 12 32 29 -5 35 -3 47 19 11 21 20 25 62 25 46 0 48 -1 38 -20 -8
-16 -8 -20 4 -20 8 0 19 14 25 30 l10 30 -59 0 c-59 0 -59 0 -50 25 6 15 6 26
0 30 -6 4 -13 -2 -16 -12z"/>
<path d="M10500 3163 c0 -4 7 -17 15 -27 17 -23 34 -13 19 11 -12 19 -34 29
-34 16z"/>
<path d="M10270 3135 c0 -12 33 -55 41 -55 15 0 10 26 -9 43 -19 17 -32 22
-32 12z"/>
<path d="M11480 2999 c0 -86 -1 -91 -20 -86 -23 6 -27 -11 -5 -19 32 -13 44
15 47 107 2 66 0 89 -9 89 -10 0 -13 -25 -13 -91z"/>
<path d="M10726 3071 c-3 -5 5 -16 19 -25 19 -12 25 -13 25 -4 0 17 -37 41
-44 29z"/>
<path d="M11520 3031 c0 -20 43 -81 56 -81 11 0 6 13 -16 45 -31 45 -40 53
-40 36z"/>
<path d="M11430 3021 c0 -4 -11 -25 -25 -45 -22 -32 -23 -37 -8 -34 10 2 28
22 41 46 20 35 21 42 8 42 -9 0 -16 -4 -16 -9z"/>
<path d="M10730 3003 c0 -5 12 -16 25 -26 19 -13 25 -15 25 -4 0 7 -5 18 -12
25 -13 13 -38 16 -38 5z"/>
<path d="M10633 2973 c-3 -10 -12 -25 -20 -35 -9 -10 -11 -18 -4 -22 10 -7 51
44 51 63 0 18 -20 13 -27 -6z"/>
<path d="M10690 2947 c0 -42 2 -46 30 -52 37 -8 85 2 101 21 18 22 4 28 -24 9
-14 -9 -38 -15 -54 -13 -24 3 -28 7 -29 37 0 19 -5 36 -12 39 -8 2 -12 -11
-12 -41z"/>
<path d="M10840 2982 c0 -14 46 -53 53 -45 4 3 -3 17 -15 30 -22 23 -38 30
-38 15z"/>
<path d="M855 2755 c-31 -25 -28 -33 6 -15 18 10 19 7 19 -80 l0 -90 -30 0
c-16 0 -30 -4 -30 -10 0 -6 28 -10 65 -10 37 0 65 4 65 10 0 6 -11 10 -25 10
l-25 0 0 105 c0 58 -3 105 -7 105 -5 0 -21 -11 -38 -25z"/>
<path d="M2490 2630 c0 -6 120 -10 340 -10 220 0 340 4 340 10 0 6 -120 10
-340 10 -220 0 -340 -4 -340 -10z"/>
<path d="M5011 2759 c-13 -11 -21 -22 -17 -26 3 -4 12 -1 18 5 23 23 28 11 28
-78 l0 -90 -30 0 c-16 0 -30 -4 -30 -10 0 -6 28 -10 65 -10 37 0 65 4 65 10 0
6 -11 10 -25 10 l-25 0 0 105 c0 113 -5 121 -49 84z"/>
<path d="M5146 2707 c-33 -24 -17 -59 34 -77 33 -11 45 -21 45 -35 0 -15 -8
-21 -33 -23 -18 -2 -40 2 -48 9 -21 17 -28 5 -9 -15 34 -33 115 -14 115 28 0
28 -13 39 -63 56 -27 8 -37 17 -35 28 4 21 54 28 74 11 8 -6 18 -9 22 -5 11
12 -29 36 -58 36 -14 0 -34 -6 -44 -13z"/>
<path d="M7697 2824 c-4 -4 5 -21 20 -38 l26 -31 -51 -3 c-29 -2 -52 -7 -52
-13 0 -12 197 -12 205 1 4 6 -13 10 -44 10 -37 0 -49 3 -45 13 5 15 -49 71
-59 61z"/>
<path d="M7322 2775 c-18 -26 -48 -53 -69 -62 -21 -10 -40 -18 -42 -20 -1 -1
0 -7 4 -13 9 -15 81 27 116 70 l29 35 15 -23 c25 -35 104 -85 123 -77 13 5 7
12 -29 30 -44 23 -99 76 -99 96 0 20 -18 7 -48 -36z"/>
<path d="M7601 2775 c-11 -25 -29 -59 -41 -74 -16 -24 -17 -30 -6 -34 8 -3 21
4 30 16 14 20 15 14 15 -81 1 -66 5 -101 11 -97 6 4 10 59 10 133 0 96 4 133
15 148 14 20 11 34 -6 34 -5 0 -17 -20 -28 -45z"/>
<path d="M7771 2648 c-20 -96 -23 -100 -87 -96 -30 1 -54 0 -54 -4 0 -5 53 -7
118 -6 64 1 96 3 70 5 -27 2 -48 5 -48 6 0 1 9 34 20 72 24 83 24 85 7 85 -8
0 -18 -24 -26 -62z"/>
<path d="M7280 2690 c0 -6 33 -10 80 -10 47 0 80 4 80 10 0 6 -33 10 -80 10
-47 0 -80 -4 -80 -10z"/>
<path d="M7672 2689 c2 -8 10 -35 17 -61 8 -29 19 -48 28 -48 15 0 14 4 -12
79 -11 33 -42 60 -33 30z"/>
<path d="M7270 2575 c0 -37 4 -65 10 -65 6 0 10 5 10 10 0 6 32 10 75 10 43 0
75 -4 75 -10 0 -5 5 -10 10 -10 6 0 10 28 10 65 l0 65 -95 0 -95 0 0 -65z
m170 10 l0 -35 -75 0 -75 0 0 35 0 35 75 0 75 0 0 -35z"/>
<path d="M10550 2813 c0 -3 7 -15 17 -25 15 -17 13 -18 -50 -18 l-67 0 0 -30
c0 -16 5 -30 10 -30 6 0 10 9 10 20 0 19 7 20 110 20 103 0 110 -1 110 -20 0
-11 5 -20 10 -20 6 0 10 14 10 30 0 30 0 30 -56 30 -30 0 -53 4 -50 9 3 5 -5
16 -19 25 -26 17 -35 20 -35 9z"/>
<path d="M10840 2733 c0 -47 -3 -83 -6 -80 -4 3 -20 -12 -36 -34 -37 -51 -27
-66 13 -19 l28 35 1 -62 c0 -62 1 -63 26 -61 30 3 64 42 90 104 l17 39 14 -35
c23 -54 63 -104 76 -91 7 7 1 20 -17 42 -28 32 -56 91 -56 115 0 10 13 14 40
14 22 0 40 5 40 10 0 6 -21 10 -46 10 l-46 0 4 50 c2 35 -1 50 -9 50 -9 0 -13
-17 -13 -50 l0 -50 -40 0 c-22 0 -40 -4 -40 -10 0 -5 16 -10 35 -10 29 0 35
-4 35 -20 0 -45 -56 -140 -82 -140 -6 0 -8 61 -6 140 2 107 0 140 -9 140 -10
0 -13 -24 -13 -87z"/>
<path d="M11238 2798 c-3 -21 -9 -23 -65 -26 -78 -4 -84 -22 -8 -22 30 0 55
-4 55 -9 0 -15 -79 -81 -97 -81 -12 0 -14 -3 -6 -11 18 -18 49 -1 98 53 l46
51 35 -42 c45 -52 93 -79 105 -59 6 9 0 15 -20 20 -30 8 -81 50 -81 68 0 5 22
10 50 10 28 0 50 5 50 10 0 6 -30 10 -71 10 -71 0 -71 0 -65 25 5 18 2 25 -8
25 -8 0 -16 -10 -18 -22z"/>
<path d="M11016 2765 c15 -23 34 -34 34 -19 0 16 -23 44 -36 44 -12 0 -12 -4
2 -25z"/>
<path d="M10780 2751 c0 -15 38 -56 45 -49 9 9 -21 58 -35 58 -6 0 -10 -4 -10
-9z"/>
<path d="M10509 2697 c-14 -12 -34 -27 -44 -33 -12 -6 -15 -13 -8 -17 10 -6
103 52 103 66 0 14 -25 6 -51 -16z"/>
<path d="M10610 2711 c0 -10 75 -61 90 -61 21 0 8 16 -34 43 -46 29 -56 32
-56 18z"/>
<path d="M11236 2692 c-7 -11 31 -48 41 -38 4 3 -2 16 -14 27 -11 12 -23 17
-27 11z"/>
<path d="M10480 2630 c0 -5 20 -10 45 -10 l45 0 0 -40 0 -40 -70 0 c-40 0 -70
-4 -70 -10 0 -6 55 -10 145 -10 90 0 145 4 145 10 0 6 -28 10 -65 10 l-65 0 0
40 0 40 45 0 c25 0 45 5 45 10 0 6 -40 10 -100 10 -60 0 -100 -4 -100 -10z"/>
<path d="M11236 2632 c-3 -5 5 -19 18 -31 16 -16 26 -19 31 -11 4 6 5 12 4 13
-2 1 -14 10 -26 20 -11 10 -24 14 -27 9z"/>
<path d="M11129 2575 c-22 -46 -7 -54 20 -11 24 39 26 46 9 46 -7 -1 -20 -16
-29 -35z"/>
<path d="M11200 2565 c0 -42 1 -44 34 -50 48 -9 106 11 106 36 0 14 -20 10
-37 -7 -9 -9 -28 -14 -47 -12 -28 3 -31 7 -34 41 -4 52 -22 46 -22 -8z"/>
<path d="M11340 2602 c0 -14 49 -56 57 -49 3 4 -4 18 -17 32 -24 25 -40 32
-40 17z"/>
<path d="M837 2382 c-18 -19 -23 -42 -9 -42 4 0 13 9 20 20 22 36 82 23 82
-18 0 -17 -19 -45 -60 -88 -33 -34 -60 -67 -60 -73 0 -7 26 -11 70 -11 84 0
94 18 13 22 l-58 3 58 56 c62 62 74 101 39 132 -25 22 -75 21 -95 -1z"/>
<path d="M2520 2306 c0 -90 1 -96 26 -115 46 -36 105 -27 129 20 17 31 21 189
6 189 -5 0 -11 -41 -13 -91 -3 -100 -15 -119 -69 -119 -48 0 -59 22 -59 121 0
53 -4 89 -10 89 -6 0 -10 -38 -10 -94z"/>
<path d="M2970 2285 c0 -70 4 -115 10 -115 6 0 10 45 10 115 0 70 -4 115 -10
115 -6 0 -10 -45 -10 -115z"/>
<path d="M2730 2330 c0 -5 20 -10 45 -10 25 0 45 -3 45 -6 0 -3 -22 -33 -50
-66 -27 -33 -50 -64 -50 -69 0 -5 35 -9 77 -9 86 0 91 17 6 22 l-52 3 54 65
c30 36 54 68 54 73 1 4 -28 7 -64 7 -37 0 -65 -4 -65 -10z"/>
<path d="M2890 2325 c0 -8 5 -15 10 -15 6 0 10 7 10 15 0 8 -4 15 -10 15 -5 0
-10 -7 -10 -15z"/>
<path d="M3030 2334 c0 -3 11 -21 24 -41 l25 -36 -30 -44 c-23 -33 -26 -43
-14 -43 8 0 15 3 15 8 1 4 11 20 24 35 l23 28 24 -35 c13 -20 30 -36 37 -36 8
0 2 17 -17 43 l-30 44 25 37 c33 48 21 61 -15 17 l-28 -34 -22 32 c-20 27 -41
41 -41 25z"/>
<path d="M2893 2165 c3 -46 17 -46 17 0 0 19 -4 35 -9 35 -5 0 -9 -16 -8 -35z"/>
<path d="M4864 2379 c-15 -17 -19 -36 -19 -94 0 -83 18 -115 65 -115 47 0 65
32 65 115 0 83 -18 115 -65 115 -15 0 -35 -9 -46 -21z m80 -21 c21 -30 21
-117 0 -146 -38 -54 -87 -2 -81 85 6 79 47 110 81 61z"/>
<path d="M5090 2390 c0 -6 26 -10 58 -10 l58 0 -33 -67 c-36 -73 -53 -143 -35
-143 6 0 16 24 22 53 6 28 24 76 40 106 17 30 30 58 30 63 0 4 -31 8 -70 8
-40 0 -70 -4 -70 -10z"/>
<path d="M5270 2326 c-23 -28 -8 -59 37 -76 53 -19 59 -26 43 -45 -15 -18 -61
-20 -78 -3 -6 6 -15 8 -19 4 -13 -12 28 -36 62 -36 39 0 70 30 61 58 -6 18
-23 28 -79 46 -23 8 -18 40 7 44 10 2 29 -2 42 -9 30 -15 40 -7 19 15 -20 20
-78 21 -95 2z"/>
<path d="M5030 2185 c0 -8 5 -15 10 -15 6 0 10 7 10 15 0 8 -4 15 -10 15 -5 0
-10 -7 -10 -15z"/>
<path d="M7322 2395 c-18 -26 -48 -53 -69 -62 -21 -10 -40 -18 -42 -20 -1 -1
0 -7 4 -13 9 -15 81 27 116 70 l29 35 15 -23 c25 -35 104 -85 123 -77 13 5 7
12 -29 30 -44 23 -99 76 -99 96 0 20 -18 7 -48 -36z"/>
<path d="M7601 2395 c-11 -25 -29 -59 -41 -74 -16 -24 -17 -30 -6 -34 8 -3 21
4 30 16 14 20 15 14 15 -81 1 -66 5 -101 11 -97 6 4 10 59 10 133 0 96 4 133
15 148 14 20 11 34 -6 34 -5 0 -17 -20 -28 -45z"/>
<path d="M7771 2268 c-20 -96 -23 -100 -87 -96 -30 1 -54 0 -54 -4 0 -5 53 -7
118 -6 64 1 96 3 70 5 -27 2 -48 5 -48 6 0 1 9 34 20 72 24 83 24 85 7 85 -8
0 -18 -24 -26 -62z"/>
<path d="M7280 2310 c0 -6 33 -10 80 -10 47 0 80 4 80 10 0 6 -33 10 -80 10
-47 0 -80 -4 -80 -10z"/>
<path d="M7672 2309 c2 -8 10 -35 17 -61 8 -29 19 -48 28 -48 15 0 14 4 -12
79 -11 33 -42 60 -33 30z"/>
<path d="M7270 2195 c0 -37 4 -65 10 -65 6 0 10 5 10 10 0 6 32 10 75 10 43 0
75 -4 75 -10 0 -5 5 -10 10 -10 6 0 10 28 10 65 l0 65 -95 0 -95 0 0 -65z
m170 10 l0 -35 -75 0 -75 0 0 35 0 35 75 0 75 0 0 -35z"/>
<path d="M10650 2405 c0 -31 -3 -35 -25 -35 -14 0 -25 -4 -25 -10 0 -5 11 -10
25 -10 23 0 25 -4 25 -44 0 -39 -3 -45 -25 -50 -14 -4 -23 -11 -20 -17 4 -5
15 -7 26 -4 17 6 19 1 19 -35 0 -33 -4 -42 -22 -49 -27 -10 -7 -25 22 -16 17
5 20 15 20 65 0 42 4 59 15 64 8 3 15 10 15 15 0 6 -7 8 -15 5 -12 -5 -15 2
-15 30 0 25 4 36 15 36 8 0 15 5 15 10 0 6 -7 10 -15 10 -10 0 -15 11 -15 35
0 19 -4 35 -10 35 -5 0 -10 -16 -10 -35z"/>
<path d="M10770 2434 c0 -4 8 -13 18 -20 15 -12 11 -13 -30 -14 -27 0 -48 -4
-48 -10 0 -6 37 -10 91 -10 57 0 88 4 84 10 -3 6 -22 10 -42 10 -20 0 -33 3
-30 7 9 9 -12 33 -29 33 -8 0 -14 -3 -14 -6z"/>
<path d="M10980 2395 c0 -41 -2 -45 -25 -45 -14 0 -25 -4 -25 -10 0 -5 11 -10
25 -10 24 0 25 -3 25 -55 0 -50 -2 -56 -26 -65 -14 -6 -23 -14 -19 -20 3 -6
26 -2 56 10 27 11 52 20 54 20 3 0 5 5 5 10 0 6 -11 8 -25 4 -24 -6 -25 -5
-25 45 0 44 3 51 20 51 11 0 20 5 20 10 0 6 -9 10 -20 10 -17 0 -20 7 -20 45
0 25 -4 45 -10 45 -5 0 -10 -20 -10 -45z"/>
<path d="M11128 2391 c3 -42 1 -49 -17 -54 -19 -5 -21 -1 -21 38 0 24 -4 47
-10 50 -6 4 -10 -14 -10 -45 0 -43 -3 -53 -20 -57 -26 -7 -26 -23 0 -23 17 0
19 -8 22 -77 l3 -78 66 -3 c51 -2 71 1 83 13 9 9 16 21 16 26 0 15 -20 10 -26
-6 -5 -11 -22 -15 -65 -15 l-60 0 3 77 c3 66 6 78 21 81 17 3 18 -3 16 -60 -2
-35 1 -62 7 -61 5 2 10 32 12 67 2 54 6 65 22 69 18 5 20 0 20 -44 0 -37 -4
-49 -15 -49 -8 0 -15 -4 -15 -8 0 -17 13 -21 31 -11 16 8 19 21 19 74 l0 65
-30 -6 c-30 -6 -30 -6 -30 40 0 30 -4 46 -12 46 -9 0 -12 -15 -10 -49z"/>
<path d="M10740 2362 c0 -15 28 -47 35 -40 8 8 -13 48 -25 48 -6 0 -10 -4 -10
-8z"/>
<path d="M10814 2339 c-14 -28 -19 -31 -55 -27 -21 2 -39 0 -39 -4 0 -5 37 -7
83 -7 45 1 69 4 54 6 -20 3 -27 9 -23 19 3 8 9 21 12 29 12 29 -16 15 -32 -16z"/>
<path d="M10764 2275 c-4 -9 -19 -15 -40 -15 -19 0 -34 -4 -34 -10 0 -5 11
-10 25 -10 27 0 32 -9 14 -27 -9 -9 -3 -15 21 -25 l33 -14 -41 -12 c-23 -7
-42 -17 -42 -22 0 -15 20 -12 67 9 41 19 42 19 77 0 28 -15 36 -16 36 -5 0 7
-13 19 -30 26 -29 12 -29 13 -14 41 10 20 22 29 39 29 14 0 25 5 25 10 0 6
-27 10 -60 10 -49 0 -58 3 -54 15 4 8 1 15 -5 15 -7 0 -14 -7 -17 -15z m56
-49 c0 -22 -23 -35 -47 -25 -15 5 -21 14 -17 24 8 19 64 21 64 1z"/>
<path d="M820 1993 c-14 -18 -17 -29 -10 -31 6 -2 18 5 26 17 24 34 84 25 84
-13 0 -28 -18 -46 -47 -46 -13 0 -23 -4 -23 -10 0 -5 13 -10 28 -10 15 0 33
-5 40 -12 15 -15 15 -51 0 -66 -19 -19 -66 -14 -80 8 -15 23 -28 26 -28 7 0
-41 75 -61 118 -31 29 20 30 77 2 97 -18 12 -18 15 -5 20 23 9 20 74 -4 87
-36 19 -78 12 -101 -17z"/>
<path d="M2490 1870 c0 -6 120 -10 340 -10 220 0 340 4 340 10 0 6 -120 10
-340 10 -220 0 -340 -4 -340 -10z"/>
<path d="M5011 1999 c-13 -11 -21 -22 -17 -26 3 -4 12 -1 18 5 23 23 28 11 28
-78 l0 -90 -30 0 c-16 0 -30 -4 -30 -10 0 -6 28 -10 65 -10 37 0 65 4 65 10 0
6 -11 10 -25 10 l-25 0 0 105 c0 113 -5 121 -49 84z"/>
<path d="M5146 1947 c-33 -24 -17 -59 34 -77 33 -11 45 -21 45 -35 0 -15 -8
-21 -33 -23 -18 -2 -40 2 -48 9 -21 17 -28 5 -9 -15 34 -33 115 -14 115 28 0
28 -13 39 -63 56 -27 8 -37 17 -35 28 4 21 54 28 74 11 8 -6 18 -9 22 -5 11
12 -29 36 -58 36 -14 0 -34 -6 -44 -13z"/>
<path d="M7322 2015 c-18 -26 -48 -53 -69 -62 -21 -10 -40 -18 -42 -20 -1 -1
0 -7 4 -13 9 -15 81 27 116 70 l29 35 15 -23 c25 -35 104 -85 123 -77 13 5 7
12 -29 30 -44 23 -99 76 -99 96 0 20 -18 7 -48 -36z"/>
<path d="M7601 2015 c-11 -25 -29 -59 -41 -74 -16 -24 -17 -30 -6 -34 8 -3 21
4 30 16 14 20 15 14 15 -81 1 -66 5 -101 11 -97 6 4 10 59 10 133 0 96 4 133
15 148 14 20 11 34 -6 34 -5 0 -17 -20 -28 -45z"/>
<path d="M7771 1888 c-20 -96 -23 -100 -87 -96 -30 1 -54 0 -54 -4 0 -5 53 -7
118 -6 64 1 96 3 70 5 -27 2 -48 5 -48 6 0 1 9 34 20 72 24 83 24 85 7 85 -8
0 -18 -24 -26 -62z"/>
<path d="M7280 1930 c0 -6 33 -10 80 -10 47 0 80 4 80 10 0 6 -33 10 -80 10
-47 0 -80 -4 -80 -10z"/>
<path d="M7672 1929 c2 -8 10 -35 17 -61 8 -29 19 -48 28 -48 15 0 14 4 -12
79 -11 33 -42 60 -33 30z"/>
<path d="M7270 1815 c0 -37 4 -65 10 -65 6 0 10 5 10 10 0 6 32 10 75 10 43 0
75 -4 75 -10 0 -5 5 -10 10 -10 6 0 10 28 10 65 l0 65 -95 0 -95 0 0 -65z
m170 10 l0 -35 -75 0 -75 0 0 35 0 35 75 0 75 0 0 -35z"/>
<path d="M11318 2018 c-42 -46 -43 -48 -25 -48 17 0 89 74 81 83 -12 11 -17 8
-56 -35z"/>
<path d="M10280 2030 c0 -6 28 -10 65 -10 l65 0 0 -115 0 -115 -30 0 -30 0 0
85 c0 64 -3 85 -13 85 -10 0 -12 -19 -9 -85 l5 -85 -37 0 c-20 0 -36 -4 -36
-10 0 -6 58 -10 155 -10 97 0 155 4 155 10 0 6 -30 10 -70 10 l-70 0 0 60 0
60 45 0 c25 0 45 5 45 10 0 6 -20 10 -45 10 l-45 0 0 45 0 45 60 0 c33 0 60 4
60 10 0 6 -52 10 -135 10 -83 0 -135 -4 -135 -10z"/>
<path d="M10960 2032 c0 -14 49 -56 57 -49 3 4 -4 18 -17 32 -24 25 -40 32
-40 17z"/>
<path d="M11400 2030 c0 -6 33 -10 80 -10 47 0 80 4 80 10 0 6 -33 10 -80 10
-47 0 -80 -4 -80 -10z"/>
<path d="M11040 2020 c0 -6 35 -10 85 -10 50 0 85 4 85 10 0 6 -35 10 -85 10
-50 0 -85 -4 -85 -10z"/>
<path d="M11360 1971 c0 -4 -18 -28 -40 -53 -38 -44 -45 -74 -8 -41 17 15 18
13 18 -55 0 -51 4 -72 13 -72 9 0 11 21 9 81 -3 70 -1 86 17 110 25 34 26 39
6 39 -8 0 -15 -4 -15 -9z"/>
<path d="M10670 1928 c0 -37 1 -38 35 -38 19 0 35 -4 35 -10 0 -5 -22 -10 -50
-10 l-50 0 0 -50 c0 -34 4 -50 13 -50 9 0 11 12 9 40 l-4 40 41 0 41 0 0 -50
c0 -27 5 -50 10 -50 6 0 10 23 10 50 l0 50 40 0 c36 0 40 -2 40 -26 0 -17 -6
-28 -20 -31 -30 -8 -24 -25 8 -21 25 3 27 7 30 51 l3 47 -51 0 c-32 0 -49 4
-45 10 3 6 19 10 36 10 27 0 29 3 29 38 l0 37 -80 0 -80 0 0 -37z m138 0 c3
-16 -5 -18 -57 -18 -55 0 -61 2 -61 20 0 19 5 21 57 18 46 -2 59 -7 61 -20z"/>
<path d="M11020 1940 c0 -5 16 -10 35 -10 19 0 35 -3 35 -6 0 -13 -44 -84 -52
-84 -4 0 -8 -7 -8 -16 0 -12 7 -14 28 -10 84 16 113 17 128 6 25 -22 27 -3 3
39 -15 27 -26 38 -32 32 -7 -7 -6 -15 2 -25 11 -13 9 -16 -12 -21 -13 -4 -36
-5 -51 -3 l-26 3 26 43 c25 41 26 42 80 42 30 0 54 5 54 10 0 6 -42 10 -105
10 -63 0 -105 -4 -105 -10z"/>
<path d="M11380 1930 c0 -6 28 -10 65 -10 l65 0 0 -74 0 -73 -26 5 c-20 4 -25
1 -22 -9 6 -19 36 -23 53 -9 11 9 15 34 15 86 0 72 1 74 25 74 14 0 25 5 25
10 0 6 -40 10 -100 10 -60 0 -100 -4 -100 -10z"/>
<path d="M10935 1920 c3 -5 15 -10 26 -10 16 0 19 -7 19 -49 0 -39 -4 -51 -22
-64 -28 -18 -18 -33 10 -16 16 10 27 9 61 -4 54 -22 196 -24 204 -3 5 12 -8
13 -71 9 -50 -3 -91 0 -117 9 l-40 13 -3 63 -3 62 -35 0 c-21 0 -33 -4 -29
-10z"/>
<path d="M860 1555 c-72 -107 -72 -105 -6 -105 53 0 56 -1 56 -25 0 -14 5 -25
10 -25 6 0 10 11 10 25 0 16 6 25 15 25 8 0 15 5 15 10 0 6 -7 10 -15 10 -12
0 -15 16 -15 80 0 45 -4 80 -10 80 -5 0 -32 -34 -60 -75z m50 -25 l0 -60 -40
0 c-22 0 -40 3 -40 6 0 5 73 113 78 114 1 0 2 -27 2 -60z"/>
<path d="M2520 1536 c0 -90 1 -96 26 -115 46 -36 105 -27 129 20 17 31 21 189
6 189 -5 0 -11 -41 -13 -91 -3 -100 -15 -119 -69 -119 -48 0 -59 22 -59 121 0
53 -4 89 -10 89 -6 0 -10 -38 -10 -94z"/>
<path d="M2970 1515 c0 -70 4 -115 10 -115 6 0 10 45 10 115 0 70 -4 115 -10
115 -6 0 -10 -45 -10 -115z"/>
<path d="M2730 1560 c0 -5 20 -10 45 -10 25 0 45 -3 45 -6 0 -3 -22 -33 -50
-66 -27 -33 -50 -64 -50 -69 0 -5 35 -9 77 -9 86 0 91 17 6 22 l-52 3 54 65
c30 36 54 68 54 73 1 4 -28 7 -64 7 -37 0 -65 -4 -65 -10z"/>
<path d="M2890 1555 c0 -8 5 -15 10 -15 6 0 10 7 10 15 0 8 -4 15 -10 15 -5 0
-10 -7 -10 -15z"/>
<path d="M3030 1564 c0 -3 11 -21 24 -41 l25 -36 -30 -44 c-23 -33 -26 -43
-14 -43 8 0 15 3 15 8 1 4 11 20 24 35 l23 28 24 -35 c13 -20 30 -36 37 -36 8
0 2 17 -17 43 l-30 44 25 37 c33 48 21 61 -15 17 l-28 -34 -22 32 c-20 27 -41
41 -41 25z"/>
<path d="M2893 1395 c3 -46 17 -46 17 0 0 19 -4 35 -9 35 -5 0 -9 -16 -8 -35z"/>
<path d="M4864 1609 c-15 -17 -19 -36 -19 -94 0 -83 18 -115 65 -115 47 0 65
32 65 115 0 83 -18 115 -65 115 -15 0 -35 -9 -46 -21z m80 -21 c21 -30 21
-117 0 -146 -38 -54 -87 -2 -81 85 6 79 47 110 81 61z"/>
<path d="M5090 1620 c0 -6 26 -10 58 -10 l58 0 -33 -67 c-36 -73 -53 -143 -35
-143 6 0 16 24 22 53 6 28 24 76 40 106 17 30 30 58 30 63 0 4 -31 8 -70 8
-40 0 -70 -4 -70 -10z"/>
<path d="M5270 1556 c-23 -28 -8 -59 37 -76 53 -19 59 -26 43 -45 -15 -18 -61
-20 -78 -3 -6 6 -15 8 -19 4 -13 -12 28 -36 62 -36 39 0 70 30 61 58 -6 18
-23 28 -79 46 -23 8 -18 40 7 44 10 2 29 -2 42 -9 30 -15 40 -7 19 15 -20 20
-78 21 -95 2z"/>
<path d="M5030 1415 c0 -8 5 -15 10 -15 6 0 10 7 10 15 0 8 -4 15 -10 15 -5 0
-10 -7 -10 -15z"/>
<path d="M7697 1674 c-4 -4 5 -21 20 -38 l26 -31 -51 -3 c-29 -2 -52 -7 -52
-13 0 -12 197 -12 205 1 4 6 -13 10 -44 10 -37 0 -49 3 -45 13 5 15 -49 71
-59 61z"/>
<path d="M7322 1625 c-18 -26 -48 -53 -69 -62 -21 -10 -40 -18 -42 -20 -1 -1
0 -7 4 -13 9 -15 81 27 116 70 l29 35 15 -23 c25 -35 104 -85 123 -77 13 5 7
12 -29 30 -44 23 -99 76 -99 96 0 20 -18 7 -48 -36z"/>
<path d="M7601 1625 c-11 -25 -29 -59 -41 -74 -16 -24 -17 -30 -6 -34 8 -3 21
4 30 16 14 20 15 14 15 -81 1 -66 5 -101 11 -97 6 4 10 59 10 133 0 96 4 133
15 148 14 20 11 34 -6 34 -5 0 -17 -20 -28 -45z"/>
<path d="M7771 1498 c-20 -96 -23 -100 -87 -96 -30 1 -54 0 -54 -4 0 -5 53 -7
118 -6 64 1 96 3 70 5 -27 2 -48 5 -48 6 0 1 9 34 20 72 24 83 24 85 7 85 -8
0 -18 -24 -26 -62z"/>
<path d="M7280 1540 c0 -6 33 -10 80 -10 47 0 80 4 80 10 0 6 -33 10 -80 10
-47 0 -80 -4 -80 -10z"/>
<path d="M7672 1539 c2 -8 10 -35 17 -61 8 -29 19 -48 28 -48 15 0 14 4 -12
79 -11 33 -42 60 -33 30z"/>
<path d="M7270 1425 c0 -37 4 -65 10 -65 6 0 10 5 10 10 0 6 32 10 75 10 43 0
75 -4 75 -10 0 -5 5 -10 10 -10 6 0 10 28 10 65 l0 65 -95 0 -95 0 0 -65z
m170 10 l0 -35 -75 0 -75 0 0 35 0 35 75 0 75 0 0 -35z"/>
<path d="M10650 1635 c0 -31 -3 -35 -25 -35 -14 0 -25 -4 -25 -10 0 -5 11 -10
25 -10 23 0 25 -4 25 -44 0 -39 -3 -45 -25 -50 -14 -4 -23 -11 -20 -17 4 -5
15 -7 26 -4 17 6 19 1 19 -35 0 -33 -4 -42 -22 -49 -27 -10 -7 -25 22 -16 17
5 20 15 20 65 0 42 4 59 15 64 8 3 15 10 15 15 0 6 -7 8 -15 5 -12 -5 -15 2
-15 30 0 25 4 36 15 36 8 0 15 5 15 10 0 6 -7 10 -15 10 -10 0 -15 11 -15 35
0 19 -4 35 -10 35 -5 0 -10 -16 -10 -35z"/>
<path d="M10770 1664 c0 -4 8 -13 18 -20 15 -12 11 -13 -30 -14 -27 0 -48 -4
-48 -10 0 -6 37 -10 91 -10 57 0 88 4 84 10 -3 6 -22 10 -42 10 -20 0 -33 3
-30 7 9 9 -12 33 -29 33 -8 0 -14 -3 -14 -6z"/>
<path d="M10980 1625 c0 -41 -2 -45 -25 -45 -14 0 -25 -4 -25 -10 0 -5 11 -10
25 -10 24 0 25 -3 25 -55 0 -50 -2 -56 -26 -65 -14 -6 -23 -14 -19 -20 3 -6
26 -2 56 10 27 11 52 20 54 20 3 0 5 5 5 10 0 6 -11 8 -25 4 -24 -6 -25 -5
-25 45 0 44 3 51 20 51 11 0 20 5 20 10 0 6 -9 10 -20 10 -17 0 -20 7 -20 45
0 25 -4 45 -10 45 -5 0 -10 -20 -10 -45z"/>
<path d="M11128 1621 c3 -42 1 -49 -17 -54 -19 -5 -21 -1 -21 38 0 24 -4 47
-10 50 -6 4 -10 -14 -10 -45 0 -43 -3 -53 -20 -57 -26 -7 -26 -23 0 -23 17 0
19 -8 22 -77 l3 -78 66 -3 c51 -2 71 1 83 13 9 9 16 21 16 26 0 15 -20 10 -26
-6 -5 -11 -22 -15 -65 -15 l-60 0 3 77 c3 66 6 78 21 81 17 3 18 -3 16 -60 -2
-35 1 -62 7 -61 5 2 10 32 12 67 2 54 6 65 22 69 18 5 20 0 20 -44 0 -37 -4
-49 -15 -49 -8 0 -15 -4 -15 -8 0 -17 13 -21 31 -11 16 8 19 21 19 74 l0 65
-30 -6 c-30 -6 -30 -6 -30 40 0 30 -4 46 -12 46 -9 0 -12 -15 -10 -49z"/>
<path d="M10740 1592 c0 -15 28 -47 35 -40 8 8 -13 48 -25 48 -6 0 -10 -4 -10
-8z"/>
<path d="M10814 1569 c-14 -28 -19 -31 -55 -27 -21 2 -39 0 -39 -4 0 -5 37 -7
83 -7 45 1 69 4 54 6 -20 3 -27 9 -23 19 3 8 9 21 12 29 12 29 -16 15 -32 -16z"/>
<path d="M10764 1505 c-4 -9 -19 -15 -40 -15 -19 0 -34 -4 -34 -10 0 -5 11
-10 25 -10 27 0 32 -9 14 -27 -9 -9 -3 -15 21 -25 l33 -14 -41 -12 c-23 -7
-42 -17 -42 -22 0 -15 20 -12 67 9 41 19 42 19 77 0 28 -15 36 -16 36 -5 0 7
-13 19 -30 26 -29 12 -29 13 -14 41 10 20 22 29 39 29 14 0 25 5 25 10 0 6
-27 10 -60 10 -49 0 -58 3 -54 15 4 8 1 15 -5 15 -7 0 -14 -7 -17 -15z m56
-49 c0 -22 -23 -35 -47 -25 -15 5 -21 14 -17 24 8 19 64 21 64 1z"/>
<path d="M827 1193 c-2 -32 -3 -60 0 -63 2 -2 13 1 23 8 44 27 80 8 80 -43 0
-17 -5 -36 -12 -43 -17 -17 -67 -15 -74 3 -8 19 -24 19 -24 0 0 -18 31 -35 64
-35 38 0 66 33 66 78 0 49 -27 76 -70 70 -28 -4 -30 -3 -30 29 0 32 1 33 45
33 25 0 45 5 45 10 0 6 -24 10 -54 10 l-54 0 -5 -57z"/>
<path d="M2490 1100 c0 -6 120 -10 340 -10 220 0 340 4 340 10 0 6 -120 10
-340 10 -220 0 -340 -4 -340 -10z"/>
<path d="M5001 1229 c-13 -11 -21 -22 -17 -26 3 -4 12 -1 18 5 23 23 28 11 28
-78 l0 -90 -30 0 c-16 0 -30 -4 -30 -10 0 -6 28 -10 65 -10 37 0 65 4 65 10 0
6 -11 10 -25 10 l-25 0 0 105 c0 113 -5 121 -49 84z"/>
<path d="M5137 1172 c-10 -10 -17 -23 -17 -29 0 -15 28 -36 64 -48 41 -13 43
-49 3 -53 -16 -2 -35 2 -43 9 -19 16 -30 4 -14 -16 14 -17 62 -20 91 -5 21 12
26 52 7 68 -7 5 -24 13 -38 17 -35 10 -50 24 -43 41 6 17 54 19 71 2 17 -17
28 -2 12 17 -17 21 -73 19 -93 -3z"/>
<path d="M7697 1294 c-4 -4 5 -21 20 -38 l26 -31 -51 -3 c-29 -2 -52 -7 -52
-13 0 -12 197 -12 205 1 4 6 -13 10 -44 10 -37 0 -49 3 -45 13 5 15 -49 71
-59 61z"/>
<path d="M7322 1245 c-18 -26 -48 -53 -69 -62 -21 -10 -40 -18 -42 -20 -1 -1
0 -7 4 -13 9 -15 81 27 116 70 l29 35 15 -23 c25 -35 104 -85 123 -77 13 5 7
12 -29 30 -44 23 -99 76 -99 96 0 20 -18 7 -48 -36z"/>
<path d="M7601 1245 c-11 -25 -29 -59 -41 -74 -16 -24 -17 -30 -6 -34 8 -3 21
4 30 16 14 20 15 14 15 -81 1 -66 5 -101 11 -97 6 4 10 59 10 133 0 96 4 133
15 148 14 20 11 34 -6 34 -5 0 -17 -20 -28 -45z"/>
<path d="M7771 1118 c-20 -96 -23 -100 -87 -96 -30 1 -54 0 -54 -4 0 -5 53 -7
118 -6 64 1 96 3 70 5 -27 2 -48 5 -48 6 0 1 9 34 20 72 24 83 24 85 7 85 -8
0 -18 -24 -26 -62z"/>
<path d="M7280 1160 c0 -6 33 -10 80 -10 47 0 80 4 80 10 0 6 -33 10 -80 10
-47 0 -80 -4 -80 -10z"/>
<path d="M7672 1159 c2 -8 10 -35 17 -61 8 -29 19 -48 28 -48 15 0 14 4 -12
79 -11 33 -42 60 -33 30z"/>
<path d="M7270 1045 c0 -37 4 -65 10 -65 6 0 10 5 10 10 0 6 32 10 75 10 43 0
75 -4 75 -10 0 -5 5 -10 10 -10 6 0 10 28 10 65 l0 65 -95 0 -95 0 0 -65z
m170 10 l0 -35 -75 0 -75 0 0 35 0 35 75 0 75 0 0 -35z"/>
<path d="M10738 1267 c-2 -21 -9 -33 -20 -35 -12 -2 -16 1 -13 10 5 14 -33 44
-43 34 -3 -3 3 -15 14 -27 l19 -21 -40 4 c-37 3 -40 1 -43 -24 -4 -32 13 -38
21 -8 5 18 14 20 116 20 104 0 111 -1 111 -20 0 -11 6 -20 13 -20 9 0 12 9 9
28 -3 25 -7 27 -38 24 -37 -5 -42 3 -18 29 9 10 11 19 5 23 -5 3 -19 -7 -31
-24 -27 -38 -44 -39 -38 0 3 18 0 31 -8 34 -8 3 -14 -6 -16 -27z"/>
<path d="M11318 1248 c-42 -46 -43 -48 -25 -48 17 0 89 74 81 83 -12 11 -17 8
-56 -35z"/>
<path d="M10280 1260 c0 -6 28 -10 65 -10 l65 0 0 -115 0 -115 -30 0 -30 0 0
85 c0 64 -3 85 -13 85 -10 0 -12 -19 -9 -85 l5 -85 -37 0 c-20 0 -36 -4 -36
-10 0 -6 58 -10 155 -10 97 0 155 4 155 10 0 6 -30 10 -70 10 l-70 0 0 60 0
60 45 0 c25 0 45 5 45 10 0 6 -20 10 -45 10 l-45 0 0 45 0 45 60 0 c33 0 60 4
60 10 0 6 -52 10 -135 10 -83 0 -135 -4 -135 -10z"/>
<path d="M10960 1262 c0 -14 49 -56 57 -49 3 4 -4 18 -17 32 -24 25 -40 32
-40 17z"/>
<path d="M11400 1260 c0 -6 33 -10 80 -10 47 0 80 4 80 10 0 6 -33 10 -80 10
-47 0 -80 -4 -80 -10z"/>
<path d="M11040 1250 c0 -6 35 -10 85 -10 50 0 85 4 85 10 0 6 -35 10 -85 10
-50 0 -85 -4 -85 -10z"/>
<path d="M11360 1201 c0 -4 -18 -28 -40 -53 -38 -44 -45 -74 -8 -41 17 15 18
13 18 -55 0 -51 4 -72 13 -72 9 0 11 21 9 81 -3 70 -1 86 17 110 25 34 26 39
6 39 -8 0 -15 -4 -15 -9z"/>
<path d="M10670 1158 c0 -37 1 -38 35 -38 19 0 35 -4 35 -10 0 -5 -22 -10 -50
-10 l-50 0 0 -50 c0 -34 4 -50 13 -50 9 0 11 12 9 40 l-4 40 41 0 41 0 0 -50
c0 -27 5 -50 10 -50 6 0 10 23 10 50 l0 50 40 0 c36 0 40 -2 40 -26 0 -17 -6
-28 -20 -31 -30 -8 -24 -25 8 -21 25 3 27 7 30 51 l3 47 -51 0 c-32 0 -49 4
-45 10 3 6 19 10 36 10 27 0 29 3 29 38 l0 37 -80 0 -80 0 0 -37z m138 0 c3
-16 -5 -18 -57 -18 -55 0 -61 2 -61 20 0 19 5 21 57 18 46 -2 59 -7 61 -20z"/>
<path d="M11020 1170 c0 -5 16 -10 35 -10 19 0 35 -3 35 -6 0 -13 -44 -84 -52
-84 -4 0 -8 -7 -8 -16 0 -12 7 -14 28 -10 84 16 113 17 128 6 25 -22 27 -3 3
39 -15 27 -26 38 -32 32 -7 -7 -6 -15 2 -25 11 -13 9 -16 -12 -21 -13 -4 -36
-5 -51 -3 l-26 3 26 43 c25 41 26 42 80 42 30 0 54 5 54 10 0 6 -42 10 -105
10 -63 0 -105 -4 -105 -10z"/>
<path d="M11380 1160 c0 -6 28 -10 65 -10 l65 0 0 -74 0 -73 -26 5 c-20 4 -25
1 -22 -9 6 -19 36 -23 53 -9 11 9 15 34 15 86 0 72 1 74 25 74 14 0 25 5 25
10 0 6 -40 10 -100 10 -60 0 -100 -4 -100 -10z"/>
<path d="M10935 1150 c3 -5 15 -10 26 -10 16 0 19 -7 19 -49 0 -39 -4 -51 -22
-64 -28 -18 -18 -33 10 -16 16 10 27 9 61 -4 54 -22 196 -24 204 -3 5 12 -8
13 -71 9 -50 -3 -91 0 -117 9 l-40 13 -3 63 -3 62 -35 0 c-21 0 -33 -4 -29
-10z"/>
<path d="M842 848 c-47 -51 -34 -183 21 -202 46 -17 81 9 85 63 2 30 -2 49
-14 62 -19 21 -64 25 -82 7 -9 -9 -12 -7 -12 11 0 52 46 81 78 49 17 -17 28
-2 12 17 -18 22 -63 18 -88 -7z m76 -90 c17 -17 15 -73 -2 -88 -24 -19 -59 -8
-74 23 -12 24 -11 31 2 53 18 26 54 32 74 12z"/>
<path d="M2520 776 c0 -90 1 -96 26 -115 46 -36 105 -27 129 20 17 31 21 189
6 189 -5 0 -11 -41 -13 -91 -3 -100 -15 -119 -69 -119 -48 0 -59 22 -59 121 0
53 -4 89 -10 89 -6 0 -10 -38 -10 -94z"/>
<path d="M2970 755 c0 -70 4 -115 10 -115 6 0 10 45 10 115 0 70 -4 115 -10
115 -6 0 -10 -45 -10 -115z"/>
<path d="M2730 800 c0 -5 20 -10 45 -10 25 0 45 -3 45 -6 0 -3 -22 -33 -50
-66 -27 -33 -50 -64 -50 -69 0 -5 35 -9 77 -9 86 0 91 17 6 22 l-52 3 54 65
c30 36 54 68 54 73 1 4 -28 7 -64 7 -37 0 -65 -4 -65 -10z"/>
<path d="M2890 795 c0 -8 5 -15 10 -15 6 0 10 7 10 15 0 8 -4 15 -10 15 -5 0
-10 -7 -10 -15z"/>
<path d="M3030 804 c0 -3 11 -21 24 -41 l25 -36 -30 -44 c-23 -33 -26 -43 -14
-43 8 0 15 3 15 8 1 4 11 20 24 35 l23 28 24 -35 c13 -20 30 -36 37 -36 8 0 2
17 -17 43 l-30 44 25 37 c33 48 21 61 -15 17 l-28 -34 -22 32 c-20 27 -41 41
-41 25z"/>
<path d="M2893 635 c3 -46 17 -46 17 0 0 19 -4 35 -9 35 -5 0 -9 -16 -8 -35z"/>
<path d="M4975 890 c18 -20 17 -20 -28 -20 -46 0 -47 -1 -47 -30 0 -19 5 -30
14 -30 9 0 12 7 9 20 -5 19 0 20 66 20 64 0 71 -2 71 -20 0 -11 5 -20 10 -20
6 0 10 14 10 30 0 29 -2 30 -42 30 -23 0 -38 3 -35 7 10 9 -13 33 -31 33 -13
0 -12 -3 3 -20z"/>
<path d="M5290 905 c0 -3 9 -23 20 -45 27 -53 89 -115 102 -102 7 7 -3 22 -30
46 -22 20 -47 52 -56 71 -14 30 -36 48 -36 30z"/>
<path d="M5195 850 c-14 -27 -36 -57 -50 -66 -14 -9 -25 -20 -25 -25 0 -14 26
-11 39 4 6 8 23 12 41 9 24 -3 30 -9 30 -29 0 -33 -24 -77 -56 -102 -32 -25
-23 -48 10 -26 25 17 62 82 71 128 5 23 10 27 41 27 l35 0 -3 -62 c-3 -61 -4
-63 -31 -66 -16 -2 -27 -8 -24 -15 6 -19 32 -19 55 0 17 15 21 32 24 88 l3 70
-82 3 c-46 2 -83 4 -83 6 0 2 11 24 25 47 27 48 30 59 15 59 -5 0 -21 -22 -35
-50z"/>
<path d="M4926 783 c-39 -46 -24 -55 20 -11 25 24 32 37 22 40 -7 3 -26 -10
-42 -29z"/>
<path d="M5010 802 c0 -14 49 -56 57 -49 3 4 -4 18 -17 32 -24 25 -40 32 -40
17z"/>
<path d="M4920 720 c0 -5 14 -10 30 -10 28 0 30 -3 30 -35 0 -35 0 -35 -45
-35 -25 0 -45 -4 -45 -10 0 -6 40 -10 100 -10 60 0 100 4 100 10 0 6 -20 10
-45 10 -45 0 -45 0 -45 35 0 32 2 35 29 35 17 0 33 5 36 10 4 6 -22 10 -69 10
-44 0 -76 -4 -76 -10z"/>
<path d="M7322 865 c-18 -26 -48 -53 -69 -62 -21 -10 -40 -18 -42 -20 -1 -1 0
-7 4 -13 9 -15 81 27 116 70 l29 35 15 -23 c25 -35 104 -85 123 -77 13 5 7 12
-29 30 -44 23 -99 76 -99 96 0 20 -18 7 -48 -36z"/>
<path d="M7601 865 c-11 -25 -29 -59 -41 -74 -16 -24 -17 -30 -6 -34 8 -3 21
4 30 16 14 20 15 14 15 -81 1 -66 5 -101 11 -97 6 4 10 59 10 133 0 96 4 133
15 148 14 20 11 34 -6 34 -5 0 -17 -20 -28 -45z"/>
<path d="M7771 738 c-20 -96 -23 -100 -87 -96 -30 1 -54 0 -54 -4 0 -5 53 -7
118 -6 64 1 96 3 70 5 -27 2 -48 5 -48 6 0 1 9 34 20 72 24 83 24 85 7 85 -8
0 -18 -24 -26 -62z"/>
<path d="M7280 780 c0 -6 33 -10 80 -10 47 0 80 4 80 10 0 6 -33 10 -80 10
-47 0 -80 -4 -80 -10z"/>
<path d="M7672 779 c2 -8 10 -35 17 -61 8 -29 19 -48 28 -48 15 0 14 4 -12 79
-11 33 -42 60 -33 30z"/>
<path d="M7270 665 c0 -37 4 -65 10 -65 6 0 10 5 10 10 0 6 32 10 75 10 43 0
75 -4 75 -10 0 -5 5 -10 10 -10 6 0 10 28 10 65 l0 65 -95 0 -95 0 0 -65z
m170 10 l0 -35 -75 0 -75 0 0 35 0 35 75 0 75 0 0 -35z"/>
<path d="M9630 875 c0 -28 -4 -35 -20 -35 -11 0 -20 -4 -20 -10 0 -5 9 -10 20
-10 17 0 20 -7 20 -44 0 -36 -4 -46 -20 -51 -11 -3 -20 -11 -20 -17 0 -6 9 -8
20 -5 18 5 20 0 20 -39 0 -32 -4 -44 -15 -44 -8 0 -15 -5 -15 -11 0 -6 10 -9
23 -7 19 3 23 10 27 62 3 35 10 61 18 64 6 2 12 -1 12 -7 0 -6 12 -11 26 -11
22 0 24 -2 14 -15 -13 -16 -6 -35 15 -35 33 0 22 -20 -16 -30 -31 -9 -39 -14
-30 -23 8 -8 24 -6 60 10 48 20 50 20 79 3 28 -17 42 -17 42 0 0 4 -14 13 -30
20 -17 7 -28 18 -25 24 3 6 8 19 11 29 4 11 17 17 35 17 16 0 29 5 29 10 0 6
-27 10 -61 10 -34 0 -58 4 -54 9 3 5 0 13 -6 17 -6 4 -16 -1 -21 -10 -12 -21
-68 -22 -68 -1 0 9 -6 12 -15 9 -11 -5 -15 2 -15 26 0 23 5 33 20 37 27 7 26
23 -1 23 -19 0 -21 4 -16 35 4 26 2 35 -9 35 -9 0 -14 -11 -14 -35z m180 -171
c0 -21 -22 -42 -40 -37 -44 12 -36 43 11 43 16 0 29 -3 29 -6z"/>
<path d="M9969 903 c-1 -5 0 -25 1 -45 1 -35 -1 -38 -24 -38 -14 0 -26 -4 -26
-10 0 -5 11 -10 25 -10 24 0 25 -3 25 -55 0 -50 -2 -56 -25 -65 -14 -5 -25
-15 -25 -21 0 -7 7 -8 18 -4 9 4 36 14 60 22 45 16 59 39 17 29 -24 -6 -25 -5
-25 44 0 43 3 50 20 50 11 0 20 5 20 10 0 6 -9 10 -20 10 -17 0 -20 7 -20 45
0 25 -4 45 -10 45 -5 0 -10 -3 -11 -7z"/>
<path d="M10110 860 c0 -27 -2 -50 -4 -50 -2 0 -12 -3 -21 -7 -15 -5 -17 0
-14 40 3 33 0 47 -8 47 -9 0 -13 -17 -13 -50 0 -43 -3 -50 -20 -50 -11 0 -20
-4 -20 -10 0 -5 9 -10 20 -10 18 0 20 -7 20 -68 0 -40 5 -73 12 -80 7 -7 39
-12 73 -12 47 0 66 4 78 18 21 23 21 32 3 32 -8 0 -17 -7 -20 -16 -4 -12 -19
-14 -63 -12 l-58 3 -3 69 c-3 66 4 85 31 86 4 0 7 -27 7 -59 0 -33 5 -63 10
-66 6 -4 10 20 10 63 0 66 1 70 25 74 24 5 25 3 25 -38 0 -31 -5 -46 -17 -53
-13 -7 -15 -13 -7 -21 23 -23 44 17 44 81 l0 60 -36 -7 -36 -7 3 47 c3 32 0
46 -8 46 -9 0 -13 -17 -13 -50z"/>
<path d="M10518 888 c-44 -69 -51 -178 -15 -248 12 -24 28 -46 35 -48 7 -2 2
16 -13 44 -34 64 -34 148 0 222 24 52 20 71 -7 30z"/>
<path d="M10701 868 c-19 -21 -52 -48 -74 -60 -27 -13 -36 -23 -29 -30 13 -13
44 4 102 58 l47 44 24 -26 c37 -40 99 -76 117 -69 13 5 8 11 -23 27 -57 30
-105 68 -105 84 0 25 -24 13 -59 -28z"/>
<path d="M10990 875 c0 -32 -2 -35 -30 -35 -16 0 -30 -4 -30 -10 0 -5 14 -10
30 -10 28 0 30 -3 30 -36 0 -31 -4 -37 -30 -47 -17 -6 -28 -16 -26 -22 4 -11
10 -11 39 0 15 6 17 1 17 -39 0 -39 -3 -46 -20 -46 -11 0 -20 -4 -20 -9 0 -17
19 -22 40 -11 16 9 20 21 20 66 0 38 4 56 14 60 8 3 17 12 20 20 4 12 1 14
-14 9 -17 -5 -20 -2 -20 24 0 24 4 31 20 31 11 0 20 5 20 10 0 6 -9 10 -21 10
-18 0 -21 5 -17 35 3 24 0 35 -9 35 -8 0 -13 -13 -13 -35z"/>
<path d="M11810 860 c0 -49 -1 -50 -30 -50 l-31 0 3 -72 c2 -40 7 -73 12 -73
5 0 9 28 7 63 l-2 62 50 0 51 0 0 -60 c0 -33 4 -60 10 -60 6 0 10 30 10 70 l0
70 -31 0 c-31 0 -31 0 -27 50 2 35 -1 50 -9 50 -9 0 -13 -17 -13 -50z"/>
<path d="M11970 907 c0 -4 10 -26 22 -49 39 -73 32 -160 -20 -260 -2 -5 0 -8
5 -8 17 0 54 79 60 128 7 59 -17 150 -47 177 -11 10 -20 15 -20 12z"/>
<path d="M11320 893 c1 -15 39 -58 46 -51 8 9 -22 58 -36 58 -6 0 -10 -3 -10
-7z"/>
<path d="M11660 888 c0 -6 -11 -26 -26 -45 -19 -24 -21 -33 -10 -33 8 0 18 5
21 10 3 6 26 10 51 10 24 0 44 5 44 10 0 6 -16 10 -35 10 -34 0 -46 12 -25 25
15 9 12 25 -5 25 -8 0 -15 -5 -15 -12z"/>
<path d="M11070 745 c0 -86 4 -145 10 -145 5 0 10 35 12 78 l3 77 27 -48 27
-47 -25 -16 c-13 -9 -24 -20 -24 -25 0 -16 26 -10 45 10 17 20 17 20 46 -1 22
-17 32 -19 41 -10 8 8 5 14 -14 21 -36 14 -40 24 -23 65 26 61 22 66 -45 66
l-60 0 0 50 0 50 51 0 c43 0 50 -3 45 -16 -3 -9 -6 -20 -6 -25 0 -5 -12 -9
-26 -9 -16 0 -24 -5 -21 -12 4 -14 46 -13 60 1 4 4 10 24 14 44 l6 37 -72 0
-71 0 0 -145z m109 -25 c-13 -37 -22 -38 -37 -5 -16 35 -16 35 17 35 29 0 30
-1 20 -30z"/>
<path d="M11740 879 c0 -19 37 -55 47 -45 4 3 -5 19 -20 34 -20 19 -27 22 -27
11z"/>
<path d="M11868 860 c-9 -16 -13 -32 -9 -34 10 -6 52 50 44 58 -11 11 -18 6
-35 -24z"/>
<path d="M11400 870 c0 -6 30 -10 70 -10 l70 0 0 -120 c0 -113 -1 -120 -20
-120 -11 0 -20 -4 -20 -10 0 -14 33 -13 48 2 8 8 12 54 12 140 l0 128 -80 0
c-47 0 -80 -4 -80 -10z"/>
<path d="M9720 832 c0 -14 36 -43 43 -35 4 3 0 15 -10 25 -17 19 -33 24 -33
10z"/>
<path d="M9800 811 c-10 -26 -18 -30 -59 -34 -28 -2 -15 -4 37 -5 45 -1 82 2
82 7 0 4 -12 6 -27 3 l-27 -5 17 26 c21 32 21 37 3 37 -7 0 -19 -13 -26 -29z"/>
<path d="M11300 720 c0 -73 4 -120 10 -120 6 0 10 47 10 120 0 73 -4 120 -10
120 -6 0 -10 -47 -10 -120z"/>
<path d="M11440 815 c0 -23 -3 -25 -50 -25 -27 0 -50 -4 -50 -10 0 -5 16 -10
35 -10 19 0 35 -3 35 -7 0 -17 -40 -73 -61 -83 -15 -8 -18 -15 -10 -23 14 -14
36 6 73 62 l28 45 0 -57 c0 -44 -3 -57 -15 -57 -8 0 -15 -7 -15 -15 0 -8 6
-15 13 -15 26 0 37 25 37 87 l0 63 30 0 c17 0 30 5 30 10 0 6 -13 10 -30 10
-25 0 -30 4 -30 25 0 14 -4 25 -10 25 -5 0 -10 -11 -10 -25z"/>
<path d="M11635 790 c-3 -5 3 -10 14 -10 16 0 21 -6 21 -25 0 -20 -5 -25 -25
-25 -14 0 -25 -4 -25 -10 0 -5 12 -10 26 -10 26 0 26 -2 22 -45 -3 -25 -1 -45
4 -45 18 0 58 33 58 48 0 13 -3 12 -20 -3 -20 -18 -20 -17 -20 13 0 27 4 32
25 32 14 0 25 5 25 10 0 6 -11 10 -25 10 -20 0 -25 5 -25 25 0 18 5 25 20 25
11 0 20 5 20 10 0 6 -20 10 -44 10 -25 0 -48 -4 -51 -10z"/>
<path d="M10670 780 c0 -6 31 -10 74 -10 41 0 78 5 81 10 4 6 -23 10 -74 10
-47 0 -81 -4 -81 -10z"/>
<path d="M11800 716 c0 -37 -5 -48 -31 -70 -17 -14 -36 -26 -42 -26 -8 0 -8
-3 0 -11 8 -8 19 -7 40 6 39 23 52 46 60 100 5 38 3 45 -11 45 -12 0 -16 -10
-16 -44z"/>
<path d="M10610 720 c0 -5 26 -10 58 -10 l57 -1 -48 -44 c-28 -25 -43 -46 -37
-50 6 -4 49 -4 95 0 63 6 89 4 100 -5 9 -7 18 -10 21 -7 8 7 -54 87 -66 87
-17 0 -19 -18 -4 -31 15 -12 14 -14 -7 -20 -13 -4 -42 -7 -64 -8 l-40 0 37 34
c20 18 34 36 30 39 -3 3 27 6 66 6 41 0 72 4 72 10 0 6 -52 10 -135 10 -83 0
-135 -4 -135 -10z"/>
<path d="M11836 662 c-2 -4 10 -20 29 -35 38 -30 57 -21 22 10 -31 28 -45 35
-51 25z"/>
<path d="M810 470 c0 -6 27 -10 60 -10 l61 0 -25 -42 c-21 -38 -56 -136 -56
-160 0 -4 7 -8 15 -8 10 0 15 10 15 33 0 18 16 65 35 106 19 40 35 77 35 82 0
5 -31 9 -70 9 -40 0 -70 -4 -70 -10z"/>
<path d="M2490 330 c0 -6 120 -10 340 -10 220 0 340 4 340 10 0 6 -120 10
-340 10 -220 0 -340 -4 -340 -10z"/>
<path d="M5011 459 c-13 -11 -21 -22 -17 -26 3 -4 12 -1 18 5 23 23 28 11 28
-78 l0 -90 -30 0 c-16 0 -30 -4 -30 -10 0 -6 28 -10 65 -10 37 0 65 4 65 10 0
6 -11 10 -25 10 l-25 0 0 105 c0 113 -5 121 -49 84z"/>
<path d="M5146 407 c-33 -24 -17 -59 34 -77 33 -11 45 -21 45 -35 0 -15 -8
-21 -33 -23 -18 -2 -40 2 -48 9 -21 17 -28 5 -9 -15 34 -33 115 -14 115 28 0
28 -13 39 -63 56 -27 8 -37 17 -35 28 4 21 54 28 74 11 8 -6 18 -9 22 -5 11
12 -29 36 -58 36 -14 0 -34 -6 -44 -13z"/>
<path d="M7697 524 c-4 -4 5 -21 20 -38 l26 -31 -51 -3 c-29 -2 -52 -7 -52
-13 0 -12 197 -12 205 1 4 6 -13 10 -44 10 -37 0 -49 3 -45 13 5 15 -49 71
-59 61z"/>
<path d="M7380 507 c0 -19 52 -98 84 -126 18 -17 29 -22 37 -14 7 7 -1 18 -24
36 -18 14 -44 46 -58 71 -24 45 -39 58 -39 33z"/>
<path d="M7601 475 c-11 -25 -29 -59 -41 -74 -16 -24 -17 -30 -6 -34 8 -3 21
4 30 16 14 20 15 14 15 -81 1 -66 5 -101 11 -97 6 4 10 59 10 133 0 96 4 133
15 148 14 20 11 34 -6 34 -5 0 -17 -20 -28 -45z"/>
<path d="M7296 484 c-4 -14 -25 -45 -48 -70 -44 -48 -45 -73 -2 -33 27 25 84
107 84 121 0 20 -29 5 -34 -18z"/>
<path d="M7771 348 c-20 -96 -23 -100 -87 -96 -30 1 -54 0 -54 -4 0 -5 53 -7
118 -6 64 1 96 3 70 5 -27 2 -48 5 -48 6 0 1 9 34 20 72 24 83 24 85 7 85 -8
0 -18 -24 -26 -62z"/>
<path d="M7270 390 c0 -5 11 -10 25 -10 18 0 25 -5 25 -20 0 -38 -29 -90 -60
-108 -31 -18 -36 -27 -21 -36 14 -9 72 44 87 81 8 18 14 44 14 58 0 23 4 25
40 25 l40 0 0 -42 c0 -68 -9 -88 -37 -88 -15 0 -23 -5 -21 -12 7 -19 31 -21
53 -4 16 11 20 29 23 90 l4 76 -86 0 c-51 0 -86 -4 -86 -10z"/>
<path d="M7672 389 c2 -8 10 -35 17 -61 8 -29 19 -48 28 -48 15 0 14 4 -12 79
-11 33 -42 60 -33 30z"/>
<path d="M10738 497 c-2 -21 -9 -33 -20 -35 -12 -2 -16 1 -13 10 5 14 -33 44
-43 34 -3 -3 3 -15 14 -27 l19 -21 -40 4 c-37 3 -40 1 -43 -24 -4 -32 13 -38
21 -8 5 18 14 20 116 20 104 0 111 -1 111 -20 0 -11 6 -20 13 -20 9 0 12 9 9
28 -3 25 -7 27 -38 24 -37 -5 -42 3 -18 29 9 10 11 19 5 23 -5 3 -19 -7 -31
-24 -27 -38 -44 -39 -38 0 3 18 0 31 -8 34 -8 3 -14 -6 -16 -27z"/>
<path d="M11318 478 c-42 -46 -43 -48 -25 -48 17 0 89 74 81 83 -12 11 -17 8
-56 -35z"/>
<path d="M10280 490 c0 -6 28 -10 65 -10 l65 0 0 -115 0 -115 -30 0 -30 0 0
85 c0 64 -3 85 -13 85 -10 0 -12 -19 -9 -85 l5 -85 -37 0 c-20 0 -36 -4 -36
-10 0 -6 58 -10 155 -10 97 0 155 4 155 10 0 6 -30 10 -70 10 l-70 0 0 60 0
60 45 0 c25 0 45 5 45 10 0 6 -20 10 -45 10 l-45 0 0 45 0 45 60 0 c33 0 60 4
60 10 0 6 -52 10 -135 10 -83 0 -135 -4 -135 -10z"/>
<path d="M10960 492 c0 -14 49 -56 57 -49 3 4 -4 18 -17 32 -24 25 -40 32 -40
17z"/>
<path d="M11400 490 c0 -6 33 -10 80 -10 47 0 80 4 80 10 0 6 -33 10 -80 10
-47 0 -80 -4 -80 -10z"/>
<path d="M11040 480 c0 -6 35 -10 85 -10 50 0 85 4 85 10 0 6 -35 10 -85 10
-50 0 -85 -4 -85 -10z"/>
<path d="M11360 431 c0 -4 -18 -28 -40 -53 -38 -44 -45 -74 -8 -41 17 15 18
13 18 -55 0 -51 4 -72 13 -72 9 0 11 21 9 81 -3 70 -1 86 17 110 25 34 26 39
6 39 -8 0 -15 -4 -15 -9z"/>
<path d="M10670 388 c0 -37 1 -38 35 -38 19 0 35 -4 35 -10 0 -5 -22 -10 -50
-10 l-50 0 0 -50 c0 -34 4 -50 13 -50 9 0 11 12 9 40 l-4 40 41 0 41 0 0 -50
c0 -27 5 -50 10 -50 6 0 10 23 10 50 l0 50 40 0 c36 0 40 -2 40 -26 0 -17 -6
-28 -20 -31 -30 -8 -24 -25 8 -21 25 3 27 7 30 51 l3 47 -51 0 c-32 0 -49 4
-45 10 3 6 19 10 36 10 27 0 29 3 29 38 l0 37 -80 0 -80 0 0 -37z m138 0 c3
-16 -5 -18 -57 -18 -55 0 -61 2 -61 20 0 19 5 21 57 18 46 -2 59 -7 61 -20z"/>
<path d="M11020 400 c0 -5 16 -10 35 -10 19 0 35 -3 35 -6 0 -13 -44 -84 -52
-84 -4 0 -8 -7 -8 -16 0 -12 7 -14 28 -10 84 16 113 17 128 6 25 -22 27 -3 3
39 -15 27 -26 38 -32 32 -7 -7 -6 -15 2 -25 11 -13 9 -16 -12 -21 -13 -4 -36
-5 -51 -3 l-26 3 26 43 c25 41 26 42 80 42 30 0 54 5 54 10 0 6 -42 10 -105
10 -63 0 -105 -4 -105 -10z"/>
<path d="M11380 390 c0 -6 28 -10 65 -10 l65 0 0 -74 0 -73 -26 5 c-20 4 -25
1 -22 -9 6 -19 36 -23 53 -9 11 9 15 34 15 86 0 72 1 74 25 74 14 0 25 5 25
10 0 6 -40 10 -100 10 -60 0 -100 -4 -100 -10z"/>
<path d="M10935 380 c3 -5 15 -10 26 -10 16 0 19 -7 19 -49 0 -39 -4 -51 -22
-64 -28 -18 -18 -33 10 -16 16 10 27 9 61 -4 54 -22 196 -24 204 -3 5 12 -8
13 -71 9 -50 -3 -91 0 -117 9 l-40 13 -3 63 -3 62 -35 0 c-21 0 -33 -4 -29
-10z"/>
</g>
</svg>
