<?xml version="1.0" standalone="no"?>
<!DOCTYPE svg PUBLIC "-//W3C//DTD SVG 20010904//EN"
 "http://www.w3.org/TR/2001/REC-SVG-20010904/DTD/svg10.dtd">
<svg version="1.0" xmlns="http://www.w3.org/2000/svg"
 width="1149.000000pt" height="289.000000pt" viewBox="0 0 1149.000000 289.000000"
 preserveAspectRatio="xMidYMid meet">

<g transform="translate(0.000000,289.000000) scale(0.100000,-0.100000)"
fill="#000000" stroke="none">
<path d="M77 2783 c-4 -3 -7 -613 -7 -1355 l0 -1348 5665 0 5665 0 0 1355 0
1355 -5658 0 c-3112 0 -5662 -3 -5665 -7z m11293 -198 l0 -175 -5630 0 -5630
0 0 175 0 175 5630 0 5630 0 0 -175z m-9030 -390 l0 -175 -1115 0 -1115 0 0
175 0 175 1115 0 1115 0 0 -175z m2808 3 l-3 -173 -1387 -3 -1388 -2 0 175 0
175 1390 0 1390 0 -2 -172z m3030 0 l-3 -173 -1497 -3 -1498 -2 0 175 0 175
1500 0 1500 0 -2 -172z m3192 -3 l0 -175 -1580 0 -1580 0 0 175 0 175 1580 0
1580 0 0 -175z m-9030 -380 l0 -175 -1115 0 -1115 0 0 175 0 175 1115 0 1115
0 0 -175z m1007 168 c-4 -3 0 -15 10 -25 15 -17 14 -18 -25 -18 -35 0 -42 -3
-42 -20 0 -11 5 -20 10 -20 6 0 10 7 10 15 0 8 7 15 15 15 22 0 18 -19 -10
-56 -14 -18 -21 -35 -15 -39 5 -3 17 6 26 20 17 26 70 37 61 13 -2 -7 -14 -13
-26 -12 -16 0 -20 -4 -15 -18 4 -13 -3 -23 -25 -36 -33 -18 -40 -32 -16 -32
11 0 15 -12 15 -45 0 -25 5 -45 10 -45 6 0 10 5 10 11 0 8 12 10 35 6 l35 -6
0 45 0 44 -42 0 -43 0 25 20 c25 19 25 19 46 -1 33 -31 52 -23 21 9 -25 26
-26 30 -12 48 21 28 19 34 -14 34 -24 0 -29 4 -28 20 1 15 8 20 29 20 18 0 28
-5 28 -15 0 -8 5 -15 10 -15 6 0 10 11 10 25 0 21 5 25 29 25 24 0 28 -3 24
-20 -3 -11 -14 -20 -24 -20 -17 0 -19 -8 -19 -85 0 -50 4 -85 10 -85 6 0 10
32 10 75 l0 75 40 0 40 0 0 -75 c0 -43 4 -75 10 -75 6 0 10 35 10 85 l0 85
-31 0 c-24 0 -30 3 -25 16 3 9 6 18 6 20 0 2 16 4 36 4 21 0 33 4 29 10 -3 5
-37 10 -75 10 -51 0 -69 -4 -74 -15 -3 -8 -18 -15 -32 -15 -15 0 -24 3 -21 7
4 3 0 15 -10 25 -16 17 12 18 880 18 l897 0 0 -175 0 -175 -1390 0 -1390 0 0
175 0 175 492 0 c270 0 488 -3 485 -7z m2920 0 c-4 -3 0 -15 10 -25 15 -17 14
-18 -25 -18 -35 0 -42 -3 -42 -20 0 -11 5 -20 10 -20 6 0 10 7 10 15 0 8 7 15
15 15 22 0 18 -19 -10 -56 -14 -18 -21 -35 -15 -39 5 -3 17 6 26 20 17 26 70
37 61 13 -2 -7 -14 -13 -26 -12 -16 0 -20 -4 -15 -18 4 -13 -3 -23 -25 -36
-33 -18 -40 -32 -16 -32 11 0 15 -12 15 -45 0 -25 5 -45 10 -45 6 0 10 5 10
11 0 8 12 10 35 6 l35 -6 0 45 0 44 -42 0 -43 0 25 20 c25 19 25 19 46 -1 33
-31 52 -23 21 9 -25 26 -26 30 -12 48 21 28 19 34 -14 34 -24 0 -29 4 -28 20
1 15 8 20 29 20 18 0 28 -5 28 -15 0 -8 5 -15 10 -15 6 0 10 11 10 25 0 21 5
25 29 25 24 0 28 -3 24 -20 -3 -11 -14 -20 -24 -20 -17 0 -19 -8 -19 -85 0
-50 4 -85 10 -85 6 0 10 32 10 75 l0 75 40 0 40 0 0 -75 c0 -43 4 -75 10 -75
6 0 10 35 10 85 l0 85 -31 0 c-24 0 -30 3 -25 16 3 9 6 18 6 20 0 2 16 4 36 4
21 0 33 4 29 10 -3 6 -37 10 -75 10 -51 0 -69 -4 -74 -15 -3 -8 -18 -15 -32
-15 -15 0 -24 3 -21 7 4 3 0 15 -10 25 -16 17 14 18 935 18 l952 0 0 -175 0
-175 -1500 0 -1500 0 0 175 0 175 547 0 c300 0 543 -3 540 -7z m3110 0 c-4 -3
0 -15 10 -25 15 -17 14 -18 -25 -18 -35 0 -42 -3 -42 -20 0 -11 5 -20 10 -20
6 0 10 7 10 15 0 8 7 15 15 15 22 0 18 -19 -10 -56 -14 -18 -21 -35 -15 -39 5
-3 17 6 26 20 17 26 70 37 61 13 -2 -7 -14 -13 -26 -12 -16 0 -20 -4 -15 -18
4 -13 -3 -23 -25 -36 -33 -18 -40 -32 -16 -32 11 0 15 -12 15 -45 0 -25 5 -45
10 -45 6 0 10 5 10 11 0 8 12 10 35 6 l35 -6 0 45 0 44 -42 0 -43 0 25 20 c25
19 25 19 46 -1 33 -31 52 -23 21 9 -25 26 -26 30 -12 48 21 28 19 34 -14 34
-24 0 -29 4 -28 20 1 15 8 20 29 20 18 0 28 -5 28 -15 0 -8 5 -15 10 -15 6 0
10 11 10 25 0 21 5 25 29 25 24 0 28 -3 24 -20 -3 -11 -14 -20 -24 -20 -17 0
-19 -8 -19 -85 0 -50 4 -85 10 -85 6 0 10 32 10 75 l0 75 40 0 40 0 0 -75 c0
-43 4 -75 10 -75 6 0 10 35 10 85 l0 85 -31 0 c-24 0 -30 3 -25 16 3 9 6 18 6
20 0 2 16 4 36 4 21 0 33 4 29 10 -3 6 -37 10 -75 10 -51 0 -69 -4 -74 -15 -3
-8 -18 -15 -32 -15 -15 0 -24 3 -21 7 4 3 0 15 -10 25 -16 17 15 18 975 18
l992 0 0 -175 0 -175 -1580 0 -1580 0 0 175 0 175 587 0 c322 0 583 -3 580 -7z
m-5987 -243 c0 -15 -7 -20 -25 -20 -18 0 -25 5 -25 20 0 15 7 20 25 20 18 0
25 -5 25 -20z m2920 0 c0 -15 -7 -20 -25 -20 -18 0 -25 5 -25 20 0 15 7 20 25
20 18 0 25 -5 25 -20z m3110 0 c0 -15 -7 -20 -25 -20 -18 0 -25 5 -25 20 0 15
7 20 25 20 18 0 25 -5 25 -20z m-7080 -305 l0 -175 -1115 0 -1115 0 0 175 0
175 1115 0 1115 0 0 -175z m2810 0 l0 -175 -1390 0 -1390 0 0 175 0 175 1390
0 1390 0 0 -175z m3030 0 l0 -175 -1500 0 -1500 0 0 175 0 175 1500 0 1500 0
0 -175z m3190 0 l0 -175 -1580 0 -1580 0 0 175 0 175 1580 0 1580 0 0 -175z
m-9030 -380 l0 -175 -1115 0 -1115 0 0 175 0 175 1115 0 1115 0 0 -175z m2810
0 l0 -175 -1390 0 -1390 0 0 175 0 175 1390 0 1390 0 0 -175z m3030 0 l0 -175
-1500 0 -1500 0 0 175 0 175 1500 0 1500 0 0 -175z m3190 0 l0 -175 -1580 0
-1580 0 0 175 0 175 1580 0 1580 0 0 -175z m-9030 -390 l0 -175 -1115 0 -1115
0 0 175 0 175 1115 0 1115 0 0 -175z m2810 0 l0 -175 -1390 0 -1390 0 0 175 0
175 1390 0 1390 0 0 -175z m3028 3 l-3 -173 -1497 -3 -1498 -2 0 175 0 175
1500 0 1500 0 -2 -172z m1362 132 c0 -36 -2 -40 -25 -40 -14 0 -25 -4 -25 -10
0 -5 11 -10 25 -10 22 0 25 -4 25 -33 0 -26 -6 -36 -25 -45 -14 -6 -25 -16
-25 -22 0 -13 6 -13 31 0 18 10 19 7 19 -39 0 -37 -4 -53 -17 -60 -10 -5 -14
-13 -10 -17 4 -5 16 -3 25 2 12 8 18 28 20 75 2 43 8 66 18 72 19 11 18 28 -1
21 -11 -5 -15 1 -15 20 0 16 6 26 15 26 8 0 15 5 15 10 0 6 -6 10 -14 10 -9 0
-15 14 -18 40 l-4 40 908 0 908 0 0 -175 0 -175 -1580 0 -1580 0 0 175 0 175
665 0 665 0 0 -40z m-7200 -515 l0 -175 -1115 0 -1115 0 0 175 0 175 1115 0
1115 0 0 -175z m2810 0 l0 -175 -1390 0 -1390 0 0 175 0 175 1390 0 1390 0 0
-175z m3030 0 l0 -175 -1500 0 -1500 0 0 175 0 175 1500 0 1500 0 0 -175z
m3190 0 l0 -175 -1580 0 -1580 0 0 175 0 175 1580 0 1580 0 0 -175z"/>
<path d="M5670 2715 c0 -32 -2 -35 -30 -35 -16 0 -30 -4 -30 -10 0 -5 14 -10
31 -10 l31 0 -6 -47 c-10 -69 -26 -115 -48 -139 -17 -19 -17 -22 -3 -28 22 -8
61 79 70 157 6 47 11 57 26 57 17 0 19 -8 19 -80 0 -69 -3 -82 -20 -92 -23
-15 -26 -28 -6 -28 35 0 46 29 46 126 l0 94 -31 0 c-30 0 -31 2 -27 35 3 24 0
35 -9 35 -8 0 -13 -13 -13 -35z"/>
<path d="M6115 2730 c6 -18 2 -20 -39 -20 -25 0 -46 -4 -46 -10 0 -5 20 -10
45 -10 33 0 45 -4 45 -15 0 -11 -11 -15 -40 -15 l-40 0 0 -40 c0 -38 1 -40 32
-40 l31 0 -23 -25 c-13 -13 -32 -27 -43 -31 -12 -4 -16 -9 -9 -16 11 -11 57
15 66 38 11 29 28 14 25 -23 -2 -21 1 -38 6 -38 5 0 8 15 6 33 -3 38 7 41 39
7 26 -27 40 -32 40 -12 -1 6 -17 24 -37 40 l-36 27 36 0 c36 0 37 1 37 40 l0
40 -40 0 c-29 0 -40 4 -40 15 0 11 12 15 50 15 28 0 50 5 50 10 0 6 -22 10
-49 10 -44 0 -49 2 -44 20 4 14 0 20 -12 20 -12 0 -15 -5 -10 -20z m5 -110 c0
-16 -7 -20 -30 -20 -23 0 -30 4 -30 20 0 16 7 20 30 20 23 0 30 -4 30 -20z
m70 0 c0 -16 -7 -20 -30 -20 -23 0 -30 4 -30 20 0 16 7 20 30 20 23 0 30 -4
30 -20z"/>
<path d="M5404 2733 l-91 -4 -6 -95 c-4 -69 -11 -104 -25 -129 -19 -31 -19
-45 -1 -45 11 0 38 74 45 129 l7 51 119 0 c77 0 117 4 113 10 -4 6 -55 10
-121 10 l-114 0 0 25 c0 25 1 25 83 25 87 0 127 7 127 21 0 5 -10 8 -22 7 -13
-1 -64 -4 -114 -5z"/>
<path d="M5950 2722 c0 -5 11 -19 25 -32 19 -18 25 -20 25 -8 0 8 -8 22 -18
31 -20 19 -32 22 -32 9z"/>
<path d="M5790 2580 c0 -73 4 -120 10 -120 6 0 10 9 10 20 0 16 7 20 30 20 23
0 30 -4 30 -20 0 -11 5 -20 10 -20 6 0 10 47 10 120 l0 120 -50 0 -50 0 0
-120z m80 20 l0 -80 -30 0 -30 0 0 80 0 80 30 0 30 0 0 -80z"/>
<path d="M5940 2620 c0 -5 11 -10 25 -10 24 0 25 -3 25 -55 0 -49 -3 -57 -25
-67 -25 -11 -30 -19 -19 -31 4 -3 13 1 21 9 9 9 22 12 32 8 86 -37 191 -46
226 -20 16 12 7 13 -76 13 -130 -1 -139 5 -139 93 l0 70 -35 0 c-19 0 -35 -4
-35 -10z"/>
<path d="M5360 2520 c0 -40 4 -70 10 -70 6 0 10 5 10 10 0 6 29 10 66 10 41 0
63 -4 59 -10 -3 -5 1 -10 9 -10 13 0 16 13 16 70 l0 70 -85 0 -85 0 0 -70z
m148 8 l3 -38 -65 0 -66 0 0 40 0 41 63 -3 62 -3 3 -37z"/>
<path d="M3751 2299 c-13 -11 -21 -22 -17 -26 3 -4 12 -1 18 5 23 23 28 11 28
-78 l0 -90 -30 0 c-16 0 -30 -4 -30 -10 0 -6 28 -10 65 -10 37 0 65 4 65 10 0
6 -11 10 -25 10 l-25 0 0 105 c0 113 -5 121 -49 84z"/>
<path d="M6652 2304 c-12 -8 -22 -22 -22 -30 0 -20 13 -17 28 6 22 36 82 23
82 -19 0 -20 -17 -44 -60 -88 -33 -33 -60 -66 -60 -72 0 -7 25 -11 70 -11 40
0 70 4 70 10 0 6 -25 10 -55 10 -30 0 -55 3 -55 7 0 4 25 30 55 58 43 41 55
58 55 82 0 55 -59 81 -108 47z"/>
<path d="M9752 2304 c-12 -8 -22 -22 -22 -30 0 -20 13 -17 28 7 19 29 76 23
80 -9 5 -30 -14 -52 -45 -52 -14 0 -21 -4 -18 -10 3 -5 16 -10 29 -10 28 0 46
-18 46 -45 0 -12 -5 -26 -12 -33 -19 -19 -66 -14 -80 8 -15 23 -28 26 -28 6 0
-20 39 -46 70 -46 42 0 70 26 70 65 0 25 -6 37 -22 46 -19 10 -19 12 -5 21 22
12 22 62 1 82 -20 20 -63 20 -92 0z"/>
<path d="M1040 1955 c0 -23 -3 -25 -50 -25 l-50 0 0 -85 0 -85 49 0 50 0 3
-37 3 -38 70 -3 c62 -3 72 0 87 19 18 21 16 39 -3 39 -5 0 -9 -7 -9 -15 0 -19
-31 -35 -69 -35 -47 0 -61 9 -61 41 0 28 1 29 55 29 l55 0 0 85 0 85 -56 0
c-55 0 -56 1 -52 25 4 17 1 25 -8 25 -8 0 -14 -11 -14 -25z m0 -70 c0 -22 -4
-25 -40 -25 -36 0 -40 3 -40 25 0 23 4 25 40 25 36 0 40 -2 40 -25z m110 0 c0
-23 -4 -25 -45 -25 -41 0 -45 2 -45 25 0 23 4 25 45 25 41 0 45 -2 45 -25z
m-110 -75 c0 -28 -2 -30 -40 -30 -38 0 -40 2 -40 30 0 28 2 30 40 30 38 0 40
-2 40 -30z m110 0 c0 -29 -2 -30 -45 -30 -43 0 -45 1 -45 30 0 29 2 30 45 30
43 0 45 -1 45 -30z"/>
<path d="M1289 1842 c-3 -80 -9 -115 -21 -134 -16 -24 -15 -38 3 -38 16 0 39
106 39 182 l0 78 120 0 c73 0 120 4 120 10 0 6 -50 10 -129 10 l-129 0 -3
-108z"/>
<path d="M1420 1875 c0 -34 -1 -35 -40 -35 -22 0 -40 -4 -40 -10 0 -5 18 -10
40 -10 l40 0 0 -60 0 -60 -55 0 c-30 0 -55 -3 -55 -7 0 -9 239 -7 248 1 3 3
-22 6 -56 6 l-62 0 0 60 0 60 40 0 c22 0 40 5 40 10 0 6 -18 10 -40 10 -39 0
-40 1 -40 35 0 19 -4 35 -10 35 -5 0 -10 -16 -10 -35z"/>
<path d="M1482 1760 c20 -27 38 -39 38 -25 0 15 -34 55 -46 55 -11 0 -9 -8 8
-30z"/>
<path d="M3740 1971 c0 -5 8 -13 18 -17 11 -6 -3 -10 -48 -14 -65 -5 -65 -5
-68 -37 -2 -23 1 -33 11 -33 8 0 13 10 13 23 -1 21 2 22 112 25 l112 3 0 -26
c0 -14 5 -25 10 -25 6 0 10 16 10 35 l0 35 -50 0 c-37 0 -57 5 -72 20 -23 21
-48 27 -48 11z"/>
<path d="M4011 1940 c-6 -22 -23 -52 -36 -68 -20 -24 -22 -31 -10 -36 8 -3 19
2 24 12 8 12 10 -11 11 -80 0 -59 4 -98 10 -98 6 0 10 47 10 120 0 87 4 129
15 150 12 23 12 29 1 33 -9 4 -17 -8 -25 -33z"/>
<path d="M4140 1960 c0 -17 -7 -20 -45 -20 -25 0 -45 -4 -45 -10 0 -5 21 -10
46 -10 53 0 58 -23 6 -28 l-32 -3 0 -90 c0 -72 -3 -89 -15 -89 -8 0 -15 -4
-15 -10 0 -6 45 -10 115 -10 70 0 115 4 115 10 0 6 -11 10 -25 10 -25 0 -25 1
-25 90 l0 90 -30 0 c-20 0 -30 5 -30 15 0 11 12 15 51 15 31 0 48 4 44 10 -3
6 -27 10 -52 10 -40 0 -45 2 -40 20 3 13 0 20 -9 20 -8 0 -14 -9 -14 -20z m60
-95 c0 -12 -13 -15 -55 -15 -51 0 -65 7 -48 23 3 4 28 7 55 7 36 0 48 -4 48
-15z m0 -50 c0 -12 -13 -15 -55 -15 -42 0 -55 3 -55 15 0 12 13 15 55 15 42 0
55 -3 55 -15z m0 -50 c0 -12 -13 -15 -55 -15 -42 0 -55 3 -55 15 0 12 13 15
55 15 42 0 55 -3 55 -15z m0 -45 c0 -5 -25 -10 -55 -10 -30 0 -55 5 -55 10 0
6 25 10 55 10 30 0 55 -4 55 -10z"/>
<path d="M3500 1825 c0 -60 -23 -112 -54 -127 -27 -12 -35 -28 -13 -28 17 1
53 31 66 57 6 12 15 49 19 82 7 48 6 61 -5 61 -9 0 -13 -14 -13 -45z"/>
<path d="M3718 1853 l42 -4 0 -70 c0 -64 -1 -69 -18 -60 -35 19 -46 39 -34 65
8 19 8 25 -3 30 -10 3 -16 -6 -21 -31 -4 -19 -20 -50 -36 -68 -16 -19 -24 -36
-19 -39 5 -3 21 7 34 24 l26 30 35 -21 c48 -28 196 -40 196 -16 0 12 -7 15
-34 10 -19 -3 -51 -2 -71 1 -34 7 -36 9 -33 39 3 31 5 32 56 35 70 4 67 22 -4
22 -52 0 -55 1 -52 23 2 18 11 23 48 28 29 4 10 6 -55 6 -55 0 -81 -2 -57 -4z"/>
<path d="M3520 1732 c0 -15 58 -64 64 -54 3 5 -5 18 -17 29 -29 27 -47 36 -47
25z"/>
<path d="M6660 1971 c0 -5 8 -13 18 -17 11 -6 -3 -10 -48 -14 -65 -5 -65 -5
-68 -37 -2 -23 1 -33 11 -33 8 0 13 10 13 23 -1 21 2 22 112 25 l112 3 0 -26
c0 -14 5 -25 10 -25 6 0 10 16 10 35 l0 35 -50 0 c-37 0 -57 5 -72 20 -23 21
-48 27 -48 11z"/>
<path d="M6931 1940 c-6 -22 -23 -52 -36 -68 -20 -24 -22 -31 -10 -36 8 -3 19
2 24 12 8 12 10 -11 11 -80 0 -59 4 -98 10 -98 6 0 10 47 10 120 0 87 4 129
15 150 12 23 12 29 1 33 -9 4 -17 -8 -25 -33z"/>
<path d="M7060 1960 c0 -17 -7 -20 -45 -20 -25 0 -45 -4 -45 -10 0 -5 21 -10
46 -10 53 0 58 -23 6 -28 l-32 -3 0 -90 c0 -72 -3 -89 -15 -89 -8 0 -15 -4
-15 -10 0 -6 45 -10 115 -10 70 0 115 4 115 10 0 6 -11 10 -25 10 -25 0 -25 1
-25 90 l0 90 -30 0 c-20 0 -30 5 -30 15 0 11 12 15 51 15 31 0 48 4 44 10 -3
6 -27 10 -52 10 -40 0 -45 2 -40 20 3 13 0 20 -9 20 -8 0 -14 -9 -14 -20z m60
-95 c0 -12 -13 -15 -55 -15 -51 0 -65 7 -48 23 3 4 28 7 55 7 36 0 48 -4 48
-15z m0 -50 c0 -12 -13 -15 -55 -15 -42 0 -55 3 -55 15 0 12 13 15 55 15 42 0
55 -3 55 -15z m0 -50 c0 -12 -13 -15 -55 -15 -42 0 -55 3 -55 15 0 12 13 15
55 15 42 0 55 -3 55 -15z m0 -45 c0 -5 -25 -10 -55 -10 -30 0 -55 5 -55 10 0
6 25 10 55 10 30 0 55 -4 55 -10z"/>
<path d="M6420 1825 c0 -60 -23 -112 -54 -127 -27 -12 -35 -28 -13 -28 17 1
53 31 66 57 6 12 15 49 19 82 7 48 6 61 -5 61 -9 0 -13 -14 -13 -45z"/>
<path d="M6638 1853 l42 -4 0 -70 c0 -64 -1 -69 -18 -60 -35 19 -46 39 -34 65
8 19 8 25 -3 30 -10 3 -16 -6 -21 -31 -4 -19 -20 -50 -36 -68 -16 -19 -24 -36
-19 -39 5 -3 21 7 34 24 l26 30 35 -21 c48 -28 196 -40 196 -16 0 12 -7 15
-34 10 -19 -3 -51 -2 -71 1 -34 7 -36 9 -33 39 3 31 5 32 56 35 70 4 67 22 -4
22 -52 0 -55 1 -52 23 2 18 11 23 48 28 29 4 10 6 -55 6 -55 0 -81 -2 -57 -4z"/>
<path d="M6440 1732 c0 -15 58 -64 64 -54 3 5 -5 18 -17 29 -29 27 -47 36 -47
25z"/>
<path d="M9770 1971 c0 -5 8 -13 18 -17 11 -6 -3 -10 -48 -14 -65 -5 -65 -5
-68 -37 -2 -23 1 -33 11 -33 8 0 13 10 13 23 -1 21 2 22 112 25 l112 3 0 -26
c0 -14 5 -25 10 -25 6 0 10 16 10 35 l0 35 -50 0 c-37 0 -57 5 -72 20 -23 21
-48 27 -48 11z"/>
<path d="M10041 1940 c-6 -22 -23 -52 -36 -68 -20 -24 -22 -31 -10 -36 8 -3
19 2 24 12 8 12 10 -11 11 -80 0 -59 4 -98 10 -98 6 0 10 47 10 120 0 87 4
129 15 150 12 23 12 29 1 33 -9 4 -17 -8 -25 -33z"/>
<path d="M10170 1960 c0 -17 -7 -20 -45 -20 -25 0 -45 -4 -45 -10 0 -5 21 -10
46 -10 53 0 58 -23 6 -28 l-32 -3 0 -90 c0 -72 -3 -89 -15 -89 -8 0 -15 -4
-15 -10 0 -6 45 -10 115 -10 70 0 115 4 115 10 0 6 -11 10 -25 10 -25 0 -25 1
-25 90 l0 90 -30 0 c-20 0 -30 5 -30 15 0 11 12 15 51 15 31 0 48 4 44 10 -3
6 -27 10 -52 10 -40 0 -45 2 -40 20 3 13 0 20 -9 20 -8 0 -14 -9 -14 -20z m60
-95 c0 -12 -13 -15 -55 -15 -51 0 -65 7 -48 23 3 4 28 7 55 7 36 0 48 -4 48
-15z m0 -50 c0 -12 -13 -15 -55 -15 -42 0 -55 3 -55 15 0 12 13 15 55 15 42 0
55 -3 55 -15z m0 -50 c0 -12 -13 -15 -55 -15 -42 0 -55 3 -55 15 0 12 13 15
55 15 42 0 55 -3 55 -15z m0 -45 c0 -5 -25 -10 -55 -10 -30 0 -55 5 -55 10 0
6 25 10 55 10 30 0 55 -4 55 -10z"/>
<path d="M9530 1825 c0 -60 -23 -112 -54 -127 -27 -12 -35 -28 -13 -28 17 1
53 31 66 57 6 12 15 49 19 82 7 48 6 61 -5 61 -9 0 -13 -14 -13 -45z"/>
<path d="M9748 1853 l42 -4 0 -70 c0 -64 -1 -69 -18 -60 -35 19 -46 39 -34 65
8 19 8 25 -3 30 -10 3 -16 -6 -21 -31 -4 -19 -20 -50 -36 -68 -16 -19 -24 -36
-19 -39 5 -3 21 7 34 24 l26 30 35 -21 c48 -28 196 -40 196 -16 0 12 -7 15
-34 10 -19 -3 -51 -2 -71 1 -34 7 -36 9 -33 39 3 31 5 32 56 35 70 4 67 22 -4
22 -52 0 -55 1 -52 23 2 18 11 23 48 28 29 4 10 6 -55 6 -55 0 -81 -2 -57 -4z"/>
<path d="M9550 1732 c0 -15 58 -64 64 -54 3 5 -5 18 -17 29 -29 27 -47 36 -47
25z"/>
<path d="M1040 1565 c0 -23 -3 -25 -50 -25 l-50 0 0 -85 0 -85 49 0 50 0 3
-37 3 -38 70 -3 c62 -3 72 0 87 19 18 21 16 39 -3 39 -5 0 -9 -7 -9 -15 0 -19
-31 -35 -69 -35 -47 0 -61 9 -61 41 0 28 1 29 55 29 l55 0 0 85 0 85 -56 0
c-55 0 -56 1 -52 25 4 17 1 25 -8 25 -8 0 -14 -11 -14 -25z m0 -70 c0 -22 -4
-25 -40 -25 -36 0 -40 3 -40 25 0 23 4 25 40 25 36 0 40 -2 40 -25z m110 0 c0
-23 -4 -25 -45 -25 -41 0 -45 2 -45 25 0 23 4 25 45 25 41 0 45 -2 45 -25z
m-110 -75 c0 -28 -2 -30 -40 -30 -38 0 -40 2 -40 30 0 28 2 30 40 30 38 0 40
-2 40 -30z m110 0 c0 -29 -2 -30 -45 -30 -43 0 -45 1 -45 30 0 29 2 30 45 30
43 0 45 -1 45 -30z"/>
<path d="M1410 1581 c0 -5 7 -11 15 -15 31 -11 14 -26 -31 -26 -25 0 -43 -4
-40 -9 3 -4 17 -6 31 -3 34 6 32 -12 -5 -49 -37 -37 -24 -44 62 -35 40 4 66 2
75 -5 29 -25 25 3 -5 33 -31 31 -57 34 -32 3 11 -13 7 -15 -34 -15 -25 0 -46
3 -46 8 0 4 12 20 25 35 22 24 32 28 70 26 24 -2 47 0 51 4 4 4 -14 7 -41 7
-27 0 -45 3 -42 7 9 9 -22 43 -40 43 -7 0 -13 -4 -13 -9z"/>
<path d="M1280 1564 c0 -11 45 -42 53 -37 11 7 -22 43 -40 43 -7 0 -13 -3 -13
-6z"/>
<path d="M1260 1481 c0 -14 48 -42 55 -32 3 5 -5 17 -17 25 -25 18 -38 20 -38
7z"/>
<path d="M1370 1381 c0 -23 -8 -48 -20 -64 -11 -14 -16 -28 -11 -31 15 -10 51
44 51 75 0 15 3 34 6 43 4 11 1 16 -10 16 -12 0 -16 -10 -16 -39z"/>
<path d="M1430 1355 c0 -37 4 -65 10 -65 6 0 10 28 10 65 0 37 -4 65 -10 65
-6 0 -10 -28 -10 -65z"/>
<path d="M1482 1358 c3 -62 3 -63 34 -66 31 -3 55 20 34 33 -6 4 -10 1 -10 -4
0 -6 -9 -11 -21 -11 -19 0 -21 5 -17 55 2 40 0 55 -10 55 -10 0 -12 -16 -10
-62z"/>
<path d="M1311 1386 c-6 -16 -20 -41 -31 -56 -18 -25 -18 -40 0 -40 11 0 53
97 47 111 -3 9 -9 3 -16 -15z"/>
<path d="M3731 1524 c-16 -21 -21 -41 -21 -89 0 -93 42 -136 100 -105 43 23
50 160 9 201 -27 27 -64 24 -88 -7z m80 -11 c9 -10 14 -40 14 -78 0 -69 -14
-95 -51 -95 -31 0 -44 27 -44 95 0 31 5 65 10 76 13 23 53 25 71 2z"/>
<path d="M6651 1531 c-37 -37 -34 -169 5 -198 28 -21 61 -15 83 13 35 44 26
170 -13 196 -20 14 -56 8 -75 -11z m79 -20 c5 -11 10 -45 10 -76 0 -68 -13
-95 -44 -95 -37 0 -50 25 -50 95 0 38 6 70 13 79 18 22 58 20 71 -3z"/>
<path d="M9300 1555 l0 -35 -60 0 c-33 0 -60 -4 -60 -10 0 -6 27 -10 60 -10
l60 0 0 -70 c0 -63 -2 -70 -20 -70 -11 0 -20 -7 -20 -15 0 -18 31 -20 48 -3 7
7 12 42 12 85 0 71 1 73 25 73 14 0 25 5 25 10 0 6 -12 10 -26 10 -24 0 -26 3
-22 35 3 24 0 35 -9 35 -8 0 -13 -13 -13 -35z"/>
<path d="M9580 1583 c0 -3 7 -15 17 -25 15 -17 14 -18 -30 -18 -26 0 -47 -4
-47 -9 0 -4 11 -6 25 -3 17 3 25 0 25 -10 0 -8 -11 -25 -25 -38 -40 -37 -32
-44 48 -37 50 4 77 3 85 -5 6 -6 15 -8 19 -5 4 4 -7 22 -25 39 -31 31 -57 34
-32 3 11 -13 6 -15 -34 -15 -42 0 -46 2 -37 18 30 50 38 55 91 50 27 -3 50 -1
50 3 0 5 -21 9 -47 9 -25 0 -43 3 -40 7 4 3 0 15 -10 25 -16 18 -33 24 -33 11z"/>
<path d="M9930 1555 c0 -28 -4 -35 -20 -35 -11 0 -20 -4 -20 -10 0 -5 9 -10
20 -10 17 0 20 -7 20 -44 0 -36 -4 -46 -20 -51 -11 -3 -20 -11 -20 -16 0 -6 9
-7 20 -4 18 6 20 2 20 -39 0 -34 -4 -46 -15 -46 -8 0 -15 -5 -15 -11 0 -6 10
-9 23 -7 20 3 22 9 25 63 2 39 8 63 18 68 19 11 18 28 -1 21 -12 -5 -15 2 -15
30 0 25 4 36 15 36 8 0 15 5 15 10 0 6 -7 10 -16 10 -13 0 -15 8 -12 35 3 24
0 35 -9 35 -8 0 -13 -13 -13 -35z"/>
<path d="M10065 1570 c18 -20 17 -20 -23 -20 -23 0 -42 -4 -42 -10 0 -6 35
-10 85 -10 50 0 85 4 85 10 0 6 -19 10 -42 10 -23 0 -38 3 -35 7 10 9 -13 33
-31 33 -13 0 -12 -3 3 -20z"/>
<path d="M10270 1545 c0 -41 -2 -45 -25 -45 -14 0 -25 -4 -25 -10 0 -5 11 -10
25 -10 24 0 25 -3 25 -55 0 -50 -2 -56 -25 -65 -14 -5 -25 -15 -25 -21 0 -7 7
-8 18 -4 9 4 31 12 47 17 17 6 37 17 45 25 13 13 12 13 -12 8 -28 -7 -28 -7
-28 44 0 44 3 51 20 51 11 0 20 5 20 10 0 6 -9 10 -20 10 -17 0 -20 7 -20 45
0 25 -4 45 -10 45 -5 0 -10 -20 -10 -45z"/>
<path d="M10410 1540 c0 -27 -2 -50 -4 -50 -2 0 -12 -3 -21 -7 -15 -5 -17 0
-14 40 3 33 0 47 -8 47 -9 0 -13 -17 -13 -50 0 -43 -3 -50 -20 -50 -11 0 -20
-5 -20 -11 0 -6 9 -9 20 -6 19 5 20 0 20 -67 0 -43 5 -77 12 -84 7 -7 39 -12
74 -12 54 0 65 3 79 22 18 27 1 39 -18 13 -10 -12 -25 -15 -67 -13 l-55 3 -3
69 c-3 66 4 85 31 86 4 0 7 -27 7 -60 0 -33 4 -60 10 -60 6 0 10 28 10 64 0
60 1 64 25 68 24 5 25 3 25 -39 0 -30 -5 -45 -15 -49 -19 -8 -19 -24 0 -24 22
0 35 33 35 90 l0 51 -36 -7 -36 -7 3 47 c3 32 0 46 -8 46 -9 0 -13 -17 -13
-50z"/>
<path d="M9122 1541 c13 -17 27 -25 32 -20 12 10 -21 49 -41 49 -11 0 -8 -8 9
-29z"/>
<path d="M9450 1562 c0 -14 39 -46 47 -39 3 4 -2 16 -12 27 -19 21 -35 26 -35
12z"/>
<path d="M9805 1473 c-20 -49 -44 -103 -52 -122 -11 -26 -11 -32 -1 -29 7 3
34 54 60 114 50 116 53 124 39 124 -4 0 -25 -39 -46 -87z"/>
<path d="M10020 1513 c0 -4 7 -17 15 -27 17 -23 34 -13 19 11 -12 19 -34 29
-34 16z"/>
<path d="M10098 1491 c-13 -24 -24 -30 -60 -34 -24 -2 -5 -4 42 -4 47 0 72 2
57 4 -20 3 -27 9 -23 19 3 8 9 21 12 29 11 27 -11 16 -28 -14z"/>
<path d="M9420 1481 c0 -13 50 -44 58 -36 4 4 -4 15 -17 26 -25 20 -41 24 -41
10z"/>
<path d="M9080 1460 c0 -5 9 -10 20 -10 17 0 20 -7 20 -51 0 -41 -5 -54 -22
-69 -13 -10 -20 -22 -16 -26 5 -4 16 0 26 10 18 15 22 15 65 -4 37 -16 63 -20
124 -18 111 4 107 25 -4 24 -60 -1 -97 4 -118 14 -28 15 -30 19 -30 78 l0 62
-32 0 c-18 0 -33 -4 -33 -10z"/>
<path d="M9220 1430 c12 -17 26 -28 31 -25 12 8 -20 55 -38 55 -11 0 -9 -7 7
-30z"/>
<path d="M10046 1425 c-3 -9 -19 -15 -41 -15 -19 0 -35 -4 -35 -10 0 -5 14
-10 32 -10 30 0 30 -1 14 -19 -16 -18 -16 -19 13 -29 17 -6 31 -13 31 -16 0
-3 -19 -10 -41 -16 -28 -8 -38 -15 -31 -22 7 -7 25 -3 57 11 48 21 48 21 81 2
18 -11 36 -16 39 -11 3 5 -8 16 -25 25 -34 18 -34 16 -18 50 7 16 19 25 35 25
12 0 23 5 23 10 0 6 -27 10 -60 10 -49 0 -58 3 -54 15 4 8 2 15 -4 15 -5 0
-12 -7 -16 -15z m54 -55 c-11 -21 -27 -25 -54 -14 -25 10 0 34 36 34 26 0 28
-2 18 -20z"/>
<path d="M9537 1379 c-3 -23 -15 -51 -27 -64 -14 -15 -18 -25 -10 -30 25 -15
60 50 60 113 0 38 -17 24 -23 -19z"/>
<path d="M9590 1355 c0 -37 4 -65 10 -65 6 0 10 28 10 65 0 37 -4 65 -10 65
-6 0 -10 -28 -10 -65z"/>
<path d="M9640 1371 c0 -68 7 -81 41 -81 29 0 50 23 34 38 -4 4 -10 1 -12 -5
-3 -7 -14 -13 -25 -13 -19 0 -20 5 -16 55 4 41 1 55 -9 55 -9 0 -13 -15 -13
-49z"/>
<path d="M9457 1357 c-29 -57 -32 -67 -17 -67 14 0 63 101 53 111 -4 4 -21
-15 -36 -44z"/>
<path d="M1220 1144 l0 -65 -37 3 c-38 3 -38 3 -37 46 0 30 -3 42 -13 42 -11
0 -13 -13 -11 -52 l3 -53 48 -3 47 -3 0 -55 0 -54 -45 0 -45 0 0 45 c0 25 -4
45 -10 45 -5 0 -10 -25 -10 -55 l0 -55 110 0 c67 0 110 -4 110 -10 0 -5 6 -10
13 -10 8 0 12 20 12 65 0 45 -4 65 -12 65 -9 0 -13 -16 -13 -45 l0 -45 -45 0
-45 0 0 55 0 55 50 0 50 0 0 60 c0 41 -4 60 -12 60 -9 0 -13 -16 -13 -47 l0
-48 -37 -3 -38 -3 0 65 c0 37 -4 66 -10 66 -6 0 -10 -29 -10 -66z"/>
<path d="M780 1180 c0 -5 14 -10 31 -10 30 0 30 -1 27 -47 l-3 -48 -37 -1
c-52 -1 -61 -14 -10 -14 22 0 43 -4 47 -9 9 -16 -25 -90 -51 -110 -17 -14 -21
-22 -13 -27 19 -11 67 50 80 102 l12 45 41 -3 41 -3 3 -72 c4 -97 22 -94 22 3
l0 76 40 -4 c26 -2 40 1 40 8 0 8 -13 10 -40 7 l-40 -6 0 52 c0 50 1 51 30 51
17 0 30 5 30 10 0 6 -48 10 -125 10 -77 0 -125 -4 -125 -10z m168 -57 l-3 -48
-42 -3 -43 -3 0 50 0 51 46 0 45 0 -3 -47z"/>
<path d="M1475 1150 l0 -40 102 0 103 0 0 40 0 40 -103 0 -102 0 0 -40z m185
20 c0 -6 -35 -10 -86 -10 -54 0 -83 4 -79 10 3 6 42 10 86 10 46 0 79 -4 79
-10z m-37 -37 c-23 -2 -64 -2 -90 0 -26 2 -7 3 42 3 50 0 71 -1 48 -3z"/>
<path d="M1425 1090 c-4 -7 48 -10 149 -10 97 0 156 4 156 10 0 6 -56 10 -149
10 -89 0 -152 -4 -156 -10z"/>
<path d="M1470 1025 l0 -45 50 0 c28 0 50 -4 50 -10 0 -5 -25 -10 -55 -10 -30
0 -55 -3 -55 -7 0 -5 25 -6 55 -5 35 3 55 0 55 -7 0 -7 -26 -11 -70 -11 -40 0
-70 -4 -70 -10 0 -6 55 -10 145 -10 90 0 145 4 145 10 0 6 -28 10 -65 10 -40
0 -65 4 -65 11 0 6 19 9 50 8 27 -2 53 0 56 4 4 4 -18 7 -49 7 -31 0 -57 5
-57 10 0 6 23 10 50 10 l50 0 0 45 0 45 -110 0 -110 0 0 -45z m100 15 c0 -5
-18 -10 -40 -10 -22 0 -40 5 -40 10 0 6 18 10 40 10 22 0 40 -4 40 -10z m100
0 c0 -5 -18 -10 -40 -10 -22 0 -40 5 -40 10 0 6 18 10 40 10 22 0 40 -4 40
-10z m-100 -30 c0 -5 -18 -10 -40 -10 -22 0 -40 5 -40 10 0 6 18 10 40 10 22
0 40 -4 40 -10z m95 0 c4 -6 -10 -10 -34 -10 -23 0 -41 5 -41 10 0 6 15 10 34
10 19 0 38 -4 41 -10z"/>
<path d="M3641 1168 c27 -55 87 -118 105 -111 10 4 1 17 -30 45 -25 21 -51 54
-58 73 -6 19 -18 35 -25 35 -10 0 -8 -11 8 -42z"/>
<path d="M3850 1175 c-6 -18 -22 -50 -36 -70 -28 -42 -22 -71 7 -34 18 24 19
23 19 -73 0 -59 4 -98 10 -98 6 0 10 47 10 120 0 87 4 129 15 149 13 27 11 41
-6 41 -4 0 -13 -16 -19 -35z"/>
<path d="M3940 1202 c0 -14 49 -56 57 -49 3 4 -4 18 -17 32 -24 25 -40 32 -40
17z"/>
<path d="M3535 1160 c-10 -23 -33 -54 -52 -70 -19 -17 -28 -32 -22 -36 14 -8
54 30 89 87 26 43 29 59 10 59 -4 0 -15 -18 -25 -40z"/>
<path d="M3885 1130 c3 -6 50 -10 106 -10 59 0 99 4 99 10 0 6 -42 10 -106 10
-67 0 -103 -4 -99 -10z"/>
<path d="M4027 1093 c-4 -3 -7 -16 -7 -28 0 -12 -7 -44 -15 -73 l-15 -51 -63
-4 c-34 -2 -8 -3 58 -3 66 0 101 1 78 3 -50 5 -51 10 -24 101 14 46 16 62 7
62 -7 0 -16 -3 -19 -7z"/>
<path d="M3520 1080 c0 -5 12 -10 26 -10 24 0 25 -2 19 -32 -11 -51 -34 -88
-60 -100 -25 -11 -30 -20 -19 -31 10 -10 63 32 78 62 8 15 17 43 21 64 7 35 9
37 47 37 l39 0 -7 -57 c-8 -69 -10 -73 -35 -73 -10 0 -19 -7 -19 -15 0 -16 27
-20 49 -6 14 9 29 79 30 139 l1 32 -85 0 c-50 0 -85 -4 -85 -10z"/>
<path d="M3910 1088 c3 -24 41 -113 49 -116 15 -5 14 2 -6 65 -9 29 -23 53
-30 53 -7 0 -13 -1 -13 -2z"/>
<path d="M6485 1167 c-17 -23 -50 -52 -74 -64 -32 -16 -40 -24 -28 -28 22 -9
69 18 106 61 l33 37 41 -42 42 -41 -78 0 c-45 0 -77 -4 -77 -10 0 -6 33 -10
80 -10 48 0 80 4 80 10 0 7 7 7 21 0 11 -7 28 -9 36 -6 11 5 1 14 -35 32 -52
26 -92 65 -92 90 0 26 -25 13 -55 -29z"/>
<path d="M6770 1175 c-6 -18 -22 -50 -36 -70 -28 -42 -22 -71 7 -34 18 24 19
23 19 -73 0 -59 4 -98 10 -98 6 0 10 47 10 120 0 87 4 129 15 149 13 27 11 41
-6 41 -4 0 -13 -16 -19 -35z"/>
<path d="M6860 1202 c0 -14 49 -56 57 -49 3 4 -4 18 -17 32 -24 25 -40 32 -40
17z"/>
<path d="M6805 1130 c3 -6 50 -10 106 -10 59 0 99 4 99 10 0 6 -42 10 -106 10
-67 0 -103 -4 -99 -10z"/>
<path d="M6947 1093 c-4 -3 -7 -16 -7 -28 0 -12 -7 -44 -15 -73 l-15 -51 -63
-4 c-34 -2 -8 -3 58 -3 66 0 101 1 78 3 -50 5 -51 10 -24 101 14 46 16 62 7
62 -7 0 -16 -3 -19 -7z"/>
<path d="M6830 1088 c3 -24 41 -113 49 -116 15 -5 14 2 -6 65 -9 29 -23 53
-30 53 -7 0 -13 -1 -13 -2z"/>
<path d="M6430 965 c0 -37 4 -65 10 -65 6 0 10 5 10 10 0 6 32 10 75 10 43 0
75 -4 75 -10 0 -5 5 -10 10 -10 6 0 10 28 10 65 l0 65 -95 0 -95 0 0 -65z
m170 10 l0 -35 -75 0 -75 0 0 35 0 35 75 0 75 0 0 -35z"/>
<path d="M9595 1167 c-17 -23 -50 -52 -74 -64 -32 -16 -40 -24 -28 -28 22 -9
69 18 106 61 l33 37 41 -42 42 -41 -78 0 c-45 0 -77 -4 -77 -10 0 -6 33 -10
80 -10 48 0 80 4 80 10 0 7 7 7 21 0 11 -7 28 -9 36 -6 11 5 1 14 -35 32 -52
26 -92 65 -92 90 0 26 -25 13 -55 -29z"/>
<path d="M9880 1175 c-6 -18 -22 -50 -36 -70 -28 -42 -22 -71 7 -34 18 24 19
23 19 -73 0 -59 4 -98 10 -98 6 0 10 47 10 120 0 87 4 129 15 149 13 27 11 41
-6 41 -4 0 -13 -16 -19 -35z"/>
<path d="M9970 1202 c0 -14 49 -56 57 -49 3 4 -4 18 -17 32 -24 25 -40 32 -40
17z"/>
<path d="M9915 1130 c3 -6 50 -10 106 -10 59 0 99 4 99 10 0 6 -42 10 -106 10
-67 0 -103 -4 -99 -10z"/>
<path d="M10057 1093 c-4 -3 -7 -16 -7 -28 0 -12 -7 -44 -15 -73 l-15 -51 -63
-4 c-34 -2 -8 -3 58 -3 66 0 101 1 78 3 -50 5 -51 10 -24 101 14 46 16 62 7
62 -7 0 -16 -3 -19 -7z"/>
<path d="M9940 1088 c3 -24 41 -113 49 -116 15 -5 14 2 -6 65 -9 29 -23 53
-30 53 -7 0 -13 -1 -13 -2z"/>
<path d="M9540 965 c0 -37 4 -65 10 -65 6 0 10 5 10 10 0 6 32 10 75 10 43 0
75 -4 75 -10 0 -5 5 -10 10 -10 6 0 10 28 10 65 l0 65 -95 0 -95 0 0 -65z
m170 10 l0 -35 -75 0 -75 0 0 35 0 35 75 0 75 0 0 -35z"/>
<path d="M609 778 c-13 -29 -25 -56 -27 -60 -2 -4 11 -8 28 -10 l32 -3 -26
-37 c-14 -21 -22 -39 -18 -41 16 -9 92 6 92 17 0 8 -11 11 -31 8 l-31 -5 28
49 c15 27 31 54 36 60 5 7 3 14 -6 17 -8 3 -18 -4 -25 -19 -6 -14 -19 -24 -31
-24 -25 0 -25 2 4 49 23 35 24 51 6 51 -3 0 -17 -24 -31 -52z"/>
<path d="M780 800 c0 -28 -3 -30 -35 -30 -19 0 -35 -4 -35 -10 0 -5 16 -10 35
-10 31 0 35 -3 35 -25 0 -22 -4 -25 -35 -25 -19 0 -35 -4 -35 -10 0 -6 32 -10
75 -10 43 0 75 4 75 10 0 6 -13 10 -30 10 -25 0 -30 4 -30 25 0 23 4 25 40 25
22 0 40 5 40 10 0 6 -19 10 -41 10 -40 0 -41 1 -37 30 3 20 0 30 -9 30 -8 0
-13 -12 -13 -30z"/>
<path d="M1060 810 c0 -18 -7 -20 -65 -20 -37 0 -65 -4 -65 -10 0 -6 28 -10
65 -10 51 0 65 -3 65 -15 0 -11 -12 -15 -45 -15 l-45 0 0 -45 0 -45 38 0 37
-1 -35 -32 c-19 -17 -46 -39 -60 -48 -14 -9 -22 -20 -18 -24 9 -10 83 40 109
73 l19 25 0 -62 c0 -34 4 -61 10 -61 6 0 10 27 10 61 l0 61 51 -46 c50 -45 72
-55 83 -37 3 5 -7 14 -23 21 -16 6 -41 25 -57 41 l-28 29 37 0 37 0 0 45 0 45
-50 0 c-38 0 -50 4 -50 15 0 12 15 15 71 15 44 0 68 4 64 10 -3 6 -36 10 -72
10 -60 0 -65 2 -60 20 3 13 0 20 -9 20 -8 0 -14 -9 -14 -20z m0 -115 c0 -22
-4 -25 -35 -25 -31 0 -35 3 -35 25 0 22 4 25 35 25 31 0 35 -3 35 -25z m100 0
c0 -22 -4 -25 -40 -25 -36 0 -40 3 -40 25 0 23 4 25 40 25 36 0 40 -2 40 -25z"/>
<path d="M1332 789 c-13 -22 -30 -43 -38 -46 -18 -7 -18 -23 0 -23 8 0 24 14
36 30 19 27 27 30 77 30 l56 0 -23 -25 c-28 -29 -37 -31 -62 -8 -10 9 -21 13
-26 9 -4 -4 4 -16 17 -27 l23 -19 -33 -14 c-19 -7 -49 -17 -67 -21 -18 -3 -29
-11 -26 -16 7 -13 58 -2 103 20 32 17 35 17 103 -7 59 -21 71 -23 79 -11 6 11
-1 15 -35 20 -24 4 -53 12 -65 19 -22 11 -22 12 16 53 l38 42 -68 5 c-37 3
-67 9 -66 15 2 24 -18 11 -39 -26z"/>
<path d="M1656 784 c-10 -25 -30 -59 -43 -75 -27 -31 -12 -41 19 -12 17 15 18
12 18 -80 0 -58 4 -97 10 -97 6 0 10 47 10 120 0 87 4 129 15 149 13 26 11 41
-4 41 -3 0 -14 -21 -25 -46z"/>
<path d="M1790 790 c0 -34 -3 -40 -21 -40 -16 0 -20 5 -16 20 3 12 0 20 -7 20
-9 0 -46 -82 -46 -104 0 -15 18 -3 28 19 8 17 20 25 37 25 22 0 25 -4 25 -35
l0 -35 -51 0 c-31 0 -48 -4 -44 -10 3 -5 26 -10 51 -10 l44 0 0 -60 c0 -33 4
-60 10 -60 6 0 10 27 10 60 l0 60 45 0 c25 0 45 5 45 10 0 6 -20 10 -45 10
-45 0 -45 0 -45 35 0 33 2 35 35 35 19 0 35 5 35 10 0 6 -16 10 -35 10 -34 0
-35 1 -35 40 0 22 -4 40 -10 40 -5 0 -10 -18 -10 -40z"/>
<path d="M1397 660 c5 -18 0 -20 -46 -20 -28 0 -51 -4 -51 -10 0 -5 23 -10 50
-10 l50 0 0 -36 c0 -27 -5 -37 -20 -41 -30 -8 -24 -25 8 -21 25 3 27 7 30 51
l3 47 45 0 c24 0 44 5 44 10 0 6 -20 10 -45 10 -38 0 -45 3 -45 20 0 11 -6 20
-14 20 -9 0 -12 -7 -9 -20z"/>
<path d="M720 583 c0 -35 4 -63 10 -63 6 0 10 7 10 15 0 23 86 21 99 -2 9 -16
10 -16 16 -2 3 9 5 38 3 64 l-3 47 -68 2 -67 1 0 -62z m120 12 l0 -35 -50 0
-50 0 0 35 0 35 50 0 50 0 0 -35z"/>
<path d="M1330 601 c0 -6 -13 -18 -30 -28 -30 -17 -39 -33 -19 -33 17 0 79 52
73 61 -7 12 -24 12 -24 0z"/>
<path d="M1446 602 c-8 -13 64 -66 75 -55 6 6 -5 19 -30 36 -22 15 -42 23 -45
19z"/>
<path d="M628 573 c-27 -8 -48 -18 -48 -24 0 -12 9 -12 63 7 26 9 47 20 47 25
0 11 -3 11 -62 -8z"/>
<path d="M3360 790 l0 -40 -50 0 c-27 0 -50 -4 -50 -10 0 -5 23 -10 50 -10
l50 0 0 -90 0 -90 -27 0 c-19 0 -24 -3 -16 -11 6 -6 21 -9 34 -7 23 3 24 7 27
101 3 96 3 97 27 97 14 0 25 5 25 10 0 6 -12 10 -26 10 -24 0 -26 3 -22 40 2
28 0 40 -9 40 -8 0 -13 -14 -13 -40z"/>
<path d="M3500 822 c0 -14 46 -53 53 -45 4 3 -3 17 -15 30 -22 23 -38 30 -38
15z"/>
<path d="M3600 800 c0 -6 28 -10 65 -10 l65 0 0 -121 c0 -112 -1 -121 -20
-126 -11 -3 -20 -9 -20 -14 0 -14 40 -11 45 4 2 6 5 72 7 145 l3 132 -72 0
c-42 0 -73 -4 -73 -10z"/>
<path d="M3150 675 c0 -77 4 -125 10 -125 6 0 10 7 10 15 0 10 10 15 30 15 21
0 30 -5 30 -16 0 -8 5 -12 10 -9 6 4 10 57 10 126 l0 119 -50 0 -50 0 0 -125z
m80 65 c0 -38 -2 -40 -30 -40 -28 0 -30 2 -30 40 0 38 2 40 30 40 28 0 30 -2
30 -40z m-2 -102 c-3 -39 -6 -43 -30 -46 -27 -3 -28 -2 -28 42 0 45 1 46 31
46 29 0 30 -1 27 -42z"/>
<path d="M4180 770 c-14 -10 -21 -22 -17 -26 4 -4 13 -2 19 4 24 24 29 10 26
-80 l-3 -93 -30 -6 c-19 -4 -5 -7 40 -7 43 0 60 3 45 7 -24 7 -25 9 -28 114
-3 115 -7 122 -52 87z"/>
<path d="M3490 645 c0 -77 4 -125 10 -125 6 0 10 48 10 125 0 77 -4 125 -10
125 -6 0 -10 -48 -10 -125z"/>
<path d="M3846 753 c-11 -11 -6 -23 9 -23 8 0 15 4 15 9 0 13 -16 22 -24 14z"/>
<path d="M3560 660 l0 -70 60 0 60 0 0 70 0 70 -60 0 -60 0 0 -70z m100 35 c0
-22 -4 -25 -40 -25 -36 0 -40 3 -40 25 0 23 4 25 40 25 36 0 40 -2 40 -25z
m-2 -67 c-2 -19 -10 -24 -40 -26 -35 -3 -38 -1 -38 22 0 24 4 26 41 26 36 0
40 -2 37 -22z"/>
<path d="M4325 706 c-21 -31 -11 -51 35 -70 46 -18 56 -32 40 -51 -17 -20 -57
-19 -69 2 -11 20 -26 11 -18 -11 9 -23 64 -30 92 -12 44 29 24 76 -37 91 -37
9 -41 55 -5 55 13 0 28 -5 35 -12 6 -6 15 -8 19 -4 11 11 -26 36 -54 36 -13 0
-29 -10 -38 -24z"/>
<path d="M3286 691 c-9 -14 15 -61 31 -61 11 0 10 6 -3 33 -21 40 -21 40 -28
28z"/>
<path d="M3846 593 c-11 -11 -6 -23 9 -23 8 0 15 4 15 9 0 13 -16 22 -24 14z"/>
<path d="M6280 790 l0 -40 -49 0 c-28 0 -53 -4 -56 -10 -4 -6 15 -10 50 -10
l56 0 -3 -87 c-3 -82 -5 -88 -25 -91 -13 -2 -20 -8 -17 -17 6 -14 44 -8 56 9
4 6 8 50 8 99 0 86 0 87 25 87 14 0 25 5 25 10 0 6 -11 10 -25 10 -22 0 -25 4
-25 40 0 22 -4 40 -10 40 -5 0 -10 -18 -10 -40z"/>
<path d="M6420 822 c0 -14 46 -53 53 -45 4 3 -3 17 -15 30 -22 23 -38 30 -38
15z"/>
<path d="M6520 800 c0 -6 28 -10 65 -10 l65 0 0 -121 c0 -112 -1 -121 -20
-126 -11 -3 -20 -9 -20 -14 0 -14 40 -11 45 4 2 6 5 72 7 145 l3 132 -72 0
c-42 0 -73 -4 -73 -10z"/>
<path d="M6060 675 c0 -113 8 -151 24 -110 7 20 52 19 60 -1 13 -33 17 -4 19
115 l2 121 -52 0 -53 0 0 -125z m88 68 c-3 -35 -6 -38 -35 -41 -32 -3 -33 -2
-33 37 0 40 1 41 36 41 35 0 35 -1 32 -37z m0 -105 c-3 -40 -5 -43 -33 -43
-28 0 -30 3 -33 43 l-3 42 36 0 36 0 -3 -42z"/>
<path d="M7100 770 c-14 -10 -21 -22 -17 -26 4 -4 13 -2 19 4 24 24 29 10 26
-80 l-3 -93 -30 -6 c-19 -4 -5 -7 40 -7 43 0 60 3 45 7 -24 7 -25 9 -28 114
-3 115 -7 122 -52 87z"/>
<path d="M6410 645 c0 -77 4 -125 10 -125 6 0 10 48 10 125 0 77 -4 125 -10
125 -6 0 -10 -48 -10 -125z"/>
<path d="M6766 753 c-11 -11 -6 -23 9 -23 8 0 15 4 15 9 0 13 -16 22 -24 14z"/>
<path d="M6480 660 l0 -70 60 0 60 0 0 70 0 70 -60 0 -60 0 0 -70z m100 35 c0
-22 -4 -25 -40 -25 -36 0 -40 3 -40 25 0 23 4 25 40 25 36 0 40 -2 40 -25z
m-2 -67 c-2 -19 -10 -24 -40 -26 -35 -3 -38 -1 -38 22 0 24 4 26 41 26 36 0
40 -2 37 -22z"/>
<path d="M7245 706 c-21 -31 -11 -51 35 -70 46 -18 56 -32 40 -51 -17 -20 -57
-19 -69 2 -11 20 -26 11 -18 -11 9 -23 64 -30 92 -12 44 29 24 76 -37 91 -37
9 -41 55 -5 55 13 0 28 -5 35 -12 6 -6 15 -8 19 -4 11 11 -26 36 -54 36 -13 0
-29 -10 -38 -24z"/>
<path d="M6198 695 c-7 -8 23 -65 35 -65 13 0 7 24 -11 48 -10 13 -21 20 -24
17z"/>
<path d="M6766 593 c-11 -11 -6 -23 9 -23 8 0 15 4 15 9 0 13 -16 22 -24 14z"/>
<path d="M9675 810 c18 -20 17 -20 -28 -20 -46 0 -47 -1 -47 -30 0 -16 5 -30
10 -30 6 0 10 9 10 20 0 18 7 20 70 20 63 0 70 -2 70 -20 0 -11 5 -20 10 -20
6 0 10 14 10 30 0 29 -2 30 -42 30 -23 0 -38 3 -35 7 10 9 -13 33 -31 33 -13
0 -12 -3 3 -20z"/>
<path d="M9990 825 c0 -18 46 -90 76 -121 26 -26 39 -33 47 -25 8 8 5 16 -11
27 -37 25 -63 57 -78 92 -12 27 -34 45 -34 27z"/>
<path d="M9900 774 c-12 -25 -35 -55 -51 -66 -16 -12 -29 -25 -29 -30 0 -13
26 -9 39 5 6 8 23 12 42 9 30 -4 31 -6 26 -46 -4 -30 -15 -50 -42 -74 -39 -36
-40 -53 -2 -33 30 16 59 65 67 111 5 32 8 35 43 38 l38 3 -3 -63 c-3 -61 -4
-63 -31 -66 -16 -2 -27 -8 -24 -15 6 -19 32 -19 55 0 17 15 22 31 23 88 l2 70
-86 0 c-82 0 -101 5 -77 20 10 6 50 78 50 90 0 3 -4 5 -9 5 -5 0 -19 -21 -31
-46z"/>
<path d="M9625 700 c-42 -44 -21 -50 23 -7 24 24 31 37 21 37 -8 0 -28 -13
-44 -30z"/>
<path d="M9710 722 c0 -14 49 -56 57 -49 3 4 -4 18 -17 32 -24 25 -40 32 -40
17z"/>
<path d="M9620 640 c0 -5 14 -10 30 -10 28 0 30 -3 30 -35 0 -35 0 -35 -45
-35 -25 0 -45 -4 -45 -10 0 -6 40 -10 100 -10 60 0 100 4 100 10 0 6 -20 10
-45 10 -45 0 -45 0 -45 35 0 32 2 35 29 35 17 0 33 5 36 10 4 6 -22 10 -69 10
-44 0 -76 -4 -76 -10z"/>
<path d="M650 355 c0 -47 -4 -85 -9 -85 -13 0 -64 -70 -56 -78 3 -4 20 9 36
28 l28 35 1 -64 0 -63 27 7 c40 10 50 20 82 88 29 60 29 60 36 29 10 -45 64
-117 78 -103 8 8 4 18 -16 38 -27 29 -57 91 -57 118 0 11 11 15 40 15 22 0 40
5 40 10 0 6 -20 10 -45 10 l-45 0 0 50 c0 28 -4 50 -10 50 -5 0 -10 -22 -10
-50 l0 -50 -34 0 c-19 0 -38 -4 -41 -10 -4 -6 8 -10 29 -10 30 0 36 -4 36 -20
0 -45 -56 -140 -82 -140 -6 0 -8 61 -6 140 2 107 0 140 -9 140 -10 0 -13 -24
-13 -85z"/>
<path d="M1050 415 c0 -24 -3 -25 -60 -25 -33 0 -60 -4 -60 -10 0 -5 25 -10
56 -10 l55 0 -21 -30 c-12 -17 -36 -38 -53 -46 -40 -21 -40 -21 -33 -33 10
-16 82 35 107 75 26 42 38 42 64 1 22 -34 82 -80 99 -74 21 7 15 25 -11 32
-28 6 -83 51 -83 67 0 4 23 8 50 8 28 0 50 5 50 10 0 6 -30 10 -71 10 -71 0
-71 0 -65 25 5 18 2 25 -9 25 -9 0 -15 -9 -15 -25z"/>
<path d="M1352 401 c-18 -22 -41 -42 -52 -46 -21 -7 -28 -25 -8 -25 6 0 26 11
44 25 26 20 44 25 90 25 l58 0 -34 -35 -33 -34 -29 21 c-36 25 -52 14 -18 -12
25 -19 25 -19 5 -34 -11 -9 -42 -23 -68 -32 -35 -11 -46 -19 -38 -27 7 -7 18
-7 36 1 14 7 28 12 30 12 3 0 5 -25 5 -55 0 -30 5 -55 10 -55 6 0 10 5 10 10
0 6 32 10 75 10 43 0 75 -4 75 -10 0 -5 5 -10 10 -10 6 0 10 30 10 70 l0 70
-66 0 -65 0 60 56 c34 31 61 60 61 65 0 5 -32 9 -72 9 -56 0 -69 3 -60 12 7 7
12 16 12 20 0 18 -18 6 -48 -31z m158 -191 l0 -40 -75 0 -75 0 0 40 0 40 75 0
75 0 0 -40z"/>
<path d="M1774 423 c-19 -54 -47 -106 -51 -95 -3 6 -16 12 -29 12 -36 0 -34
47 3 61 17 6 23 13 16 20 -6 6 -19 6 -37 -1 -15 -5 -39 -10 -52 -10 -14 0 -22
-4 -19 -10 3 -5 17 -10 31 -10 19 0 24 -5 24 -25 0 -21 -5 -25 -30 -25 -16 0
-30 -4 -30 -10 0 -5 11 -10 25 -10 14 0 25 -2 25 -5 0 -12 -40 -84 -50 -90
-11 -7 -4 -25 9 -25 5 0 14 13 21 30 21 50 33 35 28 -35 -3 -42 0 -65 7 -65 7
0 9 24 7 70 -4 69 6 90 26 54 7 -12 11 -13 17 -4 4 7 -4 24 -21 42 l-29 31 41
-7 c37 -5 42 -3 52 19 10 22 18 25 62 25 48 0 50 -1 40 -20 -8 -15 -8 -20 2
-20 8 0 19 14 25 30 l11 30 -59 0 c-63 0 -65 1 -49 30 7 13 7 21 0 25 -6 3
-13 -2 -16 -12z"/>
<path d="M826 385 c15 -23 34 -34 34 -19 0 16 -23 44 -36 44 -12 0 -12 -4 2
-25z"/>
<path d="M590 371 c0 -15 38 -56 45 -49 8 8 -23 58 -36 58 -5 0 -9 -4 -9 -9z"/>
<path d="M1800 241 c0 -85 -1 -90 -22 -94 -20 -3 -21 -4 -5 -11 35 -16 47 10
47 105 0 53 -4 89 -10 89 -6 0 -10 -36 -10 -89z"/>
<path d="M1046 312 c-3 -6 5 -17 19 -26 29 -19 33 -7 6 18 -11 10 -22 13 -25
8z"/>
<path d="M1732 228 c-23 -44 -21 -67 5 -33 30 41 44 75 31 75 -7 0 -23 -19
-36 -42z"/>
<path d="M1840 265 c0 -14 47 -75 58 -75 7 0 2 15 -14 40 -23 35 -44 51 -44
35z"/>
<path d="M1050 243 c0 -5 12 -16 25 -26 21 -15 25 -16 25 -3 0 8 -9 20 -19 26
-23 12 -31 13 -31 3z"/>
<path d="M943 195 c-12 -19 -18 -37 -13 -40 9 -6 50 50 50 68 0 16 -16 4 -37
-28z"/>
<path d="M1010 191 c0 -31 5 -43 21 -51 25 -14 93 -4 110 16 18 22 4 28 -24 9
-14 -9 -38 -15 -54 -13 -24 3 -28 7 -29 37 0 19 -5 36 -12 39 -8 2 -12 -10
-12 -37z"/>
<path d="M1160 222 c0 -5 11 -19 25 -32 19 -18 25 -20 25 -8 0 8 -8 22 -18 31
-20 19 -32 22 -32 9z"/>
<path d="M3595 413 c0 -35 -26 -42 -40 -11 -6 13 -19 25 -30 27 -18 3 -18 1 4
-23 l24 -26 -41 0 c-38 0 -42 -2 -42 -25 0 -14 5 -25 10 -25 6 0 10 9 10 20 0
19 7 20 115 20 108 0 115 -1 115 -20 0 -11 5 -20 10 -20 6 0 10 11 10 25 0 22
-4 25 -35 25 -39 0 -42 5 -20 30 13 15 14 18 2 23 -8 3 -21 -7 -31 -24 -22
-37 -36 -37 -36 1 0 18 -5 30 -13 30 -7 0 -13 -11 -12 -27z"/>
<path d="M3870 354 c0 -47 -4 -83 -9 -80 -12 8 -73 -72 -66 -85 4 -6 21 8 38
33 l32 43 3 -68 c2 -37 7 -67 12 -67 6 0 10 4 10 10 0 5 6 7 14 4 17 -7 61 49
79 101 l14 39 12 -35 c20 -57 59 -109 77 -102 13 5 11 10 -10 32 -25 26 -65
105 -66 129 0 8 16 12 45 12 25 0 45 5 45 10 0 6 -23 10 -51 10 l-52 0 5 50
c4 38 2 50 -8 50 -10 0 -14 -15 -14 -50 l0 -50 -35 0 c-19 0 -35 -4 -35 -10 0
-5 16 -10 35 -10 34 0 35 -1 29 -27 -16 -64 -54 -133 -75 -133 -5 0 -9 60 -9
140 0 87 -4 140 -10 140 -6 0 -10 -35 -10 -86z"/>
<path d="M4266 415 c-6 -23 -11 -25 -66 -25 -33 0 -60 -4 -60 -10 0 -5 25 -10
56 -10 56 0 56 0 42 -22 -14 -22 -65 -62 -91 -71 -9 -3 -9 -8 -1 -16 14 -15
89 38 112 80 21 37 33 37 56 -1 24 -42 93 -87 108 -72 7 7 10 13 7 14 -2 2
-22 12 -43 23 -22 11 -46 30 -54 43 -14 22 -14 22 37 22 28 0 51 5 51 10 0 6
-30 10 -69 10 -67 0 -68 0 -63 25 2 14 0 25 -6 25 -5 0 -13 -11 -16 -25z"/>
<path d="M3140 410 c0 -6 27 -10 60 -10 l60 0 0 -115 0 -115 -30 0 -30 0 0 85
c0 50 -4 85 -10 85 -6 0 -10 -35 -10 -85 l0 -85 -35 0 c-19 0 -35 -4 -35 -10
0 -6 58 -10 155 -10 97 0 155 4 155 10 0 6 -28 10 -65 10 l-65 0 0 60 0 60 45
0 c25 0 45 5 45 10 0 6 -20 10 -45 10 l-45 0 0 45 0 45 55 0 c30 0 55 5 55 10
0 6 -50 10 -130 10 -80 0 -130 -4 -130 -10z"/>
<path d="M4030 403 c0 -4 7 -17 15 -27 17 -23 34 -13 19 11 -12 19 -34 29 -34
16z"/>
<path d="M3800 373 c1 -10 36 -53 44 -53 13 0 5 28 -12 43 -20 18 -32 22 -32
10z"/>
<path d="M3530 308 c0 -37 1 -38 35 -38 19 0 35 -4 35 -10 0 -5 -22 -10 -50
-10 l-50 0 0 -50 c0 -27 5 -50 10 -50 6 0 10 18 10 40 l0 40 40 0 40 0 0 -50
c0 -27 5 -50 10 -50 6 0 10 23 10 50 l0 50 35 0 c32 0 35 -2 35 -30 0 -20 -5
-30 -15 -30 -8 0 -15 -5 -15 -11 0 -6 10 -9 23 -7 19 3 22 10 25 51 l3 47 -45
0 c-26 0 -46 5 -46 10 0 6 14 10 30 10 28 0 30 3 30 38 l0 37 -75 0 -75 0 0
-37z m130 2 c0 -18 -7 -20 -55 -20 -48 0 -55 2 -55 20 0 18 7 20 55 20 48 0
55 -2 55 -20z"/>
<path d="M4275 290 c10 -11 22 -17 27 -14 12 8 -11 34 -30 34 -13 0 -12 -3 3
-20z"/>
<path d="M4280 225 c12 -13 27 -22 32 -19 12 8 -21 44 -40 44 -12 0 -10 -6 8
-25z"/>
<path d="M4157 196 c-8 -19 -13 -37 -10 -40 8 -8 52 57 46 67 -9 14 -20 6 -36
-27z"/>
<path d="M4220 191 c0 -36 4 -43 27 -52 34 -13 103 -2 110 17 9 23 -4 28 -23
10 -11 -11 -29 -16 -53 -14 -34 3 -36 5 -37 37 0 19 -5 36 -12 39 -8 2 -12
-10 -12 -37z"/>
<path d="M4370 222 c0 -14 46 -53 53 -45 4 3 -3 17 -15 30 -22 23 -38 30 -38
15z"/>
<path d="M6051 398 c27 -55 87 -118 105 -111 10 4 1 17 -30 45 -25 21 -51 54
-58 73 -6 19 -18 35 -25 35 -10 0 -8 -11 8 -42z"/>
<path d="M6265 412 c-3 -15 -19 -48 -35 -72 -19 -28 -26 -46 -18 -49 6 -2 17
4 23 13 23 30 27 16 23 -79 -2 -59 1 -95 7 -95 6 0 9 43 7 114 -2 83 1 123 12
149 8 19 12 38 8 41 -12 12 -21 5 -27 -22z"/>
<path d="M6350 436 c0 -14 51 -57 60 -51 8 5 4 15 -11 31 -20 21 -49 33 -49
20z"/>
<path d="M6800 301 c0 -131 -1 -140 -20 -143 -14 -2 -17 -7 -11 -17 7 -10 13
-11 29 -2 20 10 21 21 24 156 2 111 0 145 -9 145 -10 0 -13 -35 -13 -139z"/>
<path d="M6995 397 c-17 -23 -50 -52 -74 -64 -32 -16 -40 -24 -28 -28 22 -9
69 18 106 61 l33 37 41 -42 42 -41 -78 0 c-45 0 -77 -4 -77 -10 0 -6 33 -10
80 -10 48 0 80 4 80 10 0 7 7 7 21 0 11 -7 28 -9 36 -6 11 5 1 14 -35 32 -52
26 -92 65 -92 90 0 26 -25 13 -55 -29z"/>
<path d="M7265 383 c-14 -32 -33 -65 -41 -74 -13 -15 -13 -17 0 -22 10 -4 21
3 30 21 14 25 15 20 16 -75 0 -150 18 -127 23 30 2 72 7 142 11 155 5 14 4 22
-2 22 -6 0 -22 -26 -37 -57z"/>
<path d="M7382 411 c22 -28 48 -41 48 -23 0 13 -45 52 -59 52 -8 0 -4 -11 11
-29z"/>
<path d="M5945 390 c-10 -23 -33 -54 -52 -70 -19 -17 -28 -32 -22 -36 14 -8
54 30 89 87 26 43 29 59 10 59 -4 0 -15 -18 -25 -40z"/>
<path d="M6550 410 c0 -5 14 -10 31 -10 l31 0 -17 -27 c-10 -16 -24 -34 -33
-41 -28 -21 -1 -31 65 -23 35 4 67 3 72 -2 5 -5 11 -5 15 1 8 13 -43 74 -56
66 -5 -3 -2 -14 8 -25 17 -18 16 -19 -31 -19 l-48 0 25 33 c19 24 35 33 62 35
68 6 36 22 -44 22 -47 0 -80 -4 -80 -10z"/>
<path d="M6740 310 c0 -49 4 -90 9 -90 5 0 11 41 13 90 2 67 0 90 -9 90 -10 0
-13 -25 -13 -90z"/>
<path d="M6300 360 c0 -6 40 -10 100 -10 60 0 100 4 100 10 0 6 -40 10 -100
10 -60 0 -100 -4 -100 -10z"/>
<path d="M7310 360 c0 -6 40 -10 99 -10 56 0 103 4 106 10 4 6 -32 10 -99 10
-64 0 -106 -4 -106 -10z"/>
<path d="M6424 253 l-19 -78 -60 -6 c-42 -4 -24 -6 60 -6 66 1 99 2 73 4 -29
3 -48 9 -48 16 0 7 9 41 20 77 24 78 23 70 6 70 -8 0 -20 -28 -32 -77z"/>
<path d="M7446 288 c-4 -24 -12 -60 -18 -80 -11 -37 -11 -37 -72 -41 -34 -2
-7 -3 59 -3 66 0 98 1 72 3 -39 3 -47 7 -43 21 3 9 10 37 16 62 6 25 13 53 16
63 3 10 0 17 -9 17 -9 0 -17 -15 -21 -42z"/>
<path d="M5930 310 c0 -5 12 -10 26 -10 24 0 25 -2 19 -32 -11 -51 -34 -88
-60 -100 -25 -11 -30 -20 -19 -31 10 -10 63 32 78 62 8 15 17 43 21 64 7 35 9
37 47 37 l39 0 -7 -57 c-8 -69 -10 -73 -35 -73 -10 0 -19 -7 -19 -15 0 -16 27
-20 49 -6 14 9 29 79 30 139 l1 32 -85 0 c-50 0 -85 -4 -85 -10z"/>
<path d="M6330 313 c0 -25 36 -113 46 -113 9 0 7 16 -8 60 -11 33 -24 60 -29
60 -5 0 -9 -3 -9 -7z"/>
<path d="M7342 309 c26 -90 34 -109 46 -109 14 0 13 5 -13 79 -11 33 -42 60
-33 30z"/>
<path d="M6620 280 c0 -16 -7 -20 -30 -20 -16 0 -30 -4 -30 -10 0 -5 14 -10
30 -10 27 0 30 -3 30 -30 0 -28 -3 -30 -35 -30 -25 0 -35 -4 -35 -16 0 -12 6
-15 23 -11 12 3 48 9 80 12 62 8 78 25 22 25 -31 0 -35 3 -35 25 0 21 5 25 30
25 17 0 30 5 30 10 0 6 -14 10 -31 10 -26 0 -31 3 -26 20 3 13 0 20 -9 20 -8
0 -14 -9 -14 -20z"/>
<path d="M6940 195 c0 -37 4 -65 10 -65 6 0 10 5 10 10 0 6 32 10 75 10 43 0
75 -4 75 -10 0 -5 5 -10 10 -10 6 0 10 28 10 65 l0 65 -95 0 -95 0 0 -65z
m170 10 l0 -35 -75 0 -75 0 0 35 0 35 75 0 75 0 0 -35z"/>
<path d="M9380 405 c0 -32 -2 -35 -30 -35 -16 0 -30 -4 -30 -10 0 -5 14 -10
31 -10 l32 0 -6 -56 c-3 -31 -17 -79 -30 -106 -26 -52 -19 -76 9 -33 21 32 44
117 44 162 0 28 4 33 23 33 21 0 22 -3 19 -84 -3 -74 -6 -85 -25 -94 -20 -9
-21 -10 -4 -17 33 -14 45 14 49 118 l4 97 -34 0 c-33 0 -34 1 -30 35 3 24 0
35 -9 35 -8 0 -13 -13 -13 -35z"/>
<path d="M9830 420 c0 -17 -7 -20 -45 -20 -25 0 -45 -4 -45 -10 0 -5 20 -10
45 -10 33 0 45 -4 45 -15 0 -10 -11 -15 -35 -15 -34 0 -35 -1 -35 -40 0 -37 2
-40 28 -40 l27 -1 -37 -34 c-21 -20 -38 -37 -38 -40 0 -14 28 -1 57 27 l33 32
0 -49 c0 -55 17 -52 22 4 l3 34 32 -27 c17 -14 34 -22 37 -17 3 5 -11 23 -32
40 l-37 30 38 1 c37 0 37 1 37 40 l0 40 -40 0 c-29 0 -40 4 -40 15 0 11 12 15
45 15 25 0 45 5 45 10 0 6 -20 10 -45 10 -38 0 -45 3 -45 20 0 11 -4 20 -10
20 -5 0 -10 -9 -10 -20z m0 -110 c0 -15 -7 -20 -25 -20 -18 0 -25 5 -25 20 0
15 7 20 25 20 18 0 25 -5 25 -20z m80 0 c0 -16 -7 -20 -30 -20 -23 0 -30 4
-30 20 0 16 7 20 30 20 23 0 30 -4 30 -20z"/>
<path d="M10120 432 c0 -9 44 -32 60 -32 19 0 10 17 -15 28 -31 14 -45 15 -45
4z"/>
<path d="M10520 400 c0 -36 -2 -40 -26 -40 -14 0 -23 -4 -19 -10 3 -5 15 -10
26 -10 15 0 19 -7 19 -32 0 -50 -18 -104 -46 -137 -23 -27 -19 -51 6 -36 22
14 52 90 58 149 6 56 9 61 32 61 24 0 25 0 21 -85 -3 -96 -5 -100 -32 -100
-11 0 -17 -4 -14 -10 9 -14 41 -12 52 3 6 6 13 57 16 113 l5 101 -37 -1 c-35
-1 -36 0 -35 37 1 25 -3 37 -12 37 -10 0 -14 -13 -14 -40z"/>
<path d="M9114 423 l-92 -4 -4 -99 c-3 -82 -7 -104 -25 -129 -19 -25 -20 -30
-7 -35 20 -8 46 52 52 122 l4 52 119 0 c73 0 119 4 119 10 0 6 -47 10 -120 10
l-120 0 0 25 c0 25 1 25 79 25 43 0 92 3 110 6 34 7 33 25 -2 22 -12 -1 -63
-4 -113 -5z"/>
<path d="M9666 412 c-3 -5 5 -19 18 -31 13 -13 26 -18 30 -13 3 5 -5 19 -18
31 -13 13 -26 18 -30 13z"/>
<path d="M10345 400 c-4 -6 18 -10 59 -10 37 0 66 4 66 10 0 6 -26 10 -59 10
-33 0 -63 -4 -66 -10z"/>
<path d="M9500 270 c0 -73 4 -120 10 -120 6 0 10 9 10 20 0 16 7 20 35 20 29
0 35 -4 35 -21 0 -11 5 -17 10 -14 6 4 10 55 10 121 l0 114 -55 0 -55 0 0
-120z m90 20 l0 -80 -35 0 -35 0 0 80 0 80 35 0 35 0 0 -80z"/>
<path d="M10060 327 c0 -75 -13 -123 -40 -152 -18 -19 -19 -23 -6 -28 20 -8
52 52 62 112 l7 41 93 0 94 0 0 45 0 45 -105 0 -105 0 0 -63z m190 18 c0 -25
-1 -25 -85 -25 -84 0 -85 0 -85 25 0 25 1 25 85 25 84 0 85 0 85 -25z"/>
<path d="M9650 310 c0 -5 11 -10 25 -10 24 0 25 -3 25 -54 0 -46 -3 -56 -25
-70 -14 -9 -23 -21 -19 -27 4 -6 13 -4 25 7 19 17 21 17 51 -1 49 -29 218 -34
218 -6 0 4 -40 8 -88 7 -59 -1 -98 4 -115 13 -25 13 -27 19 -27 83 l0 68 -35
0 c-19 0 -35 -4 -35 -10z"/>
<path d="M10330 310 c0 -5 14 -10 30 -10 l30 0 -15 -37 c-9 -21 -23 -45 -31
-54 -21 -24 -4 -31 54 -23 33 4 52 2 56 -5 4 -6 11 -9 16 -6 11 7 -30 95 -43
95 -5 0 -6 -7 -3 -15 3 -8 8 -21 12 -29 3 -9 -5 -15 -27 -20 -18 -3 -34 -4
-36 -2 -2 2 6 24 19 50 19 41 26 46 55 46 18 0 33 5 33 10 0 6 -32 10 -75 10
-43 0 -75 -4 -75 -10z"/>
<path d="M9070 210 c0 -40 4 -70 10 -70 6 0 10 5 10 10 0 6 28 10 65 10 37 0
65 -4 65 -10 0 -5 5 -10 10 -10 6 0 10 30 10 70 l0 70 -85 0 -85 0 0 -70z
m150 10 l0 -40 -65 0 -65 0 0 40 0 40 65 0 65 0 0 -40z"/>
<path d="M10095 195 c0 -47 4 -65 13 -65 7 0 10 5 7 10 -4 6 22 10 69 10 44 0
76 -4 76 -10 0 -5 5 -10 10 -10 6 0 10 28 10 65 l0 65 -92 0 -93 0 0 -65z
m165 10 l0 -35 -75 0 -75 0 0 35 0 35 75 0 75 0 0 -35z"/>
</g>
</svg>
