<?xml version="1.0" standalone="no"?>
<!DOCTYPE svg PUBLIC "-//W3C//DTD SVG 20010904//EN"
 "http://www.w3.org/TR/2001/REC-SVG-20010904/DTD/svg10.dtd">
<svg version="1.0" xmlns="http://www.w3.org/2000/svg"
 width="1301.000000pt" height="396.000000pt" viewBox="0 0 1301.000000 396.000000"
 preserveAspectRatio="xMidYMid meet">

<g transform="translate(0.000000,396.000000) scale(0.100000,-0.100000)"
fill="#000000" stroke="none">
<path d="M72 1983 l3 -1928 6428 -3 6427 -2 0 1930 0 1930 -6430 0 -6430 0 2
-1927z m5408 1847 l0 -50 -60 0 c-33 0 -60 -4 -60 -10 0 -6 27 -10 60 -10 47
0 60 -3 60 -15 0 -31 -40 -93 -81 -127 -25 -22 -37 -38 -31 -42 16 -10 87 58
110 105 l20 40 20 -33 c35 -55 98 -112 118 -104 16 6 15 9 -7 23 -45 30 -81
68 -100 105 -10 21 -19 40 -19 43 0 3 27 5 59 5 33 0 63 5 66 10 4 6 -20 10
-65 10 l-71 0 2 50 3 50 153 0 153 0 0 -25 c0 -23 -3 -25 -50 -25 l-50 0 0
-85 0 -85 49 0 50 0 3 -37 3 -38 70 -3 c62 -3 72 0 87 19 18 21 16 39 -3 39
-5 0 -9 -7 -9 -15 0 -19 -31 -35 -69 -35 -47 0 -61 9 -61 41 0 28 1 29 55 29
l55 0 0 85 0 85 -56 0 c-52 0 -55 1 -52 23 3 22 5 22 178 24 l175 3 18 -25 18
-25 -46 0 c-25 0 -45 -4 -45 -9 0 -4 11 -6 25 -3 33 6 33 -17 0 -48 -40 -37
-32 -44 48 -37 50 4 77 3 85 -5 6 -6 15 -8 19 -5 4 4 -7 22 -25 39 -31 31 -57
34 -32 3 11 -13 6 -15 -34 -15 -42 0 -46 2 -37 18 30 50 38 55 91 50 27 -3 50
-1 50 3 0 5 -21 9 -47 9 -25 0 -43 3 -40 7 4 3 0 15 -10 25 -16 17 -5 18 330
18 l347 0 0 -50 c0 -47 -2 -50 -25 -50 -24 0 -25 -2 -25 -76 0 -47 4 -73 10
-69 6 3 10 33 10 66 l0 59 45 0 45 0 0 -60 c0 -33 4 -60 10 -60 6 0 10 30 10
70 l0 70 -30 0 c-27 0 -30 3 -30 34 0 66 0 66 136 66 68 0 124 -3 124 -8 0
-19 -68 -86 -104 -103 -30 -13 -36 -19 -24 -24 23 -9 69 17 107 61 l33 37 41
-42 42 -41 -78 0 c-45 0 -77 -4 -77 -10 0 -6 33 -10 80 -10 48 0 80 4 80 10 0
7 7 7 21 0 11 -7 28 -9 36 -6 11 5 1 14 -35 32 -52 26 -92 65 -92 90 0 11 25
14 116 14 63 0 113 -4 110 -8 -7 -11 22 -52 36 -52 6 0 3 11 -6 25 -9 13 -16
27 -16 30 0 3 1226 5 2725 5 l2725 0 0 -175 0 -175 -6395 0 -6395 0 0 175 0
175 2685 0 2685 0 0 -50z m330 -45 c0 -22 -4 -25 -40 -25 -36 0 -40 3 -40 25
0 23 4 25 40 25 36 0 40 -2 40 -25z m110 0 c0 -23 -4 -25 -45 -25 -41 0 -45 2
-45 25 0 23 4 25 45 25 41 0 45 -2 45 -25z m-110 -75 c0 -28 -2 -30 -40 -30
-38 0 -40 2 -40 30 0 28 2 30 40 30 38 0 40 -2 40 -30z m110 0 c0 -29 -2 -30
-45 -30 -43 0 -45 1 -45 30 0 29 2 30 45 30 43 0 45 -1 45 -30z m-3580 -385
l0 -175 -1115 0 -1115 0 0 175 0 175 1115 0 1115 0 0 -175z m2810 0 l0 -175
-1390 0 -1390 0 0 175 0 175 1390 0 1390 0 0 -175z m3030 0 l0 -175 -1500 0
-1500 0 0 175 0 175 1500 0 1500 0 0 -175z m3190 0 l0 -175 -1580 0 -1580 0 0
175 0 175 1580 0 1580 0 0 -175z m1530 0 l0 -175 -750 0 -750 0 0 175 0 175
750 0 750 0 0 -175z m-10560 -390 l0 -175 -1115 0 -1115 0 0 175 0 175 1115 0
1115 0 0 -175z m1007 168 c-4 -3 0 -15 10 -25 15 -17 14 -18 -25 -18 -35 0
-42 -3 -42 -20 0 -11 5 -20 10 -20 6 0 10 7 10 15 0 8 7 15 15 15 22 0 18 -19
-10 -56 -14 -18 -21 -35 -15 -39 5 -3 17 6 26 20 17 26 70 37 61 13 -2 -7 -14
-13 -26 -12 -16 0 -20 -4 -15 -18 4 -13 -3 -23 -25 -36 -33 -18 -40 -32 -16
-32 11 0 15 -12 15 -45 0 -25 5 -45 10 -45 6 0 10 5 10 11 0 8 12 10 35 6 l35
-6 0 45 0 44 -42 0 -43 0 25 20 c25 19 25 19 46 -1 33 -31 52 -23 21 9 -25 26
-26 30 -12 48 21 28 19 34 -14 34 -24 0 -29 4 -28 20 1 15 8 20 29 20 18 0 28
-5 28 -15 0 -8 5 -15 10 -15 6 0 10 11 10 25 0 21 5 25 29 25 24 0 28 -3 24
-20 -3 -11 -14 -20 -24 -20 -17 0 -19 -8 -19 -85 0 -50 4 -85 10 -85 6 0 10
32 10 75 l0 75 40 0 40 0 0 -75 c0 -43 4 -75 10 -75 6 0 10 35 10 85 l0 85
-30 0 c-32 0 -33 1 -24 24 4 10 18 16 41 16 20 0 32 4 28 10 -3 6 -37 10 -75
10 -51 0 -69 -4 -74 -15 -3 -8 -18 -15 -32 -15 -15 0 -24 3 -21 7 4 3 0 15
-10 25 -16 17 12 18 881 18 l896 0 -2 -172 -3 -173 -1387 -3 -1388 -2 0 175 0
175 492 0 c270 0 488 -3 485 -7z m2920 0 c-4 -3 0 -15 10 -25 15 -17 14 -18
-25 -18 -35 0 -42 -3 -42 -20 0 -11 5 -20 10 -20 6 0 10 7 10 15 0 8 7 15 15
15 22 0 18 -19 -10 -56 -14 -18 -21 -35 -15 -39 5 -3 17 6 26 20 17 26 70 37
61 13 -2 -7 -14 -13 -26 -12 -16 0 -20 -4 -15 -18 4 -13 -3 -23 -25 -36 -33
-18 -40 -32 -16 -32 11 0 15 -12 15 -45 0 -25 5 -45 10 -45 6 0 10 5 10 11 0
8 12 10 35 6 l35 -6 0 45 0 44 -42 0 -43 0 25 20 c25 19 25 19 46 -1 33 -31
52 -23 21 9 -25 26 -26 30 -12 48 21 28 19 34 -14 34 -24 0 -29 4 -28 20 1 15
8 20 29 20 18 0 28 -5 28 -15 0 -8 5 -15 10 -15 6 0 10 11 10 25 0 21 5 25 29
25 24 0 28 -3 24 -20 -3 -11 -14 -20 -24 -20 -17 0 -19 -8 -19 -85 0 -50 4
-85 10 -85 6 0 10 32 10 75 l0 75 40 0 40 0 0 -75 c0 -43 4 -75 10 -75 6 0 10
35 10 85 l0 85 -30 0 c-32 0 -33 1 -24 24 4 10 18 16 41 16 20 0 32 4 28 10
-3 6 -37 10 -75 10 -51 0 -69 -4 -74 -15 -3 -8 -18 -15 -32 -15 -15 0 -24 3
-21 7 4 3 0 15 -10 25 -16 17 14 18 936 18 l951 0 -2 -172 -3 -173 -1497 -3
-1498 -2 0 175 0 175 547 0 c300 0 543 -3 540 -7z m3110 0 c-4 -3 0 -15 10
-25 15 -17 14 -18 -25 -18 -35 0 -42 -3 -42 -20 0 -11 5 -20 10 -20 6 0 10 7
10 15 0 8 7 15 15 15 22 0 18 -19 -10 -56 -14 -18 -21 -35 -15 -39 5 -3 17 6
26 20 17 26 70 37 61 13 -2 -7 -14 -13 -26 -12 -16 0 -20 -4 -15 -18 4 -13 -3
-23 -25 -36 -33 -18 -40 -32 -16 -32 11 0 15 -12 15 -45 0 -25 5 -45 10 -45 6
0 10 5 10 11 0 8 12 10 35 6 l35 -6 0 45 0 44 -42 0 -43 0 25 20 c25 19 25 19
46 -1 33 -31 52 -23 21 9 -25 26 -26 30 -12 48 21 28 19 34 -14 34 -24 0 -29
4 -28 20 1 15 8 20 29 20 18 0 28 -5 28 -15 0 -8 5 -15 10 -15 6 0 10 11 10
25 0 21 5 25 29 25 24 0 28 -3 24 -20 -3 -11 -14 -20 -24 -20 -17 0 -19 -8
-19 -85 0 -50 4 -85 10 -85 6 0 10 32 10 75 l0 75 40 0 40 0 0 -75 c0 -43 4
-75 10 -75 6 0 10 35 10 85 l0 85 -30 0 c-32 0 -33 1 -24 24 4 10 18 16 41 16
20 0 32 4 28 10 -3 6 -37 10 -75 10 -51 0 -69 -4 -74 -15 -3 -8 -18 -15 -32
-15 -15 0 -24 3 -21 7 4 3 0 15 -10 25 -16 17 15 18 976 18 l991 0 -2 -172 -3
-173 -1577 -3 -1578 -2 0 175 0 175 587 0 c322 0 583 -3 580 -7z m2360 0 c-4
-3 0 -15 10 -25 15 -17 14 -18 -25 -18 -35 0 -42 -3 -42 -20 0 -11 5 -20 10
-20 6 0 10 7 10 15 0 8 7 15 15 15 22 0 18 -19 -10 -56 -14 -18 -21 -35 -15
-39 5 -3 17 6 26 20 17 26 70 37 61 13 -2 -7 -14 -13 -26 -12 -16 0 -20 -4
-15 -18 4 -13 -3 -23 -25 -36 -33 -18 -40 -32 -16 -32 11 0 15 -12 15 -45 0
-25 5 -45 10 -45 6 0 10 5 10 11 0 8 12 10 35 6 l35 -6 0 45 0 44 -42 0 -43 0
25 20 c25 19 25 19 46 -1 33 -31 52 -23 21 9 -25 26 -26 30 -12 48 21 28 19
34 -14 34 -24 0 -29 4 -28 20 1 15 8 20 29 20 18 0 28 -5 28 -15 0 -8 5 -15
10 -15 6 0 10 11 10 25 0 21 5 25 29 25 24 0 28 -3 24 -20 -3 -11 -14 -20 -24
-20 -17 0 -19 -8 -19 -85 0 -50 4 -85 10 -85 6 0 10 32 10 75 l0 75 40 0 40 0
0 -75 c0 -43 4 -75 10 -75 6 0 10 35 10 85 l0 85 -30 0 c-32 0 -33 1 -24 24 4
10 18 16 41 16 20 0 32 4 28 10 -3 6 -37 10 -75 10 -51 0 -69 -4 -74 -15 -3
-8 -18 -15 -32 -15 -15 0 -24 3 -21 7 4 3 0 15 -10 25 -16 17 2 18 561 18
l576 0 -2 -172 -3 -173 -747 -3 -748 -2 0 175 0 175 172 0 c94 0 168 -3 165
-7z m-8347 -243 c0 -15 -7 -20 -25 -20 -18 0 -25 5 -25 20 0 15 7 20 25 20 18
0 25 -5 25 -20z m2920 0 c0 -15 -7 -20 -25 -20 -18 0 -25 5 -25 20 0 15 7 20
25 20 18 0 25 -5 25 -20z m3110 0 c0 -15 -7 -20 -25 -20 -18 0 -25 5 -25 20 0
15 7 20 25 20 18 0 25 -5 25 -20z m2360 0 c0 -15 -7 -20 -25 -20 -18 0 -25 5
-25 20 0 15 7 20 25 20 18 0 25 -5 25 -20z m-9440 -685 l0 -555 -1115 0 -1115
0 0 555 0 555 1115 0 1115 0 0 -555z m2810 0 l0 -555 -1390 0 -1390 0 0 555 0
555 1390 0 1390 0 0 -555z m3030 0 l0 -555 -1500 0 -1500 0 0 555 0 555 1500
0 1500 0 0 -555z m3190 0 l0 -555 -1580 0 -1580 0 0 555 0 555 1580 0 1580 0
0 -555z m1530 0 l0 -555 -750 0 -750 0 0 555 0 555 750 0 750 0 0 -555z
m-10562 -767 l-3 -173 -1112 -3 -1113 -2 0 175 0 175 1115 0 1115 0 -2 -172z
m2810 0 l-3 -173 -1387 -3 -1388 -2 0 175 0 175 1390 0 1390 0 -2 -172z m3030
0 l-3 -173 -1497 -3 -1498 -2 0 175 0 175 1500 0 1500 0 -2 -172z m3190 0 l-3
-173 -1577 -3 -1578 -2 0 175 0 175 1580 0 1580 0 -2 -172z m1530 0 l-3 -173
-747 -3 -748 -2 0 175 0 175 750 0 750 0 -2 -172z m-10558 -383 l0 -175 -1115
0 -1115 0 0 175 0 175 1115 0 1115 0 0 -175z m2810 0 l0 -175 -1390 0 -1390 0
0 175 0 175 1390 0 1390 0 0 -175z m1280 135 c0 -36 -2 -40 -25 -40 -14 0 -25
-4 -25 -10 0 -5 11 -10 25 -10 22 0 25 -4 25 -33 0 -26 -6 -36 -25 -45 -14 -6
-25 -16 -25 -22 0 -13 6 -13 31 0 18 10 19 7 19 -39 0 -37 -4 -53 -17 -60 -10
-5 -14 -13 -10 -17 4 -5 16 -3 25 2 12 8 18 28 20 75 2 43 8 66 18 72 19 11
18 28 -1 21 -11 -5 -15 1 -15 20 0 16 6 26 15 26 8 0 15 5 15 10 0 6 -6 10
-14 10 -9 0 -15 14 -18 40 l-4 40 868 0 868 0 0 -175 0 -175 -1500 0 -1500 0
0 175 0 175 625 0 625 0 0 -40z m3110 0 c0 -36 -2 -40 -25 -40 -14 0 -25 -4
-25 -10 0 -5 11 -10 25 -10 22 0 25 -4 25 -33 0 -26 -6 -36 -25 -45 -14 -6
-25 -16 -25 -22 0 -13 6 -13 31 0 18 10 19 7 19 -39 0 -37 -4 -53 -17 -60 -10
-5 -14 -13 -10 -17 4 -5 16 -3 25 2 12 8 18 28 20 75 2 43 8 66 18 72 19 11
18 28 -1 21 -11 -5 -15 1 -15 20 0 16 6 26 15 26 8 0 15 5 15 10 0 6 -6 10
-14 10 -9 0 -15 14 -18 40 l-4 40 908 0 908 0 0 -175 0 -175 -1580 0 -1580 0
0 175 0 175 665 0 665 0 0 -40z m3360 -135 l0 -175 -750 0 -750 0 0 175 0 175
750 0 750 0 0 -175z m-10560 -380 l0 -175 -1115 0 -1115 0 0 175 0 175 1115 0
1115 0 0 -175z m2810 0 l0 -175 -1390 0 -1390 0 0 175 0 175 1390 0 1390 0 0
-175z m3030 0 l0 -175 -1500 0 -1500 0 0 175 0 175 1500 0 1500 0 0 -175z
m3190 0 l0 -175 -1580 0 -1580 0 0 175 0 175 1580 0 1580 0 0 -175z m1530 0
l0 -175 -750 0 -750 0 0 175 0 175 750 0 750 0 0 -175z m-10560 -380 l0 -175
-1115 0 -1115 0 0 175 0 175 1115 0 1115 0 0 -175z m9030 0 l0 -175 -4500 0
-4500 0 0 175 0 175 4500 0 4500 0 0 -175z m1530 0 l0 -175 -750 0 -750 0 0
175 0 175 750 0 750 0 0 -175z"/>
<path d="M6410 3863 c1 -15 39 -58 46 -51 8 9 -22 58 -36 58 -6 0 -10 -3 -10
-7z"/>
<path d="M6737 3828 c-20 -34 -22 -46 -13 -60 6 -10 16 -18 23 -18 7 0 13 -11
13 -25 0 -18 -5 -25 -20 -25 -11 0 -20 -4 -20 -10 0 -5 9 -10 20 -10 17 0 20
-7 20 -45 0 -25 2 -45 5 -45 16 0 55 34 55 48 0 13 -3 12 -20 -3 -20 -18 -20
-17 -20 13 0 27 4 32 25 32 14 0 25 5 25 10 0 6 -11 10 -25 10 -20 0 -25 5
-25 25 0 18 5 25 20 25 11 0 20 5 20 10 0 6 -20 10 -45 10 -35 0 -43 3 -39 15
4 10 20 15 50 15 24 0 44 5 44 10 0 6 -16 10 -35 10 -32 0 -35 2 -25 19 12 24
13 31 1 31 -5 0 -20 -19 -34 -42z"/>
<path d="M6060 3852 c0 -14 39 -46 47 -39 3 4 -2 16 -12 27 -19 21 -35 26 -35
12z"/>
<path d="M6838 3854 c-8 -12 28 -57 42 -52 5 1 -1 16 -13 32 -13 16 -26 25
-29 20z"/>
<path d="M6962 3830 c-12 -16 -18 -31 -13 -35 5 -3 19 8 30 24 28 39 11 49
-17 11z"/>
<path d="M7510 3848 c0 -5 29 -8 65 -8 l65 0 0 -120 c0 -113 -1 -120 -20 -120
-11 0 -20 -5 -20 -11 0 -6 12 -9 28 -7 l27 3 3 135 3 135 -76 0 c-41 0 -75 -3
-75 -7z"/>
<path d="M6490 3840 c0 -6 30 -10 70 -10 l70 0 0 -120 c0 -113 -1 -120 -20
-120 -11 0 -20 -4 -20 -10 0 -14 33 -13 48 2 8 8 12 54 12 140 l0 128 -80 0
c-47 0 -80 -4 -80 -10z"/>
<path d="M7410 3700 c0 -73 4 -120 10 -120 6 0 10 47 10 120 0 73 -4 120 -10
120 -6 0 -10 -47 -10 -120z"/>
<path d="M6390 3691 c0 -74 4 -121 10 -121 6 0 10 45 10 114 0 66 -4 117 -10
121 -6 4 -10 -37 -10 -114z"/>
<path d="M6530 3785 c0 -23 -3 -25 -50 -25 -27 0 -50 -4 -50 -10 0 -5 18 -10
41 -10 l40 0 -18 -31 c-10 -17 -30 -42 -46 -54 -16 -14 -23 -26 -17 -30 15 -9
34 8 70 63 l30 45 0 -56 c0 -44 -3 -57 -15 -57 -8 0 -15 -7 -15 -15 0 -18 5
-18 31 -5 16 9 19 22 19 75 l0 65 30 0 c17 0 30 5 30 10 0 6 -13 10 -30 10
-25 0 -30 4 -30 25 0 14 -4 25 -10 25 -5 0 -10 -11 -10 -25z"/>
<path d="M7460 3730 l0 -60 30 0 c28 0 30 -2 30 -40 0 -22 5 -40 10 -40 6 0
10 18 10 40 0 39 1 40 35 40 l35 0 0 60 0 60 -75 0 -75 0 0 -60z m60 25 c0 -8
-9 -15 -20 -15 -11 0 -20 7 -20 15 0 8 9 15 20 15 11 0 20 -7 20 -15z m70 0
c0 -9 -9 -15 -25 -15 -16 0 -25 6 -25 15 0 9 9 15 25 15 16 0 25 -6 25 -15z
m-70 -55 c0 -13 -7 -20 -20 -20 -13 0 -20 7 -20 20 0 13 7 20 20 20 13 0 20
-7 20 -20z m70 -1 c0 -15 -5 -20 -22 -17 -34 5 -37 38 -4 38 20 0 26 -5 26
-21z"/>
<path d="M6030 3771 c0 -13 50 -44 58 -36 4 4 -4 15 -17 26 -25 20 -41 24 -41
10z"/>
<path d="M6900 3698 c-1 -45 -21 -78 -61 -99 -27 -14 -31 -19 -17 -24 24 -9
68 23 84 62 16 38 18 93 4 93 -5 0 -10 -15 -10 -32z"/>
<path d="M6147 3669 c-3 -23 -15 -51 -27 -64 -14 -15 -18 -25 -10 -30 25 -15
60 50 60 113 0 38 -17 24 -23 -19z"/>
<path d="M6200 3645 c0 -37 4 -65 10 -65 6 0 10 28 10 65 0 37 -4 65 -10 65
-6 0 -10 -28 -10 -65z"/>
<path d="M6250 3661 c0 -68 7 -81 41 -81 29 0 50 23 34 38 -4 4 -10 1 -12 -5
-3 -7 -14 -13 -25 -13 -19 0 -20 5 -16 55 4 41 1 55 -9 55 -9 0 -13 -15 -13
-49z"/>
<path d="M6067 3647 c-29 -57 -32 -67 -17 -67 14 0 63 101 53 111 -4 4 -21
-15 -36 -44z"/>
<path d="M7100 3635 c0 -37 4 -65 10 -65 6 0 10 5 10 10 0 6 32 10 75 10 43 0
75 -4 75 -10 0 -5 5 -10 10 -10 6 0 10 28 10 65 l0 65 -95 0 -95 0 0 -65z
m170 10 l0 -35 -75 0 -75 0 0 35 0 35 75 0 75 0 0 -35z"/>
<path d="M6936 3632 c-3 -5 8 -21 23 -36 16 -15 31 -23 35 -18 3 5 -8 21 -23
36 -16 15 -31 23 -35 18z"/>
<path d="M3751 3419 c-13 -11 -21 -22 -17 -26 3 -4 12 -1 18 5 23 23 28 11 28
-78 l0 -90 -30 0 c-16 0 -30 -4 -30 -10 0 -6 28 -10 65 -10 37 0 65 4 65 10 0
6 -11 10 -25 10 l-25 0 0 105 c0 113 -5 121 -49 84z"/>
<path d="M6652 3424 c-12 -8 -22 -22 -22 -30 0 -20 13 -17 28 6 22 36 82 23
82 -19 0 -20 -17 -44 -60 -88 -33 -33 -60 -66 -60 -72 0 -7 25 -11 70 -11 40
0 70 4 70 10 0 6 -25 10 -55 10 -30 0 -55 3 -55 7 0 4 25 30 55 58 43 41 55
58 55 82 0 55 -59 81 -108 47z"/>
<path d="M9752 3424 c-12 -8 -22 -22 -22 -30 0 -20 13 -17 28 7 19 29 76 23
80 -9 5 -30 -14 -52 -45 -52 -14 0 -21 -4 -18 -10 3 -5 16 -10 29 -10 28 0 46
-18 46 -45 0 -12 -5 -26 -12 -33 -19 -19 -66 -14 -80 8 -15 23 -28 26 -28 6 0
-20 39 -46 70 -46 42 0 70 26 70 65 0 25 -6 37 -22 46 -19 10 -19 12 -5 21 22
12 22 62 1 82 -20 20 -63 20 -92 0z"/>
<path d="M12141 3362 c-28 -43 -51 -84 -51 -90 0 -8 19 -12 55 -12 52 0 55 -1
55 -25 0 -14 5 -25 10 -25 6 0 10 11 10 25 0 16 6 25 15 25 8 0 15 5 15 10 0
6 -7 10 -15 10 -12 0 -15 16 -15 80 0 61 -3 80 -14 80 -7 0 -37 -35 -65 -78z
m59 -22 l0 -60 -46 0 -46 0 17 28 c26 40 65 92 71 92 2 0 4 -27 4 -60z"/>
<path d="M1040 3075 c0 -23 -3 -25 -50 -25 l-50 0 0 -85 0 -85 49 0 50 0 3
-37 3 -38 70 -3 c62 -3 72 0 87 19 18 21 16 39 -3 39 -5 0 -9 -7 -9 -15 0 -19
-31 -35 -69 -35 -47 0 -61 9 -61 41 0 28 1 29 55 29 l55 0 0 85 0 85 -56 0
c-55 0 -56 1 -52 25 4 17 1 25 -8 25 -8 0 -14 -11 -14 -25z m0 -70 c0 -22 -4
-25 -40 -25 -36 0 -40 3 -40 25 0 23 4 25 40 25 36 0 40 -2 40 -25z m110 0 c0
-23 -4 -25 -45 -25 -41 0 -45 2 -45 25 0 23 4 25 45 25 41 0 45 -2 45 -25z
m-110 -75 c0 -28 -2 -30 -40 -30 -38 0 -40 2 -40 30 0 28 2 30 40 30 38 0 40
-2 40 -30z m110 0 c0 -29 -2 -30 -45 -30 -43 0 -45 1 -45 30 0 29 2 30 45 30
43 0 45 -1 45 -30z"/>
<path d="M1289 2962 c-3 -80 -9 -115 -21 -134 -16 -24 -15 -38 3 -38 16 0 39
106 39 182 l0 78 120 0 c73 0 120 4 120 10 0 6 -50 10 -129 10 l-129 0 -3
-108z"/>
<path d="M1420 2995 c0 -34 -1 -35 -40 -35 -22 0 -40 -4 -40 -10 0 -5 18 -10
40 -10 l40 0 0 -60 0 -60 -55 0 c-30 0 -55 -3 -55 -7 0 -9 239 -7 248 1 3 3
-22 6 -56 6 l-62 0 0 60 0 60 40 0 c22 0 40 5 40 10 0 6 -18 10 -40 10 -39 0
-40 1 -40 35 0 19 -4 35 -10 35 -5 0 -10 -16 -10 -35z"/>
<path d="M1482 2880 c20 -27 38 -39 38 -25 0 15 -34 55 -46 55 -11 0 -9 -8 8
-30z"/>
<path d="M3740 3091 c0 -5 8 -13 18 -17 11 -6 -3 -10 -48 -14 -65 -5 -65 -5
-68 -37 -2 -23 1 -33 11 -33 8 0 13 10 13 23 -1 21 2 22 112 25 l112 3 0 -26
c0 -14 5 -25 10 -25 6 0 10 16 10 35 l0 35 -50 0 c-37 0 -57 5 -72 20 -23 21
-48 27 -48 11z"/>
<path d="M4011 3060 c-6 -22 -23 -52 -36 -68 -20 -24 -22 -31 -10 -36 8 -3 19
2 24 12 8 12 10 -11 11 -80 0 -59 4 -98 10 -98 6 0 10 47 10 120 0 87 4 129
15 150 12 23 12 29 1 33 -9 4 -17 -8 -25 -33z"/>
<path d="M4140 3080 c0 -17 -7 -20 -45 -20 -25 0 -45 -4 -45 -10 0 -5 21 -10
46 -10 53 0 58 -23 6 -28 l-32 -3 0 -90 c0 -72 -3 -89 -15 -89 -8 0 -15 -4
-15 -10 0 -6 45 -10 115 -10 70 0 115 4 115 10 0 6 -11 10 -25 10 -25 0 -25 1
-25 90 l0 90 -30 0 c-20 0 -30 5 -30 15 0 11 12 15 51 15 31 0 48 4 44 10 -3
6 -27 10 -52 10 -40 0 -45 2 -40 20 3 13 0 20 -9 20 -8 0 -14 -9 -14 -20z m60
-95 c0 -12 -13 -15 -55 -15 -51 0 -65 7 -48 23 3 4 28 7 55 7 36 0 48 -4 48
-15z m0 -50 c0 -12 -13 -15 -55 -15 -42 0 -55 3 -55 15 0 12 13 15 55 15 42 0
55 -3 55 -15z m0 -50 c0 -12 -13 -15 -55 -15 -42 0 -55 3 -55 15 0 12 13 15
55 15 42 0 55 -3 55 -15z m0 -45 c0 -5 -25 -10 -55 -10 -30 0 -55 5 -55 10 0
6 25 10 55 10 30 0 55 -4 55 -10z"/>
<path d="M3500 2945 c0 -60 -23 -112 -54 -127 -27 -12 -35 -28 -13 -28 17 1
53 31 66 57 6 12 15 49 19 82 7 48 6 61 -5 61 -9 0 -13 -14 -13 -45z"/>
<path d="M3718 2973 l42 -4 0 -70 c0 -64 -1 -69 -18 -60 -35 19 -46 39 -34 65
8 19 8 25 -3 30 -10 3 -16 -6 -21 -31 -4 -19 -20 -50 -36 -68 -16 -19 -24 -36
-19 -39 5 -3 21 7 34 24 l26 30 35 -21 c48 -28 196 -40 196 -16 0 12 -7 15
-34 10 -19 -3 -51 -2 -71 1 -34 7 -36 9 -33 39 3 31 5 32 56 35 70 4 67 22 -4
22 -52 0 -55 1 -52 23 2 18 11 23 48 28 29 4 10 6 -55 6 -55 0 -81 -2 -57 -4z"/>
<path d="M3520 2852 c0 -15 58 -64 64 -54 3 5 -5 18 -17 29 -29 27 -47 36 -47
25z"/>
<path d="M6660 3091 c0 -5 8 -13 18 -17 11 -6 -3 -10 -48 -14 -65 -5 -65 -5
-68 -37 -2 -23 1 -33 11 -33 8 0 13 10 13 23 -1 21 2 22 112 25 l112 3 0 -26
c0 -14 5 -25 10 -25 6 0 10 16 10 35 l0 35 -50 0 c-37 0 -57 5 -72 20 -23 21
-48 27 -48 11z"/>
<path d="M6931 3060 c-6 -22 -23 -52 -36 -68 -20 -24 -22 -31 -10 -36 8 -3 19
2 24 12 8 12 10 -11 11 -80 0 -59 4 -98 10 -98 6 0 10 47 10 120 0 87 4 129
15 150 12 23 12 29 1 33 -9 4 -17 -8 -25 -33z"/>
<path d="M7060 3080 c0 -17 -7 -20 -45 -20 -25 0 -45 -4 -45 -10 0 -5 21 -10
46 -10 53 0 58 -23 6 -28 l-32 -3 0 -90 c0 -72 -3 -89 -15 -89 -8 0 -15 -4
-15 -10 0 -6 45 -10 115 -10 70 0 115 4 115 10 0 6 -11 10 -25 10 -25 0 -25 1
-25 90 l0 90 -30 0 c-20 0 -30 5 -30 15 0 11 12 15 51 15 31 0 48 4 44 10 -3
6 -27 10 -52 10 -40 0 -45 2 -40 20 3 13 0 20 -9 20 -8 0 -14 -9 -14 -20z m60
-95 c0 -12 -13 -15 -55 -15 -51 0 -65 7 -48 23 3 4 28 7 55 7 36 0 48 -4 48
-15z m0 -50 c0 -12 -13 -15 -55 -15 -42 0 -55 3 -55 15 0 12 13 15 55 15 42 0
55 -3 55 -15z m0 -50 c0 -12 -13 -15 -55 -15 -42 0 -55 3 -55 15 0 12 13 15
55 15 42 0 55 -3 55 -15z m0 -45 c0 -5 -25 -10 -55 -10 -30 0 -55 5 -55 10 0
6 25 10 55 10 30 0 55 -4 55 -10z"/>
<path d="M6420 2945 c0 -60 -23 -112 -54 -127 -27 -12 -35 -28 -13 -28 17 1
53 31 66 57 6 12 15 49 19 82 7 48 6 61 -5 61 -9 0 -13 -14 -13 -45z"/>
<path d="M6638 2973 l42 -4 0 -70 c0 -64 -1 -69 -18 -60 -35 19 -46 39 -34 65
8 19 8 25 -3 30 -10 3 -16 -6 -21 -31 -4 -19 -20 -50 -36 -68 -16 -19 -24 -36
-19 -39 5 -3 21 7 34 24 l26 30 35 -21 c48 -28 196 -40 196 -16 0 12 -7 15
-34 10 -19 -3 -51 -2 -71 1 -34 7 -36 9 -33 39 3 31 5 32 56 35 70 4 67 22 -4
22 -52 0 -55 1 -52 23 2 18 11 23 48 28 29 4 10 6 -55 6 -55 0 -81 -2 -57 -4z"/>
<path d="M6440 2852 c0 -15 58 -64 64 -54 3 5 -5 18 -17 29 -29 27 -47 36 -47
25z"/>
<path d="M9770 3091 c0 -5 8 -13 18 -17 11 -6 -3 -10 -48 -14 -65 -5 -65 -5
-68 -37 -2 -23 1 -33 11 -33 8 0 13 10 13 23 -1 21 2 22 112 25 l112 3 0 -26
c0 -14 5 -25 10 -25 6 0 10 16 10 35 l0 35 -50 0 c-37 0 -57 5 -72 20 -23 21
-48 27 -48 11z"/>
<path d="M10041 3060 c-6 -22 -23 -52 -36 -68 -20 -24 -22 -31 -10 -36 8 -3
19 2 24 12 8 12 10 -11 11 -80 0 -59 4 -98 10 -98 6 0 10 47 10 120 0 87 4
129 15 150 12 23 12 29 1 33 -9 4 -17 -8 -25 -33z"/>
<path d="M10170 3080 c0 -17 -7 -20 -45 -20 -25 0 -45 -4 -45 -10 0 -5 21 -10
46 -10 53 0 58 -23 6 -28 l-32 -3 0 -90 c0 -72 -3 -89 -15 -89 -8 0 -15 -4
-15 -10 0 -6 45 -10 115 -10 70 0 115 4 115 10 0 6 -11 10 -25 10 -25 0 -25 1
-25 90 l0 90 -30 0 c-20 0 -30 5 -30 15 0 11 12 15 51 15 31 0 48 4 44 10 -3
6 -27 10 -52 10 -40 0 -45 2 -40 20 3 13 0 20 -9 20 -8 0 -14 -9 -14 -20z m60
-95 c0 -12 -13 -15 -55 -15 -51 0 -65 7 -48 23 3 4 28 7 55 7 36 0 48 -4 48
-15z m0 -50 c0 -12 -13 -15 -55 -15 -42 0 -55 3 -55 15 0 12 13 15 55 15 42 0
55 -3 55 -15z m0 -50 c0 -12 -13 -15 -55 -15 -42 0 -55 3 -55 15 0 12 13 15
55 15 42 0 55 -3 55 -15z m0 -45 c0 -5 -25 -10 -55 -10 -30 0 -55 5 -55 10 0
6 25 10 55 10 30 0 55 -4 55 -10z"/>
<path d="M9530 2945 c0 -60 -23 -112 -54 -127 -27 -12 -35 -28 -13 -28 17 1
53 31 66 57 6 12 15 49 19 82 7 48 6 61 -5 61 -9 0 -13 -14 -13 -45z"/>
<path d="M9748 2973 l42 -4 0 -70 c0 -64 -1 -69 -18 -60 -35 19 -46 39 -34 65
8 19 8 25 -3 30 -10 3 -16 -6 -21 -31 -4 -19 -20 -50 -36 -68 -16 -19 -24 -36
-19 -39 5 -3 21 7 34 24 l26 30 35 -21 c48 -28 196 -40 196 -16 0 12 -7 15
-34 10 -19 -3 -51 -2 -71 1 -34 7 -36 9 -33 39 3 31 5 32 56 35 70 4 67 22 -4
22 -52 0 -55 1 -52 23 2 18 11 23 48 28 29 4 10 6 -55 6 -55 0 -81 -2 -57 -4z"/>
<path d="M9550 2852 c0 -15 58 -64 64 -54 3 5 -5 18 -17 29 -29 27 -47 36 -47
25z"/>
<path d="M12130 3091 c0 -5 8 -13 18 -17 11 -6 -3 -10 -48 -14 -65 -5 -65 -5
-68 -37 -2 -23 1 -33 11 -33 8 0 13 10 13 23 -1 21 2 22 112 25 l112 3 0 -26
c0 -14 5 -25 10 -25 6 0 10 16 10 35 l0 35 -50 0 c-37 0 -57 5 -72 20 -23 21
-48 27 -48 11z"/>
<path d="M12401 3060 c-6 -22 -23 -52 -36 -68 -20 -24 -22 -31 -10 -36 8 -3
19 2 24 12 8 12 10 -11 11 -80 0 -59 4 -98 10 -98 6 0 10 47 10 120 0 87 4
129 15 150 12 23 12 29 1 33 -9 4 -17 -8 -25 -33z"/>
<path d="M12530 3080 c0 -17 -7 -20 -45 -20 -25 0 -45 -4 -45 -10 0 -5 21 -10
46 -10 53 0 58 -23 6 -28 l-32 -3 0 -90 c0 -72 -3 -89 -15 -89 -8 0 -15 -4
-15 -10 0 -6 45 -10 115 -10 70 0 115 4 115 10 0 6 -11 10 -25 10 -25 0 -25 1
-25 90 l0 90 -30 0 c-20 0 -30 5 -30 15 0 11 12 15 51 15 31 0 48 4 44 10 -3
6 -27 10 -52 10 -40 0 -45 2 -40 20 3 13 0 20 -9 20 -8 0 -14 -9 -14 -20z m60
-95 c0 -12 -13 -15 -55 -15 -51 0 -65 7 -48 23 3 4 28 7 55 7 36 0 48 -4 48
-15z m0 -50 c0 -12 -13 -15 -55 -15 -42 0 -55 3 -55 15 0 12 13 15 55 15 42 0
55 -3 55 -15z m0 -50 c0 -12 -13 -15 -55 -15 -42 0 -55 3 -55 15 0 12 13 15
55 15 42 0 55 -3 55 -15z m0 -45 c0 -5 -25 -10 -55 -10 -30 0 -55 5 -55 10 0
6 25 10 55 10 30 0 55 -4 55 -10z"/>
<path d="M11890 2945 c0 -60 -23 -112 -54 -127 -27 -12 -35 -28 -13 -28 17 1
53 31 66 57 6 12 15 49 19 82 7 48 6 61 -5 61 -9 0 -13 -14 -13 -45z"/>
<path d="M12108 2973 l42 -4 0 -70 c0 -64 -1 -69 -18 -60 -35 19 -46 39 -34
65 8 19 8 25 -3 30 -10 3 -16 -6 -21 -31 -4 -19 -20 -50 -36 -68 -16 -19 -24
-36 -19 -39 5 -3 21 7 34 24 l26 30 35 -21 c48 -28 196 -40 196 -16 0 12 -7
15 -34 10 -19 -3 -51 -2 -71 1 -34 7 -36 9 -33 39 3 31 5 32 56 35 70 4 67 22
-4 22 -52 0 -55 1 -52 23 2 18 11 23 48 28 29 4 10 6 -55 6 -55 0 -81 -2 -57
-4z"/>
<path d="M11910 2852 c0 -15 58 -64 64 -54 3 5 -5 18 -17 29 -29 27 -47 36
-47 25z"/>
<path d="M1040 2305 c0 -23 -3 -25 -50 -25 l-50 0 0 -85 0 -85 49 0 50 0 3
-37 3 -38 70 -3 c62 -3 72 0 87 19 18 21 16 39 -3 39 -5 0 -9 -7 -9 -15 0 -19
-31 -35 -69 -35 -47 0 -61 9 -61 41 0 28 1 29 55 29 l55 0 0 85 0 85 -56 0
c-55 0 -56 1 -52 25 4 17 1 25 -8 25 -8 0 -14 -11 -14 -25z m0 -70 c0 -22 -4
-25 -40 -25 -36 0 -40 3 -40 25 0 23 4 25 40 25 36 0 40 -2 40 -25z m110 0 c0
-23 -4 -25 -45 -25 -41 0 -45 2 -45 25 0 23 4 25 45 25 41 0 45 -2 45 -25z
m-110 -75 c0 -28 -2 -30 -40 -30 -38 0 -40 2 -40 30 0 28 2 30 40 30 38 0 40
-2 40 -30z m110 0 c0 -29 -2 -30 -45 -30 -43 0 -45 1 -45 30 0 29 2 30 45 30
43 0 45 -1 45 -30z"/>
<path d="M1410 2321 c0 -5 7 -11 15 -15 31 -11 14 -26 -31 -26 -25 0 -43 -4
-40 -9 3 -4 17 -6 31 -3 34 6 32 -12 -5 -49 -37 -37 -24 -44 62 -35 40 4 66 2
75 -5 29 -25 25 3 -5 33 -31 31 -57 34 -32 3 11 -13 7 -15 -34 -15 -25 0 -46
3 -46 8 0 4 12 20 25 35 22 24 32 28 70 26 24 -2 47 0 51 4 4 4 -14 7 -41 7
-27 0 -45 3 -42 7 9 9 -22 43 -40 43 -7 0 -13 -4 -13 -9z"/>
<path d="M1280 2304 c0 -11 45 -42 53 -37 11 7 -22 43 -40 43 -7 0 -13 -3 -13
-6z"/>
<path d="M1260 2221 c0 -14 48 -42 55 -32 3 5 -5 17 -17 25 -25 18 -38 20 -38
7z"/>
<path d="M1370 2121 c0 -23 -8 -48 -20 -64 -11 -14 -16 -28 -11 -31 15 -10 51
44 51 75 0 15 3 34 6 43 4 11 1 16 -10 16 -12 0 -16 -10 -16 -39z"/>
<path d="M1430 2095 c0 -37 4 -65 10 -65 6 0 10 28 10 65 0 37 -4 65 -10 65
-6 0 -10 -28 -10 -65z"/>
<path d="M1482 2098 c3 -62 3 -63 34 -66 31 -3 55 20 34 33 -6 4 -10 1 -10 -4
0 -6 -9 -11 -21 -11 -19 0 -21 5 -17 55 2 40 0 55 -10 55 -10 0 -12 -16 -10
-62z"/>
<path d="M1311 2126 c-6 -16 -20 -41 -31 -56 -18 -25 -18 -40 0 -40 11 0 53
97 47 111 -3 9 -9 3 -16 -15z"/>
<path d="M3930 2300 c0 -24 -4 -30 -21 -30 -11 0 -17 4 -14 10 9 14 -13 40
-33 40 -13 0 -13 -2 1 -18 24 -27 21 -32 -18 -32 -31 0 -35 -3 -35 -25 0 -14
5 -25 10 -25 6 0 10 9 10 20 0 19 7 20 115 20 108 0 115 -1 115 -20 0 -11 5
-20 10 -20 6 0 10 11 10 24 0 22 -5 25 -41 28 l-40 3 20 22 c15 16 17 22 7 26
-7 3 -23 -8 -35 -24 -25 -33 -45 -29 -38 7 3 16 0 24 -9 24 -9 0 -14 -11 -14
-30z"/>
<path d="M3480 2300 c0 -6 27 -10 60 -10 l60 0 0 -115 0 -115 -30 0 -30 0 0
85 c0 50 -4 85 -10 85 -6 0 -10 -35 -10 -85 l0 -85 -35 0 c-19 0 -35 -4 -35
-10 0 -6 58 -10 155 -10 97 0 155 4 155 10 0 6 -28 10 -65 10 l-65 0 0 60 0
60 45 0 c25 0 45 5 45 10 0 6 -20 10 -45 10 l-45 0 0 45 0 45 55 0 c30 0 55 5
55 10 0 6 -50 10 -130 10 -80 0 -130 -4 -130 -10z"/>
<path d="M3937 2233 l-78 -4 3 -32 c3 -28 7 -32 36 -35 48 -5 39 -22 -13 -22
l-45 0 0 -50 c0 -27 5 -50 10 -50 6 0 10 18 10 40 0 39 1 40 35 40 l35 0 0
-51 c0 -35 4 -49 12 -47 8 3 11 21 9 51 l-3 47 41 0 c39 0 41 -2 41 -29 0 -23
-5 -31 -22 -34 -20 -3 -21 -4 -5 -11 32 -15 47 0 47 49 l0 45 -51 0 c-31 0
-48 4 -44 10 3 6 19 10 36 10 27 0 29 2 29 40 0 22 -1 39 -2 38 -2 -1 -38 -4
-81 -5z m63 -33 c0 -18 -7 -20 -60 -20 -43 0 -60 4 -60 13 0 23 11 27 67 27
46 0 53 -2 53 -20z"/>
<path d="M6720 2685 l0 -35 -65 0 c-37 0 -65 -4 -65 -10 0 -6 28 -10 65 -10
l65 0 0 -70 c0 -63 -2 -70 -20 -70 -11 0 -20 -7 -20 -15 0 -18 14 -19 41 -5
16 9 19 22 19 85 0 73 1 75 25 75 14 0 25 5 25 10 0 6 -11 10 -25 10 -22 0
-25 4 -25 35 0 19 -4 35 -10 35 -5 0 -10 -16 -10 -35z"/>
<path d="M6990 2713 c0 -3 7 -15 17 -25 15 -17 14 -18 -30 -18 -26 0 -47 -5
-47 -10 0 -6 11 -8 25 -4 19 5 25 2 25 -10 0 -9 -11 -28 -25 -42 -14 -14 -25
-28 -25 -31 0 -3 34 -3 75 0 42 3 77 1 80 -4 9 -14 25 -11 25 4 0 17 -42 57
-59 57 -11 0 -11 -3 -1 -15 18 -21 9 -27 -39 -23 l-40 3 29 34 c28 31 33 33
75 29 25 -3 45 -2 45 3 0 5 -18 9 -40 9 -23 0 -40 5 -40 11 0 7 -8 18 -17 25
-20 15 -33 18 -33 7z"/>
<path d="M6520 2692 c0 -15 48 -54 54 -44 7 12 -22 52 -40 52 -8 0 -14 -4 -14
-8z"/>
<path d="M6860 2691 c0 -15 42 -41 53 -34 5 3 -1 14 -14 24 -27 21 -39 24 -39
10z"/>
<path d="M6250 2565 c0 -96 3 -115 15 -115 12 0 15 19 15 115 0 96 -3 115 -15
115 -12 0 -15 -19 -15 -115z"/>
<path d="M6345 2604 c-9 -9 -13 -19 -10 -22 3 -3 11 0 17 6 24 24 78 8 78 -24
0 -6 -18 -14 -39 -18 -70 -11 -94 -60 -45 -93 25 -16 28 -16 55 0 16 9 29 12
29 7 0 -6 5 -10 10 -10 6 0 10 29 10 68 0 54 -4 72 -18 85 -24 22 -66 22 -87
1z m85 -91 c0 -39 -52 -67 -78 -41 -16 16 -15 23 4 42 21 22 74 21 74 -1z"/>
<path d="M6837 2614 c-10 -10 41 -46 54 -38 8 5 4 13 -12 25 -26 20 -33 22
-42 13z"/>
<path d="M6495 2590 c3 -5 15 -10 26 -10 16 0 19 -7 19 -54 0 -46 -3 -56 -20
-61 -11 -3 -20 -13 -20 -21 0 -18 9 -18 30 1 15 14 21 13 61 -5 56 -25 194
-29 203 -5 4 12 -6 14 -69 8 -58 -5 -85 -2 -120 11 l-45 18 0 64 0 64 -36 0
c-21 0 -33 -4 -29 -10z"/>
<path d="M6620 2584 c0 -3 9 -17 19 -30 12 -16 22 -21 26 -14 4 6 -1 20 -11
31 -17 18 -34 25 -34 13z"/>
<path d="M6947 2503 c-3 -29 -12 -52 -23 -60 -12 -9 -15 -16 -8 -23 18 -18 47
26 52 80 3 30 1 50 -5 50 -6 0 -13 -21 -16 -47z"/>
<path d="M7000 2485 c0 -37 4 -65 10 -65 6 0 10 22 10 49 0 27 3 56 6 65 4 11
1 16 -10 16 -13 0 -16 -12 -16 -65z"/>
<path d="M7060 2484 l0 -65 32 3 c22 2 34 9 36 21 4 18 3 18 -22 2 l-26 -17 0
61 c0 34 -4 61 -10 61 -6 0 -10 -29 -10 -66z"/>
<path d="M6868 2480 c-31 -55 -32 -60 -18 -60 8 0 60 90 60 105 0 18 -19 -2
-42 -45z"/>
<path d="M6830 2311 c0 -30 -1 -31 -50 -31 l-50 0 0 -85 0 -85 49 0 50 0 3
-37 3 -38 71 -3 c77 -3 103 11 89 45 -6 15 -8 15 -12 3 -9 -25 -35 -40 -69
-40 -50 0 -64 9 -64 41 0 28 2 29 50 29 l50 0 0 85 0 85 -50 0 c-46 0 -50 2
-50 24 0 14 -4 28 -10 31 -6 4 -10 -7 -10 -24z m0 -76 c0 -22 -4 -25 -40 -25
-36 0 -40 3 -40 25 0 23 4 25 40 25 36 0 40 -2 40 -25z m100 0 c0 -22 -4 -25
-40 -25 -36 0 -40 3 -40 25 0 23 4 25 40 25 36 0 40 -2 40 -25z m-100 -75 c0
-28 -2 -30 -40 -30 -38 0 -40 2 -40 30 0 28 2 30 40 30 38 0 40 -2 40 -30z
m100 0 c0 -28 -2 -30 -40 -30 -38 0 -40 2 -40 30 0 28 2 30 40 30 38 0 40 -2
40 -30z"/>
<path d="M5593 2274 c-22 -48 -25 -66 -21 -124 4 -46 12 -80 27 -104 33 -52
45 -44 16 10 -19 37 -25 62 -25 114 0 52 6 77 25 114 13 25 20 46 14 46 -5 0
-22 -25 -36 -56z"/>
<path d="M5760 2305 c0 -20 -5 -25 -25 -25 -14 0 -25 -4 -25 -10 0 -5 11 -10
25 -10 18 0 25 -5 25 -20 0 -16 -7 -20 -35 -20 -19 0 -35 -4 -35 -10 0 -6 30
-10 70 -10 40 0 70 4 70 10 0 6 -11 10 -25 10 -18 0 -25 5 -25 20 0 13 7 20
20 20 11 0 20 5 20 10 0 6 -9 10 -20 10 -15 0 -20 7 -20 25 0 14 -4 25 -10 25
-5 0 -10 -11 -10 -25z"/>
<path d="M6250 2295 l0 -35 -60 0 c-33 0 -60 -4 -60 -10 0 -6 27 -10 60 -10
l60 0 0 -70 c0 -63 -2 -70 -20 -70 -11 0 -20 -7 -20 -15 0 -18 31 -20 48 -3 7
7 12 42 12 85 0 71 1 73 25 73 14 0 25 5 25 10 0 6 -12 10 -26 10 -24 0 -26 3
-22 35 3 24 0 35 -9 35 -8 0 -13 -13 -13 -35z"/>
<path d="M6500 2280 l0 -50 -60 0 c-33 0 -60 -4 -60 -10 0 -5 25 -10 55 -10
49 0 55 -2 55 -20 0 -34 -26 -75 -75 -118 -29 -26 -42 -43 -35 -47 15 -9 95
68 116 113 l16 33 27 -43 c31 -49 85 -98 108 -98 22 0 12 16 -27 42 -19 13
-50 48 -68 78 l-33 55 66 3 c84 4 85 22 0 22 l-65 0 0 50 c0 28 -4 50 -10 50
-5 0 -10 -22 -10 -50z"/>
<path d="M7200 2323 c0 -3 7 -15 17 -25 15 -17 14 -18 -30 -18 -26 0 -47 -5
-47 -10 0 -6 11 -8 25 -4 19 5 25 2 25 -10 0 -9 -11 -28 -25 -42 -14 -14 -25
-28 -25 -31 0 -3 34 -3 75 0 42 3 77 1 80 -4 9 -14 25 -11 25 4 0 17 -42 57
-59 57 -11 0 -11 -3 -1 -15 18 -21 9 -27 -39 -23 l-40 3 29 34 c28 31 33 33
75 29 25 -3 45 -2 45 3 0 5 -18 9 -40 9 -23 0 -40 5 -40 11 0 7 -8 18 -17 25
-20 15 -33 18 -33 7z"/>
<path d="M7920 2280 c0 -49 -1 -50 -30 -50 l-30 0 0 -75 c0 -43 4 -75 10 -75
6 0 10 28 10 65 l0 65 50 0 50 0 0 -60 c0 -33 4 -60 10 -60 6 0 10 30 10 70
l0 70 -30 0 c-29 0 -30 1 -30 50 0 28 -4 50 -10 50 -5 0 -10 -22 -10 -50z"/>
<path d="M5830 2310 c0 -5 12 -10 26 -10 24 0 25 -3 19 -27 -3 -16 -12 -35
-19 -43 -7 -10 -10 -39 -8 -82 l4 -68 59 0 59 0 0 55 0 55 -54 0 -53 0 21 55
c17 44 26 55 44 55 18 0 22 -5 22 -31 0 -22 -5 -32 -20 -36 -25 -7 -26 -23 -2
-23 29 0 42 21 42 67 l0 43 -70 0 c-40 0 -70 -4 -70 -10z m120 -175 c0 -34 -1
-35 -40 -35 -39 0 -40 1 -40 35 0 34 1 35 40 35 39 0 40 -1 40 -35z"/>
<path d="M7430 2312 c0 -4 7 -18 16 -30 21 -30 38 -17 18 14 -16 23 -34 32
-34 16z"/>
<path d="M7770 2311 c0 -4 -11 -24 -24 -43 -19 -28 -21 -38 -11 -51 7 -10 20
-17 29 -17 10 0 16 -8 16 -25 0 -20 -5 -25 -25 -25 -14 0 -25 -4 -25 -10 0 -5
12 -10 26 -10 26 0 26 -2 22 -45 -6 -53 6 -58 43 -19 l24 26 -22 -6 c-20 -6
-23 -4 -23 18 0 21 5 26 25 26 14 0 25 5 25 10 0 6 -11 10 -25 10 -20 0 -25 5
-25 25 0 18 5 25 20 25 11 0 20 5 20 10 0 6 -23 10 -51 10 -45 0 -50 2 -39 15
7 9 29 15 51 15 21 0 41 5 44 10 4 6 -10 10 -35 10 l-40 0 16 25 c15 23 15 25
0 25 -9 0 -16 -4 -16 -9z"/>
<path d="M6072 2281 c13 -17 27 -25 32 -20 12 10 -21 49 -41 49 -11 0 -8 -8 9
-29z"/>
<path d="M7070 2301 c0 -15 42 -41 53 -34 5 3 -1 14 -14 24 -27 21 -39 24 -39
10z"/>
<path d="M7847 2303 c-7 -11 39 -60 48 -51 4 3 -5 18 -18 33 -14 16 -26 24
-30 18z"/>
<path d="M7976 2283 c-11 -15 -15 -28 -9 -34 5 -5 16 3 26 20 22 37 9 48 -17
14z"/>
<path d="M7500 2290 c0 -6 30 -10 70 -10 l70 0 0 -120 c0 -100 -2 -120 -15
-120 -8 0 -15 -5 -15 -11 0 -6 10 -9 23 -7 21 3 22 6 25 141 l3 137 -81 0
c-47 0 -80 -4 -80 -10z"/>
<path d="M7400 2141 c0 -74 4 -121 10 -121 6 0 10 43 10 110 0 61 0 113 1 117
0 4 -4 9 -10 11 -8 3 -11 -35 -11 -117z"/>
<path d="M7550 2235 c0 -23 -3 -25 -50 -25 -27 0 -50 -4 -50 -10 0 -5 16 -10
35 -10 19 0 35 -3 35 -7 0 -14 -39 -67 -61 -84 -14 -10 -18 -19 -11 -23 12 -7
56 36 78 77 8 15 17 27 19 27 3 0 5 -25 5 -55 0 -48 -2 -55 -20 -55 -13 0 -18
-5 -14 -15 8 -19 19 -19 38 1 11 10 16 34 16 75 0 56 1 59 25 59 14 0 25 5 25
10 0 6 -11 10 -25 10 -20 0 -25 5 -25 25 0 14 -4 25 -10 25 -5 0 -10 -11 -10
-25z"/>
<path d="M7047 2224 c-10 -10 41 -46 54 -38 8 5 4 13 -12 25 -26 20 -33 22
-42 13z"/>
<path d="M6030 2200 c0 -5 9 -10 20 -10 17 0 20 -7 20 -51 0 -41 -5 -54 -22
-69 -13 -10 -20 -22 -16 -26 5 -4 16 0 26 10 18 15 22 15 65 -4 37 -16 63 -20
124 -18 111 4 107 25 -4 24 -60 -1 -97 4 -118 14 -28 15 -30 19 -30 78 l0 62
-32 0 c-18 0 -33 -4 -33 -10z"/>
<path d="M6170 2170 c12 -17 26 -28 31 -25 12 8 -20 55 -38 55 -11 0 -9 -7 7
-30z"/>
<path d="M5770 2139 c0 -36 -4 -49 -12 -46 -7 2 -13 17 -13 33 0 51 -19 46
-31 -9 -6 -29 -13 -58 -15 -66 -2 -7 1 -15 7 -18 7 -2 14 7 18 21 l6 25 43
-19 c31 -15 65 -20 130 -20 51 0 87 4 87 10 0 6 -35 10 -84 10 -104 0 -116 4
-116 41 0 22 5 29 20 29 11 0 20 5 20 10 0 6 -9 10 -20 10 -13 0 -20 7 -20 20
0 11 -4 20 -10 20 -5 0 -10 -23 -10 -51z"/>
<path d="M7910 2141 c0 -42 -27 -86 -61 -96 -14 -5 -18 -10 -11 -17 12 -12 39
1 66 31 24 27 39 121 19 121 -8 0 -13 -13 -13 -39z"/>
<path d="M7157 2113 c-3 -29 -12 -52 -23 -60 -12 -9 -15 -16 -8 -23 18 -18 47
26 52 80 3 30 1 50 -5 50 -6 0 -13 -21 -16 -47z"/>
<path d="M7210 2095 c0 -37 4 -65 10 -65 6 0 10 22 10 49 0 27 3 56 6 65 4 11
1 16 -10 16 -13 0 -16 -12 -16 -65z"/>
<path d="M7270 2094 l0 -65 32 3 c22 2 34 9 36 21 4 18 3 18 -22 2 l-26 -17 0
61 c0 34 -4 61 -10 61 -6 0 -10 -29 -10 -66z"/>
<path d="M7078 2090 c-31 -55 -32 -60 -18 -60 8 0 60 90 60 105 0 18 -19 -2
-42 -45z"/>
<path d="M7946 2082 c-3 -5 8 -21 23 -36 20 -19 31 -24 36 -16 4 6 5 12 4 13
-2 1 -16 12 -30 25 -15 13 -29 19 -33 14z"/>
<path d="M6320 1944 c0 -4 8 -13 18 -20 15 -12 8 -13 -50 -14 l-68 0 0 -35 c0
-19 5 -35 10 -35 6 0 10 11 10 25 l0 26 113 -3 c109 -3 112 -4 110 -25 -2 -14
3 -23 11 -23 9 0 13 10 11 33 -2 31 -4 32 -53 35 -34 2 -55 9 -67 22 -17 19
-45 27 -45 14z"/>
<path d="M6590 1933 c0 -10 -13 -42 -29 -70 -29 -52 -25 -85 5 -47 13 17 14 8
12 -79 -2 -70 0 -97 9 -97 8 0 13 39 16 133 2 72 6 141 8 151 2 10 -2 21 -8
23 -8 3 -13 -3 -13 -14z"/>
<path d="M6710 1930 c0 -17 -7 -20 -45 -20 -25 0 -45 -4 -45 -10 0 -5 20 -10
45 -10 33 0 45 -4 45 -15 0 -10 -10 -15 -30 -15 l-30 0 0 -90 c0 -83 -1 -90
-20 -90 -11 0 -20 -4 -20 -10 0 -6 45 -10 115 -10 70 0 115 4 115 10 0 6 -9
10 -20 10 -19 0 -20 7 -20 90 l0 90 -35 0 c-24 0 -35 5 -35 15 0 11 12 15 50
15 28 0 50 5 50 10 0 6 -23 10 -51 10 -46 0 -50 2 -44 20 5 14 2 20 -9 20 -9
0 -16 -9 -16 -20z m68 -97 c3 -9 -12 -13 -52 -13 -44 0 -56 3 -56 16 0 12 10
14 52 12 30 -2 53 -8 56 -15z m2 -48 c0 -12 -13 -15 -55 -15 -42 0 -55 3 -55
15 0 12 13 15 55 15 42 0 55 -3 55 -15z m0 -50 c0 -12 -13 -15 -55 -15 -42 0
-55 3 -55 15 0 12 13 15 55 15 42 0 55 -3 55 -15z m0 -45 c0 -5 -25 -10 -55
-10 -30 0 -55 5 -55 10 0 6 25 10 55 10 30 0 55 -4 55 -10z"/>
<path d="M6892 1945 c2 -5 13 -28 23 -50 29 -59 27 -167 -2 -218 -25 -42 -27
-47 -15 -47 16 0 51 76 57 126 9 62 -14 152 -46 180 -12 10 -20 15 -17 9z"/>
<path d="M6293 1823 l47 -4 0 -70 c0 -64 -1 -69 -18 -60 -31 17 -45 39 -38 65
3 14 2 28 -4 31 -10 6 -14 -1 -24 -46 -3 -14 -17 -38 -31 -53 -14 -15 -22 -32
-18 -38 4 -7 17 1 34 21 l27 33 30 -22 c24 -18 44 -22 112 -23 57 -1 84 2 87
10 3 8 -6 10 -31 6 -19 -3 -51 -2 -70 1 -33 6 -36 10 -36 41 l0 35 56 0 c34 0
53 4 49 10 -3 6 -28 10 -56 10 -45 0 -49 2 -49 24 0 22 5 25 48 29 26 2 0 3
-58 3 -58 0 -84 -1 -57 -3z"/>
<path d="M9960 2300 c0 -24 -4 -30 -21 -30 -11 0 -17 4 -14 10 9 14 -13 40
-33 40 -13 0 -13 -2 1 -18 24 -27 21 -32 -18 -32 -31 0 -35 -3 -35 -25 0 -14
5 -25 10 -25 6 0 10 9 10 20 0 19 7 20 115 20 108 0 115 -1 115 -20 0 -11 5
-20 10 -20 6 0 10 11 10 24 0 22 -5 25 -41 28 l-40 3 20 22 c15 16 17 22 7 26
-7 3 -23 -8 -35 -24 -25 -33 -45 -29 -38 7 3 16 0 24 -9 24 -9 0 -14 -11 -14
-30z"/>
<path d="M9500 2300 c0 -6 28 -10 65 -10 l65 0 0 -115 0 -115 -30 0 -30 0 0
86 c0 60 -3 85 -12 82 -7 -3 -10 -31 -9 -86 l2 -82 -35 0 c-20 0 -36 -4 -36
-10 0 -6 58 -10 155 -10 97 0 155 4 155 10 0 6 -30 10 -70 10 l-70 0 0 60 0
60 45 0 c25 0 45 5 45 10 0 6 -20 10 -45 10 l-45 0 0 45 0 45 60 0 c33 0 60 4
60 10 0 6 -52 10 -135 10 -83 0 -135 -4 -135 -10z"/>
<path d="M9967 2233 l-78 -4 3 -32 c3 -28 7 -32 36 -35 48 -5 39 -22 -13 -22
l-45 0 0 -50 c0 -27 5 -50 10 -50 6 0 10 18 10 40 0 39 1 40 35 40 l35 0 0
-51 c0 -35 4 -49 12 -47 8 3 11 21 9 51 l-3 47 41 0 c39 0 41 -2 41 -29 0 -23
-5 -31 -22 -34 -20 -3 -21 -4 -5 -11 32 -15 47 0 47 49 l0 45 -51 0 c-31 0
-48 4 -44 10 3 6 19 10 36 10 27 0 29 2 29 40 0 22 -1 39 -2 38 -2 -1 -38 -4
-81 -5z m63 -33 c0 -18 -7 -20 -60 -20 -43 0 -60 4 -60 13 0 23 11 27 67 27
46 0 53 -2 53 -20z"/>
<path d="M12320 2300 c0 -24 -4 -30 -21 -30 -11 0 -17 4 -14 10 9 14 -13 40
-33 40 -13 0 -13 -2 1 -18 24 -27 21 -32 -18 -32 -31 0 -35 -3 -35 -25 0 -14
5 -25 10 -25 6 0 10 9 10 20 0 19 7 20 115 20 108 0 115 -1 115 -20 0 -11 5
-20 10 -20 6 0 10 11 10 24 0 22 -5 25 -41 28 l-40 3 20 22 c15 16 17 22 7 26
-7 3 -23 -8 -35 -24 -25 -33 -45 -29 -38 7 3 16 0 24 -9 24 -9 0 -14 -11 -14
-30z"/>
<path d="M11870 2300 c0 -6 27 -10 60 -10 l60 0 0 -115 0 -115 -30 0 -30 0 0
85 c0 50 -4 85 -10 85 -6 0 -10 -35 -10 -85 l0 -85 -35 0 c-19 0 -35 -4 -35
-10 0 -6 58 -10 155 -10 97 0 155 4 155 10 0 6 -28 10 -65 10 l-65 0 0 60 0
60 45 0 c25 0 45 5 45 10 0 6 -20 10 -45 10 l-45 0 0 45 0 45 55 0 c30 0 55 5
55 10 0 6 -50 10 -130 10 -80 0 -130 -4 -130 -10z"/>
<path d="M12327 2233 l-78 -4 3 -32 c3 -28 7 -32 36 -35 48 -5 39 -22 -13 -22
l-45 0 0 -50 c0 -27 5 -50 10 -50 6 0 10 18 10 40 0 39 1 40 35 40 l35 0 0
-51 c0 -35 4 -49 12 -47 8 3 11 21 9 51 l-3 47 41 0 c39 0 41 -2 41 -29 0 -23
-5 -31 -22 -34 -20 -3 -21 -4 -5 -11 32 -15 47 0 47 49 l0 45 -51 0 c-31 0
-48 4 -44 10 3 6 19 10 36 10 27 0 29 2 29 40 0 22 -1 39 -2 38 -2 -1 -38 -4
-81 -5z m63 -33 c0 -18 -7 -20 -60 -20 -43 0 -60 4 -60 13 0 23 11 27 67 27
46 0 53 -2 53 -20z"/>
<path d="M1220 1504 l0 -65 -37 3 c-38 3 -38 3 -37 46 0 30 -3 42 -13 42 -11
0 -13 -13 -11 -52 l3 -53 48 -3 47 -3 0 -55 0 -54 -45 0 -45 0 0 45 c0 25 -4
45 -10 45 -5 0 -10 -25 -10 -55 l0 -55 110 0 c67 0 110 -4 110 -10 0 -5 6 -10
13 -10 8 0 12 20 12 65 0 45 -4 65 -12 65 -9 0 -13 -16 -13 -45 l0 -45 -45 0
-45 0 0 55 0 55 50 0 50 0 0 60 c0 41 -4 60 -12 60 -9 0 -13 -16 -13 -47 l0
-48 -37 -3 -38 -3 0 65 c0 37 -4 66 -10 66 -6 0 -10 -29 -10 -66z"/>
<path d="M780 1540 c0 -5 14 -10 31 -10 30 0 30 -1 27 -47 l-3 -48 -37 -1
c-52 -1 -61 -14 -10 -14 22 0 43 -4 47 -9 9 -16 -25 -90 -51 -110 -17 -14 -21
-22 -13 -27 19 -11 67 50 80 102 l12 45 41 -3 41 -3 3 -72 c4 -97 22 -94 22 3
l0 76 40 -4 c26 -2 40 1 40 8 0 8 -13 10 -40 7 l-40 -6 0 52 c0 50 1 51 30 51
17 0 30 5 30 10 0 6 -48 10 -125 10 -77 0 -125 -4 -125 -10z m168 -57 l-3 -48
-42 -3 -43 -3 0 50 0 51 46 0 45 0 -3 -47z"/>
<path d="M1475 1510 l0 -40 102 0 103 0 0 40 0 40 -103 0 -102 0 0 -40z m185
20 c0 -6 -35 -10 -86 -10 -54 0 -83 4 -79 10 3 6 42 10 86 10 46 0 79 -4 79
-10z m-37 -37 c-23 -2 -64 -2 -90 0 -26 2 -7 3 42 3 50 0 71 -1 48 -3z"/>
<path d="M1425 1450 c-4 -7 48 -10 149 -10 97 0 156 4 156 10 0 6 -56 10 -149
10 -89 0 -152 -4 -156 -10z"/>
<path d="M1470 1385 l0 -45 50 0 c28 0 50 -4 50 -10 0 -5 -25 -10 -55 -10 -30
0 -55 -3 -55 -7 0 -5 25 -6 55 -5 35 3 55 0 55 -7 0 -7 -26 -11 -70 -11 -40 0
-70 -4 -70 -10 0 -6 55 -10 145 -10 90 0 145 4 145 10 0 6 -28 10 -65 10 -40
0 -65 4 -65 11 0 6 19 9 50 8 27 -2 53 0 56 4 4 4 -18 7 -49 7 -31 0 -57 5
-57 10 0 6 23 10 50 10 l50 0 0 45 0 45 -110 0 -110 0 0 -45z m100 15 c0 -5
-18 -10 -40 -10 -22 0 -40 5 -40 10 0 6 18 10 40 10 22 0 40 -4 40 -10z m100
0 c0 -5 -18 -10 -40 -10 -22 0 -40 5 -40 10 0 6 18 10 40 10 22 0 40 -4 40
-10z m-100 -30 c0 -5 -18 -10 -40 -10 -22 0 -40 5 -40 10 0 6 18 10 40 10 22
0 40 -4 40 -10z m95 0 c4 -6 -10 -10 -34 -10 -23 0 -41 5 -41 10 0 6 15 10 34
10 19 0 38 -4 41 -10z"/>
<path d="M3569 1526 c-18 -29 -40 -49 -68 -62 -41 -18 -49 -28 -32 -38 11 -7
80 43 111 81 l25 29 28 -33 c39 -44 93 -77 115 -68 13 5 9 11 -23 26 -45 22
-105 77 -105 96 0 27 -26 11 -51 -31z"/>
<path d="M3850 1535 c-6 -18 -22 -50 -36 -70 -28 -42 -22 -71 7 -34 18 24 19
23 19 -73 0 -59 4 -98 10 -98 6 0 10 47 10 120 0 87 4 129 15 149 13 27 11 41
-6 41 -4 0 -13 -16 -19 -35z"/>
<path d="M3940 1562 c0 -14 49 -56 57 -49 3 4 -4 18 -17 32 -24 25 -40 32 -40
17z"/>
<path d="M3885 1490 c3 -6 50 -10 106 -10 59 0 99 4 99 10 0 6 -42 10 -106 10
-67 0 -103 -4 -99 -10z"/>
<path d="M4027 1453 c-4 -3 -7 -16 -7 -28 0 -12 -7 -44 -15 -73 l-15 -51 -63
-4 c-34 -2 -8 -3 58 -3 66 0 101 1 78 3 -50 5 -51 10 -24 101 14 46 16 62 7
62 -7 0 -16 -3 -19 -7z"/>
<path d="M3530 1440 c0 -6 33 -10 80 -10 47 0 80 4 80 10 0 6 -33 10 -80 10
-47 0 -80 -4 -80 -10z"/>
<path d="M3910 1448 c3 -24 41 -113 49 -116 15 -5 14 2 -6 65 -9 29 -23 53
-30 53 -7 0 -13 -1 -13 -2z"/>
<path d="M3520 1325 c0 -37 4 -65 10 -65 6 0 10 5 10 10 0 6 30 10 70 10 40 0
70 -4 70 -10 0 -5 6 -10 13 -10 9 0 11 18 9 65 l-4 65 -89 0 -89 0 0 -65z
m160 10 l0 -35 -70 0 -70 0 0 35 0 35 70 0 70 0 0 -35z"/>
<path d="M6485 1527 c-17 -23 -50 -52 -74 -64 -32 -16 -40 -24 -28 -28 22 -9
69 18 106 61 l33 37 41 -42 42 -41 -78 0 c-45 0 -77 -4 -77 -10 0 -6 33 -10
80 -10 48 0 80 4 80 10 0 7 7 7 21 0 11 -7 28 -9 36 -6 11 5 1 14 -35 32 -52
26 -92 65 -92 90 0 26 -25 13 -55 -29z"/>
<path d="M6770 1535 c-6 -18 -22 -50 -36 -70 -28 -42 -22 -71 7 -34 18 24 19
23 19 -73 0 -59 4 -98 10 -98 6 0 10 47 10 120 0 87 4 129 15 149 13 27 11 41
-6 41 -4 0 -13 -16 -19 -35z"/>
<path d="M6860 1562 c0 -14 49 -56 57 -49 3 4 -4 18 -17 32 -24 25 -40 32 -40
17z"/>
<path d="M6805 1490 c3 -6 50 -10 106 -10 59 0 99 4 99 10 0 6 -42 10 -106 10
-67 0 -103 -4 -99 -10z"/>
<path d="M6947 1453 c-4 -3 -7 -16 -7 -28 0 -12 -7 -44 -15 -73 l-15 -51 -63
-4 c-34 -2 -8 -3 58 -3 66 0 101 1 78 3 -50 5 -51 10 -24 101 14 46 16 62 7
62 -7 0 -16 -3 -19 -7z"/>
<path d="M6830 1448 c3 -24 41 -113 49 -116 15 -5 14 2 -6 65 -9 29 -23 53
-30 53 -7 0 -13 -1 -13 -2z"/>
<path d="M6430 1325 c0 -37 4 -65 10 -65 6 0 10 5 10 10 0 6 32 10 75 10 43 0
75 -4 75 -10 0 -5 5 -10 10 -10 6 0 10 28 10 65 l0 65 -95 0 -95 0 0 -65z
m170 10 l0 -35 -75 0 -75 0 0 35 0 35 75 0 75 0 0 -35z"/>
<path d="M9650 1565 c0 -18 46 -90 76 -121 26 -26 39 -33 47 -25 8 8 5 16 -11
27 -37 25 -63 57 -78 92 -12 27 -34 45 -34 27z"/>
<path d="M9880 1535 c-6 -18 -22 -50 -36 -70 -28 -42 -22 -71 7 -34 18 24 19
23 19 -73 0 -59 4 -98 10 -98 6 0 10 47 10 120 0 87 4 129 15 149 13 27 11 41
-6 41 -4 0 -13 -16 -19 -35z"/>
<path d="M9970 1562 c0 -14 49 -56 57 -49 3 4 -4 18 -17 32 -24 25 -40 32 -40
17z"/>
<path d="M9560 1514 c-12 -25 -35 -55 -51 -66 -16 -12 -29 -25 -29 -30 0 -13
26 -9 39 5 6 8 23 12 42 9 30 -4 31 -6 26 -46 -4 -30 -15 -50 -42 -74 -39 -36
-40 -53 -2 -33 30 16 59 65 67 111 5 32 8 35 43 38 l38 3 -3 -63 c-3 -61 -4
-63 -31 -66 -16 -2 -27 -8 -24 -15 6 -19 32 -19 55 0 17 15 22 31 23 88 l2 70
-86 0 c-82 0 -101 5 -77 20 10 6 50 78 50 90 0 3 -4 5 -9 5 -5 0 -19 -21 -31
-46z"/>
<path d="M9915 1490 c3 -6 50 -10 106 -10 59 0 99 4 99 10 0 6 -42 10 -106 10
-67 0 -103 -4 -99 -10z"/>
<path d="M10057 1453 c-4 -3 -7 -16 -7 -28 0 -12 -7 -44 -15 -73 l-15 -51 -63
-4 c-34 -2 -8 -3 58 -3 66 0 101 1 78 3 -50 5 -51 10 -24 101 14 46 16 62 7
62 -7 0 -16 -3 -19 -7z"/>
<path d="M9940 1448 c3 -24 41 -113 49 -116 15 -5 14 2 -6 65 -9 29 -23 53
-30 53 -7 0 -13 -1 -13 -2z"/>
<path d="M12125 1527 c-17 -23 -50 -52 -74 -64 -32 -16 -40 -24 -28 -28 22 -9
69 18 106 61 l33 37 41 -42 42 -41 -78 0 c-45 0 -77 -4 -77 -10 0 -6 33 -10
80 -10 48 0 80 4 80 10 0 7 7 7 21 0 11 -7 28 -9 36 -6 11 5 1 14 -35 32 -52
26 -92 65 -92 90 0 26 -25 13 -55 -29z"/>
<path d="M12070 1325 c0 -37 4 -65 10 -65 6 0 10 5 10 10 0 6 32 10 75 10 43
0 75 -4 75 -10 0 -5 5 -10 10 -10 6 0 10 28 10 65 l0 65 -95 0 -95 0 0 -65z
m170 10 l0 -35 -75 0 -75 0 0 35 0 35 75 0 75 0 0 -35z"/>
<path d="M609 1138 c-13 -29 -25 -56 -27 -60 -2 -4 11 -8 28 -10 l32 -3 -26
-37 c-14 -21 -22 -39 -18 -41 16 -9 92 6 92 17 0 8 -11 11 -31 8 l-31 -5 28
49 c15 27 31 54 36 60 5 7 3 14 -6 17 -8 3 -18 -4 -25 -19 -6 -14 -19 -24 -31
-24 -25 0 -25 2 4 49 23 35 24 51 6 51 -3 0 -17 -24 -31 -52z"/>
<path d="M780 1160 c0 -28 -3 -30 -35 -30 -19 0 -35 -4 -35 -10 0 -5 16 -10
35 -10 31 0 35 -3 35 -25 0 -22 -4 -25 -35 -25 -19 0 -35 -4 -35 -10 0 -6 32
-10 75 -10 43 0 75 4 75 10 0 6 -13 10 -30 10 -25 0 -30 4 -30 25 0 23 4 25
40 25 22 0 40 5 40 10 0 6 -19 10 -41 10 -40 0 -41 1 -37 30 3 20 0 30 -9 30
-8 0 -13 -12 -13 -30z"/>
<path d="M1060 1170 c0 -18 -7 -20 -65 -20 -37 0 -65 -4 -65 -10 0 -6 28 -10
65 -10 51 0 65 -3 65 -15 0 -11 -12 -15 -45 -15 l-45 0 0 -45 0 -45 38 0 37
-1 -35 -32 c-19 -17 -46 -39 -60 -48 -14 -9 -22 -20 -18 -24 9 -10 83 40 109
73 l19 25 0 -62 c0 -34 4 -61 10 -61 6 0 10 27 10 61 l0 61 51 -46 c50 -45 72
-55 83 -37 3 5 -7 14 -23 21 -16 6 -41 25 -57 41 l-28 29 37 0 37 0 0 45 0 45
-50 0 c-38 0 -50 4 -50 15 0 12 15 15 71 15 44 0 68 4 64 10 -3 6 -36 10 -72
10 -60 0 -65 2 -60 20 3 13 0 20 -9 20 -8 0 -14 -9 -14 -20z m0 -115 c0 -22
-4 -25 -35 -25 -31 0 -35 3 -35 25 0 22 4 25 35 25 31 0 35 -3 35 -25z m100 0
c0 -22 -4 -25 -40 -25 -36 0 -40 3 -40 25 0 23 4 25 40 25 36 0 40 -2 40 -25z"/>
<path d="M1332 1149 c-13 -22 -30 -43 -38 -46 -18 -7 -18 -23 0 -23 8 0 24 14
36 30 19 27 27 30 77 30 l56 0 -23 -25 c-28 -29 -37 -31 -62 -8 -10 9 -21 13
-26 9 -4 -4 4 -16 17 -27 l23 -19 -33 -14 c-19 -7 -49 -17 -67 -21 -18 -3 -29
-11 -26 -16 7 -13 58 -2 103 20 32 17 35 17 103 -7 59 -21 71 -23 79 -11 6 11
-1 15 -35 20 -24 4 -53 12 -65 19 -22 11 -22 12 16 53 l38 42 -68 5 c-37 3
-67 9 -66 15 2 24 -18 11 -39 -26z"/>
<path d="M1656 1144 c-10 -25 -30 -59 -43 -75 -27 -31 -12 -41 19 -12 17 15
18 12 18 -80 0 -58 4 -97 10 -97 6 0 10 47 10 120 0 87 4 129 15 149 13 26 11
41 -4 41 -3 0 -14 -21 -25 -46z"/>
<path d="M1790 1150 c0 -34 -3 -40 -21 -40 -16 0 -20 5 -16 20 3 12 0 20 -7
20 -9 0 -46 -82 -46 -104 0 -15 18 -3 28 19 8 17 20 25 37 25 22 0 25 -4 25
-35 l0 -35 -51 0 c-31 0 -48 -4 -44 -10 3 -5 26 -10 51 -10 l44 0 0 -60 c0
-33 4 -60 10 -60 6 0 10 27 10 60 l0 60 45 0 c25 0 45 5 45 10 0 6 -20 10 -45
10 -45 0 -45 0 -45 35 0 33 2 35 35 35 19 0 35 5 35 10 0 6 -16 10 -35 10 -34
0 -35 1 -35 40 0 22 -4 40 -10 40 -5 0 -10 -18 -10 -40z"/>
<path d="M1397 1020 c5 -18 0 -20 -46 -20 -28 0 -51 -4 -51 -10 0 -5 23 -10
50 -10 l50 0 0 -36 c0 -27 -5 -37 -20 -41 -30 -8 -24 -25 8 -21 25 3 27 7 30
51 l3 47 45 0 c24 0 44 5 44 10 0 6 -20 10 -45 10 -38 0 -45 3 -45 20 0 11 -6
20 -14 20 -9 0 -12 -7 -9 -20z"/>
<path d="M720 943 c0 -35 4 -63 10 -63 6 0 10 7 10 15 0 23 86 21 99 -2 9 -16
10 -16 16 -2 3 9 5 38 3 64 l-3 47 -68 2 -67 1 0 -62z m120 12 l0 -35 -50 0
-50 0 0 35 0 35 50 0 50 0 0 -35z"/>
<path d="M1330 961 c0 -6 -13 -18 -30 -28 -30 -17 -39 -33 -19 -33 17 0 79 52
73 61 -7 12 -24 12 -24 0z"/>
<path d="M1446 962 c-8 -13 64 -66 75 -55 6 6 -5 19 -30 36 -22 15 -42 23 -45
19z"/>
<path d="M628 933 c-27 -8 -48 -18 -48 -24 0 -12 9 -12 63 7 26 9 47 20 47 25
0 11 -3 11 -62 -8z"/>
<path d="M3270 1150 l0 -40 -50 0 c-27 0 -50 -4 -50 -10 0 -5 23 -10 50 -10
l50 0 0 -90 0 -90 -27 0 c-19 0 -24 -3 -16 -11 6 -6 21 -9 34 -7 23 3 24 7 27
101 3 96 3 97 27 97 14 0 25 5 25 10 0 6 -12 10 -26 10 -24 0 -26 3 -22 40 2
28 0 40 -9 40 -8 0 -13 -14 -13 -40z"/>
<path d="M3417 1184 c-5 -5 39 -54 48 -54 3 0 5 6 5 14 0 15 -44 48 -53 40z"/>
<path d="M3510 1160 c0 -6 28 -10 65 -10 l65 0 0 -121 c0 -112 -1 -121 -20
-126 -25 -7 -26 -23 -2 -23 37 0 42 20 42 157 l0 133 -75 0 c-43 0 -75 -4 -75
-10z"/>
<path d="M3060 1035 c0 -77 4 -125 10 -125 6 0 10 7 10 15 0 10 10 15 30 15
21 0 30 -5 30 -16 0 -8 5 -12 10 -9 6 4 10 57 10 126 l0 119 -50 0 -50 0 0
-125z m80 65 c0 -38 -2 -40 -30 -40 -28 0 -30 2 -30 40 0 38 2 40 30 40 28 0
30 -2 30 -40z m-2 -102 c-3 -39 -6 -43 -30 -46 -27 -3 -28 -2 -28 42 0 45 1
46 31 46 29 0 30 -1 27 -42z"/>
<path d="M4066 1128 c-8 -12 -12 -26 -9 -31 4 -6 13 -1 21 11 19 29 67 30 82
2 15 -29 -4 -60 -36 -60 -30 0 -28 -23 2 -29 29 -5 44 -21 44 -47 0 -47 -81
-58 -95 -13 -5 14 -10 18 -17 11 -16 -16 8 -50 42 -57 48 -10 84 13 88 57 2
27 -2 40 -17 50 -21 15 -21 15 -1 33 24 22 25 43 4 73 -21 31 -87 31 -108 0z"/>
<path d="M4256 1134 c-23 -22 -29 -56 -24 -126 4 -48 9 -65 27 -79 31 -26 57
-24 86 6 22 21 25 33 25 100 0 62 -4 79 -20 95 -24 24 -72 26 -94 4z m84 -23
c16 -30 12 -133 -6 -159 -38 -54 -84 -10 -84 81 0 74 12 97 50 97 19 0 33 -7
40 -19z"/>
<path d="M3400 1005 c0 -77 4 -125 10 -125 6 0 10 48 10 125 0 77 -4 125 -10
125 -6 0 -10 -48 -10 -125z"/>
<path d="M3756 1113 c-11 -11 -6 -23 9 -23 8 0 15 4 15 9 0 13 -16 22 -24 14z"/>
<path d="M3470 1020 l0 -70 60 0 60 0 0 70 0 70 -60 0 -60 0 0 -70z m100 35
c0 -22 -4 -25 -40 -25 -36 0 -40 3 -40 25 0 23 4 25 40 25 36 0 40 -2 40 -25z
m0 -70 c0 -22 -4 -25 -40 -25 -36 0 -40 3 -40 25 0 23 4 25 40 25 36 0 40 -2
40 -25z"/>
<path d="M4416 1074 c-33 -32 -18 -63 39 -81 22 -7 30 -16 30 -34 0 -31 -38
-38 -67 -12 -20 17 -20 17 -17 -2 5 -26 47 -40 82 -26 21 8 27 17 27 41 0 27
-6 33 -46 50 -33 14 -45 25 -42 37 4 22 44 29 64 12 8 -6 18 -9 22 -5 10 11
-28 36 -54 36 -13 0 -30 -7 -38 -16z"/>
<path d="M3196 1051 c-9 -14 15 -61 31 -61 11 0 10 6 -3 33 -21 40 -21 40 -28
28z"/>
<path d="M3756 953 c-11 -11 -6 -23 9 -23 8 0 15 4 15 9 0 13 -16 22 -24 14z"/>
<path d="M6565 1170 c18 -20 17 -20 -28 -20 -46 0 -47 -1 -47 -30 0 -16 5 -30
10 -30 6 0 10 9 10 20 0 18 7 20 70 20 63 0 70 -2 70 -20 0 -11 5 -20 10 -20
6 0 10 14 10 30 0 29 -2 30 -42 30 -23 0 -38 3 -35 7 10 9 -13 33 -31 33 -13
0 -12 -3 3 -20z"/>
<path d="M6880 1185 c0 -18 46 -90 76 -121 26 -26 39 -33 47 -25 8 8 5 16 -11
27 -37 25 -63 57 -78 92 -12 27 -34 45 -34 27z"/>
<path d="M6790 1134 c-12 -25 -35 -55 -51 -66 -16 -12 -29 -25 -29 -30 0 -13
26 -9 39 5 6 8 23 12 42 9 30 -4 31 -6 26 -46 -4 -30 -15 -50 -42 -74 -39 -36
-40 -53 -2 -33 30 16 59 65 67 111 5 32 8 35 43 38 l38 3 -3 -63 c-3 -61 -4
-63 -31 -66 -16 -2 -27 -8 -24 -15 6 -19 32 -19 55 0 17 15 22 31 23 88 l2 70
-86 0 c-82 0 -101 5 -77 20 10 6 50 78 50 90 0 3 -4 5 -9 5 -5 0 -19 -21 -31
-46z"/>
<path d="M6515 1060 c-42 -44 -21 -50 23 -7 24 24 31 37 21 37 -8 0 -28 -13
-44 -30z"/>
<path d="M6600 1082 c0 -14 49 -56 57 -49 3 4 -4 18 -17 32 -24 25 -40 32 -40
17z"/>
<path d="M6510 1000 c0 -5 14 -10 30 -10 28 0 30 -3 30 -35 0 -35 0 -35 -45
-35 -25 0 -45 -4 -45 -10 0 -6 40 -10 100 -10 60 0 100 4 100 10 0 6 -20 10
-45 10 -45 0 -45 0 -45 35 0 32 2 35 29 35 17 0 33 5 36 10 4 6 -22 10 -69 10
-44 0 -76 -4 -76 -10z"/>
<path d="M9675 1170 c18 -20 17 -20 -28 -20 -46 0 -47 -1 -47 -30 0 -16 5 -30
10 -30 6 0 10 9 10 20 0 18 7 20 70 20 63 0 70 -2 70 -20 0 -11 5 -20 10 -20
6 0 10 14 10 30 0 29 -2 30 -42 30 -23 0 -38 3 -35 7 10 9 -13 33 -31 33 -13
0 -12 -3 3 -20z"/>
<path d="M9935 1147 c-17 -23 -50 -52 -74 -64 -32 -16 -40 -24 -28 -28 22 -9
69 18 106 61 l33 37 41 -42 42 -41 -78 0 c-45 0 -77 -4 -77 -10 0 -6 33 -10
80 -10 48 0 80 4 80 10 0 7 7 7 21 0 11 -7 28 -9 36 -6 11 5 1 14 -35 32 -52
26 -92 65 -92 90 0 26 -25 13 -55 -29z"/>
<path d="M9625 1060 c-42 -44 -21 -50 23 -7 24 24 31 37 21 37 -8 0 -28 -13
-44 -30z"/>
<path d="M9710 1082 c0 -14 49 -56 57 -49 3 4 -4 18 -17 32 -24 25 -40 32 -40
17z"/>
<path d="M9620 1000 c0 -5 14 -10 30 -10 28 0 30 -3 30 -35 0 -35 0 -35 -45
-35 -25 0 -45 -4 -45 -10 0 -6 40 -10 100 -10 60 0 100 4 100 10 0 6 -20 10
-45 10 -45 0 -45 0 -45 35 0 32 2 35 29 35 17 0 33 5 36 10 4 6 -22 10 -69 10
-44 0 -76 -4 -76 -10z"/>
<path d="M9880 945 c0 -37 4 -65 10 -65 6 0 10 5 10 10 0 6 32 10 75 10 43 0
75 -4 75 -10 0 -5 5 -10 10 -10 6 0 10 28 10 65 l0 65 -95 0 -95 0 0 -65z
m170 10 l0 -35 -75 0 -75 0 0 35 0 35 75 0 75 0 0 -35z"/>
<path d="M11750 1150 l0 -40 -49 0 c-28 0 -53 -4 -56 -10 -4 -6 15 -10 50 -10
l56 0 -3 -87 c-3 -82 -5 -88 -25 -91 -13 -2 -20 -8 -17 -17 6 -14 44 -8 56 9
4 6 8 50 8 99 0 86 0 87 25 87 14 0 25 5 25 10 0 6 -11 10 -25 10 -22 0 -25 4
-25 40 0 22 -4 40 -10 40 -5 0 -10 -18 -10 -40z"/>
<path d="M11890 1182 c0 -14 46 -53 53 -45 4 3 -3 17 -15 30 -22 23 -38 30
-38 15z"/>
<path d="M11990 1160 c0 -6 28 -10 65 -10 l65 0 0 -121 c0 -112 -1 -121 -20
-126 -11 -3 -20 -9 -20 -14 0 -14 40 -11 45 4 2 6 5 72 7 145 l3 132 -72 0
c-42 0 -73 -4 -73 -10z"/>
<path d="M11530 1035 c0 -113 8 -151 24 -110 7 20 52 19 60 -1 13 -33 17 -4
19 115 l2 121 -52 0 -53 0 0 -125z m88 68 c-3 -35 -6 -38 -35 -41 -32 -3 -33
-2 -33 37 0 40 1 41 36 41 35 0 35 -1 32 -37z m0 -105 c-3 -40 -5 -43 -33 -43
-28 0 -30 3 -33 43 l-3 42 36 0 36 0 -3 -42z"/>
<path d="M12546 1119 c-3 -17 -6 -44 -6 -60 0 -28 1 -28 43 -23 52 7 70 -9 65
-58 -2 -25 -9 -35 -30 -42 -23 -8 -32 -6 -53 14 -20 19 -25 20 -25 7 0 -24 45
-50 74 -43 38 9 56 34 56 75 0 50 -27 75 -75 69 -37 -4 -41 3 -29 50 5 18 13
22 50 22 24 0 44 5 44 10 0 6 -24 10 -54 10 -52 0 -54 -1 -60 -31z"/>
<path d="M11880 1005 c0 -77 4 -125 10 -125 6 0 10 48 10 125 0 77 -4 125 -10
125 -6 0 -10 -48 -10 -125z"/>
<path d="M12236 1113 c-11 -11 -6 -23 9 -23 8 0 15 4 15 9 0 13 -16 22 -24 14z"/>
<path d="M11950 1020 l0 -70 60 0 60 0 0 70 0 70 -60 0 -60 0 0 -70z m100 35
c0 -22 -4 -25 -40 -25 -36 0 -40 3 -40 25 0 23 4 25 40 25 36 0 40 -2 40 -25z
m-2 -67 c-2 -19 -10 -24 -40 -26 -35 -3 -38 -1 -38 22 0 24 4 26 41 26 36 0
40 -2 37 -22z"/>
<path d="M12715 1066 c-21 -31 -11 -51 35 -70 46 -18 56 -32 40 -51 -17 -20
-57 -19 -69 2 -11 20 -26 11 -18 -11 9 -23 64 -30 92 -12 44 29 24 76 -37 91
-37 9 -41 55 -5 55 13 0 28 -5 35 -12 6 -6 15 -8 19 -4 11 11 -26 36 -54 36
-13 0 -29 -10 -38 -24z"/>
<path d="M11668 1055 c-7 -8 23 -65 35 -65 13 0 7 24 -11 48 -10 13 -21 20
-24 17z"/>
<path d="M12236 953 c-11 -11 -6 -23 9 -23 8 0 15 4 15 9 0 13 -16 22 -24 14z"/>
<path d="M650 715 c0 -47 -4 -85 -9 -85 -13 0 -64 -70 -56 -78 3 -4 20 9 36
28 l28 35 1 -64 0 -63 27 7 c40 10 50 20 82 88 29 60 29 60 36 29 10 -45 64
-117 78 -103 8 8 4 18 -16 38 -27 29 -57 91 -57 118 0 11 11 15 40 15 22 0 40
5 40 10 0 6 -20 10 -45 10 l-45 0 0 50 c0 28 -4 50 -10 50 -5 0 -10 -22 -10
-50 l0 -50 -34 0 c-19 0 -38 -4 -41 -10 -4 -6 8 -10 29 -10 30 0 36 -4 36 -20
0 -45 -56 -140 -82 -140 -6 0 -8 61 -6 140 2 107 0 140 -9 140 -10 0 -13 -24
-13 -85z"/>
<path d="M1050 775 c0 -24 -3 -25 -60 -25 -33 0 -60 -4 -60 -10 0 -5 25 -10
56 -10 l55 0 -21 -30 c-12 -17 -36 -38 -53 -46 -40 -21 -40 -21 -33 -33 10
-16 82 35 107 75 26 42 38 42 64 1 22 -34 82 -80 99 -74 21 7 15 25 -11 32
-28 6 -83 51 -83 67 0 4 23 8 50 8 28 0 50 5 50 10 0 6 -30 10 -71 10 -71 0
-71 0 -65 25 5 18 2 25 -9 25 -9 0 -15 -9 -15 -25z"/>
<path d="M1352 761 c-18 -22 -41 -42 -52 -46 -21 -7 -28 -25 -8 -25 6 0 26 11
44 25 26 20 44 25 90 25 l58 0 -34 -35 -33 -34 -29 21 c-36 25 -52 14 -18 -12
25 -19 25 -19 5 -34 -11 -9 -42 -23 -68 -32 -35 -11 -46 -19 -38 -27 7 -7 18
-7 36 1 14 7 28 12 30 12 3 0 5 -25 5 -55 0 -30 5 -55 10 -55 6 0 10 5 10 10
0 6 32 10 75 10 43 0 75 -4 75 -10 0 -5 5 -10 10 -10 6 0 10 30 10 70 l0 70
-66 0 -65 0 60 56 c34 31 61 60 61 65 0 5 -32 9 -72 9 -56 0 -69 3 -60 12 7 7
12 16 12 20 0 18 -18 6 -48 -31z m158 -191 l0 -40 -75 0 -75 0 0 40 0 40 75 0
75 0 0 -40z"/>
<path d="M1774 783 c-19 -54 -47 -106 -51 -95 -3 6 -16 12 -29 12 -36 0 -34
47 3 61 17 6 23 13 16 20 -6 6 -19 6 -37 -1 -15 -5 -39 -10 -52 -10 -14 0 -22
-4 -19 -10 3 -5 17 -10 31 -10 19 0 24 -5 24 -25 0 -21 -5 -25 -30 -25 -16 0
-30 -4 -30 -10 0 -5 11 -10 25 -10 14 0 25 -2 25 -5 0 -12 -40 -84 -50 -90
-11 -7 -4 -25 9 -25 5 0 14 14 21 30 21 50 33 35 28 -35 -3 -42 0 -65 7 -65 7
0 9 24 7 70 -4 69 6 90 26 54 7 -12 11 -13 17 -4 4 7 -4 24 -21 42 l-29 31 41
-7 c37 -5 42 -3 52 19 10 22 18 25 62 25 48 0 50 -1 40 -20 -8 -15 -8 -20 2
-20 8 0 19 14 25 30 l11 30 -59 0 c-63 0 -65 1 -49 30 7 13 7 21 0 25 -6 3
-13 -2 -16 -12z"/>
<path d="M826 745 c15 -23 34 -34 34 -19 0 16 -23 44 -36 44 -12 0 -12 -4 2
-25z"/>
<path d="M590 731 c0 -15 38 -56 45 -49 8 8 -23 58 -36 58 -5 0 -9 -4 -9 -9z"/>
<path d="M1800 601 c0 -85 -1 -90 -22 -94 -20 -3 -21 -4 -5 -11 35 -16 47 10
47 105 0 53 -4 89 -10 89 -6 0 -10 -36 -10 -89z"/>
<path d="M1046 672 c-3 -6 5 -17 19 -26 29 -19 33 -7 6 18 -11 10 -22 13 -25
8z"/>
<path d="M1732 588 c-23 -44 -21 -67 5 -33 30 41 44 75 31 75 -7 0 -23 -19
-36 -42z"/>
<path d="M1840 625 c0 -14 47 -75 58 -75 7 0 2 15 -14 40 -23 35 -44 51 -44
35z"/>
<path d="M1050 603 c0 -5 12 -16 25 -26 21 -15 25 -16 25 -3 0 8 -9 20 -19 26
-23 12 -31 13 -31 3z"/>
<path d="M943 555 c-12 -19 -18 -37 -13 -40 9 -6 50 50 50 68 0 16 -16 4 -37
-28z"/>
<path d="M1010 551 c0 -31 5 -43 21 -51 25 -14 93 -4 110 16 18 22 4 28 -24 9
-14 -9 -38 -15 -54 -13 -24 3 -28 7 -29 37 0 19 -5 36 -12 39 -8 2 -12 -10
-12 -37z"/>
<path d="M1160 582 c0 -5 11 -19 25 -32 19 -18 25 -20 25 -8 0 8 -8 22 -18 31
-20 19 -32 22 -32 9z"/>
<path d="M3595 773 c0 -35 -26 -42 -40 -11 -6 13 -19 25 -30 27 -18 3 -18 1 4
-23 l24 -26 -41 0 c-38 0 -42 -2 -42 -25 0 -14 5 -25 10 -25 6 0 10 9 10 20 0
19 7 20 115 20 108 0 115 -1 115 -20 0 -11 5 -20 10 -20 6 0 10 11 10 25 0 22
-4 25 -35 25 -39 0 -42 5 -20 30 13 15 14 18 2 23 -8 3 -21 -7 -31 -24 -22
-37 -36 -37 -36 1 0 18 -5 30 -13 30 -7 0 -13 -11 -12 -27z"/>
<path d="M3870 714 c0 -47 -4 -83 -9 -80 -12 8 -73 -72 -66 -85 4 -6 21 8 38
33 l32 43 3 -68 c2 -37 7 -67 12 -67 6 0 10 4 10 10 0 5 6 7 14 4 17 -7 61 49
79 101 l14 39 12 -35 c20 -57 59 -109 77 -102 13 5 11 10 -10 32 -25 26 -65
105 -66 129 0 8 16 12 45 12 25 0 45 5 45 10 0 6 -23 10 -51 10 l-52 0 5 50
c4 38 2 50 -8 50 -10 0 -14 -15 -14 -50 l0 -50 -35 0 c-19 0 -35 -4 -35 -10 0
-5 16 -10 35 -10 34 0 35 -1 29 -27 -16 -64 -54 -133 -75 -133 -5 0 -9 60 -9
140 0 87 -4 140 -10 140 -6 0 -10 -35 -10 -86z"/>
<path d="M4266 775 c-6 -23 -11 -25 -66 -25 -33 0 -60 -4 -60 -10 0 -5 25 -10
56 -10 56 0 56 0 42 -22 -14 -22 -65 -62 -91 -71 -9 -3 -9 -8 -1 -16 14 -15
89 38 112 80 21 37 33 37 56 -1 24 -42 93 -87 108 -72 7 7 10 13 7 14 -2 2
-22 12 -43 23 -22 11 -46 30 -54 43 -14 22 -14 22 37 22 28 0 51 5 51 10 0 6
-30 10 -69 10 -67 0 -68 0 -63 25 2 14 0 25 -6 25 -5 0 -13 -11 -16 -25z"/>
<path d="M3140 770 c0 -6 27 -10 60 -10 l60 0 0 -115 0 -115 -30 0 -30 0 0 85
c0 50 -4 85 -10 85 -6 0 -10 -35 -10 -85 l0 -85 -35 0 c-19 0 -35 -4 -35 -10
0 -6 58 -10 155 -10 97 0 155 4 155 10 0 6 -28 10 -65 10 l-65 0 0 60 0 60 45
0 c25 0 45 5 45 10 0 6 -20 10 -45 10 l-45 0 0 45 0 45 55 0 c30 0 55 5 55 10
0 6 -50 10 -130 10 -80 0 -130 -4 -130 -10z"/>
<path d="M4030 763 c0 -4 7 -17 15 -27 17 -23 34 -13 19 11 -12 19 -34 29 -34
16z"/>
<path d="M3800 733 c1 -10 36 -53 44 -53 13 0 5 28 -12 43 -20 18 -32 22 -32
10z"/>
<path d="M3530 668 c0 -37 1 -38 35 -38 19 0 35 -4 35 -10 0 -5 -22 -10 -50
-10 l-50 0 0 -50 c0 -27 5 -50 10 -50 6 0 10 18 10 40 l0 40 40 0 40 0 0 -50
c0 -27 5 -50 10 -50 6 0 10 23 10 50 l0 50 35 0 c32 0 35 -2 35 -30 0 -20 -5
-30 -15 -30 -8 0 -15 -5 -15 -11 0 -6 10 -9 23 -7 19 3 22 10 25 51 l3 47 -45
0 c-26 0 -46 5 -46 10 0 6 14 10 30 10 28 0 30 3 30 38 l0 37 -75 0 -75 0 0
-37z m130 2 c0 -18 -7 -20 -55 -20 -48 0 -55 2 -55 20 0 18 7 20 55 20 48 0
55 -2 55 -20z"/>
<path d="M4275 650 c10 -11 22 -17 27 -14 12 8 -11 34 -30 34 -13 0 -12 -3 3
-20z"/>
<path d="M4280 585 c12 -13 27 -22 32 -19 12 8 -21 44 -40 44 -12 0 -10 -6 8
-25z"/>
<path d="M4157 556 c-8 -19 -13 -37 -10 -40 8 -8 52 57 46 67 -9 14 -20 6 -36
-27z"/>
<path d="M4220 551 c0 -36 4 -43 27 -52 34 -13 103 -2 110 17 9 23 -4 28 -23
10 -11 -11 -29 -16 -53 -14 -34 3 -36 5 -37 37 0 19 -5 36 -12 39 -8 2 -12
-10 -12 -37z"/>
<path d="M4370 582 c0 -14 46 -53 53 -45 4 3 -3 17 -15 30 -22 23 -38 30 -38
15z"/>
<path d="M6260 765 l0 -35 -65 0 c-37 0 -65 -4 -65 -10 0 -6 28 -10 65 -10
l65 0 0 -70 c0 -63 -2 -70 -20 -70 -11 0 -20 -7 -20 -15 0 -18 14 -19 41 -5
16 9 19 22 19 85 0 73 1 75 25 75 14 0 25 5 25 10 0 6 -11 10 -25 10 -22 0
-25 4 -25 35 0 19 -4 35 -10 35 -5 0 -10 -16 -10 -35z"/>
<path d="M6530 793 c0 -3 7 -15 17 -25 15 -17 14 -18 -30 -18 -26 0 -47 -5
-47 -10 0 -6 11 -8 25 -4 19 5 25 2 25 -10 0 -9 -11 -28 -25 -42 -14 -14 -25
-28 -25 -31 0 -3 34 -3 75 0 42 3 77 1 80 -4 9 -14 25 -11 25 4 0 17 -42 57
-59 57 -11 0 -11 -3 -1 -15 18 -21 9 -27 -39 -23 l-40 3 29 34 c28 31 33 33
75 29 25 -3 45 -2 45 3 0 5 -18 9 -40 9 -23 0 -40 5 -40 11 0 7 -8 18 -17 25
-20 15 -33 18 -33 7z"/>
<path d="M6780 765 c0 -33 -2 -35 -35 -35 -19 0 -35 -4 -35 -10 0 -5 16 -10
35 -10 32 0 35 -2 35 -30 0 -25 -4 -30 -25 -30 -24 0 -25 -2 -25 -70 0 -40 4
-70 10 -70 6 0 10 7 10 15 0 10 11 15 35 15 19 0 35 -4 35 -10 0 -5 5 -10 10
-10 6 0 10 28 10 65 0 58 -2 65 -20 65 -16 0 -20 7 -20 30 0 27 3 30 30 30 17
0 30 5 30 10 0 6 -13 10 -30 10 -28 0 -30 3 -30 35 0 19 -4 35 -10 35 -5 0
-10 -16 -10 -35z m40 -170 c0 -33 -2 -35 -35 -35 -33 0 -35 2 -35 35 0 33 2
35 35 35 33 0 35 -2 35 -35z"/>
<path d="M6890 778 c0 -13 -9 -43 -20 -67 -23 -50 -23 -51 -10 -51 6 0 16 11
22 25 9 19 19 25 45 25 34 0 34 0 27 -37 -4 -21 -11 -47 -17 -58 -10 -18 -12
-17 -25 18 -8 20 -19 37 -23 37 -12 0 -12 -3 7 -50 17 -41 17 -41 -11 -70 -16
-17 -37 -32 -47 -36 -18 -5 -16 -24 3 -24 5 0 27 16 49 37 l41 36 34 -33 c19
-18 38 -29 45 -25 7 4 -2 18 -25 38 l-36 32 18 68 c14 52 22 67 36 67 10 0 15
5 12 10 -3 6 -31 10 -61 10 -30 0 -54 1 -54 3 0 1 4 17 9 35 8 25 7 32 -5 32
-8 0 -14 -10 -14 -22z"/>
<path d="M7220 792 c0 -4 5 -13 12 -20 9 -9 2 -12 -35 -12 -26 0 -47 5 -47 10
0 6 -20 10 -45 10 l-45 0 0 -144 c0 -86 4 -147 10 -151 6 -4 10 43 10 134 0
134 1 141 20 141 23 0 25 -13 9 -58 -8 -24 -7 -37 6 -63 16 -30 16 -34 1 -44
-21 -16 -20 -25 3 -25 28 0 35 34 16 74 -14 28 -14 41 -5 73 10 34 16 39 35
35 13 -2 25 -13 28 -23 4 -15 0 -19 -24 -19 -16 0 -29 -4 -29 -10 0 -6 42 -10
105 -10 63 0 105 4 105 10 0 6 -16 10 -35 10 -19 0 -35 3 -35 8 0 15 16 30 35
35 12 3 7 5 -15 6 -23 1 -39 8 -48 21 -12 20 -32 27 -32 12z m43 -48 c3 -3 3
-12 0 -20 -8 -21 -41 -17 -53 6 -10 18 -8 20 18 20 16 0 31 -3 35 -6z"/>
<path d="M6060 772 c0 -15 48 -54 54 -44 7 12 -22 52 -40 52 -8 0 -14 -4 -14
-8z"/>
<path d="M6400 771 c0 -15 42 -41 53 -34 5 3 -1 14 -14 24 -27 21 -39 24 -39
10z"/>
<path d="M6377 694 c-10 -10 41 -46 54 -38 8 5 4 13 -12 25 -26 20 -33 22 -42
13z"/>
<path d="M6035 670 c3 -5 15 -10 26 -10 16 0 19 -7 19 -54 0 -46 -3 -56 -20
-61 -11 -3 -20 -13 -20 -21 0 -18 9 -18 30 1 15 14 21 13 61 -5 56 -25 194
-29 203 -5 4 12 -6 14 -69 8 -58 -5 -85 -2 -120 11 l-45 18 0 64 0 64 -36 0
c-21 0 -33 -4 -29 -10z"/>
<path d="M6160 664 c0 -3 9 -17 19 -30 12 -16 22 -21 26 -14 4 6 -1 20 -11 31
-17 18 -34 25 -34 13z"/>
<path d="M7160 620 l0 -50 40 0 c22 0 40 -4 40 -10 0 -5 -22 -10 -50 -10 -27
0 -50 -4 -50 -10 0 -5 22 -10 50 -10 42 0 49 -3 47 -17 -1 -10 3 -19 8 -20 6
-1 9 7 7 17 -3 18 3 20 47 20 28 0 51 5 51 10 0 6 -22 10 -50 10 -27 0 -50 5
-50 10 0 6 16 10 35 10 l35 0 0 50 0 50 -80 0 -80 0 0 -50z m140 20 c0 -6 -27
-10 -60 -10 -33 0 -60 4 -60 10 0 6 27 10 60 10 33 0 60 -4 60 -10z m0 -40 c0
-6 -27 -10 -60 -10 -33 0 -60 4 -60 10 0 6 27 10 60 10 33 0 60 -4 60 -10z"/>
<path d="M6487 583 c-3 -29 -12 -52 -23 -60 -12 -9 -15 -16 -8 -23 18 -18 47
26 52 80 3 30 1 50 -5 50 -6 0 -13 -21 -16 -47z"/>
<path d="M6540 565 c0 -37 4 -65 10 -65 6 0 10 22 10 49 0 27 3 56 6 65 4 11
1 16 -10 16 -13 0 -16 -12 -16 -65z"/>
<path d="M6600 564 l0 -65 32 3 c22 2 34 9 36 21 4 18 3 18 -22 2 l-26 -17 0
61 c0 34 -4 61 -10 61 -6 0 -10 -29 -10 -66z"/>
<path d="M6408 560 c-31 -55 -32 -60 -18 -60 8 0 60 90 60 105 0 18 -19 -2
-42 -45z"/>
<path d="M8780 767 c-6 -23 -18 -53 -27 -65 -21 -34 -5 -42 21 -9 19 23 29 27
75 27 48 0 52 -2 46 -20 -9 -29 10 -25 23 5 7 14 12 28 12 30 0 3 -29 5 -65 5
-67 0 -74 5 -55 40 7 13 6 19 -4 23 -9 4 -17 -8 -26 -36z"/>
<path d="M9185 790 c-11 -5 -55 -9 -98 -9 -58 -1 -78 -4 -74 -13 3 -9 21 -12
56 -10 41 3 51 0 51 -12 0 -13 -13 -16 -70 -16 -38 0 -70 -3 -70 -7 0 -5 29
-8 65 -8 38 0 64 -4 62 -10 -1 -5 -19 -10 -40 -10 l-37 0 0 -52 0 -53 45 0
c25 0 45 -4 45 -10 0 -5 -22 -10 -50 -10 -27 0 -50 -4 -50 -10 0 -5 23 -10 50
-10 38 0 50 -4 50 -15 0 -12 -14 -15 -70 -15 -40 0 -70 -4 -70 -10 0 -6 55
-10 145 -10 90 0 145 4 145 10 0 6 -28 10 -65 10 -51 0 -65 3 -65 15 0 11 12
15 50 15 28 0 50 5 50 10 0 6 -22 10 -50 10 -27 0 -50 5 -50 10 0 6 20 10 45
10 l45 0 0 54 0 54 -45 -6 c-38 -4 -45 -2 -45 13 0 14 9 16 65 13 36 -1 65 0
65 5 0 4 -29 7 -65 7 -49 0 -65 3 -65 14 0 17 22 26 62 26 18 0 28 4 26 12 -6
16 -19 18 -43 8z m-65 -125 c0 -11 -11 -15 -40 -15 -38 0 -49 8 -33 23 3 4 21
7 40 7 23 0 33 -5 33 -15z m90 0 c0 -10 -11 -15 -35 -15 -24 0 -35 5 -35 15 0
10 11 15 35 15 24 0 35 -5 35 -15z m-90 -45 c0 -5 -18 -10 -40 -10 -22 0 -40
5 -40 10 0 6 18 10 40 10 22 0 40 -4 40 -10z m90 0 c0 -5 -16 -10 -35 -10 -19
0 -35 5 -35 10 0 6 16 10 35 10 19 0 35 -4 35 -10z"/>
<path d="M9429 756 c-18 -29 -40 -49 -68 -62 -41 -18 -49 -28 -32 -38 11 -7
80 43 111 81 l25 29 28 -33 c39 -44 93 -77 115 -68 13 5 9 11 -23 26 -45 22
-105 77 -105 96 0 27 -26 11 -51 -31z"/>
<path d="M9706 792 c-7 -11 29 -60 38 -52 3 3 -3 18 -13 34 -10 15 -21 23 -25
18z"/>
<path d="M10233 744 c-22 -48 -25 -66 -21 -124 4 -46 12 -80 27 -104 33 -52
45 -44 16 10 -19 37 -25 62 -25 114 0 52 6 77 25 114 13 25 20 46 14 46 -5 0
-22 -25 -36 -56z"/>
<path d="M10860 750 c0 -47 -2 -50 -25 -50 -24 0 -25 -2 -25 -76 0 -47 4 -73
10 -69 6 3 10 33 10 66 l0 59 45 0 45 0 0 -60 c0 -33 4 -60 10 -60 6 0 10 30
10 70 l0 70 -31 0 -32 0 5 50 c4 38 2 50 -8 50 -10 0 -14 -15 -14 -50z"/>
<path d="M11046 746 c33 -72 31 -157 -4 -225 -13 -24 -17 -41 -10 -39 22 8 52
82 56 140 5 65 -15 134 -49 164 -17 15 -16 10 7 -40z"/>
<path d="M10387 760 c18 -31 33 -39 33 -17 -1 17 -25 47 -39 47 -8 0 -6 -10 6
-30z"/>
<path d="M10697 748 c-20 -34 -22 -46 -13 -60 6 -10 16 -18 23 -18 7 0 13 -11
13 -25 0 -18 -5 -25 -20 -25 -11 0 -20 -4 -20 -10 0 -5 9 -10 20 -10 17 0 20
-7 20 -45 0 -25 2 -45 5 -45 16 0 55 34 55 48 0 13 -3 12 -20 -3 -20 -18 -20
-17 -20 13 0 27 4 32 25 32 14 0 25 5 25 10 0 6 -11 10 -25 10 -20 0 -25 5
-25 25 0 18 5 25 20 25 11 0 20 5 20 10 0 6 -20 10 -45 10 -35 0 -43 3 -39 15
4 10 20 15 50 15 24 0 44 5 44 10 0 6 -16 10 -35 10 -32 0 -35 2 -25 19 12 24
13 31 1 31 -5 0 -20 -19 -34 -42z"/>
<path d="M9780 768 c0 -5 29 -8 65 -8 l65 0 0 -120 c0 -113 -1 -120 -20 -120
-11 0 -20 -5 -20 -11 0 -6 12 -9 28 -7 l27 3 3 135 3 135 -76 0 c-41 0 -75 -3
-75 -7z"/>
<path d="M10798 774 c-8 -12 28 -57 42 -52 5 1 -1 16 -13 32 -13 16 -26 25
-29 20z"/>
<path d="M10922 750 c-12 -16 -18 -31 -13 -35 5 -3 19 8 30 24 28 39 11 49
-17 11z"/>
<path d="M10450 760 c0 -6 30 -10 70 -10 l70 0 0 -120 c0 -100 -2 -120 -15
-120 -8 0 -15 -5 -15 -11 0 -6 10 -9 23 -7 21 3 22 6 25 141 l3 137 -81 0
c-47 0 -80 -4 -80 -10z"/>
<path d="M8660 751 c0 -15 51 -51 63 -44 6 4 -2 16 -19 30 -31 24 -44 29 -44
14z"/>
<path d="M9680 620 c0 -73 4 -120 10 -120 6 0 10 47 10 120 0 73 -4 120 -10
120 -6 0 -10 -47 -10 -120z"/>
<path d="M10350 610 c0 -73 4 -120 10 -120 6 0 10 47 10 120 0 73 -4 120 -10
120 -6 0 -10 -47 -10 -120z"/>
<path d="M10490 705 c0 -23 -4 -25 -45 -25 -25 0 -45 -4 -45 -10 0 -5 16 -10
35 -10 34 0 35 -1 24 -22 -6 -13 -25 -37 -41 -54 -17 -18 -25 -34 -20 -38 9
-6 53 38 79 80 10 16 12 11 12 -33 1 -41 -2 -53 -14 -53 -17 0 -20 -16 -6 -24
5 -4 16 -3 25 0 13 5 16 21 16 75 l0 69 30 0 c17 0 30 5 30 10 0 6 -14 10 -31
10 -28 0 -31 3 -27 25 4 17 1 25 -8 25 -8 0 -14 -11 -14 -25z"/>
<path d="M9730 650 l0 -60 30 0 c28 0 30 -2 30 -40 0 -22 5 -40 10 -40 6 0 10
18 10 40 0 39 1 40 35 40 l35 0 0 60 0 60 -75 0 -75 0 0 -60z m60 25 c0 -8 -9
-15 -20 -15 -11 0 -20 7 -20 15 0 8 9 15 20 15 11 0 20 -7 20 -15z m70 0 c0
-9 -9 -15 -25 -15 -16 0 -25 6 -25 15 0 9 9 15 25 15 16 0 25 -6 25 -15z m-70
-55 c0 -13 -7 -20 -20 -20 -13 0 -20 7 -20 20 0 13 7 20 20 20 13 0 20 -7 20
-20z m70 -1 c0 -15 -5 -20 -22 -17 -34 5 -37 38 -4 38 20 0 26 -5 26 -21z"/>
<path d="M8810 657 c0 -47 -31 -99 -76 -124 -30 -17 -35 -23 -22 -28 9 -4 26
-2 37 4 24 14 71 73 71 91 0 7 13 -5 29 -26 38 -53 67 -77 81 -69 8 5 -1 18
-24 37 -44 36 -77 97 -69 127 4 15 1 21 -11 21 -11 0 -16 -9 -16 -33z"/>
<path d="M9390 670 c0 -6 33 -10 80 -10 47 0 80 4 80 10 0 6 -33 10 -80 10
-47 0 -80 -4 -80 -10z"/>
<path d="M8300 650 c0 -6 57 -10 150 -10 93 0 150 4 150 10 0 6 -57 10 -150
10 -93 0 -150 -4 -150 -10z"/>
<path d="M10860 618 c-1 -45 -21 -78 -61 -99 -27 -14 -31 -19 -17 -24 24 -9
68 23 84 62 16 38 18 93 4 93 -5 0 -10 -15 -10 -32z"/>
<path d="M8683 601 c-45 -38 -52 -51 -30 -51 17 0 91 76 80 83 -4 3 -27 -12
-50 -32z"/>
<path d="M9380 555 c0 -37 4 -65 10 -65 6 0 10 5 10 10 0 6 30 10 70 10 40 0
70 -4 70 -10 0 -5 6 -10 13 -10 9 0 11 18 9 65 l-4 65 -89 0 -89 0 0 -65z
m160 10 l0 -35 -70 0 -70 0 0 35 0 35 70 0 70 0 0 -35z"/>
<path d="M10896 552 c-3 -5 8 -21 23 -36 16 -15 31 -23 35 -18 3 5 -8 21 -23
36 -16 15 -31 23 -35 18z"/>
<path d="M11560 802 c0 -5 -11 -26 -25 -47 -32 -46 -23 -61 12 -20 l24 30 16
-22 c19 -28 33 -30 26 -3 -4 16 0 20 21 20 16 0 25 4 21 10 -3 6 -22 10 -41
10 -20 0 -33 5 -31 11 1 6 -4 14 -10 16 -7 3 -13 0 -13 -5z"/>
<path d="M11673 775 c-12 -19 -18 -37 -12 -40 5 -4 12 1 15 9 9 23 30 20 48
-6 9 -12 19 -19 22 -15 4 4 1 13 -6 22 -11 13 -8 15 24 15 20 0 36 5 36 10 0
6 -20 10 -45 10 -33 0 -45 4 -45 15 0 24 -13 17 -37 -20z"/>
<path d="M12040 781 c0 -29 -3 -31 -35 -31 -19 0 -35 -4 -35 -10 0 -5 16 -10
35 -10 28 0 35 -4 35 -20 0 -17 -7 -20 -45 -20 -25 0 -45 -4 -45 -10 0 -6 40
-10 100 -10 60 0 100 4 100 10 0 6 -20 10 -45 10 -38 0 -45 3 -45 20 0 15 7
20 29 20 17 0 33 5 36 10 4 6 -8 10 -29 10 -31 0 -36 3 -36 24 0 14 -4 28 -10
31 -6 4 -10 -7 -10 -24z"/>
<path d="M11887 761 c-21 -21 -35 -41 -30 -44 10 -6 93 69 85 77 -10 10 -16 6
-55 -33z"/>
<path d="M12295 757 c-17 -23 -50 -52 -74 -64 -32 -16 -40 -24 -28 -28 22 -9
69 18 106 61 l33 37 41 -42 42 -41 -78 0 c-45 0 -77 -4 -77 -10 0 -6 33 -10
80 -10 48 0 80 4 80 10 0 7 7 7 21 0 11 -7 28 -9 36 -6 11 5 1 14 -35 32 -52
26 -92 65 -92 90 0 26 -25 13 -55 -29z"/>
<path d="M12571 790 c0 -16 22 -50 33 -50 12 0 6 18 -14 41 -13 17 -19 19 -19
9z"/>
<path d="M12644 768 c-3 -4 26 -8 63 -10 l68 -3 0 -115 c0 -113 0 -114 -25
-121 -21 -5 -22 -7 -7 -14 41 -17 47 -2 49 125 0 66 1 125 2 132 1 13 -142 19
-150 6z"/>
<path d="M12545 620 c0 -73 4 -120 10 -120 6 0 10 47 10 120 0 73 -4 120 -10
120 -6 0 -10 -47 -10 -120z"/>
<path d="M11640 716 c0 -12 -11 -16 -45 -16 -25 0 -45 -4 -45 -10 0 -5 20 -10
45 -10 33 0 45 -4 45 -15 0 -12 -14 -15 -65 -15 -37 0 -65 -4 -65 -10 0 -6 40
-10 100 -10 82 0 100 -3 100 -15 0 -12 -17 -15 -90 -15 -53 0 -90 -4 -90 -10
0 -5 14 -10 31 -10 16 0 28 -4 25 -9 -7 -11 38 -53 47 -44 4 3 -3 17 -15 30
l-21 23 56 0 57 0 0 -31 c0 -22 -5 -32 -20 -36 -25 -7 -26 -23 -2 -23 27 0 42
20 42 57 0 30 3 33 30 33 17 0 30 5 30 10 0 6 -13 10 -29 10 -16 0 -31 6 -35
15 -4 12 4 15 39 15 25 0 45 5 45 10 0 6 -32 10 -75 10 -60 0 -75 3 -75 15 0
11 12 15 50 15 28 0 50 5 50 10 0 6 -22 10 -50 10 -32 0 -49 4 -47 11 1 6 -4
14 -10 16 -7 3 -13 -2 -13 -11z"/>
<path d="M11882 663 c-35 -47 -36 -69 -2 -38 20 18 20 18 20 -58 0 -45 4 -77
10 -77 6 0 10 38 10 94 0 53 4 98 10 101 14 9 12 25 -2 24 -7 0 -28 -21 -46
-46z"/>
<path d="M12590 650 l0 -60 35 0 c34 0 35 -1 35 -40 0 -22 5 -40 10 -40 6 0
10 18 10 40 0 39 1 40 35 40 l35 0 0 60 0 60 -80 0 -80 0 0 -60z m70 25 c0 -9
-9 -15 -25 -15 -16 0 -25 6 -25 15 0 9 9 15 25 15 16 0 25 -6 25 -15z m70 0
c0 -9 -9 -15 -25 -15 -16 0 -25 6 -25 15 0 9 9 15 25 15 16 0 25 -6 25 -15z
m-70 -56 c0 -15 -5 -20 -22 -17 -34 5 -37 38 -4 38 20 0 26 -5 26 -21z m68 4
c-2 -10 -13 -19 -26 -21 -17 -3 -22 2 -22 17 0 16 6 21 26 21 19 0 25 -5 22
-17z"/>
<path d="M12080 645 c0 -12 -13 -15 -60 -15 -33 0 -60 -4 -60 -10 0 -6 27 -10
60 -10 l60 0 0 -50 c0 -40 -3 -48 -15 -44 -9 4 -15 0 -15 -10 0 -17 9 -20 34
-10 12 5 16 20 16 60 0 47 2 54 20 54 11 0 20 5 20 10 0 6 -9 10 -21 10 -15 0
-19 5 -15 15 3 9 0 15 -9 15 -8 0 -15 -7 -15 -15z"/>
<path d="M12240 555 c0 -37 4 -65 10 -65 6 0 10 5 10 10 0 6 32 10 75 10 43 0
75 -4 75 -10 0 -5 5 -10 10 -10 6 0 10 28 10 65 l0 65 -95 0 -95 0 0 -65z
m170 10 l0 -35 -75 0 -75 0 0 35 0 35 75 0 75 0 0 -35z"/>
<path d="M11990 583 c0 -4 7 -17 15 -27 17 -23 34 -13 19 11 -12 19 -34 29
-34 16z"/>
<path d="M740 412 c0 -14 46 -53 53 -45 4 3 -3 17 -15 30 -22 23 -38 30 -38
15z"/>
<path d="M1030 412 c0 -5 10 -14 23 -20 18 -9 10 -11 -46 -11 -45 -1 -66 -5
-62 -11 4 -6 14 -8 23 -5 11 3 22 -3 30 -15 11 -19 10 -20 -33 -20 -25 0 -45
-4 -45 -10 0 -6 55 -10 145 -10 90 0 145 4 145 10 0 6 -20 10 -45 10 -25 0
-45 4 -45 9 0 15 29 33 45 28 8 -4 17 -2 20 3 4 6 -13 10 -39 10 -33 0 -52 6
-66 20 -20 20 -50 27 -50 12z m80 -46 c0 -34 -52 -50 -78 -24 -21 21 -13 28
33 28 25 0 45 -2 45 -4z"/>
<path d="M1400 405 c0 -12 -14 -15 -70 -15 -40 0 -70 -4 -70 -10 0 -6 30 -10
71 -10 44 0 68 -4 64 -10 -3 -5 -26 -10 -51 -10 -40 0 -44 -2 -44 -24 0 -23 5
-25 48 -28 64 -4 55 -22 -15 -29 l-58 -6 57 -1 c85 -3 84 -22 -1 -22 -41 0
-71 -4 -71 -10 0 -6 30 -10 70 -10 40 0 70 -4 70 -10 0 -5 -24 -10 -54 -10
-30 0 -58 -5 -61 -10 -4 -6 17 -10 55 -10 58 0 61 -1 58 -22 -2 -14 -12 -25
-28 -29 -23 -6 -23 -7 -6 -14 26 -11 50 6 54 39 3 23 8 26 43 26 21 0 39 -4
39 -10 0 -5 5 -10 10 -10 6 0 10 14 10 30 0 23 4 30 20 30 11 0 20 5 20 10 0
6 -9 10 -20 10 -11 0 -20 7 -20 15 0 11 -12 15 -50 15 -38 0 -50 4 -50 15 0
11 12 15 45 15 42 0 45 2 45 28 0 26 -2 27 -45 24 -28 -3 -45 0 -45 7 0 7 24
11 65 11 37 0 65 4 65 10 0 6 -28 10 -65 10 -51 0 -65 3 -65 15 0 8 -4 15 -10
15 -5 0 -10 -7 -10 -15z m-5 -80 c0 -5 -17 -11 -37 -13 -30 -3 -38 0 -38 13 0
13 8 16 38 13 20 -2 37 -7 37 -13z m95 0 c0 -10 -11 -15 -35 -15 -24 0 -35 5
-35 15 0 10 11 15 35 15 24 0 35 -5 35 -15z m10 -75 c0 -5 -18 -10 -40 -10
-22 0 -40 5 -40 10 0 6 18 10 40 10 22 0 40 -4 40 -10z m0 -40 c0 -5 -18 -10
-40 -10 -22 0 -40 5 -40 10 0 6 18 10 40 10 22 0 40 -4 40 -10z"/>
<path d="M1790 409 c-52 -3 -74 -6 -47 -7 26 -1 47 -6 47 -11 0 -27 -15 -41
-41 -41 l-29 0 0 -85 c0 -50 4 -85 10 -85 6 0 10 32 10 75 l0 75 55 0 55 0 0
-70 c0 -40 4 -70 10 -70 6 0 10 33 10 80 l0 80 -35 0 c-31 0 -34 2 -26 23 6
17 18 23 52 27 77 9 28 15 -71 9z"/>
<path d="M623 375 c16 -14 33 -22 39 -19 13 8 -30 44 -52 43 -10 0 -5 -8 13
-24z"/>
<path d="M1613 373 c27 -4 27 -5 27 -78 0 -70 -1 -73 -26 -79 -17 -5 -23 -11
-17 -17 11 -11 103 18 103 33 0 5 -9 6 -20 3 -19 -6 -20 -2 -20 65 0 67 1 72
20 67 11 -3 20 -1 20 4 0 5 -26 8 -57 8 -32 -1 -46 -4 -30 -6z"/>
<path d="M680 340 c0 -5 20 -10 45 -10 45 0 45 0 45 -35 0 -34 -1 -35 -40 -35
-22 0 -40 -4 -40 -10 0 -5 18 -10 40 -10 l40 0 0 -45 0 -45 -55 0 c-30 0 -55
-4 -55 -10 0 -6 43 -10 110 -10 67 0 110 4 110 10 0 6 -20 10 -45 10 l-45 0 0
45 c0 45 0 45 35 45 19 0 35 5 35 10 0 6 -16 10 -35 10 -33 0 -35 2 -35 35 0
34 1 35 40 35 22 0 40 5 40 10 0 6 -38 10 -95 10 -57 0 -95 -4 -95 -10z"/>
<path d="M580 311 c0 -10 39 -41 52 -41 17 0 6 17 -22 33 -16 10 -30 14 -30 8z"/>
<path d="M970 255 c0 -45 0 -45 35 -45 27 0 42 -7 60 -27 13 -16 27 -25 31
-21 4 5 -1 17 -11 28 -18 20 -18 20 33 20 l52 0 0 45 0 45 -100 0 -100 0 0
-45z m180 15 c0 -6 -33 -10 -80 -10 -47 0 -80 4 -80 10 0 6 33 10 80 10 47 0
80 -4 80 -10z m0 -40 c0 -6 -33 -10 -80 -10 -47 0 -80 4 -80 10 0 6 33 10 80
10 47 0 80 -4 80 -10z"/>
<path d="M1788 250 c-6 -57 -26 -86 -77 -107 -23 -10 -30 -18 -23 -25 13 -13
82 24 101 54 19 31 31 128 16 128 -8 0 -14 -20 -17 -50z"/>
<path d="M635 221 c-3 -11 -17 -35 -30 -55 -15 -22 -20 -38 -14 -42 6 -3 12
-4 13 -3 11 15 56 103 56 110 0 17 -19 9 -25 -10z"/>
<path d="M1000 171 c0 -42 24 -61 76 -61 32 0 50 6 66 22 15 15 18 23 9 26 -7
2 -18 -3 -24 -13 -9 -12 -25 -16 -57 -13 -44 3 -45 4 -44 36 1 21 -3 32 -12
32 -9 0 -14 -11 -14 -29z"/>
<path d="M1156 192 c-3 -5 8 -21 23 -36 16 -15 31 -23 35 -18 3 5 -8 21 -23
36 -16 15 -31 23 -35 18z"/>
<path d="M943 155 c-14 -23 -18 -35 -10 -35 11 0 47 49 47 64 0 15 -17 2 -37
-29z"/>
<path d="M1806 182 c-6 -11 73 -77 81 -68 8 7 -13 32 -48 57 -15 10 -30 15
-33 11z"/>
<path d="M4920 373 l0 -46 -25 23 c-14 13 -28 20 -32 16 -5 -4 7 -21 25 -37
41 -37 40 -52 -3 -90 -19 -17 -32 -35 -29 -41 3 -5 19 2 35 18 l28 27 3 -64
c2 -35 7 -63 12 -61 5 1 8 29 7 62 l-2 60 75 0 76 0 0 -50 c0 -47 -2 -50 -25
-50 -16 0 -25 -6 -25 -15 0 -18 9 -19 44 -5 24 9 26 15 26 65 0 52 1 55 25 55
14 0 25 5 25 10 0 6 -11 10 -25 10 -18 0 -25 5 -25 20 0 11 -6 20 -14 20 -9 0
-12 -7 -9 -20 5 -18 0 -20 -43 -20 l-49 0 35 21 c39 24 100 79 100 91 0 4 -23
8 -51 8 -43 0 -50 2 -40 14 9 11 9 16 0 22 -8 4 -15 2 -17 -5 -2 -7 -17 -28
-33 -46 -17 -18 -26 -36 -21 -39 5 -3 17 3 27 14 12 14 31 20 59 20 38 0 39
-1 23 -17 -14 -15 -21 -16 -37 -5 -11 7 -20 8 -20 3 0 -6 5 -13 10 -16 18 -11
11 -23 -21 -34 -17 -6 -28 -15 -24 -21 4 -6 -5 -10 -21 -10 l-27 0 5 80 c4 62
2 80 -9 80 -9 0 -13 -14 -13 -47z"/>
<path d="M5410 385 l0 -35 -60 0 c-33 0 -60 -4 -60 -10 0 -6 27 -10 60 -10
l60 0 0 -70 c0 -63 -2 -70 -20 -70 -11 0 -20 -7 -20 -15 0 -18 31 -20 48 -3 7
7 12 42 12 85 0 71 1 73 25 73 14 0 25 5 25 10 0 6 -12 10 -26 10 -24 0 -26 3
-22 35 3 24 0 35 -9 35 -8 0 -13 -13 -13 -35z"/>
<path d="M5690 413 c0 -3 7 -15 17 -25 15 -17 14 -18 -30 -18 -26 0 -47 -4
-47 -9 0 -4 11 -6 25 -3 17 3 25 0 25 -10 0 -8 -11 -25 -25 -38 -40 -37 -32
-44 48 -37 50 4 77 3 85 -5 6 -6 15 -8 19 -5 4 4 -7 22 -25 39 -31 31 -57 34
-32 3 11 -13 6 -15 -34 -15 -42 0 -46 2 -37 18 30 50 38 55 91 50 27 -3 50 -1
50 3 0 5 -21 9 -47 9 -25 0 -43 3 -40 7 4 3 0 15 -10 25 -16 18 -33 24 -33 11z"/>
<path d="M6263 408 l-33 -11 0 -104 c0 -83 -3 -105 -15 -109 -8 -4 -15 -10
-15 -15 0 -5 7 -9 15 -9 9 0 15 -9 15 -25 0 -14 5 -25 10 -25 6 0 10 14 10 30
0 31 3 34 53 44 15 4 27 11 27 17 0 11 -26 8 -64 -7 -13 -5 -16 1 -16 25 0 29
3 31 35 31 19 0 35 5 35 10 0 6 -16 10 -35 10 -31 0 -35 3 -35 25 0 22 4 25
36 25 19 0 33 4 30 8 -3 5 -19 7 -36 4 -28 -4 -30 -2 -30 26 0 27 4 30 40 36
23 4 38 11 35 16 -7 12 -19 11 -62 -2z"/>
<path d="M6607 413 c-2 -5 -7 -20 -11 -35 -3 -16 -13 -28 -21 -28 -12 0 -15
-20 -15 -115 0 -70 4 -115 10 -115 6 0 10 7 10 15 0 10 11 15 35 15 19 0 35
-4 35 -10 0 -5 5 -10 10 -10 6 0 10 43 10 110 l0 110 -31 0 c-31 0 -32 3 -12
58 5 13 -13 17 -20 5z m43 -118 c0 -33 -2 -35 -35 -35 -33 0 -35 2 -35 35 0
33 2 35 35 35 33 0 35 -2 35 -35z m0 -96 c0 -39 -1 -40 -32 -37 -30 3 -33 6
-36 41 -3 36 -3 37 32 37 35 0 36 -1 36 -41z"/>
<path d="M6730 407 c0 -8 -11 -35 -24 -60 -23 -47 -19 -77 6 -37 10 15 23 20
55 20 l43 0 0 -49 c0 -26 -3 -69 -6 -95 -6 -38 -11 -47 -30 -52 -28 -7 -32
-24 -6 -24 44 0 54 21 59 133 l6 107 -52 0 -52 0 16 30 c19 36 19 40 0 40 -8
0 -15 -6 -15 -13z"/>
<path d="M7110 380 l0 -40 -50 0 c-27 0 -50 -4 -50 -10 0 -5 23 -10 50 -10
l50 0 0 -90 0 -90 -27 0 c-19 0 -24 -3 -16 -11 6 -6 21 -9 34 -7 23 3 24 7 27
101 3 96 3 97 27 97 14 0 25 5 25 10 0 6 -12 10 -26 10 -24 0 -26 3 -22 40 2
28 0 40 -9 40 -8 0 -13 -14 -13 -40z"/>
<path d="M7257 414 c-5 -5 39 -54 48 -54 3 0 5 6 5 14 0 15 -44 48 -53 40z"/>
<path d="M7970 349 l0 -71 -37 4 c-21 1 -38 -2 -38 -7 0 -5 17 -8 38 -7 l38 4
-2 -74 c-1 -40 1 -75 4 -78 8 -6 87 42 87 52 0 11 -7 10 -40 -7 l-30 -16 0 56
c0 65 22 85 49 45 9 -13 37 -45 63 -72 46 -46 80 -60 93 -38 3 6 1 10 -5 10
-42 0 -130 77 -130 113 0 5 29 7 65 5 39 -2 65 1 65 7 0 6 -39 10 -97 10 l-98
0 0 68 c0 47 -4 67 -12 67 -9 0 -13 -21 -13 -71z"/>
<path d="M8740 347 c0 -103 2 -107 60 -107 52 0 77 18 65 47 -6 16 -8 15 -16
-5 -7 -19 -15 -23 -46 -20 -32 3 -38 7 -41 29 -3 22 4 28 48 49 27 13 50 27
50 32 0 14 -24 9 -55 -12 -42 -27 -47 -25 -43 17 2 22 -2 38 -10 41 -9 3 -12
-16 -12 -71z"/>
<path d="M4520 400 c0 -5 23 -10 51 -10 57 0 66 -23 11 -28 -30 -3 -32 -6 -32
-43 l0 -39 41 0 c65 0 44 -24 -24 -28 -71 -4 -75 -22 -5 -22 50 0 51 0 33 -20
-18 -19 -17 -20 14 -26 51 -11 45 -22 -21 -37 -49 -11 -59 -16 -44 -23 13 -5
42 0 83 15 l64 22 44 -20 c26 -12 47 -16 51 -10 5 9 -53 39 -76 39 -7 0 -4 13
7 30 14 25 24 30 55 30 21 0 38 5 38 10 0 6 -33 10 -80 10 -66 0 -78 2 -74 15
5 11 22 15 65 15 l59 0 0 40 c0 39 -1 40 -35 40 -24 0 -35 5 -35 15 0 11 12
15 50 15 28 0 50 5 50 10 0 6 -55 10 -145 10 -90 0 -145 -4 -145 -10z m168
-22 c-7 -20 -48 -23 -48 -4 0 11 9 16 26 16 16 0 24 -5 22 -12z m-70 -55 c3
-19 -1 -23 -22 -23 -21 0 -26 5 -26 26 0 21 4 25 23 22 14 -2 23 -11 25 -25z
m70 0 c3 -19 -1 -23 -22 -23 -21 0 -26 5 -26 26 0 21 4 25 23 22 14 -2 23 -11
25 -25z m72 2 c0 -20 -5 -25 -25 -25 -20 0 -25 5 -25 25 0 20 5 25 25 25 20 0
25 -5 25 -25z m-65 -119 c-11 -17 -22 -22 -40 -18 -54 10 -42 42 16 42 39 0
39 0 24 -24z"/>
<path d="M6360 375 c0 -21 -8 -43 -20 -55 -13 -13 -16 -21 -8 -26 17 -10 48
34 48 67 0 24 4 29 25 29 21 0 25 -5 25 -29 0 -47 10 -61 41 -61 34 0 39 17 7
22 -20 3 -23 9 -23 46 l0 42 -47 0 -48 0 0 -35z"/>
<path d="M7795 399 c-16 -3 -47 -7 -67 -8 -48 -1 -50 -21 -3 -21 l36 0 -3 -77
c-3 -65 -6 -78 -20 -81 -16 -3 -18 5 -18 57 0 34 -4 61 -10 61 -6 0 -10 -29
-10 -67 l0 -68 70 1 c39 1 73 4 77 8 3 3 -10 6 -30 6 -36 0 -37 1 -37 40 0 38
2 40 31 40 17 0 28 4 24 10 -3 6 -17 10 -31 10 -21 0 -24 5 -24 35 0 32 2 35
30 35 17 0 30 4 30 9 0 15 -13 18 -45 10z"/>
<path d="M8119 394 c-7 -9 -35 -31 -62 -49 -30 -20 -44 -36 -37 -40 12 -7 121
72 128 93 6 18 -14 14 -29 -4z"/>
<path d="M8660 340 c0 -64 -2 -70 -21 -70 -19 0 -21 5 -17 60 2 43 -1 60 -9
60 -9 0 -13 -20 -13 -65 0 -51 -3 -65 -15 -65 -15 0 -20 -12 -10 -22 7 -6 141
25 151 35 4 4 -5 7 -19 7 -22 0 -27 5 -27 25 0 20 5 25 25 25 14 0 25 5 25 10
0 6 -12 10 -26 10 -23 0 -26 3 -22 30 3 20 0 30 -9 30 -9 0 -13 -19 -13 -70z"/>
<path d="M5232 371 c13 -17 27 -25 32 -20 12 10 -21 49 -41 49 -11 0 -8 -8 9
-29z"/>
<path d="M5560 392 c0 -14 39 -46 47 -39 3 4 -2 16 -12 27 -19 21 -35 26 -35
12z"/>
<path d="M7350 390 c0 -6 28 -10 65 -10 l65 0 0 -121 c0 -112 -1 -121 -20
-126 -25 -7 -26 -23 -2 -23 37 0 42 20 42 157 l0 133 -75 0 c-43 0 -75 -4 -75
-10z"/>
<path d="M7580 390 c0 -5 14 -10 30 -10 17 0 30 -4 30 -10 0 -5 -13 -25 -30
-43 -16 -19 -30 -37 -30 -41 0 -3 16 -6 35 -6 38 0 40 -5 24 -47 l-11 -28 -12
24 c-7 13 -16 20 -19 14 -3 -5 -2 -15 4 -23 16 -26 10 -49 -17 -63 -19 -10
-23 -16 -15 -22 7 -4 22 2 36 15 22 21 24 21 56 4 38 -20 189 -33 189 -17 0 6
-36 12 -79 15 -49 3 -89 11 -104 21 l-24 16 18 53 18 53 -30 3 -29 3 18 27
c11 15 24 37 31 50 11 21 10 22 -39 22 -27 0 -50 -4 -50 -10z"/>
<path d="M6900 265 c0 -77 4 -125 10 -125 6 0 10 7 10 15 0 10 10 15 30 15 21
0 30 -5 30 -16 0 -8 5 -12 10 -9 6 4 10 57 10 126 l0 119 -50 0 -50 0 0 -125z
m80 65 c0 -38 -2 -40 -30 -40 -28 0 -30 2 -30 40 0 38 2 40 30 40 28 0 30 -2
30 -40z m-2 -102 c-3 -39 -6 -43 -30 -46 -27 -3 -28 -2 -28 42 0 45 1 46 31
46 29 0 30 -1 27 -42z"/>
<path d="M6007 373 c-4 -3 -7 -55 -7 -115 0 -89 3 -108 15 -108 12 0 15 19 15
115 0 105 -5 127 -23 108z"/>
<path d="M7240 235 c0 -77 4 -125 10 -125 6 0 10 48 10 125 0 77 -4 125 -10
125 -6 0 -10 -48 -10 -125z"/>
<path d="M5530 311 c0 -13 50 -44 58 -36 4 4 -4 15 -17 26 -25 20 -41 24 -41
10z"/>
<path d="M7310 250 l0 -70 60 0 60 0 0 70 0 70 -60 0 -60 0 0 -70z m100 35 c0
-22 -4 -25 -40 -25 -36 0 -40 3 -40 25 0 23 4 25 40 25 36 0 40 -2 40 -25z m0
-70 c0 -22 -4 -25 -40 -25 -36 0 -40 3 -40 25 0 23 4 25 40 25 36 0 40 -2 40
-25z"/>
<path d="M5190 290 c0 -5 9 -10 20 -10 17 0 20 -7 20 -51 0 -41 -5 -54 -22
-69 -13 -10 -20 -22 -16 -26 5 -4 16 0 26 10 18 15 22 15 65 -4 37 -16 63 -20
124 -18 111 4 107 25 -4 24 -60 -1 -97 4 -118 14 -28 15 -30 19 -30 78 l0 62
-32 0 c-18 0 -33 -4 -33 -10z"/>
<path d="M5330 260 c12 -17 26 -28 31 -25 12 8 -20 55 -38 55 -11 0 -9 -7 7
-30z"/>
<path d="M7036 281 c-9 -14 15 -61 31 -61 11 0 10 6 -3 33 -21 40 -21 40 -28
28z"/>
<path d="M6720 269 c0 -19 47 -65 57 -55 4 3 -7 21 -25 39 -22 22 -32 27 -32
16z"/>
<path d="M8230 270 c0 -6 57 -10 150 -10 93 0 150 4 150 10 0 6 -57 10 -150
10 -93 0 -150 -4 -150 -10z"/>
<path d="M6330 260 c0 -5 6 -10 13 -10 7 0 21 -16 31 -35 19 -35 19 -36 0 -50
-10 -8 -29 -18 -41 -21 -13 -3 -23 -10 -23 -15 0 -16 31 -9 67 16 l36 24 29
-24 c30 -26 58 -33 58 -15 0 6 -16 18 -35 27 -41 19 -41 22 -15 65 11 18 20
36 20 41 0 4 -31 7 -70 7 -40 0 -70 -4 -70 -10z m110 -6 c0 -6 -20 -46 -26
-53 -6 -7 -33 32 -34 47 0 7 12 12 30 12 17 0 30 -3 30 -6z"/>
<path d="M5647 209 c-3 -23 -15 -51 -27 -64 -14 -15 -18 -25 -10 -30 25 -15
60 50 60 113 0 38 -17 24 -23 -19z"/>
<path d="M5700 185 c0 -37 4 -65 10 -65 6 0 10 28 10 65 0 37 -4 65 -10 65 -6
0 -10 -28 -10 -65z"/>
<path d="M5750 201 c0 -68 7 -81 41 -81 29 0 50 23 34 38 -4 4 -10 1 -12 -5
-3 -7 -14 -13 -25 -13 -19 0 -20 5 -16 55 4 41 1 55 -9 55 -9 0 -13 -15 -13
-49z"/>
<path d="M5567 187 c-29 -57 -32 -67 -17 -67 14 0 63 101 53 111 -4 4 -21 -15
-36 -44z"/>
<path d="M5000 201 c12 -23 29 -35 37 -27 7 7 -26 46 -39 46 -5 0 -4 -9 2 -19z"/>
<path d="M8630 200 c0 -6 38 -10 95 -10 57 0 95 4 95 10 0 6 -38 10 -95 10
-57 0 -95 -4 -95 -10z"/>
<path d="M8715 140 c-77 -3 -138 -7 -135 -8 3 -2 67 -4 143 -5 104 -1 137 1
137 11 0 6 -1 11 -2 10 -2 -1 -66 -5 -143 -8z"/>
</g>
</svg>
