<?xml version="1.0" standalone="no"?>
<!DOCTYPE svg PUBLIC "-//W3C//DTD SVG 20010904//EN"
 "http://www.w3.org/TR/2001/REC-SVG-20010904/DTD/svg10.dtd">
<svg version="1.0" xmlns="http://www.w3.org/2000/svg"
 width="1068.000000pt" height="211.000000pt" viewBox="0 0 1068.000000 211.000000"
 preserveAspectRatio="xMidYMid meet">

<g transform="translate(0.000000,211.000000) scale(0.100000,-0.100000)"
fill="#000000" stroke="none">
<path d="M42 1060 l3 -970 5283 -3 5282 -2 0 973 0 972 -5285 0 -5285 0 2
-970z m4178 905 c0 -28 -4 -35 -20 -35 -11 0 -20 -4 -20 -10 0 -5 9 -10 20
-10 17 0 20 -7 20 -44 0 -36 -4 -46 -20 -51 -26 -8 -26 -29 0 -22 18 5 20 0
20 -39 0 -32 -4 -44 -15 -44 -8 0 -15 -5 -15 -11 0 -6 10 -9 23 -7 19 3 23 10
27 62 3 35 10 61 17 64 7 2 13 -1 13 -7 0 -6 11 -11 25 -11 23 0 24 -2 15 -20
-9 -17 -7 -22 17 -31 26 -10 27 -12 8 -19 -11 -5 -28 -11 -37 -14 -21 -6 -24
-26 -5 -26 7 0 30 9 51 20 35 17 41 18 67 5 32 -17 49 -19 49 -6 0 5 -13 14
-30 21 -35 14 -33 12 -18 45 8 18 19 25 40 25 15 0 28 5 28 10 0 6 -27 10 -61
10 -34 0 -58 4 -54 9 3 5 0 13 -6 17 -6 4 -16 -1 -21 -10 -12 -21 -68 -22 -68
-1 0 9 -6 12 -15 9 -11 -5 -15 2 -15 26 0 23 5 33 20 37 26 7 26 23 0 23 -20
0 -26 22 -14 54 9 24 86 21 109 -4 18 -20 17 -20 -23 -20 -23 0 -42 -4 -42
-10 0 -6 35 -10 85 -10 50 0 85 4 85 10 0 6 -15 10 -33 10 -21 0 -36 7 -45 20
-12 19 -10 20 83 20 l95 0 0 -45 c0 -41 -2 -45 -25 -45 -14 0 -25 -4 -25 -10
0 -5 11 -10 25 -10 24 0 25 -3 25 -55 0 -50 -2 -56 -25 -65 -14 -5 -25 -15
-25 -21 0 -7 7 -8 18 -4 9 4 31 12 47 17 17 6 37 17 45 25 13 13 12 13 -12 8
-28 -7 -28 -7 -28 44 0 44 3 51 20 51 11 0 20 5 20 10 0 6 -9 10 -20 10 -17 0
-20 7 -20 45 l0 45 60 0 60 0 0 -50 c0 -27 -2 -50 -4 -50 -2 0 -12 -3 -21 -7
-15 -5 -17 0 -14 40 3 33 0 47 -8 47 -9 0 -13 -17 -13 -50 0 -43 -3 -50 -20
-50 -11 0 -20 -5 -20 -11 0 -6 9 -9 20 -6 19 5 20 0 20 -67 0 -43 5 -77 12
-84 7 -7 39 -12 74 -12 54 0 65 3 79 22 18 27 1 39 -18 13 -10 -12 -25 -15
-67 -13 l-55 3 -3 69 c-3 66 4 85 31 86 4 0 7 -27 7 -60 0 -33 4 -60 10 -60 6
0 10 28 10 64 0 60 1 64 25 68 24 5 25 3 25 -39 0 -30 -5 -45 -15 -49 -19 -8
-19 -24 0 -24 22 0 35 33 35 90 l0 51 -36 -7 -35 -6 3 43 3 44 119 3 c118 3
120 2 148 -24 31 -31 51 -25 23 6 -18 20 -18 20 128 20 l147 0 -17 -35 c-12
-25 -23 -35 -40 -35 -23 0 -23 -1 -23 -120 0 -73 4 -120 10 -120 6 0 10 43 10
110 l0 110 105 0 105 0 0 -94 c0 -93 0 -95 -25 -98 -17 -2 -22 -7 -16 -16 5
-9 17 -11 34 -6 l27 6 0 114 0 114 -90 0 -90 0 12 25 c6 14 16 25 22 25 6 0 4
5 -4 10 -10 6 42 10 158 10 98 0 172 -4 172 -9 0 -27 -15 -41 -41 -41 l-29 0
0 -130 c0 -118 9 -162 23 -110 5 18 14 20 87 20 73 0 82 -2 87 -20 14 -52 23
-8 23 110 l0 130 -65 0 c-60 0 -80 9 -55 25 6 4 8 11 5 16 -4 5 125 9 330 9
193 0 334 -4 331 -9 -3 -5 1 -14 9 -21 28 -24 15 -32 -44 -28 l-59 3 -4 -90
c-3 -58 -10 -101 -21 -122 -10 -19 -13 -34 -7 -38 19 -12 43 60 48 147 l5 88
113 0 c63 0 114 3 114 8 0 4 -25 5 -55 4 -39 -3 -55 0 -55 9 0 7 -7 21 -17 31
-16 17 50 18 2095 18 l2112 0 0 -175 0 -175 -5245 0 -5245 0 0 175 0 175 2070
0 2070 0 0 -35z m1548 -62 c3 -22 1 -23 -87 -23 -91 0 -91 0 -91 25 l0 26 88
-3 c82 -3 87 -4 90 -25z m0 -65 c-3 -22 -8 -23 -90 -26 l-88 -3 0 26 c0 25 0
25 91 25 88 0 90 -1 87 -22z m-1368 -44 c0 -21 -22 -42 -40 -37 -44 12 -36 43
11 43 16 0 29 -3 29 -6z m1365 -24 c0 -25 -2 -25 -87 -28 l-88 -3 0 31 0 31
88 -3 c85 -3 87 -3 87 -28z m-3675 -325 l0 -175 -1005 0 -1005 0 0 175 0 175
1005 0 1005 0 0 -175z m3790 0 l0 -175 -1880 0 -1880 0 0 175 0 175 1880 0
1880 0 0 -175z m4690 0 l0 -175 -755 0 -755 0 21 43 c30 57 30 146 1 204 -20
38 -42 63 -42 48 0 -3 10 -25 22 -48 29 -58 29 -147 -1 -204 l-21 -43 -694 0
-694 0 -21 43 c-30 63 -29 150 4 211 14 26 20 46 13 44 -7 -3 -22 -24 -35 -48
-30 -56 -31 -146 -3 -207 l19 -43 -854 0 -855 0 0 175 0 175 2325 0 2325 0 0
-175z m-8480 -390 l0 -175 -1005 0 -1005 0 0 175 0 175 1005 0 1005 0 0 -175z
m3790 0 l0 -175 -1880 0 -1880 0 0 175 0 175 1880 0 1880 0 0 -175z m4690 0
l0 -175 -2325 0 -2325 0 0 175 0 175 2325 0 2325 0 0 -175z m-8480 -380 l0
-175 -1005 0 -1005 0 0 175 0 175 1005 0 1005 0 0 -175z m3790 0 l0 -175
-1880 0 -1880 0 0 175 0 175 1880 0 1880 0 0 -175z m4690 0 l0 -175 -2325 0
-2325 0 0 175 0 175 2325 0 2325 0 0 -175z m-8480 -380 l0 -175 -1005 0 -1005
0 0 175 0 175 1005 0 1005 0 0 -175z m3790 0 l0 -175 -1880 0 -1880 0 0 175 0
175 1880 0 1880 0 0 -175z m4690 0 l0 -175 -2325 0 -2325 0 0 175 0 175 2325
0 2325 0 0 -175z"/>
<path d="M6033 1978 c-35 -5 -63 -14 -63 -20 0 -6 14 -8 35 -4 31 6 35 4 35
-14 0 -17 -6 -20 -45 -20 -25 0 -45 -4 -45 -10 0 -5 20 -10 45 -10 38 0 45 -3
45 -20 0 -16 -7 -20 -30 -20 -30 0 -30 -1 -30 -55 l0 -55 75 0 75 0 0 55 0 55
-35 0 c-28 0 -35 4 -35 20 0 17 7 20 50 20 28 0 50 5 50 10 0 6 -22 10 -50 10
-43 0 -50 3 -50 20 0 15 9 21 40 26 22 4 37 10 34 15 -6 10 -16 10 -101 -3z
m77 -173 l0 -35 -55 0 -55 0 0 35 0 35 55 0 55 0 0 -35z"/>
<path d="M5890 1972 c0 -14 39 -46 47 -39 3 4 -2 16 -12 27 -19 21 -35 26 -35
12z"/>
<path d="M4860 1930 c0 -5 23 -10 51 -10 l51 0 -7 -57 c-8 -67 -26 -102 -66
-129 -32 -21 -37 -34 -13 -34 27 0 83 68 95 116 l11 44 49 0 49 0 0 -42 c0
-65 -9 -86 -36 -90 -17 -2 -21 -7 -15 -17 12 -19 50 -4 62 26 5 13 9 51 9 84
l0 59 -60 0 c-53 0 -60 2 -60 20 0 18 7 20 85 20 50 0 85 4 85 10 0 6 -55 10
-145 10 -90 0 -145 -4 -145 -10z"/>
<path d="M4316 1922 c-3 -5 3 -17 13 -26 11 -10 22 -13 25 -8 3 5 -3 17 -13
26 -11 10 -22 13 -25 8z"/>
<path d="M4392 1901 c-11 -26 -19 -30 -60 -34 -26 -2 -9 -4 38 -4 47 0 72 2
57 4 -27 4 -28 5 -13 28 14 21 12 35 -3 35 -3 0 -12 -13 -19 -29z"/>
<path d="M6340 1885 c0 -13 45 -95 53 -95 10 0 1 32 -20 73 -11 23 -33 38 -33
22z"/>
<path d="M6439 1852 c-6 -20 -22 -58 -36 -84 l-23 -48 -60 0 c-33 0 -60 -3
-60 -7 0 -5 54 -8 120 -8 119 0 165 11 71 17 l-48 3 37 77 c27 56 33 78 24 82
-8 3 -17 -9 -25 -32z"/>
<path d="M5870 1870 c0 -5 9 -10 20 -10 18 0 20 -7 20 -55 0 -44 -4 -57 -20
-67 -11 -7 -20 -16 -20 -20 0 -13 20 -9 36 6 12 13 19 13 49 0 40 -16 205 -20
205 -4 0 6 -37 10 -90 10 -49 0 -101 5 -115 12 -25 11 -26 15 -23 75 l3 63
-32 0 c-18 0 -33 -4 -33 -10z"/>
<path d="M5280 1815 l0 -51 55 0 55 0 0 51 0 50 -55 0 -55 0 0 -50z m90 0 c0
-33 -2 -35 -35 -35 -33 0 -35 2 -35 35 0 33 2 35 35 35 33 0 35 -2 35 -35z"/>
<path d="M6280 1844 c0 -16 53 -93 61 -88 6 3 4 14 -4 27 -8 12 -20 32 -28 45
-13 20 -29 30 -29 16z"/>
<path d="M3991 1539 c-13 -11 -21 -22 -17 -26 3 -4 12 -1 18 5 23 23 28 11 28
-78 l0 -90 -30 0 c-16 0 -30 -4 -30 -10 0 -6 28 -10 65 -10 37 0 65 4 65 10 0
6 -11 10 -25 10 l-25 0 0 105 c0 113 -5 121 -49 84z"/>
<path d="M8160 1595 c0 -3 8 -17 17 -31 l17 -26 -67 4 -67 3 0 -85 c0 -64 -5
-95 -19 -123 -12 -23 -15 -39 -9 -43 24 -15 48 66 48 164 l0 72 115 0 c63 0
115 3 115 8 0 4 -22 5 -49 4 -41 -3 -50 -1 -55 15 -5 17 -46 50 -46 38z"/>
<path d="M8550 1575 l23 -25 -51 0 c-29 0 -52 -4 -52 -10 0 -5 16 -10 35 -10
l36 0 -16 -30 c-9 -16 -20 -30 -25 -30 -6 0 -10 -7 -10 -16 0 -13 8 -15 35
-12 46 5 44 -6 -5 -38 -22 -15 -37 -30 -34 -35 7 -12 6 -12 43 15 31 23 90 93
91 109 0 16 -29 6 -35 -13 -5 -14 -15 -20 -37 -20 l-31 0 25 33 c22 28 32 32
77 35 64 4 68 22 4 22 -25 0 -43 3 -40 7 10 9 -23 43 -41 43 -12 0 -10 -6 8
-25z"/>
<path d="M8750 1565 c0 -31 -3 -35 -25 -35 -14 0 -25 -4 -25 -10 0 -5 11 -10
25 -10 22 0 25 -4 25 -40 0 -34 -4 -41 -25 -46 -14 -3 -25 -9 -25 -13 0 -16
13 -20 31 -10 17 9 19 6 19 -35 0 -37 -4 -45 -20 -48 -12 -2 -17 -7 -12 -15 4
-7 17 -10 30 -6 20 5 22 12 22 64 0 48 4 60 20 69 11 6 20 15 20 19 0 5 -9 7
-20 4 -17 -5 -20 0 -20 26 0 26 4 31 25 31 14 0 25 5 25 10 0 6 -12 10 -26 10
-25 0 -26 2 -21 35 4 26 2 35 -9 35 -9 0 -14 -11 -14 -35z"/>
<path d="M8386 1582 c-7 -12 39 -55 54 -50 6 2 -2 16 -18 31 -17 16 -32 24
-36 19z"/>
<path d="M7700 1570 c0 -5 34 -10 76 -12 l75 -3 -33 -49 c-18 -28 -53 -62 -80
-79 -30 -19 -45 -34 -39 -40 12 -12 42 5 92 50 l39 35 0 -91 c0 -54 4 -91 10
-91 6 0 10 43 10 110 0 143 9 160 86 160 30 0 54 5 54 10 0 6 -55 10 -145 10
-86 0 -145 -4 -145 -10z"/>
<path d="M8835 1435 c0 -109 3 -145 13 -145 6 0 12 5 12 11 0 5 5 7 10 4 6 -4
23 1 37 10 24 16 28 16 55 1 15 -10 33 -14 39 -10 6 3 -2 14 -20 25 -36 22
-36 24 -16 72 8 20 15 41 15 47 0 6 -25 10 -60 10 l-60 0 0 50 0 50 46 0 c41
0 45 -2 42 -22 -2 -15 -11 -24 -26 -26 -13 -2 -21 -9 -19 -15 4 -12 47 -11 58
1 4 4 9 24 12 45 l6 37 -72 0 -72 0 0 -145z m57 -41 c22 -45 22 -46 3 -60 -31
-23 -35 -17 -35 46 0 33 2 60 4 60 3 0 15 -21 28 -46z m58 39 c-1 -21 -13 -53
-21 -53 -5 0 -15 14 -24 30 l-16 30 31 0 c16 0 30 -3 30 -7z"/>
<path d="M7436 1544 c-17 -17 -22 -44 -7 -44 5 0 11 9 14 20 6 23 55 28 75 8
23 -23 12 -49 -48 -113 -33 -35 -60 -69 -60 -75 0 -6 29 -10 70 -10 84 0 94
18 13 22 l-58 3 43 40 c71 65 89 116 54 148 -23 21 -76 22 -96 1z"/>
<path d="M7880 1482 c0 -4 22 -29 49 -56 35 -34 51 -44 56 -35 6 8 -8 27 -41
56 -48 42 -64 51 -64 35z"/>
<path d="M8183 1440 c19 -46 37 -65 37 -40 0 23 -33 90 -45 90 -10 0 -8 -13 8
-50z"/>
<path d="M8256 1438 c-10 -29 -27 -68 -38 -85 -19 -31 -23 -33 -79 -33 -32 0
-59 -3 -59 -7 0 -5 54 -8 120 -8 66 0 120 3 120 8 0 4 -20 7 -45 7 -25 0 -45
3 -45 8 0 4 15 39 34 77 31 65 35 85 18 85 -4 0 -16 -24 -26 -52z"/>
<path d="M8360 1480 c0 -5 12 -10 26 -10 l26 0 -2 -82 c-1 -46 -2 -87 -1 -92
1 -6 17 5 36 24 35 34 39 66 4 34 -19 -17 -19 -15 -19 59 l0 77 -35 0 c-19 0
-35 -4 -35 -10z"/>
<path d="M8100 1445 c0 -15 58 -96 63 -88 7 11 -40 93 -54 93 -5 0 -9 -2 -9
-5z"/>
<path d="M8605 1410 c-25 -37 -93 -90 -115 -90 -5 0 -10 -4 -10 -9 0 -22 20
-19 60 10 l42 31 33 -32 c18 -17 35 -28 39 -22 3 5 -8 22 -24 37 -17 16 -30
31 -30 34 0 3 13 20 30 38 22 23 26 33 16 36 -9 4 -25 -10 -41 -33z"/>
<path d="M900 1195 c0 -23 -3 -25 -50 -25 l-50 0 0 -85 0 -85 49 0 50 0 3 -37
3 -38 70 -3 c62 -3 72 0 87 19 18 21 16 39 -3 39 -5 0 -9 -7 -9 -15 0 -19 -31
-35 -69 -35 -47 0 -61 9 -61 41 0 28 1 29 55 29 l55 0 0 85 0 85 -56 0 c-55 0
-56 1 -52 25 4 17 1 25 -8 25 -8 0 -14 -11 -14 -25z m0 -70 c0 -22 -4 -25 -40
-25 -36 0 -40 3 -40 25 0 23 4 25 40 25 36 0 40 -2 40 -25z m110 0 c0 -23 -4
-25 -45 -25 -41 0 -45 2 -45 25 0 23 4 25 45 25 41 0 45 -2 45 -25z m-110 -75
c0 -28 -2 -30 -40 -30 -38 0 -40 2 -40 30 0 28 2 30 40 30 38 0 40 -2 40 -30z
m110 0 c0 -29 -2 -30 -45 -30 -43 0 -45 1 -45 30 0 29 2 30 45 30 43 0 45 -1
45 -30z"/>
<path d="M1149 1082 c-3 -80 -9 -115 -21 -134 -16 -24 -15 -38 3 -38 16 0 39
106 39 182 l0 78 120 0 c73 0 120 4 120 10 0 6 -50 10 -129 10 l-129 0 -3
-108z"/>
<path d="M1280 1115 c0 -34 -1 -35 -40 -35 -22 0 -40 -4 -40 -10 0 -5 18 -10
40 -10 l40 0 0 -60 0 -60 -55 0 c-30 0 -55 -3 -55 -7 0 -9 239 -7 248 1 3 3
-22 6 -56 6 l-62 0 0 60 0 60 40 0 c22 0 40 5 40 10 0 6 -18 10 -40 10 -39 0
-40 1 -40 35 0 19 -4 35 -10 35 -5 0 -10 -16 -10 -35z"/>
<path d="M1342 1000 c20 -27 38 -39 38 -25 0 15 -34 55 -46 55 -11 0 -9 -8 8
-30z"/>
<path d="M3530 1060 c0 -73 4 -120 10 -120 6 0 10 5 10 10 0 7 6 7 19 0 34
-18 68 -12 90 16 57 73 -12 175 -90 134 -17 -10 -19 -7 -19 35 0 25 -4 45 -10
45 -6 0 -10 -47 -10 -120z m120 11 c26 -49 2 -111 -42 -111 -51 0 -77 72 -41
112 22 24 69 24 83 -1z"/>
<path d="M2550 1080 c0 -83 2 -93 25 -115 16 -17 35 -25 60 -25 25 0 44 8 60
25 23 22 25 32 25 115 0 53 -4 90 -10 90 -6 0 -10 -36 -10 -88 0 -100 -12
-122 -68 -122 -48 0 -62 29 -62 127 0 49 -4 83 -10 83 -6 0 -10 -37 -10 -90z"/>
<path d="M2951 1144 c-16 -20 -21 -41 -21 -84 0 -70 25 -110 70 -110 45 0 70
40 70 110 0 43 -5 64 -21 84 -28 35 -70 35 -98 0z m73 -10 c11 -10 16 -34 16
-74 0 -77 -24 -106 -64 -77 -14 10 -18 27 -18 77 0 50 4 67 18 77 23 17 29 16
48 -3z"/>
<path d="M3116 1154 c-9 -8 -16 -19 -16 -24 0 -13 30 -40 45 -40 15 0 45 27
45 40 0 13 -30 40 -45 40 -7 0 -21 -7 -29 -16z m52 -21 c5 -17 -26 -29 -40
-15 -6 6 -7 15 -3 22 9 14 37 9 43 -7z"/>
<path d="M3310 1076 c0 -90 1 -96 26 -115 44 -35 111 -22 133 26 13 29 15 183
2 183 -5 0 -11 -41 -13 -91 -3 -100 -15 -119 -69 -119 -48 0 -59 22 -59 121 0
53 -4 89 -10 89 -6 0 -10 -38 -10 -94z"/>
<path d="M3870 1144 c-44 -32 -43 -31 -35 -44 5 -8 14 -6 31 5 l24 15 0 -85
c0 -69 3 -85 15 -85 12 0 15 19 15 110 0 61 -3 110 -7 109 -5 0 -24 -12 -43
-25z"/>
<path d="M4001 1144 c-25 -31 -26 -44 -7 -44 8 0 17 9 21 19 8 25 41 36 60 21
28 -23 16 -55 -40 -109 -74 -72 -72 -81 16 -81 52 0 70 3 67 13 -3 7 -25 13
-53 15 l-48 3 52 48 c40 37 51 54 51 79 0 60 -81 85 -119 36z"/>
<path d="M4179 1151 c-21 -17 -24 -28 -24 -91 0 -63 3 -74 24 -91 31 -25 65
-24 91 3 16 17 20 35 20 88 0 53 -4 71 -20 88 -26 27 -60 28 -91 3z m60 -11
c38 -20 37 -141 -1 -161 -15 -8 -24 -7 -39 7 -25 22 -27 124 -3 148 18 19 20
19 43 6z"/>
<path d="M4340 1155 c-26 -32 13 -81 48 -59 34 22 22 74 -18 74 -10 0 -23 -7
-30 -15z m50 -25 c0 -21 -33 -29 -45 -10 -9 15 4 30 26 30 12 0 19 -7 19 -20z"/>
<path d="M4530 1080 c0 -83 2 -93 25 -115 16 -17 35 -25 60 -25 25 0 44 8 60
25 23 22 25 32 25 115 0 53 -4 90 -10 90 -6 0 -10 -36 -10 -88 0 -100 -12
-122 -68 -122 -48 0 -62 29 -62 127 0 49 -4 83 -10 83 -6 0 -10 -37 -10 -90z"/>
<path d="M4950 1144 c-44 -32 -43 -31 -35 -44 5 -8 14 -6 31 5 l24 15 0 -85
c0 -69 3 -85 15 -85 12 0 15 19 15 110 0 61 -3 110 -7 109 -5 0 -24 -12 -43
-25z"/>
<path d="M5092 1154 c-12 -8 -22 -24 -22 -35 0 -25 8 -24 32 6 22 29 40 31 62
9 25 -25 20 -38 -44 -102 -33 -33 -60 -64 -60 -71 0 -7 26 -11 76 -11 56 0 75
3 72 13 -3 6 -25 13 -51 15 -26 2 -47 5 -47 7 0 2 20 23 44 47 55 54 63 77 35
111 -24 31 -63 35 -97 11z"/>
<path d="M5261 1151 c-43 -43 -34 -171 14 -193 73 -33 129 61 94 161 -18 52
-72 68 -108 32z m73 -23 c32 -46 11 -158 -29 -158 -28 0 -48 47 -43 100 8 76
41 103 72 58z"/>
<path d="M5420 1155 c-26 -32 13 -81 48 -59 34 22 22 74 -18 74 -10 0 -23 -7
-30 -15z m50 -25 c0 -13 -7 -20 -19 -20 -22 0 -35 15 -26 30 12 19 45 11 45
-10z"/>
<path d="M2780 1095 c-7 -9 -10 -19 -6 -22 4 -4 11 -2 15 6 5 7 21 11 37 9 21
-2 30 -9 32 -25 3 -19 -1 -23 -22 -23 -65 0 -98 -35 -71 -76 17 -26 62 -33 83
-12 9 9 12 9 12 0 0 -7 5 -12 10 -12 6 0 10 32 10 75 0 63 -3 76 -19 85 -28
15 -67 12 -81 -5z m80 -93 c0 -10 -5 -23 -12 -30 -18 -18 -65 -15 -72 4 -10
25 12 44 50 44 26 0 34 -4 34 -18z"/>
<path d="M4770 1092 c-31 -25 -34 -100 -6 -131 30 -33 106 -22 106 14 0 19
-16 19 -24 0 -7 -20 -50 -19 -67 1 -7 9 -13 31 -13 49 0 18 6 40 13 49 17 20
60 21 67 1 8 -19 24 -19 24 0 0 34 -65 45 -100 17z"/>
<path d="M3710 1025 c0 -11 11 -15 40 -15 29 0 40 4 40 15 0 11 -11 15 -40 15
-29 0 -40 -4 -40 -15z"/>
<path d="M3233 935 c3 -46 17 -46 17 0 0 19 -4 35 -9 35 -5 0 -9 -16 -8 -35z"/>
<path d="M4462 934 c0 -25 3 -33 9 -23 11 18 12 59 0 59 -5 0 -9 -16 -9 -36z"/>
<path d="M7230 1060 c0 -106 9 -146 23 -107 4 10 7 10 18 0 20 -19 67 -15 89
7 14 14 20 33 20 65 0 32 -6 51 -20 65 -21 21 -74 27 -85 10 -14 -23 -25 -7
-25 35 0 25 -4 45 -10 45 -6 0 -10 -47 -10 -120z m118 18 c7 -7 12 -30 12 -53
0 -48 -13 -65 -51 -65 -34 0 -53 23 -53 65 0 18 6 40 13 49 16 19 62 21 79 4z"/>
<path d="M6250 1096 c0 -83 14 -132 40 -146 30 -16 76 -11 104 11 25 19 26 25
26 115 0 56 -4 94 -10 94 -6 0 -10 -36 -10 -89 0 -105 -11 -124 -69 -119 -48
4 -61 32 -61 131 0 44 -4 77 -10 77 -6 0 -10 -31 -10 -74z"/>
<path d="M6659 1151 c-21 -17 -24 -28 -24 -91 0 -63 3 -74 24 -91 31 -25 65
-24 91 3 16 17 20 35 20 88 0 53 -4 71 -20 88 -26 27 -60 28 -91 3z m60 -11
c38 -20 37 -141 -1 -161 -15 -8 -24 -7 -39 7 -25 22 -27 124 -3 148 18 19 20
19 43 6z"/>
<path d="M6816 1154 c-9 -8 -16 -19 -16 -24 0 -13 30 -40 45 -40 15 0 45 27
45 40 0 13 -30 40 -45 40 -7 0 -21 -7 -29 -16z m52 -21 c5 -17 -26 -29 -40
-15 -6 6 -7 15 -3 22 9 14 37 9 43 -7z"/>
<path d="M7010 1080 c0 -83 2 -93 25 -115 16 -17 35 -25 60 -25 25 0 44 8 60
25 23 22 25 32 25 115 0 53 -4 90 -10 90 -6 0 -10 -36 -10 -88 0 -100 -12
-122 -68 -122 -48 0 -62 29 -62 127 0 49 -4 83 -10 83 -6 0 -10 -37 -10 -90z"/>
<path d="M7570 1144 c-44 -32 -43 -31 -35 -44 5 -8 14 -6 31 5 l24 15 0 -85
c0 -69 3 -85 15 -85 12 0 15 19 15 110 0 61 -3 110 -7 109 -5 0 -24 -12 -43
-25z"/>
<path d="M7712 1154 c-12 -8 -22 -24 -22 -35 0 -25 8 -24 32 6 22 29 40 31 62
9 25 -25 20 -38 -44 -102 -33 -33 -60 -64 -60 -71 0 -7 26 -11 76 -11 56 0 75
3 72 13 -3 6 -25 13 -51 15 -26 2 -47 5 -47 7 0 2 20 23 44 47 55 54 63 77 35
111 -24 31 -63 35 -97 11z"/>
<path d="M7881 1151 c-43 -43 -34 -171 14 -193 73 -33 129 61 94 161 -18 52
-72 68 -108 32z m73 -23 c32 -46 11 -158 -29 -158 -28 0 -48 47 -43 100 8 76
41 103 72 58z"/>
<path d="M8040 1155 c-26 -32 13 -81 48 -59 34 22 22 74 -18 74 -10 0 -23 -7
-30 -15z m50 -25 c0 -13 -7 -20 -19 -20 -22 0 -35 15 -26 30 12 19 45 11 45
-10z"/>
<path d="M8230 1096 c0 -83 14 -132 40 -146 30 -16 76 -11 104 11 25 19 26 25
26 115 0 56 -4 94 -10 94 -6 0 -10 -36 -10 -89 0 -105 -11 -124 -69 -119 -48
4 -61 32 -61 131 0 44 -4 77 -10 77 -6 0 -10 -31 -10 -74z"/>
<path d="M8653 1141 c-40 -34 -46 -62 -8 -37 l25 16 0 -85 c0 -69 3 -85 15
-85 12 0 15 19 15 110 0 61 -3 110 -7 110 -5 -1 -23 -13 -40 -29z"/>
<path d="M8792 1154 c-12 -8 -22 -24 -22 -35 0 -25 8 -24 32 6 22 29 40 31 62
9 25 -25 20 -38 -44 -102 -33 -33 -60 -64 -60 -71 0 -7 26 -11 76 -11 56 0 75
3 72 13 -3 6 -25 13 -51 15 -26 2 -47 5 -47 7 0 2 20 23 44 47 55 54 63 77 35
111 -24 31 -63 35 -97 11z"/>
<path d="M8961 1151 c-43 -43 -34 -171 14 -193 73 -33 129 61 94 161 -18 52
-72 68 -108 32z m73 -23 c32 -46 11 -158 -29 -158 -28 0 -48 47 -43 100 8 76
41 103 72 58z"/>
<path d="M9120 1155 c-26 -32 13 -81 48 -59 34 22 22 74 -18 74 -10 0 -23 -7
-30 -15z m55 -25 c0 -8 -10 -16 -22 -18 -18 -3 -23 2 -23 18 0 16 5 21 23 18
12 -2 22 -10 22 -18z"/>
<path d="M9310 1096 c0 -83 14 -132 40 -146 30 -16 76 -11 104 11 25 19 26 25
26 115 0 56 -4 94 -10 94 -6 0 -10 -36 -10 -89 0 -105 -11 -124 -69 -119 -48
4 -61 32 -61 131 0 44 -4 77 -10 77 -6 0 -10 -31 -10 -74z"/>
<path d="M9733 1141 c-40 -34 -46 -62 -8 -37 l25 16 0 -85 c0 -69 3 -85 15
-85 12 0 15 19 15 110 0 61 -3 110 -7 110 -5 -1 -23 -13 -40 -29z"/>
<path d="M9876 1154 c-19 -19 -21 -55 -3 -73 10 -10 9 -14 -5 -22 -27 -15 -24
-74 4 -93 48 -34 118 -8 118 44 0 16 -7 36 -16 45 -13 12 -14 19 -5 28 17 17
13 52 -7 70 -23 21 -66 22 -86 1z m68 -20 c12 -12 13 -20 6 -35 -12 -21 -40
-25 -58 -7 -16 16 -15 23 4 42 19 20 29 20 48 0z m-3 -84 c40 -22 13 -89 -31
-75 -31 10 -42 38 -24 63 17 25 27 27 55 12z"/>
<path d="M10041 1151 c-43 -43 -34 -171 14 -193 73 -33 129 61 94 161 -18 52
-72 68 -108 32z m73 -23 c32 -46 11 -158 -29 -158 -28 0 -48 47 -43 100 8 76
41 103 72 58z"/>
<path d="M10200 1155 c-26 -32 13 -81 48 -59 34 22 22 74 -18 74 -10 0 -23 -7
-30 -15z m55 -25 c0 -8 -10 -16 -22 -18 -18 -3 -23 2 -23 18 0 16 5 21 23 18
12 -2 22 -10 22 -18z"/>
<path d="M6480 1095 c-16 -19 -5 -34 12 -17 18 18 56 14 68 -7 15 -29 13 -31
-23 -31 -60 0 -100 -53 -65 -88 16 -16 60 -15 77 1 11 10 14 10 18 0 12 -32
23 -7 23 50 0 78 -17 107 -64 107 -19 0 -39 -7 -46 -15z m90 -89 c0 -22 -29
-46 -56 -46 -26 0 -40 20 -30 45 7 20 86 21 86 1z"/>
<path d="M8471 1091 c-45 -45 -17 -151 40 -151 30 0 59 18 59 37 0 15 -2 15
-18 0 -22 -20 -53 -22 -70 -5 -7 7 -12 30 -12 53 0 23 5 46 12 53 18 18 56 15
67 -5 5 -10 13 -14 17 -10 15 14 -12 42 -44 45 -21 2 -37 -3 -51 -17z"/>
<path d="M9530 1101 c0 -6 21 -11 46 -13 l47 -3 -52 -61 c-28 -34 -51 -67 -51
-73 0 -7 26 -11 70 -11 84 0 94 18 13 22 l-56 3 51 62 c29 34 52 67 52 73 0 6
-25 10 -60 10 -33 0 -60 -4 -60 -9z"/>
<path d="M7410 1025 c0 -11 11 -15 40 -15 29 0 40 4 40 15 0 11 -11 15 -40 15
-29 0 -40 -4 -40 -15z"/>
<path d="M6942 934 c0 -25 3 -33 9 -23 11 18 12 59 0 59 -5 0 -9 -16 -9 -36z"/>
<path d="M8163 936 c1 -19 5 -32 10 -29 10 6 9 63 -2 63 -5 0 -9 -15 -8 -34z"/>
<path d="M9243 936 c1 -19 5 -32 10 -29 10 6 9 63 -2 63 -5 0 -9 -15 -8 -34z"/>
<path d="M900 815 c0 -23 -3 -25 -50 -25 l-50 0 0 -85 0 -85 49 0 50 0 3 -37
3 -38 70 -3 c62 -3 72 0 87 19 18 21 16 39 -3 39 -5 0 -9 -7 -9 -15 0 -19 -31
-35 -69 -35 -47 0 -61 9 -61 41 0 28 1 29 55 29 l55 0 0 85 0 85 -56 0 c-55 0
-56 1 -52 25 4 17 1 25 -8 25 -8 0 -14 -11 -14 -25z m0 -70 c0 -22 -4 -25 -40
-25 -36 0 -40 3 -40 25 0 23 4 25 40 25 36 0 40 -2 40 -25z m110 0 c0 -23 -4
-25 -45 -25 -41 0 -45 2 -45 25 0 23 4 25 45 25 41 0 45 -2 45 -25z m-110 -75
c0 -28 -2 -30 -40 -30 -38 0 -40 2 -40 30 0 28 2 30 40 30 38 0 40 -2 40 -30z
m110 0 c0 -29 -2 -30 -45 -30 -43 0 -45 1 -45 30 0 29 2 30 45 30 43 0 45 -1
45 -30z"/>
<path d="M1270 831 c0 -5 7 -11 15 -15 31 -11 14 -26 -31 -26 -25 0 -43 -4
-40 -9 3 -4 17 -6 31 -3 34 6 32 -12 -5 -49 -37 -37 -24 -44 62 -35 40 4 66 2
75 -5 29 -25 25 3 -5 33 -31 31 -57 34 -32 3 11 -13 7 -15 -34 -15 -25 0 -46
3 -46 8 0 4 12 20 25 35 22 24 32 28 70 26 24 -2 47 0 51 4 4 4 -14 7 -41 7
-27 0 -45 3 -42 7 9 9 -22 43 -40 43 -7 0 -13 -4 -13 -9z"/>
<path d="M1140 814 c0 -11 45 -42 53 -37 11 7 -22 43 -40 43 -7 0 -13 -3 -13
-6z"/>
<path d="M1120 731 c0 -14 48 -42 55 -32 3 5 -5 17 -17 25 -25 18 -38 20 -38
7z"/>
<path d="M1230 631 c0 -23 -8 -48 -20 -64 -11 -14 -16 -28 -11 -31 15 -10 51
44 51 75 0 15 3 34 6 43 4 11 1 16 -10 16 -12 0 -16 -10 -16 -39z"/>
<path d="M1290 605 c0 -37 4 -65 10 -65 6 0 10 28 10 65 0 37 -4 65 -10 65 -6
0 -10 -28 -10 -65z"/>
<path d="M1342 608 c3 -62 3 -63 34 -66 31 -3 55 20 34 33 -6 4 -10 1 -10 -4
0 -6 -9 -11 -21 -11 -19 0 -21 5 -17 55 2 40 0 55 -10 55 -10 0 -12 -16 -10
-62z"/>
<path d="M1171 636 c-6 -16 -20 -41 -31 -56 -18 -25 -18 -40 0 -40 11 0 53 97
47 111 -3 9 -9 3 -16 -15z"/>
<path d="M3800 680 c0 -73 4 -120 10 -120 6 0 10 5 10 10 0 7 6 7 19 0 34 -18
68 -12 90 16 57 73 -12 175 -90 134 -17 -10 -19 -7 -19 35 0 25 -4 45 -10 45
-6 0 -10 -47 -10 -120z m120 11 c26 -49 2 -111 -42 -111 -51 0 -77 72 -41 112
22 24 69 24 83 -1z"/>
<path d="M2760 675 c0 -70 4 -115 10 -115 6 0 10 45 10 115 0 70 -4 115 -10
115 -6 0 -10 -45 -10 -115z"/>
<path d="M3053 761 c-40 -34 -46 -62 -8 -37 l25 16 0 -85 c0 -69 3 -85 15 -85
12 0 15 19 15 110 0 61 -3 110 -7 110 -5 -1 -23 -13 -40 -29z"/>
<path d="M3196 774 c-19 -19 -21 -55 -3 -73 10 -10 9 -14 -5 -22 -27 -15 -24
-74 4 -93 48 -34 118 -8 118 44 0 16 -7 36 -16 45 -13 12 -14 19 -5 28 17 17
13 52 -7 70 -23 21 -66 22 -86 1z m68 -20 c12 -12 13 -20 6 -35 -12 -21 -40
-25 -58 -7 -16 16 -15 23 4 42 19 20 29 20 48 0z m-3 -84 c40 -22 13 -89 -31
-75 -31 10 -42 38 -24 63 17 25 27 27 55 12z"/>
<path d="M3361 771 c-43 -43 -34 -171 14 -193 73 -33 129 61 94 161 -18 52
-72 68 -108 32z m73 -23 c32 -46 11 -158 -29 -158 -28 0 -48 47 -43 100 8 76
41 103 72 58z"/>
<path d="M3520 775 c-26 -32 13 -81 48 -59 34 22 22 74 -18 74 -10 0 -23 -7
-30 -15z m55 -25 c0 -8 -10 -16 -22 -18 -18 -3 -23 2 -23 18 0 16 5 21 23 18
12 -2 22 -10 22 -18z"/>
<path d="M3720 675 c0 -70 4 -115 10 -115 6 0 10 45 10 115 0 70 -4 115 -10
115 -6 0 -10 -45 -10 -115z"/>
<path d="M4005 765 c-21 -21 -25 -33 -25 -89 0 -58 3 -67 26 -85 34 -26 68
-27 94 -1 56 56 -10 147 -81 110 -22 -12 -22 -12 -8 28 14 41 47 52 70 23 18
-22 39 -28 39 -11 0 19 -40 50 -65 50 -14 0 -37 -11 -50 -25z m73 -87 c17 -17
15 -63 -3 -78 -26 -21 -65 3 -65 39 0 42 42 65 68 39z"/>
<path d="M4171 764 c-16 -20 -21 -41 -21 -84 0 -70 25 -110 70 -110 45 0 70
40 70 110 0 43 -5 64 -21 84 -28 35 -70 35 -98 0z m73 -10 c11 -10 16 -34 16
-74 0 -77 -24 -106 -64 -77 -14 10 -18 27 -18 77 0 50 4 67 18 77 23 17 29 16
48 -3z"/>
<path d="M4336 774 c-9 -8 -16 -19 -16 -24 0 -13 30 -40 45 -40 15 0 45 27 45
40 0 13 -30 40 -45 40 -7 0 -21 -7 -29 -16z m52 -21 c5 -17 -26 -29 -40 -15
-6 6 -7 15 -3 22 9 14 37 9 43 -7z"/>
<path d="M4530 675 c0 -70 4 -115 10 -115 6 0 10 45 10 115 0 70 -4 115 -10
115 -6 0 -10 -45 -10 -115z"/>
<path d="M4882 767 c-42 -45 -37 -163 8 -187 33 -18 68 -11 89 16 27 35 27 65
-2 92 -26 24 -48 27 -78 12 -16 -9 -19 -7 -19 10 0 21 33 60 50 60 6 0 18 -9
27 -20 20 -23 33 -26 33 -7 0 21 -34 47 -62 47 -13 0 -34 -10 -46 -23z m69
-87 c23 -13 25 -53 3 -74 -20 -21 -30 -20 -54 4 -24 24 -24 29 -4 58 17 25 27
27 55 12z"/>
<path d="M5051 771 c-43 -43 -34 -171 14 -193 73 -33 129 61 94 161 -18 52
-72 68 -108 32z m73 -23 c32 -46 11 -158 -29 -158 -28 0 -48 47 -43 100 8 76
41 103 72 58z"/>
<path d="M5210 775 c-26 -32 13 -81 48 -59 34 22 22 74 -18 74 -10 0 -23 -7
-30 -15z m50 -25 c0 -13 -7 -20 -19 -20 -22 0 -35 15 -26 30 12 19 45 11 45
-10z"/>
<path d="M2850 715 c-7 -9 -10 -19 -6 -22 4 -4 11 -2 15 6 5 7 21 11 37 9 21
-2 30 -9 32 -25 3 -19 -1 -23 -22 -23 -65 0 -98 -35 -71 -76 17 -26 62 -33 83
-12 9 9 12 9 12 0 0 -7 5 -12 10 -12 6 0 10 32 10 75 0 63 -3 76 -19 85 -28
15 -67 12 -81 -5z m80 -93 c0 -10 -5 -23 -12 -30 -18 -18 -65 -15 -72 4 -10
25 12 44 50 44 26 0 34 -4 34 -18z"/>
<path d="M4621 704 c-31 -40 -24 -112 13 -136 21 -14 63 -8 81 12 23 25 12 39
-13 17 -40 -36 -82 -11 -82 48 0 59 42 84 82 48 25 -22 36 -8 13 17 -26 29
-69 26 -94 -6z"/>
<path d="M4750 645 c0 -11 11 -15 40 -15 29 0 40 4 40 15 0 11 -11 15 -40 15
-29 0 -40 -4 -40 -15z"/>
<path d="M3643 556 c1 -19 5 -32 10 -29 10 6 9 63 -2 63 -5 0 -9 -15 -8 -34z"/>
<path d="M4453 555 c3 -46 17 -46 17 0 0 19 -4 35 -9 35 -5 0 -9 -16 -8 -35z"/>
<path d="M7740 680 c0 -106 9 -146 23 -107 4 10 7 10 18 0 20 -19 67 -15 89 7
14 14 20 33 20 65 0 32 -6 51 -20 65 -21 21 -74 27 -85 10 -14 -23 -25 -7 -25
35 0 25 -4 45 -10 45 -6 0 -10 -47 -10 -120z m118 18 c7 -7 12 -30 12 -53 0
-48 -13 -65 -51 -65 -34 0 -53 23 -53 65 0 18 6 40 13 49 16 19 62 21 79 4z"/>
<path d="M6700 675 c0 -70 4 -115 10 -115 6 0 10 45 10 115 0 70 -4 115 -10
115 -6 0 -10 -45 -10 -115z"/>
<path d="M6993 761 c-37 -31 -46 -59 -14 -41 37 19 41 12 41 -70 0 -47 4 -80
10 -80 6 0 10 43 10 110 0 61 -3 110 -7 110 -5 -1 -23 -13 -40 -29z"/>
<path d="M7137 772 c-20 -22 -22 -53 -5 -70 9 -9 8 -16 -5 -30 -59 -65 46
-140 109 -77 26 26 26 59 -1 80 -11 9 -10 14 1 30 19 26 18 41 -6 65 -25 25
-72 26 -93 2z m74 -18 c17 -21 0 -49 -32 -49 -18 0 -25 6 -27 24 -6 38 34 55
59 25z m3 -93 c34 -38 -8 -86 -54 -61 -25 13 -27 55 -2 69 25 15 37 13 56 -8z"/>
<path d="M7309 771 c-21 -17 -24 -28 -24 -91 0 -63 3 -74 24 -91 31 -25 65
-24 91 3 16 17 20 35 20 88 0 53 -4 71 -20 88 -26 27 -60 28 -91 3z m60 -11
c38 -20 37 -141 -1 -161 -15 -8 -24 -7 -39 7 -25 22 -27 124 -3 148 18 19 20
19 43 6z"/>
<path d="M7466 774 c-9 -8 -16 -19 -16 -24 0 -13 30 -40 45 -40 15 0 45 27 45
40 0 13 -30 40 -45 40 -7 0 -21 -7 -29 -16z m52 -21 c5 -17 -26 -29 -40 -15
-6 6 -7 15 -3 22 9 14 37 9 43 -7z"/>
<path d="M7660 675 c0 -70 4 -115 10 -115 6 0 10 45 10 115 0 70 -4 115 -10
115 -6 0 -10 -45 -10 -115z"/>
<path d="M7952 767 c-42 -45 -37 -163 8 -187 33 -18 68 -11 89 16 27 35 27 65
-2 92 -26 24 -48 27 -78 12 -16 -9 -19 -7 -19 10 0 21 33 60 50 60 6 0 18 -9
27 -20 20 -23 33 -26 33 -7 0 21 -34 47 -62 47 -13 0 -34 -10 -46 -23z m69
-87 c23 -13 25 -53 3 -74 -20 -21 -30 -20 -54 4 -24 24 -24 29 -4 58 17 25 27
27 55 12z"/>
<path d="M8121 771 c-43 -43 -34 -171 14 -193 73 -33 129 61 94 161 -18 52
-72 68 -108 32z m73 -23 c32 -46 11 -158 -29 -158 -28 0 -48 47 -43 100 8 76
41 103 72 58z"/>
<path d="M8280 775 c-26 -32 13 -81 48 -59 34 22 22 74 -18 74 -10 0 -23 -7
-30 -15z m50 -25 c0 -13 -7 -20 -19 -20 -22 0 -35 15 -26 30 12 19 45 11 45
-10z"/>
<path d="M8470 675 c0 -70 4 -115 10 -115 6 0 10 45 10 115 0 70 -4 115 -10
115 -6 0 -10 -45 -10 -115z"/>
<path d="M8825 765 c-21 -21 -25 -33 -25 -89 0 -58 3 -67 26 -85 34 -26 68
-27 94 -1 56 56 -10 147 -81 110 -22 -12 -22 -12 -8 28 14 41 47 52 70 23 18
-22 39 -28 39 -11 0 19 -40 50 -65 50 -14 0 -37 -11 -50 -25z m73 -87 c17 -17
15 -63 -3 -78 -26 -21 -65 3 -65 39 0 42 42 65 68 39z"/>
<path d="M8991 764 c-16 -20 -21 -41 -21 -84 0 -70 25 -110 70 -110 45 0 70
40 70 110 0 43 -5 64 -21 84 -28 35 -70 35 -98 0z m73 -10 c11 -10 16 -34 16
-74 0 -77 -24 -106 -64 -77 -14 10 -18 27 -18 77 0 50 4 67 18 77 23 17 29 16
48 -3z"/>
<path d="M9156 774 c-9 -8 -16 -19 -16 -24 0 -13 30 -40 45 -40 15 0 45 27 45
40 0 13 -30 40 -45 40 -7 0 -21 -7 -29 -16z m52 -21 c5 -17 -26 -29 -40 -15
-6 6 -7 15 -3 22 9 14 37 9 43 -7z"/>
<path d="M9350 675 c0 -70 4 -115 10 -115 6 0 10 45 10 115 0 70 -4 115 -10
115 -6 0 -10 -45 -10 -115z"/>
<path d="M9591 764 c-16 -20 -21 -41 -21 -84 0 -70 25 -110 70 -110 45 0 70
40 70 110 0 43 -5 64 -21 84 -28 35 -70 35 -98 0z m73 -10 c11 -10 16 -34 16
-74 0 -77 -24 -106 -64 -77 -14 10 -18 27 -18 77 0 50 4 67 18 77 23 17 29 16
48 -3z"/>
<path d="M9750 775 c-26 -32 13 -81 48 -59 34 22 22 74 -18 74 -10 0 -23 -7
-30 -15z m55 -25 c0 -8 -10 -16 -22 -18 -18 -3 -23 2 -23 18 0 16 5 21 23 18
12 -2 22 -10 22 -18z"/>
<path d="M6794 716 c-10 -8 -16 -18 -11 -22 4 -4 13 -2 19 4 17 17 65 15 72
-4 11 -28 6 -34 -28 -34 -48 0 -81 -29 -72 -63 8 -32 46 -45 82 -28 15 6 24 7
24 1 0 -6 5 -10 10 -10 17 0 12 136 -6 154 -19 20 -64 21 -90 2z m86 -94 c0
-10 -5 -23 -12 -30 -17 -17 -67 -15 -74 3 -10 24 15 45 52 45 26 0 34 -4 34
-18z"/>
<path d="M8571 711 c-45 -45 -17 -151 40 -151 30 0 59 18 59 37 0 15 -2 15
-18 0 -22 -20 -53 -22 -70 -5 -7 7 -12 30 -12 53 0 23 5 46 12 53 18 18 56 15
67 -5 5 -10 13 -14 17 -10 15 14 -12 42 -44 45 -21 2 -37 -3 -51 -17z"/>
<path d="M9410 723 c0 -3 12 -22 26 -40 l26 -35 -32 -44 c-23 -33 -27 -44 -16
-44 9 0 16 3 16 8 1 4 11 20 24 35 l23 28 24 -35 c13 -20 30 -36 37 -36 8 0 2
17 -17 43 l-30 44 25 37 c33 48 22 60 -15 16 l-28 -34 -23 32 c-22 30 -40 41
-40 25z"/>
<path d="M8690 645 c0 -11 11 -15 40 -15 29 0 40 4 40 15 0 11 -11 15 -40 15
-29 0 -40 -4 -40 -15z"/>
<path d="M7592 554 c0 -25 3 -33 9 -23 11 18 12 59 0 59 -5 0 -9 -16 -9 -36z"/>
<path d="M8403 556 c1 -19 5 -32 10 -29 10 6 9 63 -2 63 -5 0 -9 -15 -8 -34z"/>
<path d="M9273 555 c3 -46 17 -46 17 0 0 19 -4 35 -9 35 -5 0 -9 -16 -8 -35z"/>
<path d="M469 398 c-13 -29 -25 -56 -27 -60 -2 -4 11 -8 28 -10 l32 -3 -26
-37 c-14 -21 -22 -39 -18 -41 16 -9 92 6 92 17 0 8 -11 11 -31 8 l-31 -5 28
49 c15 27 31 54 36 60 5 7 3 14 -6 17 -8 3 -18 -4 -25 -19 -6 -14 -19 -24 -31
-24 -25 0 -25 2 4 49 23 35 24 51 6 51 -3 0 -17 -24 -31 -52z"/>
<path d="M640 420 c0 -28 -3 -30 -35 -30 -19 0 -35 -4 -35 -10 0 -5 16 -10 35
-10 31 0 35 -3 35 -25 0 -22 -4 -25 -35 -25 -19 0 -35 -4 -35 -10 0 -6 32 -10
75 -10 43 0 75 4 75 10 0 6 -13 10 -30 10 -25 0 -30 4 -30 25 0 23 4 25 40 25
22 0 40 5 40 10 0 6 -19 10 -41 10 -40 0 -41 1 -37 30 3 20 0 30 -9 30 -8 0
-13 -12 -13 -30z"/>
<path d="M920 430 c0 -18 -7 -20 -65 -20 -37 0 -65 -4 -65 -10 0 -6 28 -10 65
-10 51 0 65 -3 65 -15 0 -11 -12 -15 -45 -15 l-45 0 0 -45 0 -45 38 0 37 -1
-35 -32 c-19 -17 -46 -39 -60 -48 -14 -9 -22 -20 -18 -24 9 -10 83 40 109 73
l19 25 0 -62 c0 -34 4 -61 10 -61 6 0 10 27 10 61 l0 61 51 -46 c50 -45 72
-55 83 -37 3 5 -7 14 -23 21 -16 6 -41 25 -57 41 l-28 29 37 0 37 0 0 45 0 45
-50 0 c-38 0 -50 4 -50 15 0 12 15 15 71 15 44 0 68 4 64 10 -3 6 -36 10 -72
10 -60 0 -65 2 -60 20 3 13 0 20 -9 20 -8 0 -14 -9 -14 -20z m0 -115 c0 -22
-4 -25 -35 -25 -31 0 -35 3 -35 25 0 22 4 25 35 25 31 0 35 -3 35 -25z m100 0
c0 -22 -4 -25 -40 -25 -36 0 -40 3 -40 25 0 23 4 25 40 25 36 0 40 -2 40 -25z"/>
<path d="M1192 409 c-13 -22 -30 -43 -38 -46 -18 -7 -18 -23 0 -23 8 0 24 14
36 30 19 27 27 30 77 30 l56 0 -23 -25 c-28 -29 -37 -31 -62 -8 -10 9 -21 13
-26 9 -4 -4 4 -16 17 -27 l23 -19 -33 -14 c-19 -7 -49 -17 -67 -21 -18 -3 -29
-11 -26 -16 7 -13 58 -2 103 20 32 17 35 17 103 -7 59 -21 71 -23 79 -11 6 11
-1 15 -35 20 -24 4 -53 12 -65 19 -22 11 -22 12 16 53 l38 42 -68 5 c-37 3
-67 9 -66 15 2 24 -18 11 -39 -26z"/>
<path d="M1524 424 c-4 -14 -22 -48 -40 -75 -24 -34 -30 -49 -20 -49 8 0 20 8
25 18 8 12 10 -9 11 -80 0 -59 4 -98 10 -98 6 0 10 44 10 113 0 90 4 120 19
149 15 30 16 38 5 42 -9 3 -16 -4 -20 -20z"/>
<path d="M1645 413 c0 -32 -4 -39 -23 -41 -21 -3 -23 -1 -17 18 5 16 3 21 -5
18 -11 -3 -39 -76 -40 -100 0 -19 20 -5 26 17 5 19 13 25 35 25 26 0 29 -3 29
-35 l0 -35 -50 0 c-27 0 -50 -4 -50 -10 0 -5 23 -10 50 -10 l50 0 0 -60 c0
-33 4 -60 10 -60 6 0 10 27 10 60 l0 60 45 0 c25 0 45 5 45 10 0 6 -20 10 -45
10 -45 0 -45 0 -45 35 0 32 2 35 29 35 17 0 33 5 36 10 4 6 -8 10 -29 10 -35
0 -36 1 -36 40 0 25 -5 40 -12 40 -8 0 -13 -14 -13 -37z"/>
<path d="M1257 280 c5 -18 0 -20 -46 -20 -28 0 -51 -4 -51 -10 0 -5 23 -10 50
-10 l50 0 0 -36 c0 -27 -5 -37 -20 -41 -30 -8 -24 -25 8 -21 25 3 27 7 30 51
l3 47 45 0 c24 0 44 5 44 10 0 6 -20 10 -45 10 -38 0 -45 3 -45 20 0 11 -6 20
-14 20 -9 0 -12 -7 -9 -20z"/>
<path d="M580 203 c0 -35 4 -63 10 -63 6 0 10 7 10 15 0 23 86 21 99 -2 9 -16
10 -16 16 -2 3 9 5 38 3 64 l-3 47 -68 2 -67 1 0 -62z m120 12 l0 -35 -50 0
-50 0 0 35 0 35 50 0 50 0 0 -35z"/>
<path d="M1190 221 c0 -6 -13 -18 -30 -28 -30 -17 -39 -33 -19 -33 17 0 79 52
73 61 -7 12 -24 12 -24 0z"/>
<path d="M1306 222 c-8 -13 64 -66 75 -55 6 6 -5 19 -30 36 -22 15 -42 23 -45
19z"/>
<path d="M488 193 c-27 -8 -48 -18 -48 -24 0 -12 9 -12 63 7 26 9 47 20 47 25
0 11 -3 11 -62 -8z"/>
<path d="M2826 410 l7 -40 -57 0 c-71 0 -74 -18 -3 -22 l52 -3 3 -65 c4 -83
-3 -110 -28 -110 -11 0 -20 -4 -20 -9 0 -15 13 -19 35 -11 18 6 21 19 25 101
5 88 6 94 28 97 31 5 28 22 -4 22 -25 0 -26 2 -21 40 4 30 2 40 -9 40 -11 0
-13 -9 -8 -40z"/>
<path d="M2970 442 c0 -14 46 -53 53 -45 4 3 -3 17 -15 30 -22 23 -38 30 -38
15z"/>
<path d="M4340 444 c0 -4 8 -13 18 -20 15 -12 8 -13 -50 -14 l-68 0 0 -35 c0
-19 5 -35 10 -35 6 0 10 11 10 25 l0 26 113 -3 c109 -3 112 -4 110 -25 -2 -14
3 -23 11 -23 9 0 13 10 11 33 -2 31 -4 32 -53 35 -34 2 -55 9 -67 22 -17 19
-45 27 -45 14z"/>
<path d="M4610 433 c0 -10 -13 -42 -29 -70 -29 -52 -25 -85 5 -47 13 17 14 8
12 -79 -2 -70 0 -97 9 -97 8 0 13 39 16 132 2 73 6 142 8 152 2 10 -2 21 -8
23 -8 3 -13 -3 -13 -14z"/>
<path d="M4730 430 c0 -17 -7 -20 -45 -20 -25 0 -45 -4 -45 -10 0 -5 20 -10
45 -10 33 0 45 -4 45 -15 0 -10 -10 -15 -30 -15 l-30 0 0 -90 c0 -83 -1 -90
-20 -90 -11 0 -20 -4 -20 -10 0 -6 45 -10 115 -10 70 0 115 4 115 10 0 6 -9
10 -20 10 -19 0 -20 7 -20 90 l0 90 -35 0 c-24 0 -35 5 -35 15 0 11 12 15 50
15 28 0 50 5 50 10 0 6 -23 10 -51 10 -46 0 -50 2 -44 20 5 14 2 20 -9 20 -9
0 -16 -9 -16 -20z m68 -97 c3 -9 -12 -13 -52 -13 -44 0 -56 3 -56 16 0 12 10
14 52 12 30 -2 53 -8 56 -15z m2 -48 c0 -12 -13 -15 -55 -15 -42 0 -55 3 -55
15 0 12 13 15 55 15 42 0 55 -3 55 -15z m0 -50 c0 -12 -13 -15 -55 -15 -42 0
-55 3 -55 15 0 12 13 15 55 15 42 0 55 -3 55 -15z m0 -45 c0 -5 -25 -10 -55
-10 -30 0 -55 5 -55 10 0 6 25 10 55 10 30 0 55 -4 55 -10z"/>
<path d="M3730 400 l0 -40 -65 0 c-37 0 -65 -4 -65 -10 0 -6 26 -10 59 -10 33
0 62 -4 65 -8 15 -25 -54 -118 -112 -151 -12 -7 -14 -13 -6 -21 15 -15 93 45
120 94 21 37 22 37 28 13 7 -28 88 -107 110 -107 32 0 23 19 -22 47 -30 18
-55 44 -65 65 -29 62 -25 68 48 68 86 0 84 18 -2 22 l-68 3 0 38 c0 23 -5 37
-12 37 -8 0 -13 -15 -13 -40z"/>
<path d="M3060 420 c0 -6 28 -10 65 -10 l65 0 0 -125 c0 -122 -1 -125 -22
-125 -16 0 -19 -3 -11 -11 6 -6 20 -8 32 -4 20 6 21 13 21 146 l0 139 -75 0
c-43 0 -75 -4 -75 -10z"/>
<path d="M2610 295 c0 -77 4 -125 10 -125 6 0 10 7 10 15 0 21 50 19 66 -2 11
-15 13 1 14 110 l0 127 -50 0 -50 0 0 -125z m80 65 c0 -38 -2 -40 -30 -40 -28
0 -30 2 -30 40 0 38 2 40 30 40 28 0 30 -2 30 -40z m0 -105 c0 -43 -1 -45 -30
-45 -29 0 -30 2 -30 45 0 43 1 45 30 45 29 0 30 -2 30 -45z"/>
<path d="M3920 410 c0 -6 27 -10 60 -10 l60 0 0 -40 0 -40 -70 0 c-40 0 -70
-4 -70 -10 0 -6 30 -10 70 -10 l71 0 -3 -57 c-3 -57 -3 -58 -35 -61 -49 -5
-40 -24 10 -20 l42 3 5 65 5 65 63 3 c82 4 80 22 -3 22 l-65 0 0 40 0 40 55 0
c30 0 55 5 55 10 0 6 -48 10 -125 10 -77 0 -125 -4 -125 -10z"/>
<path d="M4919 391 c-21 -17 -24 -28 -24 -91 0 -63 3 -74 24 -91 31 -25 65
-24 91 3 16 17 20 35 20 88 0 53 -4 71 -20 88 -26 27 -60 28 -91 3z m60 -11
c38 -20 37 -141 -1 -161 -15 -8 -24 -7 -39 7 -25 22 -27 124 -3 148 18 19 20
19 43 6z"/>
<path d="M5172 394 c-12 -8 -22 -22 -22 -30 0 -20 13 -18 33 6 20 24 40 26 57
5 16 -19 6 -45 -20 -52 -28 -7 -25 -17 10 -30 34 -13 40 -42 14 -67 -21 -21
-41 -20 -61 4 -20 24 -33 26 -33 6 0 -20 39 -46 68 -46 28 0 72 42 72 69 0 11
-7 27 -15 35 -12 12 -13 20 -5 35 14 28 13 38 -10 61 -24 24 -57 26 -88 4z"/>
<path d="M2960 388 c-7 -34 -2 -248 5 -248 6 0 10 48 10 125 0 69 -3 125 -7
125 -5 0 -8 -1 -8 -2z"/>
<path d="M3310 360 c0 -5 4 -10 9 -10 6 0 13 5 16 10 3 6 -1 10 -9 10 -9 0
-16 -4 -16 -10z"/>
<path d="M3020 280 l0 -70 60 0 60 0 0 70 0 70 -60 0 -60 0 0 -70z m100 35 c0
-22 -4 -25 -40 -25 -36 0 -40 3 -40 25 0 23 4 25 40 25 36 0 40 -2 40 -25z m0
-70 c0 -22 -4 -25 -40 -25 -36 0 -40 3 -40 25 0 23 4 25 40 25 36 0 40 -2 40
-25z"/>
<path d="M5326 328 c-21 -30 -5 -55 44 -68 46 -12 55 -23 35 -40 -16 -13 -65
-6 -65 10 0 6 -7 10 -15 10 -20 0 -19 -13 3 -33 37 -34 112 -15 112 28 0 27
-10 36 -59 50 -41 12 -50 31 -21 40 14 4 28 1 39 -9 22 -20 31 -20 31 -1 0 36
-80 47 -104 13z"/>
<path d="M4313 323 l47 -4 0 -70 c0 -64 -1 -69 -18 -60 -31 17 -45 39 -38 65
3 14 2 28 -4 31 -10 6 -14 -1 -24 -46 -3 -14 -17 -38 -31 -53 -14 -15 -22 -32
-18 -38 4 -7 17 1 34 21 l27 33 30 -22 c24 -18 44 -22 112 -23 57 -1 84 2 87
10 3 8 -6 10 -31 6 -19 -3 -51 -2 -70 1 -33 6 -36 10 -36 41 l0 35 56 0 c34 0
53 4 49 10 -3 6 -28 10 -56 10 -45 0 -49 2 -49 24 0 22 5 25 48 29 26 2 0 3
-58 3 -58 0 -84 -1 -57 -3z"/>
<path d="M2747 314 c-8 -9 21 -64 33 -64 13 0 13 6 -5 40 -17 32 -18 33 -28
24z"/>
<path d="M3310 205 c0 -9 5 -15 11 -13 6 2 11 8 11 13 0 5 -5 11 -11 13 -6 2
-11 -4 -11 -13z"/>
<path d="M5080 205 c0 -8 7 -15 15 -15 8 0 15 7 15 15 0 8 -7 15 -15 15 -8 0
-15 -7 -15 -15z"/>
<path d="M7720 410 l0 -40 -49 0 c-28 0 -53 -4 -56 -10 -4 -6 15 -10 50 -10
l56 0 -3 -87 c-3 -82 -5 -88 -25 -91 -13 -2 -20 -8 -17 -17 6 -14 44 -8 56 9
4 6 8 50 8 99 0 86 0 87 25 87 14 0 25 5 25 10 0 6 -11 10 -25 10 -22 0 -25 4
-25 40 0 22 -4 40 -10 40 -5 0 -10 -18 -10 -40z"/>
<path d="M7860 442 c0 -14 46 -53 53 -45 4 3 -3 17 -15 30 -22 23 -38 30 -38
15z"/>
<path d="M7960 420 c0 -6 28 -10 65 -10 l65 0 0 -121 c0 -112 -1 -121 -20
-126 -11 -3 -20 -9 -20 -14 0 -14 40 -11 45 4 2 6 5 72 7 145 l3 132 -72 0
c-42 0 -73 -4 -73 -10z"/>
<path d="M7500 295 c0 -113 8 -151 24 -110 7 20 52 19 60 -1 13 -33 17 -4 19
115 l2 121 -52 0 -53 0 0 -125z m88 68 c-3 -35 -6 -38 -35 -41 -32 -3 -33 -2
-33 37 0 40 1 41 36 41 35 0 35 -1 32 -37z m0 -105 c-3 -40 -5 -43 -33 -43
-28 0 -30 3 -33 43 l-3 42 36 0 36 0 -3 -42z"/>
<path d="M8525 390 c-25 -28 -32 -124 -12 -171 28 -68 103 -58 127 17 15 44 8
115 -14 149 -21 32 -74 35 -101 5z m83 -12 c32 -41 20 -171 -18 -183 -56 -18
-90 75 -59 164 9 25 17 31 39 31 15 0 32 -6 38 -12z"/>
<path d="M8776 394 c-17 -17 -22 -44 -7 -44 5 0 11 9 14 20 6 23 55 28 75 8
23 -23 12 -49 -48 -113 -33 -35 -60 -69 -60 -75 0 -6 29 -10 70 -10 84 0 94
18 13 22 l-58 3 43 40 c71 65 89 116 54 148 -23 21 -76 22 -96 1z"/>
<path d="M7850 265 c0 -77 4 -125 10 -125 6 0 10 48 10 125 0 77 -4 125 -10
125 -6 0 -10 -48 -10 -125z"/>
<path d="M8206 373 c-11 -11 -6 -23 9 -23 8 0 15 4 15 9 0 13 -16 22 -24 14z"/>
<path d="M7920 280 l0 -70 60 0 60 0 0 70 0 70 -60 0 -60 0 0 -70z m100 35 c0
-22 -4 -25 -40 -25 -36 0 -40 3 -40 25 0 23 4 25 40 25 36 0 40 -2 40 -25z
m-2 -67 c-2 -19 -10 -24 -40 -26 -35 -3 -38 -1 -38 22 0 24 4 26 41 26 36 0
40 -2 37 -22z"/>
<path d="M8935 326 c-21 -31 -11 -51 35 -70 46 -18 56 -32 40 -51 -17 -20 -57
-19 -69 2 -11 20 -26 11 -18 -11 9 -23 64 -30 92 -12 44 29 24 76 -37 91 -37
9 -41 55 -5 55 13 0 28 -5 35 -12 6 -6 15 -8 19 -4 11 11 -26 36 -54 36 -13 0
-29 -10 -38 -24z"/>
<path d="M7638 315 c-7 -8 23 -65 35 -65 13 0 7 24 -11 48 -10 13 -21 20 -24
17z"/>
<path d="M8206 213 c-11 -11 -6 -23 9 -23 8 0 15 4 15 9 0 13 -16 22 -24 14z"/>
<path d="M8690 195 c0 -8 5 -15 10 -15 6 0 10 7 10 15 0 8 -4 15 -10 15 -5 0
-10 -7 -10 -15z"/>
</g>
</svg>
