<?xml version="1.0" standalone="no"?>
<!DOCTYPE svg PUBLIC "-//W3C//DTD SVG 20010904//EN"
 "http://www.w3.org/TR/2001/REC-SVG-20010904/DTD/svg10.dtd">
<svg version="1.0" xmlns="http://www.w3.org/2000/svg"
 width="1150.000000pt" height="292.000000pt" viewBox="0 0 1150.000000 292.000000"
 preserveAspectRatio="xMidYMid meet">

<g transform="translate(0.000000,292.000000) scale(0.100000,-0.100000)"
fill="#000000" stroke="none">
<path d="M91 1435 l-2 -1355 5666 0 5665 0 0 1355 0 1355 -5663 0 -5664 0 -2
-1355z m5199 1303 c0 -13 3 -33 6 -44 4 -17 0 -23 -21 -28 -14 -4 -23 -11 -20
-15 3 -5 14 -7 25 -4 16 4 20 0 20 -21 0 -16 -6 -26 -14 -26 -8 0 -21 -3 -30
-6 -13 -5 -16 1 -16 30 0 34 -2 36 -31 36 -26 0 -30 3 -27 23 2 17 11 23 36
25 58 6 34 22 -33 22 -37 0 -65 -4 -65 -10 0 -5 10 -10 21 -10 19 0 21 -4 16
-37 -4 -21 -16 -50 -27 -65 -11 -16 -16 -29 -10 -33 9 -5 50 50 50 68 0 4 11
7 25 7 22 0 25 -4 25 -33 0 -43 -9 -51 -32 -30 -28 25 -35 6 -8 -22 l23 -25
-23 -25 c-13 -13 -31 -27 -42 -31 -21 -6 -24 -24 -4 -24 24 0 74 49 87 84 10
28 17 33 47 34 69 3 72 -50 6 -80 -32 -14 -43 -23 -36 -30 7 -7 24 -3 54 14
l43 25 23 -28 c29 -36 50 -37 63 -2 7 20 7 28 -3 34 -9 6 -14 2 -16 -11 -4
-26 -17 -25 -36 2 -15 20 -14 24 6 45 25 27 17 44 -10 20 -19 -18 -32 -14 -32
10 0 7 20 18 45 24 25 6 45 16 45 21 0 6 -11 7 -25 4 -14 -3 -36 -9 -50 -12
-22 -5 -25 -3 -25 19 0 22 6 26 40 32 22 4 40 11 40 16 0 5 -17 6 -40 3 -36
-6 -40 -4 -46 20 -14 57 -18 56 271 56 l265 0 0 -40 c0 -36 -2 -40 -25 -40
-14 0 -25 -4 -25 -10 0 -5 9 -10 21 -10 18 0 20 -4 15 -27 -4 -16 -16 -40 -26
-55 -23 -32 -24 -38 -7 -38 7 0 21 15 30 33 l16 32 0 -77 c1 -45 5 -78 11 -78
6 0 10 32 10 76 0 65 2 75 14 65 23 -19 28 4 6 24 -24 21 -26 45 -5 45 8 0 15
5 15 10 0 6 -7 10 -15 10 -11 0 -15 11 -15 40 l0 40 55 0 c30 0 55 -2 55 -4 0
-17 -24 -59 -50 -89 -17 -20 -26 -38 -21 -41 9 -6 50 37 69 71 8 13 17 7 52
-31 27 -29 47 -43 52 -38 6 6 -6 25 -31 48 -23 22 -43 49 -46 62 -4 21 -1 22
77 22 45 0 78 -3 75 -7 -9 -9 22 -43 40 -43 19 0 16 9 -9 31 -23 18 -22 18 95
19 l117 0 0 -141 c0 -132 -1 -141 -20 -146 -25 -7 -26 -23 -2 -23 37 0 42 19
42 167 l0 143 2485 0 2485 0 0 -175 0 -175 -5630 0 -5630 0 0 175 0 175 2580
0 2580 0 0 -22z m-2930 -533 l0 -175 -1112 2 -1113 3 -3 173 -2 172 1115 0
1115 0 0 -175z m2810 0 l0 -175 -1390 0 -1390 0 0 175 0 175 1390 0 1390 0 0
-175z m3030 0 l0 -175 -1500 0 -1500 0 0 175 0 175 1500 0 1500 0 0 -175z
m3190 0 l0 -175 -1580 0 -1580 0 0 175 0 175 1580 0 1580 0 0 -175z m-9030
-380 l0 -175 -1115 0 -1115 0 0 153 c0 83 3 162 6 175 l6 22 1109 0 1109 0 0
-175z m2810 0 l0 -175 -1390 0 -1390 0 0 175 0 175 1390 0 1390 0 0 -175z
m3030 0 l0 -175 -1500 0 -1500 0 0 175 0 175 1500 0 1500 0 0 -175z m3190 0
l0 -175 -1580 0 -1580 0 0 175 0 175 1580 0 1580 0 0 -175z m-9030 -390 l0
-175 -1115 0 -1115 0 0 175 0 175 1115 0 1115 0 0 -175z m2808 3 l-3 -173
-1387 -3 -1388 -2 0 175 0 175 1390 0 1390 0 -2 -172z m3030 0 l-3 -173 -1497
-3 -1498 -2 0 175 0 175 1500 0 1500 0 -2 -172z m1500 147 c6 -14 16 -25 22
-25 15 0 12 11 -7 32 -16 17 11 18 831 18 l846 0 -2 -172 -3 -173 -1577 -3
-1578 -2 0 175 0 175 728 0 729 0 11 -25z m-7338 -910 l0 -555 -1115 0 -1115
0 0 555 0 555 1115 0 1115 0 0 -555z m2810 0 l0 -555 -1390 0 -1390 0 0 555 0
555 1390 0 1390 0 0 -555z m3030 0 l0 -555 -1500 0 -1500 0 0 555 0 555 1500
0 1500 0 0 -555z m3190 0 l0 -555 -1580 0 -1580 0 0 555 0 555 1580 0 1580 0
0 -555z"/>
<path d="M5340 2742 c0 -13 23 -32 39 -32 11 0 10 4 -4 20 -19 21 -35 26 -35
12z"/>
<path d="M6220 2645 c0 -57 4 -95 10 -95 6 0 10 35 10 85 l0 85 36 0 35 0 -3
-85 c-2 -63 0 -85 10 -85 9 0 12 26 12 95 l0 95 -55 0 -55 0 0 -95z"/>
<path d="M5488 2628 c-3 -69 -10 -114 -21 -135 -11 -20 -13 -34 -7 -38 19 -12
43 69 48 163 l5 92 113 0 c69 0 114 4 114 10 0 6 -48 10 -124 10 l-123 0 -5
-102z"/>
<path d="M6350 2625 c0 -52 4 -95 9 -95 5 0 11 43 13 95 2 71 0 95 -9 95 -10
0 -13 -26 -13 -95z"/>
<path d="M5610 2655 c0 -34 -1 -35 -40 -35 -22 0 -40 -4 -40 -10 0 -5 18 -10
40 -10 l40 0 0 -60 0 -60 -57 0 c-31 0 -54 -3 -51 -6 6 -5 238 -8 256 -3 4 2
-22 5 -58 8 l-65 6 0 55 0 55 43 3 c53 4 45 22 -10 22 l-41 0 6 35 c4 26 2 35
-9 35 -9 0 -14 -11 -14 -35z"/>
<path d="M6260 2620 c0 -65 -17 -110 -51 -133 -14 -10 -17 -17 -9 -22 15 -9
45 19 64 60 18 37 22 155 6 155 -6 0 -10 -27 -10 -60z"/>
<path d="M6140 2662 c0 -14 39 -46 47 -39 3 4 -2 16 -12 27 -19 21 -35 26 -35
12z"/>
<path d="M5940 2620 c0 -6 27 -10 60 -10 33 0 60 4 60 10 0 6 -27 10 -60 10
-33 0 -60 -4 -60 -10z"/>
<path d="M5967 2593 c-6 -14 29 -77 37 -65 4 6 0 25 -9 42 -16 31 -21 35 -28
23z"/>
<path d="M5925 2563 c4 -10 10 -26 12 -35 6 -19 23 -25 23 -8 0 5 -5 21 -12
35 -12 28 -34 35 -23 8z"/>
<path d="M6030 2532 l-16 -47 -57 -3 c-94 -5 -65 -22 38 -22 57 0 95 4 95 10
0 6 -14 10 -30 10 l-30 0 16 38 c9 20 18 43 21 50 3 6 -1 12 -8 12 -8 0 -21
-21 -29 -48z"/>
<path d="M6158 2528 c-15 -28 -25 -55 -21 -61 5 -9 61 85 63 106 1 21 -18 1
-42 -45z"/>
<path d="M5680 2540 c20 -28 40 -40 40 -22 -1 13 -38 52 -50 52 -6 0 -2 -13
10 -30z"/>
<path d="M6302 2510 c20 -27 38 -39 38 -25 0 15 -34 55 -46 55 -11 0 -9 -8 8
-30z"/>
<path d="M3771 2299 c-13 -11 -21 -22 -17 -26 3 -4 12 -1 18 5 23 23 28 11 28
-78 l0 -90 -30 0 c-16 0 -30 -4 -30 -10 0 -6 28 -10 65 -10 37 0 65 4 65 10 0
6 -11 10 -25 10 l-25 0 0 105 c0 113 -5 121 -49 84z"/>
<path d="M6400 2315 c0 -24 -5 -35 -15 -35 -8 0 -15 -4 -15 -10 0 -5 6 -10 14
-10 8 0 17 -8 20 -17 7 -17 -9 -33 -31 -33 -7 0 -13 -4 -13 -10 0 -5 11 -10
24 -10 23 0 36 -16 36 -45 0 -7 -18 -20 -41 -29 -52 -21 -42 -40 12 -21 38 14
42 13 57 -5 27 -31 64 -30 80 3 13 27 8 52 -9 42 -5 -4 -9 -15 -9 -26 0 -24
-35 -26 -44 -2 -5 12 2 25 25 44 38 31 24 48 -15 18 -30 -23 -31 -23 -40 8 -6
19 -2 22 44 28 67 9 67 30 -1 22 -48 -6 -50 -5 -47 16 2 18 11 23 48 27 57 6
50 25 -10 25 -42 0 -45 2 -48 28 -5 39 -22 33 -22 -8z"/>
<path d="M6450 2342 c0 -14 36 -43 43 -35 4 3 0 15 -10 25 -17 19 -33 24 -33
10z"/>
<path d="M6920 2278 c-1 -71 -1 -74 -35 -98 -38 -29 -31 -51 9 -25 l26 17 0
-56 c0 -31 5 -56 10 -56 6 0 10 4 10 10 0 5 6 7 13 4 16 -6 49 29 74 80 l20
39 10 -29 c11 -33 60 -94 74 -94 16 0 9 27 -12 46 -24 22 -59 86 -59 108 0 10
12 16 37 18 56 5 55 28 -1 28 l-46 0 0 40 c0 22 -4 40 -10 40 -5 0 -10 -18
-10 -40 l0 -40 -41 0 c-52 0 -49 -24 4 -28 l36 -3 -13 -44 c-15 -47 -51 -105
-67 -105 -5 0 -9 56 -9 130 0 80 -4 130 -10 130 -6 0 -10 -31 -10 -72z"/>
<path d="M7290 2330 c0 -18 -7 -20 -60 -20 -33 0 -60 -4 -60 -10 0 -5 26 -10
57 -10 l57 0 -29 -30 c-16 -17 -44 -35 -62 -42 -18 -7 -33 -15 -33 -18 0 -18
16 -17 55 2 41 20 45 20 69 5 30 -20 45 -5 16 16 -13 9 -18 20 -14 31 7 18 20
21 29 5 13 -20 88 -69 107 -69 30 0 20 16 -21 35 -22 10 -50 28 -62 41 l-22
24 61 0 c35 0 62 4 62 10 0 6 -28 10 -65 10 -58 0 -65 2 -65 20 0 11 -4 20
-10 20 -5 0 -10 -9 -10 -20z"/>
<path d="M7076 2331 c-8 -12 31 -44 44 -36 5 3 8 11 5 16 -10 15 -43 30 -49
20z"/>
<path d="M6250 2320 c0 -5 9 -10 19 -10 19 0 19 -2 4 -52 -8 -29 -19 -58 -25
-65 -6 -7 -5 -14 1 -17 6 -4 19 11 31 34 24 47 53 55 48 13 -2 -22 -8 -28 -25
-26 -26 3 -31 -12 -8 -21 22 -8 19 -21 -16 -61 -32 -36 -32 -58 -1 -39 22 14
69 109 77 157 6 36 5 37 -26 37 -24 0 -30 3 -25 16 3 9 6 18 6 20 0 2 14 4 30
4 17 0 30 5 30 10 0 6 -27 10 -60 10 -33 0 -60 -4 -60 -10z"/>
<path d="M6580 2245 c0 -54 -6 -99 -15 -122 -18 -41 -19 -53 -5 -53 20 0 39
61 46 149 l7 91 113 0 c69 0 114 4 114 10 0 6 -50 10 -130 10 l-130 0 0 -85z"/>
<path d="M6012 2304 c-12 -8 -22 -22 -22 -30 0 -20 13 -17 28 6 16 27 68 27
82 1 17 -32 13 -40 -50 -102 -80 -79 -79 -89 10 -89 40 0 70 4 70 10 0 6 -27
10 -62 10 l-61 0 61 64 c36 37 62 73 62 85 0 51 -71 78 -118 45z"/>
<path d="M6865 2283 c4 -10 10 -26 12 -35 5 -19 15 -23 26 -12 9 9 -21 64 -34
64 -7 0 -8 -7 -4 -17z"/>
<path d="M6710 2260 c0 -28 -2 -30 -40 -30 -51 0 -53 -18 -2 -22 l37 -3 3 -52
3 -53 -50 0 c-28 0 -51 -4 -51 -10 0 -6 45 -10 115 -10 70 0 115 4 115 10 0 6
-25 10 -56 10 l-55 0 3 53 3 52 48 3 c63 4 61 22 -3 22 -49 0 -50 1 -50 30 0
17 -4 30 -10 30 -5 0 -10 -13 -10 -30z"/>
<path d="M6772 2158 c9 -13 23 -25 33 -26 16 -4 16 -2 0 22 -10 14 -24 26 -32
26 -14 0 -14 -3 -1 -22z"/>
<path d="M7280 2172 c0 -17 38 -44 45 -32 4 6 -1 18 -11 25 -22 16 -34 19 -34
7z"/>
<path d="M7176 2135 c-19 -45 -19 -45 -3 -45 17 0 40 61 28 73 -6 6 -16 -5
-25 -28z"/>
<path d="M7230 2132 c0 -51 14 -62 77 -62 47 0 55 3 65 24 6 14 7 33 4 43 -6
15 -10 13 -21 -14 -13 -30 -18 -33 -55 -33 l-40 0 0 40 c0 29 -4 40 -15 40
-11 0 -15 -11 -15 -38z"/>
<path d="M7390 2161 c0 -16 42 -61 51 -55 5 3 0 19 -11 35 -21 28 -40 38 -40
20z"/>
<path d="M9772 2304 c-12 -8 -22 -22 -22 -30 0 -20 13 -17 28 7 19 29 76 23
80 -9 5 -30 -14 -52 -45 -52 -14 0 -21 -4 -18 -10 3 -5 16 -10 29 -10 28 0 46
-18 46 -45 0 -12 -5 -26 -12 -33 -19 -19 -66 -14 -80 8 -15 23 -28 26 -28 6 0
-20 39 -46 70 -46 42 0 70 26 70 65 0 25 -6 37 -22 46 -19 10 -19 12 -5 21 22
12 22 62 1 82 -20 20 -63 20 -92 0z"/>
<path d="M1060 1955 c0 -23 -3 -25 -50 -25 l-50 0 0 -85 0 -85 49 0 50 0 3
-37 3 -38 70 -3 c62 -3 72 0 87 19 18 21 16 39 -3 39 -5 0 -9 -7 -9 -15 0 -19
-31 -35 -69 -35 -47 0 -61 9 -61 41 0 28 1 29 55 29 l55 0 0 85 0 85 -56 0
c-55 0 -56 1 -52 25 4 17 1 25 -8 25 -8 0 -14 -11 -14 -25z m0 -70 c0 -22 -4
-25 -40 -25 -36 0 -40 3 -40 25 0 23 4 25 40 25 36 0 40 -2 40 -25z m110 0 c0
-23 -4 -25 -45 -25 -41 0 -45 2 -45 25 0 23 4 25 45 25 41 0 45 -2 45 -25z
m-110 -75 c0 -28 -2 -30 -40 -30 -38 0 -40 2 -40 30 0 28 2 30 40 30 38 0 40
-2 40 -30z m110 0 c0 -29 -2 -30 -45 -30 -43 0 -45 1 -45 30 0 29 2 30 45 30
43 0 45 -1 45 -30z"/>
<path d="M1309 1842 c-3 -80 -9 -115 -21 -134 -16 -24 -15 -38 3 -38 16 0 39
106 39 182 l0 78 120 0 c73 0 120 4 120 10 0 6 -50 10 -129 10 l-129 0 -3
-108z"/>
<path d="M1440 1875 c0 -34 -1 -35 -40 -35 -22 0 -40 -4 -40 -10 0 -5 18 -10
40 -10 l40 0 0 -60 0 -60 -55 0 c-30 0 -55 -3 -55 -7 0 -9 239 -7 248 1 3 3
-22 6 -56 6 l-62 0 0 60 0 60 40 0 c22 0 40 5 40 10 0 6 -18 10 -40 10 -39 0
-40 1 -40 35 0 19 -4 35 -10 35 -5 0 -10 -16 -10 -35z"/>
<path d="M1502 1760 c20 -27 38 -39 38 -25 0 15 -34 55 -46 55 -11 0 -9 -8 8
-30z"/>
<path d="M3260 1825 c0 -70 4 -115 10 -115 6 0 10 20 10 45 0 44 0 45 34 45
46 0 86 33 86 71 0 45 -31 69 -90 69 l-50 0 0 -115z m101 85 c23 -13 25 -53 3
-74 -8 -9 -31 -16 -50 -16 l-34 0 0 50 c0 49 1 50 31 50 17 0 39 -5 50 -10z"/>
<path d="M3420 1930 c0 -5 16 -10 35 -10 l35 0 0 -105 c0 -63 4 -105 10 -105
6 0 10 42 10 105 l0 105 40 0 c22 0 40 5 40 10 0 6 -35 10 -85 10 -50 0 -85
-4 -85 -10z"/>
<path d="M3655 1915 c-31 -25 -28 -33 6 -15 18 10 19 7 19 -80 0 -89 0 -90
-24 -90 -14 0 -28 -4 -31 -10 -4 -6 18 -10 59 -10 37 0 66 4 66 10 0 6 -11 10
-25 10 l-25 0 0 105 c0 58 -3 105 -7 105 -5 0 -21 -11 -38 -25z"/>
<path d="M3896 1924 c-21 -20 -21 -73 0 -81 13 -5 12 -8 -5 -25 -28 -25 -27
-72 1 -92 68 -48 147 19 100 84 -17 23 -18 28 -6 45 19 26 18 41 -6 65 -24 24
-63 26 -84 4z m74 -19 c10 -12 10 -21 2 -40 -12 -25 -27 -30 -56 -19 -16 6
-22 54 -9 67 12 12 50 7 63 -8z m11 -106 c17 -33 -3 -69 -39 -69 -33 0 -52 16
-52 45 0 29 19 45 52 45 18 0 31 -7 39 -21z"/>
<path d="M4064 1919 c-15 -17 -19 -36 -19 -94 0 -83 18 -115 65 -115 47 0 65
32 65 115 0 83 -18 115 -65 115 -15 0 -35 -9 -46 -21z m80 -21 c21 -30 21
-117 0 -146 -35 -51 -84 -6 -84 78 0 78 50 118 84 68z"/>
<path d="M3800 1865 c0 -8 5 -15 10 -15 6 0 10 7 10 15 0 8 -4 15 -10 15 -5 0
-10 -7 -10 -15z"/>
<path d="M4204 1864 c40 -108 61 -154 73 -154 7 0 13 2 13 4 0 2 16 41 35 85
24 57 30 81 21 81 -7 0 -23 -28 -36 -62 -12 -35 -26 -67 -30 -71 -4 -5 -19 22
-32 59 -14 38 -31 70 -38 72 -9 3 -11 -1 -6 -14z"/>
<path d="M3800 1725 c0 -8 5 -15 10 -15 6 0 10 7 10 15 0 8 -4 15 -10 15 -5 0
-10 -7 -10 -15z"/>
<path d="M6671 1921 c-37 -37 -34 -169 5 -198 28 -21 61 -15 83 13 35 44 26
170 -13 196 -20 14 -56 8 -75 -11z m79 -20 c5 -11 10 -45 10 -76 0 -68 -13
-95 -44 -95 -37 0 -50 25 -50 95 0 38 6 70 13 79 18 22 58 20 71 -3z"/>
<path d="M9200 1825 c0 -70 4 -115 10 -115 6 0 10 20 10 45 0 44 1 45 31 45
32 0 69 15 81 34 4 6 8 25 8 43 0 42 -30 63 -92 63 l-48 0 0 -115z m108 83 c7
-7 12 -24 12 -40 0 -32 -24 -48 -69 -48 -30 0 -31 1 -31 50 l0 50 38 0 c21 0
43 -5 50 -12z"/>
<path d="M9360 1930 c0 -5 16 -10 35 -10 l35 0 0 -105 c0 -63 4 -105 10 -105
6 0 10 42 10 105 l0 105 40 0 c22 0 40 5 40 10 0 6 -35 10 -85 10 -50 0 -85
-4 -85 -10z"/>
<path d="M9582 1924 c-12 -8 -22 -22 -22 -30 0 -20 13 -17 28 6 16 27 68 27
82 1 17 -32 13 -40 -50 -102 -80 -79 -79 -89 10 -89 40 0 70 4 70 10 0 6 -27
10 -62 10 l-61 0 61 64 c36 37 62 73 62 85 0 51 -71 78 -118 45z"/>
<path d="M9851 1919 c-13 -11 -21 -22 -17 -26 3 -4 12 -1 18 5 23 23 28 11 28
-78 l0 -90 -30 0 c-16 0 -30 -4 -30 -10 0 -6 28 -10 65 -10 37 0 65 4 65 10 0
6 -11 10 -25 10 l-25 0 0 105 c0 113 -5 121 -49 84z"/>
<path d="M10011 1921 c-37 -37 -34 -169 5 -198 28 -21 61 -15 83 13 35 44 26
170 -13 196 -20 14 -56 8 -75 -11z m79 -20 c5 -11 10 -45 10 -76 0 -68 -13
-95 -44 -95 -37 0 -50 25 -50 95 0 38 6 70 13 79 18 22 58 20 71 -3z"/>
<path d="M10184 1919 c-15 -17 -19 -36 -19 -94 0 -83 18 -115 65 -115 47 0 65
32 65 115 0 83 -18 115 -65 115 -15 0 -35 -9 -46 -21z m80 -21 c21 -30 21
-117 0 -146 -35 -51 -84 -6 -84 78 0 78 50 118 84 68z"/>
<path d="M9740 1865 c0 -8 5 -15 10 -15 6 0 10 7 10 15 0 8 -4 15 -10 15 -5 0
-10 -7 -10 -15z"/>
<path d="M10324 1864 c40 -108 61 -154 73 -154 7 0 13 2 13 4 0 2 16 41 35 85
24 57 30 81 21 81 -7 0 -23 -28 -36 -62 -12 -35 -26 -67 -30 -71 -4 -5 -19 22
-32 59 -14 38 -31 70 -38 72 -9 3 -11 -1 -6 -14z"/>
<path d="M9740 1725 c0 -8 5 -15 10 -15 6 0 10 7 10 15 0 8 -4 15 -10 15 -5 0
-10 -7 -10 -15z"/>
<path d="M629 1548 c-13 -29 -25 -56 -27 -60 -2 -4 11 -8 28 -10 l32 -3 -26
-37 c-14 -21 -22 -39 -18 -41 16 -9 92 6 92 17 0 8 -11 11 -31 8 l-31 -5 28
49 c15 27 31 54 36 60 5 7 3 14 -6 17 -8 3 -18 -4 -25 -19 -6 -14 -19 -24 -31
-24 -25 0 -25 2 4 49 23 35 24 51 6 51 -3 0 -17 -24 -31 -52z"/>
<path d="M800 1570 c0 -28 -3 -30 -35 -30 -19 0 -35 -4 -35 -10 0 -5 16 -10
35 -10 31 0 35 -3 35 -25 0 -22 -4 -25 -35 -25 -19 0 -35 -4 -35 -10 0 -6 32
-10 75 -10 43 0 75 4 75 10 0 6 -13 10 -30 10 -25 0 -30 4 -30 25 0 23 4 25
40 25 22 0 40 5 40 10 0 6 -19 10 -41 10 -40 0 -41 1 -37 30 3 20 0 30 -9 30
-8 0 -13 -12 -13 -30z"/>
<path d="M1080 1580 c0 -18 -7 -20 -65 -20 -37 0 -65 -4 -65 -10 0 -6 28 -10
65 -10 51 0 65 -3 65 -15 0 -11 -12 -15 -45 -15 l-45 0 0 -45 0 -45 38 0 37
-1 -35 -32 c-19 -17 -46 -39 -60 -48 -14 -9 -22 -20 -18 -24 9 -10 83 40 109
73 l19 25 0 -62 c0 -34 4 -61 10 -61 6 0 10 27 10 61 l0 61 51 -46 c50 -45 72
-55 83 -37 3 5 -7 14 -23 21 -16 6 -41 25 -57 41 l-28 29 37 0 37 0 0 45 0 45
-50 0 c-38 0 -50 4 -50 15 0 12 15 15 71 15 44 0 68 4 64 10 -3 6 -36 10 -72
10 -60 0 -65 2 -60 20 3 13 0 20 -9 20 -8 0 -14 -9 -14 -20z m0 -115 c0 -22
-4 -25 -35 -25 -31 0 -35 3 -35 25 0 22 4 25 35 25 31 0 35 -3 35 -25z m100 0
c0 -22 -4 -25 -40 -25 -36 0 -40 3 -40 25 0 23 4 25 40 25 36 0 40 -2 40 -25z"/>
<path d="M1352 1559 c-13 -22 -30 -43 -38 -46 -18 -7 -18 -23 0 -23 8 0 24 14
36 30 19 27 27 30 77 30 l56 0 -23 -25 c-28 -29 -37 -31 -62 -8 -10 9 -21 13
-26 9 -4 -4 4 -16 17 -27 l23 -19 -33 -14 c-19 -7 -49 -17 -67 -21 -18 -3 -29
-11 -26 -16 7 -13 58 -2 103 20 32 17 35 17 103 -7 59 -21 71 -23 79 -11 6 11
-1 15 -35 20 -24 4 -53 12 -65 19 -22 11 -22 12 16 53 l38 42 -68 5 c-37 3
-67 9 -66 15 2 24 -18 11 -39 -26z"/>
<path d="M1676 1554 c-10 -25 -30 -59 -43 -75 -27 -31 -12 -41 19 -12 17 15
18 12 18 -80 0 -58 4 -97 10 -97 6 0 10 47 10 120 0 87 4 129 15 149 13 26 11
41 -4 41 -3 0 -14 -21 -25 -46z"/>
<path d="M1810 1560 c0 -34 -3 -40 -21 -40 -16 0 -20 5 -16 20 3 12 0 20 -7
20 -9 0 -46 -82 -46 -104 0 -15 18 -3 28 19 8 17 20 25 37 25 22 0 25 -4 25
-35 l0 -35 -51 0 c-31 0 -48 -4 -44 -10 3 -5 26 -10 51 -10 l44 0 0 -60 c0
-33 4 -60 10 -60 6 0 10 27 10 60 l0 60 45 0 c25 0 45 5 45 10 0 6 -20 10 -45
10 -45 0 -45 0 -45 35 0 33 2 35 35 35 19 0 35 5 35 10 0 6 -16 10 -35 10 -34
0 -35 1 -35 40 0 22 -4 40 -10 40 -5 0 -10 -18 -10 -40z"/>
<path d="M1417 1430 c5 -18 0 -20 -46 -20 -28 0 -51 -4 -51 -10 0 -5 23 -10
50 -10 l50 0 0 -36 c0 -27 -5 -37 -20 -41 -30 -8 -24 -25 8 -21 25 3 27 7 30
51 l3 47 45 0 c24 0 44 5 44 10 0 6 -20 10 -45 10 -38 0 -45 3 -45 20 0 11 -6
20 -14 20 -9 0 -12 -7 -9 -20z"/>
<path d="M740 1353 c0 -35 4 -63 10 -63 6 0 10 7 10 15 0 23 86 21 99 -2 9
-16 10 -16 16 -2 3 9 5 38 3 64 l-3 47 -68 2 -67 1 0 -62z m120 12 l0 -35 -50
0 -50 0 0 35 0 35 50 0 50 0 0 -35z"/>
<path d="M1350 1371 c0 -6 -13 -18 -30 -28 -30 -17 -39 -33 -19 -33 17 0 79
52 73 61 -7 12 -24 12 -24 0z"/>
<path d="M1466 1372 c-8 -13 64 -66 75 -55 6 6 -5 19 -30 36 -22 15 -42 23
-45 19z"/>
<path d="M648 1343 c-27 -8 -48 -18 -48 -24 0 -12 9 -12 63 7 26 9 47 20 47
25 0 11 -3 11 -62 -8z"/>
<path d="M3256 1560 l7 -40 -57 0 c-71 0 -74 -18 -3 -22 l52 -3 3 -65 c4 -83
-3 -110 -28 -110 -11 0 -20 -4 -20 -9 0 -15 13 -19 35 -11 18 6 21 19 25 101
5 88 6 94 28 97 31 5 28 22 -4 22 -25 0 -26 2 -21 40 4 30 2 40 -9 40 -11 0
-13 -9 -8 -40z"/>
<path d="M3400 1592 c0 -14 46 -53 53 -45 4 3 -3 17 -15 30 -22 23 -38 30 -38
15z"/>
<path d="M3490 1570 c0 -6 28 -10 65 -10 l65 0 0 -125 c0 -122 -1 -125 -22
-125 -16 0 -19 -3 -11 -11 6 -6 20 -8 32 -4 20 6 21 13 21 146 l0 139 -75 0
c-43 0 -75 -4 -75 -10z"/>
<path d="M3040 1445 c0 -77 4 -125 10 -125 6 0 10 7 10 15 0 21 50 19 66 -2
11 -15 13 1 14 110 l0 127 -50 0 -50 0 0 -125z m80 65 c0 -38 -2 -40 -30 -40
-28 0 -30 2 -30 40 0 38 2 40 30 40 28 0 30 -2 30 -40z m0 -105 c0 -43 -1 -45
-30 -45 -29 0 -30 2 -30 45 0 43 1 45 30 45 29 0 30 -2 30 -45z"/>
<path d="M4056 1538 c-37 -57 -27 -174 18 -203 33 -22 73 -10 92 28 22 41 15
148 -10 176 -27 29 -81 28 -100 -1z m94 -24 c13 -32 13 -105 1 -137 -14 -35
-48 -44 -73 -19 -16 16 -20 33 -20 86 0 75 11 96 53 96 22 0 32 -6 39 -26z"/>
<path d="M4325 1534 c-27 -23 -23 -25 20 -8 14 6 15 -6 13 -87 l-3 -94 -30 -6
c-19 -4 -4 -7 40 -6 39 0 58 2 43 4 l-28 4 0 110 c0 121 -4 127 -55 83z"/>
<path d="M3390 1538 c-7 -34 -2 -248 5 -248 6 0 10 48 10 125 0 69 -3 125 -7
125 -5 0 -8 -1 -8 -2z"/>
<path d="M3740 1510 c0 -5 4 -10 9 -10 6 0 13 5 16 10 3 6 -1 10 -9 10 -9 0
-16 -4 -16 -10z"/>
<path d="M3450 1430 l0 -70 60 0 60 0 0 70 0 70 -60 0 -60 0 0 -70z m100 35
c0 -22 -4 -25 -40 -25 -36 0 -40 3 -40 25 0 23 4 25 40 25 36 0 40 -2 40 -25z
m0 -70 c0 -22 -4 -25 -40 -25 -36 0 -40 3 -40 25 0 23 4 25 40 25 36 0 40 -2
40 -25z"/>
<path d="M4478 1489 c-21 -12 -24 -52 -5 -66 6 -6 26 -15 42 -20 22 -7 30 -16
30 -34 0 -30 -38 -38 -65 -14 -11 10 -20 12 -24 6 -7 -11 31 -41 54 -41 28 0
60 30 60 56 0 20 -9 29 -46 44 -33 14 -45 25 -42 37 3 20 58 32 58 14 0 -6 7
-11 17 -11 14 0 14 2 -2 20 -20 22 -50 25 -77 9z"/>
<path d="M3177 1464 c-8 -9 21 -64 33 -64 13 0 13 6 -5 40 -17 32 -18 33 -28
24z"/>
<path d="M3740 1355 c0 -9 5 -15 11 -13 6 2 11 8 11 13 0 5 -5 11 -11 13 -6 2
-11 -4 -11 -13z"/>
<path d="M4220 1345 c0 -8 5 -15 10 -15 6 0 10 7 10 15 0 8 -4 15 -10 15 -5 0
-10 -7 -10 -15z"/>
<path d="M6430 1560 l0 -40 -50 0 c-27 0 -50 -4 -50 -10 0 -5 23 -10 50 -10
l50 0 0 -90 0 -90 -27 0 c-19 0 -24 -3 -16 -11 6 -6 21 -9 34 -7 23 3 24 7 27
101 3 96 3 97 27 97 14 0 25 5 25 10 0 6 -12 10 -26 10 -24 0 -26 3 -22 40 2
28 0 40 -9 40 -8 0 -13 -14 -13 -40z"/>
<path d="M6570 1592 c0 -14 46 -53 53 -45 4 3 -3 17 -15 30 -22 23 -38 30 -38
15z"/>
<path d="M6670 1570 c0 -6 28 -10 65 -10 l65 0 0 -121 c0 -112 -1 -121 -20
-126 -11 -3 -20 -9 -20 -14 0 -14 40 -11 45 4 2 6 5 72 7 145 l3 132 -72 0
c-42 0 -73 -4 -73 -10z"/>
<path d="M6220 1445 c0 -77 4 -125 10 -125 6 0 10 7 10 15 0 10 10 15 30 15
21 0 30 -5 30 -16 0 -8 5 -12 10 -9 6 4 10 57 10 126 l0 119 -50 0 -50 0 0
-125z m80 65 c0 -38 -2 -40 -30 -40 -28 0 -30 2 -30 40 0 38 2 40 30 40 28 0
30 -2 30 -40z m-2 -102 c-3 -39 -6 -43 -30 -46 -27 -3 -28 -2 -28 42 0 45 1
46 31 46 29 0 30 -1 27 -42z"/>
<path d="M6967 1542 c-18 -19 -23 -42 -9 -42 4 0 13 9 20 21 10 15 21 19 45
17 29 -3 32 -6 32 -38 0 -30 -4 -35 -25 -38 -39 -6 -46 -20 -14 -28 55 -13 71
-46 38 -78 -23 -24 -52 -19 -80 12 l-26 27 3 -25 c5 -30 50 -54 84 -46 54 14
72 69 36 105 -17 17 -18 21 -5 32 17 14 19 70 2 87 -19 19 -82 15 -101 -6z"/>
<path d="M6560 1415 c0 -77 4 -125 10 -125 6 0 10 48 10 125 0 77 -4 125 -10
125 -6 0 -10 -48 -10 -125z"/>
<path d="M6630 1430 l0 -70 60 0 60 0 0 70 0 70 -60 0 -60 0 0 -70z m100 35
c0 -22 -4 -25 -40 -25 -36 0 -40 3 -40 25 0 23 4 25 40 25 36 0 40 -2 40 -25z
m-2 -67 c-2 -19 -10 -24 -40 -26 -35 -3 -38 -1 -38 22 0 24 4 26 41 26 36 0
40 -2 37 -22z"/>
<path d="M7136 1484 c-33 -32 -18 -63 39 -81 22 -7 30 -16 30 -34 0 -31 -38
-38 -67 -12 -20 17 -20 17 -17 -2 5 -26 47 -40 82 -26 21 8 27 17 27 41 0 27
-6 33 -46 50 -33 14 -45 25 -42 37 4 22 44 29 64 12 8 -6 18 -9 22 -5 10 11
-28 36 -54 36 -13 0 -30 -7 -38 -16z"/>
<path d="M6882 1479 c2 -6 8 -10 13 -10 5 0 11 4 13 10 2 6 -4 11 -13 11 -9 0
-15 -5 -13 -11z"/>
<path d="M6356 1461 c-9 -14 15 -61 31 -61 11 0 10 6 -3 33 -21 40 -21 40 -28
28z"/>
<path d="M6880 1340 c0 -5 7 -10 15 -10 8 0 15 5 15 10 0 6 -7 10 -15 10 -8 0
-15 -4 -15 -10z"/>
<path d="M9550 1565 c0 -31 -3 -35 -25 -35 -14 0 -25 -4 -25 -9 0 -4 11 -6 25
-3 23 4 25 2 25 -37 0 -35 -4 -43 -25 -51 -14 -5 -25 -14 -25 -20 0 -13 6 -13
31 0 18 10 19 7 19 -40 0 -38 -4 -50 -15 -50 -8 0 -15 -7 -15 -15 0 -16 9 -19
34 -9 12 5 16 21 16 69 0 53 3 65 23 79 l22 17 -22 -5 c-20 -4 -23 0 -23 31 0
30 3 35 20 30 11 -3 20 -1 20 4 0 5 -9 9 -21 9 -18 0 -21 5 -17 35 3 24 0 35
-9 35 -8 0 -13 -13 -13 -35z"/>
<path d="M9884 1578 c-3 -13 -16 -36 -26 -51 -24 -33 -14 -52 11 -21 10 13 34
23 64 27 26 4 47 5 47 3 0 -2 -7 -23 -15 -46 -19 -53 -19 -50 6 -50 15 0 19
-4 15 -16 -3 -9 -6 -23 -7 -32 0 -14 -2 -14 -6 -2 -9 22 -30 40 -47 40 -9 0
-16 8 -16 20 0 11 7 20 15 20 8 0 15 5 15 10 0 6 -18 10 -40 10 -22 0 -40 -4
-40 -10 0 -5 7 -10 15 -10 8 0 15 -9 15 -20 0 -13 -7 -20 -20 -20 -11 0 -20
-4 -20 -10 0 -5 9 -10 21 -10 18 0 20 -5 18 -52 -2 -31 1 -51 6 -49 28 11 54
34 49 43 -3 5 -12 4 -20 -3 -12 -9 -14 -5 -14 25 0 29 4 36 20 36 28 0 39 -63
16 -89 -11 -12 -13 -21 -7 -25 5 -4 16 3 24 15 14 19 17 19 43 6 16 -8 53 -17
82 -21 43 -6 52 -4 52 9 0 11 -12 15 -47 15 -54 0 -98 19 -97 41 0 8 4 33 8
57 5 34 3 42 -9 42 -19 0 -19 11 0 57 8 19 15 37 15 39 0 9 -59 3 -65 -6 -8
-13 -45 -13 -45 1 0 6 5 19 10 30 8 15 7 19 -4 19 -8 0 -18 -10 -22 -22z"/>
<path d="M10060 1580 c0 -13 -7 -20 -20 -20 -11 0 -20 -4 -20 -10 0 -5 9 -10
20 -10 11 0 20 -4 20 -10 0 -5 -11 -10 -25 -10 -14 0 -25 -4 -25 -10 0 -5 11
-10 25 -10 16 0 25 -6 25 -15 0 -8 -9 -15 -20 -15 -11 0 -20 -4 -20 -10 0 -5
9 -10 20 -10 11 0 20 -4 20 -10 0 -5 -9 -10 -20 -10 -11 0 -20 -4 -20 -10 0
-5 9 -10 20 -10 11 0 20 -4 20 -10 0 -5 -11 -10 -25 -10 -14 0 -25 -4 -25 -10
0 -5 11 -10 25 -10 18 0 25 -5 25 -20 0 -11 5 -20 10 -20 6 0 10 9 10 20 0 16
7 20 30 20 17 0 30 5 30 10 0 6 -13 10 -30 10 -16 0 -30 5 -30 10 0 6 11 10
25 10 14 0 25 5 25 10 0 6 -11 10 -25 10 -14 0 -25 5 -25 10 0 6 11 10 25 10
20 0 25 5 25 24 0 13 6 27 13 30 10 5 10 7 0 12 -7 3 -13 14 -13 25 0 14 -7
19 -25 19 -18 0 -25 5 -25 20 0 11 -4 20 -10 20 -5 0 -10 -9 -10 -20z m50 -50
c0 -5 -7 -10 -15 -10 -8 0 -15 5 -15 10 0 6 7 10 15 10 8 0 15 -4 15 -10z m0
-45 c0 -8 -7 -15 -15 -15 -8 0 -15 7 -15 15 0 8 7 15 15 15 8 0 15 -7 15 -15z"/>
<path d="M9628 1520 c2 -16 8 -27 13 -25 4 3 6 12 2 20 -4 12 8 15 66 15 65 0
71 -2 71 -21 0 -11 5 -17 10 -14 6 3 10 17 10 31 0 24 -1 24 -88 24 l-89 0 5
-30z"/>
<path d="M9690 1494 c-6 -14 -10 -30 -10 -35 0 -5 -13 -9 -30 -9 -16 0 -30 -4
-30 -10 0 -5 9 -10 20 -10 22 0 27 -19 9 -37 -7 -7 -1 -14 21 -23 24 -10 28
-15 19 -26 -6 -7 -26 -16 -45 -20 -19 -3 -34 -12 -34 -19 0 -16 49 -5 87 20
22 15 26 15 58 -5 20 -12 36 -17 39 -11 4 6 -1 15 -11 20 -46 26 -46 26 -32
65 10 27 19 36 36 36 13 0 23 5 23 10 0 6 -25 10 -56 10 -59 0 -59 -1 -37 58
3 6 0 12 -6 12 -6 0 -16 -12 -21 -26z m45 -86 c-11 -35 -21 -41 -44 -29 -17
10 -19 15 -11 31 6 12 21 20 36 20 22 0 24 -3 19 -22z"/>
<path d="M670 745 c0 -47 -4 -85 -9 -85 -13 0 -64 -70 -56 -78 3 -4 20 9 36
28 l28 35 1 -64 0 -63 27 7 c40 10 50 20 82 88 29 60 29 60 36 29 10 -45 64
-117 78 -103 8 8 4 18 -16 38 -27 29 -57 91 -57 118 0 11 11 15 40 15 22 0 40
5 40 10 0 6 -20 10 -45 10 l-45 0 0 50 c0 28 -4 50 -10 50 -5 0 -10 -22 -10
-50 l0 -50 -34 0 c-19 0 -38 -4 -41 -10 -4 -6 8 -10 29 -10 30 0 36 -4 36 -20
0 -45 -56 -140 -82 -140 -6 0 -8 61 -6 140 2 107 0 140 -9 140 -10 0 -13 -24
-13 -85z"/>
<path d="M1070 805 c0 -24 -3 -25 -60 -25 -33 0 -60 -4 -60 -10 0 -5 25 -10
56 -10 l55 0 -21 -30 c-12 -17 -36 -38 -53 -46 -40 -21 -40 -21 -33 -33 10
-16 82 35 107 75 26 42 38 42 64 1 22 -34 82 -80 99 -74 21 7 15 25 -11 32
-28 6 -83 51 -83 67 0 4 23 8 50 8 28 0 50 5 50 10 0 6 -30 10 -71 10 -71 0
-71 0 -65 25 5 18 2 25 -9 25 -9 0 -15 -9 -15 -25z"/>
<path d="M1372 791 c-18 -22 -41 -42 -52 -46 -21 -7 -28 -25 -8 -25 6 0 26 11
44 25 26 20 44 25 90 25 l58 0 -34 -35 -33 -34 -29 21 c-36 25 -52 14 -18 -12
25 -19 25 -19 5 -34 -11 -9 -42 -23 -68 -32 -35 -11 -46 -19 -38 -27 7 -7 18
-7 36 1 14 7 28 12 30 12 3 0 5 -25 5 -55 0 -30 5 -55 10 -55 6 0 10 5 10 10
0 6 32 10 75 10 43 0 75 -4 75 -10 0 -5 5 -10 10 -10 6 0 10 30 10 70 l0 70
-66 0 -65 0 60 56 c34 31 61 60 61 65 0 5 -32 9 -72 9 -56 0 -69 3 -60 12 7 7
12 16 12 20 0 18 -18 6 -48 -31z m158 -191 l0 -40 -75 0 -75 0 0 40 0 40 75 0
75 0 0 -40z"/>
<path d="M1794 813 c-19 -54 -47 -106 -51 -95 -3 6 -16 12 -29 12 -36 0 -34
47 3 61 17 6 23 13 16 20 -6 6 -19 6 -37 -1 -15 -5 -39 -10 -52 -10 -14 0 -22
-4 -19 -10 3 -5 17 -10 31 -10 19 0 24 -5 24 -25 0 -21 -5 -25 -30 -25 -16 0
-30 -4 -30 -10 0 -5 11 -10 25 -10 14 0 25 -2 25 -5 0 -12 -40 -84 -50 -90
-11 -7 -4 -25 9 -25 5 0 14 14 21 30 21 50 33 35 28 -35 -3 -42 0 -65 7 -65 7
0 9 24 7 70 -4 69 6 90 26 54 7 -12 11 -13 17 -4 4 7 -4 24 -21 42 l-29 31 41
-7 c37 -5 42 -3 52 19 10 22 18 25 62 25 48 0 50 -1 40 -20 -8 -15 -8 -20 2
-20 8 0 19 14 25 30 l11 30 -59 0 c-63 0 -65 1 -49 30 7 13 7 21 0 25 -6 3
-13 -2 -16 -12z"/>
<path d="M846 775 c15 -23 34 -34 34 -19 0 16 -23 44 -36 44 -12 0 -12 -4 2
-25z"/>
<path d="M610 761 c0 -15 38 -56 45 -49 8 8 -23 58 -36 58 -5 0 -9 -4 -9 -9z"/>
<path d="M1820 631 c0 -85 -1 -90 -22 -94 -20 -3 -21 -4 -5 -11 35 -16 47 10
47 105 0 53 -4 89 -10 89 -6 0 -10 -36 -10 -89z"/>
<path d="M1066 702 c-3 -6 5 -17 19 -26 29 -19 33 -7 6 18 -11 10 -22 13 -25
8z"/>
<path d="M1752 618 c-23 -44 -21 -67 5 -33 30 41 44 75 31 75 -7 0 -23 -19
-36 -42z"/>
<path d="M1860 655 c0 -14 47 -75 58 -75 7 0 2 15 -14 40 -23 35 -44 51 -44
35z"/>
<path d="M1070 633 c0 -5 12 -16 25 -26 21 -15 25 -16 25 -3 0 8 -9 20 -19 26
-23 12 -31 13 -31 3z"/>
<path d="M963 585 c-12 -19 -18 -37 -13 -40 9 -6 50 50 50 68 0 16 -16 4 -37
-28z"/>
<path d="M1030 581 c0 -31 5 -43 21 -51 25 -14 93 -4 110 16 18 22 4 28 -24 9
-14 -9 -38 -15 -54 -13 -24 3 -28 7 -29 37 0 19 -5 36 -12 39 -8 2 -12 -10
-12 -37z"/>
<path d="M1180 612 c0 -5 11 -19 25 -32 19 -18 25 -20 25 -8 0 8 -8 22 -18 31
-20 19 -32 22 -32 9z"/>
<path d="M2585 1200 c18 -20 17 -20 -48 -20 l-67 0 0 -30 c0 -16 5 -30 10 -30
6 0 10 9 10 20 0 19 7 20 116 20 111 0 115 -1 109 -20 -4 -14 -2 -20 8 -20 9
0 14 11 14 30 0 29 -2 30 -49 30 -35 0 -54 6 -68 20 -11 11 -27 20 -37 20 -14
0 -14 -2 2 -20z"/>
<path d="M2959 1189 c-13 -33 -56 -89 -67 -89 -4 0 -5 25 -4 55 l4 55 -45 0
c-25 0 -49 -4 -52 -10 -4 -6 10 -10 34 -10 41 0 41 0 41 -37 0 -53 -10 -83
-26 -83 -10 0 -14 14 -14 50 0 28 -4 50 -10 50 -6 0 -10 -27 -10 -60 l0 -60
40 0 40 0 0 -42 c0 -49 -8 -64 -32 -69 -12 -3 -15 -8 -9 -18 14 -21 47 3 55
40 11 58 7 109 -9 109 -8 0 -15 5 -15 10 0 6 9 10 20 10 13 0 32 17 51 44 l31
43 33 -36 34 -36 -55 -3 c-71 -4 -70 -17 1 -17 30 0 55 4 55 8 0 4 7 7 16 5
30 -5 24 16 -9 37 -18 11 -39 35 -47 52 -19 41 -34 41 -51 2z"/>
<path d="M3210 1213 c0 -3 7 -15 17 -25 15 -17 14 -18 -40 -18 -32 0 -57 -4
-57 -10 0 -6 57 -10 150 -10 93 0 150 4 150 10 0 6 -23 10 -52 10 -49 0 -50 1
-35 18 20 22 21 32 4 32 -8 0 -19 -11 -25 -25 -7 -15 -20 -25 -33 -25 -12 0
-30 11 -41 25 -18 24 -38 33 -38 18z"/>
<path d="M3540 1065 c0 -97 4 -155 10 -155 6 0 10 28 10 65 l0 65 70 0 70 0 0
-50 c0 -47 -2 -50 -25 -50 -14 0 -25 -5 -25 -10 0 -17 27 -22 49 -10 17 9 21
20 21 65 0 52 1 55 25 55 14 0 25 5 25 10 0 6 -12 10 -26 10 -21 0 -25 4 -21
20 3 13 0 20 -9 20 -8 0 -14 -9 -14 -20 0 -17 -7 -20 -47 -20 l-48 1 35 19
c19 10 53 37 75 59 l39 41 -59 0 c-46 0 -56 3 -47 12 16 16 15 28 -3 28 -8 0
-15 -6 -15 -14 0 -8 -13 -28 -29 -45 -16 -17 -26 -33 -21 -36 4 -2 15 4 25 15
13 14 31 20 64 20 43 0 44 -1 28 -17 -14 -15 -21 -15 -37 -6 -11 7 -21 9 -25
3 -3 -5 -1 -11 5 -15 17 -11 11 -22 -20 -35 -16 -7 -27 -16 -24 -21 3 -5 -4
-9 -15 -9 -19 0 -21 6 -21 80 0 47 -4 80 -10 80 -6 0 -10 -58 -10 -155z"/>
<path d="M4340 1201 c0 -17 -6 -21 -35 -21 -19 0 -35 -4 -35 -10 0 -5 16 -10
35 -10 31 0 35 -3 35 -25 0 -20 -5 -25 -25 -25 -14 0 -25 -4 -25 -10 0 -6 28
-10 65 -10 37 0 65 4 65 10 0 6 -13 10 -30 10 -25 0 -30 4 -30 25 0 22 4 25
35 25 19 0 35 5 35 10 0 6 -16 10 -35 10 -24 0 -35 5 -35 14 0 8 -4 18 -10 21
-5 3 -10 -3 -10 -14z"/>
<path d="M4547 1213 c-2 -5 -7 -20 -11 -35 -3 -16 -13 -28 -21 -28 -12 0 -15
-20 -15 -115 0 -70 4 -115 10 -115 6 0 10 7 10 15 0 10 11 15 35 15 19 0 35
-4 35 -10 0 -5 5 -10 10 -10 6 0 10 43 10 110 l0 110 -31 0 c-31 0 -32 3 -12
58 5 13 -13 17 -20 5z m43 -118 c0 -33 -2 -35 -35 -35 -33 0 -35 2 -35 35 0
33 2 35 35 35 33 0 35 -2 35 -35z m0 -96 c0 -39 -1 -40 -32 -37 -30 3 -33 6
-36 41 -3 36 -3 37 32 37 35 0 36 -1 36 -41z"/>
<path d="M4670 1207 c0 -8 -11 -35 -24 -60 -23 -47 -19 -77 6 -37 10 15 23 20
55 20 l43 0 0 -49 c0 -26 -3 -69 -6 -95 -6 -38 -11 -47 -30 -52 -28 -7 -32
-24 -6 -24 44 0 54 21 59 133 l6 107 -52 0 -52 0 16 30 c19 36 19 40 0 40 -8
0 -15 -6 -15 -13z"/>
<path d="M4996 1198 c10 -33 61 -104 86 -122 40 -28 41 -3 1 30 -22 18 -48 51
-58 73 -19 43 -41 57 -29 19z"/>
<path d="M4240 1172 c0 -36 -3 -40 -40 -55 -22 -8 -40 -20 -40 -26 0 -14 10
-13 40 4 34 19 40 18 40 -5 0 -11 5 -20 10 -20 6 0 10 30 10 70 0 40 -4 70
-10 70 -5 0 -10 -17 -10 -38z"/>
<path d="M4906 1184 c-4 -14 -25 -45 -48 -70 -46 -50 -44 -73 3 -29 33 33 80
111 71 119 -11 12 -20 5 -26 -20z"/>
<path d="M3840 1180 c0 -5 25 -10 55 -10 l56 0 -3 -107 -3 -108 -67 -3 c-38
-2 -68 -7 -68 -12 0 -6 60 -10 145 -10 90 0 145 4 145 10 0 6 -28 10 -65 10
l-65 0 0 110 0 110 55 0 c30 0 55 5 55 10 0 6 -47 10 -120 10 -73 0 -120 -4
-120 -10z"/>
<path d="M4188 1168 c12 -12 24 -19 28 -15 10 10 -16 37 -34 37 -13 0 -12 -4
6 -22z"/>
<path d="M3480 1163 c1 -15 39 -58 45 -51 8 8 -24 58 -36 58 -5 0 -9 -3 -9 -7z"/>
<path d="M2608 1092 l-3 -57 -72 -3 c-91 -4 -97 -22 -8 -22 36 0 65 -4 65 -9
0 -13 -53 -49 -90 -63 -20 -6 -28 -14 -22 -20 14 -14 74 15 114 56 33 34 39
36 97 36 39 0 60 4 56 10 -3 6 -31 10 -62 10 l-55 0 4 55 c2 36 -1 56 -9 59
-8 4 -13 -13 -15 -52z"/>
<path d="M2545 1105 c32 -26 45 -31 45 -16 0 13 -41 41 -60 41 -9 0 -4 -9 15
-25z"/>
<path d="M3370 1030 c0 -93 -1 -100 -20 -100 -11 0 -20 -4 -20 -10 0 -15 50
-12 55 3 2 6 5 56 7 110 2 72 0 97 -9 97 -10 0 -13 -27 -13 -100z"/>
<path d="M3160 1015 c0 -63 4 -105 10 -105 6 0 10 20 10 45 0 45 0 45 35 45
32 0 35 -2 35 -30 0 -21 -5 -30 -16 -30 -9 0 -14 -5 -12 -11 2 -6 7 -10 11
-10 4 1 14 1 22 1 12 0 15 18 15 100 l0 100 -55 0 -55 0 0 -105z m90 70 c0
-10 -11 -15 -35 -15 -24 0 -35 5 -35 15 0 10 11 15 35 15 24 0 35 -5 35 -15z
m0 -50 c0 -10 -11 -15 -35 -15 -24 0 -35 5 -35 15 0 10 11 15 35 15 24 0 35
-5 35 -15z"/>
<path d="M3310 1040 c0 -41 4 -60 13 -60 8 0 12 19 12 60 0 41 -4 60 -12 60
-9 0 -13 -19 -13 -60z"/>
<path d="M4880 1090 c0 -5 11 -10 25 -10 18 0 25 -5 25 -20 0 -38 -29 -90 -60
-108 -31 -18 -36 -27 -21 -36 27 -17 101 85 101 138 0 24 4 26 40 26 l40 0 0
-49 c0 -65 -7 -81 -37 -81 -15 0 -23 -5 -21 -12 7 -19 31 -21 53 -4 16 11 20
29 23 90 l4 76 -86 0 c-51 0 -86 -4 -86 -10z"/>
<path d="M2496 1083 c-7 -8 43 -43 62 -43 7 0 10 5 7 10 -9 15 -62 40 -69 33z"/>
<path d="M4270 1071 c0 -5 6 -12 13 -14 6 -3 -21 -6 -60 -6 -42 -1 -73 -5 -73
-11 0 -5 25 -10 56 -10 47 0 55 -2 45 -14 -11 -13 -33 -23 -85 -40 -14 -5 -16
-10 -9 -17 8 -8 20 -6 42 5 l31 17 0 -36 c0 -19 2 -35 5 -35 13 0 75 35 75 43
0 5 -7 6 -15 3 -8 -3 -22 -9 -30 -12 -24 -10 -19 48 5 69 15 13 38 17 90 17
40 0 70 4 70 10 0 6 -25 10 -56 10 -36 0 -61 5 -70 15 -17 17 -34 20 -34 6z"/>
<path d="M4660 1069 c0 -19 47 -65 57 -55 4 3 -7 21 -25 39 -22 22 -32 27 -32
16z"/>
<path d="M2970 1056 c0 -15 24 -66 31 -66 12 0 11 14 -3 45 -9 20 -28 35 -28
21z"/>
<path d="M3487 1030 c-18 -19 -23 -31 -16 -36 6 -3 22 6 35 22 41 51 27 61
-19 14z"/>
<path d="M3044 1033 c-28 -87 -29 -88 -78 -91 -25 -2 -46 -6 -46 -10 0 -9 158
-7 167 2 3 3 -8 6 -25 6 l-32 0 20 50 c23 59 23 60 10 60 -6 0 -13 -8 -16 -17z"/>
<path d="M2930 1025 c0 -21 18 -55 30 -55 11 0 -8 57 -21 66 -5 3 -9 -2 -9
-11z"/>
<path d="M3607 1023 c-5 -8 26 -53 37 -53 3 0 6 6 6 13 0 18 -36 51 -43 40z"/>
<path d="M4296 1012 c-13 -22 103 -98 132 -87 13 5 9 10 -18 21 -45 19 -46 21
-26 43 10 11 13 21 7 25 -5 4 -17 -4 -25 -16 l-16 -22 -24 23 c-13 13 -27 18
-30 13z"/>
<path d="M2823 1003 c-19 -3 -33 -10 -33 -18 0 -10 8 -11 40 -3 22 6 40 14 40
19 0 5 -3 8 -7 7 -5 0 -23 -3 -40 -5z"/>
<path d="M2630 983 c0 -7 33 -31 87 -66 6 -4 14 -3 17 2 3 5 -16 23 -42 40
-50 32 -62 36 -62 24z"/>
<path d="M3175 773 c-14 -32 -33 -65 -41 -74 -13 -15 -13 -17 0 -22 10 -4 21
3 30 21 14 25 15 20 16 -75 0 -150 18 -127 23 30 2 72 7 142 11 155 5 14 4 22
-2 22 -6 0 -22 -26 -37 -57z"/>
<path d="M3292 801 c22 -28 48 -41 48 -23 0 13 -45 52 -59 52 -8 0 -4 -11 11
-29z"/>
<path d="M3510 815 c0 -9 -9 -33 -20 -55 -21 -42 -12 -66 10 -25 19 35 30 31
30 -10 0 -32 -2 -35 -30 -35 -16 0 -30 -4 -30 -10 0 -5 14 -10 30 -10 17 0 30
-4 30 -9 0 -22 -23 -68 -46 -92 -20 -21 -22 -27 -10 -32 16 -7 26 3 51 53 l18
34 23 -27 c14 -17 25 -23 30 -16 3 6 -6 23 -20 38 -33 34 -33 51 -1 51 14 0
25 5 25 10 0 6 -11 10 -25 10 -22 0 -25 4 -25 35 0 28 4 35 20 35 11 0 20 5
20 10 0 6 -16 10 -35 10 -32 0 -35 2 -25 19 13 26 13 31 -5 31 -8 0 -15 -7
-15 -15z"/>
<path d="M3956 788 c-16 -24 -23 -45 -18 -50 5 -5 16 1 26 16 12 20 25 26 51
26 33 0 34 -1 23 -20 -13 -21 -38 -27 -38 -10 0 6 -7 10 -15 10 -14 0 -14 -3
0 -24 16 -23 15 -24 -28 -45 -58 -28 -77 -27 -77 4 0 18 5 25 20 25 17 0 20 7
20 44 l0 44 -50 4 -50 3 0 -47 c0 -41 3 -48 20 -48 18 0 20 -7 20 -70 0 -58
-3 -70 -16 -70 -14 0 -16 9 -12 55 3 40 1 55 -8 55 -13 0 -25 -138 -13 -146
10 -6 119 46 119 57 0 12 -7 11 -31 -1 -17 -10 -19 -7 -19 20 0 23 4 30 20 30
11 0 20 4 20 10 0 5 7 7 15 4 11 -5 15 -23 15 -75 0 -39 4 -69 10 -69 6 0 10
7 10 15 0 11 12 15 45 15 25 0 45 -4 45 -10 0 -5 5 -10 10 -10 6 0 10 28 10
65 l0 64 -62 3 -63 3 32 17 c31 17 33 17 67 -3 19 -11 41 -17 47 -13 8 4 -1
14 -25 26 -20 10 -36 22 -36 26 0 4 9 21 20 37 27 41 26 45 -21 45 -32 0 -40
3 -35 15 12 32 -22 13 -48 -27z m-58 -20 c3 -25 0 -28 -27 -28 -28 0 -31 3
-31 31 0 27 3 30 28 27 21 -2 28 -9 30 -30z m162 -163 c0 -35 0 -35 -45 -35
-45 0 -45 0 -45 35 0 35 0 35 45 35 45 0 45 0 45 -35z"/>
<path d="M3600 800 c0 -6 35 -10 85 -10 50 0 85 4 85 10 0 6 -35 10 -85 10
-50 0 -85 -4 -85 -10z"/>
<path d="M3220 750 c0 -6 40 -10 99 -10 56 0 103 4 106 10 4 6 -32 10 -99 10
-64 0 -106 -4 -106 -10z"/>
<path d="M3615 700 l0 -50 68 0 67 0 0 50 0 50 -67 0 -68 0 0 -50z m115 0 c0
-29 -2 -30 -45 -30 -43 0 -45 1 -45 30 0 29 2 30 45 30 43 0 45 -1 45 -30z"/>
<path d="M3356 678 c-4 -24 -12 -60 -18 -80 -11 -37 -11 -37 -72 -41 -34 -2
-7 -3 59 -3 66 0 98 1 72 3 -39 3 -47 7 -43 21 3 9 10 37 16 62 6 25 13 53 16
63 3 10 0 17 -9 17 -9 0 -17 -15 -21 -42z"/>
<path d="M3252 699 c26 -90 34 -109 46 -109 14 0 13 5 -13 79 -11 33 -42 60
-33 30z"/>
<path d="M3700 598 c-15 -43 -16 -43 -67 -46 -91 -5 -58 -22 42 -22 57 0 95 4
95 10 0 6 -16 10 -35 10 l-35 0 19 39 c18 35 19 51 2 51 -4 0 -13 -19 -21 -42z"/>
<path d="M3620 625 c0 -12 24 -55 32 -55 11 0 10 4 -4 35 -9 21 -28 35 -28 20z"/>
<path d="M4188 609 c-33 -19 -13 -79 26 -79 10 0 36 32 36 45 0 14 -27 45 -38
45 -4 0 -15 -5 -24 -11z m47 -34 c0 -22 -31 -33 -47 -17 -17 17 -1 44 24 40
15 -2 23 -10 23 -23z"/>
<path d="M3660 430 c0 -30 -2 -32 -30 -28 -16 3 -30 1 -30 -4 0 -4 14 -8 30
-8 25 0 30 -4 30 -25 0 -22 -4 -25 -40 -25 -22 0 -40 -3 -40 -7 0 -5 43 -8 95
-8 96 0 131 11 53 17 -35 2 -43 7 -43 23 0 15 9 21 35 26 l35 6 -35 4 c-29 3
-35 8 -35 28 0 14 -6 26 -13 29 -8 2 -12 -7 -12 -28z"/>
<path d="M2514 432 c-2 -9 -18 -43 -34 -74 -29 -57 -26 -89 4 -46 15 21 16 16
16 -75 0 -58 4 -97 10 -97 6 0 10 49 10 128 0 97 4 133 15 149 13 19 13 22 -1
27 -9 3 -17 -1 -20 -12z"/>
<path d="M2640 430 c0 -17 -7 -20 -50 -20 -27 0 -50 -4 -50 -10 0 -5 23 -10
51 -10 43 0 50 -3 47 -17 -2 -13 -14 -19 -41 -21 -36 -3 -37 -4 -37 -43 0 -39
0 -39 39 -39 34 0 38 -2 34 -20 -5 -20 -7 -20 -24 -4 -16 14 -19 14 -19 3 0
-8 6 -21 13 -28 12 -13 -1 -28 -49 -57 -11 -7 -14 -13 -7 -17 6 -4 27 4 47 18
l36 24 52 -24 c28 -13 55 -22 60 -19 17 11 7 22 -25 28 -54 10 -77 31 -68 63
6 23 14 29 43 31 34 3 36 5 40 43 l4 39 -38 0 c-31 0 -38 4 -38 20 0 17 7 20
45 20 25 0 45 5 45 10 0 6 -20 10 -45 10 -38 0 -45 3 -45 20 0 11 -4 20 -10
20 -5 0 -10 -9 -10 -20z m-2 -117 c3 -20 -1 -23 -27 -23 -27 0 -31 4 -31 26 0
22 4 25 28 22 19 -2 28 -9 30 -25z m72 2 c0 -20 -5 -25 -25 -25 -20 0 -25 5
-25 25 0 20 5 25 25 25 20 0 25 -5 25 -25z"/>
<path d="M2870 425 c0 -21 -5 -25 -30 -25 -16 0 -30 -4 -30 -10 0 -5 14 -10
30 -10 l30 0 0 -70 0 -70 -34 0 c-19 0 -38 -5 -41 -10 -4 -6 28 -10 90 -10 55
0 94 -4 91 -9 -8 -12 83 -63 97 -54 5 3 -12 18 -39 32 l-49 26 53 3 c58 3 72
22 17 22 l-35 0 0 70 0 70 30 0 c17 0 30 5 30 10 0 6 -13 10 -30 10 -25 0 -30
4 -30 25 0 14 -4 25 -10 25 -5 0 -10 -11 -10 -25 0 -24 -3 -25 -56 -25 -55 0
-56 1 -52 25 4 17 1 25 -8 25 -8 0 -14 -11 -14 -25z m130 -60 c0 -12 -13 -15
-55 -15 -42 0 -55 3 -55 15 0 12 13 15 55 15 42 0 55 -3 55 -15z m-2 -52 c-2
-14 -15 -19 -56 -21 -47 -3 -52 -1 -52 17 0 19 6 21 56 21 47 0 55 -3 52 -17z
m0 -55 c3 -15 -5 -18 -52 -18 -50 0 -56 2 -56 21 0 18 5 20 52 17 41 -2 54 -7
56 -20z"/>
<path d="M3194 424 c-4 -14 -22 -48 -40 -75 -24 -34 -30 -49 -20 -49 8 0 18 5
21 10 3 6 11 10 17 10 7 0 9 -29 6 -90 -4 -63 -2 -90 6 -90 8 0 10 33 8 109
-3 92 -1 115 16 149 11 23 17 43 14 46 -12 12 -22 5 -28 -20z"/>
<path d="M3520 415 c0 -32 -2 -35 -30 -35 -16 0 -30 -4 -30 -10 0 -5 14 -10
30 -10 28 0 30 -3 30 -36 0 -30 -4 -37 -30 -45 -35 -13 -29 -34 6 -25 23 6 24
4 24 -44 0 -38 -4 -50 -15 -50 -8 0 -15 -4 -15 -10 0 -16 37 -11 44 6 3 9 6
40 6 70 0 39 4 56 15 60 8 4 15 13 15 21 0 13 -3 13 -15 3 -13 -11 -15 -8 -15
19 0 24 4 31 20 31 11 0 20 5 20 10 0 6 -9 10 -21 10 -18 0 -21 5 -17 35 3 24
0 35 -9 35 -8 0 -13 -13 -13 -35z"/>
<path d="M3991 408 c27 -55 87 -118 105 -111 10 4 1 17 -30 45 -25 21 -51 54
-58 73 -6 19 -18 35 -25 35 -10 0 -8 -11 8 -42z"/>
<path d="M4200 415 c-6 -18 -22 -50 -36 -70 -28 -42 -22 -71 7 -34 18 24 19
23 19 -73 0 -59 4 -98 10 -98 6 0 10 47 10 120 0 87 4 129 15 149 13 27 11 41
-6 41 -4 0 -13 -16 -19 -35z"/>
<path d="M4290 442 c0 -14 49 -56 57 -49 3 4 -4 18 -17 32 -24 25 -40 32 -40
17z"/>
<path d="M4560 364 c0 -47 -4 -83 -9 -80 -12 8 -73 -72 -66 -85 4 -6 21 8 38
33 l32 43 3 -68 c2 -37 7 -67 12 -67 6 0 10 4 10 10 0 5 6 7 14 4 17 -7 61 49
79 101 l14 39 12 -35 c20 -57 59 -109 77 -102 13 5 11 10 -10 32 -25 26 -65
105 -66 129 0 8 16 12 45 12 25 0 45 5 45 10 0 6 -23 10 -51 10 l-52 0 5 50
c4 38 2 50 -8 50 -10 0 -14 -15 -14 -50 l0 -50 -35 0 c-19 0 -35 -4 -35 -10 0
-5 16 -10 35 -10 34 0 35 -1 29 -27 -16 -64 -54 -133 -75 -133 -5 0 -9 60 -9
140 0 87 -4 140 -10 140 -6 0 -10 -35 -10 -86z"/>
<path d="M4950 425 c0 -24 -3 -25 -60 -25 -33 0 -60 -4 -60 -10 0 -5 25 -10
56 -10 l55 0 -21 -30 c-12 -17 -36 -38 -53 -46 -40 -21 -40 -21 -33 -33 10
-16 82 35 107 75 26 42 38 42 64 1 22 -34 82 -80 99 -74 21 7 15 25 -11 32
-28 6 -83 51 -83 67 0 4 23 8 50 8 28 0 50 5 50 10 0 6 -30 10 -71 10 -71 0
-71 0 -65 25 5 18 2 25 -9 25 -9 0 -15 -9 -15 -25z"/>
<path d="M3885 400 c-10 -23 -33 -54 -52 -70 -19 -17 -28 -32 -22 -36 14 -8
54 30 89 87 26 43 29 59 10 59 -4 0 -15 -18 -25 -40z"/>
<path d="M3250 380 c0 -49 1 -50 30 -50 20 0 30 -5 30 -15 0 -11 -12 -15 -45
-15 -25 0 -45 -4 -45 -10 0 -5 16 -10 35 -10 19 0 35 -5 35 -11 0 -6 -18 -29
-39 -50 -24 -24 -35 -42 -28 -46 6 -3 28 13 49 37 l38 43 0 -57 c0 -31 5 -56
10 -56 6 0 10 26 10 57 l0 57 36 -42 c19 -23 42 -42 50 -42 22 0 17 10 -26 50
-51 47 -51 60 1 60 24 0 38 4 34 10 -3 6 -26 10 -51 10 -32 0 -44 4 -44 15 0
10 11 15 35 15 l35 0 0 50 0 50 -75 0 -75 0 0 -50z m130 0 c0 -30 -1 -30 -55
-30 -54 0 -55 0 -55 30 0 30 1 30 55 30 54 0 55 0 55 -30z"/>
<path d="M4720 413 c0 -4 7 -17 15 -27 17 -23 34 -13 19 11 -12 19 -34 29 -34
16z"/>
<path d="M4490 383 c1 -10 36 -53 44 -53 13 0 5 28 -12 43 -20 18 -32 22 -32
10z"/>
<path d="M4235 370 c3 -6 50 -10 106 -10 59 0 99 4 99 10 0 6 -42 10 -106 10
-67 0 -103 -4 -99 -10z"/>
<path d="M4377 333 c-4 -3 -7 -16 -7 -28 0 -12 -7 -44 -15 -73 l-15 -51 -63
-4 c-34 -2 -8 -3 58 -3 66 0 101 1 78 3 -50 5 -51 10 -24 101 14 46 16 62 7
62 -7 0 -16 -3 -19 -7z"/>
<path d="M3870 320 c0 -5 12 -10 26 -10 24 0 25 -2 19 -32 -11 -51 -34 -88
-60 -100 -25 -11 -30 -20 -19 -31 10 -10 63 32 78 62 8 15 17 43 21 64 7 35 9
37 47 37 l39 0 -7 -57 c-8 -69 -10 -73 -35 -73 -10 0 -19 -7 -19 -15 0 -16 27
-20 49 -6 14 9 29 79 30 139 l1 32 -85 0 c-50 0 -85 -4 -85 -10z"/>
<path d="M4260 328 c3 -24 41 -113 49 -116 15 -5 14 2 -6 65 -9 29 -23 53 -30
53 -7 0 -13 -1 -13 -2z"/>
<path d="M4946 322 c-3 -6 5 -17 19 -26 29 -19 33 -7 6 18 -11 10 -22 13 -25
8z"/>
<path d="M3700 300 c0 -18 -7 -20 -61 -20 -37 0 -58 -4 -54 -10 3 -5 31 -10
61 -10 l54 0 0 -45 c0 -34 -4 -45 -16 -45 -9 0 -14 -6 -11 -12 2 -7 12 -13 23
-13 16 0 19 9 22 58 3 48 6 57 22 57 28 0 34 18 8 22 -16 2 -22 9 -20 21 2 10
-3 17 -13 17 -8 0 -15 -9 -15 -20z"/>
<path d="M4950 253 c0 -5 12 -16 25 -26 21 -15 25 -16 25 -3 0 8 -9 20 -19 26
-23 12 -31 13 -31 3z"/>
<path d="M3625 220 c10 -11 23 -20 28 -20 6 0 2 9 -8 20 -10 11 -23 20 -28 20
-6 0 -2 -9 8 -20z"/>
<path d="M4843 205 c-12 -19 -18 -37 -13 -40 9 -6 50 50 50 68 0 16 -16 4 -37
-28z"/>
<path d="M4910 201 c0 -31 5 -43 21 -51 25 -14 93 -4 110 16 18 22 4 28 -24 9
-14 -9 -38 -15 -54 -13 -24 3 -28 7 -29 37 0 19 -5 36 -12 39 -8 2 -12 -10
-12 -37z"/>
<path d="M5060 232 c0 -5 11 -19 25 -32 19 -18 25 -20 25 -8 0 8 -8 22 -18 31
-20 19 -32 22 -32 9z"/>
<path d="M2886 201 c-3 -5 -22 -16 -42 -26 -25 -12 -33 -20 -26 -27 7 -7 25
-2 56 18 25 16 46 32 46 37 0 10 -28 9 -34 -2z"/>
<path d="M5505 1200 c18 -20 17 -20 -48 -20 l-67 0 0 -30 c0 -16 5 -30 10 -30
6 0 10 9 10 20 0 19 7 20 116 20 111 0 115 -1 109 -20 -4 -14 -2 -20 8 -20 9
0 14 11 14 30 0 29 -2 30 -49 30 -35 0 -54 6 -68 20 -11 11 -27 20 -37 20 -14
0 -14 -2 2 -20z"/>
<path d="M6089 1178 c-20 -21 -32 -41 -27 -45 15 -8 85 65 73 76 -6 5 -24 -7
-46 -31z"/>
<path d="M6640 1080 c0 -118 -2 -140 -15 -140 -8 0 -15 -7 -15 -15 0 -16 17
-19 37 -7 17 11 23 302 6 302 -10 0 -13 -35 -13 -140z"/>
<path d="M6783 1189 c-3 -18 -13 -34 -22 -36 -13 -3 -16 -22 -16 -118 0 -85 3
-115 13 -115 6 0 11 6 10 13 -4 15 51 22 65 8 22 -22 27 -9 27 74 0 68 3 83
14 79 9 -3 17 3 21 15 5 17 15 21 51 21 l44 0 0 -90 0 -91 -30 -13 c-31 -13
-30 -26 1 -26 40 0 49 26 49 136 l0 104 -46 0 c-48 0 -48 0 -27 58 3 6 -2 12
-10 12 -9 0 -17 -13 -21 -34 -4 -19 -15 -45 -26 -58 l-19 -23 -1 23 c0 18 -5
22 -35 22 -33 0 -34 1 -25 26 13 32 13 44 0 44 -6 0 -13 -14 -17 -31z m57 -94
c0 -34 -1 -35 -40 -35 -39 0 -40 1 -40 35 0 34 1 35 40 35 39 0 40 -1 40 -35z
m-2 -92 c-3 -36 -5 -38 -38 -38 -33 0 -35 2 -38 38 l-3 37 41 0 41 0 -3 -37z"/>
<path d="M7180 1195 c0 -23 -3 -25 -47 -25 l-48 0 0 -85 0 -85 48 0 c41 0 47
-3 47 -21 0 -48 16 -59 90 -59 60 0 71 3 81 21 7 14 7 25 1 31 -7 7 -12 3 -17
-11 -4 -13 -18 -23 -42 -27 -52 -10 -87 5 -91 39 -3 27 -2 27 52 27 l56 0 0
85 0 85 -56 0 c-55 0 -56 1 -50 25 5 18 2 25 -9 25 -9 0 -15 -9 -15 -25z m0
-70 c0 -22 -4 -25 -35 -25 -31 0 -35 3 -35 25 0 22 4 25 35 25 31 0 35 -3 35
-25z m110 0 c0 -23 -4 -25 -45 -25 -41 0 -45 2 -45 25 0 23 4 25 45 25 41 0
45 -2 45 -25z m-110 -75 c0 -28 -3 -30 -35 -30 -32 0 -35 2 -35 30 0 28 3 30
35 30 32 0 35 -2 35 -30z m110 0 c0 -29 -2 -30 -45 -30 -40 0 -45 2 -45 23 0
32 7 37 52 37 36 0 38 -2 38 -30z"/>
<path d="M7841 1178 c-19 -21 -52 -48 -74 -60 -27 -14 -36 -23 -29 -30 13 -13
63 17 111 66 l34 35 38 -34 c47 -42 96 -68 111 -59 6 4 -5 15 -28 27 -56 29
-104 67 -104 83 0 25 -24 13 -59 -28z"/>
<path d="M6170 1155 l0 -55 75 0 75 0 0 55 0 55 -75 0 -75 0 0 -55z m130 20
c0 -12 -13 -15 -55 -15 -42 0 -55 3 -55 15 0 12 13 15 55 15 42 0 55 -3 55
-15z m0 -45 c0 -5 -25 -10 -55 -10 -30 0 -55 5 -55 10 0 6 25 10 55 10 30 0
55 -4 55 -10z"/>
<path d="M5720 1061 c0 -186 19 -198 22 -14 3 135 4 138 26 141 25 4 27 -9 8
-53 -10 -24 -10 -34 -1 -50 7 -11 15 -32 19 -47 5 -24 3 -28 -14 -28 -19 0
-26 -11 -14 -23 10 -10 35 5 44 27 5 13 2 35 -7 58 -15 37 -14 47 12 111 6 15
1 17 -44 17 l-51 0 0 -139z"/>
<path d="M5840 1190 c0 -6 32 -10 75 -10 43 0 75 4 75 10 0 6 -32 10 -75 10
-43 0 -75 -4 -75 -10z"/>
<path d="M6395 1190 c3 -5 17 -10 31 -10 30 0 30 -5 -1 -46 -14 -18 -25 -37
-25 -43 0 -10 55 -8 112 4 10 2 21 -1 24 -6 8 -13 24 -11 24 4 -1 15 -49 71
-56 64 -3 -3 -1 -15 6 -26 10 -20 8 -21 -35 -21 l-46 0 27 35 c21 28 33 35 60
35 18 0 36 5 39 10 4 6 -25 10 -80 10 -55 0 -84 -4 -80 -10z"/>
<path d="M7438 1088 c-3 -69 -10 -114 -21 -135 -11 -20 -13 -34 -7 -38 19 -12
43 69 48 163 l5 92 113 0 c69 0 114 4 114 10 0 6 -48 10 -124 10 l-123 0 -5
-102z"/>
<path d="M6582 1095 c2 -47 7 -84 11 -83 5 2 9 40 10 86 2 61 -1 82 -11 82
-10 0 -12 -21 -10 -85z"/>
<path d="M5528 1092 l-3 -57 -72 -3 c-91 -4 -97 -22 -8 -22 36 0 65 -4 65 -9
0 -13 -53 -49 -90 -63 -20 -6 -28 -14 -22 -20 14 -14 74 15 114 56 33 34 39
36 97 36 39 0 60 4 56 10 -3 6 -31 10 -62 10 l-55 0 4 55 c2 36 -1 56 -9 59
-8 4 -13 -13 -15 -52z"/>
<path d="M7560 1115 c0 -34 -1 -35 -40 -35 -22 0 -40 -4 -40 -10 0 -5 18 -10
40 -10 l40 0 0 -60 0 -60 -57 0 c-31 0 -54 -3 -51 -6 6 -5 238 -8 256 -3 4 2
-22 5 -58 8 l-65 6 0 55 0 55 43 3 c53 4 45 22 -10 22 l-41 0 6 35 c4 26 2 35
-9 35 -9 0 -14 -11 -14 -35z"/>
<path d="M5465 1105 c32 -26 45 -31 45 -16 0 13 -41 41 -60 41 -9 0 -4 -9 15
-25z"/>
<path d="M6086 1084 c-39 -45 -43 -73 -6 -39 20 18 20 18 20 -58 0 -45 4 -77
10 -77 6 0 10 36 10 89 0 66 4 93 15 105 18 18 19 26 3 26 -7 -1 -30 -21 -52
-46z"/>
<path d="M5820 1100 c0 -5 18 -10 40 -10 l40 0 0 -71 c0 -62 -2 -71 -20 -76
-11 -3 -20 -12 -20 -19 0 -17 1 -17 34 -4 25 9 26 13 26 90 l0 80 45 0 c25 0
45 5 45 10 0 6 -38 10 -95 10 -57 0 -95 -4 -95 -10z"/>
<path d="M7810 1090 c0 -6 31 -10 74 -10 41 0 78 5 81 10 4 6 -23 10 -74 10
-47 0 -81 -4 -81 -10z"/>
<path d="M5416 1083 c-7 -8 43 -43 62 -43 7 0 10 5 7 10 -9 15 -62 40 -69 33z"/>
<path d="M6470 1060 c0 -16 -7 -20 -35 -20 -19 0 -35 -4 -35 -10 0 -5 16 -10
35 -10 32 0 35 -2 35 -30 0 -28 -2 -30 -40 -30 -30 0 -40 -4 -40 -16 0 -12 6
-15 23 -11 12 3 48 9 80 12 31 4 60 12 63 17 4 7 -7 9 -30 6 -34 -4 -36 -2
-36 24 0 24 4 28 30 28 17 0 30 5 30 10 0 6 -13 10 -30 10 -23 0 -30 4 -30 20
0 11 -4 20 -10 20 -5 0 -10 -9 -10 -20z"/>
<path d="M6907 1074 c-8 -8 30 -64 44 -64 14 0 10 13 -14 43 -13 15 -26 25
-30 21z"/>
<path d="M6150 1062 c0 -4 28 -7 62 -7 40 0 63 -4 65 -12 4 -10 -14 -13 -66
-13 -41 0 -71 -4 -71 -10 0 -6 30 -10 70 -10 l70 0 0 -36 c0 -27 -5 -37 -20
-41 -30 -8 -24 -25 8 -21 25 3 27 7 30 51 3 42 5 47 28 47 13 0 24 5 24 10 0
6 -11 10 -25 10 -16 0 -25 6 -25 16 0 11 6 14 20 9 11 -4 20 -2 20 4 0 7 -34
11 -95 11 -52 0 -95 -3 -95 -8z"/>
<path d="M5827 1000 c-17 -26 -21 -40 -13 -40 7 0 25 18 40 40 18 27 22 40 13
40 -7 0 -25 -18 -40 -40z"/>
<path d="M5940 1033 c1 -15 58 -74 63 -66 7 10 -40 73 -54 73 -5 0 -9 -3 -9
-7z"/>
<path d="M7750 1030 c0 -5 26 -10 58 -10 l57 0 -47 -45 c-25 -25 -42 -47 -37
-50 5 -4 47 -3 94 1 63 5 89 3 100 -6 34 -28 26 3 -10 40 -37 37 -74 47 -40
10 15 -16 14 -18 -7 -24 -13 -3 -41 -6 -63 -6 l-40 1 37 34 c20 18 34 36 30
39 -3 3 27 6 66 6 41 0 72 4 72 10 0 6 -52 10 -135 10 -83 0 -135 -4 -135 -10z"/>
<path d="M7630 1000 c20 -28 40 -40 40 -22 -1 13 -38 52 -50 52 -6 0 -2 -13
10 -30z"/>
<path d="M6186 992 c-7 -12 29 -45 44 -40 6 2 1 13 -13 26 -14 13 -28 19 -31
14z"/>
<path d="M5550 983 c0 -7 33 -31 87 -66 6 -4 14 -3 17 2 3 5 -16 23 -42 40
-50 32 -62 36 -62 24z"/>
<path d="M6646 774 c-17 -17 -22 -44 -7 -44 5 0 11 9 14 20 6 23 55 28 75 8
23 -23 12 -49 -48 -113 -33 -35 -60 -69 -60 -75 0 -6 29 -10 70 -10 84 0 94
18 13 22 l-58 3 43 40 c71 65 89 116 54 148 -23 21 -76 22 -96 1z"/>
<path d="M6896 774 c-17 -17 -22 -44 -7 -44 5 0 11 9 14 20 6 23 55 28 75 8
23 -23 12 -49 -48 -113 -33 -35 -60 -69 -60 -75 0 -6 29 -10 70 -10 84 0 94
18 13 22 l-58 3 43 40 c71 65 89 116 54 148 -23 21 -76 22 -96 1z"/>
<path d="M6430 735 c0 -5 12 -22 27 -37 l27 -28 -29 -30 c-16 -16 -26 -32 -23
-35 2 -3 15 6 28 20 29 31 41 31 70 0 13 -14 26 -23 28 -20 3 3 -7 19 -23 35
l-29 30 29 30 c16 17 24 30 18 30 -5 0 -18 -9 -28 -20 -24 -26 -33 -25 -67 7
-15 15 -28 23 -28 18z"/>
<path d="M6810 575 c0 -8 5 -15 10 -15 6 0 10 7 10 15 0 8 -4 15 -10 15 -5 0
-10 -7 -10 -15z"/>
<path d="M5876 453 c-3 -4 1 -15 11 -25 15 -17 13 -18 -51 -18 l-68 0 3 -33
c2 -18 0 -37 -4 -43 -3 -6 2 -19 13 -29 22 -20 18 -35 -11 -35 -10 0 -19 -7
-19 -15 0 -20 8 -19 58 10 23 13 42 21 42 17 0 -9 97 -8 106 0 3 4 20 -2 37
-13 18 -10 38 -19 45 -19 23 0 12 16 -24 33 -36 18 -38 24 -19 70 6 14 2 17
-23 17 -17 0 -37 3 -46 6 -23 9 -20 -18 4 -49 11 -14 20 -28 20 -31 0 -3 -20
-6 -45 -6 -25 0 -45 3 -45 6 0 3 9 17 20 31 28 36 25 43 -15 43 -26 0 -33 3
-29 15 5 12 25 15 90 15 77 0 84 -2 84 -20 0 -11 5 -20 10 -20 6 0 10 11 10
25 0 24 -3 25 -55 25 -38 0 -55 4 -55 13 0 14 -35 39 -44 30z m-56 -62 c0 -5
-7 -14 -15 -21 -13 -10 -15 -9 -15 9 0 12 6 21 15 21 8 0 15 -4 15 -9z m44
-56 c-7 -18 -16 -19 -33 -2 -11 10 -12 8 -6 -10 6 -23 -8 -32 -20 -13 -4 6
-12 7 -18 3 -7 -3 -3 3 7 15 23 26 79 31 70 7z m106 6 c0 -17 -18 -21 -24 -6
-3 9 0 15 9 15 8 0 15 -4 15 -9z"/>
<path d="M6490 437 c0 -7 -16 -39 -35 -72 -37 -61 -39 -81 -5 -50 20 18 20 18
20 -78 0 -58 4 -97 10 -97 6 0 10 48 10 123 1 87 5 129 15 147 18 32 18 40 0
40 -8 0 -15 -6 -15 -13z"/>
<path d="M6590 441 c0 -6 10 -17 22 -25 21 -15 19 -16 -40 -16 -35 0 -62 -4
-62 -10 0 -6 43 -10 110 -10 67 0 110 4 110 10 0 6 -21 10 -46 10 -25 0 -43 4
-39 9 3 5 -5 17 -17 25 -26 18 -38 20 -38 7z"/>
<path d="M7227 415 c-15 -19 -48 -46 -73 -61 -30 -18 -42 -30 -35 -37 11 -11
55 16 108 66 l33 31 22 -21 c47 -42 107 -75 125 -68 14 5 8 12 -32 32 -57 29
-95 61 -95 80 0 24 -24 14 -53 -22z"/>
<path d="M7500 415 c0 -31 -3 -35 -25 -35 -14 0 -25 -4 -25 -10 0 -5 11 -10
25 -10 22 0 25 -4 25 -40 0 -34 -4 -41 -25 -46 -14 -3 -25 -9 -25 -13 0 -16
13 -20 31 -10 17 9 19 6 19 -35 0 -37 -4 -45 -20 -48 -12 -2 -17 -7 -12 -15 4
-7 17 -10 30 -6 20 5 22 12 22 64 0 48 4 60 20 69 11 6 20 15 20 19 0 5 -9 7
-20 4 -17 -5 -20 0 -20 26 0 26 4 31 25 31 14 0 25 5 25 10 0 6 -12 10 -26 10
-25 0 -26 2 -21 35 4 26 2 35 -9 35 -9 0 -14 -11 -14 -35z"/>
<path d="M7916 421 c-19 -35 -69 -79 -102 -87 -13 -3 -24 -9 -24 -13 0 -33 59
-5 114 53 l38 41 16 -23 c24 -36 100 -85 120 -77 13 5 7 12 -29 30 -44 23 -99
76 -99 96 0 19 -20 8 -34 -20z"/>
<path d="M5550 350 c0 -53 4 -90 10 -90 6 0 10 33 10 80 l0 80 51 0 51 0 -3
-72 c-2 -40 0 -74 5 -76 4 -1 8 36 9 83 l2 85 -67 0 -68 0 0 -90z"/>
<path d="M6248 433 c-55 -4 -84 -23 -34 -23 56 0 145 14 140 21 -3 5 -15 8
-27 7 -12 -1 -48 -3 -79 -5z"/>
<path d="M6100 418 c1 -15 49 -53 57 -44 7 7 -15 34 -39 47 -13 7 -18 6 -18
-3z"/>
<path d="M7585 285 c0 -109 3 -145 13 -145 6 0 12 5 12 11 0 5 5 7 10 4 6 -4
23 1 37 10 24 16 28 16 55 1 15 -10 33 -14 39 -10 6 3 -2 14 -20 25 -36 22
-36 24 -16 72 8 20 15 41 15 47 0 6 -25 10 -60 10 l-60 0 0 50 0 50 46 0 c41
0 45 -2 42 -22 -2 -15 -11 -24 -26 -26 -13 -2 -21 -9 -19 -15 4 -12 47 -11 58
1 4 4 9 24 12 45 l6 37 -72 0 -72 0 0 -145z m57 -41 c22 -45 22 -46 3 -60 -31
-23 -35 -17 -35 46 0 33 2 60 4 60 3 0 15 -21 28 -46z m58 39 c-1 -21 -13 -53
-21 -53 -5 0 -15 14 -24 30 l-16 30 31 0 c16 0 30 -3 30 -7z"/>
<path d="M5410 410 c0 -5 21 -10 46 -10 l46 0 -7 -37 c-9 -51 -12 -52 -40 -18
-32 41 -43 24 -11 -18 14 -19 26 -37 26 -40 0 -4 -14 -22 -30 -41 -17 -19 -26
-37 -21 -40 5 -4 22 10 38 29 l30 35 11 -25 c7 -15 17 -23 22 -20 7 4 4 18 -8
37 -18 28 -18 34 -6 76 24 78 22 82 -41 82 -30 0 -55 -4 -55 -10z"/>
<path d="M6330 380 c-25 -36 -13 -40 19 -6 13 14 18 26 13 30 -6 3 -20 -7 -32
-24z"/>
<path d="M6788 399 c-21 -12 -24 -69 -6 -87 9 -9 8 -16 -5 -30 -42 -46 5 -120
67 -108 16 3 35 11 43 17 19 17 17 86 -4 97 -16 9 -16 11 0 27 22 22 22 58 -1
78 -21 19 -68 22 -94 6z m72 -9 c15 0 22 -38 10 -60 -12 -22 -49 -27 -68 -8
-29 29 0 86 36 73 8 -3 17 -5 22 -5z m8 -112 c7 -7 12 -24 12 -38 0 -14 -5
-31 -12 -38 -28 -28 -88 -2 -88 38 0 40 60 66 88 38z"/>
<path d="M6953 384 c-16 -25 -16 -28 0 -57 16 -27 16 -31 2 -47 -19 -21 -19
-60 -1 -85 20 -27 92 -27 112 0 18 25 18 64 -1 85 -14 16 -14 20 2 47 16 29
16 32 0 57 -14 21 -25 26 -57 26 -32 0 -43 -5 -57 -26z m81 3 c12 -9 17 -23
14 -42 -2 -25 -8 -31 -33 -33 -19 -3 -33 2 -42 14 -17 24 -17 30 7 54 24 24
30 24 54 7z m19 -118 c28 -44 -25 -95 -72 -69 -24 12 -29 58 -9 78 17 17 68
11 81 -9z"/>
<path d="M6250 393 c1 -14 27 -43 33 -37 8 9 -11 44 -23 44 -6 0 -10 -3 -10
-7z"/>
<path d="M6190 385 c0 -3 5 -14 12 -25 10 -15 9 -23 -7 -40 -19 -21 -13 -42 7
-22 17 17 58 15 58 -3 0 -11 -12 -15 -45 -15 -25 0 -45 -4 -45 -10 0 -5 20
-10 45 -10 41 0 45 -2 45 -25 0 -19 -5 -25 -21 -25 -16 0 -20 5 -16 20 3 13 0
20 -9 20 -9 0 -14 -11 -14 -30 0 -30 0 -30 58 -30 31 0 67 -3 80 -6 20 -6 22
-3 22 30 0 39 -14 49 -23 16 -3 -14 -14 -20 -31 -20 -21 0 -26 5 -26 25 0 23
3 25 50 25 28 0 50 5 50 10 0 6 -22 10 -50 10 -38 0 -50 4 -50 15 0 10 11 15
35 15 19 0 35 5 35 10 0 6 -27 10 -61 10 -33 0 -58 4 -55 8 6 11 -21 52 -35
52 -5 0 -9 -2 -9 -5z"/>
<path d="M5603 330 c-3 -72 -36 -125 -98 -158 -19 -10 -19 -11 -2 -18 21 -8
47 13 88 69 l28 38 3 -53 3 -53 34 0 c34 0 63 26 47 42 -4 4 -12 0 -17 -10 -6
-9 -19 -17 -29 -17 -17 0 -20 7 -20 55 0 34 -4 55 -11 55 -8 0 -10 16 -5 50 5
37 3 50 -6 50 -9 0 -14 -17 -15 -50z"/>
<path d="M6540 340 c0 -6 33 -10 80 -10 47 0 80 4 80 10 0 6 -33 10 -80 10
-47 0 -80 -4 -80 -10z"/>
<path d="M6080 320 c0 -5 11 -10 25 -10 24 0 25 -3 25 -55 0 -44 -4 -57 -20
-67 -11 -7 -20 -18 -20 -25 0 -17 10 -16 31 3 15 14 20 14 46 1 41 -21 107
-30 169 -22 84 10 63 24 -33 22 -56 -1 -100 3 -120 12 -33 13 -33 14 -33 82
l0 69 -35 0 c-19 0 -35 -4 -35 -10z"/>
<path d="M7180 320 c0 -6 33 -10 80 -10 47 0 80 4 80 10 0 6 -33 10 -80 10
-47 0 -80 -4 -80 -10z"/>
<path d="M7860 320 c0 -6 33 -10 80 -10 47 0 80 4 80 10 0 6 -33 10 -80 10
-47 0 -80 -4 -80 -10z"/>
<path d="M6540 290 c0 -6 33 -10 80 -10 47 0 80 4 80 10 0 6 -33 10 -80 10
-47 0 -80 -4 -80 -10z"/>
<path d="M7130 260 c0 -5 26 -10 58 -10 l57 -1 -47 -44 c-27 -24 -48 -46 -48
-50 0 -3 43 -3 95 1 67 5 99 3 109 -5 8 -7 17 -8 20 -3 3 5 -12 26 -33 46 -21
21 -41 33 -45 28 -3 -5 2 -16 10 -23 15 -12 14 -14 -7 -20 -13 -4 -43 -7 -67
-8 l-43 -1 42 40 c39 37 46 40 101 40 32 0 58 4 58 10 0 6 -50 10 -130 10 -80
0 -130 -4 -130 -10z"/>
<path d="M7850 205 c0 -37 4 -65 10 -65 6 0 10 5 10 10 0 6 32 10 75 10 43 0
75 -4 75 -10 0 -5 5 -10 10 -10 6 0 10 28 10 65 l0 65 -95 0 -95 0 0 -65z
m170 10 l0 -35 -75 0 -75 0 0 35 0 35 75 0 75 0 0 -35z"/>
<path d="M5790 240 c0 -5 23 -10 50 -10 l50 0 0 -34 c0 -27 -5 -35 -20 -38
-14 -2 -17 -7 -11 -17 7 -10 13 -11 30 -2 16 9 21 21 21 51 l0 40 50 0 c28 0
50 5 50 10 0 6 -43 10 -110 10 -67 0 -110 -4 -110 -10z"/>
<path d="M6540 195 c0 -30 5 -55 10 -55 6 0 10 5 10 10 0 6 27 10 60 10 33 0
60 -4 60 -10 0 -5 5 -10 10 -10 6 0 10 25 10 55 l0 55 -80 0 -80 0 0 -55z
m140 10 c0 -24 -3 -25 -60 -25 -57 0 -60 1 -60 25 0 24 3 25 60 25 57 0 60 -1
60 -25z"/>
<path d="M5815 200 c-10 -11 -26 -22 -37 -26 -13 -4 -17 -9 -10 -16 12 -12 95
39 86 53 -8 14 -19 11 -39 -11z"/>
<path d="M5940 211 c0 -14 78 -62 85 -51 3 5 -11 20 -32 34 -40 27 -53 32 -53
17z"/>
<path d="M9700 810 c0 -26 -4 -29 -37 -33 l-38 -4 38 -1 c32 -2 37 -5 37 -27
0 -22 -4 -25 -40 -25 -22 0 -40 -3 -40 -7 0 -5 43 -8 95 -8 52 0 95 3 95 8 0
4 -20 7 -45 7 -41 0 -45 2 -45 24 0 21 5 25 38 29 l37 4 -39 1 c-35 2 -38 4
-34 26 3 15 0 27 -8 30 -10 4 -14 -3 -14 -24z"/>
<path d="M9966 814 c-6 -22 -11 -24 -61 -24 -30 0 -55 -4 -55 -10 0 -5 23 -10
51 -10 l51 0 -17 -27 c-17 -27 -30 -40 -69 -68 -10 -7 -15 -18 -11 -24 4 -7
18 -2 41 15 l34 26 0 -86 c0 -51 4 -86 10 -86 6 0 10 18 10 40 l0 40 60 0 c57
0 60 -1 60 -25 0 -18 -5 -25 -20 -25 -11 0 -20 -7 -20 -15 0 -18 31 -20 48 -3
8 8 12 46 12 105 l0 93 -65 0 c-36 0 -65 2 -65 4 0 30 15 36 96 36 49 0 84 4
84 10 0 6 -33 10 -80 10 -76 0 -80 1 -71 19 8 14 7 20 -3 24 -9 4 -16 -3 -20
-19z m104 -119 c0 -12 -13 -15 -60 -15 -47 0 -60 3 -60 15 0 12 13 15 60 15
47 0 60 -3 60 -15z m0 -55 c0 -18 -7 -20 -60 -20 -53 0 -60 2 -60 20 0 18 7
20 60 20 53 0 60 -2 60 -20z"/>
<path d="M9219 781 c-11 -27 -29 -57 -40 -67 -10 -9 -19 -21 -19 -26 0 -15 29
-8 39 10 8 12 10 -9 11 -80 0 -59 4 -98 10 -98 6 0 10 45 10 114 0 78 5 125
15 149 18 43 18 47 5 47 -5 0 -19 -22 -31 -49z"/>
<path d="M9550 795 c0 -31 -3 -35 -25 -35 -14 0 -25 -4 -25 -10 0 -5 11 -10
25 -10 22 0 25 -4 25 -35 0 -28 -5 -38 -25 -47 -14 -6 -25 -15 -25 -21 0 -5
11 -6 25 -3 24 6 25 5 25 -44 0 -40 -3 -50 -17 -50 -13 0 -14 -3 -6 -11 7 -7
19 -9 27 -6 12 5 16 22 16 71 0 56 3 66 20 71 11 3 20 13 20 21 0 12 -4 12
-20 4 -18 -10 -20 -8 -20 20 0 23 4 30 20 30 11 0 20 5 20 10 0 6 -10 10 -21
10 -19 0 -21 4 -16 35 4 26 2 35 -9 35 -9 0 -14 -11 -14 -35z"/>
<path d="M9290 760 c0 -49 1 -50 30 -50 20 0 30 -5 30 -15 0 -11 -12 -15 -45
-15 -25 0 -45 -4 -45 -10 0 -5 16 -10 35 -10 19 0 35 -4 35 -10 0 -5 -18 -28
-40 -50 -44 -44 -47 -50 -26 -50 8 0 30 19 50 43 l36 42 0 -57 c0 -32 5 -58
10 -58 6 0 10 25 10 55 l0 54 38 -41 c22 -24 44 -38 50 -34 7 4 -6 24 -36 54
l-47 47 43 3 c56 4 54 22 -3 22 -33 0 -45 4 -45 15 0 10 10 15 30 15 29 0 30
1 30 50 l0 50 -70 0 -70 0 0 -50z m120 0 c0 -29 -1 -30 -50 -30 -49 0 -50 1
-50 30 0 29 1 30 50 30 49 0 50 -1 50 -30z"/>
<path d="M10208 686 c-2 -91 -6 -118 -21 -133 -9 -11 -14 -23 -10 -26 27 -27
53 53 53 163 l0 90 120 0 c73 0 120 4 120 10 0 6 -50 10 -129 10 l-129 0 -4
-114z"/>
<path d="M10340 725 c0 -34 -1 -35 -40 -35 -22 0 -40 -4 -40 -10 0 -5 18 -10
40 -10 l40 0 0 -60 0 -60 -55 0 c-30 0 -55 -3 -55 -7 0 -5 56 -8 125 -8 69 0
125 3 125 8 0 4 -27 7 -60 7 l-60 0 0 60 0 60 40 0 c22 0 40 5 40 10 0 6 -18
10 -40 10 -39 0 -40 1 -40 35 0 19 -4 35 -10 35 -5 0 -10 -16 -10 -35z"/>
<path d="M9740 680 c0 -18 -7 -20 -60 -20 -33 0 -60 -4 -60 -10 0 -6 27 -10
60 -10 l60 0 0 -45 c0 -33 -4 -45 -15 -45 -8 0 -15 -7 -15 -15 0 -16 9 -19 34
-9 12 5 16 20 16 60 0 47 2 54 20 54 11 0 20 5 20 10 0 6 -9 10 -21 10 -16 0
-19 4 -14 20 5 14 2 20 -9 20 -9 0 -16 -9 -16 -20z"/>
<path d="M10390 633 c1 -10 36 -53 44 -53 13 0 5 28 -12 43 -20 18 -32 22 -32
10z"/>
<path d="M9650 612 c0 -13 23 -32 39 -32 11 0 10 4 -4 20 -19 21 -35 26 -35
12z"/>
</g>
</svg>
