<?xml version="1.0" standalone="no"?>
<!DOCTYPE svg PUBLIC "-//W3C//DTD SVG 20010904//EN"
 "http://www.w3.org/TR/2001/REC-SVG-20010904/DTD/svg10.dtd">
<svg version="1.0" xmlns="http://www.w3.org/2000/svg"
 width="1228.000000pt" height="290.000000pt" viewBox="0 0 1228.000000 290.000000"
 preserveAspectRatio="xMidYMid meet">

<g transform="translate(0.000000,290.000000) scale(0.100000,-0.100000)"
fill="#000000" stroke="none">
<path d="M57 2783 c-4 -3 -7 -613 -7 -1355 l0 -1348 6078 0 6077 0 0 1355 0
1355 -6071 0 c-3339 0 -6074 -3 -6077 -7z m12113 -198 l0 -175 -6040 0 -6040
0 0 175 0 175 6040 0 6040 0 0 -175z m-10070 -390 l0 -175 -1005 0 -1005 0 0
175 0 175 1005 0 1005 0 0 -175z m3368 3 l-3 -173 -1667 -3 -1668 -2 0 175 0
175 1670 0 1670 0 -2 -172z m3910 0 l-3 -173 -1937 -3 -1938 -2 0 175 0 175
1940 0 1940 0 -2 -172z m2792 -3 l0 -175 -1380 0 -1380 0 0 175 0 175 1380 0
1380 0 0 -175z m-10070 -380 l0 -175 -1005 0 -1005 0 0 175 0 175 1005 0 1005
0 0 -175z m3370 0 l0 -175 -1670 0 -1670 0 0 175 0 175 1670 0 1670 0 0 -175z
m3910 0 l0 -175 -1940 0 -1940 0 0 175 0 175 1940 0 1940 0 0 -175z m2790 0
l0 -175 -1380 0 -1380 0 0 175 0 175 1380 0 1380 0 0 -175z m-10070 -380 l0
-175 -1005 0 -1005 0 0 175 0 175 1005 0 1005 0 0 -175z m3370 0 l0 -175
-1670 0 -1670 0 0 175 0 175 1670 0 1670 0 0 -175z m3910 0 l0 -175 -1940 0
-1940 0 0 175 0 175 1940 0 1940 0 0 -175z m2790 0 l0 -175 -1380 0 -1380 0 0
175 0 175 1380 0 1380 0 0 -175z m-10070 -380 l0 -175 -1005 0 -1005 0 0 175
0 175 1005 0 1005 0 0 -175z m3370 0 l0 -175 -1670 0 -1670 0 0 175 0 175
1670 0 1670 0 0 -175z m3910 0 l0 -175 -1940 0 -1940 0 0 175 0 175 1940 0
1940 0 0 -175z m2790 0 l0 -175 -1380 0 -1380 0 0 175 0 175 1380 0 1380 0 0
-175z m-10070 -580 l0 -365 -1005 0 -1005 0 0 365 0 365 1005 0 1005 0 0 -365z
m670 356 c0 -32 -14 -41 -66 -41 -30 0 -54 -4 -54 -10 0 -5 23 -10 51 -10 l51
0 -17 -27 c-17 -27 -30 -40 -69 -68 -10 -7 -15 -18 -11 -24 4 -7 18 -2 41 15
l34 26 0 -86 c0 -51 4 -86 10 -86 6 0 10 18 10 40 l0 40 60 0 c57 0 60 -1 60
-25 0 -18 -5 -25 -20 -25 -11 0 -20 -7 -20 -15 0 -18 31 -20 48 -3 8 8 12 46
12 105 l0 93 -65 0 c-36 0 -65 2 -65 4 0 30 15 36 96 36 49 0 84 4 84 10 0 6
-33 10 -80 10 -76 0 -80 1 -70 19 7 14 6 21 -3 24 -6 3 594 6 1336 6 l1347 1
0 -365 0 -365 -1670 0 -1670 0 0 365 0 365 320 0 c188 0 320 -4 320 -9z m6610
-356 l0 -365 -1940 0 -1940 0 0 365 0 365 1940 0 1940 0 0 -365z m2790 0 l0
-365 -1380 0 -1380 0 0 365 0 365 1380 0 1380 0 0 -365z m-9300 220 c0 -12
-13 -15 -60 -15 -47 0 -60 3 -60 15 0 12 13 15 60 15 47 0 60 -3 60 -15z m0
-55 c0 -18 -7 -20 -60 -20 -53 0 -60 2 -60 20 0 18 7 20 60 20 53 0 60 -2 60
-20z"/>
<path d="M5297 2743 c-7 -11 39 -60 48 -51 4 3 -5 18 -18 33 -14 16 -26 24
-30 18z"/>
<path d="M5387 2715 c-15 -32 -20 -35 -62 -35 -25 0 -45 -4 -45 -10 0 -5 16
-10 35 -10 33 0 35 -2 35 -35 0 -33 -2 -35 -35 -35 -19 0 -35 -4 -35 -10 0 -5
14 -10 30 -10 17 0 30 -5 30 -12 0 -17 -39 -80 -58 -94 -12 -9 -12 -13 -2 -19
14 -9 43 22 65 70 8 17 14 24 15 18 0 -19 71 -94 82 -87 5 3 -9 26 -32 50 -51
55 -52 74 -5 74 19 0 35 5 35 10 0 6 -17 10 -38 10 -38 0 -38 0 -34 35 4 32 7
35 38 35 40 0 46 17 8 22 l-26 3 21 27 c24 30 26 38 8 38 -7 0 -21 -16 -30
-35z"/>
<path d="M5525 2709 c-10 -21 -24 -44 -32 -50 -21 -18 -15 -29 17 -29 36 0 37
-4 5 -46 -14 -18 -25 -36 -25 -40 0 -9 91 2 99 12 3 5 14 10 24 12 15 2 17 -6
17 -63 0 -37 4 -65 10 -65 6 0 10 7 10 15 0 11 11 15 40 15 22 0 40 -4 40 -10
0 -5 6 -10 13 -10 8 0 12 19 12 60 l0 60 -60 0 -60 1 28 24 27 24 37 -24 c39
-27 49 -30 58 -15 3 5 -10 16 -28 24 -47 19 -52 31 -28 65 30 42 26 51 -20 51
-32 0 -40 3 -35 15 3 8 0 15 -7 15 -11 0 -34 -37 -65 -102 -2 -5 1 -8 7 -8 5
0 18 14 28 30 14 24 24 30 50 30 36 0 39 -6 18 -34 -15 -20 -15 -20 -29 0 -8
10 -18 16 -22 11 -4 -4 -2 -13 4 -19 20 -20 14 -32 -33 -60 -46 -28 -95 -45
-95 -34 0 4 16 32 35 62 40 62 40 64 21 64 -8 0 -18 -9 -21 -20 -4 -13 -15
-20 -31 -20 -24 0 -24 0 -7 28 9 15 23 34 30 43 12 14 12 17 0 22 -10 4 -21
-8 -32 -34z m205 -184 c0 -34 -1 -35 -40 -35 -39 0 -40 1 -40 35 0 34 1 35 40
35 39 0 40 -1 40 -35z"/>
<path d="M5939 2706 c-18 -29 -40 -49 -68 -62 -41 -18 -49 -28 -32 -38 11 -7
80 43 111 81 l25 29 28 -33 c39 -44 93 -77 115 -68 13 5 9 11 -23 26 -45 22
-105 77 -105 96 0 27 -26 11 -51 -31z"/>
<path d="M6216 2742 c-7 -11 29 -60 38 -52 3 3 -3 18 -13 34 -10 15 -21 23
-25 18z"/>
<path d="M6650 2720 c0 -27 -3 -30 -31 -30 -26 0 -29 3 -24 20 12 38 -13 20
-35 -26 -24 -48 -20 -72 6 -36 11 15 25 22 50 22 31 0 34 -2 34 -30 l0 -30
-70 0 c-40 0 -70 -4 -70 -10 0 -6 55 -10 144 -10 86 0 147 4 151 10 4 6 -20
10 -64 10 l-71 0 0 30 c0 29 1 30 50 30 28 0 50 5 50 10 0 6 -22 10 -50 10
-49 0 -50 1 -50 30 0 17 -4 30 -10 30 -5 0 -10 -13 -10 -30z"/>
<path d="M6900 2738 c0 -10 -10 -18 -27 -21 l-28 -4 28 -2 27 -1 -32 -30 c-24
-22 -29 -29 -16 -30 9 0 20 5 23 10 3 6 29 10 57 10 42 0 49 -3 44 -16 -3 -9
-6 -20 -6 -25 0 -5 -4 -9 -10 -9 -5 0 -10 9 -10 20 0 16 -7 20 -35 20 -31 0
-35 -3 -35 -25 0 -22 4 -25 38 -25 20 0 44 -5 52 -10 11 -7 -5 -10 -52 -10
-39 0 -68 -4 -68 -10 0 -6 53 -10 140 -10 87 0 140 4 140 10 0 6 -26 10 -58
10 -32 0 -63 5 -70 12 -18 18 -15 68 3 68 9 0 18 7 21 15 4 8 17 15 30 15 26
0 29 -7 14 -30 -9 -13 -11 -13 -19 0 -6 8 -13 11 -17 7 -4 -4 -2 -13 4 -19 17
-17 15 -26 -8 -33 -11 -4 -18 -11 -14 -16 4 -6 14 -5 28 4 19 13 26 13 48 1
15 -8 29 -10 32 -5 3 4 -6 13 -20 20 -17 8 -24 17 -20 27 3 9 6 20 6 25 0 5
10 14 23 19 18 7 13 9 -25 9 -38 1 -46 4 -42 16 4 8 1 15 -4 15 -6 0 -13 -9
-17 -19 -9 -28 -27 -40 -50 -31 -19 8 -19 8 5 18 14 6 19 11 11 11 -8 1 -20 9
-27 19 -13 16 -13 16 -14 0 0 -10 -5 -18 -11 -18 -7 0 -18 8 -25 18 -12 16
-13 16 -14 0z m50 -38 c0 -5 -9 -10 -21 -10 -11 0 -17 5 -14 10 3 6 13 10 21
10 8 0 14 -4 14 -10z m-27 -67 c-7 -2 -19 -2 -25 0 -7 3 -2 5 12 5 14 0 19 -2
13 -5z"/>
<path d="M5150 2721 c0 -5 7 -11 15 -15 12 -4 15 -25 15 -101 0 -78 -3 -95
-15 -95 -8 0 -15 -6 -15 -14 0 -12 7 -12 45 0 l45 13 0 -34 c0 -19 5 -35 10
-35 6 0 10 14 10 32 0 17 7 40 17 50 15 17 15 18 0 18 -14 0 -17 12 -17 79 0
44 5 83 10 86 25 16 5 25 -55 25 -36 0 -65 -4 -65 -9z m90 -41 c0 -23 -4 -30
-20 -30 -16 0 -20 7 -20 30 0 23 4 30 20 30 16 0 20 -7 20 -30z m0 -65 c0 -18
-5 -25 -20 -25 -15 0 -20 7 -20 25 0 18 5 25 20 25 15 0 20 -7 20 -25z m-2
-67 c-5 -34 -38 -37 -38 -4 0 20 5 26 21 26 15 0 20 -5 17 -22z"/>
<path d="M6290 2718 c0 -5 29 -8 65 -8 l65 0 0 -120 c0 -113 -1 -120 -20 -120
-11 0 -20 -5 -20 -11 0 -6 12 -9 28 -7 l27 3 3 135 3 135 -76 0 c-41 0 -75 -3
-75 -7z"/>
<path d="M6190 2570 c0 -73 4 -120 10 -120 6 0 10 47 10 120 0 73 -4 120 -10
120 -6 0 -10 -47 -10 -120z"/>
<path d="M6240 2600 l0 -60 30 0 c28 0 30 -2 30 -40 0 -22 5 -40 10 -40 6 0
10 18 10 40 0 39 1 40 35 40 l35 0 0 60 0 60 -75 0 -75 0 0 -60z m60 25 c0 -8
-9 -15 -20 -15 -11 0 -20 7 -20 15 0 8 9 15 20 15 11 0 20 -7 20 -15z m70 0
c0 -9 -9 -15 -25 -15 -16 0 -25 6 -25 15 0 9 9 15 25 15 16 0 25 -6 25 -15z
m-70 -55 c0 -13 -7 -20 -20 -20 -13 0 -20 7 -20 20 0 13 7 20 20 20 13 0 20
-7 20 -20z m70 -1 c0 -15 -5 -20 -22 -17 -34 5 -37 38 -4 38 20 0 26 -5 26
-21z"/>
<path d="M5900 2620 c0 -6 33 -10 80 -10 47 0 80 4 80 10 0 6 -33 10 -80 10
-47 0 -80 -4 -80 -10z"/>
<path d="M5890 2505 c0 -37 4 -65 10 -65 6 0 10 5 10 10 0 6 30 10 70 10 40 0
70 -4 70 -10 0 -5 6 -10 13 -10 9 0 11 18 9 65 l-4 65 -89 0 -89 0 0 -65z
m160 10 l0 -35 -70 0 -70 0 0 35 0 35 70 0 70 0 0 -35z"/>
<path d="M6560 2500 c0 -33 4 -60 10 -60 6 0 10 5 10 10 0 6 32 10 75 10 43 0
75 -4 75 -10 0 -5 5 -10 10 -10 6 0 10 27 10 60 l0 60 -95 0 -95 0 0 -60z
m170 10 l0 -30 -75 0 -75 0 0 30 0 30 75 0 75 0 0 -30z"/>
<path d="M6893 2554 c3 -3 47 -6 97 -6 50 0 94 3 97 6 4 3 -40 6 -97 6 -57 0
-101 -3 -97 -6z"/>
<path d="M6938 2523 c28 -2 76 -2 105 0 28 2 5 3 -53 3 -58 0 -81 -1 -52 -3z"/>
<path d="M5528 2496 c-33 -7 -45 -15 -40 -23 6 -9 20 -9 60 3 29 9 52 20 52
25 0 11 -10 10 -72 -5z"/>
<path d="M6890 2473 c0 -32 12 -43 25 -23 3 6 37 10 75 10 38 0 72 -4 75 -10
13 -20 25 -9 25 23 l0 32 -100 0 -100 0 0 -32z m180 7 c0 -6 -33 -10 -80 -10
-47 0 -80 4 -80 10 0 6 33 10 80 10 47 0 80 -4 80 -10z"/>
<path d="M3785 2295 c-31 -25 -28 -33 6 -15 18 10 19 7 19 -80 0 -89 0 -90
-24 -90 -14 0 -28 -4 -31 -10 -4 -6 18 -10 59 -10 37 0 66 4 66 10 0 6 -11 10
-25 10 l-25 0 0 105 c0 58 -3 105 -7 105 -5 0 -21 -11 -38 -25z"/>
<path d="M7412 2304 c-12 -8 -22 -22 -22 -30 0 -20 13 -17 28 6 22 36 82 23
82 -19 0 -20 -17 -44 -60 -88 -33 -33 -60 -66 -60 -72 0 -7 25 -11 70 -11 40
0 70 4 70 10 0 6 -25 10 -55 10 -30 0 -55 3 -55 7 0 4 25 30 55 58 43 41 55
58 55 82 0 55 -59 81 -108 47z"/>
<path d="M10752 2304 c-12 -8 -22 -22 -22 -30 0 -20 13 -17 28 6 16 27 68 27
82 1 14 -28 2 -51 -31 -58 -35 -7 -38 -23 -5 -23 25 0 56 -23 56 -41 0 -6 -5
-19 -10 -30 -15 -27 -75 -26 -92 1 -15 23 -28 26 -28 6 0 -22 40 -46 76 -46
23 0 39 8 53 26 26 33 26 45 2 75 -17 22 -17 27 -5 44 19 26 18 41 -6 65 -24
24 -67 26 -98 4z"/>
<path d="M1090 1945 c0 -23 -3 -25 -50 -25 l-50 0 0 -85 0 -85 49 0 50 0 3
-37 3 -38 70 -3 c62 -3 72 0 87 19 18 21 16 39 -3 39 -5 0 -9 -7 -9 -15 0 -19
-31 -35 -69 -35 -47 0 -61 9 -61 41 0 28 1 29 55 29 l55 0 0 85 0 85 -56 0
c-55 0 -56 1 -52 25 4 17 1 25 -8 25 -8 0 -14 -11 -14 -25z m0 -70 c0 -22 -4
-25 -40 -25 -36 0 -40 3 -40 25 0 23 4 25 40 25 36 0 40 -2 40 -25z m110 0 c0
-23 -4 -25 -45 -25 -41 0 -45 2 -45 25 0 23 4 25 45 25 41 0 45 -2 45 -25z
m-110 -75 c0 -28 -2 -30 -40 -30 -38 0 -40 2 -40 30 0 28 2 30 40 30 38 0 40
-2 40 -30z m110 0 c0 -29 -2 -30 -45 -30 -43 0 -45 1 -45 30 0 29 2 30 45 30
43 0 45 -1 45 -30z"/>
<path d="M1339 1832 c-3 -80 -9 -115 -21 -134 -16 -24 -15 -38 3 -38 16 0 39
106 39 182 l0 78 120 0 c73 0 120 4 120 10 0 6 -50 10 -129 10 l-129 0 -3
-108z"/>
<path d="M620 1815 c0 -70 4 -115 10 -115 6 0 10 20 10 45 0 44 0 45 34 45 47
0 79 29 79 70 0 45 -32 70 -89 70 l-44 0 0 -115z m98 83 c7 -7 12 -24 12 -38
0 -35 -17 -50 -57 -50 -33 0 -33 0 -33 50 0 50 0 50 33 50 18 0 38 -5 45 -12z"/>
<path d="M770 1920 c0 -5 18 -10 40 -10 l40 0 0 -105 c0 -63 4 -105 10 -105 6
0 10 42 10 105 l0 105 35 0 c19 0 35 5 35 10 0 6 -35 10 -85 10 -50 0 -85 -4
-85 -10z"/>
<path d="M1470 1865 c0 -34 -1 -35 -40 -35 -22 0 -40 -4 -40 -10 0 -5 18 -10
40 -10 l40 0 0 -60 0 -60 -55 0 c-30 0 -55 -3 -55 -7 0 -9 239 -7 248 1 3 3
-22 6 -56 6 l-62 0 0 60 0 60 40 0 c22 0 40 5 40 10 0 6 -18 10 -40 10 -39 0
-40 1 -40 35 0 19 -4 35 -10 35 -5 0 -10 -16 -10 -35z"/>
<path d="M1532 1750 c20 -27 38 -39 38 -25 0 15 -34 55 -46 55 -11 0 -9 -8 8
-30z"/>
<path d="M3270 1815 c0 -70 4 -115 10 -115 6 0 10 20 10 44 l0 43 42 6 c73 10
100 66 53 112 -18 19 -35 25 -70 25 l-45 0 0 -115z m104 79 c34 -33 3 -84 -50
-84 l-34 0 0 50 0 50 34 0 c19 0 42 -7 50 -16z"/>
<path d="M3425 1920 c3 -5 19 -10 36 -10 l29 0 0 -105 c0 -63 4 -105 10 -105
6 0 10 42 10 105 l0 105 40 0 c22 0 40 5 40 10 0 6 -35 10 -86 10 -54 0 -83
-4 -79 -10z"/>
<path d="M3666 1909 c-14 -11 -26 -25 -26 -31 0 -7 11 -1 25 12 l25 23 0 -96
0 -97 -30 0 c-16 0 -30 -4 -30 -10 0 -6 28 -10 65 -10 37 0 65 4 65 10 0 6
-11 10 -25 10 l-25 0 0 105 c0 58 -4 105 -9 105 -4 0 -20 -9 -35 -21z"/>
<path d="M3880 1815 c0 -70 4 -115 10 -115 6 0 10 20 10 45 0 44 0 45 34 45
46 0 86 33 86 71 0 45 -31 69 -90 69 l-50 0 0 -115z m101 85 c23 -13 25 -53 3
-74 -8 -9 -31 -16 -50 -16 l-34 0 0 50 c0 49 1 50 31 50 17 0 39 -5 50 -10z"/>
<path d="M4040 1920 c0 -5 16 -10 35 -10 l35 0 0 -105 c0 -63 4 -105 10 -105
6 0 10 42 10 105 l0 105 40 0 c22 0 40 5 40 10 0 6 -35 10 -85 10 -50 0 -85
-4 -85 -10z"/>
<path d="M4262 1914 c-12 -8 -22 -22 -22 -30 0 -20 13 -17 28 6 22 36 82 23
82 -19 0 -20 -17 -44 -60 -88 -33 -33 -60 -66 -60 -72 0 -7 25 -11 70 -11 40
0 70 4 70 10 0 6 -25 10 -55 10 -30 0 -55 3 -55 7 0 4 25 30 55 58 43 41 55
58 55 82 0 55 -59 81 -108 47z"/>
<path d="M3810 1855 c0 -8 5 -15 10 -15 6 0 10 7 10 15 0 8 -4 15 -10 15 -5 0
-10 -7 -10 -15z"/>
<path d="M3812 1694 c0 -25 3 -33 9 -23 11 18 12 59 0 59 -5 0 -9 -16 -9 -36z"/>
<path d="M7210 1815 c0 -70 4 -115 10 -115 6 0 10 20 10 45 0 44 0 45 34 45
46 0 86 33 86 71 0 45 -31 69 -90 69 l-50 0 0 -115z m101 85 c23 -13 25 -53 3
-74 -8 -9 -31 -16 -50 -16 l-34 0 0 50 c0 49 1 50 31 50 17 0 39 -5 50 -10z"/>
<path d="M7370 1920 c0 -5 16 -10 35 -10 l35 0 0 -105 c0 -63 4 -105 10 -105
6 0 10 42 10 105 l0 105 40 0 c22 0 40 5 40 10 0 6 -35 10 -85 10 -50 0 -85
-4 -85 -10z"/>
<path d="M7592 1914 c-12 -8 -22 -22 -22 -30 0 -20 13 -17 28 6 22 36 82 23
82 -19 0 -20 -17 -44 -60 -88 -33 -33 -60 -66 -60 -72 0 -7 25 -11 70 -11 40
0 70 4 70 10 0 6 -25 10 -55 10 -30 0 -55 3 -55 7 0 4 25 30 55 58 43 41 55
58 55 82 0 55 -59 81 -108 47z"/>
<path d="M10260 1815 c0 -70 4 -115 10 -115 6 0 10 20 10 44 l0 43 42 6 c73
10 100 66 53 112 -18 19 -35 25 -70 25 l-45 0 0 -115z m104 79 c34 -33 3 -84
-50 -84 l-34 0 0 50 0 50 34 0 c19 0 42 -7 50 -16z"/>
<path d="M10415 1920 c3 -5 19 -10 36 -10 l29 0 0 -105 c0 -63 4 -105 10 -105
6 0 10 42 10 105 l0 105 40 0 c22 0 40 5 40 10 0 6 -35 10 -86 10 -54 0 -83
-4 -79 -10z"/>
<path d="M10656 1909 c-14 -11 -26 -25 -26 -31 0 -7 11 -1 25 12 l25 23 0 -96
0 -97 -30 0 c-16 0 -30 -4 -30 -10 0 -6 28 -10 65 -10 37 0 65 4 65 10 0 6
-11 10 -25 10 l-25 0 0 105 c0 58 -4 105 -9 105 -4 0 -20 -9 -35 -21z"/>
<path d="M10870 1815 c0 -70 4 -115 10 -115 6 0 10 20 10 45 0 44 1 45 31 45
32 0 69 15 81 34 4 6 8 25 8 43 0 42 -30 63 -92 63 l-48 0 0 -115z m108 83 c7
-7 12 -24 12 -40 0 -32 -24 -48 -69 -48 -30 0 -31 1 -31 50 l0 50 38 0 c21 0
43 -5 50 -12z"/>
<path d="M11030 1920 c0 -5 16 -10 35 -10 l35 0 0 -105 c0 -63 4 -105 10 -105
6 0 10 42 10 105 l0 105 40 0 c22 0 40 5 40 10 0 6 -35 10 -85 10 -50 0 -85
-4 -85 -10z"/>
<path d="M11252 1914 c-12 -8 -22 -22 -22 -30 0 -20 13 -17 28 6 22 36 82 23
82 -19 0 -20 -17 -44 -60 -88 -33 -33 -60 -66 -60 -72 0 -7 25 -11 70 -11 40
0 70 4 70 10 0 6 -25 10 -55 10 -30 0 -55 3 -55 7 0 4 25 30 55 58 43 41 55
58 55 82 0 55 -59 81 -108 47z"/>
<path d="M10800 1855 c0 -8 5 -15 10 -15 6 0 10 7 10 15 0 8 -4 15 -10 15 -5
0 -10 -7 -10 -15z"/>
<path d="M10802 1694 c0 -25 3 -33 9 -23 11 18 12 59 0 59 -5 0 -9 -16 -9 -36z"/>
<path d="M1090 1524 l0 -65 -37 3 c-38 3 -38 3 -37 46 0 30 -3 42 -13 42 -11
0 -13 -13 -11 -52 l3 -53 48 -3 47 -3 0 -55 0 -54 -45 0 -45 0 0 45 c0 25 -4
45 -10 45 -5 0 -10 -25 -10 -55 l0 -55 110 0 c67 0 110 -4 110 -10 0 -5 6 -10
13 -10 8 0 12 20 12 65 0 45 -4 65 -12 65 -9 0 -13 -16 -13 -45 l0 -45 -45 0
-45 0 0 55 0 55 50 0 50 0 0 60 c0 41 -4 60 -12 60 -9 0 -13 -16 -13 -47 l0
-48 -37 -3 -38 -3 0 65 c0 37 -4 66 -10 66 -6 0 -10 -29 -10 -66z"/>
<path d="M650 1560 c0 -5 14 -10 31 -10 30 0 30 -1 27 -47 l-3 -48 -37 -1
c-52 -1 -61 -14 -10 -14 22 0 43 -4 47 -9 9 -16 -25 -90 -51 -110 -17 -14 -21
-22 -13 -27 19 -11 67 50 80 102 l12 45 41 -3 41 -3 3 -72 c4 -97 22 -94 22 3
l0 76 40 -4 c26 -2 40 1 40 8 0 8 -13 10 -40 7 l-40 -6 0 52 c0 50 1 51 30 51
17 0 30 5 30 10 0 6 -48 10 -125 10 -77 0 -125 -4 -125 -10z m168 -57 l-3 -48
-42 -3 -43 -3 0 50 0 51 46 0 45 0 -3 -47z"/>
<path d="M1345 1530 l0 -40 102 0 103 0 0 40 0 40 -103 0 -102 0 0 -40z m185
20 c0 -6 -35 -10 -86 -10 -54 0 -83 4 -79 10 3 6 42 10 86 10 46 0 79 -4 79
-10z m-37 -37 c-23 -2 -64 -2 -90 0 -26 2 -7 3 42 3 50 0 71 -1 48 -3z"/>
<path d="M1295 1470 c-4 -7 48 -10 149 -10 97 0 156 4 156 10 0 6 -56 10 -149
10 -89 0 -152 -4 -156 -10z"/>
<path d="M1340 1405 l0 -45 50 0 c28 0 50 -4 50 -10 0 -5 -25 -10 -55 -10 -30
0 -55 -3 -55 -7 0 -5 25 -6 55 -5 35 3 55 0 55 -7 0 -7 -26 -11 -70 -11 -40 0
-70 -4 -70 -10 0 -6 55 -10 145 -10 90 0 145 4 145 10 0 6 -28 10 -65 10 -40
0 -65 4 -65 11 0 6 19 9 50 8 27 -2 53 0 56 4 4 4 -18 7 -49 7 -31 0 -57 5
-57 10 0 6 23 10 50 10 l50 0 0 45 0 45 -110 0 -110 0 0 -45z m100 15 c0 -5
-18 -10 -40 -10 -22 0 -40 5 -40 10 0 6 18 10 40 10 22 0 40 -4 40 -10z m100
0 c0 -5 -18 -10 -40 -10 -22 0 -40 5 -40 10 0 6 18 10 40 10 22 0 40 -4 40
-10z m-100 -30 c0 -5 -18 -10 -40 -10 -22 0 -40 5 -40 10 0 6 18 10 40 10 22
0 40 -4 40 -10z m95 0 c4 -6 -10 -10 -34 -10 -23 0 -41 5 -41 10 0 6 15 10 34
10 19 0 38 -4 41 -10z"/>
<path d="M3660 1585 c0 -18 46 -90 76 -121 26 -26 39 -33 47 -25 8 8 5 16 -11
27 -37 25 -63 57 -78 92 -12 27 -34 45 -34 27z"/>
<path d="M3890 1555 c-6 -18 -22 -50 -36 -70 -28 -42 -22 -71 7 -34 18 24 19
23 19 -73 0 -59 4 -98 10 -98 6 0 10 47 10 120 0 87 4 129 15 149 13 27 11 41
-6 41 -4 0 -13 -16 -19 -35z"/>
<path d="M3980 1582 c0 -14 49 -56 57 -49 3 4 -4 18 -17 32 -24 25 -40 32 -40
17z"/>
<path d="M3570 1534 c-12 -25 -35 -55 -51 -66 -16 -12 -29 -25 -29 -30 0 -13
26 -9 39 5 6 8 23 12 42 9 30 -4 31 -6 26 -46 -4 -30 -15 -50 -42 -74 -39 -36
-40 -53 -2 -33 30 16 59 65 67 111 5 32 8 35 43 38 l38 3 -3 -63 c-3 -61 -4
-63 -31 -66 -16 -2 -27 -8 -24 -15 6 -19 32 -19 55 0 17 15 22 31 23 88 l2 70
-86 0 c-82 0 -101 5 -77 20 10 6 50 78 50 90 0 3 -4 5 -9 5 -5 0 -19 -21 -31
-46z"/>
<path d="M3925 1510 c3 -6 50 -10 106 -10 59 0 99 4 99 10 0 6 -42 10 -106 10
-67 0 -103 -4 -99 -10z"/>
<path d="M4067 1473 c-4 -3 -7 -16 -7 -28 0 -12 -7 -44 -15 -73 l-15 -51 -63
-4 c-34 -2 -8 -3 58 -3 66 0 101 1 78 3 -50 5 -51 10 -24 101 14 46 16 62 7
62 -7 0 -16 -3 -19 -7z"/>
<path d="M3950 1468 c3 -24 41 -113 49 -116 15 -5 14 2 -6 65 -9 29 -23 53
-30 53 -7 0 -13 -1 -13 -2z"/>
<path d="M7300 1585 c0 -18 46 -90 76 -121 26 -26 39 -33 47 -25 8 8 5 16 -11
27 -37 25 -63 57 -78 92 -12 27 -34 45 -34 27z"/>
<path d="M7530 1555 c-6 -18 -22 -50 -36 -70 -28 -42 -22 -71 7 -34 18 24 19
23 19 -73 0 -59 4 -98 10 -98 6 0 10 47 10 120 0 87 4 129 15 149 13 27 11 41
-6 41 -4 0 -13 -16 -19 -35z"/>
<path d="M7620 1582 c0 -14 49 -56 57 -49 3 4 -4 18 -17 32 -24 25 -40 32 -40
17z"/>
<path d="M7210 1534 c-12 -25 -35 -55 -51 -66 -16 -12 -29 -25 -29 -30 0 -13
26 -9 39 5 6 8 23 12 42 9 30 -4 31 -6 26 -46 -4 -30 -15 -50 -42 -74 -39 -36
-40 -53 -2 -33 30 16 59 65 67 111 5 32 8 35 43 38 l38 3 -3 -63 c-3 -61 -4
-63 -31 -66 -16 -2 -27 -8 -24 -15 6 -19 32 -19 55 0 17 15 22 31 23 88 l2 70
-86 0 c-82 0 -101 5 -77 20 10 6 50 78 50 90 0 3 -4 5 -9 5 -5 0 -19 -21 -31
-46z"/>
<path d="M7565 1510 c3 -6 50 -10 106 -10 59 0 99 4 99 10 0 6 -42 10 -106 10
-67 0 -103 -4 -99 -10z"/>
<path d="M7707 1473 c-4 -3 -7 -16 -7 -28 0 -12 -7 -44 -15 -73 l-15 -51 -63
-4 c-34 -2 -8 -3 58 -3 66 0 101 1 78 3 -50 5 -51 10 -24 101 14 46 16 62 7
62 -7 0 -16 -3 -19 -7z"/>
<path d="M7590 1468 c3 -24 41 -113 49 -116 15 -5 14 2 -6 65 -9 29 -23 53
-30 53 -7 0 -13 -1 -13 -2z"/>
<path d="M10671 1548 c27 -55 87 -118 105 -111 10 4 1 17 -30 45 -25 21 -51
54 -58 73 -6 19 -18 35 -25 35 -10 0 -8 -11 8 -42z"/>
<path d="M10880 1555 c-6 -18 -22 -50 -36 -70 -28 -42 -22 -71 7 -34 18 24 19
23 19 -73 0 -59 4 -98 10 -98 6 0 10 47 10 120 0 87 4 129 15 149 13 27 11 41
-6 41 -4 0 -13 -16 -19 -35z"/>
<path d="M10970 1582 c0 -14 49 -56 57 -49 3 4 -4 18 -17 32 -24 25 -40 32
-40 17z"/>
<path d="M10565 1540 c-10 -23 -33 -54 -52 -70 -19 -17 -28 -32 -22 -36 14 -8
54 30 89 87 26 43 29 59 10 59 -4 0 -15 -18 -25 -40z"/>
<path d="M10915 1510 c3 -6 50 -10 106 -10 59 0 99 4 99 10 0 6 -42 10 -106
10 -67 0 -103 -4 -99 -10z"/>
<path d="M11057 1473 c-4 -3 -7 -16 -7 -28 0 -12 -7 -44 -15 -73 l-15 -51 -63
-4 c-34 -2 -8 -3 58 -3 66 0 101 1 78 3 -50 5 -51 10 -24 101 14 46 16 62 7
62 -7 0 -16 -3 -19 -7z"/>
<path d="M10550 1460 c0 -5 12 -10 26 -10 24 0 25 -2 19 -32 -11 -51 -34 -88
-60 -100 -25 -11 -30 -20 -19 -31 10 -10 63 32 78 62 8 15 17 43 21 64 7 35 9
37 47 37 l39 0 -7 -57 c-8 -69 -10 -73 -35 -73 -10 0 -19 -7 -19 -15 0 -16 27
-20 49 -6 14 9 29 79 30 139 l1 32 -85 0 c-50 0 -85 -4 -85 -10z"/>
<path d="M10940 1468 c3 -24 41 -113 49 -116 15 -5 14 2 -6 65 -9 29 -23 53
-30 53 -7 0 -13 -1 -13 -2z"/>
<path d="M479 1158 c-13 -29 -25 -56 -27 -60 -2 -4 11 -8 28 -10 l32 -3 -26
-37 c-14 -21 -22 -39 -18 -41 16 -9 92 6 92 17 0 8 -11 11 -31 8 l-31 -5 28
49 c15 27 31 54 36 60 5 7 3 14 -6 17 -8 3 -18 -4 -25 -19 -6 -14 -19 -24 -31
-24 -25 0 -25 2 4 49 23 35 24 51 6 51 -3 0 -17 -24 -31 -52z"/>
<path d="M650 1180 c0 -28 -3 -30 -35 -30 -19 0 -35 -4 -35 -10 0 -5 16 -10
35 -10 31 0 35 -3 35 -25 0 -22 -4 -25 -35 -25 -19 0 -35 -4 -35 -10 0 -6 32
-10 75 -10 43 0 75 4 75 10 0 6 -13 10 -30 10 -25 0 -30 4 -30 25 0 23 4 25
40 25 22 0 40 5 40 10 0 6 -19 10 -41 10 -40 0 -41 1 -37 30 3 20 0 30 -9 30
-8 0 -13 -12 -13 -30z"/>
<path d="M930 1190 c0 -18 -7 -20 -65 -20 -37 0 -65 -4 -65 -10 0 -6 28 -10
65 -10 51 0 65 -3 65 -15 0 -11 -12 -15 -45 -15 l-45 0 0 -45 0 -45 38 0 37
-1 -35 -32 c-19 -17 -46 -39 -60 -48 -14 -9 -22 -20 -18 -24 9 -10 83 40 109
73 l19 25 0 -62 c0 -34 4 -61 10 -61 6 0 10 27 10 61 l0 61 51 -46 c50 -45 72
-55 83 -37 3 5 -7 14 -23 21 -16 6 -41 25 -57 41 l-28 29 37 0 37 0 0 45 0 45
-50 0 c-38 0 -50 4 -50 15 0 12 15 15 71 15 44 0 68 4 64 10 -3 6 -36 10 -72
10 -60 0 -65 2 -60 20 3 13 0 20 -9 20 -8 0 -14 -9 -14 -20z m0 -115 c0 -22
-4 -25 -35 -25 -31 0 -35 3 -35 25 0 22 4 25 35 25 31 0 35 -3 35 -25z m100 0
c0 -22 -4 -25 -40 -25 -36 0 -40 3 -40 25 0 23 4 25 40 25 36 0 40 -2 40 -25z"/>
<path d="M1202 1169 c-13 -22 -30 -43 -38 -46 -18 -7 -18 -23 0 -23 8 0 24 14
36 30 19 27 27 30 77 30 l56 0 -23 -25 c-28 -29 -37 -31 -62 -8 -10 9 -21 13
-26 9 -4 -4 4 -16 17 -27 l23 -19 -33 -14 c-19 -7 -49 -17 -67 -21 -18 -3 -29
-11 -26 -16 7 -13 58 -2 103 20 32 17 35 17 103 -7 59 -21 71 -23 79 -11 6 11
-1 15 -35 20 -24 4 -53 12 -65 19 -22 11 -22 12 16 53 l38 42 -68 5 c-37 3
-67 9 -66 15 2 24 -18 11 -39 -26z"/>
<path d="M1534 1184 c-4 -14 -22 -48 -40 -75 -24 -34 -30 -49 -20 -49 8 0 20
8 25 18 8 12 10 -9 11 -80 0 -59 4 -98 10 -98 6 0 10 44 10 113 0 90 4 120 19
149 15 30 16 38 5 42 -9 3 -16 -4 -20 -20z"/>
<path d="M1655 1173 c0 -32 -4 -39 -23 -41 -21 -3 -23 -1 -17 18 5 16 3 21 -5
18 -11 -3 -39 -76 -40 -100 0 -19 20 -5 26 17 5 19 13 25 35 25 26 0 29 -3 29
-35 l0 -35 -50 0 c-27 0 -50 -4 -50 -10 0 -5 23 -10 50 -10 l50 0 0 -60 c0
-33 4 -60 10 -60 6 0 10 27 10 60 l0 60 45 0 c25 0 45 5 45 10 0 6 -20 10 -45
10 -45 0 -45 0 -45 35 0 32 2 35 29 35 17 0 33 5 36 10 4 6 -8 10 -29 10 -35
0 -36 1 -36 40 0 25 -5 40 -12 40 -8 0 -13 -14 -13 -37z"/>
<path d="M1267 1040 c5 -18 0 -20 -46 -20 -28 0 -51 -4 -51 -10 0 -5 23 -10
50 -10 l50 0 0 -36 c0 -27 -5 -37 -20 -41 -30 -8 -24 -25 8 -21 25 3 27 7 30
51 l3 47 45 0 c24 0 44 5 44 10 0 6 -20 10 -45 10 -38 0 -45 3 -45 20 0 11 -6
20 -14 20 -9 0 -12 -7 -9 -20z"/>
<path d="M590 963 c0 -35 4 -63 10 -63 6 0 10 7 10 15 0 23 86 21 99 -2 9 -16
10 -16 16 -2 3 9 5 38 3 64 l-3 47 -68 2 -67 1 0 -62z m120 12 l0 -35 -50 0
-50 0 0 35 0 35 50 0 50 0 0 -35z"/>
<path d="M1200 981 c0 -6 -13 -18 -30 -28 -30 -17 -39 -33 -19 -33 17 0 79 52
73 61 -7 12 -24 12 -24 0z"/>
<path d="M1316 982 c-8 -13 64 -66 75 -55 6 6 -5 19 -30 36 -22 15 -42 23 -45
19z"/>
<path d="M498 953 c-27 -8 -48 -18 -48 -24 0 -12 9 -12 63 7 26 9 47 20 47 25
0 11 -3 11 -62 -8z"/>
<path d="M3310 1170 l0 -40 -50 0 c-27 0 -50 -4 -50 -10 0 -5 23 -10 50 -10
l50 0 0 -90 0 -90 -27 0 c-19 0 -24 -3 -16 -11 6 -6 21 -9 34 -7 23 3 24 7 27
101 3 96 3 97 27 97 14 0 25 5 25 10 0 6 -12 10 -26 10 -24 0 -26 3 -22 40 2
28 0 40 -9 40 -8 0 -13 -14 -13 -40z"/>
<path d="M3450 1202 c0 -14 46 -53 53 -45 4 3 -3 17 -15 30 -22 23 -38 30 -38
15z"/>
<path d="M3550 1180 c0 -6 28 -10 65 -10 l65 0 0 -121 c0 -112 -1 -121 -20
-126 -11 -3 -20 -9 -20 -14 0 -14 40 -11 45 4 2 6 5 72 7 145 l3 132 -72 0
c-42 0 -73 -4 -73 -10z"/>
<path d="M3100 1055 c0 -77 4 -125 10 -125 6 0 10 7 10 15 0 10 10 15 30 15
21 0 30 -5 30 -16 0 -8 5 -12 10 -9 6 4 10 57 10 126 l0 119 -50 0 -50 0 0
-125z m80 65 c0 -38 -2 -40 -30 -40 -28 0 -30 2 -30 40 0 38 2 40 30 40 28 0
30 -2 30 -40z m-2 -102 c-3 -39 -6 -43 -30 -46 -27 -3 -28 -2 -28 42 0 45 1
46 31 46 29 0 30 -1 27 -42z"/>
<path d="M4130 1150 c-14 -10 -21 -22 -17 -26 4 -4 13 -2 19 4 24 24 29 10 26
-80 l-3 -93 -30 -6 c-19 -4 -5 -7 40 -7 43 0 60 3 45 7 -24 7 -25 9 -28 114
-3 115 -7 122 -52 87z"/>
<path d="M4296 1154 c-23 -22 -29 -56 -24 -126 4 -48 9 -65 27 -79 31 -26 57
-24 86 6 22 21 25 33 25 100 0 62 -4 79 -20 95 -24 24 -72 26 -94 4z m84 -23
c16 -30 12 -133 -6 -159 -38 -54 -84 -10 -84 81 0 74 12 97 50 97 19 0 33 -7
40 -19z"/>
<path d="M3440 1025 c0 -77 4 -125 10 -125 6 0 10 48 10 125 0 77 -4 125 -10
125 -6 0 -10 -48 -10 -125z"/>
<path d="M3796 1133 c-11 -11 -6 -23 9 -23 8 0 15 4 15 9 0 13 -16 22 -24 14z"/>
<path d="M3510 1040 l0 -70 60 0 60 0 0 70 0 70 -60 0 -60 0 0 -70z m100 35
c0 -22 -4 -25 -40 -25 -36 0 -40 3 -40 25 0 23 4 25 40 25 36 0 40 -2 40 -25z
m-2 -67 c-2 -19 -10 -24 -40 -26 -35 -3 -38 -1 -38 22 0 24 4 26 41 26 36 0
40 -2 37 -22z"/>
<path d="M4456 1094 c-33 -32 -18 -63 39 -81 22 -7 30 -16 30 -34 0 -31 -38
-38 -67 -12 -20 17 -20 17 -17 -2 5 -26 47 -40 82 -26 21 8 27 17 27 41 0 27
-6 33 -46 50 -33 14 -45 25 -42 37 4 22 44 29 64 12 8 -6 18 -9 22 -5 10 11
-28 36 -54 36 -13 0 -30 -7 -38 -16z"/>
<path d="M3236 1071 c-9 -14 15 -61 31 -61 11 0 10 6 -3 33 -21 40 -21 40 -28
28z"/>
<path d="M3796 973 c-11 -11 -6 -23 9 -23 8 0 15 4 15 9 0 13 -16 22 -24 14z"/>
<path d="M7040 1170 l0 -40 -49 0 c-28 0 -53 -4 -56 -10 -4 -6 15 -10 50 -10
l56 0 -3 -87 c-3 -82 -5 -88 -25 -91 -13 -2 -20 -8 -17 -17 6 -14 44 -8 56 9
4 6 8 50 8 99 0 86 0 87 25 87 14 0 25 5 25 10 0 6 -11 10 -25 10 -22 0 -25 4
-25 40 0 22 -4 40 -10 40 -5 0 -10 -18 -10 -40z"/>
<path d="M7180 1202 c0 -14 46 -53 53 -45 4 3 -3 17 -15 30 -22 23 -38 30 -38
15z"/>
<path d="M7280 1180 c0 -6 28 -10 65 -10 l65 0 0 -121 c0 -112 -1 -121 -20
-126 -11 -3 -20 -9 -20 -14 0 -14 40 -11 45 4 2 6 5 72 7 145 l3 132 -72 0
c-42 0 -73 -4 -73 -10z"/>
<path d="M6820 1055 c0 -113 8 -151 24 -110 7 20 52 19 60 -1 13 -33 17 -4 19
115 l2 121 -52 0 -53 0 0 -125z m88 68 c-3 -35 -6 -38 -35 -41 -32 -3 -33 -2
-33 37 0 40 1 41 36 41 35 0 35 -1 32 -37z m0 -105 c-3 -40 -5 -43 -33 -43
-28 0 -30 3 -33 43 l-3 42 36 0 36 0 -3 -42z"/>
<path d="M7836 1148 c-20 -29 -8 -47 14 -19 12 16 25 22 46 19 25 -2 29 -8 32
-35 3 -28 -5 -40 -52 -88 -76 -75 -74 -85 14 -85 40 0 70 4 70 10 0 6 -25 10
-55 10 -30 0 -55 4 -55 8 0 4 22 30 49 56 57 56 69 88 46 122 -21 33 -87 34
-109 2z"/>
<path d="M7170 1025 c0 -77 4 -125 10 -125 6 0 10 48 10 125 0 77 -4 125 -10
125 -6 0 -10 -48 -10 -125z"/>
<path d="M7526 1133 c-11 -11 -6 -23 9 -23 8 0 15 4 15 9 0 13 -16 22 -24 14z"/>
<path d="M7240 1040 l0 -70 60 0 60 0 0 70 0 70 -60 0 -60 0 0 -70z m100 35
c0 -22 -4 -25 -40 -25 -36 0 -40 3 -40 25 0 23 4 25 40 25 36 0 40 -2 40 -25z
m-2 -67 c-2 -19 -10 -24 -40 -26 -35 -3 -38 -1 -38 22 0 24 4 26 41 26 36 0
40 -2 37 -22z"/>
<path d="M8006 1094 c-33 -32 -18 -63 39 -81 22 -7 30 -16 30 -34 0 -31 -38
-38 -67 -12 -20 17 -20 17 -17 -2 5 -26 47 -40 82 -26 21 8 27 17 27 41 0 27
-6 33 -46 50 -33 14 -45 25 -42 37 4 22 44 29 64 12 8 -6 18 -9 22 -5 10 11
-28 36 -54 36 -13 0 -30 -7 -38 -16z"/>
<path d="M6958 1075 c-7 -8 23 -65 35 -65 13 0 7 24 -11 48 -10 13 -21 20 -24
17z"/>
<path d="M7526 973 c-11 -11 -6 -23 9 -23 8 0 15 4 15 9 0 13 -16 22 -24 14z"/>
<path d="M520 555 c0 -47 -4 -85 -9 -85 -13 0 -64 -70 -56 -78 3 -4 20 9 36
28 l28 35 1 -64 0 -63 27 7 c40 10 50 20 82 88 29 60 29 60 36 29 10 -45 64
-117 78 -103 8 8 4 18 -16 38 -27 29 -57 91 -57 118 0 11 11 15 40 15 22 0 40
5 40 10 0 6 -20 10 -45 10 l-45 0 0 50 c0 28 -4 50 -10 50 -5 0 -10 -22 -10
-50 l0 -50 -34 0 c-19 0 -38 -4 -41 -10 -4 -6 8 -10 29 -10 30 0 36 -4 36 -20
0 -45 -56 -140 -82 -140 -6 0 -8 61 -6 140 2 107 0 140 -9 140 -10 0 -13 -24
-13 -85z"/>
<path d="M920 615 c0 -24 -3 -25 -60 -25 -33 0 -60 -4 -60 -10 0 -5 25 -10 56
-10 l55 0 -21 -30 c-12 -17 -36 -38 -53 -46 -40 -21 -40 -21 -33 -33 10 -16
82 35 107 75 26 42 38 42 64 1 22 -34 82 -80 99 -74 21 7 15 25 -11 32 -28 6
-83 51 -83 67 0 4 23 8 50 8 28 0 50 5 50 10 0 6 -30 10 -71 10 -71 0 -71 0
-65 25 5 18 2 25 -9 25 -9 0 -15 -9 -15 -25z"/>
<path d="M1222 601 c-18 -22 -41 -42 -52 -46 -21 -7 -28 -25 -8 -25 6 0 26 11
44 25 26 20 44 25 90 25 l58 0 -34 -35 -33 -34 -29 21 c-36 25 -52 14 -18 -12
25 -19 25 -19 5 -34 -11 -9 -42 -23 -68 -32 -35 -11 -46 -19 -38 -27 7 -7 18
-7 36 1 14 7 28 12 30 12 3 0 5 -25 5 -55 0 -30 5 -55 10 -55 6 0 10 5 10 10
0 6 32 10 75 10 43 0 75 -4 75 -10 0 -5 5 -10 10 -10 6 0 10 30 10 70 l0 70
-66 0 -65 0 60 56 c34 31 61 60 61 65 0 5 -32 9 -72 9 -56 0 -69 3 -60 12 7 7
12 16 12 20 0 18 -18 6 -48 -31z m158 -191 l0 -40 -75 0 -75 0 0 40 0 40 75 0
75 0 0 -40z"/>
<path d="M1640 628 c0 -7 -9 -31 -19 -54 -17 -37 -21 -40 -50 -36 -26 4 -31 9
-31 32 0 19 6 29 20 33 11 3 20 11 20 17 0 8 -7 9 -17 5 -10 -4 -35 -9 -55
-12 -42 -6 -52 -23 -13 -23 20 0 25 -5 25 -25 0 -21 -5 -25 -31 -25 -17 0 -28
-4 -24 -10 3 -5 18 -10 31 -10 l26 0 -30 -55 c-32 -59 -25 -88 8 -33 l20 33 0
-67 c0 -39 4 -68 10 -68 6 0 10 30 10 70 0 66 10 90 24 54 3 -8 11 -12 17 -9
7 5 1 17 -15 34 -35 37 -33 45 12 37 35 -5 40 -3 50 19 10 21 18 25 57 25 42
0 46 -2 40 -20 -8 -26 11 -26 25 -1 18 35 12 41 -46 41 -49 0 -55 2 -49 18 11
28 11 34 -2 39 -7 3 -13 -1 -13 -9z"/>
<path d="M696 585 c15 -23 34 -34 34 -19 0 16 -23 44 -36 44 -12 0 -12 -4 2
-25z"/>
<path d="M460 571 c0 -15 38 -56 45 -49 8 8 -23 58 -36 58 -5 0 -9 -4 -9 -9z"/>
<path d="M1668 444 c3 -79 2 -86 -17 -91 -24 -6 -28 -23 -7 -23 34 0 46 29 46
116 0 60 -3 84 -12 84 -10 0 -12 -22 -10 -86z"/>
<path d="M916 512 c-3 -6 5 -17 19 -26 29 -19 33 -7 6 18 -11 10 -22 13 -25 8z"/>
<path d="M1707 474 c-7 -7 42 -84 54 -84 14 0 11 7 -17 50 -29 44 -28 43 -37
34z"/>
<path d="M1609 443 c-6 -16 -18 -36 -26 -45 -15 -16 -15 -18 0 -18 8 0 27 20
40 45 20 35 22 45 11 45 -8 0 -19 -12 -25 -27z"/>
<path d="M920 443 c0 -5 12 -16 25 -26 21 -15 25 -16 25 -3 0 8 -9 20 -19 26
-23 12 -31 13 -31 3z"/>
<path d="M813 395 c-12 -19 -18 -37 -13 -40 9 -6 50 50 50 68 0 16 -16 4 -37
-28z"/>
<path d="M880 391 c0 -31 5 -43 21 -51 25 -14 93 -4 110 16 18 22 4 28 -24 9
-14 -9 -38 -15 -54 -13 -24 3 -28 7 -29 37 0 19 -5 36 -12 39 -8 2 -12 -10
-12 -37z"/>
<path d="M1030 422 c0 -5 11 -19 25 -32 19 -18 25 -20 25 -8 0 8 -8 22 -18 31
-20 19 -32 22 -32 9z"/>
<path d="M3100 805 c0 -23 -3 -25 -50 -25 l-50 0 0 -85 0 -85 49 0 50 0 3 -37
3 -38 70 -3 c62 -3 72 0 87 19 18 21 16 39 -3 39 -5 0 -9 -7 -9 -15 0 -19 -31
-35 -69 -35 -47 0 -61 9 -61 41 0 28 1 29 55 29 l55 0 0 85 0 85 -56 0 c-55 0
-56 1 -52 25 4 17 1 25 -8 25 -8 0 -14 -11 -14 -25z m0 -70 c0 -22 -4 -25 -40
-25 -36 0 -40 3 -40 25 0 23 4 25 40 25 36 0 40 -2 40 -25z m110 0 c0 -23 -4
-25 -45 -25 -41 0 -45 2 -45 25 0 23 4 25 45 25 41 0 45 -2 45 -25z m-110 -75
c0 -28 -2 -30 -40 -30 -38 0 -40 2 -40 30 0 28 2 30 40 30 38 0 40 -2 40 -30z
m110 0 c0 -29 -2 -30 -45 -30 -43 0 -45 1 -45 30 0 29 2 30 45 30 43 0 45 -1
45 -30z"/>
<path d="M3550 790 l0 -40 -49 0 c-28 0 -53 -4 -56 -10 -4 -6 15 -10 50 -10
l56 0 -3 -87 c-3 -82 -5 -88 -25 -91 -13 -2 -20 -8 -17 -17 6 -14 44 -8 56 9
4 6 8 50 8 99 0 86 0 87 25 87 14 0 25 5 25 10 0 6 -11 10 -25 10 -22 0 -25 4
-25 40 0 22 -4 40 -10 40 -5 0 -10 -18 -10 -40z"/>
<path d="M3690 822 c0 -14 46 -53 53 -45 4 3 -3 17 -15 30 -22 23 -38 30 -38
15z"/>
<path d="M4068 763 l-3 -68 -37 1 c-21 1 -38 -2 -38 -7 0 -4 17 -9 38 -11 l37
-3 1 -72 c0 -40 4 -72 10 -72 16 2 84 44 84 52 0 12 -19 8 -45 -9 l-25 -16 0
61 c0 53 2 61 19 61 12 0 29 -16 44 -43 27 -45 91 -97 120 -97 28 0 19 15 -18
29 -35 12 -95 75 -95 99 0 11 15 13 65 10 39 -2 65 1 65 7 0 6 -38 9 -100 7
l-100 -4 0 71 c0 90 -18 93 -22 4z"/>
<path d="M4842 743 l3 -88 52 -3 c44 -3 53 0 63 19 8 14 8 25 2 31 -7 7 -12 3
-17 -11 -5 -17 -15 -21 -46 -21 -36 0 -39 2 -39 28 0 24 8 32 49 53 28 13 46
28 42 32 -5 5 -27 -1 -50 -12 l-41 -21 0 40 c0 22 -5 40 -10 40 -7 0 -10 -32
-8 -87z"/>
<path d="M4195 789 c-17 -17 -43 -38 -59 -46 -19 -10 -25 -18 -18 -25 7 -7 27
3 64 33 54 44 67 61 51 66 -5 2 -22 -11 -38 -28z"/>
<path d="M4760 750 c0 -64 -2 -70 -21 -70 -19 0 -21 5 -17 60 2 43 -1 60 -9
60 -9 0 -13 -20 -13 -65 0 -53 -3 -65 -16 -65 -13 0 -17 -20 -4 -22 22 -4 140
28 140 38 0 7 -8 10 -20 7 -16 -4 -20 0 -20 21 0 19 5 26 19 26 11 0 23 5 26
10 4 6 -5 10 -19 10 -22 0 -26 4 -26 30 0 17 -4 30 -10 30 -6 0 -10 -30 -10
-70z"/>
<path d="M3790 800 c0 -6 28 -10 65 -10 l65 0 0 -121 c0 -112 -1 -121 -20
-126 -11 -3 -20 -9 -20 -14 0 -14 40 -11 45 4 2 6 5 72 7 145 l3 132 -72 0
c-42 0 -73 -4 -73 -10z"/>
<path d="M3330 675 c0 -113 8 -151 24 -110 7 20 52 19 60 -1 13 -33 17 -4 19
115 l2 121 -52 0 -53 0 0 -125z m88 68 c-3 -35 -6 -38 -35 -41 -32 -3 -33 -2
-33 37 0 40 1 41 36 41 35 0 35 -1 32 -37z m0 -105 c-3 -40 -5 -43 -33 -43
-28 0 -30 3 -33 43 l-3 42 36 0 36 0 -3 -42z"/>
<path d="M3680 645 c0 -77 4 -125 10 -125 6 0 10 48 10 125 0 77 -4 125 -10
125 -6 0 -10 -48 -10 -125z"/>
<path d="M3750 660 l0 -70 60 0 60 0 0 70 0 70 -60 0 -60 0 0 -70z m100 35 c0
-22 -4 -25 -40 -25 -36 0 -40 3 -40 25 0 23 4 25 40 25 36 0 40 -2 40 -25z
m-2 -67 c-2 -19 -10 -24 -40 -26 -35 -3 -38 -1 -38 22 0 24 4 26 41 26 36 0
40 -2 37 -22z"/>
<path d="M3468 695 c-7 -8 23 -65 35 -65 13 0 7 24 -11 48 -10 13 -21 20 -24
17z"/>
<path d="M4330 680 c0 -6 57 -10 150 -10 93 0 150 4 150 10 0 6 -57 10 -150
10 -93 0 -150 -4 -150 -10z"/>
<path d="M4725 610 c3 -6 48 -10 101 -10 56 0 94 4 94 10 0 6 -40 10 -101 10
-64 0 -98 -4 -94 -10z"/>
<path d="M4682 544 c8 -7 268 -7 276 0 3 3 -59 6 -138 6 -79 0 -141 -3 -138
-6z"/>
<path d="M2890 442 c0 -13 34 -42 49 -42 8 0 6 8 -6 25 -17 24 -43 34 -43 17z"/>
<path d="M3820 410 l0 -40 -49 0 c-28 0 -53 -4 -56 -10 -4 -6 15 -10 50 -10
l56 0 -3 -87 c-3 -82 -5 -88 -25 -91 -13 -2 -20 -8 -17 -17 6 -14 44 -8 56 9
4 6 8 50 8 99 0 86 0 87 25 87 14 0 25 5 25 10 0 6 -11 10 -25 10 -22 0 -25 4
-25 40 0 22 -4 40 -10 40 -5 0 -10 -18 -10 -40z"/>
<path d="M4800 400 c0 -49 -1 -50 -30 -50 l-30 0 0 -75 c0 -43 4 -75 10 -75 6
0 10 28 10 65 l0 65 50 0 50 0 0 -60 c0 -33 4 -60 10 -60 6 0 10 30 10 70 l0
70 -30 0 c-29 0 -30 1 -30 50 0 28 -4 50 -10 50 -5 0 -10 -22 -10 -50z"/>
<path d="M2730 290 c0 -93 4 -150 10 -150 6 0 10 53 10 140 l0 140 25 0 c24 0
24 0 10 -41 -13 -36 -13 -44 0 -62 19 -28 19 -76 0 -83 -18 -7 -20 -24 -2 -24
41 1 55 66 24 110 -13 19 -14 27 -1 62 20 57 19 58 -31 58 l-45 0 0 -150z"/>
<path d="M3200 305 l0 -135 -36 0 -35 0 3 100 c2 75 0 100 -9 100 -10 0 -13
-27 -13 -100 l0 -100 -32 0 c-17 0 -29 -3 -26 -6 8 -8 298 -10 298 -2 0 4 -28
8 -62 10 l-63 3 -3 73 -3 72 51 0 c27 0 50 5 50 10 0 6 -23 10 -51 10 l-51 0
4 50 c2 35 -1 50 -9 50 -10 0 -13 -34 -13 -135z"/>
<path d="M4310 432 c0 -4 7 -18 16 -30 21 -30 38 -17 18 14 -16 23 -34 32 -34
16z"/>
<path d="M4650 431 c0 -4 -11 -24 -24 -43 -19 -28 -21 -38 -11 -51 7 -10 20
-17 29 -17 10 0 16 -8 16 -25 0 -20 -5 -25 -25 -25 -14 0 -25 -4 -25 -10 0 -5
12 -10 26 -10 26 0 26 -2 22 -45 -6 -53 6 -58 43 -19 l24 26 -22 -6 c-20 -6
-23 -4 -23 18 0 21 5 26 25 26 14 0 25 5 25 10 0 6 -11 10 -25 10 -20 0 -25 5
-25 25 0 18 5 25 20 25 11 0 20 5 20 10 0 6 -23 10 -51 10 -45 0 -50 2 -39 15
7 9 29 15 51 15 21 0 41 5 44 10 4 6 -10 10 -35 10 l-40 0 16 25 c15 23 15 25
0 25 -9 0 -16 -4 -16 -9z"/>
<path d="M3930 285 c0 -109 3 -145 13 -145 9 0 11 32 9 135 l-3 135 25 0 c29
0 32 -13 12 -50 -12 -21 -12 -27 5 -49 26 -32 25 -71 -1 -71 -11 0 -20 -7 -20
-15 0 -18 14 -19 41 -5 25 14 25 60 0 91 -19 23 -19 24 5 71 l24 48 -55 0 -55
0 0 -145z"/>
<path d="M4048 289 c-2 -78 -1 -142 2 -144 9 -5 70 36 70 46 0 12 -17 11 -25
-1 -15 -24 -25 -6 -25 45 0 72 19 73 54 2 31 -65 59 -92 83 -83 14 6 12 10
-14 26 -42 25 -45 41 -11 67 19 13 25 24 18 28 -6 4 -22 -3 -36 -15 l-24 -23
-8 24 c-9 22 -7 24 24 27 l34 3 0 70 0 69 -69 0 -70 0 -3 -141z m122 101 c0
-17 -7 -20 -50 -20 -43 0 -50 3 -50 20 0 17 7 20 50 20 43 0 50 -3 50 -20z m0
-60 c0 -17 -7 -20 -50 -20 -43 0 -50 3 -50 20 0 17 7 20 50 20 43 0 50 -3 50
-20z"/>
<path d="M4727 423 c-7 -11 39 -60 48 -51 4 3 -5 18 -18 33 -14 16 -26 24 -30
18z"/>
<path d="M4856 403 c-11 -15 -15 -28 -9 -34 5 -5 16 3 26 20 22 37 9 48 -17
14z"/>
<path d="M3600 295 c0 -113 8 -151 24 -110 7 20 52 19 60 -1 13 -33 17 -4 19
115 l2 121 -52 0 -53 0 0 -125z m88 68 c-3 -35 -6 -38 -35 -41 -32 -3 -33 -2
-33 37 0 40 1 41 36 41 35 0 35 -1 32 -37z m0 -105 c-3 -40 -5 -43 -33 -43
-28 0 -30 3 -33 43 l-3 42 36 0 36 0 -3 -42z"/>
<path d="M4380 410 c0 -6 30 -10 70 -10 l70 0 0 -120 c0 -100 -2 -120 -15
-120 -8 0 -15 -5 -15 -11 0 -6 10 -9 23 -7 21 3 22 6 25 141 l3 137 -81 0
c-47 0 -80 -4 -80 -10z"/>
<path d="M3415 358 c19 -29 35 -57 35 -62 0 -4 -16 -30 -35 -56 -37 -50 -41
-60 -25 -60 5 0 25 23 44 51 l34 51 34 -51 c18 -28 39 -51 46 -51 7 0 -2 22
-23 52 -19 29 -35 59 -35 66 0 7 14 33 30 57 32 47 35 55 21 55 -5 0 -22 -20
-38 -45 -15 -25 -31 -45 -35 -45 -3 0 -19 20 -35 45 -15 25 -34 45 -41 45 -7
0 2 -22 23 -52z"/>
<path d="M2820 380 c0 -5 11 -10 24 -10 35 0 38 -10 27 -82 -9 -53 -16 -68
-45 -95 -19 -18 -31 -35 -26 -38 25 -15 65 31 85 100 11 36 15 40 49 43 l37 3
-3 -63 c-3 -57 -5 -63 -25 -66 -30 -4 -30 -22 0 -22 38 0 47 19 47 96 l0 72
-45 -6 c-45 -5 -45 -4 -45 27 0 31 0 31 55 31 30 0 55 5 55 10 0 6 -38 10 -95
10 -57 0 -95 -4 -95 -10z"/>
<path d="M4280 261 c0 -74 4 -121 10 -121 6 0 10 43 10 110 0 61 0 113 1 117
0 4 -4 9 -10 11 -8 3 -11 -35 -11 -117z"/>
<path d="M4430 355 c0 -23 -3 -25 -50 -25 -27 0 -50 -4 -50 -10 0 -5 16 -10
35 -10 19 0 35 -3 35 -7 0 -14 -39 -67 -61 -84 -14 -10 -18 -19 -11 -23 12 -7
56 36 78 77 8 15 17 27 19 27 3 0 5 -25 5 -55 0 -48 -2 -55 -20 -55 -13 0 -18
-5 -14 -15 8 -19 19 -19 38 1 11 10 16 34 16 75 0 56 1 59 25 59 14 0 25 5 25
10 0 6 -11 10 -25 10 -20 0 -25 5 -25 25 0 14 -4 25 -10 25 -5 0 -10 -11 -10
-25z"/>
<path d="M3738 315 c-7 -8 23 -65 35 -65 13 0 7 24 -11 48 -10 13 -21 20 -24
17z"/>
<path d="M4790 261 c0 -42 -27 -86 -61 -96 -14 -5 -18 -10 -11 -17 12 -12 39
1 66 31 24 27 39 121 19 121 -8 0 -13 -13 -13 -39z"/>
<path d="M4826 202 c-3 -5 8 -21 23 -36 20 -19 31 -24 36 -16 4 6 5 12 4 13
-2 1 -16 12 -30 25 -15 13 -29 19 -33 14z"/>
<path d="M6918 627 c-3 -19 -10 -22 -60 -25 -71 -4 -77 -22 -8 -22 28 0 50 -4
50 -9 0 -13 -60 -75 -85 -89 -15 -8 -17 -14 -9 -22 8 -8 19 -4 43 15 l31 27 0
-86 c0 -51 4 -86 10 -86 6 0 10 18 10 40 l0 40 60 0 c57 0 60 -1 60 -25 0 -18
-5 -25 -20 -25 -11 0 -20 -4 -20 -9 0 -16 19 -23 40 -16 18 6 20 15 20 106 l0
99 -65 0 c-63 0 -65 1 -55 20 9 17 21 20 90 20 47 0 80 4 80 10 0 6 -32 10
-76 10 -71 0 -76 1 -71 19 3 11 -1 22 -8 25 -9 3 -15 -4 -17 -17z m102 -122
c0 -12 -13 -15 -60 -15 -47 0 -60 3 -60 15 0 12 13 15 60 15 47 0 60 -3 60
-15z m0 -55 c0 -18 -7 -20 -60 -20 -53 0 -60 2 -60 20 0 18 7 20 60 20 53 0
60 -2 60 -20z"/>
<path d="M8008 623 c-3 -24 -7 -28 -35 -28 -18 0 -33 -3 -33 -7 0 -4 15 -8 33
-10 24 -2 32 -8 32 -23 0 -16 -9 -21 -45 -26 -25 -3 -42 -7 -37 -8 18 -5 189
-2 194 3 4 3 -15 6 -40 6 -43 0 -47 2 -47 24 0 20 6 25 33 29 l32 4 -32 1
c-28 2 -33 6 -33 26 0 35 -18 42 -22 9z"/>
<path d="M6190 633 c1 -14 49 -43 55 -34 3 5 -5 17 -17 25 -24 17 -38 20 -38
9z"/>
<path d="M6307 609 c-17 -31 -19 -31 -77 -27 l-60 4 0 -68 0 -68 45 0 c33 0
45 -4 45 -15 0 -12 -14 -15 -70 -15 -40 0 -70 -4 -70 -10 0 -6 30 -10 70 -10
l70 0 0 -40 c0 -22 5 -40 10 -40 6 0 10 18 10 40 l0 40 70 0 c40 0 70 4 70 10
0 6 -30 10 -70 10 -56 0 -70 3 -70 15 0 11 12 15 50 15 l51 0 -3 68 c-3 67 -3
67 -30 64 -31 -4 -36 9 -13 28 18 15 19 30 3 30 -7 0 -21 -14 -31 -31z m-47
-59 c0 -16 -7 -20 -35 -20 -28 0 -35 4 -35 20 0 16 7 20 35 20 28 0 35 -4 35
-20z m98 -2 c3 -15 -4 -18 -37 -18 -35 0 -41 3 -41 21 0 17 5 20 37 17 27 -2
39 -8 41 -20z m-98 -58 c0 -16 -7 -20 -35 -20 -28 0 -35 4 -35 20 0 16 7 20
35 20 28 0 35 -4 35 -20z m100 0 c0 -17 -7 -20 -40 -20 -33 0 -40 3 -40 20 0
17 7 20 40 20 33 0 40 -3 40 -20z"/>
<path d="M6511 608 c-7 -18 -23 -50 -36 -70 -19 -29 -22 -38 -11 -38 8 0 20 8
25 18 8 12 10 -11 11 -85 0 -151 18 -127 23 30 2 72 7 142 11 155 5 13 4 22
-2 22 -5 0 -15 -15 -21 -32z"/>
<path d="M6728 498 c-3 -142 -3 -143 -25 -141 -13 2 -23 -2 -23 -7 0 -17 27
-22 49 -10 20 10 21 19 21 155 0 192 -19 194 -22 3z"/>
<path d="M7535 611 c-3 -17 -20 -48 -36 -70 -16 -23 -29 -43 -29 -46 0 -12 24
-4 36 13 11 14 13 3 14 -80 0 -59 4 -98 10 -98 6 0 10 48 10 123 1 87 5 129
15 147 18 32 18 40 1 40 -8 0 -17 -13 -21 -29z"/>
<path d="M7860 605 c0 -31 -3 -35 -25 -35 -14 0 -25 -4 -25 -10 0 -5 11 -10
25 -10 22 0 25 -4 25 -35 0 -28 -5 -38 -25 -47 -14 -6 -25 -15 -25 -21 0 -5
11 -6 25 -3 24 6 25 5 25 -44 0 -38 -4 -50 -15 -50 -8 0 -15 -5 -15 -11 0 -6
10 -9 23 -7 20 3 22 9 25 68 2 44 8 67 18 73 19 11 18 31 -1 23 -11 -4 -15 2
-15 24 0 23 4 30 20 30 11 0 20 5 20 10 0 6 -9 10 -21 10 -18 0 -21 5 -17 35
3 24 0 35 -9 35 -8 0 -13 -13 -13 -35z"/>
<path d="M8326 618 c10 -33 61 -104 86 -122 40 -28 41 -3 1 30 -22 18 -48 51
-58 73 -19 43 -41 57 -29 19z"/>
<path d="M8545 612 c-3 -15 -19 -48 -35 -72 -19 -28 -26 -46 -18 -49 6 -2 17
4 23 13 23 30 27 16 23 -79 -2 -59 1 -95 7 -95 6 0 9 43 7 114 -2 83 1 123 12
149 8 19 12 38 8 41 -12 12 -21 5 -27 -22z"/>
<path d="M8630 636 c0 -14 51 -57 60 -51 8 5 4 15 -11 31 -20 21 -49 33 -49
20z"/>
<path d="M8236 604 c-4 -14 -25 -45 -48 -70 -46 -50 -44 -73 3 -29 33 33 80
111 71 119 -11 12 -20 5 -26 -20z"/>
<path d="M6550 520 c0 -60 4 -100 10 -100 6 0 10 37 10 91 l0 90 33 -3 32 -3
0 -83 c0 -59 4 -82 13 -82 9 0 12 26 12 95 l0 95 -55 0 -55 0 0 -100z"/>
<path d="M7590 570 c0 -49 1 -50 30 -50 20 0 30 -5 30 -15 0 -11 -12 -15 -45
-15 -25 0 -45 -4 -45 -10 0 -5 18 -10 41 -10 l41 0 -20 -31 c-10 -17 -31 -39
-46 -49 -17 -11 -24 -20 -17 -24 15 -10 37 4 66 44 l25 34 0 -57 c0 -31 5 -57
10 -57 6 0 10 25 10 57 l0 56 38 -41 c22 -23 43 -42 49 -42 24 0 18 14 -23 52
-24 22 -44 44 -44 49 0 5 18 9 40 9 22 0 40 5 40 10 0 6 -22 10 -50 10 -38 0
-50 4 -50 15 0 10 11 15 35 15 l35 0 0 50 0 50 -75 0 -75 0 0 -50z m130 0 c0
-30 -1 -30 -55 -30 -54 0 -55 0 -55 30 0 30 1 30 55 30 54 0 55 0 55 -30z"/>
<path d="M7168 508 c-3 -69 -10 -114 -21 -135 -11 -20 -13 -34 -7 -38 19 -12
43 69 48 163 l5 92 113 0 c69 0 114 4 114 10 0 6 -48 10 -124 10 l-123 0 -5
-102z"/>
<path d="M6680 505 c0 -52 4 -95 9 -95 5 0 11 43 13 95 2 71 0 95 -9 95 -10 0
-13 -26 -13 -95z"/>
<path d="M7290 535 c0 -34 -1 -35 -40 -35 -22 0 -40 -4 -40 -10 0 -5 18 -10
40 -10 l40 0 0 -60 0 -60 -57 0 c-31 0 -54 -3 -51 -6 6 -5 238 -8 256 -3 4 2
-22 5 -58 8 l-65 6 0 55 0 55 43 3 c53 4 45 22 -10 22 l-41 0 6 35 c4 26 2 35
-9 35 -9 0 -14 -11 -14 -35z"/>
<path d="M8580 560 c0 -6 40 -10 100 -10 60 0 100 4 100 10 0 6 -40 10 -100
10 -60 0 -100 -4 -100 -10z"/>
<path d="M6590 479 c0 -77 -1 -82 -30 -109 -19 -18 -26 -31 -20 -35 13 -8 36
10 53 39 17 31 25 186 10 186 -9 0 -13 -23 -13 -81z"/>
<path d="M8704 453 l-19 -78 -60 -6 c-42 -4 -24 -6 60 -6 66 1 99 2 73 4 -29
3 -48 9 -48 16 0 7 9 41 20 77 24 78 23 70 6 70 -8 0 -20 -28 -32 -77z"/>
<path d="M8210 510 c0 -5 11 -10 25 -10 18 0 25 -5 25 -20 0 -38 -29 -90 -60
-108 -31 -18 -36 -27 -21 -36 27 -17 101 85 101 138 0 24 4 26 40 26 l40 0 0
-49 c0 -65 -7 -81 -37 -81 -15 0 -23 -5 -21 -12 7 -19 31 -21 53 -4 16 11 20
29 23 90 l4 76 -86 0 c-51 0 -86 -4 -86 -10z"/>
<path d="M8610 513 c0 -25 36 -113 46 -113 9 0 7 16 -8 60 -11 33 -24 60 -29
60 -5 0 -9 -3 -9 -7z"/>
<path d="M8050 490 c0 -18 -7 -20 -60 -20 -33 0 -60 -4 -60 -10 0 -6 27 -10
60 -10 l60 0 0 -44 c0 -37 -4 -45 -20 -48 -15 -2 -17 -7 -10 -18 7 -12 13 -12
27 -4 13 8 19 26 21 63 3 43 6 51 23 51 10 0 19 5 19 10 0 6 -9 10 -20 10 -13
0 -20 7 -20 20 0 11 -4 20 -10 20 -5 0 -10 -9 -10 -20z"/>
<path d="M7360 420 c20 -28 40 -40 40 -22 -1 13 -38 52 -50 52 -6 0 -2 -13 10
-30z"/>
<path d="M7968 408 c12 -12 24 -19 28 -15 10 10 -16 37 -34 37 -13 0 -12 -4 6
-22z"/>
<path d="M6620 402 c0 -14 39 -46 47 -39 3 4 -2 16 -12 27 -19 21 -35 26 -35
12z"/>
<path d="M9957 633 c-7 -11 39 -60 48 -51 4 3 -5 18 -18 33 -14 16 -26 24 -30
18z"/>
<path d="M10047 605 c-15 -32 -20 -35 -62 -35 -25 0 -45 -4 -45 -10 0 -5 16
-10 35 -10 33 0 35 -2 35 -35 0 -33 -2 -35 -35 -35 -19 0 -35 -4 -35 -10 0 -5
14 -10 30 -10 17 0 30 -5 30 -12 0 -17 -39 -80 -58 -94 -12 -9 -12 -13 -2 -19
14 -9 43 22 65 70 8 17 14 24 15 18 0 -19 71 -94 82 -87 5 3 -9 26 -32 50 -51
55 -52 74 -5 74 19 0 35 5 35 10 0 6 -17 10 -38 10 -38 0 -38 0 -34 35 4 32 7
35 38 35 40 0 46 17 8 22 l-26 3 21 27 c24 30 26 38 8 38 -7 0 -21 -16 -30
-35z"/>
<path d="M10180 588 c-14 -28 -26 -55 -28 -59 -2 -4 11 -9 28 -11 l31 -3 -30
-35 c-17 -19 -30 -38 -31 -42 0 -14 64 -8 94 7 15 8 32 15 37 15 5 0 9 -29 9
-65 0 -37 4 -65 10 -65 6 0 10 7 10 15 0 11 12 15 45 15 25 0 45 -4 45 -10 0
-5 5 -10 10 -10 6 0 10 27 10 60 l0 60 -62 0 -63 1 29 23 29 24 40 -25 c27
-17 42 -22 50 -14 7 7 2 14 -19 21 -52 20 -54 27 -27 75 l25 45 -47 0 c-41 0
-46 2 -35 15 10 12 10 15 -4 15 -8 0 -25 -18 -36 -39 -11 -22 -24 -43 -30 -46
-6 -4 -7 -11 -4 -17 4 -7 17 2 33 21 22 27 33 32 60 29 l33 -3 -19 -24 c-17
-21 -20 -22 -32 -7 -21 25 -35 19 -18 -8 13 -19 14 -26 4 -34 -25 -20 -117
-64 -127 -60 -6 2 6 29 26 61 20 32 33 61 29 65 -4 4 -14 -3 -22 -15 -14 -22
-53 -32 -53 -15 0 4 11 24 25 43 21 33 23 49 6 49 -4 0 -17 -23 -31 -52z m218
-175 c3 -33 3 -33 -42 -33 -44 0 -46 1 -46 28 0 38 7 44 50 40 31 -3 35 -6 38
-35z"/>
<path d="M10599 596 c-18 -29 -40 -49 -68 -62 -41 -18 -49 -28 -32 -38 11 -7
80 43 111 81 l25 29 28 -33 c39 -44 93 -77 115 -68 13 5 9 11 -23 26 -45 22
-105 77 -105 96 0 27 -26 11 -51 -31z"/>
<path d="M10876 632 c-7 -11 29 -60 38 -52 3 3 -3 18 -13 34 -10 15 -21 23
-25 18z"/>
<path d="M11310 610 c0 -27 -3 -30 -31 -30 -26 0 -29 3 -24 20 12 38 -13 20
-35 -26 -24 -48 -20 -72 6 -36 11 15 25 22 50 22 31 0 34 -2 34 -30 l0 -30
-70 0 c-40 0 -70 -4 -70 -10 0 -6 55 -10 144 -10 86 0 147 4 151 10 4 6 -20
10 -64 10 l-71 0 0 30 c0 29 1 30 50 30 28 0 50 5 50 10 0 6 -22 10 -50 10
-49 0 -50 1 -50 30 0 17 -4 30 -10 30 -5 0 -10 -13 -10 -30z"/>
<path d="M11560 628 c0 -10 -10 -18 -27 -21 l-28 -4 28 -2 27 -1 -32 -30 c-24
-22 -29 -29 -16 -30 9 0 20 5 23 10 3 6 29 10 57 10 42 0 49 -3 44 -16 -3 -9
-6 -20 -6 -25 0 -5 -4 -9 -10 -9 -5 0 -10 9 -10 20 0 16 -7 20 -35 20 -31 0
-35 -3 -35 -25 0 -22 4 -25 38 -25 20 0 44 -5 52 -10 11 -7 -5 -10 -52 -10
-39 0 -68 -4 -68 -10 0 -6 53 -10 140 -10 87 0 140 4 140 10 0 6 -26 10 -58
10 -32 0 -63 5 -70 12 -18 18 -15 68 3 68 9 0 18 7 21 15 4 8 17 15 30 15 26
0 29 -7 14 -30 -9 -13 -11 -13 -19 0 -6 8 -13 11 -17 7 -4 -4 -2 -13 4 -19 17
-17 15 -26 -8 -33 -11 -4 -18 -11 -14 -16 4 -6 14 -5 28 4 19 13 26 13 48 1
15 -8 29 -10 32 -5 3 4 -6 13 -20 20 -17 8 -24 17 -20 27 3 9 6 20 6 25 0 5
10 14 23 19 18 7 13 9 -25 9 -38 1 -46 4 -42 16 4 8 1 15 -4 15 -6 0 -13 -9
-17 -19 -9 -28 -27 -40 -50 -31 -19 8 -19 8 5 18 14 6 19 11 11 11 -8 1 -20 9
-27 19 -13 16 -13 16 -14 0 0 -10 -5 -18 -11 -18 -7 0 -18 8 -25 18 -12 16
-13 16 -14 0z m50 -38 c0 -5 -9 -10 -21 -10 -11 0 -17 5 -14 10 3 6 13 10 21
10 8 0 14 -4 14 -10z m-27 -67 c-7 -2 -19 -2 -25 0 -7 3 -2 5 12 5 14 0 19 -2
13 -5z"/>
<path d="M9810 611 c0 -5 7 -11 15 -15 12 -4 15 -25 15 -101 0 -78 -3 -95 -15
-95 -8 0 -15 -6 -15 -14 0 -12 7 -12 45 0 l45 13 0 -34 c0 -19 5 -35 10 -35 6
0 10 14 10 32 0 17 7 40 17 50 15 17 15 18 0 18 -14 0 -17 12 -17 79 0 44 5
83 10 86 25 16 5 25 -55 25 -36 0 -65 -4 -65 -9z m90 -41 c0 -23 -4 -30 -20
-30 -16 0 -20 7 -20 30 0 23 4 30 20 30 16 0 20 -7 20 -30z m0 -65 c0 -18 -5
-25 -20 -25 -15 0 -20 7 -20 25 0 18 5 25 20 25 15 0 20 -7 20 -25z m-2 -67
c-5 -34 -38 -37 -38 -4 0 20 5 26 21 26 15 0 20 -5 17 -22z"/>
<path d="M10950 608 c0 -5 29 -8 65 -8 l65 0 0 -120 c0 -113 -1 -120 -20 -120
-11 0 -20 -5 -20 -11 0 -6 12 -9 28 -7 l27 3 3 135 3 135 -76 0 c-41 0 -75 -3
-75 -7z"/>
<path d="M10850 460 c0 -73 4 -120 10 -120 6 0 10 47 10 120 0 73 -4 120 -10
120 -6 0 -10 -47 -10 -120z"/>
<path d="M10900 490 l0 -60 30 0 c28 0 30 -2 30 -40 0 -22 5 -40 10 -40 6 0
10 18 10 40 0 39 1 40 35 40 l35 0 0 60 0 60 -75 0 -75 0 0 -60z m60 25 c0 -8
-9 -15 -20 -15 -11 0 -20 7 -20 15 0 8 9 15 20 15 11 0 20 -7 20 -15z m70 0
c0 -9 -9 -15 -25 -15 -16 0 -25 6 -25 15 0 9 9 15 25 15 16 0 25 -6 25 -15z
m-70 -55 c0 -13 -7 -20 -20 -20 -13 0 -20 7 -20 20 0 13 7 20 20 20 13 0 20
-7 20 -20z m70 -1 c0 -15 -5 -20 -22 -17 -34 5 -37 38 -4 38 20 0 26 -5 26
-21z"/>
<path d="M10560 510 c0 -6 33 -10 80 -10 47 0 80 4 80 10 0 6 -33 10 -80 10
-47 0 -80 -4 -80 -10z"/>
<path d="M10550 395 c0 -37 4 -65 10 -65 6 0 10 5 10 10 0 6 30 10 70 10 40 0
70 -4 70 -10 0 -5 6 -10 13 -10 9 0 11 18 9 65 l-4 65 -89 0 -89 0 0 -65z
m160 10 l0 -35 -70 0 -70 0 0 35 0 35 70 0 70 0 0 -35z"/>
<path d="M11220 390 c0 -33 4 -60 10 -60 6 0 10 5 10 10 0 6 32 10 75 10 43 0
75 -4 75 -10 0 -5 5 -10 10 -10 6 0 10 27 10 60 l0 60 -95 0 -95 0 0 -60z
m170 10 l0 -30 -75 0 -75 0 0 30 0 30 75 0 75 0 0 -30z"/>
<path d="M11553 444 c7 -8 187 -8 194 0 4 3 -40 6 -97 6 -57 0 -101 -3 -97 -6z"/>
<path d="M11598 413 c28 -2 76 -2 105 0 28 2 5 3 -53 3 -58 0 -81 -1 -52 -3z"/>
<path d="M10198 387 c-28 -6 -48 -16 -48 -24 0 -7 1 -13 3 -13 41 8 102 30
105 38 4 13 6 13 -60 -1z"/>
<path d="M11550 363 c0 -32 12 -43 25 -23 3 6 37 10 75 10 38 0 72 -4 75 -10
13 -20 25 -9 25 23 l0 32 -100 0 -100 0 0 -32z m180 7 c0 -6 -33 -10 -80 -10
-47 0 -80 4 -80 10 0 6 33 10 80 10 47 0 80 -4 80 -10z"/>
</g>
</svg>
